<svg id="katman_1" data-name="katman 1" xmlns="http://www.w3.org/2000/svg" viewBox="0 0 877.48 350.6"><defs><style>.cls-1,.cls-2{fill:none;stroke-miterlimit:10;stroke-width:0.25px;}.cls-1{stroke:#000;}.cls-2{stroke:#241916;}</style></defs><title>LowerMiddlePlate</title><path class="cls-1" d="M892,201.62,863.83,44.46a8.5,8.5,0,0,0-8.39-7l-169.88.42a3.23,3.23,0,0,0-.69.07l-50.62,9.14a2.86,2.86,0,0,0-2.1,1.67l-2.33,5.42L536.3,73.57a5.63,5.63,0,0,1-4.84-1.25l-18.61-16a7.4,7.4,0,0,0-5.12-2.24h-2.91l-51.28.13v0l-51.27-.13h-2.91a7.4,7.4,0,0,0-5.12,2.24l-18.61,16a5.66,5.66,0,0,1-4.85,1.25L277.26,54.15l-2.33-5.42a2.83,2.83,0,0,0-2.1-1.67l-50.62-9.14a3.23,3.23,0,0,0-.69-.07L51.65,37.42a8.52,8.52,0,0,0-8.4,7L15.06,201.59a8.51,8.51,0,0,0,6.88,9.88L132.23,232a5.56,5.56,0,0,0,2.15,0l24-5a5.86,5.86,0,0,1,2.17,0l41.18,8.56a2.85,2.85,0,0,1,2.33,2.8l-9.62,48.62a2.83,2.83,0,0,0,2,3.28l86.83,31.06a2.83,2.83,0,0,1,2,2.06l10.05,23.2a2.79,2.79,0,0,0,1.21,1.71l66.72,37.06a14.22,14.22,0,0,0,7.65,2.26h4.36l78.23.19v0l78.24-.19h4.35a14.2,14.2,0,0,0,7.65-2.26l66.72-37.06a2.81,2.81,0,0,0,1.22-1.71l10-23.2a2.82,2.82,0,0,1,2-2.06l86.83-31.06a2.82,2.82,0,0,0,2-3.28L703,238.32a2.85,2.85,0,0,1,2.33-2.8L746.54,227a5.66,5.66,0,0,1,2.17,0l24,5a5.81,5.81,0,0,0,2.16,0L885.15,211.5A8.51,8.51,0,0,0,892,201.62ZM367.35,361.52a7.59,7.59,0,1,1,7.59-7.58A7.59,7.59,0,0,1,367.35,361.52Zm172.39,0a7.59,7.59,0,1,1,7.58-7.58A7.59,7.59,0,0,1,539.74,361.52ZM816.34,210l-6.56,1.17-5.14.92h0l-27.37,4.87-8.13-45.72L757,173.57l4.47,25.12-39.07,6.95L718,181.2,704,184l2.57,14.48-39.07,6.95L665,191.58l-14,2.74,4.13,23.22-39.07,7L612,202,598,204.71,603.71,237l-39.07,7-9.09-51.1H515.09l8.43,15.25h8.72v15.8l37.33,67.6,20.37-11.25-4.69-10.39,35.92-16.21,2.58,5.73h26.06L646.91,247l38.36-9,9,38.36-38.36,9-1.69-7.2h-22l5.14,11.38-35.92,16.21-3.76-8.33-19,10.51,10,18.13-34.74,19.19L507.7,261.5H473.39v71.7h54.55v39.69H433.71v-.08H379.16V333.12h54.55V261.5H399l-46.24,83.72L318,326l10.15-18.37L309.4,297.32l-3.78,8.37-35.91-16.21,5.12-11.35h-22l-1.68,7.17-38.37-9,9-38.36,38.37,9-2.91,12.39h26.05l2.6-5.76,35.91,16.21-4.67,10.35,20,11.07,38.56-69.82V208.05h7.36l8.42-15.25h-40l-9.09,51.1-39.07-7,6-33.92-14.13-2.46L291,224.46l-39.07-7,4.22-23.73-14.08-2.44-2.48,13.95-39.07-6.95,2.45-13.8-14.15-2.46-4.13,23.21-39.07-6.95,4.1-23.05-12.16-2.11-7.77,43.69-29.57-5.26h0l-6.51-1.17-3-.53h0L35.66,200l6.94-38.58L61.68,54.16l39.07,7-2.4,13.47,16,2.78L116.53,65l39.07,7-2.18,12.24,12.16,2.11,5.85-32.88,39.07,6.95-5.82,32.73,14.15,2.46,7.5-42.14,39.07,6.95-7.47,42L272,104.75l5.73-32.19,39.07,6.94-5.69,32,6.39,1.14,7.73,1.34,3.92-22,39.07,7-6.32,35.54h33.26V99.64h44.61v-30h28.34V99.64h43.8v34.84h33.26l-6.32-35.54,39.07-7L582,115l14.11-2.52-5.86-32.93,39.07-7,5.82,32.69,14-2.74-7.49-42.12,39.07-7,7.37,41.44,14-2.75-5.6-31.47,39.07-6.95,5.48,30.79,12.17-2.39-1.81-10.2,39.07-7,1.69,9.52,16-3.12L806.39,61.2l39.07-7,20.13,113.19,5.86,32.6-55.11,9.9Zm-170,25.54a7.59,7.59,0,1,1-7.58-7.59A7.58,7.58,0,0,1,646.32,235.49Z" transform="translate(-14.8 -37.3)"/><circle class="cls-2" cx="253.54" cy="198.16" r="7.59"/></svg>