<svg id="katman_1" data-name="katman 1" xmlns="http://www.w3.org/2000/svg" viewBox="0 0 877.48 350.6"><defs><style>.cls-1{fill:#fff;}.cls-1,.cls-3{stroke:#1d1d1b;}.cls-1,.cls-2,.cls-3,.cls-4{stroke-miterlimit:10;stroke-width:0.25px;}.cls-2,.cls-3,.cls-4{fill:none;}.cls-2{stroke:#000;}.cls-4{stroke:#241916;}</style></defs><title>CircuitBoard</title><circle class="cls-1" cx="53.48" cy="92.6" r="5.65"/><circle class="cls-1" cx="67.02" cy="95.19" r="2.41"/><circle class="cls-1" cx="39.73" cy="90.34" r="2.41"/><circle class="cls-1" cx="44.53" cy="83.65" r="1.13"/><circle class="cls-1" cx="62.95" cy="79.73" r="1.13"/><circle class="cls-1" cx="43.97" cy="146.01" r="5.65"/><circle class="cls-1" cx="57.5" cy="148.59" r="2.41"/><circle class="cls-1" cx="30.21" cy="143.75" r="2.41"/><circle class="cls-1" cx="35.01" cy="137.06" r="1.13"/><circle class="cls-1" cx="53.43" cy="133.14" r="1.13"/><circle class="cls-1" cx="117.68" cy="50.3" r="5.65"/><circle class="cls-1" cx="131.22" cy="52.89" r="2.41"/><circle class="cls-1" cx="103.93" cy="48.04" r="2.41"/><circle class="cls-1" cx="108.73" cy="41.35" r="1.13"/><circle class="cls-1" cx="127.15" cy="37.43" r="1.13"/><circle class="cls-1" cx="108.56" cy="103.58" r="5.65"/><circle class="cls-1" cx="122.1" cy="106.17" r="2.41"/><circle class="cls-1" cx="94.81" cy="101.32" r="2.41"/><circle class="cls-1" cx="99.61" cy="94.63" r="1.13"/><circle class="cls-1" cx="118.03" cy="90.71" r="1.13"/><circle class="cls-1" cx="98.84" cy="156.74" r="5.65"/><circle class="cls-1" cx="112.38" cy="159.33" r="2.41"/><circle class="cls-1" cx="85.09" cy="154.48" r="2.41"/><circle class="cls-1" cx="89.89" cy="147.79" r="1.13"/><circle class="cls-1" cx="108.31" cy="143.87" r="1.13"/><circle class="cls-1" cx="172.67" cy="39.36" r="5.65"/><circle class="cls-1" cx="186.21" cy="41.94" r="2.41"/><circle class="cls-1" cx="158.92" cy="37.1" r="2.41"/><circle class="cls-1" cx="163.72" cy="30.41" r="1.13"/><circle class="cls-1" cx="182.14" cy="26.49" r="1.13"/><circle class="cls-1" cx="163.07" cy="92.32" r="5.65"/><circle class="cls-1" cx="176.61" cy="94.9" r="2.41"/><circle class="cls-1" cx="149.32" cy="90.06" r="2.41"/><circle class="cls-1" cx="154.12" cy="83.37" r="1.13"/><circle class="cls-1" cx="172.54" cy="79.45" r="1.13"/><circle class="cls-1" cx="153.8" cy="145.34" r="5.65"/><circle class="cls-1" cx="167.34" cy="147.93" r="2.41"/><circle class="cls-1" cx="140.05" cy="143.08" r="2.41"/><circle class="cls-1" cx="144.85" cy="136.39" r="1.13"/><circle class="cls-1" cx="163.27" cy="132.47" r="1.13"/><circle class="cls-1" cx="227.6" cy="39.02" r="5.65"/><circle class="cls-1" cx="241.14" cy="41.61" r="2.41"/><circle class="cls-1" cx="213.85" cy="36.76" r="2.41"/><circle class="cls-1" cx="218.65" cy="30.07" r="1.13"/><circle class="cls-1" cx="237.07" cy="26.15" r="1.13"/><circle class="cls-1" cx="218.36" cy="91.94" r="5.65"/><circle class="cls-1" cx="231.9" cy="94.53" r="2.41"/><circle class="cls-1" cx="204.61" cy="89.68" r="2.41"/><circle class="cls-1" cx="209.41" cy="82.99" r="1.13"/><circle class="cls-1" cx="227.83" cy="79.07" r="1.13"/><circle class="cls-1" cx="208.67" cy="145.36" r="5.65"/><circle class="cls-1" cx="222.21" cy="147.94" r="2.41"/><circle class="cls-1" cx="194.92" cy="143.1" r="2.41"/><circle class="cls-1" cx="199.72" cy="136.41" r="1.13"/><circle class="cls-1" cx="218.14" cy="132.49" r="1.13"/><circle class="cls-1" cx="279.24" cy="58.19" r="5.65"/><circle class="cls-1" cx="292.78" cy="60.77" r="2.41"/><circle class="cls-1" cx="265.49" cy="55.93" r="2.41"/><circle class="cls-1" cx="270.29" cy="49.24" r="1.13"/><circle class="cls-1" cx="288.71" cy="45.32" r="1.13"/><circle class="cls-1" cx="269.48" cy="111.5" r="5.65"/><circle class="cls-1" cx="283.02" cy="114.09" r="2.41"/><circle class="cls-1" cx="255.73" cy="109.24" r="2.41"/><circle class="cls-1" cx="260.53" cy="102.55" r="1.13"/><circle class="cls-1" cx="278.95" cy="98.63" r="1.13"/><circle class="cls-1" cx="259.88" cy="164.66" r="5.65"/><circle class="cls-1" cx="273.42" cy="167.25" r="2.41"/><circle class="cls-1" cx="246.13" cy="162.4" r="2.41"/><circle class="cls-1" cx="250.93" cy="155.71" r="1.13"/><circle class="cls-1" cx="269.35" cy="151.79" r="1.13"/><circle class="cls-1" cx="330.51" cy="77.46" r="5.65"/><circle class="cls-1" cx="344.05" cy="80.05" r="2.41"/><circle class="cls-1" cx="316.75" cy="75.21" r="2.41"/><circle class="cls-1" cx="321.55" cy="68.51" r="1.13"/><circle class="cls-1" cx="339.98" cy="64.6" r="1.13"/><circle class="cls-1" cx="321" cy="130.62" r="5.65"/><circle class="cls-1" cx="334.54" cy="133.21" r="2.41"/><circle class="cls-1" cx="307.25" cy="128.36" r="2.41"/><circle class="cls-1" cx="312.05" cy="121.67" r="1.13"/><circle class="cls-1" cx="330.47" cy="117.75" r="1.13"/><circle class="cls-1" cx="311.5" cy="183.78" r="5.65"/><circle class="cls-1" cx="325.03" cy="186.36" r="2.41"/><circle class="cls-1" cx="297.74" cy="181.52" r="2.41"/><circle class="cls-1" cx="302.54" cy="174.83" r="1.13"/><circle class="cls-1" cx="320.96" cy="170.91" r="1.13"/><circle class="cls-1" cx="62.99" cy="39.8" r="5.65"/><circle class="cls-1" cx="76.53" cy="42.38" r="2.41"/><circle class="cls-1" cx="49.24" cy="37.54" r="2.41"/><circle class="cls-1" cx="54.04" cy="30.85" r="1.13"/><circle class="cls-1" cx="72.46" cy="26.93" r="1.13"/><path class="cls-2" d="M892,201.62,863.83,44.46a8.5,8.5,0,0,0-8.39-7l-169.88.42a3.23,3.23,0,0,0-.69.07l-50.62,9.14a2.86,2.86,0,0,0-2.1,1.67l-2.33,5.42L536.3,73.57a5.63,5.63,0,0,1-4.84-1.25l-18.61-16a7.4,7.4,0,0,0-5.12-2.24h-2.91l-51.28.13v0l-51.27-.13h-2.91a7.4,7.4,0,0,0-5.12,2.24l-18.61,16a5.66,5.66,0,0,1-4.85,1.25L277.26,54.15l-2.33-5.42a2.83,2.83,0,0,0-2.1-1.67l-50.62-9.14a3.23,3.23,0,0,0-.69-.07L51.65,37.42a8.52,8.52,0,0,0-8.4,7L15.06,201.59a8.51,8.51,0,0,0,6.88,9.88L132.23,232a5.56,5.56,0,0,0,2.15,0l24-5a5.86,5.86,0,0,1,2.17,0l41.18,8.56a2.85,2.85,0,0,1,2.33,2.8l-9.62,48.62a2.83,2.83,0,0,0,2,3.28l86.83,31.06a2.83,2.83,0,0,1,2,2.06l10.05,23.2a2.79,2.79,0,0,0,1.21,1.71l66.72,37.06a14.22,14.22,0,0,0,7.65,2.26h4.36l78.23.19v0l78.24-.19h4.35a14.2,14.2,0,0,0,7.65-2.26l66.72-37.06a2.81,2.81,0,0,0,1.22-1.71l10-23.2a2.82,2.82,0,0,1,2-2.06l86.83-31.06a2.82,2.82,0,0,0,2-3.28L703,238.32a2.85,2.85,0,0,1,2.33-2.8L746.54,227a5.66,5.66,0,0,1,2.17,0l24,5a5.81,5.81,0,0,0,2.16,0L885.15,211.5A8.51,8.51,0,0,0,892,201.62Z" transform="translate(-14.8 -37.3)"/><circle class="cls-1" cx="546.97" cy="77.49" r="5.65"/><circle class="cls-1" cx="560.56" cy="75.17" r="2.41"/><circle class="cls-1" cx="533.3" cy="80.2" r="2.41"/><circle class="cls-1" cx="535.45" cy="72.25" r="1.13"/><circle class="cls-1" cx="551.33" cy="62.13" r="1.13"/><circle class="cls-1" cx="556.48" cy="130.65" r="5.65"/><circle class="cls-1" cx="570.07" cy="128.33" r="2.41"/><circle class="cls-1" cx="542.8" cy="133.35" r="2.41"/><circle class="cls-1" cx="544.96" cy="125.4" r="1.13"/><circle class="cls-1" cx="560.84" cy="115.28" r="1.13"/><circle class="cls-1" cx="565.99" cy="183.81" r="5.65"/><circle class="cls-1" cx="579.57" cy="181.49" r="2.41"/><circle class="cls-1" cx="552.31" cy="186.51" r="2.41"/><circle class="cls-1" cx="554.46" cy="178.56" r="1.13"/><circle class="cls-1" cx="570.35" cy="168.44" r="1.13"/><circle class="cls-1" cx="598.38" cy="58.22" r="5.65"/><circle class="cls-1" cx="611.97" cy="55.9" r="2.41"/><circle class="cls-1" cx="584.71" cy="60.92" r="2.41"/><circle class="cls-1" cx="586.86" cy="52.97" r="1.13"/><circle class="cls-1" cx="602.74" cy="42.85" r="1.13"/><circle class="cls-1" cx="607.89" cy="111.38" r="5.65"/><circle class="cls-1" cx="621.48" cy="109.06" r="2.41"/><circle class="cls-1" cx="594.21" cy="114.08" r="2.41"/><circle class="cls-1" cx="596.37" cy="106.13" r="1.13"/><circle class="cls-1" cx="612.25" cy="96.01" r="1.13"/><circle class="cls-1" cx="617.4" cy="164.53" r="5.65"/><circle class="cls-1" cx="630.98" cy="162.21" r="2.41"/><circle class="cls-1" cx="603.72" cy="167.24" r="2.41"/><circle class="cls-1" cx="605.87" cy="159.29" r="1.13"/><circle class="cls-1" cx="621.76" cy="149.17" r="1.13"/><circle class="cls-1" cx="649.8" cy="38.94" r="5.65"/><circle class="cls-1" cx="663.38" cy="36.62" r="2.41"/><circle class="cls-1" cx="636.12" cy="41.65" r="2.41"/><circle class="cls-1" cx="638.28" cy="33.7" r="1.13"/><circle class="cls-1" cx="654.16" cy="23.58" r="1.13"/><circle class="cls-1" cx="659.31" cy="92.1" r="5.65"/><circle class="cls-1" cx="672.89" cy="89.78" r="2.41"/><circle class="cls-1" cx="645.63" cy="94.8" r="2.41"/><circle class="cls-1" cx="647.78" cy="86.85" r="1.13"/><circle class="cls-1" cx="663.67" cy="76.73" r="1.13"/><circle class="cls-1" cx="668.81" cy="145.26" r="5.65"/><circle class="cls-1" cx="682.4" cy="142.94" r="2.41"/><circle class="cls-1" cx="655.14" cy="147.96" r="2.41"/><circle class="cls-1" cx="657.29" cy="140.01" r="1.13"/><circle class="cls-1" cx="673.17" cy="129.89" r="1.13"/><circle class="cls-1" cx="704.7" cy="39.21" r="5.65"/><circle class="cls-1" cx="718.28" cy="36.89" r="2.41"/><circle class="cls-1" cx="691.02" cy="41.91" r="2.41"/><circle class="cls-1" cx="693.17" cy="33.96" r="1.13"/><circle class="cls-1" cx="709.06" cy="23.84" r="1.13"/><circle class="cls-1" cx="714.2" cy="92.36" r="5.65"/><circle class="cls-1" cx="727.79" cy="90.04" r="2.41"/><circle class="cls-1" cx="700.53" cy="95.06" r="2.41"/><circle class="cls-1" cx="702.68" cy="87.11" r="1.13"/><circle class="cls-1" cx="718.56" cy="77" r="1.13"/><circle class="cls-1" cx="723.71" cy="145.52" r="5.65"/><circle class="cls-1" cx="737.29" cy="143.2" r="2.41"/><circle class="cls-1" cx="710.03" cy="148.22" r="2.41"/><circle class="cls-1" cx="712.19" cy="140.27" r="1.13"/><circle class="cls-1" cx="728.07" cy="130.15" r="1.13"/><circle class="cls-1" cx="759.6" cy="50.47" r="5.65"/><circle class="cls-1" cx="773.18" cy="48.15" r="2.41"/><circle class="cls-1" cx="745.92" cy="53.17" r="2.41"/><circle class="cls-1" cx="748.08" cy="45.22" r="1.13"/><circle class="cls-1" cx="763.96" cy="35.1" r="1.13"/><circle class="cls-1" cx="769.11" cy="103.62" r="5.65"/><circle class="cls-1" cx="782.69" cy="101.3" r="2.41"/><circle class="cls-1" cx="755.43" cy="106.32" r="2.41"/><circle class="cls-1" cx="757.58" cy="98.37" r="1.13"/><circle class="cls-1" cx="773.47" cy="88.25" r="1.13"/><circle class="cls-1" cx="778.61" cy="156.78" r="5.65"/><circle class="cls-1" cx="792.2" cy="154.46" r="2.41"/><circle class="cls-1" cx="764.94" cy="159.48" r="2.41"/><circle class="cls-1" cx="767.09" cy="151.53" r="1.13"/><circle class="cls-1" cx="782.97" cy="141.41" r="1.13"/><circle class="cls-1" cx="814.5" cy="39.72" r="5.65"/><circle class="cls-1" cx="828.09" cy="37.4" r="2.41"/><circle class="cls-1" cx="800.83" cy="42.43" r="2.41"/><circle class="cls-1" cx="802.98" cy="34.48" r="1.13"/><circle class="cls-1" cx="818.86" cy="24.36" r="1.13"/><circle class="cls-1" cx="824.01" cy="92.88" r="5.65"/><circle class="cls-1" cx="837.59" cy="90.56" r="2.41"/><circle class="cls-1" cx="810.33" cy="95.58" r="2.41"/><circle class="cls-1" cx="812.49" cy="87.63" r="1.13"/><circle class="cls-1" cx="828.37" cy="77.51" r="1.13"/><circle class="cls-1" cx="833.52" cy="146.04" r="5.65"/><circle class="cls-1" cx="847.1" cy="143.72" r="2.41"/><circle class="cls-1" cx="819.84" cy="148.74" r="2.41"/><circle class="cls-1" cx="821.99" cy="140.79" r="1.13"/><circle class="cls-1" cx="837.88" cy="130.67" r="1.13"/><circle class="cls-3" cx="438.62" cy="260.86" r="5.65"/><circle class="cls-3" cx="452.4" cy="261.04" r="2.41"/><circle class="cls-3" cx="424.68" cy="261.04" r="2.41"/><circle class="cls-3" cx="428.24" cy="253.61" r="1.13"/><circle class="cls-3" cx="445.7" cy="246.54" r="1.13"/><circle class="cls-3" cx="384.2" cy="315.64" r="5.65"/><circle class="cls-3" cx="397.98" cy="315.82" r="2.41"/><circle class="cls-3" cx="370.26" cy="315.82" r="2.41"/><circle class="cls-3" cx="373.82" cy="308.39" r="1.13"/><circle class="cls-3" cx="391.28" cy="301.31" r="1.13"/><circle class="cls-3" cx="438.75" cy="315.72" r="5.65"/><circle class="cls-3" cx="452.53" cy="315.9" r="2.41"/><circle class="cls-3" cx="424.81" cy="315.9" r="2.41"/><circle class="cls-3" cx="428.37" cy="308.47" r="1.13"/><circle class="cls-3" cx="445.82" cy="301.39" r="1.13"/><circle class="cls-3" cx="493.3" cy="315.72" r="5.65"/><circle class="cls-3" cx="507.08" cy="315.9" r="2.41"/><circle class="cls-3" cx="479.36" cy="315.9" r="2.41"/><circle class="cls-3" cx="482.92" cy="308.47" r="1.13"/><circle class="cls-3" cx="500.37" cy="301.39" r="1.13"/><circle class="cls-3" cx="547.28" cy="280.73" r="5.65"/><circle class="cls-3" cx="559.45" cy="274.28" r="2.41"/><circle class="cls-3" cx="535.14" cy="287.59" r="2.41"/><circle class="cls-3" cx="534.69" cy="279.36" r="1.13"/><circle class="cls-3" cx="546.6" cy="264.78" r="1.13"/><circle class="cls-3" cx="596.37" cy="242.49" r="5.65"/><circle class="cls-3" cx="608.99" cy="236.97" r="2.41"/><circle class="cls-3" cx="583.74" cy="248.41" r="2.41"/><circle class="cls-3" cx="583.92" cy="240.18" r="1.13"/><circle class="cls-3" cx="596.9" cy="226.53" r="1.13"/><circle class="cls-3" cx="330.2" cy="280.71" r="5.65"/><circle class="cls-3" cx="342.23" cy="287.44" r="2.41"/><circle class="cls-3" cx="317.87" cy="274.21" r="2.41"/><circle class="cls-3" cx="324.54" cy="269.38" r="1.13"/><circle class="cls-3" cx="343.26" cy="271.5" r="1.13"/><circle class="cls-3" cx="280.98" cy="242.31" r="5.65"/><circle class="cls-3" cx="293.5" cy="248.07" r="2.41"/><circle class="cls-3" cx="268.17" cy="236.81" r="2.41"/><circle class="cls-3" cx="274.44" cy="231.47" r="1.13"/><circle class="cls-3" cx="293.26" cy="232.09" r="1.13"/><circle class="cls-3" cx="221.71" cy="224.3" r="5.65"/><circle class="cls-3" cx="235.09" cy="227.56" r="2.41"/><circle class="cls-3" cx="208.08" cy="221.35" r="2.41"/><circle class="cls-3" cx="213.21" cy="214.91" r="1.13"/><circle class="cls-3" cx="231.8" cy="211.92" r="1.13"/><circle class="cls-4" cx="87.76" cy="55.63" r="7.59"/><circle class="cls-4" cx="67.92" cy="162.15" r="7.59"/><circle class="cls-4" cx="187.8" cy="108.15" r="7.59"/><circle class="cls-4" cx="301.8" cy="83.91" r="7.59"/><circle class="cls-4" cx="253.56" cy="198.27" r="7.59"/><circle class="cls-4" cx="352.8" cy="316.63" r="7.59"/><circle class="cls-4" cx="525.04" cy="316.67" r="7.59"/><circle class="cls-4" cx="624.04" cy="198.31" r="7.59"/><circle class="cls-4" cx="575.72" cy="84.07" r="7.59"/><circle class="cls-4" cx="689.72" cy="108.11" r="7.59"/><circle class="cls-4" cx="789.8" cy="55.19" r="7.59"/><circle class="cls-4" cx="809.96" cy="162.47" r="7.59"/><polygon class="cls-4" points="497.19 171.22 497.19 62.5 453.63 62.5 453.63 33.34 425.19 33.34 425.19 62.5 379.83 62.5 379.83 171.22 360.75 171.22 360.75 224.86 379.83 224.86 497.19 224.86 517.36 224.86 517.36 171.22 497.19 171.22"/><circle class="cls-3" cx="655.61" cy="224.45" r="5.65"/><circle class="cls-3" cx="669.08" cy="221.51" r="2.41"/><circle class="cls-3" cx="642.08" cy="227.79" r="2.41"/><circle class="cls-3" cx="643.86" cy="219.74" r="1.13"/><circle class="cls-3" cx="659.26" cy="208.9" r="1.13"/></svg>