  0
SECTION
  2
HEADER
  9
$ACADVER
  1
AC1024
  9
$ACADMAINTVER
 70
     6
  9
$DWGCODEPAGE
  3
ANSI_1254
  9
$INSBASE
 10
0.0
 20
0.0
 30
0.0
  9
$EXTMIN
 10
1.000000000000000E+20
 20
1.000000000000000E+20
 30
1.000000000000000E+20
  9
$EXTMAX
 10
-1.000000000000000E+20
 20
-1.000000000000000E+20
 30
-1.000000000000000E+20
  9
$LIMMIN
 10
0.0
 20
0.0
  9
$LIMMAX
 10
12.0
 20
9.0
  9
$ORTHOMODE
 70
     0
  9
$REGENMODE
 70
     1
  9
$FILLMODE
 70
     1
  9
$QTEXTMODE
 70
     0
  9
$MIRRTEXT
 70
     1
  9
$LTSCALE
 40
1.0
  9
$ATTMODE
 70
     1
  9
$TEXTSIZE
 40
0.2
  9
$TRACEWID
 40
0.05
  9
$TEXTSTYLE
  7
Standard
  9
$CLAYER
  8
0
  9
$CELTYPE
  6
ByLayer
  9
$CECOLOR
 62
   256
  9
$CELTSCALE
 40
1.0
  9
$DISPSILH
 70
     0
  9
$DIMSCALE
 40
1.0
  9
$DIMASZ
 40
0.18
  9
$DIMEXO
 40
0.0625
  9
$DIMDLI
 40
0.38
  9
$DIMRND
 40
0.0
  9
$DIMDLE
 40
0.0
  9
$DIMEXE
 40
0.18
  9
$DIMTP
 40
0.0
  9
$DIMTM
 40
0.0
  9
$DIMTXT
 40
0.18
  9
$DIMCEN
 40
0.09
  9
$DIMTSZ
 40
0.0
  9
$DIMTOL
 70
     0
  9
$DIMLIM
 70
     0
  9
$DIMTIH
 70
     1
  9
$DIMTOH
 70
     1
  9
$DIMSE1
 70
     0
  9
$DIMSE2
 70
     0
  9
$DIMTAD
 70
     0
  9
$DIMZIN
 70
     0
  9
$DIMBLK
  1

  9
$DIMASO
 70
     1
  9
$DIMSHO
 70
     1
  9
$DIMPOST
  1

  9
$DIMAPOST
  1

  9
$DIMALT
 70
     0
  9
$DIMALTD
 70
     2
  9
$DIMALTF
 40
25.4
  9
$DIMLFAC
 40
1.0
  9
$DIMTOFL
 70
     0
  9
$DIMTVP
 40
0.0
  9
$DIMTIX
 70
     0
  9
$DIMSOXD
 70
     0
  9
$DIMSAH
 70
     0
  9
$DIMBLK1
  1

  9
$DIMBLK2
  1

  9
$DIMSTYLE
  2
Standard
  9
$DIMCLRD
 70
     0
  9
$DIMCLRE
 70
     0
  9
$DIMCLRT
 70
     0
  9
$DIMTFAC
 40
1.0
  9
$DIMGAP
 40
0.09
  9
$DIMJUST
 70
     0
  9
$DIMSD1
 70
     0
  9
$DIMSD2
 70
     0
  9
$DIMTOLJ
 70
     1
  9
$DIMTZIN
 70
     0
  9
$DIMALTZ
 70
     0
  9
$DIMALTTZ
 70
     0
  9
$DIMUPT
 70
     0
  9
$DIMDEC
 70
     4
  9
$DIMTDEC
 70
     4
  9
$DIMALTU
 70
     2
  9
$DIMALTTD
 70
     2
  9
$DIMTXSTY
  7
Standard
  9
$DIMAUNIT
 70
     0
  9
$DIMADEC
 70
     0
  9
$DIMALTRND
 40
0.0
  9
$DIMAZIN
 70
     0
  9
$DIMDSEP
 70
    46
  9
$DIMATFIT
 70
     3
  9
$DIMFRAC
 70
     0
  9
$DIMLDRBLK
  1

  9
$DIMLUNIT
 70
     2
  9
$DIMLWD
 70
    -2
  9
$DIMLWE
 70
    -2
  9
$DIMTMOVE
 70
     0
  9
$DIMFXL
 40
1.0
  9
$DIMFXLON
 70
     0
  9
$DIMJOGANG
 40
0.7853981633974483
  9
$DIMTFILL
 70
     0
  9
$DIMTFILLCLR
 70
     0
  9
$DIMARCSYM
 70
     0
  9
$DIMLTYPE
  6

  9
$DIMLTEX1
  6

  9
$DIMLTEX2
  6

  9
$DIMTXTDIRECTION
 70
     0
  9
$LUNITS
 70
     2
  9
$LUPREC
 70
     4
  9
$SKETCHINC
 40
0.1
  9
$FILLETRAD
 40
0.5
  9
$AUNITS
 70
     0
  9
$AUPREC
 70
     0
  9
$MENU
  1
.
  9
$ELEVATION
 40
0.0
  9
$PELEVATION
 40
0.0
  9
$THICKNESS
 40
0.0
  9
$LIMCHECK
 70
     0
  9
$CHAMFERA
 40
0.5
  9
$CHAMFERB
 40
0.5
  9
$CHAMFERC
 40
1.0
  9
$CHAMFERD
 40
0.0
  9
$SKPOLY
 70
     0
  9
$TDCREATE
 40
2459683.900832477
  9
$TDUCREATE
 40
2459683.775832477
  9
$TDUPDATE
 40
2459683.900832616
  9
$TDUUPDATE
 40
2459683.775832616
  9
$TDINDWG
 40
0.0000000116
  9
$TDUSRTIMER
 40
0.0000000116
  9
$USRTIMER
 70
     1
  9
$ANGBASE
 50
0.0
  9
$ANGDIR
 70
     0
  9
$PDMODE
 70
     0
  9
$PDSIZE
 40
0.0
  9
$PLINEWID
 40
0.0
  9
$SPLFRAME
 70
     0
  9
$SPLINETYPE
 70
     6
  9
$SPLINESEGS
 70
     8
  9
$HANDSEED
  5
54
  9
$SURFTAB1
 70
     6
  9
$SURFTAB2
 70
     6
  9
$SURFTYPE
 70
     6
  9
$SURFU
 70
     6
  9
$SURFV
 70
     6
  9
$UCSBASE
  2

  9
$UCSNAME
  2

  9
$UCSORG
 10
0.0
 20
0.0
 30
0.0
  9
$UCSXDIR
 10
1.0
 20
0.0
 30
0.0
  9
$UCSYDIR
 10
0.0
 20
1.0
 30
0.0
  9
$UCSORTHOREF
  2

  9
$UCSORTHOVIEW
 70
     0
  9
$UCSORGTOP
 10
0.0
 20
0.0
 30
0.0
  9
$UCSORGBOTTOM
 10
0.0
 20
0.0
 30
0.0
  9
$UCSORGLEFT
 10
0.0
 20
0.0
 30
0.0
  9
$UCSORGRIGHT
 10
0.0
 20
0.0
 30
0.0
  9
$UCSORGFRONT
 10
0.0
 20
0.0
 30
0.0
  9
$UCSORGBACK
 10
0.0
 20
0.0
 30
0.0
  9
$PUCSBASE
  2

  9
$PUCSNAME
  2

  9
$PUCSORG
 10
0.0
 20
0.0
 30
0.0
  9
$PUCSXDIR
 10
1.0
 20
0.0
 30
0.0
  9
$PUCSYDIR
 10
0.0
 20
1.0
 30
0.0
  9
$PUCSORTHOREF
  2

  9
$PUCSORTHOVIEW
 70
     0
  9
$PUCSORGTOP
 10
0.0
 20
0.0
 30
0.0
  9
$PUCSORGBOTTOM
 10
0.0
 20
0.0
 30
0.0
  9
$PUCSORGLEFT
 10
0.0
 20
0.0
 30
0.0
  9
$PUCSORGRIGHT
 10
0.0
 20
0.0
 30
0.0
  9
$PUCSORGFRONT
 10
0.0
 20
0.0
 30
0.0
  9
$PUCSORGBACK
 10
0.0
 20
0.0
 30
0.0
  9
$USERI1
 70
     0
  9
$USERI2
 70
     0
  9
$USERI3
 70
     0
  9
$USERI4
 70
     0
  9
$USERI5
 70
     0
  9
$USERR1
 40
0.0
  9
$USERR2
 40
0.0
  9
$USERR3
 40
0.0
  9
$USERR4
 40
0.0
  9
$USERR5
 40
0.0
  9
$WORLDVIEW
 70
     1
  9
$SHADEDGE
 70
     3
  9
$SHADEDIF
 70
    70
  9
$TILEMODE
 70
     1
  9
$MAXACTVP
 70
    64
  9
$PINSBASE
 10
0.0
 20
0.0
 30
0.0
  9
$PLIMCHECK
 70
     0
  9
$PEXTMIN
 10
1.000000000000000E+20
 20
1.000000000000000E+20
 30
1.000000000000000E+20
  9
$PEXTMAX
 10
-1.000000000000000E+20
 20
-1.000000000000000E+20
 30
-1.000000000000000E+20
  9
$PLIMMIN
 10
0.0
 20
0.0
  9
$PLIMMAX
 10
12.0
 20
9.0
  9
$UNITMODE
 70
     0
  9
$VISRETAIN
 70
     1
  9
$PLINEGEN
 70
     0
  9
$PSLTSCALE
 70
     1
  9
$TREEDEPTH
 70
  3020
  9
$CMLSTYLE
  2
Standard
  9
$CMLJUST
 70
     0
  9
$CMLSCALE
 40
1.0
  9
$PROXYGRAPHICS
 70
     1
  9
$MEASUREMENT
 70
     0
  9
$CELWEIGHT
370
    -1
  9
$ENDCAPS
280
     0
  9
$JOINSTYLE
280
     0
  9
$LWDISPLAY
290
     1
  9
$INSUNITS
 70
     1
  9
$HYPERLINKBASE
  1

  9
$STYLESHEET
  1

  9
$XEDIT
290
     1
  9
$CEPSNTYPE
380
     0
  9
$PSTYLEMODE
290
     1
  9
$FINGERPRINTGUID
  2
{C16B9BF5-3E3C-4791-BDEA-8B76175C6C6E}
  9
$VERSIONGUID
  2
{FAEB1C32-E019-11D5-929B-00C0DF256EC4}
  9
$EXTNAMES
290
     1
  9
$PSVPSCALE
 40
0.0
  9
$OLESTARTUP
290
     0
  9
$SORTENTS
280
   127
  9
$INDEXCTL
280
     0
  9
$HIDETEXT
280
     1
  9
$XCLIPFRAME
280
     2
  9
$HALOGAP
280
     0
  9
$OBSCOLOR
 70
   257
  9
$OBSLTYPE
280
     0
  9
$INTERSECTIONDISPLAY
280
     0
  9
$INTERSECTIONCOLOR
 70
   257
  9
$DIMASSOC
280
     2
  9
$PROJECTNAME
  1

  9
$CAMERADISPLAY
290
     0
  9
$LENSLENGTH
 40
50.0
  9
$CAMERAHEIGHT
 40
0.0
  9
$STEPSPERSEC
 40
2.0
  9
$STEPSIZE
 40
6.0
  9
$3DDWFPREC
 40
2.0
  9
$PSOLWIDTH
 40
0.25
  9
$PSOLHEIGHT
 40
4.0
  9
$LOFTANG1
 40
1.570796326794897
  9
$LOFTANG2
 40
1.570796326794897
  9
$LOFTMAG1
 40
0.0
  9
$LOFTMAG2
 40
0.0
  9
$LOFTPARAM
 70
     7
  9
$LOFTNORMALS
280
     1
  9
$LATITUDE
 40
37.795
  9
$LONGITUDE
 40
-122.394
  9
$NORTHDIRECTION
 40
0.0
  9
$TIMEZONE
 70
 -8000
  9
$LIGHTGLYPHDISPLAY
280
     1
  9
$TILEMODELIGHTSYNCH
280
     1
  9
$CMATERIAL
347
3C
  9
$SOLIDHIST
280
     1
  9
$SHOWHIST
280
     1
  9
$DWFFRAME
280
     2
  9
$DGNFRAME
280
     2
  9
$REALWORLDSCALE
290
     1
  9
$INTERFERECOLOR
 62
   256
  9
$CSHADOW
280
     0
  9
$SHADOWPLANELOCATION
 40
0.0
  0
ENDSEC
  0
SECTION
  2
CLASSES
  0
CLASS
  1
ACDBDICTIONARYWDFLT
  2
AcDbDictionaryWithDefault
  3
ObjectDBX Classes
 90
        0
 91
        4
280
     0
281
     0
  0
CLASS
  1
VISUALSTYLE
  2
AcDbVisualStyle
  3
ObjectDBX Classes
 90
     4095
 91
        4
280
     0
281
     0
  0
CLASS
  1
MATERIAL
  2
AcDbMaterial
  3
ObjectDBX Classes
 90
     1153
 91
        4
280
     0
281
     0
  0
CLASS
  1
SUN
  2
AcDbSun
  3
SCENEOE
 90
     1024
 91
        4
280
     0
281
     0
  0
ENDSEC
  0
SECTION
  2
TABLES
  0
TABLE
  2
VPORT
  5
8
330
0
100
AcDbSymbolTable
 70
     1
  0
VPORT
  5
29
330
8
100
AcDbSymbolTableRecord
100
AcDbViewportTableRecord
  2
*Active
 70
     0
 10
0.0
 20
0.0
 11
1.0
 21
1.0
 12
0.0
 22
0.0
 13
0.0
 23
0.0
 14
0.5
 24
0.5
 15
0.5
 25
0.5
 16
0.0
 26
0.0
 36
1.0
 17
159.9999999599951
 27
-59.99999998500706
 37
0.0
 40
149.9999999625002
 41
2.133333333333264
 42
50.0
 43
0.0
 44
0.0
 50
0.0
 51
0.0
 71
     0
 72
   100
 73
     1
 74
     3
 75
     0
 76
     0
 77
     0
 78
     0
281
     0
 65
     1
110
0.0
120
0.0
130
0.0
111
1.0
121
0.0
131
0.0
112
0.0
122
1.0
132
0.0
 79
     0
146
0.0
 60
     3
 61
     5
292
     1
282
     1
141
0.0
142
0.0
 63
   250
361
3F
  0
ENDTAB
  0
TABLE
  2
LTYPE
  5
5
330
0
100
AcDbSymbolTable
 70
     1
  0
LTYPE
  5
14
330
5
100
AcDbSymbolTableRecord
100
AcDbLinetypeTableRecord
  2
ByBlock
 70
     0
  3

 72
    65
 73
     0
 40
0.0
  0
LTYPE
  5
15
330
5
100
AcDbSymbolTableRecord
100
AcDbLinetypeTableRecord
  2
ByLayer
 70
     0
  3

 72
    65
 73
     0
 40
0.0
  0
LTYPE
  5
16
330
5
100
AcDbSymbolTableRecord
100
AcDbLinetypeTableRecord
  2
Continuous
 70
     0
  3
Solid line
 72
    65
 73
     0
 40
0.0
  0
ENDTAB
  0
TABLE
  2
LAYER
  5
2
330
0
100
AcDbSymbolTable
 70
     2
  0
LAYER
  5
10
330
2
100
AcDbSymbolTableRecord
100
AcDbLayerTableRecord
  2
0
 70
     0
 62
     7
  6
Continuous
370
    -3
390
F
347
3E
  0
LAYER
  5
40
330
2
100
AcDbSymbolTableRecord
100
AcDbLayerTableRecord
  2
katman 1
 70
     0
 62
     7
  6
Continuous
370
    -3
390
F
347
3E
  0
ENDTAB
  0
TABLE
  2
STYLE
  5
3
330
0
100
AcDbSymbolTable
 70
     1
  0
STYLE
  5
11
330
3
100
AcDbSymbolTableRecord
100
AcDbTextStyleTableRecord
  2
Standard
 70
     0
 40
0.0
 41
1.0
 50
0.0
 71
     0
 42
0.2
  3
txt
  4

  0
ENDTAB
  0
TABLE
  2
VIEW
  5
6
330
0
100
AcDbSymbolTable
 70
     0
  0
ENDTAB
  0
TABLE
  2
UCS
  5
7
330
0
100
AcDbSymbolTable
 70
     0
  0
ENDTAB
  0
TABLE
  2
APPID
  5
9
330
0
100
AcDbSymbolTable
 70
     1
  0
APPID
  5
12
330
9
100
AcDbSymbolTableRecord
100
AcDbRegAppTableRecord
  2
ACAD
 70
     0
  0
ENDTAB
  0
TABLE
  2
DIMSTYLE
  5
A
330
0
100
AcDbSymbolTable
 70
     1
100
AcDbDimStyleTable
  0
DIMSTYLE
105
27
330
A
100
AcDbSymbolTableRecord
100
AcDbDimStyleTableRecord
  2
Standard
 70
     0
178
     0
340
11
  0
ENDTAB
  0
TABLE
  2
BLOCK_RECORD
  5
1
330
0
100
AcDbSymbolTable
 70
     2
  0
BLOCK_RECORD
  5
1F
330
1
100
AcDbSymbolTableRecord
100
AcDbBlockTableRecord
  2
*Model_Space
340
22
 70
     0
280
     1
281
     0
  0
BLOCK_RECORD
  5
1B
330
1
100
AcDbSymbolTableRecord
100
AcDbBlockTableRecord
  2
*Paper_Space
340
1E
 70
     0
280
     1
281
     0
  0
BLOCK_RECORD
  5
23
330
1
100
AcDbSymbolTableRecord
100
AcDbBlockTableRecord
  2
*Paper_Space0
340
26
 70
     0
280
     1
281
     0
  0
BLOCK_RECORD
  5
41
330
1
100
AcDbSymbolTableRecord
100
AcDbBlockTableRecord
  2
block 2
340
0
102
{BLKREFS
331
42
102
}
 70
     0
280
     1
281
     0
  0
ENDTAB
  0
ENDSEC
  0
SECTION
  2
BLOCKS
  0
BLOCK
  5
20
330
1F
100
AcDbEntity
  8
0
100
AcDbBlockBegin
  2
*Model_Space
 70
     0
 10
0.0
 20
0.0
 30
0.0
  3
*Model_Space
  1

  0
ENDBLK
  5
21
330
1F
100
AcDbEntity
  8
0
100
AcDbBlockEnd
  0
BLOCK
  5
1C
330
1B
100
AcDbEntity
 67
     1
  8
0
100
AcDbBlockBegin
  2
*Paper_Space
 70
     0
 10
0.0
 20
0.0
 30
0.0
  3
*Paper_Space
  1

  0
ENDBLK
  5
1D
330
1B
100
AcDbEntity
 67
     1
  8
0
100
AcDbBlockEnd
  0
BLOCK
  5
24
330
23
100
AcDbEntity
  8
0
100
AcDbBlockBegin
  2
*Paper_Space0
 70
     0
 10
0.0
 20
0.0
 30
0.0
  3
*Paper_Space0
  1

  0
ENDBLK
  5
25
330
23
100
AcDbEntity
  8
0
100
AcDbBlockEnd
  0
BLOCK
  5
43
330
41
100
AcDbEntity
  8
0
100
AcDbBlockBegin
  2
block 2
 70
     0
 10
0.0
 20
0.0
 30
0.0
  3
block 2
  1

  0
SPLINE
  5
45
330
41
100
AcDbEntity
  8
katman 1
 62
   178
420
        1
370
     9
100
AcDbSpline
210
0.0
220
0.0
230
1.0
 70
    11
 71
     3
 72
    17
 73
    13
 74
     0
 42
0.0000000001
 43
0.0000000001
 12
1.0
 22
0.0
 32
0.0
 13
1.0
 23
0.0
 33
0.0
 40
0.0
 40
0.0
 40
0.0
 40
0.0
 40
1.0
 40
1.0
 40
1.0
 40
2.0
 40
2.0
 40
2.0
 40
3.0
 40
3.0
 40
3.0
 40
4.0
 40
4.0
 40
4.0
 40
4.0
 10
114.2051144372245
 20
-27.78403663842387
 30
0.0
 10
114.2036277741139
 20
-28.39151819554915
 30
0.0
 10
113.7099467805553
 20
-28.88313779950142
 30
0.0
 10
113.1024706063763
 20
-28.88165114956359
 30
0.0
 10
112.4949836663054
 20
-28.88016447327887
 30
0.0
 10
112.0037148100903
 20
-28.38613444453154
 30
0.0
 10
112.0052014732009
 20
-27.77865288740691
 30
0.0
 10
112.0066881363122
 20
-27.17117133028227
 30
0.0
 10
112.50036828677
 20
-26.67989623484732
 30
0.0
 10
113.1078552268409
 20
-26.68138291113139
 30
0.0
 10
113.7153314010199
 20
-26.68286956106922
 30
0.0
 10
114.2066011003358
 20
-27.1765550812986
 30
0.0
 10
114.2051144372245
 20
-27.78403663842387
 30
0.0
  0
SPLINE
  5
46
330
41
100
AcDbEntity
  8
katman 1
 62
   178
420
        1
370
     9
100
AcDbSpline
210
0.0
220
0.0
230
1.0
 70
    11
 71
     3
 72
    17
 73
    13
 74
     0
 42
0.0000000001
 43
0.0000000001
 12
1.0
 22
0.0
 32
0.0
 13
1.0
 23
0.0
 33
0.0
 40
0.0
 40
0.0
 40
0.0
 40
0.0
 40
1.0
 40
1.0
 40
1.0
 40
2.0
 40
2.0
 40
2.0
 40
3.0
 40
3.0
 40
3.0
 40
4.0
 40
4.0
 40
4.0
 40
4.0
 10
73.97208910914127
 20
-36.29337750952563
 30
0.0
 10
73.97060244602999
 20
-36.90085906665155
 30
0.0
 10
73.47692230874596
 20
-37.39212877914085
 30
0.0
 10
72.869446134566
 20
-37.39064212920302
 30
0.0
 10
72.26195919449572
 20
-37.38915545291895
 30
0.0
 10
71.77068948200642
 20
-36.89547531563458
 30
0.0
 10
71.77217614511768
 20
-36.28799375850931
 30
0.0
 10
71.77366280822832
 20
-35.68051220138468
 30
0.0
 10
72.26734294551204
 20
-35.18924248889473
 30
0.0
 10
72.87482988558297
 20
-35.1907291651788
 30
0.0
 10
73.48230605976259
 20
-35.19221581511663
 30
0.0
 10
73.97357577225189
 20
-35.685895952401
 30
0.0
 10
73.97208910914127
 20
-36.29337750952563
 30
0.0
  0
SPLINE
  5
47
330
41
100
AcDbEntity
  8
katman 1
 62
   178
420
        1
370
     9
100
AcDbSpline
210
0.0
220
0.0
230
1.0
 70
    11
 71
     3
 72
    17
 73
    13
 74
     0
 42
0.0000000001
 43
0.0000000001
 12
1.0
 22
0.0
 32
0.0
 13
1.0
 23
0.0
 33
0.0
 40
0.0
 40
0.0
 40
0.0
 40
0.0
 40
1.0
 40
1.0
 40
1.0
 40
2.0
 40
2.0
 40
2.0
 40
3.0
 40
3.0
 40
3.0
 40
4.0
 40
4.0
 40
4.0
 40
4.0
 10
38.60215179923249
 20
-17.69122088244899
 30
0.0
 10
38.60066426667324
 20
-18.2990577139816
 30
0.0
 10
38.10698412938888
 20
-18.79032742647091
 30
0.0
 10
37.49950795520989
 20
-18.78884077653371
 30
0.0
 10
36.89166574073099
 20
-18.78735323080199
 30
0.0
 10
36.40039602824169
 20
-18.29367309351763
 30
0.0
 10
36.40188356079997
 20
-17.68583626198437
 30
0.0
 10
36.40337022391125
 20
-17.07835470485974
 30
0.0
 10
36.8970503611956
 20
-16.58708499237044
 30
0.0
 10
37.50489257567387
 20
-16.58857253810216
 30
0.0
 10
38.11236874985349
 20
-16.59005918803999
 30
0.0
 10
38.6036384623428
 20
-17.08373932532436
 30
0.0
 10
38.60215179923249
 20
-17.69122088244899
 30
0.0
  0
SPLINE
  5
48
330
41
100
AcDbEntity
  8
katman 1
 62
   178
420
        1
370
     9
100
AcDbSpline
210
0.0
220
0.0
230
1.0
 70
    11
 71
     3
 72
    17
 73
    13
 74
     0
 42
0.0000000001
 43
0.0000000001
 12
1.0
 22
0.0
 32
0.0
 13
1.0
 23
0.0
 33
0.0
 40
0.0
 40
0.0
 40
0.0
 40
0.0
 40
1.0
 40
1.0
 40
1.0
 40
2.0
 40
2.0
 40
2.0
 40
3.0
 40
3.0
 40
3.0
 40
4.0
 40
4.0
 40
4.0
 40
4.0
 10
30.54968694764688
 20
-56.4408510864398
 30
0.0
 10
29.9422107734679
 20
-56.43936443650197
 30
0.0
 10
29.45057589012696
 20
-55.94532812901445
 30
0.0
 10
29.45206169037698
 20
-55.33819915482465
 30
0.0
 10
29.45354921634887
 20
-54.73036501476518
 30
0.0
 10
29.94759452448422
 20
-54.23945147247775
 30
0.0
 10
30.55507069866384
 20
-54.24093812241559
 30
0.0
 10
31.16254687284346
 20
-54.24242477235342
 30
0.0
 10
31.65381745478042
 20
-54.7357496352298
 30
0.0
 10
31.65232992880853
 20
-55.34358377528927
 30
0.0
 10
31.65084412855852
 20
-55.95071274947907
 30
0.0
 10
31.15716312182682
 20
-56.44233773637635
 30
0.0
 10
30.54968694764688
 20
-56.4408510864398
 30
0.0
  0
SPLINE
  5
49
330
41
100
AcDbEntity
  8
katman 1
 62
   178
420
        1
370
     9
100
AcDbSpline
210
0.0
220
0.0
230
1.0
 70
    11
 71
     3
 72
    17
 73
    13
 74
     0
 42
0.0000000001
 43
0.0000000001
 12
1.0
 22
0.0
 32
0.0
 13
1.0
 23
0.0
 33
0.0
 40
0.0
 40
0.0
 40
0.0
 40
0.0
 40
1.0
 40
1.0
 40
1.0
 40
2.0
 40
2.0
 40
2.0
 40
3.0
 40
3.0
 40
3.0
 40
4.0
 40
4.0
 40
4.0
 40
4.0
 10
132.0732548966867
 20
-109.8522683028719
 30
0.0
 10
132.0717682335754
 20
-110.4597498599939
 30
0.0
 10
131.5780872400175
 20
-110.9513694639462
 30
0.0
 10
130.9706110658385
 20
-110.9498828140122
 30
0.0
 10
130.3631241257669
 20
-110.9483961377275
 30
0.0
 10
129.8718552695525
 20
-110.4543661089802
 30
0.0
 10
129.8733419326631
 20
-109.8468845518555
 30
0.0
 10
129.8748285957737
 20
-109.2394029947296
 30
0.0
 10
130.3685087462322
 20
-108.7481278992966
 30
0.0
 10
130.9759956863025
 20
-108.74961457558
 30
0.0
 10
131.5834718604815
 20
-108.751101225514
 30
0.0
 10
132.0747415597973
 20
-109.2447867457472
 30
0.0
 10
132.0732548966867
 20
-109.8522683028719
 30
0.0
  0
SPLINE
  5
4A
330
41
100
AcDbEntity
  8
katman 1
 62
   178
420
        1
370
     9
100
AcDbSpline
210
0.0
220
0.0
230
1.0
 70
    11
 71
     3
 72
    17
 73
    13
 74
     0
 42
0.0000000001
 43
0.0000000001
 12
1.0
 22
0.0
 32
0.0
 13
1.0
 23
0.0
 33
0.0
 40
0.0
 40
0.0
 40
0.0
 40
0.0
 40
1.0
 40
1.0
 40
1.0
 40
2.0
 40
2.0
 40
2.0
 40
3.0
 40
3.0
 40
3.0
 40
4.0
 40
4.0
 40
4.0
 40
4.0
 10
97.14825827069755
 20
-68.06674870400514
 30
0.0
 10
97.14677160758693
 20
-68.67423026112976
 30
0.0
 10
96.6530906140277
 20
-69.16584986508204
 30
0.0
 10
96.04561443984872
 20
-69.1643632151442
 30
0.0
 10
95.43812749977779
 20
-69.16287653885949
 30
0.0
 10
94.94685864356335
 20
-68.66884651011344
 30
0.0
 10
94.94834530667397
 20
-68.06136495298752
 30
0.0
 10
94.94983196978461
 20
-67.45388339586289
 30
0.0
 10
95.44351212024242
 20
-66.96260830042857
 30
0.0
 10
96.05099906031334
 20
-66.96409497671328
 30
0.0
 10
96.65847523449233
 20
-66.96558162664984
 30
0.0
 10
97.14974493380818
 20
-67.45926714688049
 30
0.0
 10
97.14825827069755
 20
-68.06674870400514
 30
0.0
  0
SPLINE
  5
4B
330
41
100
AcDbEntity
  8
katman 1
 62
   178
420
        1
370
     9
100
AcDbSpline
210
0.0
220
0.0
230
1.0
 70
    11
 71
     3
 72
    17
 73
    13
 74
     0
 42
0.0000000001
 43
0.0000000001
 12
1.0
 22
0.0
 32
0.0
 13
1.0
 23
0.0
 33
0.0
 40
0.0
 40
0.0
 40
0.0
 40
0.0
 40
1.0
 40
1.0
 40
1.0
 40
2.0
 40
2.0
 40
2.0
 40
3.0
 40
3.0
 40
3.0
 40
4.0
 40
4.0
 40
4.0
 40
4.0
 10
208.5555391486258
 20
-27.79475420940186
 30
0.0
 10
208.5570258117095
 20
-28.4022357665265
 30
0.0
 10
209.0507068052463
 20
-28.89385537050059
 30
0.0
 10
209.6581829794259
 20
-28.89236872059099
 30
0.0
 10
210.2656699194968
 20
-28.89088204433322
 30
0.0
 10
210.7569387757337
 20
-28.396852015609
 30
0.0
 10
210.7554521126501
 20
-27.78937045848308
 30
0.0
 10
210.7539654495664
 20
-27.18188890135844
 30
0.0
 10
210.260285299131
 20
-26.69061380590103
 30
0.0
 10
209.6527983590601
 20
-26.69210048215879
 30
0.0
 10
209.0453221848805
 20
-26.69358713206839
 30
0.0
 10
208.5540524855421
 20
-27.18727265227723
 30
0.0
 10
208.5555391486258
 20
-27.79475420940186
 30
0.0
  0
SPLINE
  5
4C
330
41
100
AcDbEntity
  8
katman 1
 62
   178
420
        1
370
     9
100
AcDbSpline
210
0.0
220
0.0
230
1.0
 70
    11
 71
     3
 72
    17
 73
    13
 74
     0
 42
0.0000000001
 43
0.0000000001
 12
1.0
 22
0.0
 32
0.0
 13
1.0
 23
0.0
 33
0.0
 40
0.0
 40
0.0
 40
0.0
 40
0.0
 40
1.0
 40
1.0
 40
1.0
 40
2.0
 40
2.0
 40
2.0
 40
3.0
 40
3.0
 40
3.0
 40
4.0
 40
4.0
 40
4.0
 40
4.0
 10
248.7885644763273
 20
-36.30409508231001
 30
0.0
 10
248.7900511394122
 20
-36.91157663943592
 30
0.0
 10
249.2837312766735
 20
-37.40284635194705
 30
0.0
 10
249.8912074508531
 20
-37.40135970203745
 30
0.0
 10
250.498694390924
 20
-37.39987302577968
 30
0.0
 10
250.9899641034351
 20
-36.90619288851778
 30
0.0
 10
250.9884774403515
 20
-36.2987113313925
 30
0.0
 10
250.9869907772678
 20
-35.69122977426723
 30
0.0
 10
250.4933106400065
 20
-35.19996006175547
 30
0.0
 10
249.8858236999356
 20
-35.20144673801259
 30
0.0
 10
249.278347525756
 20
-35.20293338792283
 30
0.0
 10
248.7870778132436
 20
-35.69661352518537
 30
0.0
 10
248.7885644763273
 20
-36.30409508231001
 30
0.0
  0
SPLINE
  5
4D
330
41
100
AcDbEntity
  8
katman 1
 62
   178
420
        1
370
     9
100
AcDbSpline
210
0.0
220
0.0
230
1.0
 70
    11
 71
     3
 72
    17
 73
    13
 74
     0
 42
0.0000000001
 43
0.0000000001
 12
1.0
 22
0.0
 32
0.0
 13
1.0
 23
0.0
 33
0.0
 40
0.0
 40
0.0
 40
0.0
 40
0.0
 40
1.0
 40
1.0
 40
1.0
 40
2.0
 40
2.0
 40
2.0
 40
3.0
 40
3.0
 40
3.0
 40
4.0
 40
4.0
 40
4.0
 40
4.0
 10
284.1585017870725
 20
-17.70193845682093
 30
0.0
 10
284.1599893196032
 20
-18.30977528835482
 30
0.0
 10
284.6536694568657
 20
-18.80104500086594
 30
0.0
 10
285.2611456310453
 20
-18.79955835095506
 30
0.0
 10
285.8689878455243
 20
-18.79807080525029
 30
0.0
 10
286.3602575580354
 20
-18.30439066798903
 30
0.0
 10
286.3587700255047
 20
-17.69655383645513
 30
0.0
 10
286.357283362421
 20
-17.08907227933049
 30
0.0
 10
285.8636032251584
 20
-16.59780256681874
 30
0.0
 10
285.2557610106795
 20
-16.59929011252351
 30
0.0
 10
284.6482848364999
 20
-16.60077676243375
 30
0.0
 10
284.1570151239888
 20
-17.09445689969629
 30
0.0
 10
284.1585017870725
 20
-17.70193845682093
 30
0.0
  0
SPLINE
  5
4E
330
41
100
AcDbEntity
  8
katman 1
 62
   178
420
        1
370
     9
100
AcDbSpline
210
0.0
220
0.0
230
1.0
 70
    11
 71
     3
 72
    17
 73
    13
 74
     0
 42
0.0000000001
 43
0.0000000001
 12
1.0
 22
0.0
 32
0.0
 13
1.0
 23
0.0
 33
0.0
 40
0.0
 40
0.0
 40
0.0
 40
0.0
 40
1.0
 40
1.0
 40
1.0
 40
2.0
 40
2.0
 40
2.0
 40
3.0
 40
3.0
 40
3.0
 40
4.0
 40
4.0
 40
4.0
 40
4.0
 10
292.2109666369175
 20
-56.45156866117237
 30
0.0
 10
292.8184428110971
 20
-56.45008201126277
 30
0.0
 10
293.3100776944605
 20
-55.95604570379707
 30
0.0
 10
293.3085918942375
 20
-55.34891672960855
 30
0.0
 10
293.3071043682932
 20
-54.74108258954781
 30
0.0
 10
292.8130590601783
 20
-54.25016904723856
 30
0.0
 10
292.2055828859987
 20
-54.25165569714944
 30
0.0
 10
291.5981067118204
 20
-54.25314234705904
 30
0.0
 10
291.1068361298609
 20
-54.7464672099136
 30
0.0
 10
291.1083236558052
 20
-55.35430134997307
 30
0.0
 10
291.1098094560283
 20
-55.96143032416416
 30
0.0
 10
291.6034904627379
 20
-56.45305531108325
 30
0.0
 10
292.2109666369175
 20
-56.45156866117237
 30
0.0
  0
SPLINE
  5
4F
330
41
100
AcDbEntity
  8
katman 1
 62
     7
420
 16777215
370
     9
100
AcDbSpline
210
0.0
220
0.0
230
1.0
 70
    11
 71
     3
 72
   191
 73
   187
 74
     0
 42
0.0000000001
 43
0.0000000001
 12
1.0
 22
0.0
 32
0.0
 13
1.0
 23
0.0
 33
0.0
 40
0.0
 40
0.0
 40
0.0
 40
0.0
 40
1.0
 40
1.0
 40
1.0
 40
2.0
 40
2.0
 40
2.0
 40
3.0
 40
3.0
 40
3.0
 40
4.0
 40
4.0
 40
4.0
 40
5.0
 40
5.0
 40
5.0
 40
6.0
 40
6.0
 40
6.0
 40
7.0
 40
7.0
 40
7.0
 40
8.0
 40
8.0
 40
8.0
 40
9.0
 40
9.0
 40
9.0
 40
10.0
 40
10.0
 40
10.0
 40
11.0
 40
11.0
 40
11.0
 40
12.0
 40
12.0
 40
12.0
 40
13.0
 40
13.0
 40
13.0
 40
14.0
 40
14.0
 40
14.0
 40
15.0
 40
15.0
 40
15.0
 40
16.0
 40
16.0
 40
16.0
 40
17.0
 40
17.0
 40
17.0
 40
18.0
 40
18.0
 40
18.0
 40
19.0
 40
19.0
 40
19.0
 40
20.0
 40
20.0
 40
20.0
 40
21.0
 40
21.0
 40
21.0
 40
22.0
 40
22.0
 40
22.0
 40
23.0
 40
23.0
 40
23.0
 40
24.0
 40
24.0
 40
24.0
 40
25.0
 40
25.0
 40
25.0
 40
26.0
 40
26.0
 40
26.0
 40
27.0
 40
27.0
 40
27.0
 40
28.0
 40
28.0
 40
28.0
 40
29.0
 40
29.0
 40
29.0
 40
30.0
 40
30.0
 40
30.0
 40
31.0
 40
31.0
 40
31.0
 40
32.0
 40
32.0
 40
32.0
 40
33.0
 40
33.0
 40
33.0
 40
34.0
 40
34.0
 40
34.0
 40
35.0
 40
35.0
 40
35.0
 40
36.0
 40
36.0
 40
36.0
 40
37.0
 40
37.0
 40
37.0
 40
38.0
 40
38.0
 40
38.0
 40
39.0
 40
39.0
 40
39.0
 40
40.0
 40
40.0
 40
40.0
 40
41.0
 40
41.0
 40
41.0
 40
42.0
 40
42.0
 40
42.0
 40
43.0
 40
43.0
 40
43.0
 40
44.0
 40
44.0
 40
44.0
 40
45.0
 40
45.0
 40
45.0
 40
46.0
 40
46.0
 40
46.0
 40
47.0
 40
47.0
 40
47.0
 40
48.0
 40
48.0
 40
48.0
 40
49.0
 40
49.0
 40
49.0
 40
50.0
 40
50.0
 40
50.0
 40
51.0
 40
51.0
 40
51.0
 40
52.0
 40
52.0
 40
52.0
 40
53.0
 40
53.0
 40
53.0
 40
54.0
 40
54.0
 40
54.0
 40
55.0
 40
55.0
 40
55.0
 40
56.0
 40
56.0
 40
56.0
 40
57.0
 40
57.0
 40
57.0
 40
58.0
 40
58.0
 40
58.0
 40
59.0
 40
59.0
 40
59.0
 40
60.0
 40
60.0
 40
60.0
 40
61.0
 40
61.0
 40
61.0
 40
62.0
 40
62.0
 40
62.0
 40
62.0
 10
316.066026381918
 20
-56.12778178588164
 30
0.0
 10
316.066026381918
 20
-56.12778178588164
 30
0.0
 10
306.1213276268081
 20
-0.683663893384799
 30
0.0
 10
306.1213276268081
 20
-0.683663893384799
 30
0.0
 10
305.864172780681
 20
0.7486776183013865
 30
0.0
 10
304.6162946003831
 20
1.790194579032761
 30
0.0
 10
303.1610862674136
 20
1.786641824313597
 30
0.0
 10
303.1610862674136
 20
1.786641824313597
 30
0.0
 10
243.232229199605
 20
1.635660514672523
 30
0.0
 10
243.232229199605
 20
1.635660514672523
 30
0.0
 10
243.150645032145
 20
1.635466728051477
 30
0.0
 10
243.0692546513059
 20
1.62805977275819
 30
0.0
 10
242.9889839264996
 20
1.613568839873358
 30
0.0
 10
242.9889839264996
 20
1.613568839873358
 30
0.0
 10
225.1308577780779
 20
-1.612224785893544
 30
0.0
 10
225.1308577780779
 20
-1.612224785893544
 30
0.0
 10
224.8007960987441
 20
-1.671566555626973
 30
0.0
 10
224.5223031924552
 20
-1.89310772717532
 30
0.0
 10
224.3897100799667
 20
-2.201400709411615
 30
0.0
 10
224.3897100799667
 20
-2.201400709411615
 30
0.0
 10
223.5685285073638
 20
-4.114074659128759
 30
0.0
 10
223.5685285073638
 20
-4.114074659128759
 30
0.0
 10
223.5685285073638
 20
-4.114074659128759
 30
0.0
 10
190.5760978922395
 20
-10.95411795847127
 30
0.0
 10
190.5760978922395
 20
-10.95411795847127
 30
0.0
 10
189.9692658543596
 20
-11.07992853922323
 30
0.0
 10
189.3383827436232
 20
-10.91729850047266
 30
0.0
 10
188.8679764869591
 20
-10.51381322360955
 30
0.0
 10
188.8679764869591
 20
-10.51381322360955
 30
0.0
 10
182.301021600363
 20
-4.880995977838938
 30
0.0
 10
182.301021600363
 20
-4.880995977838938
 30
0.0
 10
181.7616919021471
 20
-4.365179056309906
 30
0.0
 10
181.1351366926141
 20
-4.091789197708549
 30
0.0
 10
180.4957915660921
 20
-4.093361022523695
 30
0.0
 10
180.4957915660921
 20
-4.093361022523695
 30
0.0
 10
179.4690023885601
 20
-4.095880248597283
 30
0.0
 10
179.4690023885601
 20
-4.095880248597283
 30
0.0
 10
179.4690023885601
 20
-4.095880248597283
 30
0.0
 10
161.3805500751027
 20
-4.140149725582744
 30
0.0
 10
161.3805500751027
 20
-4.140149725582744
 30
0.0
 10
161.3805500751027
 20
-4.140149725582744
 30
0.0
 10
161.3805500751027
 20
-4.129426865884904
 30
0.0
 10
161.3805500751027
 20
-4.129426865884904
 30
0.0
 10
161.3805500751027
 20
-4.129426865884904
 30
0.0
 10
143.2916455928634
 20
-4.085157388899443
 30
0.0
 10
143.2916455928634
 20
-4.085157388899443
 30
0.0
 10
143.2916455928634
 20
-4.085157388899443
 30
0.0
 10
142.2648564153308
 20
-4.082638162825854
 30
0.0
 10
142.2648564153308
 20
-4.082638162825854
 30
0.0
 10
141.6255112888094
 20
-4.081087869857492
 30
0.0
 10
140.9989560792758
 20
-4.354456196612066
 30
0.0
 10
140.4596263810599
 20
-4.870273118141099
 30
0.0
 10
140.4596263810599
 20
-4.870273118141099
 30
0.0
 10
133.8926714944641
 20
-10.50309036391171
 30
0.0
 10
133.8926714944641
 20
-10.50309036391171
 30
0.0
 10
133.4222652377997
 20
-10.90657564077482
 30
0.0
 10
132.7913821270633
 20
-11.06920567952539
 30
0.0
 10
132.184550089184
 20
-10.94339509877343
 30
0.0
 10
132.184550089184
 20
-10.94339509877343
 30
0.0
 10
99.19211947405938
 20
-4.103351799430919
 30
0.0
 10
99.19211947405938
 20
-4.103351799430919
 30
0.0
 10
99.19211947405938
 20
-4.103351799430919
 30
0.0
 10
98.37095943330363
 20
-2.190677849713775
 30
0.0
 10
98.37095943330363
 20
-2.190677849713775
 30
0.0
 10
98.23836632081442
 20
-1.88238486747748
 30
0.0
 10
97.95985188267876
 20
-1.660843695929133
 30
0.0
 10
97.62981173519182
 20
-1.601501926195704
 30
0.0
 10
97.62981173519182
 20
-1.601501926195704
 30
0.0
 10
79.77168558677039
 20
1.624270167724415
 30
0.0
 10
79.77168558677039
 20
1.624270167724415
 30
0.0
 10
79.6913933301176
 20
1.63878263245603
 30
0.0
 10
79.61000294927858
 20
1.646168055902535
 30
0.0
 10
79.52841878181786
 20
1.646383374370363
 30
0.0
 10
79.52841878181786
 20
1.646383374370363
 30
0.0
 10
19.5995617140096
 20
1.797364684011437
 30
0.0
 10
19.5995617140096
 20
1.797364684011437
 30
0.0
 10
18.14435338104007
 20
1.800917438730601
 30
0.0
 10
16.89647520074191
 20
0.7594004779992266
 30
0.0
 10
16.63934188646157
 20
-0.672941033686959
 30
0.0
 10
16.63934188646157
 20
-0.672941033686959
 30
0.0
 10
6.69464313135226
 20
-56.11708045803058
 30
0.0
 10
6.69464313135226
 20
-56.11708045803058
 30
0.0
 10
6.401723887718893
 20
-57.74902218939343
 30
0.0
 10
7.488350067460257
 20
-59.30885376588064
 30
0.0
 10
9.120291798823105
 20
-59.60037343947312
 30
0.0
 10
9.120291798823105
 20
-59.60037343947312
 30
0.0
 10
48.02844659459737
 20
-66.83912194569295
 30
0.0
 10
48.02844659459737
 20
-66.83912194569295
 30
0.0
 10
48.27987396948026
 20
-66.88420963285616
 30
0.0
 10
48.53776089839831
 20
-66.88024777304813
 30
0.0
 10
48.7876595121593
 20
-66.82826989491441
 30
0.0
 10
48.7876595121593
 20
-66.82826989491441
 30
0.0
 10
57.25337877545086
 20
-65.0646393886279
 30
0.0
 10
57.25337877545086
 20
-65.0646393886279
 30
0.0
 10
57.50538751019688
 20
-65.01233853279244
 30
0.0
 10
57.76504005055081
 20
-65.00874271437971
 30
0.0
 10
58.01857754641873
 20
-65.05486393018849
 30
0.0
 10
58.01857754641873
 20
-65.05486393018849
 30
0.0
 10
72.54540401983813
 20
-68.07629879813973
 30
0.0
 10
72.54540401983813
 20
-68.07629879813973
 30
0.0
 10
73.02179612990751
 20
-68.16283529035985
 30
0.0
 10
73.36792056694154
 20
-68.57857218804237
 30
0.0
 10
73.36673631536816
 20
-69.06293108142172
 30
0.0
 10
73.36673631536816
 20
-69.06293108142172
 30
0.0
 10
69.97527666045463
 20
-86.21461886874621
 30
0.0
 10
69.97527666045463
 20
-86.21461886874621
 30
0.0
 10
69.87353868440519
 20
-86.72918694316185
 30
0.0
 10
70.1866332684747
 20
-87.23490542854974
 30
0.0
 10
70.69256707233009
 20
-87.37320448043573
 30
0.0
 10
70.69256707233009
 20
-87.37320448043573
 30
0.0
 10
101.3261192768567
 20
-98.32921101524013
 30
0.0
 10
101.3261192768567
 20
-98.32921101524013
 30
0.0
 10
101.6769161246423
 20
-98.42511386081078
 30
0.0
 10
101.9479805437911
 20
-98.7039297448014
 30
0.0
 10
102.0340002716884
 20
-99.05726735050605
 30
0.0
 10
102.0340002716884
 20
-99.05726735050605
 30
0.0
 10
105.5792403763254
 20
-107.2413931215733
 30
0.0
 10
105.5792403763254
 20
-107.2413931215733
 30
0.0
 10
105.639830993172
 20
-107.4901936111487
 30
0.0
 10
105.793525315508
 20
-107.7062872254597
 30
0.0
 10
106.0087145922551
 20
-107.845103041671
 30
0.0
 10
106.0087145922551
 20
-107.845103041671
 30
0.0
 10
129.5452409060867
 20
-120.9166996502725
 30
0.0
 10
129.5452409060867
 20
-120.9166996502725
 30
0.0
 10
130.3497783611271
 20
-121.4357894125138
 30
0.0
 10
131.2863921643319
 20
-121.71301193984
 30
0.0
 10
132.2438487952235
 20
-121.7153373792938
 30
0.0
 10
132.2438487952235
 20
-121.7153373792938
 30
0.0
 10
133.7815456332183
 20
-121.7191054524795
 30
0.0
 10
133.7815456332183
 20
-121.7191054524795
 30
0.0
 10
133.7815456332183
 20
-121.7191054524795
 30
0.0
 10
161.3800979063202
 20
-121.7866508558384
 30
0.0
 10
161.3800979063202
 20
-121.7866508558384
 30
0.0
 10
161.3800979063202
 20
-121.7866508558384
 30
0.0
 10
161.3800979063202
 20
-121.7973737155363
 30
0.0
 10
161.3800979063202
 20
-121.7973737155363
 30
0.0
 10
161.3800979063202
 20
-121.7973737155363
 30
0.0
 10
188.9791023482052
 20
-121.7298283121799
 30
0.0
 10
188.9791023482052
 20
-121.7298283121799
 30
0.0
 10
188.9791023482052
 20
-121.7298283121799
 30
0.0
 10
190.5167991861997
 20
-121.7260602389916
 30
0.0
 10
190.5167991861997
 20
-121.7260602389916
 30
0.0
 10
191.4742558170909
 20
-121.7237132676923
 30
0.0
 10
192.4108696202965
 20
-121.4465122722117
 30
0.0
 10
193.2154070753362
 20
-120.9274009781249
 30
0.0
 10
193.2154070753362
 20
-120.9274009781249
 30
0.0
 10
216.7519333891678
 20
-107.8558259013676
 30
0.0
 10
216.7519333891678
 20
-107.8558259013676
 30
0.0
 10
216.9671226659152
 20
-107.716988553312
 30
0.0
 10
217.1208169882509
 20
-107.5009164708465
 30
0.0
 10
217.1814076050978
 20
-107.2521159812699
 30
0.0
 10
217.1814076050978
 20
-107.2521159812699
 30
0.0
 10
220.7266477097345
 20
-99.0679686783584
 30
0.0
 10
220.7266477097345
 20
-99.0679686783584
 30
0.0
 10
220.8126674376318
 20
-98.71465260449796
 30
0.0
 10
221.0837318567806
 20
-98.43583672050862
 30
0.0
 10
221.4345502364129
 20
-98.33993387493669
 30
0.0
 10
221.4345502364129
 20
-98.33993387493669
 30
0.0
 10
252.0680809090931
 20
-87.38392734013358
 30
0.0
 10
252.0680809090931
 20
-87.38392734013358
 30
0.0
 10
252.5740147129488
 20
-87.24560675640079
 30
0.0
 10
252.8871092970177
 20
-86.73990980285969
 30
0.0
 10
252.7853713209689
 20
-86.22534172844405
 30
0.0
 10
252.7853713209689
 20
-86.22534172844405
 30
0.0
 10
249.3939331979018
 20
-69.07363240927278
 30
0.0
 10
249.3939331979018
 20
-69.07363240927278
 30
0.0
 10
249.3927489463288
 20
-68.58927351589344
 30
0.0
 10
249.7388518515157
 20
-68.17355815005769
 30
0.0
 10
250.2152654934322
 20
-68.08702165783757
 30
0.0
 10
250.2152654934322
 20
-68.08702165783757
 30
0.0
 10
264.7420704350045
 20
-65.06558678988634
 30
0.0
 10
264.7420704350045
 20
-65.06558678988634
 30
0.0
 10
264.9956079308721
 20
-65.01946557407756
 30
0.0
 10
265.255260471226
 20
-65.02306139249028
 30
0.0
 10
265.507269205972
 20
-65.07536224832573
 30
0.0
 10
265.507269205972
 20
-65.07536224832573
 30
0.0
 10
273.9729884692636
 20
-66.83899275461225
 30
0.0
 10
273.9729884692636
 20
-66.83899275461225
 30
0.0
 10
274.2228870830249
 20
-66.89097063274596
 30
0.0
 10
274.4807740119426
 20
-66.89491096070722
 30
0.0
 10
274.7322013868255
 20
-66.84984480539079
 30
0.0
 10
274.7322013868255
 20
-66.84984480539079
 30
0.0
 10
313.6403561825979
 20
-59.61107476732418
 30
0.0
 10
313.6403561825979
 20
-59.61107476732418
 30
0.0
 10
315.2722979139607
 20
-59.31957662557848
 30
0.0
 10
316.3589240937053
 20
-57.75974504909126
 30
0.0
 10
316.066026381918
 20
-56.12778178588164
 30
0.0
  0
SPLINE
  5
50
330
41
100
AcDbEntity
  8
katman 1
 62
   178
420
        1
370
     9
100
AcDbSpline
210
0.0
220
0.0
230
1.0
 70
    11
 71
     3
 72
    17
 73
    13
 74
     0
 42
0.0000000001
 43
0.0000000001
 12
1.0
 22
0.0
 32
0.0
 13
1.0
 23
0.0
 33
0.0
 40
0.0
 40
0.0
 40
0.0
 40
0.0
 40
1.0
 40
1.0
 40
1.0
 40
2.0
 40
2.0
 40
2.0
 40
3.0
 40
3.0
 40
3.0
 40
4.0
 40
4.0
 40
4.0
 40
4.0
 10
190.6873986854796
 20
-109.8629858730471
 30
0.0
 10
190.6888853485633
 20
-110.470467430173
 30
0.0
 10
191.1825663421001
 20
-110.9620870341458
 30
0.0
 10
191.7900425162784
 20
-110.9606003842362
 30
0.0
 10
192.3975294563506
 20
-110.9591137079772
 30
0.0
 10
192.8887983125875
 20
-110.4650836792542
 30
0.0
 10
192.8873116495038
 20
-109.8576021221283
 30
0.0
 10
192.8858249864202
 20
-109.2501205650037
 30
0.0
 10
192.3921448359835
 20
-108.758845469545
 30
0.0
 10
191.7846578959139
 20
-108.760332145804
 30
0.0
 10
191.1771817217343
 20
-108.7618187957136
 30
0.0
 10
190.6859120223959
 20
-109.2555043159225
 30
0.0
 10
190.6873986854796
 20
-109.8629858730471
 30
0.0
  0
SPLINE
  5
51
330
41
100
AcDbEntity
  8
katman 1
 62
   178
420
        1
370
     9
100
AcDbSpline
210
0.0
220
0.0
230
1.0
 70
    11
 71
     3
 72
    17
 73
    13
 74
     0
 42
0.0000000001
 43
0.0000000001
 12
1.0
 22
0.0
 32
0.0
 13
1.0
 23
0.0
 33
0.0
 40
0.0
 40
0.0
 40
0.0
 40
0.0
 40
1.0
 40
1.0
 40
1.0
 40
2.0
 40
2.0
 40
2.0
 40
3.0
 40
3.0
 40
3.0
 40
4.0
 40
4.0
 40
4.0
 40
4.0
 10
225.6123953133458
 20
-68.07746627574866
 30
0.0
 10
225.6138819764281
 20
-68.6849478328733
 30
0.0
 10
226.1075629699649
 20
-69.17656743684739
 30
0.0
 10
226.7150391441445
 20
-69.1750807869378
 30
0.0
 10
227.3225260842155
 20
-69.17359411068003
 30
0.0
 10
227.8137949404524
 20
-68.6795640819558
 30
0.0
 10
227.8123082773687
 20
-68.07208252482988
 30
0.0
 10
227.810821614285
 20
-67.46460096770525
 30
0.0
 10
227.3171414638497
 20
-66.97332587224912
 30
0.0
 10
226.7096545237787
 20
-66.9748125485056
 30
0.0
 10
226.1021783495991
 20
-66.97629919841519
 30
0.0
 10
225.6109086502608
 20
-67.46998471862403
 30
0.0
 10
225.6123953133458
 20
-68.07746627574866
 30
0.0
  0
ENDBLK
  5
44
330
41
100
AcDbEntity
  8
0
100
AcDbBlockEnd
  0
ENDSEC
  0
SECTION
  2
ENTITIES
  0
INSERT
  5
42
330
1F
100
AcDbEntity
  8
katman 1
100
AcDbBlockReference
  2
block 2
 10
0.0
 20
0.0
 30
0.0
  0
ENDSEC
  0
SECTION
  2
OBJECTS
  0
DICTIONARY
  5
C
330
0
100
AcDbDictionary
281
     1
  3
ACAD_GROUP
350
D
  3
ACAD_LAYOUT
350
1A
  3
ACAD_MATERIAL
350
3B
  3
ACAD_MLEADERSTYLE
350
53
  3
ACAD_MLINESTYLE
350
17
  3
ACAD_PLOTSETTINGS
350
19
  3
ACAD_PLOTSTYLENAME
350
E
  3
ACAD_TABLESTYLE
350
52
  3
ACAD_VISUALSTYLE
350
2A
  0
SUN
  5
3F
330
29
100
AcDbSun
 90
        1
290
     0
 63
     7
421
 16777215
 40
1.0
291
     1
 91
  2455826
 92
 54000000
292
     0
 70
     2
 71
   256
280
     1
  0
DICTIONARY
  5
D
102
{ACAD_REACTORS
330
C
102
}
330
C
100
AcDbDictionary
281
     1
  0
DICTIONARY
  5
1A
102
{ACAD_REACTORS
330
C
102
}
330
C
100
AcDbDictionary
281
     1
  3
Layout1
350
1E
  3
Layout2
350
26
  3
Model
350
22
  0
DICTIONARY
  5
3B
102
{ACAD_REACTORS
330
C
102
}
330
C
100
AcDbDictionary
281
     1
  3
ByBlock
350
3D
  3
ByLayer
350
3C
  3
Global
350
3E
  0
DICTIONARY
  5
53
102
{ACAD_REACTORS
330
C
102
}
330
C
100
AcDbDictionary
281
     1
  0
DICTIONARY
  5
17
102
{ACAD_REACTORS
330
C
102
}
330
C
100
AcDbDictionary
281
     1
  3
Standard
350
18
  0
DICTIONARY
  5
19
102
{ACAD_REACTORS
330
C
102
}
330
C
100
AcDbDictionary
281
     1
  0
ACDBDICTIONARYWDFLT
  5
E
102
{ACAD_REACTORS
330
C
102
}
330
C
100
AcDbDictionary
281
     1
  3
Normal
350
F
100
AcDbDictionaryWithDefault
340
F
  0
DICTIONARY
  5
52
102
{ACAD_REACTORS
330
C
102
}
330
C
100
AcDbDictionary
281
     1
  0
DICTIONARY
  5
2A
102
{ACAD_REACTORS
330
C
102
}
330
C
100
AcDbDictionary
281
     1
  3
2dWireframe
350
2F
  3
3D Hidden
350
31
  3
3dWireframe
350
30
  3
Basic
350
32
  3
Brighten
350
36
  3
ColorChange
350
3A
  3
Conceptual
350
34
  3
Dim
350
35
  3
Facepattern
350
39
  3
Flat
350
2B
  3
FlatWithEdges
350
2C
  3
Gouraud
350
2D
  3
GouraudWithEdges
350
2E
  3
Linepattern
350
38
  3
Realistic
350
33
  3
Thicken
350
37
  0
LAYOUT
  5
1E
102
{ACAD_REACTORS
330
1A
102
}
330
1A
100
AcDbPlotSettings
  1

  2
none_device
  4

  6

 40
0.0
 41
0.0
 42
0.0
 43
0.0
 44
0.0
 45
0.0
 46
0.0
 47
0.0
 48
0.0
 49
0.0
140
0.0
141
0.0
142
1.0
143
1.0
 70
   688
 72
     0
 73
     0
 74
     5
  7

 75
    16
 76
     0
 77
     2
 78
   300
147
1.0
148
0.0
149
0.0
100
AcDbLayout
  1
Layout1
 70
     1
 71
     1
 10
0.0
 20
0.0
 11
12.0
 21
9.0
 12
0.0
 22
0.0
 32
0.0
 14
1.000000000000000E+20
 24
1.000000000000000E+20
 34
1.000000000000000E+20
 15
-1.000000000000000E+20
 25
-1.000000000000000E+20
 35
-1.000000000000000E+20
146
0.0
 13
0.0
 23
0.0
 33
0.0
 16
1.0
 26
0.0
 36
0.0
 17
0.0
 27
1.0
 37
0.0
 76
     0
330
1B
  0
LAYOUT
  5
26
102
{ACAD_REACTORS
330
1A
102
}
330
1A
100
AcDbPlotSettings
  1

  2
none_device
  4

  6

 40
0.0
 41
0.0
 42
0.0
 43
0.0
 44
0.0
 45
0.0
 46
0.0
 47
0.0
 48
0.0
 49
0.0
140
0.0
141
0.0
142
1.0
143
1.0
 70
   688
 72
     0
 73
     0
 74
     5
  7

 75
    16
 76
     0
 77
     2
 78
   300
147
1.0
148
0.0
149
0.0
100
AcDbLayout
  1
Layout2
 70
     1
 71
     2
 10
0.0
 20
0.0
 11
0.0
 21
0.0
 12
0.0
 22
0.0
 32
0.0
 14
0.0
 24
0.0
 34
0.0
 15
0.0
 25
0.0
 35
0.0
146
0.0
 13
0.0
 23
0.0
 33
0.0
 16
1.0
 26
0.0
 36
0.0
 17
0.0
 27
1.0
 37
0.0
 76
     0
330
23
  0
LAYOUT
  5
22
102
{ACAD_REACTORS
330
1A
102
}
330
1A
100
AcDbPlotSettings
  1

  2
none_device
  4

  6

 40
0.0
 41
0.0
 42
0.0
 43
0.0
 44
0.0
 45
0.0
 46
0.0
 47
0.0
 48
0.0
 49
0.0
140
0.0
141
0.0
142
1.0
143
1.0
 70
  1712
 72
     0
 73
     0
 74
     0
  7

 75
     0
 76
     0
 77
     2
 78
   300
147
1.0
148
0.0
149
0.0
100
AcDbLayout
  1
Model
 70
     1
 71
     0
 10
0.0
 20
0.0
 11
12.0
 21
9.0
 12
0.0
 22
0.0
 32
0.0
 14
1.000000000000000E+20
 24
1.000000000000000E+20
 34
1.000000000000000E+20
 15
-1.000000000000000E+20
 25
-1.000000000000000E+20
 35
-1.000000000000000E+20
146
0.0
 13
0.0
 23
0.0
 33
0.0
 16
1.0
 26
0.0
 36
0.0
 17
0.0
 27
1.0
 37
0.0
 76
     0
330
1F
331
29
  0
MATERIAL
  5
3D
102
{ACAD_REACTORS
330
3B
102
}
330
3B
100
AcDbMaterial
  1
ByBlock
 72
     1
 94
      127
  0
MATERIAL
  5
3C
102
{ACAD_REACTORS
330
3B
102
}
330
3B
100
AcDbMaterial
  1
ByLayer
 72
     1
 94
      127
  0
MATERIAL
  5
3E
102
{ACAD_REACTORS
330
3B
102
}
330
3B
100
AcDbMaterial
  1
Global
 72
     1
 94
      127
  0
MLINESTYLE
  5
18
102
{ACAD_REACTORS
330
17
102
}
330
17
100
AcDbMlineStyle
  2
Standard
 70
     0
  3

 62
   256
 51
90.0
 52
90.0
 71
     2
 49
0.5
 62
   256
  6
BYLAYER
 49
-0.5
 62
   256
  6
BYLAYER
  0
ACDBPLACEHOLDER
  5
F
102
{ACAD_REACTORS
330
E
102
}
330
E
  0
VISUALSTYLE
  5
2F
102
{ACAD_REACTORS
330
2A
102
}
330
2A
100
AcDbVisualStyle
  2
2dWireframe
 70
     4
177
     2
291
     0
 71
     0
176
     1
 72
     2
176
     1
 73
     0
176
     1
 90
        0
176
     1
 40
-0.6
176
     1
 41
-30.0
176
     1
 62
     5
 63
     7
421
 16777215
176
     1
 74
     1
176
     1
 91
        4
176
     1
 64
     7
176
     1
 65
   257
176
     1
 75
     1
176
     1
175
     1
176
     1
 42
1.0
176
     1
 92
        0
176
     1
 66
   257
176
     1
 43
1.0
176
     1
 76
     1
176
     1
 77
     6
176
     1
 78
     2
176
     1
 67
     7
176
     1
 79
     5
176
     1
170
     0
176
     1
171
     0
176
     1
290
     0
176
     1
 93
        1
176
     1
 44
0.0
176
     1
173
     0
176
     1
  0
VISUALSTYLE
  5
31
102
{ACAD_REACTORS
330
2A
102
}
330
2A
100
AcDbVisualStyle
  2
3D Hidden
 70
     6
177
     2
291
     0
 71
     1
176
     1
 72
     2
176
     1
 73
     2
176
     1
 90
        0
176
     1
 40
-0.6
176
     1
 41
-30.0
176
     1
 62
     5
 63
     7
421
 16777215
176
     1
 74
     2
176
     1
 91
        2
176
     1
 64
     7
176
     1
 65
   257
176
     1
 75
     2
176
     1
175
     1
176
     1
 42
40.0
176
     1
 92
        0
176
     1
 66
   257
176
     1
 43
1.0
176
     1
 76
     1
176
     1
 77
     6
176
     1
 78
     2
176
     1
 67
     7
176
     1
 79
     3
176
     1
170
     0
176
     1
171
     0
176
     1
290
     0
176
     1
 93
        1
176
     1
 44
0.0
176
     1
173
     0
176
     1
  0
VISUALSTYLE
  5
30
102
{ACAD_REACTORS
330
2A
102
}
330
2A
100
AcDbVisualStyle
  2
3dWireframe
 70
     5
177
     2
291
     0
 71
     0
176
     1
 72
     2
176
     1
 73
     0
176
     1
 90
        0
176
     1
 40
-0.6
176
     1
 41
-30.0
176
     1
 62
     5
 63
     7
421
 16777215
176
     1
 74
     1
176
     1
 91
        4
176
     1
 64
     7
176
     1
 65
   257
176
     1
 75
     1
176
     1
175
     1
176
     1
 42
1.0
176
     1
 92
        0
176
     1
 66
   257
176
     1
 43
1.0
176
     1
 76
     1
176
     1
 77
     6
176
     1
 78
     2
176
     1
 67
     7
176
     1
 79
     5
176
     1
170
     0
176
     1
171
     0
176
     1
290
     0
176
     1
 93
        1
176
     1
 44
0.0
176
     1
173
     0
176
     1
  0
VISUALSTYLE
  5
32
102
{ACAD_REACTORS
330
2A
102
}
330
2A
100
AcDbVisualStyle
  2
Basic
 70
     7
177
     2
291
     1
 71
     1
176
     1
 72
     0
176
     1
 73
     1
176
     1
 90
        0
176
     1
 40
-0.6
176
     1
 41
-30.0
176
     1
 62
     5
 63
     7
421
 16777215
176
     1
 74
     0
176
     1
 91
        4
176
     1
 64
     7
176
     1
 65
   257
176
     1
 75
     1
176
     1
175
     1
176
     1
 42
1.0
176
     1
 92
        8
176
     1
 66
     7
176
     1
 43
1.0
176
     1
 76
     1
176
     1
 77
     6
176
     1
 78
     2
176
     1
 67
     7
176
     1
 79
     5
176
     1
170
     0
176
     1
171
     0
176
     1
290
     0
176
     1
 93
        1
176
     1
 44
0.0
176
     1
173
     0
176
     1
  0
VISUALSTYLE
  5
36
102
{ACAD_REACTORS
330
2A
102
}
330
2A
100
AcDbVisualStyle
  2
Brighten
 70
    12
177
     2
291
     1
 71
     2
176
     1
 72
     2
176
     1
 73
     0
176
     1
 90
        0
176
     1
 40
-0.6
176
     1
 41
-30.0
176
     1
 62
     5
 63
     7
421
 16777215
176
     1
 74
     1
176
     1
 91
        4
176
     1
 64
     7
176
     1
 65
   257
176
     1
 75
     1
176
     1
175
     1
176
     1
 42
1.0
176
     1
 92
        8
176
     1
 66
     7
176
     1
 43
1.0
176
     1
 76
     1
176
     1
 77
     6
176
     1
 78
     2
176
     1
 67
     7
176
     1
 79
     5
176
     1
170
     0
176
     1
171
     0
176
     1
290
     0
176
     1
 93
        1
176
     1
 44
50.0
176
     1
173
     0
176
     1
  0
VISUALSTYLE
  5
3A
102
{ACAD_REACTORS
330
2A
102
}
330
2A
100
AcDbVisualStyle
  2
ColorChange
 70
    16
177
     2
291
     1
 71
     2
176
     1
 72
     2
176
     1
 73
     3
176
     1
 90
        0
176
     1
 40
-0.6
176
     1
 41
-30.0
176
     1
 62
     5
 63
     8
421
  8421504
176
     1
 74
     1
176
     1
 91
        4
176
     1
 64
     7
176
     1
 65
   257
176
     1
 75
     1
176
     1
175
     1
176
     1
 42
1.0
176
     1
 92
        8
176
     1
 66
     8
424
  8421504
176
     1
 43
1.0
176
     1
 76
     1
176
     1
 77
     6
176
     1
 78
     2
176
     1
 67
     7
176
     1
 79
     5
176
     1
170
     0
176
     1
171
     0
176
     1
290
     0
176
     1
 93
        1
176
     1
 44
0.0
176
     1
173
     0
176
     1
  0
VISUALSTYLE
  5
34
102
{ACAD_REACTORS
330
2A
102
}
330
2A
100
AcDbVisualStyle
  2
Conceptual
 70
     9
177
     2
291
     0
 71
     3
176
     1
 72
     2
176
     1
 73
     0
176
     1
 90
        0
176
     1
 40
-0.6
176
     1
 41
-30.0
176
     1
 62
     5
 63
     7
421
 16777215
176
     1
 74
     2
176
     1
 91
        2
176
     1
 64
     7
176
     1
 65
   257
176
     1
 75
     1
176
     1
175
     1
176
     1
 42
40.0
176
     1
 92
        8
176
     1
 66
     7
176
     1
 43
1.0
176
     1
 76
     1
176
     1
 77
     6
176
     1
 78
     2
176
     1
 67
     7
176
     1
 79
     3
176
     1
170
     0
176
     1
171
     0
176
     1
290
     0
176
     1
 93
        1
176
     1
 44
0.0
176
     1
173
     0
176
     1
  0
VISUALSTYLE
  5
35
102
{ACAD_REACTORS
330
2A
102
}
330
2A
100
AcDbVisualStyle
  2
Dim
 70
    11
177
     2
291
     1
 71
     2
176
     1
 72
     2
176
     1
 73
     0
176
     1
 90
        0
176
     1
 40
-0.6
176
     1
 41
-30.0
176
     1
 62
     5
 63
     7
421
 16777215
176
     1
 74
     1
176
     1
 91
        4
176
     1
 64
     7
176
     1
 65
   257
176
     1
 75
     1
176
     1
175
     1
176
     1
 42
1.0
176
     1
 92
        8
176
     1
 66
     7
176
     1
 43
1.0
176
     1
 76
     1
176
     1
 77
     6
176
     1
 78
     2
176
     1
 67
     7
176
     1
 79
     5
176
     1
170
     0
176
     1
171
     0
176
     1
290
     0
176
     1
 93
        1
176
     1
 44
-50.0
176
     1
173
     0
176
     1
  0
VISUALSTYLE
  5
39
102
{ACAD_REACTORS
330
2A
102
}
330
2A
100
AcDbVisualStyle
  2
Facepattern
 70
    15
177
     2
291
     1
 71
     2
176
     1
 72
     2
176
     1
 73
     0
176
     1
 90
        0
176
     1
 40
-0.6
176
     1
 41
-30.0
176
     1
 62
     5
 63
     7
421
 16777215
176
     1
 74
     1
176
     1
 91
        4
176
     1
 64
     7
176
     1
 65
   257
176
     1
 75
     1
176
     1
175
     1
176
     1
 42
1.0
176
     1
 92
        8
176
     1
 66
     7
176
     1
 43
1.0
176
     1
 76
     1
176
     1
 77
     6
176
     1
 78
     2
176
     1
 67
     7
176
     1
 79
     5
176
     1
170
     0
176
     1
171
     0
176
     1
290
     0
176
     1
 93
        1
176
     1
 44
0.0
176
     1
173
     0
176
     1
  0
VISUALSTYLE
  5
2B
102
{ACAD_REACTORS
330
2A
102
}
330
2A
100
AcDbVisualStyle
  2
Flat
 70
     0
177
     2
291
     1
 71
     2
176
     1
 72
     1
176
     1
 73
     1
176
     1
 90
        2
176
     1
 40
-0.6
176
     1
 41
30.0
176
     1
 62
     5
 63
     7
421
 16777215
176
     1
 74
     0
176
     1
 91
        4
176
     1
 64
     7
176
     1
 65
   257
176
     1
 75
     1
176
     1
175
     1
176
     1
 42
1.0
176
     1
 92
        8
176
     1
 66
     7
176
     1
 43
1.0
176
     1
 76
     1
176
     1
 77
     6
176
     1
 78
     2
176
     1
 67
     7
176
     1
 79
     5
176
     1
170
     0
176
     1
171
     0
176
     1
290
     0
176
     1
 93
       13
176
     1
 44
0.0
176
     1
173
     0
176
     1
  0
VISUALSTYLE
  5
2C
102
{ACAD_REACTORS
330
2A
102
}
330
2A
100
AcDbVisualStyle
  2
FlatWithEdges
 70
     1
177
     2
291
     1
 71
     2
176
     1
 72
     1
176
     1
 73
     1
176
     1
 90
        2
176
     1
 40
-0.6
176
     1
 41
30.0
176
     1
 62
     5
 63
     7
421
 16777215
176
     1
 74
     1
176
     1
 91
        4
176
     1
 64
     7
176
     1
 65
   257
176
     1
 75
     1
176
     1
175
     1
176
     1
 42
1.0
176
     1
 92
        0
176
     1
 66
   257
176
     1
 43
1.0
176
     1
 76
     1
176
     1
 77
     6
176
     1
 78
     2
176
     1
 67
     7
176
     1
 79
     5
176
     1
170
     0
176
     1
171
     0
176
     1
290
     0
176
     1
 93
       13
176
     1
 44
0.0
176
     1
173
     0
176
     1
  0
VISUALSTYLE
  5
2D
102
{ACAD_REACTORS
330
2A
102
}
330
2A
100
AcDbVisualStyle
  2
Gouraud
 70
     2
177
     2
291
     1
 71
     2
176
     1
 72
     2
176
     1
 73
     1
176
     1
 90
        2
176
     1
 40
-0.6
176
     1
 41
30.0
176
     1
 62
     5
 63
     7
421
 16777215
176
     1
 74
     0
176
     1
 91
        4
176
     1
 64
     7
176
     1
 65
   257
176
     1
 75
     1
176
     1
175
     1
176
     1
 42
1.0
176
     1
 92
        0
176
     1
 66
     7
176
     1
 43
1.0
176
     1
 76
     1
176
     1
 77
     6
176
     1
 78
     2
176
     1
 67
     7
176
     1
 79
     5
176
     1
170
     0
176
     1
171
     0
176
     1
290
     0
176
     1
 93
       13
176
     1
 44
0.0
176
     1
173
     0
176
     1
  0
VISUALSTYLE
  5
2E
102
{ACAD_REACTORS
330
2A
102
}
330
2A
100
AcDbVisualStyle
  2
GouraudWithEdges
 70
     3
177
     2
291
     1
 71
     2
176
     1
 72
     2
176
     1
 73
     1
176
     1
 90
        2
176
     1
 40
-0.6
176
     1
 41
30.0
176
     1
 62
     5
 63
     7
421
 16777215
176
     1
 74
     1
176
     1
 91
        4
176
     1
 64
     7
176
     1
 65
   257
176
     1
 75
     1
176
     1
175
     1
176
     1
 42
1.0
176
     1
 92
        0
176
     1
 66
   257
176
     1
 43
1.0
176
     1
 76
     1
176
     1
 77
     6
176
     1
 78
     2
176
     1
 67
     7
176
     1
 79
     5
176
     1
170
     0
176
     1
171
     0
176
     1
290
     0
176
     1
 93
       13
176
     1
 44
0.0
176
     1
173
     0
176
     1
  0
VISUALSTYLE
  5
38
102
{ACAD_REACTORS
330
2A
102
}
330
2A
100
AcDbVisualStyle
  2
Linepattern
 70
    14
177
     2
291
     1
 71
     2
176
     1
 72
     2
176
     1
 73
     0
176
     1
 90
        0
176
     1
 40
-0.6
176
     1
 41
-30.0
176
     1
 62
     5
 63
     7
421
 16777215
176
     1
 74
     1
176
     1
 91
        4
176
     1
 64
     7
176
     1
 65
   257
176
     1
 75
     7
176
     1
175
     7
176
     1
 42
1.0
176
     1
 92
        8
176
     1
 66
     7
176
     1
 43
1.0
176
     1
 76
     1
176
     1
 77
     6
176
     1
 78
     2
176
     1
 67
     7
176
     1
 79
     5
176
     1
170
     0
176
     1
171
     0
176
     1
290
     0
176
     1
 93
        1
176
     1
 44
0.0
176
     1
173
     0
176
     1
  0
VISUALSTYLE
  5
33
102
{ACAD_REACTORS
330
2A
102
}
330
2A
100
AcDbVisualStyle
  2
Realistic
 70
     8
177
     2
291
     0
 71
     2
176
     1
 72
     2
176
     1
 73
     0
176
     1
 90
        0
176
     1
 40
-0.6
176
     1
 41
-30.0
176
     1
 62
     5
 63
     7
421
 16777215
176
     1
 74
     1
176
     1
 91
        0
176
     1
 64
     7
176
     1
 65
   257
176
     1
 75
     1
176
     1
175
     1
176
     1
 42
1.0
176
     1
 92
        8
176
     1
 66
     8
424
  7895160
176
     1
 43
1.0
176
     1
 76
     1
176
     1
 77
     6
176
     1
 78
     2
176
     1
 67
     7
176
     1
 79
     5
176
     1
170
     0
176
     1
171
     0
176
     1
290
     0
176
     1
 93
       13
176
     1
 44
0.0
176
     1
173
     0
176
     1
  0
VISUALSTYLE
  5
37
102
{ACAD_REACTORS
330
2A
102
}
330
2A
100
AcDbVisualStyle
  2
Thicken
 70
    13
177
     2
291
     1
 71
     2
176
     1
 72
     2
176
     1
 73
     0
176
     1
 90
        0
176
     1
 40
-0.6
176
     1
 41
-30.0
176
     1
 62
     5
 63
     7
421
 16777215
176
     1
 74
     1
176
     1
 91
        4
176
     1
 64
     7
176
     1
 65
   257
176
     1
 75
     1
176
     1
175
     1
176
     1
 42
1.0
176
     1
 92
       12
176
     1
 66
     7
176
     1
 43
1.0
176
     1
 76
     1
176
     1
 77
     6
176
     1
 78
     2
176
     1
 67
     7
176
     1
 79
     5
176
     1
170
     0
176
     1
171
     0
176
     1
290
     0
176
     1
 93
        1
176
     1
 44
0.0
176
     1
173
     0
176
     1
  0
ENDSEC
  0
EOF
