999
"DXF R12 Output" (www.mydxf.blogspot.com)
 0 
SECTION
 2 
HEADER
 9 
$ACADVER
 1 
AC1009
 9 
$EXTMIN
 10 
 0 
 20 
 0 
 9 
$EXTMAX
 10 
 8.5 
 20 
 11 
 0 
ENDSEC
 0 
SECTION
 2 
ENTITIES
0
LINE
8
Layer 1
10
309.520080
20
65.768321
11
299.574390
21
121.213609
0
LINE
8
Layer 1
10
299.574810
20
121.213683
11
299.208494
21
122.204283
0
LINE
8
Layer 1
10
299.208494
20
122.204283
11
298.543570
21
122.987048
0
LINE
8
Layer 1
10
298.543570
20
122.987048
11
297.653856
21
123.500541
0
LINE
8
Layer 1
10
297.653856
20
123.500541
11
296.613170
21
123.683325
0
LINE
8
Layer 1
10
296.613700
20
123.683230
11
236.685290
21
123.533211
0
LINE
8
Layer 1
10
236.685410
20
123.533211
11
236.441310
21
123.511118
0
LINE
8
Layer 1
10
236.441340
20
123.510986
11
218.583290
21
120.285186
0
LINE
8
Layer 1
10
218.583330
20
120.285313
11
218.138360
21
120.083860
0
LINE
8
Layer 1
10
218.138360
20
120.083860
11
217.842160
21
119.695525
0
LINE
8
Layer 1
10
217.842190
20
119.695430
11
217.020660
21
117.782757
0
LINE
8
Layer 1
10
217.020660
20
117.782757
11
184.029240
21
110.943543
0
LINE
8
Layer 1
10
184.029170
20
110.943448
11
183.123947
21
110.964275
0
LINE
8
Layer 1
10
183.123947
20
110.964275
11
182.320260
21
111.382868
0
LINE
8
Layer 1
10
182.320290
20
111.382751
11
175.753860
21
117.016259
0
LINE
8
Layer 1
10
175.753850
20
117.016333
11
174.888506
21
117.603613
0
LINE
8
Layer 1
10
174.888506
20
117.603613
11
173.948680
21
117.803225
0
LINE
8
Layer 1
10
173.948610
20
117.803130
11
172.922290
21
117.800730
0
LINE
8
Layer 1
10
172.922290
20
117.800749
11
154.833790
21
117.756569
0
LINE
8
Layer 1
10
154.833790
20
117.756564
11
154.833790
21
117.767414
0
LINE
8
Layer 1
10
154.833790
20
117.767411
11
136.744490
21
117.811601
0
LINE
8
Layer 1
10
136.744490
20
117.811597
11
135.717910
21
117.814497
0
LINE
8
Layer 1
10
135.717860
20
117.814401
11
134.777459
21
117.614627
0
LINE
8
Layer 1
10
134.777459
20
117.614627
11
133.912680
21
117.025985
0
LINE
8
Layer 1
10
133.912650
20
117.026049
11
127.344640
21
111.393864
0
LINE
8
Layer 1
10
127.344750
20
111.393790
11
126.542205
21
110.975008
0
LINE
8
Layer 1
10
126.542205
20
110.975008
11
125.637360
21
110.952846
0
LINE
8
Layer 1
10
125.637280
20
110.952803
11
92.644532
21
117.793605
0
LINE
8
Layer 1
10
92.644532
20
117.793605
11
91.823001
21
119.706543
0
LINE
8
Layer 1
10
91.823107
20
119.706447
11
91.527038
21
120.094877
0
LINE
8
Layer 1
10
91.527038
20
120.094877
11
91.082951
21
120.296235
0
LINE
8
Layer 1
10
91.082962
20
120.296299
11
73.223587
21
123.520511
0
LINE
8
Layer 1
10
73.223703
20
123.520511
11
72.981387
21
123.544138
0
LINE
8
Layer 1
10
72.981493
20
123.544059
11
13.051702
21
123.694607
0
LINE
8
Layer 1
10
13.051713
20
123.694501
11
12.011531
21
123.511554
0
LINE
8
Layer 1
10
12.011531
20
123.511554
11
11.122640
21
122.997875
0
LINE
8
Layer 1
10
11.122640
20
122.997875
11
10.458282
21
122.214781
0
LINE
8
Layer 1
10
10.458282
20
122.214781
11
10.091699
21
121.223589
0
LINE
8
Layer 1
10
10.091702
20
121.223663
11
0.147777
21
65.779698
0
LINE
8
Layer 1
10
0.147777
20
65.779709
11
0.173464
21
64.588120
0
LINE
8
Layer 1
10
0.173464
20
64.588120
11
0.638531
21
63.535714
0
LINE
8
Layer 1
10
0.638531
20
63.535714
11
1.464557
21
62.734721
0
LINE
8
Layer 1
10
1.464557
20
62.734721
11
2.573123
21
62.297369
0
LINE
8
Layer 1
10
2.573125
20
62.297252
11
41.480731
21
55.058252
0
LINE
8
Layer 1
10
41.480816
20
55.058369
11
42.240022
21
55.068069
0
LINE
8
Layer 1
10
42.240085
20
55.068042
11
50.706487
21
56.831754
0
LINE
8
Layer 1
10
50.706604
20
56.831797
11
51.471398
21
56.841697
0
LINE
8
Layer 1
10
51.471398
20
56.841809
11
61.411264
21
53.820796
0
LINE
8
Layer 1
10
61.411179
20
53.820881
11
62.001316
21
53.476266
0
LINE
8
Layer 1
10
62.001316
20
53.476266
11
62.233885
21
52.834091
0
LINE
8
Layer 1
10
62.233854
20
52.834165
11
58.841102
21
35.681757
0
LINE
8
Layer 1
10
58.841207
20
35.681725
11
58.972303
21
34.962016
0
LINE
8
Layer 1
10
58.972303
20
34.962016
11
59.559265
21
34.524247
0
LINE
8
Layer 1
10
59.559181
20
34.524205
11
94.779191
21
23.566220
0
LINE
8
Layer 1
10
94.779159
20
23.567500
11
95.231850
21
23.300325
0
LINE
8
Layer 1
10
95.231850
20
23.300325
11
95.486041
21
22.839890
0
LINE
8
Layer 1
10
95.486157
20
22.838620
11
99.031840
21
14.655060
0
LINE
8
Layer 1
10
99.031880
20
14.655730
11
99.461650
21
14.052170
0
LINE
8
Layer 1
10
99.461520
20
14.051800
11
122.998590
21
0.981390
0
LINE
8
Layer 1
10
122.998560
20
0.980090
11
124.289738
21
0.386848
0
LINE
8
Layer 1
10
124.289738
20
0.386848
11
125.696550
21
0.182210
0
LINE
8
Layer 1
10
125.696550
20
0.182350
11
127.234830
21
0.177350
0
LINE
8
Layer 1
10
127.234830
20
0.177050
11
154.832470
21
0.110950
0
LINE
8
Layer 1
10
154.832470
20
0.110910
11
154.832470
21
0.100310
0
LINE
8
Layer 1
10
154.832470
20
0.100320
11
182.431950
21
0.166520
0
LINE
8
Layer 1
10
182.431950
20
0.166470
11
183.969710
21
0.171470
0
LINE
8
Layer 1
10
183.969740
20
0.171190
11
185.375690
21
0.376949
0
LINE
8
Layer 1
10
185.375690
20
0.376949
11
186.667730
21
0.969070
0
LINE
8
Layer 1
10
186.667660
20
0.968160
11
210.205000
21
14.041220
0
LINE
8
Layer 1
10
210.204890
20
14.041130
11
210.633390
21
14.644730
0
LINE
8
Layer 1
10
210.633360
20
14.644470
11
214.179300
21
22.828030
0
LINE
8
Layer 1
10
214.179230
20
22.828890
11
214.433594
21
23.289508
0
LINE
8
Layer 1
10
214.433594
20
23.289508
11
214.887630
21
23.557870
0
LINE
8
Layer 1
10
214.887590
20
23.558280
11
250.107600
21
34.513357
0
LINE
8
Layer 1
10
250.107530
20
34.513325
11
250.693536
21
34.951094
0
LINE
8
Layer 1
10
250.693536
20
34.951094
11
250.824060
21
35.672327
0
LINE
8
Layer 1
10
250.824090
20
35.672232
11
247.432660
21
52.823052
0
LINE
8
Layer 1
10
247.432650
20
52.823169
11
247.664116
21
53.465916
0
LINE
8
Layer 1
10
247.664116
20
53.465916
11
248.254090
21
53.809959
0
LINE
8
Layer 1
10
248.254190
20
53.809948
11
258.195650
21
56.831754
0
LINE
8
Layer 1
10
258.195650
20
56.831797
11
258.960190
21
56.822397
0
LINE
8
Layer 1
10
258.960290
20
56.822494
11
267.424870
21
55.058252
0
LINE
8
Layer 1
10
267.426030
20
55.058369
11
268.185490
21
55.047439
0
LINE
8
Layer 1
10
268.184220
20
55.047404
11
307.093850
21
62.286140
0
LINE
8
Layer 1
10
307.093210
20
62.286193
11
308.201245
21
62.723648
0
LINE
8
Layer 1
10
308.201245
20
62.723648
11
309.027102
21
63.524602
0
LINE
8
Layer 1
10
309.027102
20
63.524602
11
309.492438
21
64.576872
0
LINE
8
Layer 1
10
309.492438
20
64.576872
11
309.518910
21
65.768279
0
LINE
8
Layer 1
10
309.520080
20
65.768321
11
309.520080
21
65.768321
0
LINE
8
Layer 1
10
123.368180
20
12.042110
11
123.280875
21
11.614143
0
LINE
8
Layer 1
10
123.280875
20
11.614143
11
123.044219
21
11.265023
0
LINE
8
Layer 1
10
123.044219
20
11.265023
11
122.693845
21
11.030071
0
LINE
8
Layer 1
10
122.693845
20
11.030071
11
122.265390
21
10.944610
0
LINE
8
Layer 1
10
122.265390
20
10.944610
11
121.837483
21
11.032393
0
LINE
8
Layer 1
10
121.837483
20
11.032393
11
121.488486
21
11.269125
0
LINE
8
Layer 1
10
121.488486
20
11.269125
11
121.253656
21
11.619385
0
LINE
8
Layer 1
10
121.253656
20
11.619385
11
121.168250
21
12.047750
0
LINE
8
Layer 1
10
121.168250
20
12.047750
11
121.255505
21
12.475509
0
LINE
8
Layer 1
10
121.255505
20
12.475509
11
121.492080
21
12.824523
0
LINE
8
Layer 1
10
121.492080
20
12.824523
11
121.842437
21
13.059434
0
LINE
8
Layer 1
10
121.842437
20
13.059434
11
122.271040
21
13.144890
0
LINE
8
Layer 1
10
122.271040
20
13.144890
11
122.698799
21
13.057635
0
LINE
8
Layer 1
10
122.698799
20
13.057635
11
123.047813
21
12.821061
0
LINE
8
Layer 1
10
123.047813
20
12.821061
11
123.282724
21
12.470707
0
LINE
8
Layer 1
10
123.282724
20
12.470707
11
123.368180
21
12.042110
0
LINE
8
Layer 1
10
123.368180
20
12.042110
11
123.368180
21
12.042110
0
LINE
8
Layer 1
10
188.011180
20
11.999760
11
187.923876
21
11.571798
0
LINE
8
Layer 1
10
187.923876
20
11.571798
11
187.687220
21
11.222681
0
LINE
8
Layer 1
10
187.687220
20
11.222681
11
187.336849
21
10.987731
0
LINE
8
Layer 1
10
187.336849
20
10.987731
11
186.908400
21
10.902270
0
LINE
8
Layer 1
10
186.908400
20
10.902270
11
186.480493
21
10.990051
0
LINE
8
Layer 1
10
186.480493
20
10.990051
11
186.131496
21
11.226781
0
LINE
8
Layer 1
10
186.131496
20
11.226781
11
185.896666
21
11.577041
0
LINE
8
Layer 1
10
185.896666
20
11.577041
11
185.811260
21
12.005410
0
LINE
8
Layer 1
10
185.811260
20
12.005410
11
185.898515
21
12.433169
0
LINE
8
Layer 1
10
185.898515
20
12.433169
11
186.135089
21
12.782183
0
LINE
8
Layer 1
10
186.135089
20
12.782183
11
186.485443
21
13.017094
0
LINE
8
Layer 1
10
186.485443
20
13.017094
11
186.914040
21
13.102550
0
LINE
8
Layer 1
10
186.914040
20
13.102550
11
187.341799
21
13.015295
0
LINE
8
Layer 1
10
187.341799
20
13.015295
11
187.690812
21
12.778720
0
LINE
8
Layer 1
10
187.690812
20
12.778720
11
187.925724
21
12.428363
0
LINE
8
Layer 1
10
187.925724
20
12.428363
11
188.011180
21
11.999760
0
LINE
8
Layer 1
10
188.011180
20
11.999760
11
188.011180
21
11.999760
0
LINE
8
Layer 1
10
215.739480
20
52.809093
11
215.652176
21
52.381130
0
LINE
8
Layer 1
10
215.652176
20
52.381130
11
215.415520
21
52.032012
0
LINE
8
Layer 1
10
215.415520
20
52.032012
11
215.065149
21
51.797062
0
LINE
8
Layer 1
10
215.065149
20
51.797062
11
214.636700
21
51.711601
0
LINE
8
Layer 1
10
214.636700
20
51.711601
11
214.208793
21
51.799340
0
LINE
8
Layer 1
10
214.208793
20
51.799340
11
213.859796
21
52.036075
0
LINE
8
Layer 1
10
213.859796
20
52.036075
11
213.624966
21
52.386356
0
LINE
8
Layer 1
10
213.624966
20
52.386356
11
213.539560
21
52.814736
0
LINE
8
Layer 1
10
213.539560
20
52.814736
11
213.626815
21
53.242496
0
LINE
8
Layer 1
10
213.626815
20
53.242496
11
213.863389
21
53.591509
0
LINE
8
Layer 1
10
213.863389
20
53.591509
11
214.213743
21
53.826421
0
LINE
8
Layer 1
10
214.213743
20
53.826421
11
214.642340
21
53.911876
0
LINE
8
Layer 1
10
214.642340
20
53.911876
11
215.070099
21
53.824495
0
LINE
8
Layer 1
10
215.070099
20
53.824495
11
215.419112
21
53.587935
0
LINE
8
Layer 1
10
215.419112
20
53.587935
11
215.654024
21
53.237650
0
LINE
8
Layer 1
10
215.654024
20
53.237650
11
215.739480
21
52.809093
0
LINE
8
Layer 1
10
215.739480
20
52.809093
11
215.739480
21
52.809093
0
LINE
8
Layer 1
10
265.735190
20
63.434770
11
265.648307
21
63.006807
0
LINE
8
Layer 1
10
265.648307
20
63.006807
11
265.411604
21
62.657689
0
LINE
8
Layer 1
10
265.411604
20
62.657689
11
265.060996
21
62.422739
0
LINE
8
Layer 1
10
265.060996
20
62.422739
11
264.632400
21
62.337278
0
LINE
8
Layer 1
10
264.632400
20
62.337278
11
264.204493
21
62.425017
0
LINE
8
Layer 1
10
264.204493
20
62.425017
11
263.855496
21
62.661752
0
LINE
8
Layer 1
10
263.855496
20
62.661752
11
263.620666
21
63.012034
0
LINE
8
Layer 1
10
263.620666
20
63.012034
11
263.535260
21
63.440414
0
LINE
8
Layer 1
10
263.535260
20
63.440414
11
263.622093
21
63.868174
0
LINE
8
Layer 1
10
263.622093
20
63.868174
11
263.858714
21
64.217187
0
LINE
8
Layer 1
10
263.858714
20
64.217187
11
264.209302
21
64.452098
0
LINE
8
Layer 1
10
264.209302
20
64.452098
11
264.638040
21
64.537553
0
LINE
8
Layer 1
10
264.638040
20
64.537553
11
265.065804
21
64.450172
0
LINE
8
Layer 1
10
265.065804
20
64.450172
11
265.414818
21
64.213612
0
LINE
8
Layer 1
10
265.414818
20
64.213612
11
265.649730
21
63.863327
0
LINE
8
Layer 1
10
265.649730
20
63.863327
11
265.735190
21
63.434770
0
LINE
8
Layer 1
10
265.735190
20
63.434770
11
265.735190
21
63.434770
0
LINE
8
Layer 1
10
259.639180
20
114.996770
11
259.552298
21
114.568806
0
LINE
8
Layer 1
10
259.552298
20
114.568806
11
259.315595
21
114.219689
0
LINE
8
Layer 1
10
259.315595
20
114.219689
11
258.964990
21
113.984739
0
LINE
8
Layer 1
10
258.964990
20
113.984739
11
258.536400
21
113.899278
0
LINE
8
Layer 1
10
258.536400
20
113.899278
11
258.108489
21
113.987017
0
LINE
8
Layer 1
10
258.108489
20
113.987017
11
257.759491
21
114.223752
0
LINE
8
Layer 1
10
257.759491
20
114.223752
11
257.524661
21
114.574033
0
LINE
8
Layer 1
10
257.524661
20
114.574033
11
257.439250
21
115.002413
0
LINE
8
Layer 1
10
257.439250
20
115.002413
11
257.526083
21
115.430173
0
LINE
8
Layer 1
10
257.526083
20
115.430173
11
257.762704
21
115.779186
0
LINE
8
Layer 1
10
257.762704
20
115.779186
11
258.113292
21
116.014098
0
LINE
8
Layer 1
10
258.113292
20
116.014098
11
258.542030
21
116.099553
0
LINE
8
Layer 1
10
258.542030
20
116.099553
11
258.969794
21
116.012172
0
LINE
8
Layer 1
10
258.969794
20
116.012172
11
259.318808
21
115.775612
0
LINE
8
Layer 1
10
259.318808
20
115.775612
11
259.553720
21
115.425327
0
LINE
8
Layer 1
10
259.553720
20
115.425327
11
259.639180
21
114.996770
0
LINE
8
Layer 1
10
259.639180
20
114.996770
11
259.639180
21
114.996770
0
LINE
8
Layer 1
10
171.120170
20
98.656100
11
171.032866
21
98.228137
0
LINE
8
Layer 1
10
171.032866
20
98.228137
11
170.796210
21
97.879019
0
LINE
8
Layer 1
10
170.796210
20
97.879019
11
170.445839
21
97.644069
0
LINE
8
Layer 1
10
170.445839
20
97.644069
11
170.017390
21
97.558609
0
LINE
8
Layer 1
10
170.017390
20
97.558609
11
169.589483
21
97.646348
0
LINE
8
Layer 1
10
169.589483
20
97.646348
11
169.240486
21
97.883083
0
LINE
8
Layer 1
10
169.240486
20
97.883083
11
169.005656
21
98.233364
0
LINE
8
Layer 1
10
169.005656
20
98.233364
11
168.920250
21
98.661744
0
LINE
8
Layer 1
10
168.920250
20
98.661744
11
169.007505
21
99.089504
0
LINE
8
Layer 1
10
169.007505
20
99.089504
11
169.244079
21
99.438517
0
LINE
8
Layer 1
10
169.244079
20
99.438517
11
169.594433
21
99.673429
0
LINE
8
Layer 1
10
169.594433
20
99.673429
11
170.023030
21
99.758884
0
LINE
8
Layer 1
10
170.023030
20
99.758884
11
170.450794
21
99.671502
0
LINE
8
Layer 1
10
170.450794
20
99.671502
11
170.799806
21
99.434943
0
LINE
8
Layer 1
10
170.799806
20
99.434943
11
171.034716
21
99.084658
0
LINE
8
Layer 1
10
171.034716
20
99.084658
11
171.120170
21
98.656100
0
LINE
8
Layer 1
10
171.120170
20
98.656100
11
171.120170
21
98.656100
0
LINE
8
Layer 1
10
142.164170
20
98.656100
11
142.076866
21
98.228137
0
LINE
8
Layer 1
10
142.076866
20
98.228137
11
141.840210
21
97.879019
0
LINE
8
Layer 1
10
141.840210
20
97.879019
11
141.489839
21
97.644069
0
LINE
8
Layer 1
10
141.489839
20
97.644069
11
141.061390
21
97.558609
0
LINE
8
Layer 1
10
141.061390
20
97.558609
11
140.633479
21
97.646348
0
LINE
8
Layer 1
10
140.633479
20
97.646348
11
140.284483
21
97.883083
0
LINE
8
Layer 1
10
140.284483
20
97.883083
11
140.049655
21
98.233364
0
LINE
8
Layer 1
10
140.049655
20
98.233364
11
139.964250
21
98.661744
0
LINE
8
Layer 1
10
139.964250
20
98.661744
11
140.051505
21
99.089504
0
LINE
8
Layer 1
10
140.051505
20
99.089504
11
140.288079
21
99.438517
0
LINE
8
Layer 1
10
140.288079
20
99.438517
11
140.638433
21
99.673429
0
LINE
8
Layer 1
10
140.638433
20
99.673429
11
141.067030
21
99.758884
0
LINE
8
Layer 1
10
141.067030
20
99.758884
11
141.494789
21
99.671502
0
LINE
8
Layer 1
10
141.494789
20
99.671502
11
141.843803
21
99.434943
0
LINE
8
Layer 1
10
141.843803
20
99.434943
11
142.078714
21
99.084658
0
LINE
8
Layer 1
10
142.078714
20
99.084658
11
142.164170
21
98.656100
0
LINE
8
Layer 1
10
142.164170
20
98.656100
11
142.164170
21
98.656100
0
LINE
8
Layer 1
10
45.728844
20
63.434770
11
45.641413
21
63.006807
0
LINE
8
Layer 1
10
45.641413
20
63.006807
11
45.404771
21
62.657689
0
LINE
8
Layer 1
10
45.404771
20
62.657689
11
45.054470
21
62.422739
0
LINE
8
Layer 1
10
45.054470
20
62.422739
11
44.626061
21
62.337278
0
LINE
8
Layer 1
10
44.626061
20
62.337278
11
44.198152
21
62.425017
0
LINE
8
Layer 1
10
44.198152
20
62.425017
11
43.849156
21
62.661752
0
LINE
8
Layer 1
10
43.849156
20
62.661752
11
43.614327
21
63.012034
0
LINE
8
Layer 1
10
43.614327
20
63.012034
11
43.528921
21
63.440414
0
LINE
8
Layer 1
10
43.528921
20
63.440414
11
43.616302
21
63.868174
0
LINE
8
Layer 1
10
43.616302
20
63.868174
11
43.852862
21
64.217187
0
LINE
8
Layer 1
10
43.852862
20
64.217187
11
44.203147
21
64.452098
0
LINE
8
Layer 1
10
44.203147
20
64.452098
11
44.631704
21
64.537553
0
LINE
8
Layer 1
10
44.631704
20
64.537553
11
45.059464
21
64.450172
0
LINE
8
Layer 1
10
45.059464
20
64.450172
11
45.408477
21
64.213612
0
LINE
8
Layer 1
10
45.408477
20
64.213612
11
45.643389
21
63.863327
0
LINE
8
Layer 1
10
45.643389
20
63.863327
11
45.728844
21
63.434770
0
LINE
8
Layer 1
10
45.728844
20
63.434770
11
45.728844
21
63.434770
0
LINE
8
Layer 1
10
52.375175
20
114.996770
11
52.287744
21
114.568806
0
LINE
8
Layer 1
10
52.287744
20
114.568806
11
52.051102
21
114.219689
0
LINE
8
Layer 1
10
52.051102
20
114.219689
11
51.700800
21
113.984739
0
LINE
8
Layer 1
10
51.700800
20
113.984739
11
51.272391
21
113.899278
0
LINE
8
Layer 1
10
51.272391
20
113.899278
11
50.844483
21
113.987017
0
LINE
8
Layer 1
10
50.844483
20
113.987017
11
50.495486
21
114.223752
0
LINE
8
Layer 1
10
50.495486
20
114.223752
11
50.260657
21
114.574033
0
LINE
8
Layer 1
10
50.260657
20
114.574033
11
50.175252
21
115.002413
0
LINE
8
Layer 1
10
50.175252
20
115.002413
11
50.262633
21
115.430173
0
LINE
8
Layer 1
10
50.262633
20
115.430173
11
50.499193
21
115.779186
0
LINE
8
Layer 1
10
50.499193
20
115.779186
11
50.849478
21
116.014098
0
LINE
8
Layer 1
10
50.849478
20
116.014098
11
51.278035
21
116.099553
0
LINE
8
Layer 1
10
51.278035
20
116.099553
11
51.705795
21
116.012172
0
LINE
8
Layer 1
10
51.705795
20
116.012172
11
52.054808
21
115.775612
0
LINE
8
Layer 1
10
52.054808
20
115.775612
11
52.289720
21
115.425327
0
LINE
8
Layer 1
10
52.289720
20
115.425327
11
52.375175
21
114.996770
0
LINE
8
Layer 1
10
52.375175
20
114.996770
11
52.375175
21
114.996770
0
LINE
8
Layer 1
10
95.809169
20
52.809093
11
95.721738
21
52.381130
0
LINE
8
Layer 1
10
95.721738
20
52.381130
11
95.485096
21
52.032012
0
LINE
8
Layer 1
10
95.485096
20
52.032012
11
95.134794
21
51.797062
0
LINE
8
Layer 1
10
95.134794
20
51.797062
11
94.706385
21
51.711601
0
LINE
8
Layer 1
10
94.706385
20
51.711601
11
94.278477
21
51.799340
0
LINE
8
Layer 1
10
94.278477
20
51.799340
11
93.929480
21
52.036075
0
LINE
8
Layer 1
10
93.929480
20
52.036075
11
93.694651
21
52.386356
0
LINE
8
Layer 1
10
93.694651
20
52.386356
11
93.609245
21
52.814736
0
LINE
8
Layer 1
10
93.609245
20
52.814736
11
93.696627
21
53.242496
0
LINE
8
Layer 1
10
93.696627
20
53.242496
11
93.933186
21
53.591509
0
LINE
8
Layer 1
10
93.933186
20
53.591509
11
94.283471
21
53.826421
0
LINE
8
Layer 1
10
94.283471
20
53.826421
11
94.712029
21
53.911876
0
LINE
8
Layer 1
10
94.712029
20
53.911876
11
95.139789
21
53.824495
0
LINE
8
Layer 1
10
95.139789
20
53.824495
11
95.488802
21
53.587935
0
LINE
8
Layer 1
10
95.488802
20
53.587935
11
95.723714
21
53.237650
0
LINE
8
Layer 1
10
95.723714
20
53.237650
11
95.809169
21
52.809093
0
LINE
8
Layer 1
10
95.809169
20
52.809093
11
95.809169
21
52.809093
0
LINE
8
Layer 1
10
151.392020
20
79.584994
11
160.175990
21
79.584994
0
LINE
8
Layer 1
10
160.175990
20
79.584994
11
160.934901
21
79.432531
0
LINE
8
Layer 1
10
160.934901
20
79.432531
11
161.553329
21
79.016252
0
LINE
8
Layer 1
10
161.553329
20
79.016252
11
161.969607
21
78.397824
0
LINE
8
Layer 1
10
161.969607
20
78.397824
11
162.122070
21
77.638913
0
LINE
8
Layer 1
10
162.122070
20
77.638913
11
162.122070
21
70.134188
0
LINE
8
Layer 1
10
162.122070
20
70.134188
11
161.969607
21
69.375278
0
LINE
8
Layer 1
10
161.969607
20
69.375278
11
161.553329
21
68.756850
0
LINE
8
Layer 1
10
161.553329
20
68.756850
11
160.934901
21
68.340571
0
LINE
8
Layer 1
10
160.934901
20
68.340571
11
160.175990
21
68.188108
0
LINE
8
Layer 1
10
160.175990
20
68.188108
11
151.392020
21
68.188108
0
LINE
8
Layer 1
10
151.392020
20
68.188108
11
150.633109
21
68.340571
0
LINE
8
Layer 1
10
150.633109
20
68.340571
11
150.014681
21
68.756850
0
LINE
8
Layer 1
10
150.014681
20
68.756850
11
149.598403
21
69.375278
0
LINE
8
Layer 1
10
149.598403
20
69.375278
11
149.445940
21
70.134188
0
LINE
8
Layer 1
10
149.445940
20
70.134188
11
149.445940
21
77.638913
0
LINE
8
Layer 1
10
149.445940
20
77.638913
11
149.598403
21
78.397824
0
LINE
8
Layer 1
10
149.598403
20
78.397824
11
150.014681
21
79.016252
0
LINE
8
Layer 1
10
150.014681
20
79.016252
11
150.633109
21
79.432531
0
LINE
8
Layer 1
10
150.633109
20
79.432531
11
151.392020
21
79.584994
0
LINE
8
Layer 1
10
151.392020
20
79.584994
11
151.392020
21
79.584994
 0 
ENDSEC
 0 
EOF