999
"DXF R12 Output" (www.mydxf.blogspot.com)
 0 
SECTION
 2 
HEADER
 9 
$ACADVER
 1 
AC1009
 9 
$EXTMIN
 10 
 0 
 20 
 0 
 9 
$EXTMAX
 10 
 8.5 
 20 
 11 
 0 
ENDSEC
 0 
SECTION
 2 
ENTITIES
0
LINE
8
Layer 1
10
155.221584
20
0.123695
11
127.590491
21
0.209538
0
LINE
8
Layer 1
10
127.590491
20
0.209538
11
126.020542
21
0.209538
0
LINE
8
Layer 1
10
126.020542
20
0.209538
11
124.619704
21
0.422136
0
LINE
8
Layer 1
10
124.619704
20
0.422136
11
123.346201
21
1.018171
0
LINE
8
Layer 1
10
123.346201
20
1.018171
11
112.449675
21
5.985773
0
LINE
8
Layer 1
10
112.449675
20
5.985773
11
112.020847
21
6.268077
0
LINE
8
Layer 1
10
112.020847
20
6.268077
11
98.176856
21
18.391346
0
LINE
8
Layer 1
10
98.176856
20
18.391346
11
97.754755
21
18.625036
0
LINE
8
Layer 1
10
97.754755
20
18.625036
11
61.491798
21
31.899192
0
LINE
8
Layer 1
10
61.491798
20
31.899192
11
60.908167
21
32.367343
0
LINE
8
Layer 1
10
60.908167
20
32.367343
11
60.770197
21
33.090939
0
LINE
8
Layer 1
10
60.770197
20
33.090939
11
63.458503
21
48.915096
0
LINE
8
Layer 1
10
63.458503
20
48.915096
11
63.230364
21
49.548280
0
LINE
8
Layer 1
10
63.230364
20
49.548280
11
62.652067
21
49.894345
0
LINE
8
Layer 1
10
62.652067
20
49.894345
11
51.616387
21
52.959287
0
LINE
8
Layer 1
10
51.616387
20
52.959287
11
50.852363
21
52.916865
0
LINE
8
Layer 1
10
50.852363
20
52.916865
11
42.363780
21
51.171376
0
LINE
8
Layer 1
10
42.363780
20
51.171376
11
41.599756
21
51.128954
0
LINE
8
Layer 1
10
41.599756
20
51.128954
11
2.594175
21
58.409225
0
LINE
8
Layer 1
10
2.594175
20
58.409225
11
1.475995
21
58.853546
0
LINE
8
Layer 1
10
1.475995
20
58.853546
11
0.652228
21
59.665011
0
LINE
8
Layer 1
10
0.652228
20
59.665011
11
0.194604
21
60.731924
0
LINE
8
Layer 1
10
0.194604
20
60.731924
11
0.174852
21
61.942586
0
LINE
8
Layer 1
10
0.174852
20
61.942586
11
10.106649
21
117.673024
0
LINE
8
Layer 1
10
10.106649
20
117.673024
11
10.493267
21
118.676161
0
LINE
8
Layer 1
10
10.493267
20
118.676161
11
11.162405
21
119.471711
0
LINE
8
Layer 1
10
11.162405
20
119.471711
11
12.046481
21
119.995848
0
LINE
8
Layer 1
10
12.046481
20
119.995848
11
13.077911
21
120.184745
0
LINE
8
Layer 1
10
13.077911
20
120.184745
11
73.177702
21
120.014648
0
LINE
8
Layer 1
10
73.177702
20
120.014648
11
73.432717
21
120.014648
0
LINE
8
Layer 1
10
73.432717
20
120.014648
11
91.343580
21
116.736167
0
LINE
8
Layer 1
10
91.343580
20
116.736167
11
91.768040
21
116.555335
0
LINE
8
Layer 1
10
91.768040
20
116.555335
11
92.065181
21
116.182945
0
LINE
8
Layer 1
10
92.065181
20
116.182945
11
92.871616
21
114.224446
0
LINE
8
Layer 1
10
92.871616
20
114.224446
11
110.533150
21
110.567512
0
LINE
8
Layer 1
10
110.533150
20
110.567512
11
109.809477
21
106.466442
0
LINE
8
Layer 1
10
109.809477
20
106.466442
11
109.822758
21
105.906206
0
LINE
8
Layer 1
10
109.822758
20
105.906206
11
110.041853
21
105.412910
0
LINE
8
Layer 1
10
110.041853
20
105.412910
11
110.430556
21
105.038317
0
LINE
8
Layer 1
10
110.430556
20
105.038317
11
110.952659
21
104.834190
0
LINE
8
Layer 1
10
110.952659
20
104.834190
11
118.723262
21
103.464582
0
LINE
8
Layer 1
10
118.723262
20
103.464582
11
119.283773
21
103.477937
0
LINE
8
Layer 1
10
119.283773
20
103.477937
11
119.777310
21
103.697105
0
LINE
8
Layer 1
10
119.777310
20
103.697105
11
120.152087
21
104.085800
0
LINE
8
Layer 1
10
120.152087
20
104.085800
11
120.356314
21
104.607734
0
LINE
8
Layer 1
10
120.356314
20
104.607734
11
121.024641
21
108.395475
0
LINE
8
Layer 1
10
121.024641
20
108.395475
11
125.978130
21
107.369692
0
LINE
8
Layer 1
10
125.978130
20
107.369692
11
126.898369
21
107.397106
0
LINE
8
Layer 1
10
126.898369
20
107.397106
11
127.675846
21
107.795729
0
LINE
8
Layer 1
10
127.675846
20
107.795729
11
134.254628
21
113.458226
0
LINE
8
Layer 1
10
134.254628
20
113.458226
11
135.135274
21
114.054126
0
LINE
8
Layer 1
10
135.135274
20
114.054126
11
136.079591
21
114.266858
0
LINE
8
Layer 1
10
136.079591
20
114.266858
11
137.098119
21
114.266858
0
LINE
8
Layer 1
10
137.098119
20
114.266858
11
144.908031
21
114.272861
0
LINE
8
Layer 1
10
144.908031
20
114.272861
11
165.705317
21
114.264857
0
LINE
8
Layer 1
10
165.705317
20
114.264857
11
173.387972
21
114.266858
0
LINE
8
Layer 1
10
173.387972
20
114.266858
11
174.406500
21
114.266858
0
LINE
8
Layer 1
10
174.406500
20
114.266858
11
175.350687
21
114.054126
0
LINE
8
Layer 1
10
175.350687
20
114.054126
11
176.231473
21
113.458226
0
LINE
8
Layer 1
10
176.231473
20
113.458226
11
182.810245
21
107.795729
0
LINE
8
Layer 1
10
182.810245
20
107.795729
11
183.611622
21
107.375164
0
LINE
8
Layer 1
10
183.611622
20
107.375164
11
184.507961
21
107.369702
0
LINE
8
Layer 1
10
184.507961
20
107.369702
11
217.614475
21
114.224456
0
LINE
8
Layer 1
10
217.614475
20
114.224456
11
218.420400
21
116.140563
0
LINE
8
Layer 1
10
218.420400
20
116.140563
11
218.717533
21
116.550128
0
LINE
8
Layer 1
10
218.717533
20
116.550128
11
219.142001
21
116.736177
0
LINE
8
Layer 1
10
219.142001
20
116.736177
11
236.989751
21
119.960370
0
LINE
8
Layer 1
10
236.989751
20
119.960370
11
237.307878
21
120.014698
0
LINE
8
Layer 1
10
237.307878
20
120.014698
11
297.408189
21
120.142403
0
LINE
8
Layer 1
10
297.408189
20
120.142403
11
298.445386
21
119.978111
0
LINE
8
Layer 1
10
298.445386
20
119.978111
11
299.339343
21
119.466548
0
LINE
8
Layer 1
10
299.339343
20
119.466548
11
300.010537
21
118.675581
0
LINE
8
Layer 1
10
300.010537
20
118.675581
11
300.379447
21
117.673074
0
LINE
8
Layer 1
10
300.379447
20
117.673074
11
310.353661
21
61.900245
0
LINE
8
Layer 1
10
310.353661
20
61.900245
11
310.309228
21
60.714166
0
LINE
8
Layer 1
10
310.309228
20
60.714166
11
309.839030
21
59.659830
0
LINE
8
Layer 1
10
309.839030
20
59.659830
11
309.010712
21
58.852959
0
LINE
8
Layer 1
10
309.010712
20
58.852959
11
307.891922
21
58.409275
0
LINE
8
Layer 1
10
307.891922
20
58.409275
11
268.885825
21
51.129004
0
LINE
8
Layer 1
10
268.885825
20
51.129004
11
268.122312
21
51.129004
0
LINE
8
Layer 1
10
268.122312
20
51.129004
11
259.633732
21
52.916885
0
LINE
8
Layer 1
10
259.633732
20
52.916885
11
259.211110
21
52.957206
0
LINE
8
Layer 1
10
259.211110
20
52.957206
11
258.869188
21
52.916885
0
LINE
8
Layer 1
10
258.869188
20
52.916885
11
247.834034
21
49.894335
0
LINE
8
Layer 1
10
247.834034
20
49.894335
11
247.255733
21
49.548255
0
LINE
8
Layer 1
10
247.255733
20
49.548255
11
247.027588
21
48.915086
0
LINE
8
Layer 1
10
247.027588
20
48.915086
11
249.715904
21
33.048538
0
LINE
8
Layer 1
10
249.715904
20
33.048538
11
249.577794
21
32.330038
0
LINE
8
Layer 1
10
249.577794
20
32.330038
11
248.994293
21
31.899182
0
LINE
8
Layer 1
10
248.994293
20
31.899182
11
212.796001
21
18.620873
0
LINE
8
Layer 1
10
212.796001
20
18.620873
11
212.379585
21
18.300830
0
LINE
8
Layer 1
10
212.379585
20
18.300830
11
198.567146
21
6.260293
0
LINE
8
Layer 1
10
198.567146
20
6.260293
11
198.185916
21
6.006423
0
LINE
8
Layer 1
10
198.185916
20
6.006423
11
192.746344
21
3.491541
0
LINE
8
Layer 1
10
192.746344
20
3.491541
11
187.182313
21
1.018141
0
LINE
8
Layer 1
10
187.182313
20
1.018141
11
185.871679
21
0.406141
0
LINE
8
Layer 1
10
185.871679
20
0.406141
11
184.465549
21
0.209508
0
LINE
8
Layer 1
10
184.465549
20
0.209508
11
182.895080
21
0.209508
0
LINE
8
Layer 1
10
182.895080
20
0.209508
11
155.221584
21
0.123695
0
LINE
8
Layer 1
10
44.931055
20
60.979885
11
44.844528
21
60.551311
0
LINE
8
Layer 1
10
44.844528
20
60.551311
11
44.608562
21
60.201392
0
LINE
8
Layer 1
10
44.608562
20
60.201392
11
44.258580
21
59.965501
0
LINE
8
Layer 1
10
44.258580
20
59.965501
11
43.830002
21
59.879010
0
LINE
8
Layer 1
10
43.830002
20
59.879010
11
43.401221
21
59.965501
0
LINE
8
Layer 1
10
43.401221
20
59.965501
11
43.051127
21
60.201392
0
LINE
8
Layer 1
10
43.051127
20
60.201392
11
42.815115
21
60.551311
0
LINE
8
Layer 1
10
42.815115
20
60.551311
11
42.728579
21
60.979885
0
LINE
8
Layer 1
10
42.728579
20
60.979885
11
42.815115
21
61.408253
0
LINE
8
Layer 1
10
42.815115
20
61.408253
11
43.051127
21
61.758067
0
LINE
8
Layer 1
10
43.051127
20
61.758067
11
43.401221
21
61.993919
0
LINE
8
Layer 1
10
43.401221
20
61.993919
11
43.830002
21
62.080405
0
LINE
8
Layer 1
10
43.830002
20
62.080405
11
44.258580
21
61.993919
0
LINE
8
Layer 1
10
44.258580
20
61.993919
11
44.608562
21
61.758067
0
LINE
8
Layer 1
10
44.608562
20
61.758067
11
44.844528
21
61.408253
0
LINE
8
Layer 1
10
44.844528
20
61.408253
11
44.931055
21
60.979885
0
LINE
8
Layer 1
10
44.931055
20
60.979885
11
44.931055
21
60.979885
0
LINE
8
Layer 1
10
50.864022
20
113.118885
11
50.777491
21
112.690311
0
LINE
8
Layer 1
10
50.777491
20
112.690311
11
50.541520
21
112.340392
0
LINE
8
Layer 1
10
50.541520
20
112.340392
11
50.191536
21
112.104501
0
LINE
8
Layer 1
10
50.191536
20
112.104501
11
49.762969
21
112.018010
0
LINE
8
Layer 1
10
49.762969
20
112.018010
11
49.334177
21
112.104501
0
LINE
8
Layer 1
10
49.334177
20
112.104501
11
48.984084
21
112.340392
0
LINE
8
Layer 1
10
48.984084
20
112.340392
11
48.748078
21
112.690311
0
LINE
8
Layer 1
10
48.748078
20
112.690311
11
48.661546
21
113.118885
0
LINE
8
Layer 1
10
48.661546
20
113.118885
11
48.748078
21
113.547253
0
LINE
8
Layer 1
10
48.748078
20
113.547253
11
48.984084
21
113.897067
0
LINE
8
Layer 1
10
48.984084
20
113.897067
11
49.334177
21
114.132919
0
LINE
8
Layer 1
10
49.334177
20
114.132919
11
49.762969
21
114.219405
0
LINE
8
Layer 1
10
49.762969
20
114.219405
11
50.191536
21
114.132919
0
LINE
8
Layer 1
10
50.191536
20
114.132919
11
50.541520
21
113.897067
0
LINE
8
Layer 1
10
50.541520
20
113.897067
11
50.777491
21
113.547253
0
LINE
8
Layer 1
10
50.777491
20
113.547253
11
50.864022
21
113.118885
0
LINE
8
Layer 1
10
50.864022
20
113.118885
11
50.864022
21
113.118885
0
LINE
8
Layer 1
10
123.496055
20
13.118256
11
123.409528
21
12.689681
0
LINE
8
Layer 1
10
123.409528
20
12.689681
11
123.173562
21
12.339763
0
LINE
8
Layer 1
10
123.173562
20
12.339763
11
122.823580
21
12.103872
0
LINE
8
Layer 1
10
122.823580
20
12.103872
11
122.395002
21
12.017382
0
LINE
8
Layer 1
10
122.395002
20
12.017382
11
121.966221
21
12.103872
0
LINE
8
Layer 1
10
121.966221
20
12.103872
11
121.616127
21
12.339763
0
LINE
8
Layer 1
10
121.616127
20
12.339763
11
121.380115
21
12.689681
0
LINE
8
Layer 1
10
121.380115
20
12.689681
11
121.293579
21
13.118256
0
LINE
8
Layer 1
10
121.293579
20
13.118256
11
121.380115
21
13.546625
0
LINE
8
Layer 1
10
121.380115
20
13.546625
11
121.616127
21
13.896439
0
LINE
8
Layer 1
10
121.616127
20
13.896439
11
121.966221
21
14.132291
0
LINE
8
Layer 1
10
121.966221
20
14.132291
11
122.395002
21
14.218776
0
LINE
8
Layer 1
10
122.395002
20
14.218776
11
122.823580
21
14.132291
0
LINE
8
Layer 1
10
122.823580
20
14.132291
11
123.173562
21
13.896439
0
LINE
8
Layer 1
10
123.173562
20
13.896439
11
123.409528
21
13.546625
0
LINE
8
Layer 1
10
123.409528
20
13.546625
11
123.496055
21
13.118256
0
LINE
8
Layer 1
10
123.496055
20
13.118256
11
123.496055
21
13.118256
0
LINE
8
Layer 1
10
95.909022
20
49.289256
11
95.822491
21
48.860681
0
LINE
8
Layer 1
10
95.822491
20
48.860681
11
95.586520
21
48.510763
0
LINE
8
Layer 1
10
95.586520
20
48.510763
11
95.236536
21
48.274872
0
LINE
8
Layer 1
10
95.236536
20
48.274872
11
94.807969
21
48.188382
0
LINE
8
Layer 1
10
94.807969
20
48.188382
11
94.379177
21
48.274872
0
LINE
8
Layer 1
10
94.379177
20
48.274872
11
94.029084
21
48.510763
0
LINE
8
Layer 1
10
94.029084
20
48.510763
11
93.793078
21
48.860681
0
LINE
8
Layer 1
10
93.793078
20
48.860681
11
93.706546
21
49.289256
0
LINE
8
Layer 1
10
93.706546
20
49.289256
11
93.793078
21
49.717625
0
LINE
8
Layer 1
10
93.793078
20
49.717625
11
94.029084
21
50.067439
0
LINE
8
Layer 1
10
94.029084
20
50.067439
11
94.379177
21
50.303291
0
LINE
8
Layer 1
10
94.379177
20
50.303291
11
94.807969
21
50.389776
0
LINE
8
Layer 1
10
94.807969
20
50.389776
11
95.236536
21
50.303291
0
LINE
8
Layer 1
10
95.236536
20
50.303291
11
95.586520
21
50.067439
0
LINE
8
Layer 1
10
95.586520
20
50.067439
11
95.822491
21
49.717625
0
LINE
8
Layer 1
10
95.822491
20
49.717625
11
95.909022
21
49.289256
0
LINE
8
Layer 1
10
95.909022
20
49.289256
11
95.909022
21
49.289256
0
LINE
8
Layer 1
10
139.683055
20
99.184256
11
139.596528
21
98.755681
0
LINE
8
Layer 1
10
139.596528
20
98.755681
11
139.360562
21
98.405763
0
LINE
8
Layer 1
10
139.360562
20
98.405763
11
139.010580
21
98.169872
0
LINE
8
Layer 1
10
139.010580
20
98.169872
11
138.582002
21
98.083382
0
LINE
8
Layer 1
10
138.582002
20
98.083382
11
138.153221
21
98.169872
0
LINE
8
Layer 1
10
138.153221
20
98.169872
11
137.803127
21
98.405763
0
LINE
8
Layer 1
10
137.803127
20
98.405763
11
137.567115
21
98.755681
0
LINE
8
Layer 1
10
137.567115
20
98.755681
11
137.480579
21
99.184256
0
LINE
8
Layer 1
10
137.480579
20
99.184256
11
137.567115
21
99.612625
0
LINE
8
Layer 1
10
137.567115
20
99.612625
11
137.803127
21
99.962439
0
LINE
8
Layer 1
10
137.803127
20
99.962439
11
138.153221
21
100.198291
0
LINE
8
Layer 1
10
138.153221
20
100.198291
11
138.582002
21
100.284776
0
LINE
8
Layer 1
10
138.582002
20
100.284776
11
139.010580
21
100.198291
0
LINE
8
Layer 1
10
139.010580
20
100.198291
11
139.360562
21
99.962439
0
LINE
8
Layer 1
10
139.360562
20
99.962439
11
139.596528
21
99.612625
0
LINE
8
Layer 1
10
139.596528
20
99.612625
11
139.683055
21
99.184256
0
LINE
8
Layer 1
10
139.683055
20
99.184256
11
139.683055
21
99.184256
0
LINE
8
Layer 1
10
172.482055
20
99.184256
11
172.395528
21
98.755681
0
LINE
8
Layer 1
10
172.395528
20
98.755681
11
172.159562
21
98.405763
0
LINE
8
Layer 1
10
172.159562
20
98.405763
11
171.809580
21
98.169872
0
LINE
8
Layer 1
10
171.809580
20
98.169872
11
171.381002
21
98.083382
0
LINE
8
Layer 1
10
171.381002
20
98.083382
11
170.952221
21
98.169872
0
LINE
8
Layer 1
10
170.952221
20
98.169872
11
170.602127
21
98.405763
0
LINE
8
Layer 1
10
170.602127
20
98.405763
11
170.366115
21
98.755681
0
LINE
8
Layer 1
10
170.366115
20
98.755681
11
170.279579
21
99.184256
0
LINE
8
Layer 1
10
170.279579
20
99.184256
11
170.366115
21
99.612625
0
LINE
8
Layer 1
10
170.366115
20
99.612625
11
170.602127
21
99.962439
0
LINE
8
Layer 1
10
170.602127
20
99.962439
11
170.952221
21
100.198291
0
LINE
8
Layer 1
10
170.952221
20
100.198291
11
171.381002
21
100.284776
0
LINE
8
Layer 1
10
171.381002
20
100.284776
11
171.809580
21
100.198291
0
LINE
8
Layer 1
10
171.809580
20
100.198291
11
172.159562
21
99.962439
0
LINE
8
Layer 1
10
172.159562
20
99.962439
11
172.395528
21
99.612625
0
LINE
8
Layer 1
10
172.395528
20
99.612625
11
172.482055
21
99.184256
0
LINE
8
Layer 1
10
172.482055
20
99.184256
11
172.482055
21
99.184256
0
LINE
8
Layer 1
10
188.669055
20
13.161256
11
188.582528
21
12.732681
0
LINE
8
Layer 1
10
188.582528
20
12.732681
11
188.346562
21
12.382763
0
LINE
8
Layer 1
10
188.346562
20
12.382763
11
187.996580
21
12.146872
0
LINE
8
Layer 1
10
187.996580
20
12.146872
11
187.568002
21
12.060382
0
LINE
8
Layer 1
10
187.568002
20
12.060382
11
187.139221
21
12.146872
0
LINE
8
Layer 1
10
187.139221
20
12.146872
11
186.789127
21
12.382763
0
LINE
8
Layer 1
10
186.789127
20
12.382763
11
186.553115
21
12.732681
0
LINE
8
Layer 1
10
186.553115
20
12.732681
11
186.466579
21
13.161256
0
LINE
8
Layer 1
10
186.466579
20
13.161256
11
186.553115
21
13.589625
0
LINE
8
Layer 1
10
186.553115
20
13.589625
11
186.789127
21
13.939439
0
LINE
8
Layer 1
10
186.789127
20
13.939439
11
187.139221
21
14.175291
0
LINE
8
Layer 1
10
187.139221
20
14.175291
11
187.568002
21
14.261776
0
LINE
8
Layer 1
10
187.568002
20
14.261776
11
187.996580
21
14.175291
0
LINE
8
Layer 1
10
187.996580
20
14.175291
11
188.346562
21
13.939439
0
LINE
8
Layer 1
10
188.346562
20
13.939439
11
188.582528
21
13.589625
0
LINE
8
Layer 1
10
188.582528
20
13.589625
11
188.669055
21
13.161256
0
LINE
8
Layer 1
10
188.669055
20
13.161256
11
188.669055
21
13.161256
0
LINE
8
Layer 1
10
216.256055
20
49.247256
11
216.169528
21
48.818681
0
LINE
8
Layer 1
10
216.169528
20
48.818681
11
215.933562
21
48.468763
0
LINE
8
Layer 1
10
215.933562
20
48.468763
11
215.583580
21
48.232872
0
LINE
8
Layer 1
10
215.583580
20
48.232872
11
215.155002
21
48.146382
0
LINE
8
Layer 1
10
215.155002
20
48.146382
11
214.726221
21
48.232872
0
LINE
8
Layer 1
10
214.726221
20
48.232872
11
214.376127
21
48.468763
0
LINE
8
Layer 1
10
214.376127
20
48.468763
11
214.140115
21
48.818681
0
LINE
8
Layer 1
10
214.140115
20
48.818681
11
214.053579
21
49.247256
0
LINE
8
Layer 1
10
214.053579
20
49.247256
11
214.140115
21
49.675625
0
LINE
8
Layer 1
10
214.140115
20
49.675625
11
214.376127
21
50.025439
0
LINE
8
Layer 1
10
214.376127
20
50.025439
11
214.726221
21
50.261291
0
LINE
8
Layer 1
10
214.726221
20
50.261291
11
215.155002
21
50.347776
0
LINE
8
Layer 1
10
215.155002
20
50.347776
11
215.583580
21
50.261291
0
LINE
8
Layer 1
10
215.583580
20
50.261291
11
215.933562
21
50.025439
0
LINE
8
Layer 1
10
215.933562
20
50.025439
11
216.169528
21
49.675625
0
LINE
8
Layer 1
10
216.169528
20
49.675625
11
216.256055
21
49.247256
0
LINE
8
Layer 1
10
216.256055
20
49.247256
11
216.256055
21
49.247256
0
LINE
8
Layer 1
10
267.700055
20
61.106256
11
267.613528
21
60.677681
0
LINE
8
Layer 1
10
267.613528
20
60.677681
11
267.377562
21
60.327763
0
LINE
8
Layer 1
10
267.377562
20
60.327763
11
267.027580
21
60.091872
0
LINE
8
Layer 1
10
267.027580
20
60.091872
11
266.599002
21
60.005382
0
LINE
8
Layer 1
10
266.599002
20
60.005382
11
266.170221
21
60.091872
0
LINE
8
Layer 1
10
266.170221
20
60.091872
11
265.820127
21
60.327763
0
LINE
8
Layer 1
10
265.820127
20
60.327763
11
265.584115
21
60.677681
0
LINE
8
Layer 1
10
265.584115
20
60.677681
11
265.497579
21
61.106256
0
LINE
8
Layer 1
10
265.497579
20
61.106256
11
265.584115
21
61.534625
0
LINE
8
Layer 1
10
265.584115
20
61.534625
11
265.820127
21
61.884439
0
LINE
8
Layer 1
10
265.820127
20
61.884439
11
266.170221
21
62.120291
0
LINE
8
Layer 1
10
266.170221
20
62.120291
11
266.599002
21
62.206776
0
LINE
8
Layer 1
10
266.599002
20
62.206776
11
267.027580
21
62.120291
0
LINE
8
Layer 1
10
267.027580
20
62.120291
11
267.377562
21
61.884439
0
LINE
8
Layer 1
10
267.377562
20
61.884439
11
267.613528
21
61.534625
0
LINE
8
Layer 1
10
267.613528
20
61.534625
11
267.700055
21
61.106256
0
LINE
8
Layer 1
10
267.700055
20
61.106256
11
267.700055
21
61.106256
0
LINE
8
Layer 1
10
261.344055
20
113.245256
11
261.257528
21
112.816681
0
LINE
8
Layer 1
10
261.257528
20
112.816681
11
261.021562
21
112.466763
0
LINE
8
Layer 1
10
261.021562
20
112.466763
11
260.671580
21
112.230872
0
LINE
8
Layer 1
10
260.671580
20
112.230872
11
260.243002
21
112.144382
0
LINE
8
Layer 1
10
260.243002
20
112.144382
11
259.814221
21
112.230872
0
LINE
8
Layer 1
10
259.814221
20
112.230872
11
259.464127
21
112.466763
0
LINE
8
Layer 1
10
259.464127
20
112.466763
11
259.228115
21
112.816681
0
LINE
8
Layer 1
10
259.228115
20
112.816681
11
259.141579
21
113.245256
0
LINE
8
Layer 1
10
259.141579
20
113.245256
11
259.228115
21
113.673625
0
LINE
8
Layer 1
10
259.228115
20
113.673625
11
259.464127
21
114.023439
0
LINE
8
Layer 1
10
259.464127
20
114.023439
11
259.814221
21
114.259291
0
LINE
8
Layer 1
10
259.814221
20
114.259291
11
260.243002
21
114.345776
0
LINE
8
Layer 1
10
260.243002
20
114.345776
11
260.671580
21
114.259291
0
LINE
8
Layer 1
10
260.671580
20
114.259291
11
261.021562
21
114.023439
0
LINE
8
Layer 1
10
261.021562
20
114.023439
11
261.257528
21
113.673625
0
LINE
8
Layer 1
10
261.257528
20
113.673625
11
261.344055
21
113.245256
0
LINE
8
Layer 1
10
261.344055
20
113.245256
11
261.344055
21
113.245256
 0 
ENDSEC
 0 
EOF