999
"DXF R12 Output" (www.mydxf.blogspot.com)
 0 
SECTION
 2 
HEADER
 9 
$ACADVER
 1 
AC1009
 9 
$EXTMIN
 10 
 0 
 20 
 0 
 9 
$EXTMAX
 10 
 8.5 
 20 
 11 
 0 
ENDSEC
 0 
SECTION
 2 
ENTITIES
0
LINE
8
Layer 1
10
127.526115
20
66.355490
11
127.135290
21
66.277012
0
LINE
8
Layer 1
10
127.135290
20
66.277012
11
126.817067
21
66.062714
0
LINE
8
Layer 1
10
126.817067
20
66.062714
11
126.602996
21
65.744303
0
LINE
8
Layer 1
10
126.602996
20
65.744303
11
126.524628
21
65.353484
0
LINE
8
Layer 1
10
126.524628
20
65.353484
11
126.524628
21
49.315692
0
LINE
8
Layer 1
10
126.524628
20
49.315692
11
126.602996
21
48.924955
0
LINE
8
Layer 1
10
126.602996
20
48.924955
11
126.817067
21
48.606722
0
LINE
8
Layer 1
10
126.817067
20
48.606722
11
127.135290
21
48.392602
0
LINE
8
Layer 1
10
127.135290
20
48.392602
11
127.526115
21
48.314205
0
LINE
8
Layer 1
10
127.526115
20
48.314205
11
131.496414
21
48.314205
0
LINE
8
Layer 1
10
131.496414
20
48.314205
11
131.496414
21
45.849235
0
LINE
8
Layer 1
10
131.496414
20
45.849235
11
131.700099
21
45.355807
0
LINE
8
Layer 1
10
131.700099
20
45.355807
11
132.193526
21
45.152121
0
LINE
8
Layer 1
10
132.193526
20
45.152121
11
138.870115
21
45.152121
0
LINE
8
Layer 1
10
138.870115
20
45.152121
11
139.363803
21
45.355807
0
LINE
8
Layer 1
10
139.363803
20
45.355807
11
139.567745
21
45.849235
0
LINE
8
Layer 1
10
139.567745
20
45.849235
11
139.567745
21
48.314205
0
LINE
8
Layer 1
10
139.567745
20
48.314205
11
143.539077
21
48.314205
0
LINE
8
Layer 1
10
143.539077
20
48.314205
11
143.929145
21
48.392602
0
LINE
8
Layer 1
10
143.929145
20
48.392602
11
144.247080
21
48.606722
0
LINE
8
Layer 1
10
144.247080
20
48.606722
11
144.461127
21
48.924955
0
LINE
8
Layer 1
10
144.461127
20
48.924955
11
144.539532
21
49.315692
0
LINE
8
Layer 1
10
144.539532
20
49.315692
11
144.539532
21
65.353484
0
LINE
8
Layer 1
10
144.539532
20
65.353484
11
144.461127
21
65.744303
0
LINE
8
Layer 1
10
144.461127
20
65.744303
11
144.247080
21
66.062714
0
LINE
8
Layer 1
10
144.247080
20
66.062714
11
143.929145
21
66.277012
0
LINE
8
Layer 1
10
143.929145
20
66.277012
11
143.539077
21
66.355490
0
LINE
8
Layer 1
10
143.539077
20
66.355490
11
127.526115
21
66.355490
0
LINE
8
Layer 1
10
166.192694
20
66.376398
11
165.801871
21
66.297969
0
LINE
8
Layer 1
10
165.801871
20
66.297969
11
165.483647
21
66.083754
0
LINE
8
Layer 1
10
165.483647
20
66.083754
11
165.269575
21
65.765360
0
LINE
8
Layer 1
10
165.269575
20
65.765360
11
165.191207
21
65.374392
0
LINE
8
Layer 1
10
165.191207
20
65.374392
11
165.191207
21
49.337118
0
LINE
8
Layer 1
10
165.191207
20
49.337118
11
165.269575
21
48.945312
0
LINE
8
Layer 1
10
165.269575
20
48.945312
11
165.483647
21
48.626450
0
LINE
8
Layer 1
10
165.483647
20
48.626450
11
165.801871
21
48.412033
0
LINE
8
Layer 1
10
165.801871
20
48.412033
11
166.192694
21
48.333560
0
LINE
8
Layer 1
10
166.192694
20
48.333560
11
170.162993
21
48.333560
0
LINE
8
Layer 1
10
170.162993
20
48.333560
11
170.162993
21
45.848955
0
LINE
8
Layer 1
10
170.162993
20
45.848955
11
170.366678
21
45.355527
0
LINE
8
Layer 1
10
170.366678
20
45.355527
11
170.860105
21
45.151841
0
LINE
8
Layer 1
10
170.860105
20
45.151841
11
177.536694
21
45.151841
0
LINE
8
Layer 1
10
177.536694
20
45.151841
11
178.030384
21
45.355527
0
LINE
8
Layer 1
10
178.030384
20
45.355527
11
178.234328
21
45.848955
0
LINE
8
Layer 1
10
178.234328
20
45.848955
11
178.234328
21
48.333560
0
LINE
8
Layer 1
10
178.234328
20
48.333560
11
182.205656
21
48.333560
0
LINE
8
Layer 1
10
182.205656
20
48.333560
11
182.595725
21
48.412033
0
LINE
8
Layer 1
10
182.595725
20
48.412033
11
182.913659
21
48.626450
0
LINE
8
Layer 1
10
182.913659
20
48.626450
11
183.127706
21
48.945312
0
LINE
8
Layer 1
10
183.127706
20
48.945312
11
183.206111
21
49.337118
0
LINE
8
Layer 1
10
183.206111
20
49.337118
11
183.206111
21
65.374392
0
LINE
8
Layer 1
10
183.206111
20
65.374392
11
183.127706
21
65.765360
0
LINE
8
Layer 1
10
183.127706
20
65.765360
11
182.913659
21
66.083754
0
LINE
8
Layer 1
10
182.913659
20
66.083754
11
182.595725
21
66.297969
0
LINE
8
Layer 1
10
182.595725
20
66.297969
11
182.205656
21
66.376398
0
LINE
8
Layer 1
10
182.205656
20
66.376398
11
166.192694
21
66.376398
0
LINE
8
Layer 1
10
173.543545
20
99.006710
11
173.372984
21
98.169622
0
LINE
8
Layer 1
10
173.372984
20
98.169622
11
172.908770
21
97.483365
0
LINE
8
Layer 1
10
172.908770
20
97.483365
11
172.222108
21
97.019288
0
LINE
8
Layer 1
10
172.222108
20
97.019288
11
171.384201
21
96.848740
0
LINE
8
Layer 1
10
171.384201
20
96.848740
11
170.522209
21
97.019288
0
LINE
8
Layer 1
10
170.522209
20
97.019288
11
169.822802
21
97.483365
0
LINE
8
Layer 1
10
169.822802
20
97.483365
11
169.353582
21
98.169622
0
LINE
8
Layer 1
10
169.353582
20
98.169622
11
169.182153
21
99.006710
0
LINE
8
Layer 1
10
169.182153
20
99.006710
11
169.353582
21
99.868850
0
LINE
8
Layer 1
10
169.353582
20
99.868850
11
169.822802
21
100.568249
0
LINE
8
Layer 1
10
169.822802
20
100.568249
11
170.522209
21
101.037395
0
LINE
8
Layer 1
10
170.522209
20
101.037395
11
171.384201
21
101.208780
0
LINE
8
Layer 1
10
171.384201
20
101.208780
11
172.222108
21
101.037395
0
LINE
8
Layer 1
10
172.222108
20
101.037395
11
172.908770
21
100.568249
0
LINE
8
Layer 1
10
172.908770
20
100.568249
11
173.372984
21
99.868850
0
LINE
8
Layer 1
10
173.372984
20
99.868850
11
173.543545
21
99.006710
0
LINE
8
Layer 1
10
173.543545
20
99.006710
11
173.543545
21
99.006710
0
LINE
8
Layer 1
10
189.697072
20
13.071740
11
189.526362
21
12.234429
0
LINE
8
Layer 1
10
189.526362
20
12.234429
11
189.061900
21
11.547691
0
LINE
8
Layer 1
10
189.061900
20
11.547691
11
188.375188
21
11.083135
0
LINE
8
Layer 1
10
188.375188
20
11.083135
11
187.537728
21
10.912370
0
LINE
8
Layer 1
10
187.537728
20
10.912370
11
186.675736
21
11.083135
0
LINE
8
Layer 1
10
186.675736
20
11.083135
11
185.976329
21
11.547691
0
LINE
8
Layer 1
10
185.976329
20
11.547691
11
185.507109
21
12.234429
0
LINE
8
Layer 1
10
185.507109
20
12.234429
11
185.335680
21
13.071740
0
LINE
8
Layer 1
10
185.335680
20
13.071740
11
185.507109
21
13.933880
0
LINE
8
Layer 1
10
185.507109
20
13.933880
11
185.976329
21
14.633279
0
LINE
8
Layer 1
10
185.976329
20
14.633279
11
186.675736
21
15.102425
0
LINE
8
Layer 1
10
186.675736
20
15.102425
11
187.537728
21
15.273810
0
LINE
8
Layer 1
10
187.537728
20
15.273810
11
188.375188
21
15.102425
0
LINE
8
Layer 1
10
188.375188
20
15.102425
11
189.061900
21
14.633279
0
LINE
8
Layer 1
10
189.061900
20
14.633279
11
189.526362
21
13.933880
0
LINE
8
Layer 1
10
189.526362
20
13.933880
11
189.697072
21
13.071740
0
LINE
8
Layer 1
10
189.697072
20
13.071740
11
189.697072
21
13.071740
0
LINE
8
Layer 1
10
268.680680
20
60.996960
11
268.509917
21
60.159872
0
LINE
8
Layer 1
10
268.509917
20
60.159872
11
268.045365
21
59.473615
0
LINE
8
Layer 1
10
268.045365
20
59.473615
11
267.358633
21
59.009538
0
LINE
8
Layer 1
10
267.358633
20
59.009538
11
266.521330
21
58.838990
0
LINE
8
Layer 1
10
266.521330
20
58.838990
11
265.659336
21
59.009538
0
LINE
8
Layer 1
10
265.659336
20
59.009538
11
264.959929
21
59.473615
0
LINE
8
Layer 1
10
264.959929
20
59.473615
11
264.490709
21
60.159872
0
LINE
8
Layer 1
10
264.490709
20
60.159872
11
264.319280
21
60.996960
0
LINE
8
Layer 1
10
264.319280
20
60.996960
11
264.490709
21
61.859142
0
LINE
8
Layer 1
10
264.490709
20
61.859142
11
264.959929
21
62.558662
0
LINE
8
Layer 1
10
264.959929
20
62.558662
11
265.659336
21
63.027937
0
LINE
8
Layer 1
10
265.659336
20
63.027937
11
266.521330
21
63.199380
0
LINE
8
Layer 1
10
266.521330
20
63.199380
11
267.358633
21
63.027937
0
LINE
8
Layer 1
10
267.358633
20
63.027937
11
268.045365
21
62.558662
0
LINE
8
Layer 1
10
268.045365
20
62.558662
11
268.509917
21
61.859142
0
LINE
8
Layer 1
10
268.509917
20
61.859142
11
268.680680
21
60.996960
0
LINE
8
Layer 1
10
268.680680
20
60.996960
11
268.680680
21
60.996960
0
LINE
8
Layer 1
10
262.327870
20
113.114580
11
262.157160
21
112.277494
0
LINE
8
Layer 1
10
262.157160
20
112.277494
11
261.692699
21
111.591240
0
LINE
8
Layer 1
10
261.692699
20
111.591240
11
261.005988
21
111.127166
0
LINE
8
Layer 1
10
261.005988
20
111.127166
11
260.168530
21
110.956620
0
LINE
8
Layer 1
10
260.168530
20
110.956620
11
259.306536
21
111.127166
0
LINE
8
Layer 1
10
259.306536
20
111.127166
11
258.607129
21
111.591240
0
LINE
8
Layer 1
10
258.607129
20
111.591240
11
258.137909
21
112.277494
0
LINE
8
Layer 1
10
258.137909
20
112.277494
11
257.966480
21
113.114580
0
LINE
8
Layer 1
10
257.966480
20
113.114580
11
258.137909
21
113.976713
0
LINE
8
Layer 1
10
258.137909
20
113.976713
11
258.607129
21
114.676116
0
LINE
8
Layer 1
10
258.607129
20
114.676116
11
259.306536
21
115.145271
0
LINE
8
Layer 1
10
259.306536
20
115.145271
11
260.168530
21
115.316660
0
LINE
8
Layer 1
10
260.168530
20
115.316660
11
261.005988
21
115.145271
0
LINE
8
Layer 1
10
261.005988
20
115.145271
11
261.692699
21
114.676116
0
LINE
8
Layer 1
10
261.692699
20
114.676116
11
262.157160
21
113.976713
0
LINE
8
Layer 1
10
262.157160
20
113.976713
11
262.327870
21
113.114580
0
LINE
8
Layer 1
10
262.327870
20
113.114580
11
262.327870
21
113.114580
0
LINE
8
Layer 1
10
217.267370
20
49.142570
11
217.096612
21
48.305111
0
LINE
8
Layer 1
10
217.096612
20
48.305111
11
216.632071
21
47.618379
0
LINE
8
Layer 1
10
216.632071
20
47.618379
11
215.945345
21
47.153892
0
LINE
8
Layer 1
10
215.945345
20
47.153892
11
215.108030
21
46.983170
0
LINE
8
Layer 1
10
215.108030
20
46.983170
11
214.245290
21
47.153892
0
LINE
8
Layer 1
10
214.245290
20
47.153892
11
213.545965
21
47.618379
0
LINE
8
Layer 1
10
213.545965
20
47.618379
11
213.077160
21
48.305111
0
LINE
8
Layer 1
10
213.077160
20
48.305111
11
212.905980
21
49.142570
0
LINE
8
Layer 1
10
212.905980
20
49.142570
11
213.077160
21
50.004554
0
LINE
8
Layer 1
10
213.077160
20
50.004554
11
213.545965
21
50.703970
0
LINE
8
Layer 1
10
213.545965
20
50.703970
11
214.245290
21
51.173203
0
LINE
8
Layer 1
10
214.245290
20
51.173203
11
215.108030
21
51.344640
0
LINE
8
Layer 1
10
215.108030
20
51.344640
11
215.945345
21
51.173203
0
LINE
8
Layer 1
10
215.945345
20
51.173203
11
216.632071
21
50.703970
0
LINE
8
Layer 1
10
216.632071
20
50.703970
11
217.096612
21
50.004554
0
LINE
8
Layer 1
10
217.096612
20
50.004554
11
217.267370
21
49.142570
0
LINE
8
Layer 1
10
217.267370
20
49.142570
11
217.267370
21
49.142570
0
LINE
8
Layer 1
10
124.562847
20
13.029060
11
124.392085
21
12.191825
0
LINE
8
Layer 1
10
124.392085
20
12.191825
11
123.927533
21
11.505584
0
LINE
8
Layer 1
10
123.927533
20
11.505584
11
123.240796
21
11.041589
0
LINE
8
Layer 1
10
123.240796
20
11.041589
11
122.403477
21
10.871090
0
LINE
8
Layer 1
10
122.403477
20
10.871090
11
121.540476
21
11.041589
0
LINE
8
Layer 1
10
121.540476
20
11.041589
11
120.840550
21
11.505584
0
LINE
8
Layer 1
10
120.840550
20
11.505584
11
120.371140
21
12.191825
0
LINE
8
Layer 1
10
120.371140
20
12.191825
11
120.199683
21
13.029060
0
LINE
8
Layer 1
10
120.199683
20
13.029060
11
120.371140
21
13.891044
0
LINE
8
Layer 1
10
120.371140
20
13.891044
11
120.840550
21
14.590460
0
LINE
8
Layer 1
10
120.840550
20
14.590460
11
121.540476
21
15.059693
0
LINE
8
Layer 1
10
121.540476
20
15.059693
11
122.403477
21
15.231130
0
LINE
8
Layer 1
10
122.403477
20
15.231130
11
123.240796
21
15.059693
0
LINE
8
Layer 1
10
123.240796
20
15.059693
11
123.927533
21
14.590460
0
LINE
8
Layer 1
10
123.927533
20
14.590460
11
124.392085
21
13.891044
0
LINE
8
Layer 1
10
124.392085
20
13.891044
11
124.562847
21
13.029060
0
LINE
8
Layer 1
10
124.562847
20
13.029060
11
124.562847
21
13.029060
0
LINE
8
Layer 1
10
46.044728
20
60.818660
11
45.874018
21
59.981345
0
LINE
8
Layer 1
10
45.874018
20
59.981345
11
45.409556
21
59.294596
0
LINE
8
Layer 1
10
45.409556
20
59.294596
11
44.722844
21
58.830030
0
LINE
8
Layer 1
10
44.722844
20
58.830030
11
43.885384
21
58.659260
0
LINE
8
Layer 1
10
43.885384
20
58.659260
11
43.022801
21
58.830030
0
LINE
8
Layer 1
10
43.022801
20
58.830030
11
42.323459
21
59.294596
0
LINE
8
Layer 1
10
42.323459
20
59.294596
11
41.854568
21
59.981345
0
LINE
8
Layer 1
10
41.854568
20
59.981345
11
41.683336
21
60.818660
0
LINE
8
Layer 1
10
41.683336
20
60.818660
11
41.854568
21
61.680639
0
LINE
8
Layer 1
10
41.854568
20
61.680639
11
42.323459
21
62.380045
0
LINE
8
Layer 1
10
42.323459
20
62.380045
11
43.022801
21
62.849268
0
LINE
8
Layer 1
10
43.022801
20
62.849268
11
43.885384
21
63.020700
0
LINE
8
Layer 1
10
43.885384
20
63.020700
11
44.722844
21
62.849268
0
LINE
8
Layer 1
10
44.722844
20
62.849268
11
45.409556
21
62.380045
0
LINE
8
Layer 1
10
45.409556
20
62.380045
11
45.874018
21
61.680639
0
LINE
8
Layer 1
10
45.874018
20
61.680639
11
46.044728
21
60.818660
0
LINE
8
Layer 1
10
46.044728
20
60.818660
11
46.044728
21
60.818660
0
LINE
8
Layer 1
10
51.974569
20
112.988460
11
51.803789
21
112.151006
0
LINE
8
Layer 1
10
51.803789
20
112.151006
11
51.339093
21
111.464284
0
LINE
8
Layer 1
10
51.339093
20
111.464284
11
50.651949
21
110.999807
0
LINE
8
Layer 1
10
50.651949
20
110.999807
11
49.813823
21
110.829090
0
LINE
8
Layer 1
10
49.813823
20
110.829090
11
48.951675
21
110.999807
0
LINE
8
Layer 1
10
48.951675
20
110.999807
11
48.252285
21
111.464284
0
LINE
8
Layer 1
10
48.252285
20
111.464284
11
47.783152
21
112.151006
0
LINE
8
Layer 1
10
47.783152
20
112.151006
11
47.611775
21
112.988460
0
LINE
8
Layer 1
10
47.611775
20
112.988460
11
47.783152
21
113.850444
0
LINE
8
Layer 1
10
47.783152
20
113.850444
11
48.252285
21
114.549860
0
LINE
8
Layer 1
10
48.252285
20
114.549860
11
48.951675
21
115.019093
0
LINE
8
Layer 1
10
48.951675
20
115.019093
11
49.813823
21
115.190530
0
LINE
8
Layer 1
10
49.813823
20
115.190530
11
50.651949
21
115.019093
0
LINE
8
Layer 1
10
50.651949
20
115.019093
11
51.339093
21
114.549860
0
LINE
8
Layer 1
10
51.339093
20
114.549860
11
51.803789
21
113.850444
0
LINE
8
Layer 1
10
51.803789
20
113.850444
11
51.974569
21
112.988460
0
LINE
8
Layer 1
10
51.974569
20
112.988460
11
51.974569
21
112.988460
0
LINE
8
Layer 1
10
96.992206
20
49.185960
11
96.821492
21
48.348501
0
LINE
8
Layer 1
10
96.821492
20
48.348501
11
96.357021
21
47.661769
0
LINE
8
Layer 1
10
96.357021
20
47.661769
11
95.670299
21
47.197282
0
LINE
8
Layer 1
10
95.670299
20
47.197282
11
94.832835
21
47.026560
0
LINE
8
Layer 1
10
94.832835
20
47.026560
11
93.970256
21
47.197282
0
LINE
8
Layer 1
10
93.970256
20
47.197282
11
93.270924
21
47.661769
0
LINE
8
Layer 1
10
93.270924
20
47.661769
11
92.802042
21
48.348501
0
LINE
8
Layer 1
10
92.802042
20
48.348501
11
92.630814
21
49.185960
0
LINE
8
Layer 1
10
92.630814
20
49.185960
11
92.802042
21
50.047725
0
LINE
8
Layer 1
10
92.802042
20
50.047725
11
93.270924
21
50.746660
0
LINE
8
Layer 1
10
93.270924
20
50.746660
11
93.970256
21
51.215412
0
LINE
8
Layer 1
10
93.970256
20
51.215412
11
94.832835
21
51.386630
0
LINE
8
Layer 1
10
94.832835
20
51.386630
11
95.670299
21
51.215412
0
LINE
8
Layer 1
10
95.670299
20
51.215412
11
96.357021
21
50.746660
0
LINE
8
Layer 1
10
96.357021
20
50.746660
11
96.821492
21
50.047725
0
LINE
8
Layer 1
10
96.821492
20
50.047725
11
96.992206
21
49.185960
0
LINE
8
Layer 1
10
96.992206
20
49.185960
11
96.992206
21
49.185960
0
LINE
8
Layer 1
10
140.740874
20
99.058520
11
140.570090
21
98.221415
0
LINE
8
Layer 1
10
140.570090
20
98.221415
11
140.105385
21
97.535149
0
LINE
8
Layer 1
10
140.105385
20
97.535149
11
139.418231
21
97.071068
0
LINE
8
Layer 1
10
139.418231
20
97.071068
11
138.580101
21
96.900520
0
LINE
8
Layer 1
10
138.580101
20
96.900520
11
137.718114
21
97.071068
0
LINE
8
Layer 1
10
137.718114
20
97.071068
11
137.018716
21
97.535149
0
LINE
8
Layer 1
10
137.018716
20
97.535149
11
136.549505
21
98.221415
0
LINE
8
Layer 1
10
136.549505
20
98.221415
11
136.378080
21
99.058520
0
LINE
8
Layer 1
10
136.378080
20
99.058520
11
136.549505
21
99.920643
0
LINE
8
Layer 1
10
136.549505
20
99.920643
11
137.018716
21
100.620032
0
LINE
8
Layer 1
10
137.018716
20
100.620032
11
137.718114
21
101.089176
0
LINE
8
Layer 1
10
137.718114
20
101.089176
11
138.580101
21
101.260560
0
LINE
8
Layer 1
10
138.580101
20
101.260560
11
139.418231
21
101.089176
0
LINE
8
Layer 1
10
139.418231
20
101.089176
11
140.105385
21
100.620032
0
LINE
8
Layer 1
10
140.105385
20
100.620032
11
140.570090
21
99.920643
0
LINE
8
Layer 1
10
140.570090
20
99.920643
11
140.740874
21
99.058520
0
LINE
8
Layer 1
10
140.740874
20
99.058520
11
140.740874
21
99.058520
0
LINE
8
Layer 1
10
16.957759
20
114.150510
11
16.481007
21
111.445460
0
LINE
8
Layer 1
10
16.481007
20
111.445460
11
14.633051
21
111.770500
0
LINE
8
Layer 1
10
14.633051
20
111.770500
11
14.003290
21
108.200080
0
LINE
8
Layer 1
10
14.003290
20
108.200080
11
15.849790
21
107.874930
0
LINE
8
Layer 1
10
15.849790
20
107.874930
11
14.525365
21
100.361910
0
LINE
8
Layer 1
10
14.525365
20
100.361910
11
26.109353
21
98.321070
0
LINE
8
Layer 1
10
26.109353
20
98.321070
11
25.536054
21
95.068680
0
LINE
8
Layer 1
10
25.536054
20
95.068680
11
34.327919
21
93.518540
0
LINE
8
Layer 1
10
34.327919
20
93.518540
11
34.906537
21
96.796910
0
LINE
8
Layer 1
10
34.906537
20
96.796910
11
47.040328
21
94.658040
0
LINE
8
Layer 1
10
47.040328
20
94.658040
11
48.842882
21
104.873690
0
LINE
8
Layer 1
10
48.842882
20
104.873690
11
49.342971
21
104.786590
0
LINE
8
Layer 1
10
49.342971
20
104.786590
11
49.972785
21
108.357380
0
LINE
8
Layer 1
10
49.972785
20
108.357380
11
49.471082
21
108.445480
0
LINE
8
Layer 1
10
49.471082
20
108.445480
11
49.473682
21
108.445480
0
LINE
8
Layer 1
10
49.473682
20
108.445480
11
35.681058
21
110.876370
0
LINE
8
Layer 1
10
35.681058
20
110.876370
11
35.204306
21
108.171350
0
LINE
8
Layer 1
10
35.204306
20
108.171350
11
33.356403
21
108.496710
0
LINE
8
Layer 1
10
33.356403
20
108.496710
11
32.726562
21
104.925940
0
LINE
8
Layer 1
10
32.726562
20
104.925940
11
34.574545
21
104.600930
0
LINE
8
Layer 1
10
34.574545
20
104.600930
11
34.323481
21
103.181540
0
LINE
8
Layer 1
10
34.323481
20
103.181540
11
29.398686
21
104.049640
0
LINE
8
Layer 1
10
29.398686
20
104.049640
11
30.122030
21
108.146480
0
LINE
8
Layer 1
10
30.122030
20
108.146480
11
30.622252
21
108.058280
0
LINE
8
Layer 1
10
30.622252
20
108.058280
11
31.252013
21
111.628700
0
LINE
8
Layer 1
10
31.252013
20
111.628700
11
30.751792
21
111.716900
0
LINE
8
Layer 1
10
30.751792
20
111.716900
11
30.751686
21
111.719900
0
LINE
8
Layer 1
10
30.751686
20
111.719900
11
16.957759
21
114.150510
0
LINE
8
Layer 1
10
13.650309
20
95.368560
11
13.173715
21
92.663590
0
LINE
8
Layer 1
10
13.173715
20
92.663590
11
11.325495
21
92.988740
0
LINE
8
Layer 1
10
11.325495
20
92.988740
11
10.695786
21
89.418320
0
LINE
8
Layer 1
10
10.695786
20
89.418320
11
12.543636
21
89.093170
0
LINE
8
Layer 1
10
12.543636
20
89.093170
11
11.218259
21
81.579900
0
LINE
8
Layer 1
10
11.218259
20
81.579900
11
22.818306
21
79.536180
0
LINE
8
Layer 1
10
22.818306
20
79.536180
11
21.952934
21
74.630540
0
LINE
8
Layer 1
10
21.952934
20
74.630540
11
10.323623
21
76.679550
0
LINE
8
Layer 1
10
10.323623
20
76.679550
11
9.847003
21
73.974590
0
LINE
8
Layer 1
10
9.847003
20
73.974590
11
7.999153
21
74.299730
0
LINE
8
Layer 1
10
7.999153
20
74.299730
11
7.369101
21
70.729310
0
LINE
8
Layer 1
10
7.369101
20
70.729310
11
9.217295
21
70.404170
0
LINE
8
Layer 1
10
9.217295
20
70.404170
11
7.891573
21
62.890900
0
LINE
8
Layer 1
10
7.891573
20
62.890900
11
21.684461
21
60.460310
0
LINE
8
Layer 1
10
21.684461
20
60.460310
11
23.486803
21
70.676770
0
LINE
8
Layer 1
10
23.486803
20
70.676770
11
23.987050
21
70.588570
0
LINE
8
Layer 1
10
23.987050
20
70.588570
11
24.613928
21
74.146660
0
LINE
8
Layer 1
10
24.613928
20
74.146660
11
29.016965
21
73.370770
0
LINE
8
Layer 1
10
29.016965
20
73.370770
11
28.544234
21
70.689430
0
LINE
8
Layer 1
10
28.544234
20
70.689430
11
26.697442
21
71.014600
0
LINE
8
Layer 1
10
26.697442
20
71.014600
11
26.066331
21
67.444180
0
LINE
8
Layer 1
10
26.066331
20
67.444180
11
27.914525
21
67.118660
0
LINE
8
Layer 1
10
27.914525
20
67.118660
11
26.588778
21
59.605740
0
LINE
8
Layer 1
10
26.588778
20
59.605740
11
40.381692
21
57.174800
0
LINE
8
Layer 1
10
40.381692
20
57.174800
11
42.184034
21
67.391630
0
LINE
8
Layer 1
10
42.184034
20
67.391630
11
42.684281
21
67.303430
0
LINE
8
Layer 1
10
42.684281
20
67.303430
11
43.313990
21
70.873850
0
LINE
8
Layer 1
10
43.313990
20
70.873850
11
42.813742
21
70.962050
0
LINE
8
Layer 1
10
42.813742
20
70.962050
11
42.813742
21
70.962050
0
LINE
8
Layer 1
10
42.813742
20
70.962050
11
30.746281
21
73.088300
0
LINE
8
Layer 1
10
30.746281
20
73.088300
11
31.615861
21
78.010850
0
LINE
8
Layer 1
10
31.615861
20
78.010850
11
43.733090
21
75.874730
0
LINE
8
Layer 1
10
43.733090
20
75.874730
11
45.535431
21
86.091540
0
LINE
8
Layer 1
10
45.535431
20
86.091540
11
46.034250
21
86.003340
0
LINE
8
Layer 1
10
46.034250
20
86.003340
11
46.665361
21
89.573760
0
LINE
8
Layer 1
10
46.665361
20
89.573760
11
46.165140
21
89.661960
0
LINE
8
Layer 1
10
46.165140
20
89.661960
11
46.165140
21
89.664960
0
LINE
8
Layer 1
10
46.165140
20
89.664960
11
32.372225
21
92.095900
0
LINE
8
Layer 1
10
32.372225
20
92.095900
11
31.895631
21
89.390930
0
LINE
8
Layer 1
10
31.895631
20
89.390930
11
30.047781
21
89.716080
0
LINE
8
Layer 1
10
30.047781
20
89.716080
11
29.417703
21
86.145660
0
LINE
8
Layer 1
10
29.417703
20
86.145660
11
31.264494
21
85.820140
0
LINE
8
Layer 1
10
31.264494
20
85.820140
11
30.720167
21
82.734990
0
LINE
8
Layer 1
10
30.720167
20
82.734990
11
25.796456
21
83.601500
0
LINE
8
Layer 1
10
25.796456
20
83.601500
11
26.813515
21
89.365900
0
LINE
8
Layer 1
10
26.813515
20
89.365900
11
27.312334
21
89.277700
0
LINE
8
Layer 1
10
27.312334
20
89.277700
11
27.943444
21
92.848120
0
LINE
8
Layer 1
10
27.943444
20
92.848120
11
27.441794
21
92.936620
0
LINE
8
Layer 1
10
27.441794
20
92.936620
11
27.441794
21
92.936620
0
LINE
8
Layer 1
10
27.441794
20
92.936620
11
13.650309
21
95.368560
0
LINE
8
Layer 1
10
75.046024
20
114.613580
11
74.569430
21
111.908610
0
LINE
8
Layer 1
10
74.569430
20
111.908610
11
72.721236
21
112.233760
0
LINE
8
Layer 1
10
72.721236
20
112.233760
11
72.091528
21
108.661940
0
LINE
8
Layer 1
10
72.091528
20
108.661940
11
73.939722
21
108.336770
0
LINE
8
Layer 1
10
73.939722
20
108.336770
11
73.271199
21
104.548410
0
LINE
8
Layer 1
10
73.271199
20
104.548410
11
68.307616
21
105.423730
0
LINE
8
Layer 1
10
68.307616
20
105.423730
11
68.832549
21
108.405560
0
LINE
8
Layer 1
10
68.832549
20
108.405560
11
69.332797
21
108.317360
0
LINE
8
Layer 1
10
69.332797
20
108.317360
11
69.962505
21
111.888150
0
LINE
8
Layer 1
10
69.962505
20
111.888150
11
69.462257
21
111.976350
0
LINE
8
Layer 1
10
69.462257
20
111.976350
11
69.464857
21
111.976350
0
LINE
8
Layer 1
10
69.464857
20
111.976350
11
55.670911
21
114.407290
0
LINE
8
Layer 1
10
55.670911
20
114.407290
11
55.193947
21
111.702320
0
LINE
8
Layer 1
10
55.193947
20
111.702320
11
53.347499
21
112.027490
0
LINE
8
Layer 1
10
53.347499
20
112.027490
11
52.717447
21
108.457070
0
LINE
8
Layer 1
10
52.717447
20
108.457070
11
54.564238
21
108.131900
0
LINE
8
Layer 1
10
54.564238
20
108.131900
11
53.238491
21
100.620060
0
LINE
8
Layer 1
10
53.238491
20
100.620060
11
65.056555
21
98.536500
0
LINE
8
Layer 1
10
65.056555
20
98.536500
11
64.680503
21
96.399300
0
LINE
8
Layer 1
10
64.680503
20
96.399300
11
71.598113
21
95.179780
0
LINE
8
Layer 1
10
71.598113
20
95.179780
11
71.234391
21
93.116670
0
LINE
8
Layer 1
10
71.234391
20
93.116670
11
69.386197
21
93.441840
0
LINE
8
Layer 1
10
69.386197
20
93.441840
11
68.756488
21
89.871390
0
LINE
8
Layer 1
10
68.756488
20
89.871390
11
70.603280
21
89.546250
0
LINE
8
Layer 1
10
70.603280
20
89.546250
11
69.278961
21
82.032980
0
LINE
8
Layer 1
10
69.278961
20
82.032980
11
83.071505
21
79.602380
0
LINE
8
Layer 1
10
83.071505
20
79.602380
11
84.874190
21
89.817790
0
LINE
8
Layer 1
10
84.874190
20
89.817790
11
85.373036
21
89.730690
0
LINE
8
Layer 1
10
85.373036
20
89.730690
11
86.004146
21
93.301450
0
LINE
8
Layer 1
10
86.004146
20
93.301450
11
85.503899
21
93.389650
0
LINE
8
Layer 1
10
85.503899
20
93.389650
11
85.503899
21
93.389650
0
LINE
8
Layer 1
10
85.503899
20
93.389650
11
73.585319
21
95.489780
0
LINE
8
Layer 1
10
73.585319
20
95.489780
11
74.468657
21
100.495930
0
LINE
8
Layer 1
10
74.468657
20
100.495930
11
86.407715
21
98.391910
0
LINE
8
Layer 1
10
86.407715
20
98.391910
11
88.210427
21
108.607320
0
LINE
8
Layer 1
10
88.210427
20
108.607320
11
88.710649
21
108.519120
0
LINE
8
Layer 1
10
88.710649
20
108.519120
11
89.340357
21
112.090940
0
LINE
8
Layer 1
10
89.340357
20
112.090940
11
88.840136
21
112.179140
0
LINE
8
Layer 1
10
88.840136
20
112.179140
11
88.840136
21
112.182140
0
LINE
8
Layer 1
10
88.840136
20
112.182140
11
75.046024
21
114.613580
0
LINE
8
Layer 1
10
52.370121
20
95.643490
11
51.893527
21
92.937090
0
LINE
8
Layer 1
10
51.893527
20
92.937090
11
50.047080
21
93.263660
0
LINE
8
Layer 1
10
50.047080
20
93.263660
11
49.415599
21
89.691840
0
LINE
8
Layer 1
10
49.415599
20
89.691840
11
51.263819
21
89.366670
0
LINE
8
Layer 1
10
51.263819
20
89.366670
11
49.938071
21
81.854830
0
LINE
8
Layer 1
10
49.938071
20
81.854830
11
63.730986
21
79.423870
0
LINE
8
Layer 1
10
63.730986
20
79.423870
11
65.533327
21
89.639300
0
LINE
8
Layer 1
10
65.533327
20
89.639300
11
66.033548
21
89.551100
0
LINE
8
Layer 1
10
66.033548
20
89.551100
11
66.663257
21
93.121520
0
LINE
8
Layer 1
10
66.663257
20
93.121520
11
66.163036
21
93.210020
0
LINE
8
Layer 1
10
66.163036
20
93.210020
11
66.163036
21
93.213020
0
LINE
8
Layer 1
10
66.163036
20
93.213020
11
52.370121
21
95.643490
0
LINE
8
Layer 1
10
68.422180
20
77.067780
11
67.945586
21
74.362810
0
LINE
8
Layer 1
10
67.945586
20
74.362810
11
66.098795
21
74.687980
0
LINE
8
Layer 1
10
66.098795
20
74.687980
11
65.467658
21
71.117560
0
LINE
8
Layer 1
10
65.467658
20
71.117560
11
67.315878
21
70.790990
0
LINE
8
Layer 1
10
67.315878
20
70.790990
11
66.337264
21
65.244210
0
LINE
8
Layer 1
10
66.337264
20
65.244210
11
61.373680
21
66.119530
0
LINE
8
Layer 1
10
61.373680
20
66.119530
11
62.208705
21
70.859750
0
LINE
8
Layer 1
10
62.208705
20
70.859750
11
62.708953
21
70.771550
0
LINE
8
Layer 1
10
62.708953
20
70.771550
11
63.338661
21
74.341970
0
LINE
8
Layer 1
10
63.338661
20
74.341970
11
62.838414
21
74.430170
0
LINE
8
Layer 1
10
62.838414
20
74.430170
11
62.838414
21
74.433170
0
LINE
8
Layer 1
10
62.838414
20
74.433170
11
49.045499
21
76.865540
0
LINE
8
Layer 1
10
49.045499
20
76.865540
11
48.567503
21
74.159140
0
LINE
8
Layer 1
10
48.567503
20
74.159140
11
46.721056
21
74.485720
0
LINE
8
Layer 1
10
46.721056
20
74.485720
11
46.091003
21
70.913890
0
LINE
8
Layer 1
10
46.091003
20
70.913890
11
47.937795
21
70.588720
0
LINE
8
Layer 1
10
47.937795
20
70.588720
11
46.612047
21
63.076880
0
LINE
8
Layer 1
10
46.612047
20
63.076880
11
58.412120
21
60.996120
0
LINE
8
Layer 1
10
58.412120
20
60.996120
11
57.725949
21
57.100180
0
LINE
8
Layer 1
10
57.725949
20
57.100180
11
66.517895
21
55.550200
0
LINE
8
Layer 1
10
66.517895
20
55.550200
11
67.824222
21
62.956970
0
LINE
8
Layer 1
10
67.824222
20
62.956970
11
79.781272
21
60.850120
0
LINE
8
Layer 1
10
79.781272
20
60.850120
11
81.583957
21
71.065530
0
LINE
8
Layer 1
10
81.583957
20
71.065530
11
82.084205
21
70.977330
0
LINE
8
Layer 1
10
82.084205
20
70.977330
11
82.713913
21
74.549150
0
LINE
8
Layer 1
10
82.713913
20
74.549150
11
82.213666
21
74.637350
0
LINE
8
Layer 1
10
82.213666
20
74.637350
11
82.213666
21
74.640350
0
LINE
8
Layer 1
10
82.213666
20
74.640350
11
68.422180
21
77.067780
0
LINE
8
Layer 1
10
93.237689
20
107.800900
11
92.760725
21
105.094510
0
LINE
8
Layer 1
10
92.760725
20
105.094510
11
90.914277
21
105.421080
0
LINE
8
Layer 1
10
90.914277
20
105.421080
11
90.284569
21
101.850660
0
LINE
8
Layer 1
10
90.284569
20
101.850660
11
92.131016
21
101.523740
0
LINE
8
Layer 1
10
92.131016
20
101.523740
11
90.805269
21
94.012220
0
LINE
8
Layer 1
10
90.805269
20
94.012220
11
104.598183
21
91.581280
0
LINE
8
Layer 1
10
104.598183
20
91.581280
11
106.400524
21
101.796690
0
LINE
8
Layer 1
10
106.400524
20
101.796690
11
106.900772
21
101.708490
0
LINE
8
Layer 1
10
106.900772
20
101.708490
11
107.530480
21
105.278910
0
LINE
8
Layer 1
10
107.530480
20
105.278910
11
107.030233
21
105.367110
0
LINE
8
Layer 1
10
107.030233
20
105.367110
11
107.030233
21
105.370110
0
LINE
8
Layer 1
10
107.030233
20
105.370110
11
93.237689
21
107.800900
0
LINE
8
Layer 1
10
89.936324
20
89.079700
11
89.459360
21
86.374730
0
LINE
8
Layer 1
10
89.459360
20
86.374730
11
87.612938
21
86.699910
0
LINE
8
Layer 1
10
87.612938
20
86.699910
11
86.981801
21
83.129120
0
LINE
8
Layer 1
10
86.981801
20
83.129120
11
88.829651
21
82.802540
0
LINE
8
Layer 1
10
88.829651
20
82.802540
11
87.503930
21
75.291050
0
LINE
8
Layer 1
10
87.503930
20
75.291050
11
101.296818
21
72.860110
0
LINE
8
Layer 1
10
101.296818
20
72.860110
11
103.099159
21
83.075510
0
LINE
8
Layer 1
10
103.099159
20
83.075510
11
103.599407
21
82.987310
0
LINE
8
Layer 1
10
103.599407
20
82.987310
11
104.229115
21
86.557730
0
LINE
8
Layer 1
10
104.229115
20
86.557730
11
103.728868
21
86.647330
0
LINE
8
Layer 1
10
103.728868
20
86.647330
11
103.728868
21
86.647330
0
LINE
8
Layer 1
10
103.728868
20
86.647330
11
89.936324
21
89.079700
0
LINE
8
Layer 1
10
86.621227
20
70.326060
11
86.142860
21
67.620750
0
LINE
8
Layer 1
10
86.142860
20
67.620750
11
84.296413
21
67.946270
0
LINE
8
Layer 1
10
84.296413
20
67.946270
11
83.666704
21
64.375480
0
LINE
8
Layer 1
10
83.666704
20
64.375480
11
85.513152
21
64.048900
0
LINE
8
Layer 1
10
85.513152
20
64.048900
11
84.188807
21
56.537410
0
LINE
8
Layer 1
10
84.188807
20
56.537410
11
97.981721
21
54.106470
0
LINE
8
Layer 1
10
97.981721
20
54.106470
11
99.782660
21
64.321870
0
LINE
8
Layer 1
10
99.782660
20
64.321870
11
100.282882
21
64.233670
0
LINE
8
Layer 1
10
100.282882
20
64.233670
11
100.912590
21
67.804090
0
LINE
8
Layer 1
10
100.912590
20
67.804090
11
100.412369
21
67.893690
0
LINE
8
Layer 1
10
100.412369
20
67.893690
11
100.412369
21
67.896690
0
LINE
8
Layer 1
10
100.412369
20
67.896690
11
86.621227
21
70.326060
0
LINE
8
Layer 1
10
111.371463
20
101.005900
11
110.893440
21
98.300590
0
LINE
8
Layer 1
10
110.893440
20
98.300590
11
109.046649
21
98.626110
0
LINE
8
Layer 1
10
109.046649
20
98.626110
11
108.416940
21
95.055320
0
LINE
8
Layer 1
10
108.416940
20
95.055320
11
110.263732
21
94.730170
0
LINE
8
Layer 1
10
110.263732
20
94.730170
11
108.939413
21
87.217250
0
LINE
8
Layer 1
10
108.939413
20
87.217250
11
122.731957
21
84.786310
0
LINE
8
Layer 1
10
122.731957
20
84.786310
11
124.533240
21
95.003140
0
LINE
8
Layer 1
10
124.533240
20
95.003140
11
125.033488
21
94.914940
0
LINE
8
Layer 1
10
125.033488
20
94.914940
11
125.663196
21
98.485360
0
LINE
8
Layer 1
10
125.663196
20
98.485360
11
125.162949
21
98.573560
0
LINE
8
Layer 1
10
125.162949
20
98.573560
11
125.162949
21
98.576560
0
LINE
8
Layer 1
10
125.162949
20
98.576560
11
111.371463
21
101.005900
0
LINE
8
Layer 1
10
108.070098
20
82.267290
11
107.592102
21
79.561980
0
LINE
8
Layer 1
10
107.592102
20
79.561980
11
105.745310
21
79.887500
0
LINE
8
Layer 1
10
105.745310
20
79.887500
11
105.115602
21
76.316710
0
LINE
8
Layer 1
10
105.115602
20
76.316710
11
106.962394
21
75.991560
0
LINE
8
Layer 1
10
106.962394
20
75.991560
11
105.638048
21
68.480040
0
LINE
8
Layer 1
10
105.638048
20
68.480040
11
119.430618
21
66.047700
0
LINE
8
Layer 1
10
119.430618
20
66.047700
11
121.231902
21
76.264500
0
LINE
8
Layer 1
10
121.231902
20
76.264500
11
121.732123
21
76.176300
0
LINE
8
Layer 1
10
121.732123
20
76.176300
11
122.361831
21
79.746720
0
LINE
8
Layer 1
10
122.361831
20
79.746720
11
121.861610
21
79.834920
0
LINE
8
Layer 1
10
121.861610
20
79.834920
11
121.861610
21
79.837920
0
LINE
8
Layer 1
10
121.861610
20
79.837920
11
108.070098
21
82.267290
0
LINE
8
Layer 1
10
104.736137
20
63.531090
11
104.258140
21
60.825770
0
LINE
8
Layer 1
10
104.258140
20
60.825770
11
102.411349
21
61.150920
0
LINE
8
Layer 1
10
102.411349
20
61.150920
11
101.781640
21
57.580500
0
LINE
8
Layer 1
10
101.781640
20
57.580500
11
103.628432
21
57.255350
0
LINE
8
Layer 1
10
103.628432
20
57.255350
11
102.304113
21
49.742430
0
LINE
8
Layer 1
10
102.304113
20
49.742430
11
109.729009
21
48.434380
0
LINE
8
Layer 1
10
109.729009
20
48.434380
11
108.080840
21
39.092870
0
LINE
8
Layer 1
10
108.080840
20
39.092870
11
116.854767
21
37.546780
0
LINE
8
Layer 1
10
116.854767
20
37.546780
11
115.708248
21
36.185130
0
LINE
8
Layer 1
10
115.708248
20
36.185130
11
114.272434
21
37.393720
0
LINE
8
Layer 1
10
114.272434
20
37.393720
11
111.935290
21
34.622450
0
LINE
8
Layer 1
10
111.935290
20
34.622450
11
113.369676
21
33.413860
0
LINE
8
Layer 1
10
113.369676
20
33.413860
11
108.452659
21
27.580690
0
LINE
8
Layer 1
10
108.452659
20
27.580690
11
119.161590
21
18.557320
0
LINE
8
Layer 1
10
119.161590
20
18.557320
11
125.849198
21
26.489180
0
LINE
8
Layer 1
10
125.849198
20
26.489180
11
126.237951
21
26.162630
0
LINE
8
Layer 1
10
126.237951
20
26.162630
11
128.575095
21
28.935310
0
LINE
8
Layer 1
10
128.575095
20
28.935310
11
128.186342
21
29.263290
0
LINE
8
Layer 1
10
128.186342
20
29.263290
11
128.188942
21
29.263290
0
LINE
8
Layer 1
10
128.188942
20
29.263290
11
117.478609
21
38.286690
0
LINE
8
Layer 1
10
117.478609
20
38.286690
11
116.879248
21
37.574300
0
LINE
8
Layer 1
10
116.879248
20
37.574300
11
118.526015
21
46.914720
0
LINE
8
Layer 1
10
118.526015
20
46.914720
11
116.103490
21
47.341810
0
LINE
8
Layer 1
10
116.103490
20
47.341810
11
117.900540
21
57.528300
0
LINE
8
Layer 1
10
117.900540
20
57.528300
11
118.400788
21
57.440100
0
LINE
8
Layer 1
10
118.400788
20
57.440100
11
119.029067
21
61.010520
0
LINE
8
Layer 1
10
119.029067
20
61.010520
11
118.528846
21
61.098720
0
LINE
8
Layer 1
10
118.528846
20
61.098720
11
118.531446
21
61.098720
0
LINE
8
Layer 1
10
118.531446
20
61.098720
11
104.736137
21
63.531090
0
LINE
8
Layer 1
10
70.896140
20
50.718930
11
70.419546
21
48.013940
0
LINE
8
Layer 1
10
70.419546
20
48.013940
11
68.571352
21
48.339110
0
LINE
8
Layer 1
10
68.571352
20
48.339110
11
67.941644
21
44.768690
0
LINE
8
Layer 1
10
67.941644
20
44.768690
11
69.788436
21
44.442110
0
LINE
8
Layer 1
10
69.788436
20
44.442110
11
68.464090
21
36.930250
0
LINE
8
Layer 1
10
68.464090
20
36.930250
11
82.256661
21
34.499310
0
LINE
8
Layer 1
10
82.256661
20
34.499310
11
84.059346
21
44.714710
0
LINE
8
Layer 1
10
84.059346
20
44.714710
11
84.558165
21
44.626510
0
LINE
8
Layer 1
10
84.558165
20
44.626510
11
85.189302
21
48.197280
0
LINE
8
Layer 1
10
85.189302
20
48.197280
11
84.687652
21
48.286880
0
LINE
8
Layer 1
10
84.687652
20
48.286880
11
84.687652
21
48.286880
0
LINE
8
Layer 1
10
84.687652
20
48.286880
11
70.896140
21
50.718930
0
LINE
8
Layer 1
10
188.280942
20
79.829950
11
188.758965
21
77.124640
0
LINE
8
Layer 1
10
188.758965
20
77.124640
11
186.911115
21
76.799460
0
LINE
8
Layer 1
10
186.911115
20
76.799460
11
187.540823
21
73.227640
0
LINE
8
Layer 1
10
187.540823
20
73.227640
11
189.387271
21
73.554190
0
LINE
8
Layer 1
10
189.387271
20
73.554190
11
190.712992
21
66.041290
0
LINE
8
Layer 1
10
190.712992
20
66.041290
11
204.505909
21
68.473290
0
LINE
8
Layer 1
10
204.505909
20
68.473290
11
202.704626
21
78.688720
0
LINE
8
Layer 1
10
202.704626
20
78.688720
11
203.203445
21
78.776920
0
LINE
8
Layer 1
10
203.203445
20
78.776920
11
202.573736
21
82.347680
0
LINE
8
Layer 1
10
202.573736
20
82.347680
11
202.073489
21
82.259480
0
LINE
8
Layer 1
10
202.073489
20
82.259480
11
202.073489
21
82.262480
0
LINE
8
Layer 1
10
202.073489
20
82.262480
11
188.280942
21
79.829950
0
LINE
8
Layer 1
10
205.892910
20
63.593470
11
205.392687
21
63.505270
0
LINE
8
Layer 1
10
205.392687
20
63.505270
11
205.392687
21
63.508270
0
LINE
8
Layer 1
10
205.392687
20
63.508270
11
191.600114
21
61.075930
0
LINE
8
Layer 1
10
191.600114
20
61.075930
11
192.076734
21
58.370930
0
LINE
8
Layer 1
10
192.076734
20
58.370930
11
190.230286
21
58.044020
0
LINE
8
Layer 1
10
190.230286
20
58.044020
11
190.859995
21
54.473600
0
LINE
8
Layer 1
10
190.859995
20
54.473600
11
192.706442
21
54.800170
0
LINE
8
Layer 1
10
192.706442
20
54.800170
11
194.027930
21
47.309130
0
LINE
8
Layer 1
10
194.027930
20
47.309130
11
191.258272
21
46.821400
0
LINE
8
Layer 1
10
191.258272
20
46.821400
11
192.740997
21
38.412700
0
LINE
8
Layer 1
10
192.740997
20
38.412700
11
182.018334
21
29.469360
0
LINE
8
Layer 1
10
182.018334
20
29.469360
11
183.779745
21
27.359330
0
LINE
8
Layer 1
10
183.779745
20
27.359330
11
182.339697
21
26.157810
0
LINE
8
Layer 1
10
182.339697
20
26.157810
11
184.663109
21
23.374180
0
LINE
8
Layer 1
10
184.663109
20
23.374180
11
186.103130
21
24.574300
0
LINE
8
Layer 1
10
186.103130
20
24.574300
11
190.990884
21
18.717880
0
LINE
8
Layer 1
10
190.990884
20
18.717880
11
201.744953
21
27.687310
0
LINE
8
Layer 1
10
201.744953
20
27.687310
11
195.097561
21
35.652350
0
LINE
8
Layer 1
10
195.097561
20
35.652350
11
195.487372
21
35.978930
0
LINE
8
Layer 1
10
195.487372
20
35.978930
11
194.087197
21
37.656230
0
LINE
8
Layer 1
10
194.087197
20
37.656230
11
201.703678
21
38.998490
0
LINE
8
Layer 1
10
201.703678
20
38.998490
11
200.054451
21
48.348440
0
LINE
8
Layer 1
10
200.054451
20
48.348440
11
207.825080
21
49.719620
0
LINE
8
Layer 1
10
207.825080
20
49.719620
11
206.023800
21
59.934680
0
LINE
8
Layer 1
10
206.023800
20
59.934680
11
206.522620
21
60.023180
0
LINE
8
Layer 1
10
206.522620
20
60.023180
11
205.892910
21
63.593470
0
LINE
8
Layer 1
10
148.187651
20
39.802040
11
148.187651
21
37.054390
0
LINE
8
Layer 1
10
148.187651
20
37.054390
11
146.310856
21
37.054390
0
LINE
8
Layer 1
10
146.310856
20
37.054390
11
146.310856
21
33.428590
0
LINE
8
Layer 1
10
146.310856
20
33.428590
11
148.186223
21
33.428590
0
LINE
8
Layer 1
10
148.186223
20
33.428590
11
148.186223
21
25.801420
0
LINE
8
Layer 1
10
148.186223
20
25.801420
11
162.192576
21
25.801420
0
LINE
8
Layer 1
10
162.192576
20
25.801420
11
162.192576
21
36.175210
0
LINE
8
Layer 1
10
162.192576
20
36.175210
11
162.699862
21
36.175210
0
LINE
8
Layer 1
10
162.699862
20
36.175210
11
162.702462
21
39.800630
0
LINE
8
Layer 1
10
162.702462
20
39.800630
11
162.193747
21
39.800630
0
LINE
8
Layer 1
10
162.193747
20
39.800630
11
162.193747
21
39.803630
0
LINE
8
Layer 1
10
162.193747
20
39.803630
11
148.187651
21
39.802040
0
LINE
8
Layer 1
10
131.082154
20
31.146700
11
131.082154
21
20.891070
0
LINE
8
Layer 1
10
131.082154
20
20.891070
11
129.125296
21
20.891070
0
LINE
8
Layer 1
10
129.125296
20
20.891070
11
129.125296
21
18.143430
0
LINE
8
Layer 1
10
129.125296
20
18.143430
11
127.249585
21
18.143430
0
LINE
8
Layer 1
10
127.249585
20
18.143430
11
127.249585
21
14.517630
0
LINE
8
Layer 1
10
127.249585
20
14.517630
11
129.125296
21
14.517630
0
LINE
8
Layer 1
10
129.125296
20
14.517630
11
129.125296
21
6.889060
0
LINE
8
Layer 1
10
129.125296
20
6.889060
11
143.130220
21
6.889060
0
LINE
8
Layer 1
10
143.130220
20
6.889060
11
143.130220
21
17.262820
0
LINE
8
Layer 1
10
143.130220
20
17.262820
11
143.638935
21
17.265820
0
LINE
8
Layer 1
10
143.638935
20
17.265820
11
143.638935
21
20.891250
0
LINE
8
Layer 1
10
143.638935
20
20.891250
11
143.130220
21
20.891250
0
LINE
8
Layer 1
10
143.130220
20
20.891250
11
143.130220
21
20.891250
0
LINE
8
Layer 1
10
143.130220
20
20.891250
11
140.008851
21
20.891250
0
LINE
8
Layer 1
10
140.008851
20
20.891250
11
140.008851
21
31.146870
0
LINE
8
Layer 1
10
140.008851
20
31.146870
11
131.082154
21
31.146700
0
LINE
8
Layer 1
10
148.216570
20
20.891070
11
148.216570
21
18.143430
0
LINE
8
Layer 1
10
148.216570
20
18.143430
11
146.341204
21
18.143430
0
LINE
8
Layer 1
10
146.341204
20
18.143430
11
146.341204
21
14.517630
0
LINE
8
Layer 1
10
146.341204
20
14.517630
11
148.216570
21
14.517630
0
LINE
8
Layer 1
10
148.216570
20
14.517630
11
148.216570
21
6.889060
0
LINE
8
Layer 1
10
148.216570
20
6.889060
11
162.222897
21
6.892060
0
LINE
8
Layer 1
10
162.222897
20
6.892060
11
162.222897
21
17.264410
0
LINE
8
Layer 1
10
162.222897
20
17.264410
11
162.730210
21
17.264410
0
LINE
8
Layer 1
10
162.730210
20
17.264410
11
162.730210
21
20.891240
0
LINE
8
Layer 1
10
162.730210
20
20.891240
11
162.222897
21
20.891240
0
LINE
8
Layer 1
10
162.222897
20
20.891240
11
162.222897
21
20.891240
0
LINE
8
Layer 1
10
162.222897
20
20.891240
11
148.216570
21
20.891070
0
LINE
8
Layer 1
10
169.822789
20
31.151990
11
169.822789
21
20.891070
0
LINE
8
Layer 1
10
169.822789
20
20.891070
11
167.285964
21
20.891070
0
LINE
8
Layer 1
10
167.285964
20
20.891070
11
167.285964
21
18.143430
0
LINE
8
Layer 1
10
167.285964
20
18.143430
11
165.410253
21
18.143430
0
LINE
8
Layer 1
10
165.410253
20
18.143430
11
165.410253
21
14.517630
0
LINE
8
Layer 1
10
165.410253
20
14.517630
11
167.285964
21
14.517630
0
LINE
8
Layer 1
10
167.285964
20
14.517630
11
167.285964
21
6.889060
0
LINE
8
Layer 1
10
167.285964
20
6.889060
11
181.290889
21
6.889060
0
LINE
8
Layer 1
10
181.290889
20
6.889060
11
181.290889
21
17.262820
0
LINE
8
Layer 1
10
181.290889
20
17.262820
11
181.799259
21
17.265820
0
LINE
8
Layer 1
10
181.799259
20
17.265820
11
181.799259
21
20.891250
0
LINE
8
Layer 1
10
181.799259
20
20.891250
11
181.290889
21
20.891250
0
LINE
8
Layer 1
10
181.290889
20
20.891250
11
181.290889
21
20.891250
0
LINE
8
Layer 1
10
181.290889
20
20.891250
11
178.749831
21
20.891250
0
LINE
8
Layer 1
10
178.749831
20
20.891250
11
178.749831
21
31.151800
0
LINE
8
Layer 1
10
178.749831
20
31.151800
11
169.822789
21
31.151990
0
LINE
8
Layer 1
10
225.459740
20
48.172290
11
225.938110
21
45.467320
0
LINE
8
Layer 1
10
225.938110
20
45.467320
11
224.089890
21
45.142150
0
LINE
8
Layer 1
10
224.089890
20
45.142150
11
224.719600
21
41.571730
0
LINE
8
Layer 1
10
224.719600
20
41.571730
11
226.566390
21
41.896900
0
LINE
8
Layer 1
10
226.566390
20
41.896900
11
227.892140
21
34.383630
0
LINE
8
Layer 1
10
227.892140
20
34.383630
11
241.684710
21
36.816000
0
LINE
8
Layer 1
10
241.684710
20
36.816000
11
239.883770
21
47.031410
0
LINE
8
Layer 1
10
239.883770
20
47.031410
11
240.382590
21
47.119610
0
LINE
8
Layer 1
10
240.382590
20
47.119610
11
239.752880
21
50.691460
0
LINE
8
Layer 1
10
239.752880
20
50.691460
11
239.252630
21
50.603260
0
LINE
8
Layer 1
10
239.252630
20
50.603260
11
239.252630
21
50.606260
0
LINE
8
Layer 1
10
239.252630
20
50.606260
11
225.459740
21
48.172290
0
LINE
8
Layer 1
10
206.584710
20
86.408680
11
207.063080
21
83.703710
0
LINE
8
Layer 1
10
207.063080
20
83.703710
11
205.214887
21
83.378540
0
LINE
8
Layer 1
10
205.214887
20
83.378540
11
205.844940
21
79.808120
0
LINE
8
Layer 1
10
205.844940
20
79.808120
11
207.691390
21
80.133290
0
LINE
8
Layer 1
10
207.691390
20
80.133290
11
209.017110
21
72.620030
0
LINE
8
Layer 1
10
209.017110
20
72.620030
11
222.809680
21
75.052390
0
LINE
8
Layer 1
10
222.809680
20
75.052390
11
221.008740
21
85.267800
0
LINE
8
Layer 1
10
221.008740
20
85.267800
11
221.507560
21
85.356000
0
LINE
8
Layer 1
10
221.507560
20
85.356000
11
220.877850
21
88.927850
0
LINE
8
Layer 1
10
220.877850
20
88.927850
11
220.377630
21
88.839650
0
LINE
8
Layer 1
10
220.377630
20
88.839650
11
220.377630
21
88.842650
0
LINE
8
Layer 1
10
220.377630
20
88.842650
11
206.584710
21
86.408680
0
LINE
8
Layer 1
10
209.723200
20
67.800640
11
210.201570
21
65.095330
0
LINE
8
Layer 1
10
210.201570
20
65.095330
11
208.353370
21
64.770160
0
LINE
8
Layer 1
10
208.353370
20
64.770160
11
208.983080
21
61.199740
0
LINE
8
Layer 1
10
208.983080
20
61.199740
11
210.829870
21
61.524910
0
LINE
8
Layer 1
10
210.829870
20
61.524910
11
212.155620
21
54.011990
0
LINE
8
Layer 1
10
212.155620
20
54.011990
11
225.948170
21
56.444010
0
LINE
8
Layer 1
10
225.948170
20
56.444010
11
224.147230
21
66.659410
0
LINE
8
Layer 1
10
224.147230
20
66.659410
11
224.646070
21
66.747610
0
LINE
8
Layer 1
10
224.646070
20
66.747610
11
224.016360
21
70.318030
0
LINE
8
Layer 1
10
224.016360
20
70.318030
11
223.516120
21
70.231230
0
LINE
8
Layer 1
10
223.516120
20
70.231230
11
223.516120
21
70.231230
0
LINE
8
Layer 1
10
223.516120
20
70.231230
11
209.723200
21
67.800640
0
LINE
8
Layer 1
10
235.603680
20
114.605640
11
235.103460
21
114.517440
0
LINE
8
Layer 1
10
235.103460
20
114.517440
11
235.103460
21
114.517440
0
LINE
8
Layer 1
10
235.103460
20
114.517440
11
221.310550
21
112.086480
0
LINE
8
Layer 1
10
221.310550
20
112.086480
11
221.787510
21
109.380110
0
LINE
8
Layer 1
10
221.787510
20
109.380110
11
219.940720
21
109.054940
0
LINE
8
Layer 1
10
219.940720
20
109.054940
11
220.569370
21
105.484170
0
LINE
8
Layer 1
10
220.569370
20
105.484170
11
222.417220
21
105.809690
0
LINE
8
Layer 1
10
222.417220
20
105.809690
11
223.742940
21
98.296420
0
LINE
8
Layer 1
10
223.742940
20
98.296420
11
235.696130
21
100.405020
0
LINE
8
Layer 1
10
235.696130
20
100.405020
11
236.579470
21
95.398550
0
LINE
8
Layer 1
10
236.579470
20
95.398550
11
224.604080
21
93.287460
0
LINE
8
Layer 1
10
224.604080
20
93.287460
11
225.081050
21
90.582130
0
LINE
8
Layer 1
10
225.081050
20
90.582130
11
223.234250
21
90.255550
0
LINE
8
Layer 1
10
223.234250
20
90.255550
11
223.862900
21
86.685130
0
LINE
8
Layer 1
10
223.862900
20
86.685130
11
225.710750
21
87.011710
0
LINE
8
Layer 1
10
225.710750
20
87.011710
11
227.036480
21
79.498810
0
LINE
8
Layer 1
10
227.036480
20
79.498810
11
240.827640
21
81.930810
0
LINE
8
Layer 1
10
240.827640
20
81.930810
11
239.026700
21
92.146210
0
LINE
8
Layer 1
10
239.026700
20
92.146210
11
239.526930
21
92.234410
0
LINE
8
Layer 1
10
239.526930
20
92.234410
11
238.902510
21
95.778710
0
LINE
8
Layer 1
10
238.902510
20
95.778710
11
245.376700
21
96.919960
0
LINE
8
Layer 1
10
245.376700
20
96.919960
11
245.091300
21
98.534820
0
LINE
8
Layer 1
10
245.091300
20
98.534820
11
256.886080
21
100.614180
0
LINE
8
Layer 1
10
256.886080
20
100.614180
11
255.083740
21
110.829590
0
LINE
8
Layer 1
10
255.083740
20
110.829590
11
255.583990
21
110.917790
0
LINE
8
Layer 1
10
255.583990
20
110.917790
11
254.953910
21
114.489980
0
LINE
8
Layer 1
10
254.953910
20
114.489980
11
254.454030
21
114.401780
0
LINE
8
Layer 1
10
254.454030
20
114.401780
11
254.454030
21
114.401780
0
LINE
8
Layer 1
10
254.454030
20
114.401780
11
240.661120
21
111.969760
0
LINE
8
Layer 1
10
240.661120
20
111.969760
11
241.137740
21
109.264440
0
LINE
8
Layer 1
10
241.137740
20
109.264440
11
239.291290
21
108.939270
0
LINE
8
Layer 1
10
239.291290
20
108.939270
11
239.876890
21
105.612900
0
LINE
8
Layer 1
10
239.876890
20
105.612900
11
236.769620
21
105.064500
0
LINE
8
Layer 1
10
236.769620
20
105.064500
11
235.733170
21
110.943150
0
LINE
8
Layer 1
10
235.733170
20
110.943150
11
236.233390
21
111.031350
0
LINE
8
Layer 1
10
236.233390
20
111.031350
11
235.603680
21
114.605640
0
LINE
8
Layer 1
10
242.198950
20
77.087280
11
241.698710
21
76.999080
0
LINE
8
Layer 1
10
241.698710
20
76.999080
11
241.698710
21
76.999080
0
LINE
8
Layer 1
10
241.698710
20
76.999080
11
227.905790
21
74.568480
0
LINE
8
Layer 1
10
227.905790
20
74.568480
11
228.382760
21
71.863170
0
LINE
8
Layer 1
10
228.382760
20
71.863170
11
226.535960
21
71.536600
0
LINE
8
Layer 1
10
226.535960
20
71.536600
11
227.166020
21
67.966180
0
LINE
8
Layer 1
10
227.166020
20
67.966180
11
229.012460
21
68.291320
0
LINE
8
Layer 1
10
229.012460
20
68.291320
11
230.338210
21
60.779830
0
LINE
8
Layer 1
10
230.338210
20
60.779830
11
242.052900
21
62.845400
0
LINE
8
Layer 1
10
242.052900
20
62.845400
11
243.292930
21
55.813200
0
LINE
8
Layer 1
10
243.292930
20
55.813200
11
252.084840
21
57.363530
0
LINE
8
Layer 1
10
252.084840
20
57.363530
11
251.447010
21
60.975570
0
LINE
8
Layer 1
10
251.447010
20
60.975570
11
263.481320
21
63.097580
0
LINE
8
Layer 1
10
263.481320
20
63.097580
11
261.678980
21
73.312980
0
LINE
8
Layer 1
10
261.678980
20
73.312980
11
262.179230
21
73.401180
0
LINE
8
Layer 1
10
262.179230
20
73.401180
11
261.549180
21
76.971600
0
LINE
8
Layer 1
10
261.549180
20
76.971600
11
261.048930
21
76.883400
0
LINE
8
Layer 1
10
261.048930
20
76.883400
11
261.048930
21
76.886400
0
LINE
8
Layer 1
10
261.048930
20
76.886400
11
247.256380
21
74.454060
0
LINE
8
Layer 1
10
247.256380
20
74.454060
11
247.732980
21
71.749070
0
LINE
8
Layer 1
10
247.732980
20
71.749070
11
245.886530
21
71.422490
0
LINE
8
Layer 1
10
245.886530
20
71.422490
11
246.516240
21
67.852070
0
LINE
8
Layer 1
10
246.516240
20
67.852070
11
248.362690
21
68.178650
0
LINE
8
Layer 1
10
248.362690
20
68.178650
11
248.672780
21
66.424490
0
LINE
8
Layer 1
10
248.672780
20
66.424490
11
243.717320
21
65.551970
0
LINE
8
Layer 1
10
243.717320
20
65.551970
11
242.328410
21
73.427430
0
LINE
8
Layer 1
10
242.328410
20
73.427430
11
242.828660
21
73.515630
0
LINE
8
Layer 1
10
242.828660
20
73.515630
11
242.198950
21
77.087280
0
LINE
8
Layer 1
10
243.972060
20
93.139420
11
244.448680
21
90.434450
0
LINE
8
Layer 1
10
244.448680
20
90.434450
11
242.602230
21
90.109300
0
LINE
8
Layer 1
10
242.602230
20
90.109300
11
243.231940
21
86.537450
0
LINE
8
Layer 1
10
243.231940
20
86.537450
11
245.078390
21
86.864030
0
LINE
8
Layer 1
10
245.078390
20
86.864030
11
246.404110
21
79.350760
0
LINE
8
Layer 1
10
246.404110
20
79.350760
11
260.197020
21
81.783130
0
LINE
8
Layer 1
10
260.197020
20
81.783130
11
258.394680
21
91.998530
0
LINE
8
Layer 1
10
258.394680
20
91.998530
11
258.894930
21
92.086730
0
LINE
8
Layer 1
10
258.894930
20
92.086730
11
258.264850
21
95.657150
0
LINE
8
Layer 1
10
258.264850
20
95.657150
11
257.764630
21
95.568950
0
LINE
8
Layer 1
10
257.764630
20
95.568950
11
257.764630
21
95.571950
0
LINE
8
Layer 1
10
257.764630
20
95.571950
11
243.972060
21
93.139420
0
LINE
8
Layer 1
10
293.711500
20
114.216710
11
293.211250
21
114.128510
0
LINE
8
Layer 1
10
293.211250
20
114.128510
11
293.211250
21
114.131510
0
LINE
8
Layer 1
10
293.211250
20
114.131510
11
279.418340
21
111.699510
0
LINE
8
Layer 1
10
279.418340
20
111.699510
11
279.895300
21
108.994200
0
LINE
8
Layer 1
10
279.895300
20
108.994200
11
278.048510
21
108.667620
0
LINE
8
Layer 1
10
278.048510
20
108.667620
11
278.675760
21
105.107070
0
LINE
8
Layer 1
10
278.675760
20
105.107070
11
275.526850
21
104.551610
0
LINE
8
Layer 1
10
275.526850
20
104.551610
11
275.049910
21
107.259400
0
LINE
8
Layer 1
10
275.049910
20
107.259400
11
275.548730
21
107.347600
0
LINE
8
Layer 1
10
275.548730
20
107.347600
11
274.919020
21
110.918020
0
LINE
8
Layer 1
10
274.919020
20
110.918020
11
274.418770
21
110.829820
0
LINE
8
Layer 1
10
274.418770
20
110.829820
11
274.418770
21
110.832820
0
LINE
8
Layer 1
10
274.418770
20
110.832820
11
260.626230
21
108.401880
0
LINE
8
Layer 1
10
260.626230
20
108.401880
11
261.102820
21
105.696910
0
LINE
8
Layer 1
10
261.102820
20
105.696910
11
259.256400
21
105.370340
0
LINE
8
Layer 1
10
259.256400
20
105.370340
11
259.886110
21
101.799920
0
LINE
8
Layer 1
10
259.886110
20
101.799920
11
261.732530
21
102.125060
0
LINE
8
Layer 1
10
261.732530
20
102.125060
11
263.058280
21
94.613230
0
LINE
8
Layer 1
10
263.058280
20
94.613230
11
274.293550
21
96.593450
0
LINE
8
Layer 1
10
274.293550
20
96.593450
11
274.887270
21
93.225830
0
LINE
8
Layer 1
10
274.887270
20
93.225830
11
283.679190
21
94.774730
0
LINE
8
Layer 1
10
283.679190
20
94.774730
11
283.087950
21
98.130040
0
LINE
8
Layer 1
10
283.087950
20
98.130040
11
295.641900
21
100.344450
0
LINE
8
Layer 1
10
295.641900
20
100.344450
11
293.840960
21
110.559850
0
LINE
8
Layer 1
10
293.840960
20
110.559850
11
294.341210
21
110.648050
0
LINE
8
Layer 1
10
294.341210
20
110.648050
11
293.711500
21
114.216710
0
LINE
8
Layer 1
10
297.079010
20
95.439150
11
296.578760
21
95.350950
0
LINE
8
Layer 1
10
296.578760
20
95.350950
11
296.578760
21
95.350950
0
LINE
8
Layer 1
10
296.578760
20
95.350950
11
282.785850
21
92.919980
0
LINE
8
Layer 1
10
282.785850
20
92.919980
11
283.262820
21
90.215020
0
LINE
8
Layer 1
10
283.262820
20
90.215020
11
281.416020
21
89.888440
0
LINE
8
Layer 1
10
281.416020
20
89.888440
11
282.044670
21
86.318020
0
LINE
8
Layer 1
10
282.044670
20
86.318020
11
283.892520
21
86.643190
0
LINE
8
Layer 1
10
283.892520
20
86.643190
11
284.438280
21
83.552040
0
LINE
8
Layer 1
10
284.438280
20
83.552040
11
279.440120
21
82.671430
0
LINE
8
Layer 1
10
279.440120
20
82.671430
11
278.415990
21
88.478480
0
LINE
8
Layer 1
10
278.415990
20
88.478480
11
278.916240
21
88.566980
0
LINE
8
Layer 1
10
278.916240
20
88.566980
11
278.286530
21
92.138800
0
LINE
8
Layer 1
10
278.286530
20
92.138800
11
277.786280
21
92.050600
0
LINE
8
Layer 1
10
277.786280
20
92.050600
11
277.786280
21
92.053600
0
LINE
8
Layer 1
10
277.786280
20
92.053600
11
263.993740
21
89.622670
0
LINE
8
Layer 1
10
263.993740
20
89.622670
11
264.471760
21
86.916270
0
LINE
8
Layer 1
10
264.471760
20
86.916270
11
262.623910
21
86.590750
0
LINE
8
Layer 1
10
262.623910
20
86.590750
11
263.253620
21
83.020330
0
LINE
8
Layer 1
10
263.253620
20
83.020330
11
265.100040
21
83.345510
0
LINE
8
Layer 1
10
265.100040
20
83.345510
11
266.425790
21
75.832580
0
LINE
8
Layer 1
10
266.425790
20
75.832580
11
278.133790
21
77.896760
0
LINE
8
Layer 1
10
278.133790
20
77.896760
11
279.003020
21
72.974550
0
LINE
8
Layer 1
10
279.003020
20
72.974550
11
267.242820
21
70.903340
0
LINE
8
Layer 1
10
267.242820
20
70.903340
11
267.719790
21
68.196950
0
LINE
8
Layer 1
10
267.719790
20
68.196950
11
265.873340
21
67.871800
0
LINE
8
Layer 1
10
265.873340
20
67.871800
11
266.503050
21
64.299610
0
LINE
8
Layer 1
10
266.503050
20
64.299610
11
268.349500
21
64.626180
0
LINE
8
Layer 1
10
268.349500
20
64.626180
11
269.675220
21
57.114660
0
LINE
8
Layer 1
10
269.675220
20
57.114660
11
283.468130
21
59.545630
0
LINE
8
Layer 1
10
283.468130
20
59.545630
11
281.665450
21
69.761030
0
LINE
8
Layer 1
10
281.665450
20
69.761030
11
282.165670
21
69.850630
0
LINE
8
Layer 1
10
282.165670
20
69.850630
11
281.544430
21
73.379770
0
LINE
8
Layer 1
10
281.544430
20
73.379770
11
286.040940
21
74.171880
0
LINE
8
Layer 1
10
286.040940
20
74.171880
11
286.512240
21
71.495830
0
LINE
8
Layer 1
10
286.512240
20
71.495830
11
284.665450
21
71.170660
0
LINE
8
Layer 1
10
284.665450
20
71.170660
11
285.295160
21
67.600240
0
LINE
8
Layer 1
10
285.295160
20
67.600240
11
287.141950
21
67.925410
0
LINE
8
Layer 1
10
287.141950
20
67.925410
11
288.467700
21
60.413550
0
LINE
8
Layer 1
10
288.467700
20
60.413550
11
302.260240
21
62.844490
0
LINE
8
Layer 1
10
302.260240
20
62.844490
11
300.457900
21
73.061320
0
LINE
8
Layer 1
10
300.457900
20
73.061320
11
300.958150
21
73.149520
0
LINE
8
Layer 1
10
300.958150
20
73.149520
11
300.328440
21
76.719940
0
LINE
8
Layer 1
10
300.328440
20
76.719940
11
299.828190
21
76.631740
0
LINE
8
Layer 1
10
299.828190
20
76.631740
11
299.828190
21
76.631740
0
LINE
8
Layer 1
10
299.828190
20
76.631740
11
287.796370
21
74.511160
0
LINE
8
Layer 1
10
287.796370
20
74.511160
11
286.928170
21
79.433360
0
LINE
8
Layer 1
10
286.928170
20
79.433360
11
299.009410
21
81.562410
0
LINE
8
Layer 1
10
299.009410
20
81.562410
11
297.208470
21
91.779240
0
LINE
8
Layer 1
10
297.208470
20
91.779240
11
297.708720
21
91.867440
0
LINE
8
Layer 1
10
297.708720
20
91.867440
11
297.079010
21
95.439150
0
LINE
8
Layer 1
10
93.616096
20
45.538920
11
92.452988
21
43.048710
0
LINE
8
Layer 1
10
92.452988
20
43.048710
11
90.753648
21
43.842570
0
LINE
8
Layer 1
10
90.753648
20
43.842570
11
89.220123
21
40.557450
0
LINE
8
Layer 1
10
89.220123
20
40.557450
11
90.919119
21
39.763590
0
LINE
8
Layer 1
10
90.919119
20
39.763590
11
87.691890
21
32.851300
0
LINE
8
Layer 1
10
87.691890
20
32.851300
11
100.382021
21
26.928580
0
LINE
8
Layer 1
10
100.382021
20
26.928580
11
104.771273
21
36.328240
0
LINE
8
Layer 1
10
104.771273
20
36.328240
11
105.231304
21
36.114540
0
LINE
8
Layer 1
10
105.231304
20
36.114540
11
106.766602
21
39.399660
0
LINE
8
Layer 1
10
106.766602
20
39.399660
11
106.306227
21
39.614760
0
LINE
8
Layer 1
10
106.306227
20
39.614760
11
106.306227
21
39.614760
0
LINE
8
Layer 1
10
106.306227
20
39.614760
11
93.616096
21
45.538920
0
LINE
8
Layer 1
10
203.914195
20
39.759360
11
205.039891
21
37.254020
0
LINE
8
Layer 1
10
205.039891
20
37.254020
11
203.329995
21
36.485190
0
LINE
8
Layer 1
10
203.329995
20
36.485190
11
204.816953
21
33.177850
0
LINE
8
Layer 1
10
204.816953
20
33.177850
11
206.526850
21
33.947020
0
LINE
8
Layer 1
10
206.526850
20
33.947020
11
209.656340
21
26.989220
0
LINE
8
Layer 1
10
209.656340
20
26.989220
11
222.430790
21
32.729960
0
LINE
8
Layer 1
10
222.430790
20
32.729960
11
218.175580
21
42.191730
0
LINE
8
Layer 1
10
218.175580
20
42.191730
11
218.638420
21
42.399790
0
LINE
8
Layer 1
10
218.638420
20
42.399790
11
217.151460
21
45.707140
0
LINE
8
Layer 1
10
217.151460
20
45.707140
11
216.688620
21
45.499070
0
LINE
8
Layer 1
10
216.688620
20
45.499070
11
216.688620
21
45.499070
0
LINE
8
Layer 1
10
216.688620
20
45.499070
11
203.914195
21
39.759360
0
LINE
8
Layer 1
10
126.345610
20
92.713120
11
135.137714
21
91.164410
0
LINE
8
Layer 1
10
135.137714
20
91.164410
11
133.483936
21
81.792340
0
LINE
8
Layer 1
10
133.483936
20
81.792340
11
124.692228
21
83.341370
0
LINE
8
Layer 1
10
124.692228
20
83.341370
11
126.345610
21
92.713120
0
LINE
8
Layer 1
10
145.847623
20
110.172890
11
163.846354
21
110.172890
0
LINE
8
Layer 1
10
163.846354
20
110.172890
11
163.846354
21
77.062910
0
LINE
8
Layer 1
10
163.846354
20
77.062910
11
145.847623
21
77.062910
0
LINE
8
Layer 1
10
145.847623
20
77.062910
11
145.847623
21
110.172890
0
LINE
8
Layer 1
10
155.127963
20
0.125010
11
127.513560
21
0.210410
0
LINE
8
Layer 1
10
127.513560
20
0.210410
11
125.944051
21
0.210410
0
LINE
8
Layer 1
10
125.944051
20
0.210410
11
124.544287
21
0.422980
0
LINE
8
Layer 1
10
124.544287
20
0.422980
11
123.271760
21
1.018020
0
LINE
8
Layer 1
10
123.271760
20
1.018020
11
112.381166
21
5.984610
0
LINE
8
Layer 1
10
112.381166
20
5.984610
11
111.952541
21
6.267100
0
LINE
8
Layer 1
10
111.952541
20
6.267100
11
98.117294
21
18.384090
0
LINE
8
Layer 1
10
98.117294
20
18.384090
11
97.695389
21
18.618280
0
LINE
8
Layer 1
10
97.695389
20
18.618280
11
61.454511
21
31.887450
0
LINE
8
Layer 1
10
61.454511
20
31.887450
11
60.870810
21
32.355147
0
LINE
8
Layer 1
10
60.870810
20
32.355147
11
60.732383
21
33.078070
0
LINE
8
Layer 1
10
60.732383
20
33.078070
11
63.419492
21
48.895260
0
LINE
8
Layer 1
10
63.419492
20
48.895260
11
63.191600
21
49.528754
0
LINE
8
Layer 1
10
63.191600
20
49.528754
11
62.613386
21
49.874990
0
LINE
8
Layer 1
10
62.613386
20
49.874990
11
51.584864
21
52.938280
0
LINE
8
Layer 1
10
51.584864
20
52.938280
11
50.821436
21
52.895580
0
LINE
8
Layer 1
10
50.821436
20
52.895580
11
42.336777
21
51.150920
0
LINE
8
Layer 1
10
42.336777
20
51.150920
11
41.573375
21
51.108220
0
LINE
8
Layer 1
10
41.573375
20
51.108220
11
2.591440
21
58.385910
0
LINE
8
Layer 1
10
2.591440
20
58.385910
11
1.473776
21
58.830006
0
LINE
8
Layer 1
10
1.473776
20
58.830006
11
0.650763
21
59.641230
0
LINE
8
Layer 1
10
0.650763
20
59.641230
11
0.193865
21
60.707702
0
LINE
8
Layer 1
10
0.193865
20
60.707702
11
0.174550
21
61.917540
0
LINE
8
Layer 1
10
0.174550
20
61.917540
11
10.099257
21
117.624820
0
LINE
8
Layer 1
10
10.099257
20
117.624820
11
10.485827
21
118.627608
0
LINE
8
Layer 1
10
10.485827
20
118.627608
11
11.154541
21
119.422938
0
LINE
8
Layer 1
10
11.154541
20
119.422938
11
12.038033
21
119.946958
0
LINE
8
Layer 1
10
12.038033
20
119.946958
11
13.068940
21
120.135820
0
LINE
8
Layer 1
10
13.068940
20
120.135820
11
73.133219
21
119.966170
0
LINE
8
Layer 1
10
73.133219
20
119.966170
11
73.388277
21
119.966170
0
LINE
8
Layer 1
10
73.388277
20
119.966170
11
91.288927
21
116.689170
0
LINE
8
Layer 1
10
91.288927
20
116.689170
11
91.712393
21
116.508285
0
LINE
8
Layer 1
10
91.712393
20
116.508285
11
92.009652
21
116.135130
0
LINE
8
Layer 1
10
92.009652
20
116.135130
11
92.814356
21
114.178510
0
LINE
8
Layer 1
10
92.814356
20
114.178510
11
110.359749
21
110.544620
0
LINE
8
Layer 1
10
110.359749
20
110.544620
11
109.582589
21
106.139070
0
LINE
8
Layer 1
10
109.582589
20
106.139070
11
109.592734
21
105.725277
0
LINE
8
Layer 1
10
109.592734
20
105.725277
11
109.754515
21
105.361081
0
LINE
8
Layer 1
10
109.754515
20
105.361081
11
110.041113
21
105.084705
0
LINE
8
Layer 1
10
110.041113
20
105.084705
11
110.425710
21
104.934370
0
LINE
8
Layer 1
10
110.425710
20
104.934370
11
119.115685
21
103.403410
0
LINE
8
Layer 1
10
119.115685
20
103.403410
11
119.528757
21
103.412960
0
LINE
8
Layer 1
10
119.528757
20
103.412960
11
119.892641
21
103.574426
0
LINE
8
Layer 1
10
119.892641
20
103.574426
11
120.169143
21
103.860935
0
LINE
8
Layer 1
10
120.169143
20
103.860935
11
120.320068
21
104.245610
0
LINE
8
Layer 1
10
120.320068
20
104.245610
11
121.040793
21
108.332680
0
LINE
8
Layer 1
10
121.040793
20
108.332680
11
125.902432
21
107.325460
0
LINE
8
Layer 1
10
125.902432
20
107.325460
11
126.821780
21
107.352960
0
LINE
8
Layer 1
10
126.821780
20
107.352960
11
127.598941
21
107.752540
0
LINE
8
Layer 1
10
127.598941
20
107.752540
11
134.173651
21
113.412180
0
LINE
8
Layer 1
10
134.173651
20
113.412180
11
135.053623
21
114.007225
0
LINE
8
Layer 1
10
135.053623
20
114.007225
11
135.996816
21
114.219800
0
LINE
8
Layer 1
10
135.996816
20
114.219800
11
137.014932
21
114.219800
0
LINE
8
Layer 1
10
137.014932
20
114.219800
11
144.820141
21
114.226800
0
LINE
8
Layer 1
10
144.820141
20
114.226800
11
165.605093
21
114.218800
0
LINE
8
Layer 1
10
165.605093
20
114.218800
11
173.283671
21
114.218800
0
LINE
8
Layer 1
10
173.283671
20
114.218800
11
174.302132
21
114.218800
0
LINE
8
Layer 1
10
174.302132
20
114.218800
11
175.245196
21
114.006755
0
LINE
8
Layer 1
10
175.245196
20
114.006755
11
176.125296
21
113.411190
0
LINE
8
Layer 1
10
176.125296
20
113.411190
11
182.699663
21
107.751540
0
LINE
8
Layer 1
10
182.699663
20
107.751540
11
183.501122
21
107.330945
0
LINE
8
Layer 1
10
183.501122
20
107.330945
11
184.397573
21
107.325880
0
LINE
8
Layer 1
10
184.397573
20
107.325880
11
189.426059
21
108.366240
0
LINE
8
Layer 1
10
189.426059
20
108.366240
11
190.963817
21
99.646160
0
LINE
8
Layer 1
10
190.963817
20
99.646160
11
184.987409
21
98.593090
0
LINE
8
Layer 1
10
184.987409
20
98.593090
11
185.465432
21
95.886690
0
LINE
8
Layer 1
10
185.465432
20
95.886690
11
183.617582
21
95.561550
0
LINE
8
Layer 1
10
183.617582
20
95.561550
11
184.094546
21
92.857640
0
LINE
8
Layer 1
10
184.094546
20
92.857640
11
175.307892
21
91.308720
0
LINE
8
Layer 1
10
175.307892
20
91.308720
11
176.961724
21
81.936880
0
LINE
8
Layer 1
10
176.961724
20
81.936880
11
185.753642
21
83.487210
0
LINE
8
Layer 1
10
185.753642
20
83.487210
11
184.254354
21
91.992530
0
LINE
8
Layer 1
10
184.254354
20
91.992530
11
186.095140
21
92.316280
0
LINE
8
Layer 1
10
186.095140
20
92.316280
11
187.419459
21
84.804440
0
LINE
8
Layer 1
10
187.419459
20
84.804440
11
201.212373
21
87.235380
0
LINE
8
Layer 1
10
201.212373
20
87.235380
11
199.411090
21
97.450780
0
LINE
8
Layer 1
10
199.411090
20
97.450780
11
199.910279
21
97.540380
0
LINE
8
Layer 1
10
199.910279
20
97.540380
11
199.290096
21
101.057190
0
LINE
8
Layer 1
10
199.290096
20
101.057190
11
201.986705
21
101.532600
0
LINE
8
Layer 1
10
201.986705
20
101.532600
11
202.481661
21
98.726740
0
LINE
8
Layer 1
10
202.481661
20
98.726740
11
204.328109
21
99.051920
0
LINE
8
Layer 1
10
204.328109
20
99.051920
11
205.653830
21
91.540420
0
LINE
8
Layer 1
10
205.653830
20
91.540420
11
219.446400
21
93.971360
0
LINE
8
Layer 1
10
219.446400
20
93.971360
11
217.645460
21
104.187850
0
LINE
8
Layer 1
10
217.645460
20
104.187850
11
218.144280
21
104.276350
0
LINE
8
Layer 1
10
218.144280
20
104.276350
11
217.514570
21
107.846770
0
LINE
8
Layer 1
10
217.514570
20
107.846770
11
217.014350
21
107.758570
0
LINE
8
Layer 1
10
217.014350
20
107.758570
11
217.014350
21
107.761570
0
LINE
8
Layer 1
10
217.014350
20
107.761570
11
203.221436
21
105.330630
0
LINE
8
Layer 1
10
203.221436
20
105.330630
11
203.699803
21
102.624230
0
LINE
8
Layer 1
10
203.699803
20
102.624230
11
202.597364
21
102.429920
0
LINE
8
Layer 1
10
202.597364
20
102.429920
11
201.122759
21
110.790280
0
LINE
8
Layer 1
10
201.122759
20
110.790280
11
217.484250
21
114.179090
0
LINE
8
Layer 1
10
217.484250
20
114.179090
11
218.288930
21
116.094430
0
LINE
8
Layer 1
10
218.288930
20
116.094430
11
218.585791
21
116.503712
0
LINE
8
Layer 1
10
218.585791
20
116.503712
11
219.009650
21
116.689750
0
LINE
8
Layer 1
10
219.009650
20
116.689750
11
236.847150
21
119.911740
0
LINE
8
Layer 1
10
236.847150
20
119.911740
11
237.165360
21
119.966740
0
LINE
8
Layer 1
10
237.165360
20
119.966740
11
297.230010
21
120.093350
0
LINE
8
Layer 1
10
297.230010
20
120.093350
11
298.266268
21
119.929353
0
LINE
8
Layer 1
10
298.266268
20
119.929353
11
299.159750
21
119.418110
0
LINE
8
Layer 1
10
299.159750
20
119.418110
11
299.830782
21
118.627492
0
LINE
8
Layer 1
10
299.830782
20
118.627492
11
300.199690
21
117.625370
0
LINE
8
Layer 1
10
300.199690
20
117.625370
11
310.167080
21
61.875440
0
LINE
8
Layer 1
10
310.167080
20
61.875440
11
310.122894
21
60.690276
0
LINE
8
Layer 1
10
310.122894
20
60.690276
11
309.653225
21
59.636474
0
LINE
8
Layer 1
10
309.653225
20
59.636474
11
308.825506
21
58.829915
0
LINE
8
Layer 1
10
308.825506
20
58.829915
11
307.707170
21
58.386480
0
LINE
8
Layer 1
10
307.707170
20
58.386480
11
268.723800
21
51.108800
0
LINE
8
Layer 1
10
268.723800
20
51.108800
11
267.961800
21
51.108800
0
LINE
8
Layer 1
10
267.961800
20
51.108800
11
259.477140
21
52.896140
0
LINE
8
Layer 1
10
259.477140
20
52.896140
11
259.055580
21
52.936340
0
LINE
8
Layer 1
10
259.055580
20
52.936340
11
258.713740
21
52.896140
0
LINE
8
Layer 1
10
258.713740
20
52.896140
11
247.685190
21
49.875520
0
LINE
8
Layer 1
10
247.685190
20
49.875520
11
247.107002
21
49.529262
0
LINE
8
Layer 1
10
247.107002
20
49.529262
11
246.879110
21
48.895800
0
LINE
8
Layer 1
10
246.879110
20
48.895800
11
249.566220
21
33.035910
0
LINE
8
Layer 1
10
249.566220
20
33.035910
11
249.427570
21
32.318317
0
LINE
8
Layer 1
10
249.427570
20
32.318317
11
248.844440
21
31.887990
0
LINE
8
Layer 1
10
248.844440
20
31.887990
11
212.668120
21
18.614580
0
LINE
8
Layer 1
10
212.668120
20
18.614580
11
212.251850
21
18.295040
0
LINE
8
Layer 1
10
212.251850
20
18.295040
11
198.448007
21
6.259170
0
LINE
8
Layer 1
10
198.448007
20
6.259170
11
198.066292
21
6.005600
0
LINE
8
Layer 1
10
198.066292
20
6.005600
11
192.630474
21
3.491416
0
LINE
8
Layer 1
10
192.630474
20
3.491416
11
187.069521
21
1.018490
0
LINE
8
Layer 1
10
187.069521
20
1.018490
11
185.759695
21
0.407449
0
LINE
8
Layer 1
10
185.759695
20
0.407449
11
184.354896
21
0.210880
0
LINE
8
Layer 1
10
184.354896
20
0.210880
11
182.785388
21
0.210880
0
LINE
8
Layer 1
10
182.785388
20
0.210880
11
155.127963
21
0.125010
 0 
ENDSEC
 0 
EOF