<?xml version="1.0" encoding="UTF-8" standalone="no"?>
<!-- Created with Inkscape (http://www.inkscape.org/) -->

<svg
   width="310.32999mm"
   height="120.26081mm"
   viewBox="0 0 310.32998 120.26081"
   version="1.1"
   id="svg1"
   inkscape:version="1.3.2 (091e20e, 2023-11-25, custom)"
   sodipodi:docname="lower_middle_plate.svg"
   xmlns:inkscape="http://www.inkscape.org/namespaces/inkscape"
   xmlns:sodipodi="http://sodipodi.sourceforge.net/DTD/sodipodi-0.dtd"
   xmlns="http://www.w3.org/2000/svg"
   xmlns:svg="http://www.w3.org/2000/svg">
  <sodipodi:namedview
     id="namedview1"
     pagecolor="#505050"
     bordercolor="#eeeeee"
     borderopacity="1"
     inkscape:showpageshadow="0"
     inkscape:pageopacity="0"
     inkscape:pagecheckerboard="0"
     inkscape:deskcolor="#d1d1d1"
     inkscape:document-units="mm"
     inkscape:zoom="0.94867184"
     inkscape:cx="566.58159"
     inkscape:cy="291.46011"
     inkscape:window-width="1920"
     inkscape:window-height="991"
     inkscape:window-x="-9"
     inkscape:window-y="-9"
     inkscape:window-maximized="1"
     inkscape:current-layer="layer1" />
  <defs
     id="defs1">
    <clipPath
       clipPathUnits="userSpaceOnUse"
       id="clipPath385-5">
      <path
         d="M 0,0 H 1192 V 844 H 0 Z"
         transform="scale(1.0015343,1)"
         id="path385-6-6" />
    </clipPath>
    <clipPath
       clipPathUnits="userSpaceOnUse"
       id="clipPath388-8">
      <path
         d="M 0,0 H 1192 V 844 H 0 Z"
         transform="scale(1.0015343,1)"
         id="path388-2-0" />
    </clipPath>
  </defs>
  <g
     inkscape:label="Katman 1"
     inkscape:groupmode="layer"
     id="layer1"
     transform="translate(-20.910534,-394.82537)">
    <g
       id="g2"
       transform="translate(126.31481,-230.28481)"
       style="stroke:#000000;stroke-width:0.25;stroke-dasharray:none">
      <path
         id="path386-6-5"
         clip-path="url(#clipPath385-5)"
         style="fill:none;stroke:#000000;stroke-width:0.709205;stroke-linecap:round;stroke-linejoin:bevel;stroke-miterlimit:4;stroke-dasharray:none;stroke-opacity:1"
         d="m 519.50282,404.32371 c -1.577,0 -2.84322,1.26633 -2.84322,2.84033 v 45.46143 c 0,1.57399 1.26622,2.83886 2.84322,2.83886 h 11.27167 v 6.98731 c 0,1.09509 0.88233,1.97607 1.9791,1.97607 h 18.95482 c 1.09678,0 1.98057,-0.88098 1.98057,-1.97607 v -6.98731 h 11.2746 c 1.573,0 2.84029,-1.26487 2.84029,-2.83886 v -45.46143 c 0,-1.574 -1.26729,-2.84033 -2.84029,-2.84033 z"
         transform="matrix(0.35223733,0,0,0.35277776,-160.86627,536.37938)" />
      <path
         id="path389-3-6"
         clip-path="url(#clipPath388-8)"
         style="fill:none;stroke:#000000;stroke-width:0.709205;stroke-linecap:round;stroke-linejoin:bevel;stroke-miterlimit:4;stroke-dasharray:none;stroke-opacity:1"
         d="m 629.36629,404.26161 c -1.57699,0 -2.84322,1.26533 -2.84322,2.84033 v 45.45996 c 0,1.579 1.26623,2.84473 2.84322,2.84473 h 11.27167 v 7.04297 c 0,1.09509 0.88233,1.97607 1.9791,1.97607 h 18.95482 c 1.09678,0 1.98058,-0.88098 1.98058,-1.97607 v -7.04297 h 11.27459 c 1.573,0 2.84029,-1.26573 2.84029,-2.84473 v -45.45996 c 0,-1.575 -1.26729,-2.84033 -2.84029,-2.84033 z"
         transform="matrix(0.35223733,0,0,0.35277776,-160.89791,536.3801)" />
      <path
         id="path4723"
         d="m 68.139545,646.36429 c 0,1.18496 -0.972952,2.15797 -2.159344,2.15797 -1.227667,0 -2.202048,-0.97301 -2.202048,-2.15797 0,-1.22801 0.974381,-2.20207 2.202048,-2.20207 1.186392,0 2.159344,0.97406 2.159344,2.20207 z"
         style="fill:none;stroke:#000000;stroke-width:0.25;stroke-linecap:butt;stroke-linejoin:miter;stroke-miterlimit:4;stroke-dasharray:none;stroke-opacity:1" />
      <path
         id="path4736"
         d="m 84.293072,732.29926 c 0,1.18497 -0.974011,2.15937 -2.159344,2.15937 -1.227667,0 -2.202048,-0.9744 -2.202048,-2.15937 0,-1.22801 0.974381,-2.20207 2.202048,-2.20207 1.185333,0 2.159344,0.97406 2.159344,2.20207 z"
         style="fill:none;stroke:#000000;stroke-width:0.25;stroke-linecap:butt;stroke-linejoin:miter;stroke-miterlimit:4;stroke-dasharray:none;stroke-opacity:1" />
      <path
         id="path4743"
         d="m 163.27668,684.37404 c 0,1.18496 -0.97439,2.15797 -2.15935,2.15797 -1.22767,0 -2.20205,-0.97301 -2.20205,-2.15797 0,-1.22798 0.97438,-2.20242 2.20205,-2.20242 1.18496,0 2.15935,0.97444 2.15935,2.20242 z"
         style="fill:none;stroke:#000000;stroke-width:0.25;stroke-linecap:butt;stroke-linejoin:miter;stroke-miterlimit:4;stroke-dasharray:none;stroke-opacity:1" />
      <path
         id="path4744"
         d="m 156.92387,632.25642 c 0,1.18496 -0.97401,2.15796 -2.15934,2.15796 -1.22767,0 -2.20205,-0.973 -2.20205,-2.15796 0,-1.22799 0.97438,-2.20208 2.20205,-2.20208 1.18533,0 2.15934,0.97409 2.15934,2.20208 z"
         style="fill:none;stroke:#000000;stroke-width:0.25;stroke-linecap:butt;stroke-linejoin:miter;stroke-miterlimit:4;stroke-dasharray:none;stroke-opacity:1" />
      <path
         id="path4747"
         d="m 111.86337,696.22843 c 0,1.18531 -0.97435,2.1594 -2.15934,2.1594 -1.22944,0 -2.20205,-0.97409 -2.20205,-2.1594 0,-1.22764 0.97261,-2.20207 2.20205,-2.20207 1.18499,0 2.15934,0.97443 2.15934,2.20207 z"
         style="fill:none;stroke:#000000;stroke-width:0.25;stroke-linecap:butt;stroke-linejoin:miter;stroke-miterlimit:4;stroke-dasharray:none;stroke-opacity:1" />
      <path
         id="path4761"
         d="m 19.158847,732.34194 c 0,1.18531 -0.974381,2.15797 -2.15937,2.15797 -1.229413,0 -2.203794,-0.97266 -2.203794,-2.15797 0,-1.22764 0.974381,-2.20207 2.203794,-2.20207 1.184989,0 2.15937,0.97443 2.15937,2.20207 z"
         style="fill:none;stroke:#000000;stroke-width:0.25;stroke-linecap:butt;stroke-linejoin:miter;stroke-miterlimit:4;stroke-dasharray:none;stroke-opacity:1" />
      <path
         id="path4766"
         d="m -59.359272,684.55234 c 0,1.18497 -0.974011,2.1594 -2.159344,2.1594 -1.229069,0 -2.202048,-0.97443 -2.202048,-2.1594 0,-1.22764 0.972979,-2.20204 2.202048,-2.20204 1.185333,0 2.159344,0.9744 2.159344,2.20204 z"
         style="fill:none;stroke:#000000;stroke-width:0.25;stroke-linecap:butt;stroke-linejoin:miter;stroke-miterlimit:4;stroke-dasharray:none;stroke-opacity:1" />
      <path
         id="path4767"
         d="m -53.429431,632.38254 c 0,1.18531 -0.974354,2.15937 -2.160746,2.15937 -1.228037,0 -2.202048,-0.97406 -2.202048,-2.15937 0,-1.22764 0.974011,-2.20207 2.202048,-2.20207 1.186392,0 2.160746,0.97443 2.160746,2.20207 z"
         style="fill:none;stroke:#000000;stroke-width:0.25;stroke-linecap:butt;stroke-linejoin:miter;stroke-miterlimit:4;stroke-dasharray:none;stroke-opacity:1" />
      <path
         id="path4768"
         d="m -8.4117942,696.18504 c 0,1.18531 -0.9740371,2.1594 -2.1593708,2.1594 -1.229069,0 -2.202021,-0.97409 -2.202021,-2.1594 0,-1.22764 0.972952,-2.20067 2.202021,-2.20067 1.1853337,0 2.1593708,0.97303 2.1593708,2.20067 z"
         style="fill:none;stroke:#000000;stroke-width:0.25;stroke-linecap:butt;stroke-linejoin:miter;stroke-miterlimit:4;stroke-dasharray:none;stroke-opacity:1" />
      <path
         id="path4771"
         d="m 35.336874,646.31248 c 0,1.18499 -0.974381,2.158 -2.160773,2.158 -1.227666,0 -2.202021,-0.97301 -2.202021,-2.158 0,-1.22798 0.974355,-2.20204 2.202021,-2.20204 1.186392,0 2.160773,0.97406 2.160773,2.20204 z"
         style="fill:none;stroke:#000000;stroke-width:0.25;stroke-linecap:butt;stroke-linejoin:miter;stroke-miterlimit:4;stroke-dasharray:none;stroke-opacity:1" />
      <path
         id="path4911"
         d="m -88.446241,631.22049 -0.476752,2.70505 -1.847956,-0.32504 -0.629761,3.57042 1.8465,0.32515 -1.324425,7.51302 11.583988,2.04084 -0.573299,3.25239 8.791865,1.55014 0.578618,-3.27837 12.133791,2.13887 1.802554,-10.21565 0.500089,0.0871 0.629814,-3.57079 -0.501703,-0.0881 h 0.0026 l -13.792624,-2.43089 -0.476752,2.70502 -1.847903,-0.32536 -0.629841,3.57077 1.847983,0.32501 -0.251064,1.41939 -4.924795,-0.8681 0.723344,-4.09684 0.500222,0.0882 0.629761,-3.57042 -0.500221,-0.0882 -1.06e-4,-0.003 z"
         style="fill:none;stroke:#000000;stroke-width:0.25;stroke-linecap:round;stroke-linejoin:bevel;stroke-miterlimit:4;stroke-dasharray:none;stroke-opacity:1" />
      <path
         id="path4912"
         d="m -91.753691,650.00244 -0.476594,2.70497 -1.84822,-0.32515 -0.629709,3.57042 1.84785,0.32515 -1.325377,7.51327 11.600047,2.04372 -0.865372,4.90564 -11.629311,-2.04901 -0.47662,2.70496 -1.84785,-0.32514 -0.630052,3.57042 1.848194,0.32514 -1.325722,7.51327 13.792888,2.43059 1.802342,-10.21646 0.500247,0.0882 0.626878,-3.55809 4.403037,0.77589 -0.472731,2.68134 -1.846792,-0.32517 -0.631111,3.57042 1.848194,0.32552 -1.325747,7.51292 13.792914,2.43094 1.802342,-10.21683 0.500247,0.0882 0.629709,-3.57042 -0.500248,-0.0882 v 0 l -12.067461,-2.12625 0.86958,-4.92255 12.117229,2.13612 1.802341,-10.21681 0.498819,0.0882 0.631111,-3.57042 -0.500221,-0.0882 v -0.003 l -13.792915,-2.43094 -0.476594,2.70497 -1.84785,-0.32515 -0.630078,3.57042 1.846791,0.32552 -0.544327,3.08515 -4.923711,-0.86651 1.017059,-5.7644 0.498819,0.0882 0.63111,-3.57042 -0.50165,-0.0885 v 0 z"
         style="fill:none;stroke:#000000;stroke-width:0.25;stroke-linecap:round;stroke-linejoin:bevel;stroke-miterlimit:4;stroke-dasharray:none;stroke-opacity:1" />
      <path
         id="path4913"
         d="m -30.357976,630.75742 -0.476594,2.70497 -1.848194,-0.32515 -0.629708,3.57182 1.848194,0.32517 -0.668523,3.78836 -4.963583,-0.87532 0.524933,-2.98183 0.500248,0.0882 0.629708,-3.57079 -0.500248,-0.0882 h 0.0026 l -13.793946,-2.43094 -0.476964,2.70497 -1.846448,-0.32517 -0.630052,3.57042 1.846791,0.32517 -1.325747,7.51184 11.818064,2.08356 -0.376052,2.1372 6.91761,1.21952 -0.363722,2.06311 -1.848194,-0.32517 -0.629709,3.57045 1.846792,0.32514 -1.324319,7.51327 13.792544,2.4306 1.802685,-10.21541 0.498846,0.0871 0.63111,-3.57076 -0.500247,-0.0882 v 0 l -11.91858,-2.10013 0.883338,-5.00615 11.939058,2.10402 1.802712,-10.21541 0.500222,0.0882 0.629708,-3.57182 -0.500221,-0.0882 v -0.003 z"
         style="fill:none;stroke:#000000;stroke-width:0.25;stroke-linecap:round;stroke-linejoin:bevel;stroke-miterlimit:4;stroke-dasharray:none;stroke-opacity:1" />
      <path
         id="path4914"
         d="m -53.033879,649.72751 -0.476594,2.7064 -1.846447,-0.32657 -0.631481,3.57182 1.84822,0.32517 -1.325748,7.51184 13.792915,2.43096 1.802341,-10.21543 0.500221,0.0882 0.629709,-3.57042 -0.500221,-0.0885 v -0.003 z"
         style="fill:none;stroke:#000000;stroke-width:0.25;stroke-linecap:round;stroke-linejoin:bevel;stroke-miterlimit:4;stroke-dasharray:none;stroke-opacity:1" />
      <path
         id="path4915"
         d="m -36.98182,668.30322 -0.476594,2.70497 -1.846791,-0.32517 -0.631137,3.57042 1.84822,0.32657 -0.978614,5.54678 -4.963584,-0.87532 0.835025,-4.74022 0.500248,0.0882 0.629708,-3.57042 -0.500247,-0.0882 v -0.003 l -13.792915,-2.43237 -0.477996,2.7064 -1.846447,-0.32658 -0.630053,3.57183 1.846792,0.32517 -1.325748,7.51184 11.800073,2.08076 -0.686171,3.89594 8.791946,1.54998 1.306327,-7.40677 11.95705,2.10685 1.802685,-10.21541 0.500248,0.0882 0.629708,-3.57182 -0.500247,-0.0882 v -0.003 z"
         style="fill:none;stroke:#000000;stroke-width:0.25;stroke-linecap:round;stroke-linejoin:bevel;stroke-miterlimit:4;stroke-dasharray:none;stroke-opacity:1" />
      <path
         id="path4916"
         d="m -12.166311,637.5701 -0.476964,2.70639 -1.846448,-0.32657 -0.629708,3.57042 1.846447,0.32692 -1.325747,7.51152 13.79291375,2.43094 1.80234164,-10.21541 0.50024771,0.0882 0.6297083,-3.57042 -0.5002477,-0.0882 v -0.003 z"
         style="fill:none;stroke:#000000;stroke-width:0.25;stroke-linecap:round;stroke-linejoin:bevel;stroke-miterlimit:4;stroke-dasharray:none;stroke-opacity:1" />
      <path
         id="path4917"
         d="m -15.467676,656.2913 -0.476964,2.70497 -1.846422,-0.32518 -0.631137,3.57079 1.84785,0.32658 -1.325721,7.51149 13.7928878,2.43094 1.8023416,-10.2154 0.5002477,0.0882 0.6297084,-3.57042 -0.5002477,-0.0896 v 0 z"
         style="fill:none;stroke:#000000;stroke-width:0.25;stroke-linecap:round;stroke-linejoin:bevel;stroke-miterlimit:4;stroke-dasharray:none;stroke-opacity:1" />
      <path
         id="path4918"
         d="m -18.782773,675.04494 -0.478367,2.70531 -1.846447,-0.32552 -0.629709,3.57079 1.846448,0.32658 -1.324345,7.51149 13.792914,2.43094 1.8009393,-10.2154 0.5002213,0.0882 0.6297083,-3.57042 -0.5002213,-0.0896 v -0.003 z"
         style="fill:none;stroke:#000000;stroke-width:0.25;stroke-linecap:round;stroke-linejoin:bevel;stroke-miterlimit:4;stroke-dasharray:none;stroke-opacity:1" />
      <path
         id="path4919"
         d="m 5.9674631,644.3651 -0.4780227,2.70531 -1.8467917,-0.32552 -0.6297083,3.57079 1.8467917,0.32515 -1.324319,7.51292 13.7925439,2.43094 1.801283,-10.21683 0.500248,0.0882 0.629708,-3.57042 -0.500247,-0.0882 v -0.003 z"
         style="fill:none;stroke:#000000;stroke-width:0.25;stroke-linecap:round;stroke-linejoin:bevel;stroke-miterlimit:4;stroke-dasharray:none;stroke-opacity:1" />
      <path
         id="path4920"
         d="m 2.6660981,663.10371 -0.4779962,2.70531 -1.84679167,-0.32552 -0.62970832,3.57079 1.84679169,0.32515 -1.32434545,7.51152 13.79256985,2.43234 1.801284,-10.2168 0.500221,0.0882 0.629708,-3.57042 -0.500221,-0.0882 v -0.003 z"
         style="fill:none;stroke:#000000;stroke-width:0.25;stroke-linecap:round;stroke-linejoin:bevel;stroke-miterlimit:4;stroke-dasharray:none;stroke-opacity:1" />
      <path
         id="path4921"
         d="m -0.6678635,681.83991 -0.4779962,2.70532 -1.8467917,-0.32515 -0.6297083,3.57042 1.8467916,0.32515 -1.3243189,7.51292 7.4248961,1.30805 -1.6481689,9.34151 8.7739268,1.54609 -1.146519,1.36165 -1.4358139,-1.20859 -2.3371439,2.77127 1.4343856,1.20859 -4.9170166,5.83317 10.7089308,9.02337 6.687608,-7.93186 0.388753,0.32655 2.337144,-2.77268 -0.388753,-0.32798 h 0.0026 l -10.710333,-9.0234 -0.599361,0.71239 1.646767,-9.34042 -2.422525,-0.42709 1.79705,-10.18649 0.500248,0.0882 0.628279,-3.57042 -0.500221,-0.0882 h 0.0026 z"
         style="fill:none;stroke:#000000;stroke-width:0.25;stroke-linecap:round;stroke-linejoin:bevel;stroke-miterlimit:4;stroke-dasharray:none;stroke-opacity:1" />
      <path
         id="path4922"
         d="m -34.50786,694.65207 -0.476594,2.70499 -1.848194,-0.32517 -0.629708,3.57042 1.846792,0.32658 -1.324346,7.51186 13.792571,2.43094 1.802685,-10.2154 0.498819,0.0882 0.631137,-3.57077 -0.50165,-0.0896 v 0 z"
         style="fill:none;stroke:#000000;stroke-width:0.25;stroke-linecap:round;stroke-linejoin:bevel;stroke-miterlimit:4;stroke-dasharray:none;stroke-opacity:1" />
      <path
         id="path4923"
         d="m 82.876942,665.54105 0.478023,2.70531 -1.84785,0.32518 0.629708,3.57182 1.846448,-0.32655 1.325721,7.5129 13.792917,-2.432 -1.801283,-10.21543 0.498819,-0.0882 -0.629709,-3.57076 -0.500247,0.0882 v -0.003 z"
         style="fill:none;stroke:#000000;stroke-width:0.25;stroke-linecap:round;stroke-linejoin:bevel;stroke-miterlimit:4;stroke-dasharray:none;stroke-opacity:1" />
      <path
         id="path4924"
         d="m 100.48891,681.77753 -0.500223,0.0882 v -0.003 l -13.792573,2.43234 0.47662,2.705 -1.846448,0.32691 0.629709,3.57042 1.846447,-0.32657 1.321488,7.49104 -2.769658,0.48773 1.482725,8.4087 -10.722663,8.94334 1.761411,2.11003 -1.440048,1.20152 2.323412,2.78363 1.440021,-1.20012 4.887754,5.85642 10.754069,-8.96943 -6.647392,-7.96504 0.389811,-0.32658 -1.400175,-1.6773 7.616481,-1.34226 -1.649227,-9.34995 7.770629,-1.37118 -1.80128,-10.21506 0.49882,-0.0885 z"
         style="fill:none;stroke:#000000;stroke-width:0.25;stroke-linecap:round;stroke-linejoin:bevel;stroke-miterlimit:4;stroke-dasharray:none;stroke-opacity:1" />
      <path
         id="path4925"
         d="m 42.783651,705.56896 v 2.74765 h -1.876795 v 3.6258 h 1.875367 v 7.62717 h 14.006353 v -10.37379 h 0.507286 l 0.0026,-3.62542 h -0.508715 v -0.003 z"
         style="fill:none;stroke:#000000;stroke-width:0.25;stroke-linecap:round;stroke-linejoin:bevel;stroke-miterlimit:4;stroke-dasharray:none;stroke-opacity:1" />
      <path
         id="path4926"
         d="m 25.678154,714.2243 v 10.25563 h -1.956858 v 2.74764 h -1.875711 v 3.6258 h 1.875711 v 7.62857 H 37.72622 v -10.37376 l 0.508715,-0.003 v -3.62543 H 37.72622 v 0 h -3.121369 v -10.25562 z"
         style="fill:none;stroke:#000000;stroke-width:0.25;stroke-linecap:round;stroke-linejoin:bevel;stroke-miterlimit:4;stroke-dasharray:none;stroke-opacity:1" />
      <path
         id="path4927"
         d="m 42.81257,724.47993 v 2.74764 h -1.875366 v 3.6258 h 1.875366 v 7.62857 l 14.006327,-0.003 v -10.37235 h 0.507313 v -3.62683 h -0.507313 v 0 z"
         style="fill:none;stroke:#000000;stroke-width:0.25;stroke-linecap:round;stroke-linejoin:bevel;stroke-miterlimit:4;stroke-dasharray:none;stroke-opacity:1" />
      <path
         id="path4928"
         d="m 64.418789,714.21901 v 10.26092 h -2.536825 v 2.74764 h -1.875711 v 3.6258 h 1.875711 v 7.62857 h 14.004925 v -10.37376 l 0.50837,-0.003 v -3.62543 h -0.50837 v 0 H 73.345831 V 714.2192 Z"
         style="fill:none;stroke:#000000;stroke-width:0.25;stroke-linecap:round;stroke-linejoin:bevel;stroke-miterlimit:4;stroke-dasharray:none;stroke-opacity:1" />
      <path
         id="path4929"
         d="m 120.05574,697.19871 0.47837,2.70497 -1.84822,0.32517 0.62971,3.57042 1.84679,-0.32517 1.32575,7.51327 13.79257,-2.43237 -1.80094,-10.21541 0.49882,-0.0882 -0.62971,-3.57185 -0.50025,0.0882 v -0.003 z"
         style="fill:none;stroke:#000000;stroke-width:0.25;stroke-linecap:round;stroke-linejoin:bevel;stroke-miterlimit:4;stroke-dasharray:none;stroke-opacity:1" />
      <path
         id="path4930"
         d="m 101.18071,658.96232 0.47837,2.70497 -1.848193,0.32517 0.630053,3.57042 1.84645,-0.32517 1.32572,7.51326 13.79257,-2.43236 -1.80094,-10.21541 0.49882,-0.0882 -0.62971,-3.57185 -0.50022,0.0882 v -0.003 z"
         style="fill:none;stroke:#000000;stroke-width:0.25;stroke-linecap:round;stroke-linejoin:bevel;stroke-miterlimit:4;stroke-dasharray:none;stroke-opacity:1" />
      <path
         id="path4931"
         d="m 104.3192,677.57036 0.47837,2.70531 -1.8482,0.32517 0.62971,3.57042 1.84679,-0.32517 1.32575,7.51292 13.79255,-2.43202 -1.80094,-10.2154 0.49884,-0.0882 -0.62971,-3.57042 -0.50024,0.0868 v 0 z"
         style="fill:none;stroke:#000000;stroke-width:0.25;stroke-linecap:round;stroke-linejoin:bevel;stroke-miterlimit:4;stroke-dasharray:none;stroke-opacity:1" />
      <path
         id="path4932"
         d="m 130.19968,630.76536 -0.50022,0.0882 v 0 l -13.79291,2.43096 0.47696,2.70637 -1.84679,0.32517 0.62865,3.57077 1.84785,-0.32552 1.32572,7.51327 11.95319,-2.1086 0.88334,5.00647 -11.97539,2.11109 0.47697,2.70533 -1.8468,0.32658 0.62865,3.57042 1.84785,-0.32658 1.32573,7.5129 13.79116,-2.432 -1.80094,-10.2154 0.50023,-0.0882 -0.62442,-3.5443 6.47419,-1.14125 -0.2854,-1.61486 11.79478,-2.07936 -1.80234,-10.21541 0.50025,-0.0882 -0.63008,-3.57219 -0.49988,0.0882 v 0 l -13.79291,2.43202 0.47662,2.70532 -1.84645,0.32517 0.5856,3.32637 -3.10727,0.5484 -1.03645,-5.87865 0.50022,-0.0882 z"
         style="fill:none;stroke:#000000;stroke-width:0.25;stroke-linecap:round;stroke-linejoin:bevel;stroke-miterlimit:4;stroke-dasharray:none;stroke-opacity:1" />
      <path
         id="path4933"
         d="m 136.79495,668.28372 -0.50024,0.0882 v 0 l -13.79292,2.4306 0.47697,2.70531 -1.8468,0.32657 0.63006,3.57042 1.84644,-0.32514 1.32575,7.51149 11.71469,-2.06557 1.24003,7.0322 8.79191,-1.55033 -0.63783,-3.61204 12.03431,-2.12201 -1.80234,-10.2154 0.50025,-0.0882 -0.63005,-3.57042 -0.50025,0.0882 v -0.003 l -13.79255,2.43234 0.4766,2.70499 -1.84645,0.32658 0.62971,3.57042 1.84645,-0.32658 0.31009,1.75416 -4.95546,0.87252 -1.38891,-7.87546 0.50025,-0.0882 z"
         style="fill:none;stroke:#000000;stroke-width:0.25;stroke-linecap:round;stroke-linejoin:bevel;stroke-miterlimit:4;stroke-dasharray:none;stroke-opacity:1" />
      <path
         id="path4934"
         d="m 138.56806,652.23158 0.47662,2.70497 -1.84645,0.32515 0.62971,3.57185 1.84645,-0.32658 1.32572,7.51327 13.79291,-2.43237 -1.80234,-10.2154 0.50025,-0.0882 -0.63008,-3.57042 -0.50022,0.0882 v -0.003 z"
         style="fill:none;stroke:#000000;stroke-width:0.25;stroke-linecap:round;stroke-linejoin:bevel;stroke-miterlimit:4;stroke-dasharray:none;stroke-opacity:1" />
      <path
         id="path4935"
         d="m 188.3075,631.15429 -0.50025,0.0882 v -0.003 l -13.79291,2.432 0.47696,2.70531 -1.84679,0.32658 0.62725,3.56055 -3.14891,0.55546 -0.47694,-2.70779 0.49882,-0.0882 -0.62971,-3.57042 -0.50025,0.0882 v -0.003 l -13.79254,2.43094 0.47659,2.70497 -1.84642,0.32657 0.62971,3.57042 1.84642,-0.32514 1.32575,7.51183 11.23527,-1.98022 0.59372,3.36762 8.79192,-1.5489 -0.59124,-3.35531 12.55395,-2.21441 -1.80094,-10.2154 0.50025,-0.0882 z"
         style="fill:none;stroke:#000000;stroke-width:0.25;stroke-linecap:round;stroke-linejoin:bevel;stroke-miterlimit:4;stroke-dasharray:none;stroke-opacity:1" />
      <path
         id="path4936"
         d="m 191.67501,649.93185 -0.50025,0.0882 v 0 l -13.79291,2.43097 0.47697,2.70496 -1.8468,0.32658 0.62865,3.57042 1.84785,-0.32517 0.54576,3.09115 -4.99816,0.88061 -1.02413,-5.80705 0.50025,-0.0885 -0.62971,-3.57182 -0.50025,0.0882 v -0.003 l -13.79254,2.43093 0.47802,2.7064 -1.84785,0.32552 0.62971,3.57042 1.84642,-0.32518 1.32575,7.51293 11.708,-2.06418 0.86923,4.92221 -11.7602,2.07121 0.47697,2.70639 -1.84645,0.32515 0.62971,3.57219 1.84645,-0.32657 1.32572,7.51152 13.79291,-2.43097 -1.80268,-10.2154 0.50022,-0.0896 -0.62124,-3.52914 4.49651,-0.79211 0.4713,2.67605 -1.84679,0.32517 0.62971,3.57042 1.84679,-0.32517 1.32575,7.51186 13.79254,-2.43094 -1.80234,-10.21683 0.50025,-0.0882 -0.62971,-3.57042 -0.50025,0.0882 v 0 l -12.03182,2.12058 -0.8682,-4.9222 12.08124,-2.12905 -1.80094,-10.21683 0.50025,-0.0882 z"
         style="fill:none;stroke:#000000;stroke-width:0.25;stroke-linecap:round;stroke-linejoin:bevel;stroke-miterlimit:4;stroke-dasharray:none;stroke-opacity:1" />
      <path
         id="path4937"
         d="m -11.787904,699.83208 -1.163108,2.49021 -1.69934,-0.79386 -1.533525,3.28512 1.698996,0.79386 -3.227229,6.91229 12.6901309,5.92272 4.38925226,-9.39966 0.46003104,0.2137 1.5352977,-3.28512 -0.46037501,-0.2151 v 0 z"
         style="fill:none;stroke:#000000;stroke-width:0.25;stroke-linecap:round;stroke-linejoin:bevel;stroke-miterlimit:4;stroke-dasharray:none;stroke-opacity:1" />
      <path
         id="path4938"
         d="m 98.510195,705.61164 1.125696,2.50534 -1.709896,0.76883 1.486958,3.30734 1.709897,-0.76917 3.12949,6.9578 12.77445,-5.74074 -4.25521,-9.46177 0.46284,-0.20806 -1.48696,-3.30735 -0.46284,0.20807 v 0 z"
         style="fill:none;stroke:#000000;stroke-width:0.25;stroke-linecap:round;stroke-linejoin:bevel;stroke-miterlimit:4;stroke-dasharray:none;stroke-opacity:1" />
      <path
         id="path4939"
         d="m 20.94161,652.65788 8.792104,1.54871 -1.653778,9.37207 -8.791708,-1.54903 z"
         style="fill:none;stroke:#000000;stroke-width:0.25;stroke-linecap:round;stroke-linejoin:bevel;stroke-miterlimit:4;stroke-dasharray:none;stroke-opacity:1" />
      <path
         id="path4940"
         d="m 40.443623,635.19811 h 17.998731 v 33.10998 H 40.443623 Z"
         style="fill:none;stroke:#000000;stroke-width:0.25;stroke-linecap:round;stroke-linejoin:bevel;stroke-miterlimit:4;stroke-dasharray:none;stroke-opacity:1" />
      <path
         id="path4943"
         d="m 49.723963,745.24599 -27.614403,-0.0854 h -1.569509 c -0.933079,0 -1.908862,-0.29765 -2.672291,-0.80761 L 6.977166,739.38639 C 6.7746804,739.28447 6.8491077,739.34654 6.548541,739.1039 L -7.2867065,726.98691 c -0.1735667,-0.14603 -0.1075796,-0.10052 -0.4219046,-0.23419 L -43.949489,713.48355 c -0.509747,-0.16965 -0.80608,-0.68067 -0.722128,-1.19062 l 2.687109,-15.81719 c 0,-0.46837 -0.339011,-0.89437 -0.806106,-0.97973 l -11.028522,-3.06329 c -0.254714,-0.0426 -0.50837,-0.0426 -0.763428,0.0427 l -8.484659,1.74466 c -0.253285,0.0853 -0.508343,0.0853 -0.763402,0.0427 l -38.981935,-7.27769 c -1.65489,-0.29765 -2.71462,-1.87266 -2.41689,-3.53163 l 9.924707,-55.70728 c 0.297391,-1.44698 1.526804,-2.511 2.969683,-2.511 l 60.064279,0.16965 h 0.255058 l 17.90065,3.277 c 0.296333,0.0427 0.592667,0.25498 0.720725,0.55404 l 0.804704,1.95662 c 5.8486935,1.21142 11.69704341,2.42281 17.5453933,3.63389 l -0.7771606,4.40555 c -0.099483,0.5678 0.2769129,1.10527 0.8431213,1.2047 l 8.689975,1.53096 c 0.566579,0.10049 1.103842,-0.2758 1.204383,-0.8422 l 0.720725,-4.08707 c 1.620679,0.33467 3.241331,0.67112 4.861639,1.00722 0.1778,0.0346 0.516811,0.0787 0.919348,-0.0275 0.377455,-0.10052 0.637805,-0.28533 0.777161,-0.39958 l 6.57471,-5.65964 c 0.551048,-0.50996 1.187821,-0.80762 1.823165,-0.80762 h 1.018116 l 7.805209,-0.007 20.784952,0.008 h 7.678578 1.018461 c 0.635344,0 1.271773,0.29625 1.823164,0.80761 l 6.574367,5.65965 c 0.467413,0.42566 1.103841,0.55404 1.69791,0.42566 l 5.028486,-1.04036 1.537758,8.72008 -5.976408,1.05307 0.478023,2.7064 -1.84785,0.32514 0.476964,2.70391 -8.786654,1.54892 1.653832,9.37184 8.791918,-1.55033 -1.499288,-8.50532 1.840786,-0.32375 1.324319,7.51184 13.792914,-2.43094 -1.801283,-10.2154 0.499189,-0.0896 -0.620183,-3.51681 2.696609,-0.47541 0.494956,2.80586 1.846448,-0.32518 1.325721,7.5115 13.79257,-2.43094 -1.80094,-10.21649 0.49882,-0.0885 -0.62971,-3.57042 -0.50022,0.0882 v -0.003 l -13.792914,2.43094 0.478367,2.7064 -1.102439,0.19431 -1.474605,-8.36036 16.361491,-3.38881 0.80468,-1.91534 c 0.127,-0.34034 0.42439,-0.55264 0.72072,-0.59532 l 17.8375,-3.22199 0.31821,-0.055 60.06465,-0.12661 c 1.44145,-0.043 2.71463,1.02098 2.96968,2.46798 l 9.96739,55.74993 c 0.25471,1.61629 -0.80502,3.1913 -2.45991,3.48896 l -38.98337,7.27768 c -0.25363,0.0427 -0.50834,0.0427 -0.762,0 l -8.48466,-1.78734 c -0.11006,-0.0251 -0.25363,-0.0441 -0.42156,-0.0402 -0.13229,0.003 -0.24799,0.0193 -0.34184,0.0402 l -11.02855,3.02062 c -0.46706,0.0854 -0.80608,0.51138 -0.80608,0.97972 l 2.68711,15.85989 c 0.0843,0.50996 -0.21344,1.02098 -0.72178,1.14792 l -36.17632,13.27341 c -0.11853,0.0494 -0.15028,0.0674 -0.41627,0.31954 l -13.803843,12.03587 c -0.136525,0.0963 -0.128059,0.11991 -0.381715,0.25357 -3.49885,1.72104 -7.331075,3.32108 -10.996771,4.98711 -0.806106,0.55263 -1.781889,0.80761 -2.714625,0.80761 h -1.569508 z"
         style="fill:none;stroke:#000000;stroke-width:0.25;stroke-linecap:round;stroke-linejoin:round;stroke-miterlimit:10;stroke-dasharray:none;stroke-opacity:1" />
    </g>
  </g>
</svg>
