999
"DXF R12 Output" (www.mydxf.blogspot.com)
 0 
SECTION
 2 
HEADER
 9 
$ACADVER
 1 
AC1009
 9 
$EXTMIN
 10 
 0 
 20 
 0 
 9 
$EXTMAX
 10 
 8.5 
 20 
 11 
 0 
ENDSEC
 0 
SECTION
 2 
ENTITIES
0
LINE
8
Layer 1
10
283.166260
20
2.282650
11
283.079378
21
1.854682
0
LINE
8
Layer 1
10
283.079378
20
1.854682
11
282.842675
21
1.505562
0
LINE
8
Layer 1
10
282.842675
20
1.505562
11
282.492070
21
1.270611
0
LINE
8
Layer 1
10
282.492070
20
1.270611
11
282.063480
21
1.185150
0
LINE
8
Layer 1
10
282.063480
20
1.185150
11
281.635573
21
1.272933
0
LINE
8
Layer 1
10
281.635573
20
1.272933
11
281.286575
21
1.509665
0
LINE
8
Layer 1
10
281.286575
20
1.509665
11
281.051742
21
1.859925
0
LINE
8
Layer 1
10
281.051742
20
1.859925
11
280.966330
21
2.288290
0
LINE
8
Layer 1
10
280.966330
20
2.288290
11
281.053165
21
2.716049
0
LINE
8
Layer 1
10
281.053165
20
2.716049
11
281.289789
21
3.065063
0
LINE
8
Layer 1
10
281.289789
20
3.065063
11
281.640381
21
3.299974
0
LINE
8
Layer 1
10
281.640381
20
3.299974
11
282.069120
21
3.385430
0
LINE
8
Layer 1
10
282.069120
20
3.385430
11
282.496879
21
3.298175
0
LINE
8
Layer 1
10
282.496879
20
3.298175
11
282.845892
21
3.061601
0
LINE
8
Layer 1
10
282.845892
20
3.061601
11
283.080804
21
2.711247
0
LINE
8
Layer 1
10
283.080804
20
2.711247
11
283.166260
21
2.282650
0
LINE
8
Layer 1
10
283.166260
20
2.282650
11
283.166260
21
2.282650
0
LINE
8
Layer 1
10
262.853930
20
43.048230
11
262.199401
21
42.934049
0
LINE
8
Layer 1
10
262.199401
20
42.934049
11
261.629720
21
42.606110
0
LINE
8
Layer 1
10
261.629720
20
42.606110
11
254.438430
21
36.537120
0
LINE
8
Layer 1
10
254.438430
20
36.537120
11
254.144390
21
36.066410
0
LINE
8
Layer 1
10
254.144390
20
36.066410
11
254.133490
21
36.049110
0
LINE
8
Layer 1
10
254.133490
20
36.049110
11
254.169190
21
35.617340
0
LINE
8
Layer 1
10
254.169190
20
35.617340
11
254.180590
21
35.483270
0
LINE
8
Layer 1
10
254.180590
20
35.483270
11
254.181120
21
35.481270
0
LINE
8
Layer 1
10
254.181120
20
35.481270
11
254.181650
21
35.477270
0
LINE
8
Layer 1
10
254.181650
20
35.477270
11
266.934870
21
2.887910
0
LINE
8
Layer 1
10
266.934870
20
2.887910
11
267.320394
21
2.439324
0
LINE
8
Layer 1
10
267.320394
20
2.439324
11
267.902260
21
2.270810
0
LINE
8
Layer 1
10
267.902260
20
2.270810
11
267.938960
21
2.270810
0
LINE
8
Layer 1
10
267.938960
20
2.270810
11
276.665550
21
2.270810
0
LINE
8
Layer 1
10
276.665550
20
2.270810
11
277.809938
21
1.367254
0
LINE
8
Layer 1
10
277.809938
20
1.367254
11
279.105105
21
0.700787
0
LINE
8
Layer 1
10
279.105105
20
0.700787
11
280.511422
21
0.287255
0
LINE
8
Layer 1
10
280.511422
20
0.287255
11
281.989260
21
0.142500
0
LINE
8
Layer 1
10
281.989260
20
0.142500
11
282.059560
21
0.151500
0
LINE
8
Layer 1
10
282.059560
20
0.151500
11
282.130360
21
0.142500
0
LINE
8
Layer 1
10
282.130360
20
0.142500
11
283.608197
21
0.287348
0
LINE
8
Layer 1
10
283.608197
20
0.287348
11
285.014510
21
0.700870
0
LINE
8
Layer 1
10
285.014510
20
0.700870
11
286.309673
21
1.367285
0
LINE
8
Layer 1
10
286.309673
20
1.367285
11
287.454060
21
2.270810
0
LINE
8
Layer 1
10
287.454060
20
2.270810
11
296.180130
21
2.270810
0
LINE
8
Layer 1
10
296.180130
20
2.270810
11
296.217330
21
2.270810
0
LINE
8
Layer 1
10
296.217330
20
2.270810
11
296.799183
21
2.439327
0
LINE
8
Layer 1
10
296.799183
20
2.439327
11
297.184700
21
2.887910
0
LINE
8
Layer 1
10
297.184700
20
2.887910
11
309.937930
21
35.477270
0
LINE
8
Layer 1
10
309.937930
20
35.477270
11
309.990130
21
35.639920
0
LINE
8
Layer 1
10
309.990130
20
35.639920
11
310.011330
21
35.799620
0
LINE
8
Layer 1
10
310.011330
20
35.799620
11
310.005330
21
35.916440
0
LINE
8
Layer 1
10
310.005330
20
35.916440
11
310.002330
21
35.966240
0
LINE
8
Layer 1
10
310.002330
20
35.966240
11
310.002330
21
35.968240
0
LINE
8
Layer 1
10
310.002330
20
35.968240
11
309.995330
21
35.994340
0
LINE
8
Layer 1
10
309.995330
20
35.994340
11
309.681140
21
36.536520
0
LINE
8
Layer 1
10
309.681140
20
36.536520
11
302.489840
21
42.605510
0
LINE
8
Layer 1
10
302.489840
20
42.605510
11
301.920158
21
42.933449
0
LINE
8
Layer 1
10
301.920158
20
42.933449
11
301.265620
21
43.047630
0
LINE
8
Layer 1
10
301.265620
20
43.047630
11
300.980900
21
43.047630
0
LINE
8
Layer 1
10
300.980900
20
43.047630
11
263.138760
21
43.047630
0
LINE
8
Layer 1
10
263.138760
20
43.047630
11
262.853930
21
43.048230
0
LINE
8
Layer 1
10
303.300220
20
35.854030
11
303.213338
21
35.426064
0
LINE
8
Layer 1
10
303.213338
20
35.426064
11
302.976635
21
35.076947
0
LINE
8
Layer 1
10
302.976635
20
35.076947
11
302.626030
21
34.842000
0
LINE
8
Layer 1
10
302.626030
20
34.842000
11
302.197440
21
34.756540
0
LINE
8
Layer 1
10
302.197440
20
34.756540
11
301.769529
21
34.844321
0
LINE
8
Layer 1
10
301.769529
20
34.844321
11
301.420531
21
35.081050
0
LINE
8
Layer 1
10
301.420531
20
35.081050
11
301.185701
21
35.431307
0
LINE
8
Layer 1
10
301.185701
20
35.431307
11
301.100290
21
35.859670
0
LINE
8
Layer 1
10
301.100290
20
35.859670
11
301.187123
21
36.287429
0
LINE
8
Layer 1
10
301.187123
20
36.287429
11
301.423744
21
36.636442
0
LINE
8
Layer 1
10
301.423744
20
36.636442
11
301.774332
21
36.871354
0
LINE
8
Layer 1
10
301.774332
20
36.871354
11
302.203070
21
36.956810
0
LINE
8
Layer 1
10
302.203070
20
36.956810
11
302.630834
21
36.869555
0
LINE
8
Layer 1
10
302.630834
20
36.869555
11
302.979848
21
36.632981
0
LINE
8
Layer 1
10
302.979848
20
36.632981
11
303.214760
21
36.282627
0
LINE
8
Layer 1
10
303.214760
20
36.282627
11
303.300220
21
35.854030
0
LINE
8
Layer 1
10
303.300220
20
35.854030
11
303.300220
21
35.854030
0
LINE
8
Layer 1
10
263.032940
20
35.854030
11
262.945636
21
35.426064
0
LINE
8
Layer 1
10
262.945636
20
35.426064
11
262.708980
21
35.076947
0
LINE
8
Layer 1
10
262.708980
20
35.076947
11
262.358609
21
34.842000
0
LINE
8
Layer 1
10
262.358609
20
34.842000
11
261.930160
21
34.756540
0
LINE
8
Layer 1
10
261.930160
20
34.756540
11
261.502249
21
34.844321
0
LINE
8
Layer 1
10
261.502249
20
34.844321
11
261.153253
21
35.081050
0
LINE
8
Layer 1
10
261.153253
20
35.081050
11
260.918425
21
35.431307
0
LINE
8
Layer 1
10
260.918425
20
35.431307
11
260.833020
21
35.859670
0
LINE
8
Layer 1
10
260.833020
20
35.859670
11
260.920275
21
36.287429
0
LINE
8
Layer 1
10
260.920275
20
36.287429
11
261.156849
21
36.636442
0
LINE
8
Layer 1
10
261.156849
20
36.636442
11
261.507203
21
36.871354
0
LINE
8
Layer 1
10
261.507203
20
36.871354
11
261.935800
21
36.956810
0
LINE
8
Layer 1
10
261.935800
20
36.956810
11
262.363559
21
36.869555
0
LINE
8
Layer 1
10
262.363559
20
36.869555
11
262.712572
21
36.632981
0
LINE
8
Layer 1
10
262.712572
20
36.632981
11
262.947484
21
36.282627
0
LINE
8
Layer 1
10
262.947484
20
36.282627
11
263.032940
21
35.854030
0
LINE
8
Layer 1
10
263.032940
20
35.854030
11
263.032940
21
35.854030
0
LINE
8
Layer 1
10
279.332491
20
111.597310
11
293.316765
21
114.063111
0
LINE
8
Layer 1
10
293.316765
20
114.063111
11
295.782566
21
100.078838
0
LINE
8
Layer 1
10
295.782566
20
100.078838
11
281.798293
21
97.613036
0
LINE
8
Layer 1
10
281.798293
20
97.613036
11
279.332491
21
111.597310
0
LINE
8
Layer 1
10
282.621009
20
92.834187
11
296.605283
21
95.299988
0
LINE
8
Layer 1
10
296.605283
20
95.299988
11
299.071084
21
81.315715
0
LINE
8
Layer 1
10
299.071084
20
81.315715
11
285.086811
21
78.849913
0
LINE
8
Layer 1
10
285.086811
20
78.849913
11
282.621009
21
92.834187
0
LINE
8
Layer 1
10
285.937680
20
74.080536
11
299.921953
21
76.546338
0
LINE
8
Layer 1
10
299.921953
20
76.546338
11
302.387755
21
62.562064
0
LINE
8
Layer 1
10
302.387755
20
62.562064
11
288.403481
21
60.096263
0
LINE
8
Layer 1
10
288.403481
20
60.096263
11
285.937680
21
74.080536
0
LINE
8
Layer 1
10
16.848380
20
114.043621
11
30.832651
21
111.577820
0
LINE
8
Layer 1
10
30.832651
20
111.577820
11
28.366850
21
97.593547
0
LINE
8
Layer 1
10
28.366850
20
97.593547
11
14.382578
21
100.059348
0
LINE
8
Layer 1
10
14.382578
20
100.059348
11
16.848380
21
114.043621
0
LINE
8
Layer 1
10
13.539920
20
95.254466
11
27.524190
21
92.788665
0
LINE
8
Layer 1
10
27.524190
20
92.788665
11
25.058388
21
78.804391
0
LINE
8
Layer 1
10
25.058388
20
78.804391
11
11.074119
21
81.270192
0
LINE
8
Layer 1
10
11.074119
20
81.270192
11
13.539920
21
95.254466
0
LINE
8
Layer 1
10
10.203265
20
76.499740
11
24.187539
21
74.033938
0
LINE
8
Layer 1
10
24.187539
20
74.033938
11
21.721737
21
60.049664
0
LINE
8
Layer 1
10
21.721737
20
60.049664
11
7.737463
21
62.515466
0
LINE
8
Layer 1
10
7.737463
20
62.515466
11
10.203265
21
76.499740
0
LINE
8
Layer 1
10
35.612076
20
110.709359
11
49.596349
21
108.243557
0
LINE
8
Layer 1
10
49.596349
20
108.243557
11
47.130548
21
94.259284
0
LINE
8
Layer 1
10
47.130548
20
94.259284
11
33.146274
21
96.725085
0
LINE
8
Layer 1
10
33.146274
20
96.725085
11
35.612076
21
110.709359
0
LINE
8
Layer 1
10
32.321209
20
91.966837
11
46.305483
21
89.501035
0
LINE
8
Layer 1
10
46.305483
20
89.501035
11
43.839681
21
75.516762
0
LINE
8
Layer 1
10
43.839681
20
75.516762
11
29.855408
21
77.982563
0
LINE
8
Layer 1
10
29.855408
20
77.982563
11
32.321209
21
91.966837
0
LINE
8
Layer 1
10
29.019212
20
73.191936
11
43.003485
21
70.726134
0
LINE
8
Layer 1
10
43.003485
20
70.726134
11
40.537684
21
56.741861
0
LINE
8
Layer 1
10
40.537684
20
56.741861
11
26.553410
21
59.207662
0
LINE
8
Layer 1
10
26.553410
20
59.207662
11
29.019212
21
73.191936
0
LINE
8
Layer 1
10
55.553975
20
114.307352
11
69.538249
21
111.841550
0
LINE
8
Layer 1
10
69.538249
20
111.841550
11
67.072447
21
97.857277
0
LINE
8
Layer 1
10
67.072447
20
97.857277
11
53.088174
21
100.323078
0
LINE
8
Layer 1
10
53.088174
20
100.323078
11
55.553975
21
114.307352
0
LINE
8
Layer 1
10
52.252759
20
95.502906
11
66.237033
21
93.037105
0
LINE
8
Layer 1
10
66.237033
20
93.037105
11
63.771231
21
79.052831
0
LINE
8
Layer 1
10
63.771231
20
79.052831
11
49.786957
21
81.518633
0
LINE
8
Layer 1
10
49.786957
20
81.518633
11
52.252759
21
95.502906
0
LINE
8
Layer 1
10
48.949977
20
76.748320
11
62.934250
21
74.282518
0
LINE
8
Layer 1
10
62.934250
20
74.282518
11
60.468449
21
60.298245
0
LINE
8
Layer 1
10
60.468449
20
60.298245
11
46.484175
21
62.764046
0
LINE
8
Layer 1
10
46.484175
20
62.764046
11
48.949977
21
76.748320
0
LINE
8
Layer 1
10
74.953945
20
114.468810
11
88.938218
21
112.003009
0
LINE
8
Layer 1
10
88.938218
20
112.003009
11
86.472417
21
98.018735
0
LINE
8
Layer 1
10
86.472417
20
98.018735
11
72.488143
21
100.484537
0
LINE
8
Layer 1
10
72.488143
20
100.484537
11
74.953945
21
114.468810
0
LINE
8
Layer 1
10
71.648714
20
95.718189
11
85.632988
21
93.252388
0
LINE
8
Layer 1
10
85.632988
20
93.252388
11
83.167186
21
79.268114
0
LINE
8
Layer 1
10
83.167186
20
79.268114
11
69.182912
21
81.733916
0
LINE
8
Layer 1
10
69.182912
20
81.733916
11
71.648714
21
95.718189
0
LINE
8
Layer 1
10
68.343995
20
76.920830
11
82.328268
21
74.455028
0
LINE
8
Layer 1
10
82.328268
20
74.455028
11
79.862467
21
60.470755
0
LINE
8
Layer 1
10
79.862467
20
60.470755
11
65.878193
21
62.936556
0
LINE
8
Layer 1
10
65.878193
20
62.936556
11
68.343995
21
76.920830
0
LINE
8
Layer 1
10
93.126241
20
107.697263
11
107.110514
21
105.231461
0
LINE
8
Layer 1
10
107.110514
20
105.231461
11
104.644713
21
91.247187
0
LINE
8
Layer 1
10
104.644713
20
91.247187
11
90.660439
21
93.712989
0
LINE
8
Layer 1
10
90.660439
20
93.712989
11
93.126241
21
107.697263
0
LINE
8
Layer 1
10
89.817803
20
88.943542
11
103.802076
21
86.477740
0
LINE
8
Layer 1
10
103.802076
20
86.477740
11
101.336275
21
72.493466
0
LINE
8
Layer 1
10
101.336275
20
72.493466
11
87.352001
21
74.959268
0
LINE
8
Layer 1
10
87.352001
20
74.959268
11
89.817803
21
88.943542
0
LINE
8
Layer 1
10
86.512562
20
70.191308
11
100.496835
21
67.725506
0
LINE
8
Layer 1
10
100.496835
20
67.725506
11
98.031034
21
53.741233
0
LINE
8
Layer 1
10
98.031034
20
53.741233
11
84.046760
21
56.207034
0
LINE
8
Layer 1
10
84.046760
20
56.207034
11
86.512562
21
70.191308
0
LINE
8
Layer 1
10
70.672941
20
50.765632
11
84.657215
21
48.299831
0
LINE
8
Layer 1
10
84.657215
20
48.299831
11
82.191413
21
34.315557
0
LINE
8
Layer 1
10
82.191413
20
34.315557
11
68.207140
21
36.781359
0
LINE
8
Layer 1
10
68.207140
20
36.781359
11
70.672941
21
50.765632
0
LINE
8
Layer 1
10
111.248511
20
100.927123
11
125.232785
21
98.461321
0
LINE
8
Layer 1
10
125.232785
20
98.461321
11
122.766983
21
84.477048
0
LINE
8
Layer 1
10
122.766983
20
84.477048
11
108.782710
21
86.942849
0
LINE
8
Layer 1
10
108.782710
20
86.942849
11
111.248511
21
100.927123
0
LINE
8
Layer 1
10
107.945700
20
82.165637
11
121.929974
21
79.699835
0
LINE
8
Layer 1
10
121.929974
20
79.699835
11
119.464171
21
65.715552
0
LINE
8
Layer 1
10
119.464171
20
65.715552
11
105.479897
21
68.181354
0
LINE
8
Layer 1
10
105.479897
20
68.181354
11
107.945700
21
82.165637
0
LINE
8
Layer 1
10
104.640266
20
63.418758
11
118.624540
21
60.952957
0
LINE
8
Layer 1
10
118.624540
20
60.952957
11
116.158738
21
46.968683
0
LINE
8
Layer 1
10
116.158738
20
46.968683
11
102.174465
21
49.434485
0
LINE
8
Layer 1
10
102.174465
20
49.434485
11
104.640266
21
63.418758
0
LINE
8
Layer 1
10
225.209066
20
48.135105
11
239.193339
21
50.600906
0
LINE
8
Layer 1
10
239.193339
20
50.600906
11
241.659141
21
36.616633
0
LINE
8
Layer 1
10
241.659141
20
36.616633
11
227.674867
21
34.150831
0
LINE
8
Layer 1
10
227.674867
20
34.150831
11
225.209066
21
48.135105
0
LINE
8
Layer 1
10
203.696040
20
39.702751
11
216.682521
21
45.446565
0
LINE
8
Layer 1
10
216.682521
20
45.446565
11
222.426336
21
32.460083
0
LINE
8
Layer 1
10
222.426336
20
32.460083
11
209.439855
21
26.716268
0
LINE
8
Layer 1
10
209.439855
20
26.716268
11
203.696040
21
39.702751
0
LINE
8
Layer 1
10
181.752083
20
29.278594
11
192.642574
21
38.391061
0
LINE
8
Layer 1
10
192.642574
20
38.391061
11
201.755041
21
27.500570
0
LINE
8
Layer 1
10
201.755041
20
27.500570
11
190.864549
21
18.388103
0
LINE
8
Layer 1
10
190.864549
20
18.388103
11
181.752083
21
29.278594
0
LINE
8
Layer 1
10
93.460521
20
45.506576
11
106.316221
21
39.475737
0
LINE
8
Layer 1
10
106.316221
20
39.475737
11
100.285382
21
26.620036
0
LINE
8
Layer 1
10
100.285382
20
26.620036
11
87.429681
21
32.650876
0
LINE
8
Layer 1
10
87.429681
20
32.650876
11
93.460521
21
45.506576
0
LINE
8
Layer 1
10
117.213990
20
38.183616
11
128.099085
21
29.064688
0
LINE
8
Layer 1
10
128.099085
20
29.064688
11
118.980157
21
18.179593
0
LINE
8
Layer 1
10
118.980157
20
18.179593
11
108.095062
21
27.298520
0
LINE
8
Layer 1
10
108.095062
20
27.298520
11
117.213990
21
38.183616
0
LINE
8
Layer 1
10
148.014170
20
39.833080
11
162.214170
21
39.833080
0
LINE
8
Layer 1
10
162.214170
20
39.833080
11
162.214170
21
25.633080
0
LINE
8
Layer 1
10
162.214170
20
25.633080
11
148.014170
21
25.633080
0
LINE
8
Layer 1
10
148.014170
20
25.633080
11
148.014170
21
39.833080
0
LINE
8
Layer 1
10
128.912720
20
20.778520
11
143.112720
21
20.778520
0
LINE
8
Layer 1
10
143.112720
20
20.778520
11
143.112720
21
6.578520
0
LINE
8
Layer 1
10
143.112720
20
6.578520
11
128.912720
21
6.578520
0
LINE
8
Layer 1
10
128.912720
20
6.578520
11
128.912720
21
20.778520
0
LINE
8
Layer 1
10
148.008370
20
20.778520
11
162.208370
21
20.778520
0
LINE
8
Layer 1
10
162.208370
20
20.778520
11
162.208370
21
6.578520
0
LINE
8
Layer 1
10
162.208370
20
6.578520
11
148.008370
21
6.578520
0
LINE
8
Layer 1
10
148.008370
20
6.578520
11
148.008370
21
20.778520
0
LINE
8
Layer 1
10
167.146410
20
20.778520
11
181.346410
21
20.778520
0
LINE
8
Layer 1
10
181.346410
20
20.778520
11
181.346410
21
6.578520
0
LINE
8
Layer 1
10
181.346410
20
6.578520
11
167.146410
21
6.578520
0
LINE
8
Layer 1
10
167.146410
20
6.578520
11
167.146410
21
20.778520
0
LINE
8
Layer 1
10
155.756570
20
73.358320
11
155.669688
21
72.930352
0
LINE
8
Layer 1
10
155.669688
20
72.930352
11
155.432985
21
72.581232
0
LINE
8
Layer 1
10
155.432985
20
72.581232
11
155.082380
21
72.346281
0
LINE
8
Layer 1
10
155.082380
20
72.346281
11
154.653790
21
72.260820
0
LINE
8
Layer 1
10
154.653790
20
72.260820
11
154.225883
21
72.348602
0
LINE
8
Layer 1
10
154.225883
20
72.348602
11
153.876885
21
72.585335
0
LINE
8
Layer 1
10
153.876885
20
72.585335
11
153.642052
21
72.935595
0
LINE
8
Layer 1
10
153.642052
20
72.935595
11
153.556640
21
73.363960
0
LINE
8
Layer 1
10
153.556640
20
73.363960
11
153.643475
21
73.791715
0
LINE
8
Layer 1
10
153.643475
20
73.791715
11
153.880098
21
74.140729
0
LINE
8
Layer 1
10
153.880098
20
74.140729
11
154.230687
21
74.375643
0
LINE
8
Layer 1
10
154.230687
20
74.375643
11
154.659420
21
74.461100
0
LINE
8
Layer 1
10
154.659420
20
74.461100
11
155.087184
21
74.373845
0
LINE
8
Layer 1
10
155.087184
20
74.373845
11
155.436197
21
74.137271
0
LINE
8
Layer 1
10
155.436197
20
74.137271
11
155.671110
21
73.786917
0
LINE
8
Layer 1
10
155.671110
20
73.786917
11
155.756570
21
73.358320
0
LINE
8
Layer 1
10
155.756570
20
73.358320
11
155.756570
21
73.358320
0
LINE
8
Layer 1
10
50.794798
20
112.882480
11
50.707915
21
112.454514
0
LINE
8
Layer 1
10
50.707915
20
112.454514
11
50.471213
21
112.105397
0
LINE
8
Layer 1
10
50.471213
20
112.105397
11
50.120607
21
111.870450
0
LINE
8
Layer 1
10
50.120607
20
111.870450
11
49.692015
21
111.784990
0
LINE
8
Layer 1
10
49.692015
20
111.784990
11
49.264107
21
111.872771
0
LINE
8
Layer 1
10
49.264107
20
111.872771
11
48.915110
21
112.109500
0
LINE
8
Layer 1
10
48.915110
20
112.109500
11
48.680278
21
112.459757
0
LINE
8
Layer 1
10
48.680278
20
112.459757
11
48.594867
21
112.888120
0
LINE
8
Layer 1
10
48.594867
20
112.888120
11
48.681701
21
113.315879
0
LINE
8
Layer 1
10
48.681701
20
113.315879
11
48.918324
21
113.664893
0
LINE
8
Layer 1
10
48.918324
20
113.664893
11
49.268914
21
113.899804
0
LINE
8
Layer 1
10
49.268914
20
113.899804
11
49.697653
21
113.985260
0
LINE
8
Layer 1
10
49.697653
20
113.985260
11
50.125415
21
113.898005
0
LINE
8
Layer 1
10
50.125415
20
113.898005
11
50.474429
21
113.661431
0
LINE
8
Layer 1
10
50.474429
20
113.661431
11
50.709340
21
113.311077
0
LINE
8
Layer 1
10
50.709340
20
113.311077
11
50.794798
21
112.882480
0
LINE
8
Layer 1
10
50.794798
20
112.882480
11
50.794798
21
112.882480
0
LINE
8
Layer 1
10
44.865663
20
60.765040
11
44.778780
21
60.337073
0
LINE
8
Layer 1
10
44.778780
20
60.337073
11
44.542077
21
59.987952
0
LINE
8
Layer 1
10
44.542077
20
59.987952
11
44.191470
21
59.753001
0
LINE
8
Layer 1
10
44.191470
20
59.753001
11
43.762877
21
59.667540
0
LINE
8
Layer 1
10
43.762877
20
59.667540
11
43.334969
21
59.755323
0
LINE
8
Layer 1
10
43.334969
20
59.755323
11
42.985972
21
59.992055
0
LINE
8
Layer 1
10
42.985972
20
59.992055
11
42.751141
21
60.342315
0
LINE
8
Layer 1
10
42.751141
20
60.342315
11
42.665732
21
60.770680
0
LINE
8
Layer 1
10
42.665732
20
60.770680
11
42.752566
21
61.198439
0
LINE
8
Layer 1
10
42.752566
20
61.198439
11
42.989188
21
61.547453
0
LINE
8
Layer 1
10
42.989188
20
61.547453
11
43.339777
21
61.782364
0
LINE
8
Layer 1
10
43.339777
20
61.782364
11
43.768513
21
61.867820
0
LINE
8
Layer 1
10
43.768513
20
61.867820
11
44.196276
21
61.780565
0
LINE
8
Layer 1
10
44.196276
20
61.780565
11
44.545290
21
61.543991
0
LINE
8
Layer 1
10
44.545290
20
61.543991
11
44.780203
21
61.193637
0
LINE
8
Layer 1
10
44.780203
20
61.193637
11
44.865663
21
60.765040
0
LINE
8
Layer 1
10
44.865663
20
60.765040
11
44.865663
21
60.765040
0
LINE
8
Layer 1
10
95.813123
20
49.079280
11
95.726240
21
48.651313
0
LINE
8
Layer 1
10
95.726240
20
48.651313
11
95.489538
21
48.302193
0
LINE
8
Layer 1
10
95.489538
20
48.302193
11
95.138933
21
48.067241
0
LINE
8
Layer 1
10
95.138933
20
48.067241
11
94.710342
21
47.981780
0
LINE
8
Layer 1
10
94.710342
20
47.981780
11
94.282431
21
48.069563
0
LINE
8
Layer 1
10
94.282431
20
48.069563
11
93.933433
21
48.306295
0
LINE
8
Layer 1
10
93.933433
20
48.306295
11
93.698602
21
48.656555
0
LINE
8
Layer 1
10
93.698602
20
48.656555
11
93.613191
21
49.084920
0
LINE
8
Layer 1
10
93.613191
20
49.084920
11
93.700024
21
49.512679
0
LINE
8
Layer 1
10
93.700024
20
49.512679
11
93.936645
21
49.861693
0
LINE
8
Layer 1
10
93.936645
20
49.861693
11
94.287234
21
50.096604
0
LINE
8
Layer 1
10
94.287234
20
50.096604
11
94.715972
21
50.182060
0
LINE
8
Layer 1
10
94.715972
20
50.182060
11
95.143736
21
50.094805
0
LINE
8
Layer 1
10
95.143736
20
50.094805
11
95.492750
21
49.858231
0
LINE
8
Layer 1
10
95.492750
20
49.858231
11
95.727662
21
49.507877
0
LINE
8
Layer 1
10
95.727662
20
49.507877
11
95.813123
21
49.079280
0
LINE
8
Layer 1
10
95.813123
20
49.079280
11
95.813123
21
49.079280
0
LINE
8
Layer 1
10
123.382880
20
12.923790
11
123.295997
21
12.495827
0
LINE
8
Layer 1
10
123.295997
20
12.495827
11
123.059295
21
12.146706
0
LINE
8
Layer 1
10
123.059295
20
12.146706
11
122.708690
21
11.911753
0
LINE
8
Layer 1
10
122.708690
20
11.911753
11
122.280100
21
11.826290
0
LINE
8
Layer 1
10
122.280100
20
11.826290
11
121.852189
21
11.914072
0
LINE
8
Layer 1
10
121.852189
20
11.914072
11
121.503191
21
12.150804
0
LINE
8
Layer 1
10
121.503191
20
12.150804
11
121.268361
21
12.501061
0
LINE
8
Layer 1
10
121.268361
20
12.501061
11
121.182950
21
12.929420
0
LINE
8
Layer 1
10
121.182950
20
12.929420
11
121.269783
21
13.357184
0
LINE
8
Layer 1
10
121.269783
20
13.357184
11
121.506404
21
13.706196
0
LINE
8
Layer 1
10
121.506404
20
13.706196
11
121.856992
21
13.941106
0
LINE
8
Layer 1
10
121.856992
20
13.941106
11
122.285730
21
14.026560
0
LINE
8
Layer 1
10
122.285730
20
14.026560
11
122.713494
21
13.939306
0
LINE
8
Layer 1
10
122.713494
20
13.939306
11
123.062508
21
13.702736
0
LINE
8
Layer 1
10
123.062508
20
13.702736
11
123.297420
21
13.352385
0
LINE
8
Layer 1
10
123.297420
20
13.352385
11
123.382880
21
12.923790
0
LINE
8
Layer 1
10
123.382880
20
12.923790
11
123.382880
21
12.923790
0
LINE
8
Layer 1
10
188.518000
20
12.965760
11
188.431118
21
12.537798
0
LINE
8
Layer 1
10
188.431118
20
12.537798
11
188.194415
21
12.188681
0
LINE
8
Layer 1
10
188.194415
20
12.188681
11
187.843810
21
11.953731
0
LINE
8
Layer 1
10
187.843810
20
11.953731
11
187.415220
21
11.868270
0
LINE
8
Layer 1
10
187.415220
20
11.868270
11
186.987313
21
11.956051
0
LINE
8
Layer 1
10
186.987313
20
11.956051
11
186.638315
21
12.192781
0
LINE
8
Layer 1
10
186.638315
20
12.192781
11
186.403482
21
12.543041
0
LINE
8
Layer 1
10
186.403482
20
12.543041
11
186.318070
21
12.971410
0
LINE
8
Layer 1
10
186.318070
20
12.971410
11
186.404905
21
13.399169
0
LINE
8
Layer 1
10
186.404905
20
13.399169
11
186.641527
21
13.748183
0
LINE
8
Layer 1
10
186.641527
20
13.748183
11
186.992117
21
13.983094
0
LINE
8
Layer 1
10
186.992117
20
13.983094
11
187.420850
21
14.068550
0
LINE
8
Layer 1
10
187.420850
20
14.068550
11
187.848614
21
13.981295
0
LINE
8
Layer 1
10
187.848614
20
13.981295
11
188.197627
21
13.744720
0
LINE
8
Layer 1
10
188.197627
20
13.744720
11
188.432540
21
13.394363
0
LINE
8
Layer 1
10
188.432540
20
13.394363
11
188.518000
21
12.965760
0
LINE
8
Layer 1
10
188.518000
20
12.965760
11
188.518000
21
12.965760
0
LINE
8
Layer 1
10
216.088300
20
49.036580
11
216.001418
21
48.608618
0
LINE
8
Layer 1
10
216.001418
20
48.608618
11
215.764715
21
48.259501
0
LINE
8
Layer 1
10
215.764715
20
48.259501
11
215.414110
21
48.024551
0
LINE
8
Layer 1
10
215.414110
20
48.024551
11
214.985520
21
47.939090
0
LINE
8
Layer 1
10
214.985520
20
47.939090
11
214.557613
21
48.026871
0
LINE
8
Layer 1
10
214.557613
20
48.026871
11
214.208615
21
48.263601
0
LINE
8
Layer 1
10
214.208615
20
48.263601
11
213.973782
21
48.613861
0
LINE
8
Layer 1
10
213.973782
20
48.613861
11
213.888370
21
49.042230
0
LINE
8
Layer 1
10
213.888370
20
49.042230
11
213.975205
21
49.469989
0
LINE
8
Layer 1
10
213.975205
20
49.469989
11
214.211827
21
49.819003
0
LINE
8
Layer 1
10
214.211827
20
49.819003
11
214.562417
21
50.053914
0
LINE
8
Layer 1
10
214.562417
20
50.053914
11
214.991150
21
50.139370
0
LINE
8
Layer 1
10
214.991150
20
50.139370
11
215.418914
21
50.052115
0
LINE
8
Layer 1
10
215.418914
20
50.052115
11
215.767927
21
49.815540
0
LINE
8
Layer 1
10
215.767927
20
49.815540
11
216.002840
21
49.465183
0
LINE
8
Layer 1
10
216.002840
20
49.465183
11
216.088300
21
49.036580
0
LINE
8
Layer 1
10
216.088300
20
49.036580
11
216.088300
21
49.036580
0
LINE
8
Layer 1
10
267.501610
20
60.891860
11
267.414727
21
60.463892
0
LINE
8
Layer 1
10
267.414727
20
60.463892
11
267.178024
21
60.114772
0
LINE
8
Layer 1
10
267.178024
20
60.114772
11
266.827416
21
59.879821
0
LINE
8
Layer 1
10
266.827416
20
59.879821
11
266.398820
21
59.794360
0
LINE
8
Layer 1
10
266.398820
20
59.794360
11
265.970913
21
59.882142
0
LINE
8
Layer 1
10
265.970913
20
59.882142
11
265.621915
21
60.118875
0
LINE
8
Layer 1
10
265.621915
20
60.118875
11
265.387082
21
60.469135
0
LINE
8
Layer 1
10
265.387082
20
60.469135
11
265.301670
21
60.897500
0
LINE
8
Layer 1
10
265.301670
20
60.897500
11
265.388505
21
61.325259
0
LINE
8
Layer 1
10
265.388505
20
61.325259
11
265.625129
21
61.674273
0
LINE
8
Layer 1
10
265.625129
20
61.674273
11
265.975721
21
61.909184
0
LINE
8
Layer 1
10
265.975721
20
61.909184
11
266.404460
21
61.994640
0
LINE
8
Layer 1
10
266.404460
20
61.994640
11
266.832224
21
61.907385
0
LINE
8
Layer 1
10
266.832224
20
61.907385
11
267.181237
21
61.670811
0
LINE
8
Layer 1
10
267.181237
20
61.670811
11
267.416150
21
61.320457
0
LINE
8
Layer 1
10
267.416150
20
61.320457
11
267.501610
21
60.891860
0
LINE
8
Layer 1
10
267.501610
20
60.891860
11
267.501610
21
60.891860
0
LINE
8
Layer 1
10
261.148770
20
113.009300
11
261.061888
21
112.581334
0
LINE
8
Layer 1
10
261.061888
20
112.581334
11
260.825185
21
112.232217
0
LINE
8
Layer 1
10
260.825185
20
112.232217
11
260.474580
21
111.997270
0
LINE
8
Layer 1
10
260.474580
20
111.997270
11
260.045990
21
111.911810
0
LINE
8
Layer 1
10
260.045990
20
111.911810
11
259.618083
21
111.999591
0
LINE
8
Layer 1
10
259.618083
20
111.999591
11
259.269085
21
112.236320
0
LINE
8
Layer 1
10
259.269085
20
112.236320
11
259.034252
21
112.586577
0
LINE
8
Layer 1
10
259.034252
20
112.586577
11
258.948840
21
113.014940
0
LINE
8
Layer 1
10
258.948840
20
113.014940
11
259.035675
21
113.442699
0
LINE
8
Layer 1
10
259.035675
20
113.442699
11
259.272299
21
113.791713
0
LINE
8
Layer 1
10
259.272299
20
113.791713
11
259.622891
21
114.026624
0
LINE
8
Layer 1
10
259.622891
20
114.026624
11
260.051630
21
114.112080
0
LINE
8
Layer 1
10
260.051630
20
114.112080
11
260.479394
21
114.024825
0
LINE
8
Layer 1
10
260.479394
20
114.024825
11
260.828406
21
113.788251
0
LINE
8
Layer 1
10
260.828406
20
113.788251
11
261.063316
21
113.437897
0
LINE
8
Layer 1
10
261.063316
20
113.437897
11
261.148770
21
113.009300
0
LINE
8
Layer 1
10
261.148770
20
113.009300
11
261.148770
21
113.009300
0
LINE
8
Layer 1
10
172.340500
20
98.953220
11
172.253618
21
98.525258
0
LINE
8
Layer 1
10
172.253618
20
98.525258
11
172.016915
21
98.176141
0
LINE
8
Layer 1
10
172.016915
20
98.176141
11
171.666310
21
97.941191
0
LINE
8
Layer 1
10
171.666310
20
97.941191
11
171.237720
21
97.855730
0
LINE
8
Layer 1
10
171.237720
20
97.855730
11
170.809804
21
97.943511
0
LINE
8
Layer 1
10
170.809804
20
97.943511
11
170.460806
21
98.180241
0
LINE
8
Layer 1
10
170.460806
20
98.180241
11
170.225975
21
98.530501
0
LINE
8
Layer 1
10
170.225975
20
98.530501
11
170.140560
21
98.958870
0
LINE
8
Layer 1
10
170.140560
20
98.958870
11
170.227396
21
99.386629
0
LINE
8
Layer 1
10
170.227396
20
99.386629
11
170.464023
21
99.735642
0
LINE
8
Layer 1
10
170.464023
20
99.735642
11
170.814615
21
99.970554
0
LINE
8
Layer 1
10
170.814615
20
99.970554
11
171.243350
21
100.056010
0
LINE
8
Layer 1
10
171.243350
20
100.056010
11
171.671110
21
99.968755
0
LINE
8
Layer 1
10
171.671110
20
99.968755
11
172.020124
21
99.732180
0
LINE
8
Layer 1
10
172.020124
20
99.732180
11
172.255039
21
99.381823
0
LINE
8
Layer 1
10
172.255039
20
99.381823
11
172.340500
21
98.953220
0
LINE
8
Layer 1
10
172.340500
20
98.953220
11
172.340500
21
98.953220
0
LINE
8
Layer 1
10
139.561090
20
98.953220
11
139.474208
21
98.525258
0
LINE
8
Layer 1
10
139.474208
20
98.525258
11
139.237505
21
98.176141
0
LINE
8
Layer 1
10
139.237505
20
98.176141
11
138.886900
21
97.941191
0
LINE
8
Layer 1
10
138.886900
20
97.941191
11
138.458310
21
97.855730
0
LINE
8
Layer 1
10
138.458310
20
97.855730
11
138.030399
21
97.943511
0
LINE
8
Layer 1
10
138.030399
20
97.943511
11
137.681401
21
98.180241
0
LINE
8
Layer 1
10
137.681401
20
98.180241
11
137.446571
21
98.530501
0
LINE
8
Layer 1
10
137.446571
20
98.530501
11
137.361160
21
98.958870
0
LINE
8
Layer 1
10
137.361160
20
98.958870
11
137.447993
21
99.386629
0
LINE
8
Layer 1
10
137.447993
20
99.386629
11
137.684614
21
99.735642
0
LINE
8
Layer 1
10
137.684614
20
99.735642
11
138.035202
21
99.970554
0
LINE
8
Layer 1
10
138.035202
20
99.970554
11
138.463940
21
100.056010
0
LINE
8
Layer 1
10
138.463940
20
100.056010
11
138.891704
21
99.968755
0
LINE
8
Layer 1
10
138.891704
20
99.968755
11
139.240717
21
99.732180
0
LINE
8
Layer 1
10
139.240717
20
99.732180
11
139.475630
21
99.381823
0
LINE
8
Layer 1
10
139.475630
20
99.381823
11
139.561090
21
98.953220
0
LINE
8
Layer 1
10
139.561090
20
98.953220
11
139.561090
21
98.953220
0
LINE
8
Layer 1
10
184.851727
20
98.455678
11
198.836001
21
100.921479
0
LINE
8
Layer 1
10
198.836001
20
100.921479
11
201.301802
21
86.937206
0
LINE
8
Layer 1
10
201.301802
20
86.937206
11
187.317529
21
84.471404
0
LINE
8
Layer 1
10
187.317529
20
84.471404
11
184.851727
21
98.455678
0
LINE
8
Layer 1
10
188.149152
20
79.706656
11
202.133425
21
82.172457
0
LINE
8
Layer 1
10
202.133425
20
82.172457
11
204.599227
21
68.188184
0
LINE
8
Layer 1
10
204.599227
20
68.188184
11
190.614953
21
65.722382
0
LINE
8
Layer 1
10
190.614953
20
65.722382
11
188.149152
21
79.706656
0
LINE
8
Layer 1
10
191.454050
20
60.948381
11
205.438320
21
63.414182
0
LINE
8
Layer 1
10
205.438320
20
63.414182
11
207.904122
21
49.429908
0
LINE
8
Layer 1
10
207.904122
20
49.429908
11
193.919851
21
46.964107
0
LINE
8
Layer 1
10
193.919851
20
46.964107
11
191.454050
21
60.948381
0
LINE
8
Layer 1
10
203.008489
20
105.201934
11
216.992762
21
107.667735
0
LINE
8
Layer 1
10
216.992762
20
107.667735
11
219.458564
21
93.683462
0
LINE
8
Layer 1
10
219.458564
20
93.683462
11
205.474290
21
91.217660
0
LINE
8
Layer 1
10
205.474290
20
91.217660
11
203.008489
21
105.201934
0
LINE
8
Layer 1
10
206.310495
20
86.451516
11
220.294769
21
88.917318
0
LINE
8
Layer 1
10
220.294769
20
88.917318
11
222.760571
21
74.933044
0
LINE
8
Layer 1
10
222.760571
20
74.933044
11
208.776297
21
72.467242
0
LINE
8
Layer 1
10
208.776297
20
72.467242
11
206.310495
21
86.451516
0
LINE
8
Layer 1
10
209.620635
20
67.683940
11
223.604909
21
70.149742
0
LINE
8
Layer 1
10
223.604909
20
70.149742
11
226.070710
21
56.165468
0
LINE
8
Layer 1
10
226.070710
20
56.165468
11
212.086437
21
53.699667
0
LINE
8
Layer 1
10
212.086437
20
53.699667
11
209.620635
21
67.683940
0
LINE
8
Layer 1
10
221.176864
20
112.014839
11
235.161137
21
114.480640
0
LINE
8
Layer 1
10
235.161137
20
114.480640
11
237.626939
21
100.496367
0
LINE
8
Layer 1
10
237.626939
20
100.496367
11
223.642665
21
98.030565
0
LINE
8
Layer 1
10
223.642665
20
98.030565
11
221.176864
21
112.014839
0
LINE
8
Layer 1
10
224.483404
20
93.220105
11
238.467678
21
95.685907
0
LINE
8
Layer 1
10
238.467678
20
95.685907
11
240.933480
21
81.701633
0
LINE
8
Layer 1
10
240.933480
20
81.701633
11
226.949206
21
79.235832
0
LINE
8
Layer 1
10
226.949206
20
79.235832
11
224.483404
21
93.220105
0
LINE
8
Layer 1
10
227.801073
20
74.455035
11
241.785347
21
76.920836
0
LINE
8
Layer 1
10
241.785347
20
76.920836
11
244.251149
21
62.936563
0
LINE
8
Layer 1
10
244.251149
20
62.936563
11
230.266875
21
60.470761
0
LINE
8
Layer 1
10
230.266875
20
60.470761
11
227.801073
21
74.455035
0
LINE
8
Layer 1
10
240.530514
20
111.805957
11
254.514788
21
114.271758
0
LINE
8
Layer 1
10
254.514788
20
114.271758
11
256.980589
21
100.287485
0
LINE
8
Layer 1
10
256.980589
20
100.287485
11
242.996316
21
97.821683
0
LINE
8
Layer 1
10
242.996316
20
97.821683
11
240.530514
21
111.805957
0
LINE
8
Layer 1
10
243.869196
20
93.046165
11
257.853469
21
95.511967
0
LINE
8
Layer 1
10
257.853469
20
95.511967
11
260.319271
21
81.527693
0
LINE
8
Layer 1
10
260.319271
20
81.527693
11
246.334997
21
79.061892
0
LINE
8
Layer 1
10
246.334997
20
79.061892
11
243.869196
21
93.046165
0
LINE
8
Layer 1
10
247.146658
20
74.292476
11
261.130931
21
76.758277
0
LINE
8
Layer 1
10
261.130931
20
76.758277
11
263.596733
21
62.774004
0
LINE
8
Layer 1
10
263.596733
20
62.774004
11
249.612459
21
60.308202
0
LINE
8
Layer 1
10
249.612459
20
60.308202
11
247.146658
21
74.292476
0
LINE
8
Layer 1
10
260.524776
20
108.285840
11
274.509050
21
110.751641
0
LINE
8
Layer 1
10
274.509050
20
110.751641
11
276.974852
21
96.767368
0
LINE
8
Layer 1
10
276.974852
20
96.767368
11
262.990578
21
94.301566
0
LINE
8
Layer 1
10
262.990578
20
94.301566
11
260.524776
21
108.285840
0
LINE
8
Layer 1
10
263.841373
20
89.546199
11
277.825647
21
92.012001
0
LINE
8
Layer 1
10
277.825647
20
92.012001
11
280.291448
21
78.027727
0
LINE
8
Layer 1
10
280.291448
20
78.027727
11
266.307175
21
75.561926
0
LINE
8
Layer 1
10
266.307175
20
75.561926
11
263.841373
21
89.546199
0
LINE
8
Layer 1
10
267.149936
20
70.784976
11
281.134209
21
73.250778
0
LINE
8
Layer 1
10
281.134209
20
73.250778
11
283.600011
21
59.266504
0
LINE
8
Layer 1
10
283.600011
20
59.266504
11
269.615737
21
56.800703
0
LINE
8
Layer 1
10
269.615737
20
56.800703
11
267.149936
21
70.784976
0
LINE
8
Layer 1
10
175.890220
20
106.929700
11
175.803337
21
106.501730
0
LINE
8
Layer 1
10
175.803337
20
106.501730
11
175.566635
21
106.152614
0
LINE
8
Layer 1
10
175.566635
20
106.152614
11
175.216030
21
105.917668
0
LINE
8
Layer 1
10
175.216030
20
105.917668
11
174.787440
21
105.832210
0
LINE
8
Layer 1
10
174.787440
20
105.832210
11
174.359529
21
105.919991
0
LINE
8
Layer 1
10
174.359529
20
105.919991
11
174.010531
21
106.156720
0
LINE
8
Layer 1
10
174.010531
20
106.156720
11
173.775701
21
106.506977
0
LINE
8
Layer 1
10
173.775701
20
106.506977
11
173.690290
21
106.935340
0
LINE
8
Layer 1
10
173.690290
20
106.935340
11
173.777123
21
107.363099
0
LINE
8
Layer 1
10
173.777123
20
107.363099
11
174.013744
21
107.712113
0
LINE
8
Layer 1
10
174.013744
20
107.712113
11
174.364332
21
107.947024
0
LINE
8
Layer 1
10
174.364332
20
107.947024
11
174.793070
21
108.032480
0
LINE
8
Layer 1
10
174.793070
20
108.032480
11
175.220834
21
107.945225
0
LINE
8
Layer 1
10
175.220834
20
107.945225
11
175.569847
21
107.708651
0
LINE
8
Layer 1
10
175.569847
20
107.708651
11
175.804760
21
107.358297
0
LINE
8
Layer 1
10
175.804760
20
107.358297
11
175.890220
21
106.929700
0
LINE
8
Layer 1
10
175.890220
20
106.929700
11
175.890220
21
106.929700
0
LINE
8
Layer 1
10
135.622940
20
106.929700
11
135.535636
21
106.501730
0
LINE
8
Layer 1
10
135.535636
20
106.501730
11
135.298980
21
106.152614
0
LINE
8
Layer 1
10
135.298980
20
106.152614
11
134.948609
21
105.917668
0
LINE
8
Layer 1
10
134.948609
20
105.917668
11
134.520160
21
105.832210
0
LINE
8
Layer 1
10
134.520160
20
105.832210
11
134.092249
21
105.919991
0
LINE
8
Layer 1
10
134.092249
20
105.919991
11
133.743253
21
106.156720
0
LINE
8
Layer 1
10
133.743253
20
106.156720
11
133.508425
21
106.506977
0
LINE
8
Layer 1
10
133.508425
20
106.506977
11
133.423020
21
106.935340
0
LINE
8
Layer 1
10
133.423020
20
106.935340
11
133.510275
21
107.363099
0
LINE
8
Layer 1
10
133.510275
20
107.363099
11
133.746849
21
107.712113
0
LINE
8
Layer 1
10
133.746849
20
107.712113
11
134.097203
21
107.947024
0
LINE
8
Layer 1
10
134.097203
20
107.947024
11
134.525800
21
108.032480
0
LINE
8
Layer 1
10
134.525800
20
108.032480
11
134.953559
21
107.945225
0
LINE
8
Layer 1
10
134.953559
20
107.945225
11
135.302572
21
107.708651
0
LINE
8
Layer 1
10
135.302572
20
107.708651
11
135.537484
21
107.358297
0
LINE
8
Layer 1
10
135.537484
20
107.358297
11
135.622940
21
106.929700
0
LINE
8
Layer 1
10
135.622940
20
106.929700
11
135.622940
21
106.929700
0
LINE
8
Layer 1
10
12.988333
20
120.043701
11
11.957569
21
119.854901
0
LINE
8
Layer 1
10
11.957569
20
119.854901
11
11.074065
21
119.331031
0
LINE
8
Layer 1
10
11.074065
20
119.331031
11
10.405359
21
118.535886
0
LINE
8
Layer 1
10
10.405359
20
118.535886
11
10.018992
21
117.533261
0
LINE
8
Layer 1
10
10.018992
20
117.533261
11
0.093614
21
61.831298
0
LINE
8
Layer 1
10
0.093614
20
61.831298
11
0.113272
21
60.621251
0
LINE
8
Layer 1
10
0.113272
20
60.621251
11
0.570423
21
59.554882
0
LINE
8
Layer 1
10
0.570423
20
59.554882
11
1.393480
21
58.743830
0
LINE
8
Layer 1
10
1.393480
20
58.743830
11
2.510858
21
58.299735
0
LINE
8
Layer 1
10
2.510858
20
58.299735
11
41.491734
21
51.023186
0
LINE
8
Layer 1
10
41.491734
20
51.023186
11
42.255266
21
51.065562
0
LINE
8
Layer 1
10
42.255266
20
51.065562
11
50.738359
21
52.810155
0
LINE
8
Layer 1
10
50.738359
20
52.810155
11
51.501887
21
52.852531
0
LINE
8
Layer 1
10
51.501887
20
52.852531
11
62.529908
21
49.789154
0
LINE
8
Layer 1
10
62.529908
20
49.789154
11
63.107835
21
49.443262
0
LINE
8
Layer 1
10
63.107835
20
49.443262
11
63.335828
21
48.810404
0
LINE
8
Layer 1
10
63.335828
20
48.810404
11
60.649775
21
32.994341
0
LINE
8
Layer 1
10
60.649775
20
32.994341
11
60.787659
21
32.271100
0
LINE
8
Layer 1
10
60.787659
20
32.271100
11
61.370915
21
31.803177
0
LINE
8
Layer 1
10
61.370915
20
31.803177
11
97.610423
21
18.535803
0
LINE
8
Layer 1
10
97.610423
20
18.535803
11
98.032253
21
18.302222
0
LINE
8
Layer 1
10
98.032253
20
18.302222
11
111.867295
21
6.185161
0
LINE
8
Layer 1
10
111.867295
20
6.185161
11
112.295844
21
5.902999
0
LINE
8
Layer 1
10
112.295844
20
5.902999
11
123.185323
21
0.937920
0
LINE
8
Layer 1
10
123.185323
20
0.937920
11
124.457748
21
0.342187
0
LINE
8
Layer 1
10
124.457748
20
0.342187
11
125.857421
21
0.129697
0
LINE
8
Layer 1
10
125.857421
20
0.129697
11
127.426870
21
0.129697
0
LINE
8
Layer 1
10
127.426870
20
0.129697
11
155.040091
21
0.043917
0
LINE
8
Layer 1
10
155.040091
20
0.043917
11
182.695699
21
0.129697
0
LINE
8
Layer 1
10
182.695699
20
0.129697
11
184.264632
21
0.129697
0
LINE
8
Layer 1
10
184.264632
20
0.129697
11
185.669853
21
0.326230
0
LINE
8
Layer 1
10
185.669853
20
0.326230
11
186.979638
21
0.937920
0
LINE
8
Layer 1
10
186.979638
20
0.937920
11
192.540330
21
3.410065
0
LINE
8
Layer 1
10
192.540330
20
3.410065
11
197.976642
21
5.923673
0
LINE
8
Layer 1
10
197.976642
20
5.923673
11
198.357632
21
6.177395
0
LINE
8
Layer 1
10
198.357632
20
6.177395
11
212.161123
21
18.211797
0
LINE
8
Layer 1
10
212.161123
20
18.211797
11
212.577297
21
18.531654
0
LINE
8
Layer 1
10
212.577297
20
18.531654
11
248.752163
21
31.803177
0
LINE
8
Layer 1
10
248.752163
20
31.803177
11
249.335290
21
32.233822
0
LINE
8
Layer 1
10
249.335290
20
32.233822
11
249.473310
21
32.951965
0
LINE
8
Layer 1
10
249.473310
20
32.951965
11
246.786239
21
48.810404
0
LINE
8
Layer 1
10
246.786239
20
48.810404
11
247.014227
21
49.443262
0
LINE
8
Layer 1
10
247.014227
20
49.443262
11
247.592148
21
49.789154
0
LINE
8
Layer 1
10
247.592148
20
49.789154
11
258.620699
21
52.810155
0
LINE
8
Layer 1
10
258.620699
20
52.810155
11
258.962398
21
52.850463
0
LINE
8
Layer 1
10
258.962398
20
52.850463
11
259.384228
21
52.810155
0
LINE
8
Layer 1
10
259.384228
20
52.810155
11
267.867837
21
51.023186
0
LINE
8
Layer 1
10
267.867837
20
51.023186
11
268.630835
21
51.023186
0
LINE
8
Layer 1
10
268.630835
20
51.023186
11
307.611185
21
58.299735
0
LINE
8
Layer 1
10
307.611185
20
58.299735
11
308.729251
21
58.743193
0
LINE
8
Layer 1
10
308.729251
20
58.743193
11
309.557031
21
59.549652
0
LINE
8
Layer 1
10
309.557031
20
59.549652
11
310.026924
21
60.603450
0
LINE
8
Layer 1
10
310.026924
20
60.603450
11
310.071329
21
61.788926
0
LINE
8
Layer 1
10
310.071329
20
61.788926
11
300.104104
21
117.533261
0
LINE
8
Layer 1
10
300.104104
20
117.533261
11
299.735430
21
118.535249
0
LINE
8
Layer 1
10
299.735430
20
118.535249
11
299.064666
21
119.325800
0
LINE
8
Layer 1
10
299.064666
20
119.325800
11
298.171283
21
119.837098
0
LINE
8
Layer 1
10
298.171283
20
119.837098
11
297.134752
21
120.001325
0
LINE
8
Layer 1
10
297.134752
20
120.001325
11
237.073300
21
119.873684
0
LINE
8
Layer 1
10
237.073300
20
119.873684
11
236.755390
21
119.819425
0
LINE
8
Layer 1
10
236.755390
20
119.819425
11
218.919167
21
116.596886
0
LINE
8
Layer 1
10
218.919167
20
116.596886
11
218.494987
21
116.410932
0
LINE
8
Layer 1
10
218.494987
20
116.410932
11
218.198055
21
116.001574
0
LINE
8
Layer 1
10
218.198055
20
116.001574
11
217.392110
21
114.086446
0
LINE
8
Layer 1
10
217.392110
20
114.086446
11
184.307023
21
107.235192
0
LINE
8
Layer 1
10
184.307023
20
107.235192
11
183.411260
21
107.240653
0
LINE
8
Layer 1
10
183.411260
20
107.240653
11
182.610404
21
107.661006
0
LINE
8
Layer 1
10
182.610404
20
107.661006
11
176.035877
21
113.320603
0
LINE
8
Layer 1
10
176.035877
20
113.320603
11
175.155921
21
113.916200
0
LINE
8
Layer 1
10
175.155921
20
113.916200
11
174.212606
21
114.128822
0
LINE
8
Layer 1
10
174.212606
20
114.128822
11
173.194739
21
114.128822
0
LINE
8
Layer 1
10
173.194739
20
114.128822
11
165.517046
21
114.126694
0
LINE
8
Layer 1
10
165.517046
20
114.126694
11
162.314832
21
114.127758
0
LINE
8
Layer 1
10
162.314832
20
114.127758
11
161.771797
21
113.930658
0
LINE
8
Layer 1
10
161.771797
20
113.930658
11
161.480536
21
113.430400
0
LINE
8
Layer 1
10
161.480536
20
113.430400
11
161.205901
21
111.926068
0
LINE
8
Layer 1
10
161.205901
20
111.926068
11
161.332862
21
111.441109
0
LINE
8
Layer 1
10
161.332862
20
111.441109
11
161.785481
21
111.228454
0
LINE
8
Layer 1
10
161.785481
20
111.228454
11
165.220319
21
111.228454
0
LINE
8
Layer 1
10
165.220319
20
111.228454
11
165.782294
21
110.996481
0
LINE
8
Layer 1
10
165.782294
20
110.996481
11
166.014349
21
110.434703
0
LINE
8
Layer 1
10
166.014349
20
110.434703
11
166.014349
21
76.461622
0
LINE
8
Layer 1
10
166.014349
20
76.461622
11
165.782294
21
75.899847
0
LINE
8
Layer 1
10
165.782294
20
75.899847
11
165.220319
21
75.667875
0
LINE
8
Layer 1
10
165.220319
20
75.667875
11
145.185537
21
75.667875
0
LINE
8
Layer 1
10
145.185537
20
75.667875
11
144.623562
21
75.899847
0
LINE
8
Layer 1
10
144.623562
20
75.899847
11
144.391508
21
76.461622
0
LINE
8
Layer 1
10
144.391508
20
76.461622
11
144.391508
21
110.434703
0
LINE
8
Layer 1
10
144.391508
20
110.434703
11
144.623562
21
110.996481
0
LINE
8
Layer 1
10
144.623562
20
110.996481
11
145.185537
21
111.228454
0
LINE
8
Layer 1
10
145.185537
20
111.228454
11
148.367589
21
111.228454
0
LINE
8
Layer 1
10
148.367589
20
111.228454
11
148.820293
21
111.441105
0
LINE
8
Layer 1
10
148.820293
20
111.441105
11
148.947388
21
111.926107
0
LINE
8
Layer 1
10
148.947388
20
111.926107
11
148.672315
21
113.435531
0
LINE
8
Layer 1
10
148.672315
20
113.435531
11
148.381222
21
113.935978
0
LINE
8
Layer 1
10
148.381222
20
113.935978
11
147.838237
21
114.133446
0
LINE
8
Layer 1
10
147.838237
20
114.133446
11
144.733210
21
114.134510
0
LINE
8
Layer 1
10
144.733210
20
114.134510
11
136.928350
21
114.128304
0
LINE
8
Layer 1
10
136.928350
20
114.128304
11
135.910483
21
114.128304
0
LINE
8
Layer 1
10
135.910483
20
114.128304
11
134.966517
21
113.915683
0
LINE
8
Layer 1
10
134.966517
20
113.915683
11
134.086176
21
113.320085
0
LINE
8
Layer 1
10
134.086176
20
113.320085
11
127.512165
21
107.660488
0
LINE
8
Layer 1
10
127.512165
20
107.660488
11
126.735194
21
107.262065
0
LINE
8
Layer 1
10
126.735194
20
107.262065
11
125.815030
21
107.234689
0
LINE
8
Layer 1
10
125.815030
20
107.234689
11
92.730448
21
114.085942
0
LINE
8
Layer 1
10
92.730448
20
114.085942
11
91.924528
21
116.043446
0
LINE
8
Layer 1
10
91.924528
20
116.043446
11
91.627582
21
116.415657
0
LINE
8
Layer 1
10
91.627582
20
116.415657
11
91.203388
21
116.596383
0
LINE
8
Layer 1
10
91.203388
20
116.596383
11
73.304110
21
119.873180
0
LINE
8
Layer 1
10
73.304110
20
119.873180
11
73.049255
21
119.873180
0
LINE
8
Layer 1
10
73.049255
20
119.873180
11
12.988333
21
120.043701
0
LINE
8
Layer 1
10
128.932880
20
63.795670
11
141.932880
21
63.795670
0
LINE
8
Layer 1
10
141.932880
20
63.795670
11
141.932880
21
50.795670
0
LINE
8
Layer 1
10
141.932880
20
50.795670
11
128.932880
21
50.795670
0
LINE
8
Layer 1
10
128.932880
20
50.795670
11
128.932880
21
63.795670
0
LINE
8
Layer 1
10
167.558190
20
63.816300
11
180.558190
21
63.816300
0
LINE
8
Layer 1
10
180.558190
20
63.816300
11
180.558190
21
50.816300
0
LINE
8
Layer 1
10
180.558190
20
50.816300
11
167.558190
21
50.816300
0
LINE
8
Layer 1
10
167.558190
20
50.816300
11
167.558190
21
63.816300
0
LINE
8
Layer 1
10
13.667886
20
30.245970
11
13.428110
21
29.040515
0
LINE
8
Layer 1
10
13.428110
20
29.040515
11
12.745278
21
28.018578
0
LINE
8
Layer 1
10
12.745278
20
28.018578
11
11.723344
21
27.335741
0
LINE
8
Layer 1
10
11.723344
20
27.335741
11
10.517890
21
27.095960
0
LINE
8
Layer 1
10
10.517890
20
27.095960
11
9.312435
21
27.335740
0
LINE
8
Layer 1
10
9.312435
20
27.335740
11
8.290500
21
28.018576
0
LINE
8
Layer 1
10
8.290500
20
28.018576
11
7.607666
21
29.040514
0
LINE
8
Layer 1
10
7.607666
20
29.040514
11
7.367890
21
30.245970
0
LINE
8
Layer 1
10
7.367890
20
30.245970
11
7.615435
21
31.472089
0
LINE
8
Layer 1
10
7.615435
20
31.472089
11
8.290507
21
32.473351
0
LINE
8
Layer 1
10
8.290507
20
32.473351
11
9.291770
21
33.148419
0
LINE
8
Layer 1
10
9.291770
20
33.148419
11
10.517890
21
33.395960
0
LINE
8
Layer 1
10
10.517890
20
33.395960
11
11.744009
21
33.148418
0
LINE
8
Layer 1
10
11.744009
20
33.148418
11
12.745271
21
32.473349
0
LINE
8
Layer 1
10
12.745271
20
32.473349
11
13.420341
21
31.472089
0
LINE
8
Layer 1
10
13.420341
20
31.472089
11
13.667886
21
30.245970
0
LINE
8
Layer 1
10
13.667886
20
30.245970
11
13.667886
21
30.245970
0
LINE
8
Layer 1
10
20.892888
20
30.245970
11
20.691695
21
28.212455
0
LINE
8
Layer 1
10
20.691695
20
28.212455
11
20.103141
21
26.275627
0
LINE
8
Layer 1
10
20.103141
20
26.275627
11
19.149770
21
24.489910
0
LINE
8
Layer 1
10
19.149770
20
24.489910
11
17.854124
21
22.909731
0
LINE
8
Layer 1
10
17.854124
20
22.909731
11
16.273946
21
21.614084
0
LINE
8
Layer 1
10
16.273946
20
21.614084
11
14.488231
21
20.660711
0
LINE
8
Layer 1
10
14.488231
20
20.660711
11
12.551403
21
20.072155
0
LINE
8
Layer 1
10
12.551403
20
20.072155
11
10.517888
21
19.870960
0
LINE
8
Layer 1
10
10.517888
20
19.870960
11
8.484373
21
20.072155
0
LINE
8
Layer 1
10
8.484373
20
20.072155
11
6.547545
21
20.660711
0
LINE
8
Layer 1
10
6.547545
20
20.660711
11
4.761829
21
21.614084
0
LINE
8
Layer 1
10
4.761829
20
21.614084
11
3.181651
21
22.909731
0
LINE
8
Layer 1
10
3.181651
20
22.909731
11
1.886006
21
24.489910
0
LINE
8
Layer 1
10
1.886006
20
24.489910
11
0.932634
21
26.275626
0
LINE
8
Layer 1
10
0.932634
20
26.275626
11
0.344080
21
28.212455
0
LINE
8
Layer 1
10
0.344080
20
28.212455
11
0.142887
21
30.245970
0
LINE
8
Layer 1
10
0.142887
20
30.245970
11
0.353672
21
32.336893
0
LINE
8
Layer 1
10
0.353672
20
32.336893
11
0.958209
21
34.284385
0
LINE
8
Layer 1
10
0.958209
20
34.284385
11
1.914778
21
36.046726
0
LINE
8
Layer 1
10
1.914778
20
36.046726
11
3.181658
21
37.582196
0
LINE
8
Layer 1
10
3.181658
20
37.582196
11
4.717129
21
38.849075
0
LINE
8
Layer 1
10
4.717129
20
38.849075
11
6.479472
21
39.805642
0
LINE
8
Layer 1
10
6.479472
20
39.805642
11
8.426965
21
40.410177
0
LINE
8
Layer 1
10
8.426965
20
40.410177
11
10.517888
21
40.620960
0
LINE
8
Layer 1
10
10.517888
20
40.620960
11
12.608811
21
40.410177
0
LINE
8
Layer 1
10
12.608811
20
40.410177
11
14.556304
21
39.805642
0
LINE
8
Layer 1
10
14.556304
20
39.805642
11
16.318646
21
38.849075
0
LINE
8
Layer 1
10
16.318646
20
38.849075
11
17.854117
21
37.582196
0
LINE
8
Layer 1
10
17.854117
20
37.582196
11
19.120998
21
36.046726
0
LINE
8
Layer 1
10
19.120998
20
36.046726
11
20.077566
21
34.284385
0
LINE
8
Layer 1
10
20.077566
20
34.284385
11
20.682103
21
32.336893
0
LINE
8
Layer 1
10
20.682103
20
32.336893
11
20.892888
21
30.245970
0
LINE
8
Layer 1
10
20.892888
20
30.245970
11
20.892888
21
30.245970
0
LINE
8
Layer 1
10
37.922729
20
30.245970
11
37.682953
21
29.040514
0
LINE
8
Layer 1
10
37.682953
20
29.040514
11
37.000120
21
28.018577
0
LINE
8
Layer 1
10
37.000120
20
28.018577
11
35.978186
21
27.335740
0
LINE
8
Layer 1
10
35.978186
20
27.335740
11
34.772731
21
27.095960
0
LINE
8
Layer 1
10
34.772731
20
27.095960
11
33.567276
21
27.335740
0
LINE
8
Layer 1
10
33.567276
20
27.335740
11
32.545342
21
28.018577
0
LINE
8
Layer 1
10
32.545342
20
28.018577
11
31.862509
21
29.040514
0
LINE
8
Layer 1
10
31.862509
20
29.040514
11
31.622733
21
30.245970
0
LINE
8
Layer 1
10
31.622733
20
30.245970
11
31.870278
21
31.472089
0
LINE
8
Layer 1
10
31.870278
20
31.472089
11
32.545349
21
32.473350
0
LINE
8
Layer 1
10
32.545349
20
32.473350
11
33.546612
21
33.148419
0
LINE
8
Layer 1
10
33.546612
20
33.148419
11
34.772731
21
33.395960
0
LINE
8
Layer 1
10
34.772731
20
33.395960
11
35.998850
21
33.148419
0
LINE
8
Layer 1
10
35.998850
20
33.148419
11
37.000113
21
32.473350
0
LINE
8
Layer 1
10
37.000113
20
32.473350
11
37.675184
21
31.472089
0
LINE
8
Layer 1
10
37.675184
20
31.472089
11
37.922729
21
30.245970
0
LINE
8
Layer 1
10
37.922729
20
30.245970
11
37.922729
21
30.245970
0
LINE
8
Layer 1
10
45.147731
20
30.245970
11
44.946538
21
28.212455
0
LINE
8
Layer 1
10
44.946538
20
28.212455
11
44.357984
21
26.275626
0
LINE
8
Layer 1
10
44.357984
20
26.275626
11
43.404612
21
24.489910
0
LINE
8
Layer 1
10
43.404612
20
24.489910
11
42.108967
21
22.909731
0
LINE
8
Layer 1
10
42.108967
20
22.909731
11
40.528789
21
21.614084
0
LINE
8
Layer 1
10
40.528789
20
21.614084
11
38.743073
21
20.660711
0
LINE
8
Layer 1
10
38.743073
20
20.660711
11
36.806245
21
20.072155
0
LINE
8
Layer 1
10
36.806245
20
20.072155
11
34.772730
21
19.870960
0
LINE
8
Layer 1
10
34.772730
20
19.870960
11
32.739215
21
20.072155
0
LINE
8
Layer 1
10
32.739215
20
20.072155
11
30.802387
21
20.660711
0
LINE
8
Layer 1
10
30.802387
20
20.660711
11
29.016672
21
21.614084
0
LINE
8
Layer 1
10
29.016672
20
21.614084
11
27.436494
21
22.909731
0
LINE
8
Layer 1
10
27.436494
20
22.909731
11
26.140848
21
24.489910
0
LINE
8
Layer 1
10
26.140848
20
24.489910
11
25.187477
21
26.275627
0
LINE
8
Layer 1
10
25.187477
20
26.275627
11
24.598923
21
28.212455
0
LINE
8
Layer 1
10
24.598923
20
28.212455
11
24.397730
21
30.245970
0
LINE
8
Layer 1
10
24.397730
20
30.245970
11
24.608515
21
32.336893
0
LINE
8
Layer 1
10
24.608515
20
32.336893
11
25.213052
21
34.284385
0
LINE
8
Layer 1
10
25.213052
20
34.284385
11
26.169620
21
36.046726
0
LINE
8
Layer 1
10
26.169620
20
36.046726
11
27.436501
21
37.582196
0
LINE
8
Layer 1
10
27.436501
20
37.582196
11
28.971972
21
38.849075
0
LINE
8
Layer 1
10
28.971972
20
38.849075
11
30.734314
21
39.805642
0
LINE
8
Layer 1
10
30.734314
20
39.805642
11
32.681807
21
40.410177
0
LINE
8
Layer 1
10
32.681807
20
40.410177
11
34.772730
21
40.620960
0
LINE
8
Layer 1
10
34.772730
20
40.620960
11
36.863653
21
40.410177
0
LINE
8
Layer 1
10
36.863653
20
40.410177
11
38.811146
21
39.805642
0
LINE
8
Layer 1
10
38.811146
20
39.805642
11
40.573489
21
38.849075
0
LINE
8
Layer 1
10
40.573489
20
38.849075
11
42.108960
21
37.582196
0
LINE
8
Layer 1
10
42.108960
20
37.582196
11
43.375840
21
36.046726
0
LINE
8
Layer 1
10
43.375840
20
36.046726
11
44.332409
21
34.284385
0
LINE
8
Layer 1
10
44.332409
20
34.284385
11
44.936946
21
32.336893
0
LINE
8
Layer 1
10
44.936946
20
32.336893
11
45.147731
21
30.245970
0
LINE
8
Layer 1
10
45.147731
20
30.245970
11
45.147731
21
30.245970
 0 
ENDSEC
 0 
EOF