<?xml version="1.0" encoding="UTF-8" standalone="no"?>
<!-- Created with Inkscape (http://www.inkscape.org/) -->

<svg
   width="310.15411mm"
   height="120.08814mm"
   viewBox="0 0 310.15411 120.08815"
   version="1.1"
   id="svg1"
   inkscape:version="1.3.2 (091e20e, 2023-11-25, custom)"
   sodipodi:docname="switch_plate.svg"
   xmlns:inkscape="http://www.inkscape.org/namespaces/inkscape"
   xmlns:sodipodi="http://sodipodi.sourceforge.net/DTD/sodipodi-0.dtd"
   xmlns="http://www.w3.org/2000/svg"
   xmlns:svg="http://www.w3.org/2000/svg">
  <sodipodi:namedview
     id="namedview1"
     pagecolor="#505050"
     bordercolor="#eeeeee"
     borderopacity="1"
     inkscape:showpageshadow="0"
     inkscape:pageopacity="0"
     inkscape:pagecheckerboard="0"
     inkscape:deskcolor="#d1d1d1"
     inkscape:document-units="mm"
     inkscape:zoom="0.47433592"
     inkscape:cx="713.62928"
     inkscape:cy="376.31559"
     inkscape:window-width="1920"
     inkscape:window-height="991"
     inkscape:window-x="-9"
     inkscape:window-y="-9"
     inkscape:window-maximized="1"
     inkscape:current-layer="layer1" />
  <defs
     id="defs1">
    <inkscape:path-effect
       effect="fillet_chamfer"
       id="path-effect4"
       is_visible="true"
       lpeversion="1"
       nodesatellites_param="F,0,0,1,0,0,0,1 @ F,0,0,1,0,0,0,1 @ F,0,0,1,0,0,0,1 @ F,0,0,1,0,0,0,1 @ F,0,0,1,0,0,0,1 @ F,0,0,1,0,0,0,1 @ F,0,0,1,0,0,0,1 @ F,0,0,1,0,0,0,1 @ F,0,0,1,0,0,0,1 @ F,0,0,1,0,0,0,1 @ F,0,0,1,0,0,0,1 @ F,0,0,1,0,0,0,1 @ F,0,0,1,0,0,0,1 @ F,0,0,1,0,0,0,1 @ F,0,0,1,0,0,0,1 @ F,0,0,1,0,0,0,1 @ F,0,0,1,0,0,0,1 @ F,0,0,1,0,0,0,1 @ F,0,0,1,0,0,0,1 @ F,0,0,1,0,0,0,1 @ F,0,0,1,0,0,0,1 @ F,0,0,1,0,0,0,1 @ F,0,0,1,0,0,0,1 @ F,0,0,1,0,0,0,1 @ F,0,0,1,0,0,0,1 @ F,0,0,1,0,0,0,1 @ F,0,0,1,0,0,0,1 @ F,0,0,1,0,0,0,1 @ F,0,0,1,0,0,0,1 @ F,0,0,1,0,0,0,1 @ F,0,0,1,0,0,0,1 @ F,0,0,1,0,0,0,1 @ F,0,0,1,0,0,0,1 @ F,0,0,1,0,0,0,1 @ F,0,0,1,0,0,0,1 @ F,0,0,1,0,0,0,1 @ F,0,0,1,0,0,0,1 @ F,0,0,1,0,0,0,1 @ F,0,0,1,0,0,0,1 @ F,0,0,1,0,0,0,1 @ F,0,0,1,0,0,0,1 @ F,0,0,1,0,0,0,1 @ F,0,0,1,0,0,0,1 @ F,0,0,1,0,0,0,1 @ F,0,0,1,0,0,0,1 @ F,0,0,1,0,0,0,1 @ F,0,0,1,0,0,0,1 @ F,0,0,1,0,0,0,1 @ F,0,0,1,0,0,0,1 @ F,0,0,1,0,0,0,1 @ F,0,0,1,0,0,0,1 @ F,0,0,1,0,2,0,1 @ F,0,0,1,0,2,0,1 @ F,0,0,1,0,0,0,1 @ F,0,0,1,0,0,0,1 @ F,0,0,1,0,0,0,1 @ F,0,0,1,0,0,0,1 @ F,0,0,1,0,0,0,1 @ F,0,0,1,0,0,0,1 @ F,0,0,1,0,0,0,1 @ F,0,0,1,0,0,0,1 @ F,0,0,1,0,2,0,1 @ F,0,0,1,0,2,0,1 @ F,0,0,1,0,0,0,1 @ F,0,0,1,0,0,0,1 @ F,0,0,1,0,0,0,1 @ F,0,0,1,0,0,0,1 @ F,0,0,1,0,0,0,1 @ F,0,0,1,0,0,0,1 @ F,0,0,1,0,0,0,1 @ F,0,0,1,0,0,0,1 @ F,0,0,1,0,0,0,1 @ F,0,0,1,0,0,0,1 @ F,0,0,1,0,0,0,1 @ F,0,0,1,0,0,0,1"
       radius="0"
       unit="px"
       method="auto"
       mode="F"
       chamfer_steps="1"
       flexible="false"
       use_knot_distance="true"
       apply_no_radius="true"
       apply_with_radius="true"
       only_selected="false"
       hide_knots="false" />
    <clipPath
       clipPathUnits="userSpaceOnUse"
       id="clipPath6470-8-0">
      <g
         id="g6476-9-2"
         style="stroke-width:1">
        <g
           id="g6474-7-4"
           style="stroke-width:1"
           transform="translate(7.5335,-25.11176)">
          <path
             d="m 407.89623,-733.2633 h 877.45697 v -338.65 H 407.89623 Z"
             id="path6472-6-1"
             style="stroke-width:1"
             sodipodi:nodetypes="ccccc" />
        </g>
      </g>
    </clipPath>
    <clipPath
       clipPathUnits="userSpaceOnUse"
       id="clipPath6470-8-0-3">
      <g
         id="g6476-9-2-6"
         style="stroke-width:1">
        <g
           id="g6474-7-4-1"
           style="stroke-width:1"
           transform="translate(7.5335,-25.11176)">
          <path
             d="m 407.89623,-733.2633 h 877.45697 v -338.65 H 407.89623 Z"
             id="path6472-6-1-1"
             style="stroke-width:1"
             sodipodi:nodetypes="ccccc" />
        </g>
      </g>
    </clipPath>
  </defs>
  <g
     inkscape:label="Katman 1"
     inkscape:groupmode="layer"
     id="layer1"
     transform="translate(-77.504638,-670.9652)">
    <g
       id="g2"
       transform="translate(-92.925612,194.49241)"
       style="stroke:#000000;stroke-width:0.25;stroke-dasharray:none">
      <g
         id="g5"
         transform="translate(135.54476,16.176124)"
         style="stroke:#000000;stroke-width:0.25;stroke-dasharray:none">
        <path
           d="m 318.05176,578.10235 c 0,0.60749 -0.4953,1.09891 -1.10278,1.0975 -0.60748,-0.002 -1.09855,-0.49566 -1.09715,-1.10314 0,-0.60713 0.49496,-1.09855 1.10279,-1.09714 0.60713,0.001 1.09855,0.49495 1.09714,1.10278 z"
           style="fill:none;fill-opacity:1;fill-rule:nonzero;stroke:#000000;stroke-width:0.25;stroke-linecap:butt;stroke-linejoin:miter;stroke-miterlimit:10;stroke-dasharray:none;stroke-opacity:1"
           id="path63698-74-2-9-7" />
        <g
           id="g1"
           style="stroke:#000000;stroke-width:0.25;stroke-dasharray:none">
          <path
             id="rect20648-6-8"
             style="fill:none;fill-opacity:1;fill-rule:nonzero;stroke:#000000;stroke-width:0.25;stroke-miterlimit:4.2;stroke-dasharray:none;stroke-opacity:1;stop-color:#000000"
             d="m 297.73913,537.33677 c -0.45096,-7e-5 -0.88638,0.15718 -1.22421,0.44212 l -7.19129,6.06899 c -0.14502,0.12544 -0.24741,0.28936 -0.29404,0.47071 -0.004,0.006 -0.007,0.0115 -0.0109,0.0173 -0.0236,0.14461 -0.0114,0.29248 0.0357,0.43177 2.6e-4,0.0449 0.004,0.0897 0.0114,0.13407 l 5.3e-4,0.002 c 1.8e-4,10e-4 2.7e-4,0.003 5.3e-4,0.004 l 12.75322,32.58936 c 0.16187,0.37343 0.54373,0.6171 0.96739,0.6171 h 0.0367 8.72659 c 1.40772,1.35576 3.32319,2.12153 5.32371,2.12831 0.0234,-0.003 0.0469,-0.006 0.0703,-0.009 0.0236,0.003 0.0472,0.006 0.0708,0.009 2.00052,-0.007 3.91598,-0.77255 5.3237,-2.12831 h 8.72607 0.0372 c 0.42365,0 0.8055,-0.24368 0.96737,-0.6171 l 12.75323,-32.58936 c 0.0225,-0.0526 0.04,-0.10704 0.0522,-0.16265 0.0119,-0.0525 0.019,-0.10598 0.0212,-0.1597 5.3e-4,-0.039 -0.002,-0.078 -0.006,-0.11682 -5.3e-4,-0.0166 -0.002,-0.0332 -0.003,-0.0498 0,-7.9e-4 0,-10e-4 0,-0.002 -0.002,-0.009 -0.004,-0.0174 -0.007,-0.0261 -0.0372,-0.20948 -0.14802,-0.40067 -0.31419,-0.54218 l -7.1913,-6.06899 c -0.33783,-0.28494 -0.77325,-0.44219 -1.22422,-0.44212 h -0.28472 -37.84214 z"
             sodipodi:nodetypes="scccccccccscccccccsccccccccccsccs" />
        </g>
        <path
           d="m 338.18542,544.53097 c 0,0.60749 -0.4953,1.0989 -1.10278,1.09749 -0.60749,-0.002 -1.09855,-0.49565 -1.09715,-1.10313 0,-0.60713 0.49495,-1.09855 1.10278,-1.09714 0.60714,10e-4 1.09855,0.49495 1.09715,1.10278 z"
           style="fill:none;fill-opacity:1;fill-rule:nonzero;stroke:#000000;stroke-width:0.25;stroke-linecap:butt;stroke-linejoin:miter;stroke-miterlimit:10;stroke-dasharray:none;stroke-opacity:1"
           id="path63698-74-2-7-4-6" />
        <path
           d="m 297.91814,544.53097 c -10e-4,0.60749 -0.4953,1.0989 -1.10278,1.09749 -0.60749,-0.002 -1.09855,-0.49565 -1.09714,-1.10313 0.001,-0.60713 0.49495,-1.09855 1.10278,-1.09714 0.60713,10e-4 1.09855,0.49495 1.09714,1.10278 z"
           style="fill:none;fill-opacity:1;fill-rule:nonzero;stroke:#000000;stroke-width:0.25;stroke-linecap:butt;stroke-linejoin:miter;stroke-miterlimit:10;stroke-dasharray:none;stroke-opacity:1"
           id="path63698-7-8-2" />
      </g>
    </g>
    <g
       id="g3"
       transform="translate(89.42873,206.90397)"
       style="stroke:#000000;stroke-width:0.25;stroke-dasharray:none">
      <path
         id="rect480-10-8-2"
         style="fill:none;fill-opacity:0.960688;stroke-linecap:round;stroke-linejoin:bevel"
         transform="rotate(-9.9999991)"
         d="m 181.28819,511.8074 h 14.2 v 14.2 h -14.2 z" />
      <path
         id="rect480-10-9-80-0"
         style="fill:none;fill-opacity:0.960688;stroke-linecap:round;stroke-linejoin:bevel"
         transform="rotate(-9.9999991)"
         d="m 181.26857,530.85651 h 14.2 v 14.2 h -14.2 z" />
      <path
         id="rect480-10-4-6-9"
         style="fill:none;fill-opacity:0.960688;stroke-linecap:round;stroke-linejoin:bevel"
         transform="rotate(-9.9999991)"
         d="m 181.27832,549.90118 h 14.2 v 14.2 h -14.2 z" />
      <path
         id="rect480-49"
         style="fill:none;fill-opacity:0.960688;stroke-linecap:round;stroke-linejoin:bevel"
         transform="rotate(9.9999991)"
         d="m 86.482292,462.10825 h 14.199998 v 14.2 H 86.482292 Z" />
      <path
         id="rect480-7-9"
         style="fill:none;fill-opacity:0.960688;stroke-linecap:round;stroke-linejoin:bevel"
         transform="rotate(9.9999991)"
         d="m 86.486794,481.18646 h 14.199996 v 14.2 H 86.486794 Z" />
      <path
         id="rect480-8-7"
         style="fill:none;fill-opacity:0.960688;stroke-linecap:round;stroke-linejoin:bevel"
         transform="rotate(9.9999991)"
         d="m 86.45755,500.23566 h 14.2 v 14.2 h -14.2 z" />
      <path
         id="rect480-0-0"
         style="fill:none;fill-opacity:0.960688;stroke-linecap:round;stroke-linejoin:bevel"
         transform="rotate(9.9999991)"
         d="m 105.53991,462.13358 h 14.2 v 14.2 h -14.2 z" />
      <path
         id="rect480-83-0"
         style="fill:none;fill-opacity:0.960688;stroke-linecap:round;stroke-linejoin:bevel"
         transform="rotate(9.9999991)"
         d="m 105.55364,481.16281 h 14.2 v 14.2 h -14.2 z" />
      <path
         id="rect480-75-1"
         style="fill:none;fill-opacity:0.960688;stroke-linecap:round;stroke-linejoin:bevel"
         transform="rotate(9.9999991)"
         d="m 105.56203,500.22586 h 14.2 v 14.2 h -14.2 z" />
      <path
         id="rect480-01-4"
         style="fill:none;fill-opacity:0.960688;stroke-linecap:round;stroke-linejoin:bevel"
         transform="rotate(9.9999991)"
         d="m 124.55406,455.12738 h 14.2 v 14.2 h -14.2 z" />
      <path
         id="rect480-6-7"
         style="fill:none;fill-opacity:0.960688;stroke-linecap:round;stroke-linejoin:bevel"
         transform="rotate(9.9999991)"
         d="m 124.56835,474.21939 h 14.2 v 14.2 h -14.2 z" />
      <path
         id="rect480-5-2"
         style="fill:none;fill-opacity:0.960688;stroke-linecap:round;stroke-linejoin:bevel"
         transform="rotate(9.9999991)"
         d="m 124.57244,493.26257 h 14.2 v 14.2 h -14.2 z" />
      <path
         id="rect480-05-1"
         style="fill:none;fill-opacity:0.960688;stroke-linecap:round;stroke-linejoin:bevel"
         transform="rotate(9.9999991)"
         d="m 143.63126,451.59961 h 14.2 v 14.2 h -14.2 z" />
      <path
         id="rect480-4-9"
         style="fill:none;fill-opacity:0.960688;stroke-linecap:round;stroke-linejoin:bevel"
         transform="rotate(9.9999991)"
         d="m 143.63225,470.63931 h 14.2 v 14.2 h -14.2 z" />
      <path
         id="rect480-71-6"
         style="fill:none;fill-opacity:0.960688;stroke-linecap:round;stroke-linejoin:bevel"
         transform="rotate(9.9999991)"
         d="m 143.64186,489.72495 h 14.2 v 14.2 h -14.2 z" />
      <path
         id="rect480-2-8"
         style="fill:none;fill-opacity:0.960688;stroke-linecap:round;stroke-linejoin:bevel"
         transform="rotate(9.9999991)"
         d="m 162.70334,455.1127 h 14.2 v 14.2 h -14.2 z" />
      <path
         id="rect480-46-9"
         style="fill:none;fill-opacity:0.960688;stroke-linecap:round;stroke-linejoin:bevel"
         transform="rotate(9.9999991)"
         d="m 162.70171,474.15601 h 14.2 v 14.2 h -14.2 z" />
      <path
         id="rect480-9-5"
         style="fill:none;fill-opacity:0.960688;stroke-linecap:round;stroke-linejoin:bevel"
         transform="rotate(9.9999991)"
         d="m 162.70297,493.1973 h 14.2 v 14.2 h -14.2 z" />
      <path
         id="rect480-9-0-5"
         style="fill:none;fill-opacity:0.960688;stroke-linecap:round;stroke-linejoin:bevel"
         transform="rotate(9.9999991)"
         d="m 150.47722,515.07837 h 14.2 v 14.2 h -14.2 z" />
      <path
         id="rect480-98-0"
         style="fill:none;fill-opacity:0.960688;stroke-linecap:round;stroke-linejoin:bevel"
         transform="rotate(9.9999991)"
         d="m 181.72591,458.63309 h 14.2 v 14.2 h -14.2 z" />
      <path
         id="rect480-1-8"
         style="fill:none;fill-opacity:0.960688;stroke-linecap:round;stroke-linejoin:bevel"
         transform="rotate(9.9999991)"
         d="m 181.73117,477.68307 h 14.2 v 14.20001 h -14.2 z" />
      <path
         id="rect480-21-2"
         style="fill:none;fill-opacity:0.960688;stroke-linecap:round;stroke-linejoin:bevel"
         transform="rotate(9.9999991)"
         d="m 181.73131,496.71912 h 14.2 v 14.2 h -14.2 z" />
      <path
         id="rect480-10-5-9"
         style="fill:none;fill-opacity:0.960688;stroke-linecap:round;stroke-linejoin:bevel"
         transform="rotate(-9.9999991)"
         d="m 116.96695,564.90704 h 14.2 v 14.2 h -14.2 z" />
      <path
         id="rect480-10-5-7-59"
         style="fill:none;fill-opacity:0.960688;stroke-linecap:round;stroke-linejoin:bevel"
         transform="rotate(-23.859408)"
         d="m -44.841911,575.48865 h 14.199999 v 14.2 h -14.199999 z" />
      <path
         id="rect480-10-5-7-5-7"
         style="fill:none;fill-opacity:0.960688;stroke-linecap:round;stroke-linejoin:bevel"
         transform="rotate(-39.92044)"
         d="m -225.82608,534.53302 h 14.2 v 14.2 h -14.2 z" />
      <path
         id="rect480-9-3-8"
         style="fill:none;fill-opacity:0.960688;stroke-linecap:round;stroke-linejoin:bevel"
         transform="rotate(25.132096)"
         d="m 302.58258,453.02048 h 14.2 v 14.2 h -14.2 z" />
      <path
         id="rect480-9-7-1"
         style="fill:none;fill-opacity:0.960688;stroke-linecap:round;stroke-linejoin:bevel"
         transform="rotate(39.954419)"
         d="m 431.31726,350.89795 h 14.2 v 14.2 h -14.2 z" />
      <path
         id="rect480-9-32-0"
         style="fill:none;fill-opacity:0.960688;stroke-linecap:round;stroke-linejoin:bevel"
         d="m 136.09007,544.31592 h 14.2 v 14.2 h -14.2 z" />
      <path
         id="rect480-9-32-8-2"
         style="fill:none;fill-opacity:0.960688;stroke-linecap:round;stroke-linejoin:bevel"
         d="m 116.98862,563.37048 h 14.2 v 14.2 h -14.2 z" />
      <path
         id="rect480-9-32-1-8"
         style="fill:none;fill-opacity:0.960688;stroke-linecap:round;stroke-linejoin:bevel"
         d="m 136.08427,563.37048 h 14.2 v 14.2 h -14.2 z" />
      <path
         id="rect480-9-32-2-5"
         style="fill:none;fill-opacity:0.960688;stroke-linecap:round;stroke-linejoin:bevel"
         d="m 155.22231,563.37048 h 14.2 v 14.2 h -14.2 z" />
      <path
         d="m 143.83247,510.79068 c 0,0.60749 -0.4953,1.09891 -1.10278,1.0975 -0.60748,-0.002 -1.09855,-0.49566 -1.09715,-1.10314 0,-0.60712 0.49496,-1.09855 1.10278,-1.09714 0.60714,10e-4 1.09855,0.49495 1.09715,1.10278 z"
         style="fill:none;fill-opacity:1;fill-rule:nonzero;stroke:#000000;stroke-width:0.25;stroke-linecap:butt;stroke-linejoin:miter;stroke-miterlimit:10;stroke-dasharray:none;stroke-opacity:1"
         id="path63698-74-2-9-4" />
      <path
         d="m 38.870698,471.26652 c 0,0.60749 -0.4953,1.0989 -1.102783,1.09749 -0.607481,-0.002 -1.09855,-0.49565 -1.097148,-1.10313 0,-0.60713 0.494956,-1.09855 1.102786,-1.09714 0.607137,10e-4 1.09855,0.49495 1.097145,1.10278 z"
         style="fill:none;fill-opacity:1;fill-rule:nonzero;stroke:#000000;stroke-width:0.25;stroke-linecap:butt;stroke-linejoin:miter;stroke-miterlimit:10;stroke-dasharray:none;stroke-opacity:1"
         id="path63698-74-2-9-5-6" />
      <path
         d="m 32.941563,523.38396 c 0,0.60749 -0.4953,1.09891 -1.102786,1.0975 -0.607483,-0.002 -1.09855,-0.49566 -1.097145,-1.10314 0,-0.60713 0.494956,-1.09855 1.102781,-1.09714 0.607139,0.001 1.09855,0.49495 1.09715,1.10278 z"
         style="fill:none;fill-opacity:1;fill-rule:nonzero;stroke:#000000;stroke-width:0.25;stroke-linecap:butt;stroke-linejoin:miter;stroke-miterlimit:10;stroke-dasharray:none;stroke-opacity:1"
         id="path63698-74-2-9-3-4" />
      <path
         d="m 83.889023,535.06972 c 0,0.60749 -0.4953,1.09891 -1.102781,1.0975 -0.607489,-0.002 -1.09855,-0.49566 -1.097151,-1.10314 0,-0.60713 0.494951,-1.09855 1.102781,-1.09714 0.60714,10e-4 1.09855,0.49495 1.097151,1.10278 z"
         style="fill:none;fill-opacity:1;fill-rule:nonzero;stroke:#000000;stroke-width:0.25;stroke-linecap:butt;stroke-linejoin:miter;stroke-miterlimit:10;stroke-dasharray:none;stroke-opacity:1"
         id="path63698-74-2-9-1-3" />
      <path
         d="m 111.45878,571.22521 c 0,0.60748 -0.4953,1.09891 -1.10278,1.0975 -0.60749,-0.002 -1.09855,-0.49566 -1.09715,-1.10313 0,-0.60714 0.49495,-1.09855 1.10278,-1.09714 0.60714,10e-4 1.09855,0.49494 1.09715,1.10277 z"
         style="fill:none;fill-opacity:1;fill-rule:nonzero;stroke:#000000;stroke-width:0.25;stroke-linecap:butt;stroke-linejoin:miter;stroke-miterlimit:10;stroke-dasharray:none;stroke-opacity:1"
         id="path63698-74-2-9-8-4" />
      <path
         d="m 176.5939,571.18324 c 0,0.60748 -0.4953,1.0989 -1.10278,1.09749 -0.60748,-0.002 -1.09855,-0.49565 -1.09715,-1.10314 0,-0.60713 0.49496,-1.09855 1.10278,-1.09714 0.60714,10e-4 1.09855,0.49495 1.09715,1.10279 z"
         style="fill:none;fill-opacity:1;fill-rule:nonzero;stroke:#000000;stroke-width:0.25;stroke-linecap:butt;stroke-linejoin:miter;stroke-miterlimit:10;stroke-dasharray:none;stroke-opacity:1"
         id="path63698-74-2-9-86-7" />
      <path
         d="m 204.1642,535.11242 c 0,0.60748 -0.4953,1.0989 -1.10278,1.09749 -0.60748,-0.002 -1.09855,-0.49565 -1.09715,-1.10314 0,-0.60713 0.49496,-1.09855 1.10278,-1.09714 0.60714,10e-4 1.09855,0.49495 1.09715,1.10279 z"
         style="fill:none;fill-opacity:1;fill-rule:nonzero;stroke:#000000;stroke-width:0.25;stroke-linecap:butt;stroke-linejoin:miter;stroke-miterlimit:10;stroke-dasharray:none;stroke-opacity:1"
         id="path63698-74-2-9-87-6" />
      <path
         d="m 255.57751,523.25714 c 0,0.60749 -0.4953,1.09891 -1.10279,1.0975 -0.60748,-0.002 -1.09855,-0.49566 -1.09715,-1.10314 0,-0.60713 0.49496,-1.09855 1.10279,-1.09714 0.60714,10e-4 1.09855,0.49495 1.09715,1.10278 z"
         style="fill:none;fill-opacity:1;fill-rule:nonzero;stroke:#000000;stroke-width:0.25;stroke-linecap:butt;stroke-linejoin:miter;stroke-miterlimit:10;stroke-dasharray:none;stroke-opacity:1"
         id="path63698-74-2-9-0-5" />
      <path
         d="m 249.22467,471.1397 c 0,0.60749 -0.4953,1.0989 -1.10278,1.09749 -0.60748,-0.002 -1.09855,-0.49565 -1.09715,-1.10313 0,-0.60713 0.49496,-1.09855 1.10279,-1.09714 0.60714,10e-4 1.09855,0.49495 1.09714,1.10278 z"
         style="fill:none;fill-opacity:1;fill-rule:nonzero;stroke:#000000;stroke-width:0.25;stroke-linecap:butt;stroke-linejoin:miter;stroke-miterlimit:10;stroke-dasharray:none;stroke-opacity:1"
         id="path63698-74-2-9-9-8" />
      <path
         d="m 160.4164,485.19578 c 0,0.60748 -0.4953,1.0989 -1.10278,1.09749 -0.6075,-0.002 -1.09855,-0.49565 -1.09716,-1.10314 0,-0.60713 0.49497,-1.09855 1.10279,-1.09714 0.60713,0.001 1.09855,0.49495 1.09715,1.10279 z"
         style="fill:none;fill-opacity:1;fill-rule:nonzero;stroke:#000000;stroke-width:0.25;stroke-linecap:butt;stroke-linejoin:miter;stroke-miterlimit:10;stroke-dasharray:none;stroke-opacity:1"
         id="path63698-74-2-9-879-5" />
      <path
         d="m 127.63699,485.19578 c 0,0.60748 -0.4953,1.0989 -1.10278,1.09749 -0.60749,-0.002 -1.09855,-0.49565 -1.09715,-1.10314 0,-0.60713 0.49495,-1.09855 1.10278,-1.09714 0.60714,0.001 1.09855,0.49495 1.09715,1.10279 z"
         style="fill:none;fill-opacity:1;fill-rule:nonzero;stroke:#000000;stroke-width:0.25;stroke-linecap:butt;stroke-linejoin:miter;stroke-miterlimit:10;stroke-dasharray:none;stroke-opacity:1"
         id="path63698-74-2-9-78-9" />
      <path
         id="rect480-10-71"
         style="fill:none;fill-opacity:0.960688;stroke-linecap:round;stroke-linejoin:bevel"
         transform="rotate(-9.9999991)"
         d="m 85.9608,508.34299 h 14.2 v 14.2 h -14.2 z" />
      <path
         id="rect480-10-9-96"
         style="fill:none;fill-opacity:0.960688;stroke-linecap:round;stroke-linejoin:bevel"
         transform="rotate(-9.9999991)"
         d="m 85.9524,527.37976 h 14.2 v 14.2 h -14.2 z" />
      <path
         id="rect480-10-4-26"
         style="fill:none;fill-opacity:0.960688;stroke-linecap:round;stroke-linejoin:bevel"
         transform="rotate(-9.9999991)"
         d="m 85.949753,546.42694 h 14.199997 v 14.2 H 85.949753 Z" />
      <path
         id="rect480-10-2-1"
         style="fill:none;fill-opacity:0.960688;stroke-linecap:round;stroke-linejoin:bevel"
         transform="rotate(-9.9999991)"
         d="m 105.01319,504.85211 h 14.2 v 14.2 h -14.2 z" />
      <path
         id="rect480-10-9-2-4"
         style="fill:none;fill-opacity:0.960688;stroke-linecap:round;stroke-linejoin:bevel"
         transform="rotate(-9.9999991)"
         d="m 105.00906,523.89105 h 14.2 v 14.2 h -14.2 z" />
      <path
         id="rect480-10-4-9-0"
         style="fill:none;fill-opacity:0.960688;stroke-linecap:round;stroke-linejoin:bevel"
         transform="rotate(-9.9999991)"
         d="m 105.00996,542.9483 h 14.2 v 14.2 h -14.2 z" />
      <path
         id="rect480-10-7-8"
         style="fill:none;fill-opacity:0.960688;stroke-linecap:round;stroke-linejoin:bevel"
         transform="rotate(-9.9999991)"
         d="m 124.08859,501.29761 h 14.2 v 14.2 h -14.2 z" />
      <path
         id="rect480-10-9-9-7"
         style="fill:none;fill-opacity:0.960688;stroke-linecap:round;stroke-linejoin:bevel"
         transform="rotate(-9.9999991)"
         d="m 124.08123,520.38098 h 14.2 v 14.2 h -14.2 z" />
      <path
         id="rect480-10-4-2-1"
         style="fill:none;fill-opacity:0.960688;stroke-linecap:round;stroke-linejoin:bevel"
         transform="rotate(-9.9999991)"
         d="m 124.08998,539.43707 h 14.2 v 14.2 h -14.2 z" />
      <path
         id="rect480-10-77-2"
         style="fill:none;fill-opacity:0.960688;stroke-linecap:round;stroke-linejoin:bevel"
         transform="rotate(-9.9999991)"
         d="m 143.11194,504.86404 h 14.2 v 14.2 h -14.2 z" />
      <path
         id="rect480-10-9-8-5"
         style="fill:none;fill-opacity:0.960688;stroke-linecap:round;stroke-linejoin:bevel"
         transform="rotate(-9.9999991)"
         d="m 143.1423,523.91858 h 14.2 v 14.2 h -14.2 z" />
      <path
         id="rect480-10-4-5-6"
         style="fill:none;fill-opacity:0.960688;stroke-linecap:round;stroke-linejoin:bevel"
         transform="rotate(-9.9999991)"
         d="m 143.11343,542.95648 h 14.2 v 14.2 h -14.2 z" />
      <path
         id="rect480-10-29-9"
         style="fill:none;fill-opacity:0.960688;stroke-linecap:round;stroke-linejoin:bevel"
         transform="rotate(-9.9999991)"
         d="m 162.19118,511.80264 h 14.2 v 14.2 h -14.2 z" />
      <path
         id="rect480-10-9-7-2"
         style="fill:none;fill-opacity:0.960688;stroke-linecap:round;stroke-linejoin:bevel"
         transform="rotate(-9.9999991)"
         d="m 162.20329,530.8335 h 14.2 v 14.2 h -14.2 z" />
      <path
         id="rect480-10-4-3-2"
         style="fill:none;fill-opacity:0.960688;stroke-linecap:round;stroke-linejoin:bevel"
         transform="rotate(-9.9999991)"
         d="m 162.20374,549.88422 h 14.2 v 14.2 h -14.2 z" />
      <path
         d="m 163.96612,477.2193 c 0,0.6075 -0.4953,1.0989 -1.10278,1.09749 -0.60749,-0.002 -1.09855,-0.49565 -1.09715,-1.10313 0,-0.60713 0.49495,-1.09855 1.10278,-1.09714 0.60714,0.001 1.09855,0.49495 1.09715,1.10278 z"
         style="fill:none;fill-opacity:1;fill-rule:nonzero;stroke:#000000;stroke-width:0.25;stroke-linecap:butt;stroke-linejoin:miter;stroke-miterlimit:10;stroke-dasharray:none;stroke-opacity:1"
         id="path63698-74-2-7-4-9" />
      <path
         d="m 123.69884,477.2193 c -0.001,0.6075 -0.4953,1.0989 -1.10278,1.09749 -0.60749,-0.002 -1.09855,-0.49565 -1.09714,-1.10313 0.001,-0.60713 0.49495,-1.09855 1.10278,-1.09714 0.60713,0.001 1.09855,0.49495 1.09714,1.10278 z"
         style="fill:none;fill-opacity:1;fill-rule:nonzero;stroke:#000000;stroke-width:0.25;stroke-linecap:butt;stroke-linejoin:miter;stroke-miterlimit:10;stroke-dasharray:none;stroke-opacity:1"
         id="path63698-7-8-8" />
      <path
         id="path30-5-1"
         clip-path="url(#clipPath6470-8-0-3)"
         style="fill:none;stroke:#000000;stroke-width:0.706138;stroke-linecap:round;stroke-linejoin:round;stroke-miterlimit:10;stroke-dasharray:none;stroke-opacity:1"
         d="m 452.17638,-758.50037 c -4.081,0 -7.56057,-2.99948 -8.40057,-7.07948 L 415.6959,-922.66024 c -0.841,-4.67999 2.15863,-9.11906 6.83863,-9.95906 l 110.28089,-20.51998 c 0.72,-0.12 1.44011,-0.1205 2.16011,0.1195 l 23.99954,4.91978 c 0.721,0.239 1.4401,0.2395 2.1601,0.1195 l 31.1994,-8.63877 c 1.32,-0.241 2.28003,-1.44009 2.28003,-2.76009 l -7.59912,-44.60154 c -0.24,-1.439 0.60018,-2.8801 2.04018,-3.3591 l 102.52528,-37.4142 c 0.88957,-0.3773 0.70316,-0.2499 1.1934,-0.6587 l 39.14075,-34.1703 c 0.8509,-0.6835 0.63761,-0.507 1.21241,-0.7957 l 30.80745,-14.0016 c 2.16,-1.441 4.91964,-2.2792 7.55964,-2.2792 h 4.44013 l 78.12063,-0.2419 78.24055,0.2419 h 4.43867 c 2.641,0 5.40003,0.7182 7.68103,2.2792 10.3687,4.6964 21.21213,9.2076 31.11165,14.0599 0.71574,0.3773 0.69048,0.4433 1.07786,0.7155 l 39.05149,33.9372 c 0.7538,0.7132 0.8412,0.7622 1.1774,0.902 l 102.3424,37.4259 c 1.439,0.359 2.2802,1.7996 2.0402,3.2396 l -7.602,44.72104 c 0,1.32 0.96,2.51909 2.28,2.76009 l 31.2009,8.51927 c 0.267,0.058 0.5927,0.10567 0.9667,0.11367 0.474,0.011 0.8794,-0.0457 1.1934,-0.11367 l 24.001,-5.03928 c 0.719,-0.12 1.4386,-0.12 2.1586,0 l 110.2794,20.51998 c 4.68,0.84 7.68,5.27957 6.96,9.83957 l -28.1983,157.19988 c -0.721,4.08 -4.3206,7.07998 -8.4006,6.95998 l -169.92,-0.35995 -0.8994,-0.15301 -50.4605,-9.08761 c -0.84,-0.12 -1.6801,-0.71879 -2.0401,-1.67879 l -2.2801,-5.40069 -93.6011,-19.32064 c -1.679,-0.36 -3.47891,8e-4 -4.79991,1.2008 l -18.60001,15.96015 c -1.56,1.44 -3.35922,2.27919 -5.15822,2.27919 h -2.87965 l -21.72098,-0.006 -9.05939,0.003 a 2.3986877,2.3986877 39.80026 0 1 -2.36031,-1.96656 l -0.77697,-4.24224 a 1.6669654,1.6669654 129.81062 0 1 1.63969,-1.96728 h 9.71751 c 1.2445,0 2.24639,-0.99832 2.24639,-2.23839 v -95.80461 c 0,-1.24007 -1.00189,-2.23838 -2.24639,-2.23838 h -56.68045 c -1.24451,0 -2.24639,0.99831 -2.24639,2.23838 v 95.80461 c 0,1.24007 1.00188,2.23839 2.24639,2.23839 h 9.00235 a 1.6675001,1.6675001 50.180342 0 1 1.64031,1.96739 l -0.77821,4.2566 a 2.3997052,2.3997052 140.16972 0 1 -2.35969,1.96813 l -8.78444,0.003 -22.08075,-0.0175 h -2.87965 c -1.8,0 -3.60115,-0.83919 -5.16115,-2.27919 l -18.59855,-15.96015 c -0.391,-0.32 -1.13113,-0.84256 -2.19813,-1.12356 -1.141,-0.299 -2.10024,-0.17724 -2.60324,-0.0772 -31.19897,6.44 -62.3997,12.88065 -93.59967,19.32064 l -2.28003,5.52019 c -0.36,0.83999 -1.20018,1.43929 -2.04018,1.55929 l -50.63889,9.24062 h -0.72101 z"
         transform="matrix(0.35346933,0,0,-0.35460842,-158.76576,195.13505)"
         sodipodi:nodetypes="cccccccccccccccccscccsccccccccccccccccccccccccccsccccssssssssccccscccccccccc" />
      <path
         id="rect4914-1-6-7"
         style="fill:none;fill-opacity:0.960688;stroke-linecap:round;stroke-linejoin:bevel"
         d="m 117.00878,520.35333 h 13 v 13 h -13 z" />
      <path
         id="rect4914-1-6-1-1"
         style="fill:none;fill-opacity:0.960688;stroke-linecap:round;stroke-linejoin:bevel"
         d="m 155.63409,520.3327 h 13 v 13 h -13 z" />
    </g>
    <g
       id="g4"
       transform="translate(60.93169,147.81631)"
       style="stroke:#000000;stroke-width:0.25;stroke-dasharray:none">
      <path
         id="path17429-7"
         style="fill:none;fill-opacity:1;fill-rule:nonzero;stroke:#000000;stroke-width:0.25;stroke-dasharray:none;stroke-opacity:1;stop-color:#000000"
         d="m 30.240786,612.99103 a 3.1499974,3.1499987 0 0 1 -3.149996,3.15001 3.1499974,3.1499987 0 0 1 -3.15,-3.15001 3.1499974,3.1499987 0 0 1 3.15,-3.14999 3.1499974,3.1499987 0 0 1 3.149996,3.14999 z" />
      <path
         id="path17427-8"
         style="fill:none;fill-opacity:1;fill-rule:nonzero;stroke:#000000;stroke-width:0.25;stroke-dasharray:none;stroke-opacity:1;stop-color:#000000"
         d="m 37.465788,612.99103 a 10.375001,10.375 0 0 1 -10.375,10.37501 10.375001,10.375 0 0 1 -10.375001,-10.37501 10.375001,10.375 0 0 1 10.375001,-10.37499 10.375001,10.375 0 0 1 10.375,10.37499 z" />
      <path
         id="path17429-7-8"
         style="fill:none;fill-opacity:1;fill-rule:nonzero;stroke:#000000;stroke-width:0.25;stroke-dasharray:none;stroke-opacity:1;stop-color:#000000"
         d="m 54.495629,612.99103 a 3.1499974,3.1499987 0 0 1 -3.149998,3.15001 3.1499974,3.1499987 0 0 1 -3.149998,-3.15001 3.1499974,3.1499987 0 0 1 3.149998,-3.14999 3.1499974,3.1499987 0 0 1 3.149998,3.14999 z" />
      <path
         id="path17427-8-1"
         style="fill:none;fill-opacity:1;fill-rule:nonzero;stroke:#000000;stroke-width:0.25;stroke-dasharray:none;stroke-opacity:1;stop-color:#000000"
         d="m 61.720631,612.99103 a 10.375001,10.375 0 0 1 -10.375001,10.37501 10.375001,10.375 0 0 1 -10.375,-10.37501 10.375001,10.375 0 0 1 10.375,-10.37499 10.375001,10.375 0 0 1 10.375001,10.37499 z" />
    </g>
  </g>
</svg>
