999
"DXF R12 Output" (www.mydxf.blogspot.com)
 0 
SECTION
 2 
HEADER
 9 
$ACADVER
 1 
AC1009
 9 
$EXTMIN
 10 
 0 
 20 
 0 
 9 
$EXTMAX
 10 
 8.5 
 20 
 11 
 0 
ENDSEC
 0 
SECTION
 2 
ENTITIES
0
LINE
8
Layer 1
10
256.713804
20
14.884499
11
256.512636
21
12.845530
0
LINE
8
Layer 1
10
256.512636
20
12.845530
11
255.923932
21
10.903664
0
LINE
8
Layer 1
10
255.923932
20
10.903664
11
254.969889
21
9.113536
0
LINE
8
Layer 1
10
254.969889
20
9.113536
11
253.672706
21
7.529783
0
LINE
8
Layer 1
10
253.672706
20
7.529783
11
252.090259
21
6.231124
0
LINE
8
Layer 1
10
252.090259
20
6.231124
11
250.302384
21
5.275135
0
LINE
8
Layer 1
10
250.302384
20
5.275135
11
248.363418
21
4.684733
0
LINE
8
Layer 1
10
248.363418
20
4.684733
11
246.327701
21
4.482839
0
LINE
8
Layer 1
10
246.327701
20
4.482839
11
244.291119
21
4.684733
0
LINE
8
Layer 1
10
244.291119
20
4.684733
11
242.351652
21
5.275135
0
LINE
8
Layer 1
10
242.351652
20
5.275135
11
240.563607
21
6.231124
0
LINE
8
Layer 1
10
240.563607
20
6.231124
11
238.981287
21
7.529783
0
LINE
8
Layer 1
10
238.981287
20
7.529783
11
237.684048
21
9.113536
0
LINE
8
Layer 1
10
237.684048
20
9.113536
11
236.729884
21
10.903664
0
LINE
8
Layer 1
10
236.729884
20
10.903664
11
236.141059
21
12.845530
0
LINE
8
Layer 1
10
236.141059
20
12.845530
11
235.939836
21
14.884499
0
LINE
8
Layer 1
10
235.939836
20
14.884499
11
236.150887
21
16.979939
0
LINE
8
Layer 1
10
236.150887
20
16.979939
11
236.756189
21
18.931739
0
LINE
8
Layer 1
10
236.756189
20
18.931739
11
237.713963
21
20.698058
0
LINE
8
Layer 1
10
237.713963
20
20.698058
11
238.982432
21
22.237054
0
LINE
8
Layer 1
10
238.982432
20
22.237054
11
240.519818
21
23.506886
0
LINE
8
Layer 1
10
240.519818
20
23.506886
11
242.284343
21
24.465712
0
LINE
8
Layer 1
10
242.284343
20
24.465712
11
244.234230
21
25.071692
0
LINE
8
Layer 1
10
244.234230
20
25.071692
11
246.327701
21
25.282983
0
LINE
8
Layer 1
10
246.327701
20
25.282983
11
248.420590
21
25.071692
0
LINE
8
Layer 1
10
248.420590
20
25.071692
11
250.370040
21
24.465712
0
LINE
8
Layer 1
10
250.370040
20
24.465712
11
252.134252
21
23.506886
0
LINE
8
Layer 1
10
252.134252
20
23.506886
11
253.671428
21
22.237054
0
LINE
8
Layer 1
10
253.671428
20
22.237054
11
254.939770
21
20.698058
0
LINE
8
Layer 1
10
254.939770
20
20.698058
11
255.897479
21
18.931739
0
LINE
8
Layer 1
10
255.897479
20
18.931739
11
256.502756
21
16.979939
0
LINE
8
Layer 1
10
256.502756
20
16.979939
11
256.713804
21
14.884499
0
LINE
8
Layer 1
10
256.713804
20
14.884499
11
256.713804
21
14.884499
0
LINE
8
Layer 1
10
240.821112
20
21.398603
11
251.830279
21
21.398603
0
LINE
8
Layer 1
10
251.830279
20
21.398603
11
252.220332
21
21.319977
0
LINE
8
Layer 1
10
252.220332
20
21.319977
11
252.538232
21
21.105356
0
LINE
8
Layer 1
10
252.538232
20
21.105356
11
252.752243
21
20.786621
0
LINE
8
Layer 1
10
252.752243
20
20.786621
11
252.830632
21
20.395655
0
LINE
8
Layer 1
10
252.830632
20
20.395655
11
252.830632
21
9.368520
0
LINE
8
Layer 1
10
252.830632
20
9.368520
11
252.752243
21
8.978386
0
LINE
8
Layer 1
10
252.752243
20
8.978386
11
252.538232
21
8.660451
0
LINE
8
Layer 1
10
252.538232
20
8.660451
11
252.220332
21
8.446430
0
LINE
8
Layer 1
10
252.220332
20
8.446430
11
251.830279
21
8.368042
0
LINE
8
Layer 1
10
251.830279
20
8.368042
11
240.821112
21
8.368042
0
LINE
8
Layer 1
10
240.821112
20
8.368042
11
240.431208
21
8.446430
0
LINE
8
Layer 1
10
240.431208
20
8.446430
11
240.113292
21
8.660451
0
LINE
8
Layer 1
10
240.113292
20
8.660451
11
239.899198
21
8.978386
0
LINE
8
Layer 1
10
239.899198
20
8.978386
11
239.820759
21
9.368520
0
LINE
8
Layer 1
10
239.820759
20
9.368520
11
239.820759
21
20.395655
0
LINE
8
Layer 1
10
239.820759
20
20.395655
11
239.899198
21
20.786621
0
LINE
8
Layer 1
10
239.899198
20
20.786621
11
240.113292
21
21.105356
0
LINE
8
Layer 1
10
240.113292
20
21.105356
11
240.431208
21
21.319977
0
LINE
8
Layer 1
10
240.431208
20
21.319977
11
240.821112
21
21.398603
0
LINE
8
Layer 1
10
240.821112
20
21.398603
11
240.821112
21
21.398603
0
LINE
8
Layer 1
10
74.921863
20
14.883499
11
74.720696
21
12.844530
0
LINE
8
Layer 1
10
74.720696
20
12.844530
11
74.131992
21
10.902664
0
LINE
8
Layer 1
10
74.131992
20
10.902664
11
73.177949
21
9.112536
0
LINE
8
Layer 1
10
73.177949
20
9.112536
11
71.880765
21
7.528783
0
LINE
8
Layer 1
10
71.880765
20
7.528783
11
70.298319
21
6.230124
0
LINE
8
Layer 1
10
70.298319
20
6.230124
11
68.510443
21
5.274135
0
LINE
8
Layer 1
10
68.510443
20
5.274135
11
66.571478
21
4.683733
0
LINE
8
Layer 1
10
66.571478
20
4.683733
11
64.535760
21
4.481839
0
LINE
8
Layer 1
10
64.535760
20
4.481839
11
62.499200
21
4.683733
0
LINE
8
Layer 1
10
62.499200
20
4.683733
11
60.559888
21
5.274135
0
LINE
8
Layer 1
10
60.559888
20
5.274135
11
58.772261
21
6.230124
0
LINE
8
Layer 1
10
58.772261
20
6.230124
11
57.190756
21
7.528783
0
LINE
8
Layer 1
10
57.190756
20
7.528783
11
55.893297
21
9.112536
0
LINE
8
Layer 1
10
55.893297
20
9.112536
11
54.938648
21
10.902664
0
LINE
8
Layer 1
10
54.938648
20
10.902664
11
54.349338
21
12.844530
0
LINE
8
Layer 1
10
54.349338
20
12.844530
11
54.147896
21
14.883499
0
LINE
8
Layer 1
10
54.147896
20
14.883499
11
54.358947
21
16.978939
0
LINE
8
Layer 1
10
54.358947
20
16.978939
11
54.964248
21
18.930739
0
LINE
8
Layer 1
10
54.964248
20
18.930739
11
55.922022
21
20.697058
0
LINE
8
Layer 1
10
55.922022
20
20.697058
11
57.190491
21
22.236054
0
LINE
8
Layer 1
10
57.190491
20
22.236054
11
58.727877
21
23.505886
0
LINE
8
Layer 1
10
58.727877
20
23.505886
11
60.492403
21
24.464712
0
LINE
8
Layer 1
10
60.492403
20
24.464712
11
62.442290
21
25.070692
0
LINE
8
Layer 1
10
62.442290
20
25.070692
11
64.535760
21
25.281983
0
LINE
8
Layer 1
10
64.535760
20
25.281983
11
66.629054
21
25.070692
0
LINE
8
Layer 1
10
66.629054
20
25.070692
11
68.578694
21
24.464712
0
LINE
8
Layer 1
10
68.578694
20
24.464712
11
70.342931
21
23.505886
0
LINE
8
Layer 1
10
70.342931
20
23.505886
11
71.880016
21
22.236054
0
LINE
8
Layer 1
10
71.880016
20
22.236054
11
73.148201
21
20.697058
0
LINE
8
Layer 1
10
73.148201
20
20.697058
11
74.105736
21
18.930739
0
LINE
8
Layer 1
10
74.105736
20
18.930739
11
74.710873
21
16.978939
0
LINE
8
Layer 1
10
74.710873
20
16.978939
11
74.921863
21
14.883499
0
LINE
8
Layer 1
10
74.921863
20
14.883499
11
74.921863
21
14.883499
0
LINE
8
Layer 1
10
59.030252
20
21.398603
11
70.039420
21
21.398603
0
LINE
8
Layer 1
10
70.039420
20
21.398603
11
70.429473
21
21.319977
0
LINE
8
Layer 1
10
70.429473
20
21.319977
11
70.747372
21
21.105356
0
LINE
8
Layer 1
10
70.747372
20
21.105356
11
70.961384
21
20.786621
0
LINE
8
Layer 1
10
70.961384
20
20.786621
11
71.039773
21
20.395655
0
LINE
8
Layer 1
10
71.039773
20
20.395655
11
71.039773
21
9.368520
0
LINE
8
Layer 1
10
71.039773
20
9.368520
11
70.961384
21
8.978386
0
LINE
8
Layer 1
10
70.961384
20
8.978386
11
70.747372
21
8.660451
0
LINE
8
Layer 1
10
70.747372
20
8.660451
11
70.429473
21
8.446430
0
LINE
8
Layer 1
10
70.429473
20
8.446430
11
70.039420
21
8.368042
0
LINE
8
Layer 1
10
70.039420
20
8.368042
11
59.030252
21
8.368042
0
LINE
8
Layer 1
10
59.030252
20
8.368042
11
58.640348
21
8.446430
0
LINE
8
Layer 1
10
58.640348
20
8.446430
11
58.322432
21
8.660451
0
LINE
8
Layer 1
10
58.322432
20
8.660451
11
58.108338
21
8.978386
0
LINE
8
Layer 1
10
58.108338
20
8.978386
11
58.029899
21
9.368520
0
LINE
8
Layer 1
10
58.029899
20
9.368520
11
58.029899
21
20.395655
0
LINE
8
Layer 1
10
58.029899
20
20.395655
11
58.108338
21
20.786621
0
LINE
8
Layer 1
10
58.108338
20
20.786621
11
58.322432
21
21.105356
0
LINE
8
Layer 1
10
58.322432
20
21.105356
11
58.640348
21
21.319977
0
LINE
8
Layer 1
10
58.640348
20
21.319977
11
59.030252
21
21.398603
0
LINE
8
Layer 1
10
59.030252
20
21.398603
11
59.030252
21
21.398603
0
LINE
8
Layer 1
10
29.331650
20
8.482130
11
29.244636
21
8.053090
0
LINE
8
Layer 1
10
29.244636
20
8.053090
11
29.007504
21
7.703328
0
LINE
8
Layer 1
10
29.007504
20
7.703328
11
28.656114
21
7.468063
0
LINE
8
Layer 1
10
28.656114
20
7.468063
11
28.226330
21
7.382520
0
LINE
8
Layer 1
10
28.226330
20
7.382520
11
27.798190
21
7.469979
0
LINE
8
Layer 1
10
27.798190
20
7.469979
11
27.448807
21
7.707188
0
LINE
8
Layer 1
10
27.448807
20
7.707188
11
27.213616
21
8.058639
0
LINE
8
Layer 1
10
27.213616
20
8.058639
11
27.128050
21
8.488830
0
LINE
8
Layer 1
10
27.128050
20
8.488830
11
27.215092
21
8.916685
0
LINE
8
Layer 1
10
27.215092
20
8.916685
11
27.452155
21
9.266619
0
LINE
8
Layer 1
10
27.452155
20
9.266619
11
27.803143
21
9.502648
0
LINE
8
Layer 1
10
27.803143
20
9.502648
11
28.231960
21
9.588790
0
LINE
8
Layer 1
10
28.231960
20
9.588790
11
28.660915
21
9.501078
0
LINE
8
Layer 1
10
28.660915
20
9.501078
11
29.010716
21
9.263419
0
LINE
8
Layer 1
10
29.010716
20
9.263419
11
29.246062
21
8.911780
0
LINE
8
Layer 1
10
29.246062
20
8.911780
11
29.331650
21
8.482130
0
LINE
8
Layer 1
10
29.331650
20
8.482130
11
29.331650
21
8.482130
0
LINE
8
Layer 1
10
49.489490
20
42.136420
11
49.402482
21
41.707532
0
LINE
8
Layer 1
10
49.402482
20
41.707532
11
49.165388
21
41.357753
0
LINE
8
Layer 1
10
49.165388
20
41.357753
11
48.814102
21
41.122404
0
LINE
8
Layer 1
10
48.814102
20
41.122404
11
48.384520
21
41.036810
0
LINE
8
Layer 1
10
48.384520
20
41.036810
11
47.956453
21
41.124275
0
LINE
8
Layer 1
10
47.956453
20
41.124275
11
47.607571
21
41.361523
0
LINE
8
Layer 1
10
47.607571
20
41.361523
11
47.372947
21
41.713081
0
LINE
8
Layer 1
10
47.372947
20
41.713081
11
47.287650
21
42.143480
0
LINE
8
Layer 1
10
47.287650
20
42.143480
11
47.374416
21
42.571326
0
LINE
8
Layer 1
10
47.374416
20
42.571326
11
47.610871
21
42.921220
0
LINE
8
Layer 1
10
47.610871
20
42.921220
11
47.961254
21
43.157144
0
LINE
8
Layer 1
10
47.961254
20
43.157144
11
48.389800
21
43.243080
0
LINE
8
Layer 1
10
48.389800
20
43.243080
11
48.818903
21
43.155418
0
LINE
8
Layer 1
10
48.818903
20
43.155418
11
49.168688
21
42.917844
0
LINE
8
Layer 1
10
49.168688
20
42.917844
11
49.403951
21
42.566222
0
LINE
8
Layer 1
10
49.403951
20
42.566222
11
49.489490
21
42.136420
0
LINE
8
Layer 1
10
49.489490
20
42.136420
11
49.489490
21
42.136420
0
LINE
8
Layer 1
10
9.172400
20
42.136420
11
9.084094
21
41.707532
0
LINE
8
Layer 1
10
9.084094
20
41.707532
11
8.847174
21
41.357753
0
LINE
8
Layer 1
10
8.847174
20
41.357753
11
8.496890
21
41.122404
0
LINE
8
Layer 1
10
8.496890
20
41.122404
11
8.068490
21
41.036810
0
LINE
8
Layer 1
10
8.068490
20
41.036810
11
7.640131
21
41.124275
0
LINE
8
Layer 1
10
7.640131
20
41.124275
11
7.290267
21
41.361523
0
LINE
8
Layer 1
10
7.290267
20
41.361523
11
7.054595
21
41.713081
0
LINE
8
Layer 1
10
7.054595
20
41.713081
11
6.968810
21
42.143480
0
LINE
8
Layer 1
10
6.968810
20
42.143480
11
7.057286
21
42.571326
0
LINE
8
Layer 1
10
7.057286
20
42.571326
11
7.294606
21
42.921220
0
LINE
8
Layer 1
10
7.294606
20
42.921220
11
7.645358
21
43.157144
0
LINE
8
Layer 1
10
7.645358
20
43.157144
11
8.074130
21
43.243080
0
LINE
8
Layer 1
10
8.074130
20
43.243080
11
8.502268
21
43.155418
0
LINE
8
Layer 1
10
8.502268
20
43.155418
11
8.851647
21
42.917844
0
LINE
8
Layer 1
10
8.851647
20
42.917844
11
9.086835
21
42.566222
0
LINE
8
Layer 1
10
9.086835
20
42.566222
11
9.172400
21
42.136420
0
LINE
8
Layer 1
10
9.172400
20
42.136420
11
9.172400
21
42.136420
0
LINE
8
Layer 1
10
8.991700
20
49.349310
11
8.337599
21
49.235014
0
LINE
8
Layer 1
10
8.337599
20
49.235014
11
7.768030
21
48.906930
0
LINE
8
Layer 1
10
7.768030
20
48.906930
11
0.567950
21
42.820100
0
LINE
8
Layer 1
10
0.567950
20
42.820100
11
0.273130
21
42.350200
0
LINE
8
Layer 1
10
0.273130
20
42.350200
11
0.261830
21
42.332200
0
LINE
8
Layer 1
10
0.261830
20
42.332200
11
0.297730
21
41.900760
0
LINE
8
Layer 1
10
0.297730
20
41.900760
11
0.308630
21
41.764580
0
LINE
8
Layer 1
10
0.308630
20
41.764580
11
0.311630
21
41.757580
0
LINE
8
Layer 1
10
0.311630
20
41.757580
11
13.080590
21
9.088590
0
LINE
8
Layer 1
10
13.080590
20
9.088590
11
13.466065
21
8.639814
0
LINE
8
Layer 1
10
13.466065
20
8.639814
11
14.047830
21
8.471230
0
LINE
8
Layer 1
10
14.047830
20
8.471230
11
22.823470
21
8.471230
0
LINE
8
Layer 1
10
22.823470
20
8.471230
11
23.969440
21
7.565567
0
LINE
8
Layer 1
10
23.969440
20
7.565567
11
25.266324
21
6.897534
0
LINE
8
Layer 1
10
25.266324
20
6.897534
11
26.674296
21
6.483036
0
LINE
8
Layer 1
10
26.674296
20
6.483036
11
28.153530
21
6.337980
0
LINE
8
Layer 1
10
28.153530
20
6.337980
11
28.223930
21
6.345980
0
LINE
8
Layer 1
10
28.223930
20
6.345980
11
28.294030
21
6.337980
0
LINE
8
Layer 1
10
28.294030
20
6.337980
11
29.774011
21
6.483158
0
LINE
8
Layer 1
10
29.774011
20
6.483158
11
31.181936
21
6.897642
0
LINE
8
Layer 1
10
31.181936
20
6.897642
11
32.478511
21
7.565608
0
LINE
8
Layer 1
10
32.478511
20
7.565608
11
33.624440
21
8.471230
0
LINE
8
Layer 1
10
33.624440
20
8.471230
11
42.398320
21
8.471230
0
LINE
8
Layer 1
10
42.398320
20
8.471230
11
42.981446
21
8.639814
0
LINE
8
Layer 1
10
42.981446
20
8.639814
11
43.366970
21
9.088590
0
LINE
8
Layer 1
10
43.366970
20
9.088590
11
56.137330
21
41.757580
0
LINE
8
Layer 1
10
56.137330
20
41.757580
11
56.188430
21
41.923030
0
LINE
8
Layer 1
10
56.188430
20
41.923030
11
56.210230
21
42.082840
0
LINE
8
Layer 1
10
56.210230
20
42.082840
11
56.203230
21
42.199960
0
LINE
8
Layer 1
10
56.203230
20
42.199960
11
56.199230
21
42.249660
0
LINE
8
Layer 1
10
56.199230
20
42.249660
11
56.199230
21
42.251660
0
LINE
8
Layer 1
10
56.199230
20
42.251660
11
56.192230
21
42.278160
0
LINE
8
Layer 1
10
56.192230
20
42.278160
11
55.878040
21
42.819670
0
LINE
8
Layer 1
10
55.878040
20
42.819670
11
48.677600
21
48.906500
0
LINE
8
Layer 1
10
48.677600
20
48.906500
11
48.106933
21
49.234584
0
LINE
8
Layer 1
10
48.106933
20
49.234584
11
47.452520
21
49.348880
0
LINE
8
Layer 1
10
47.452520
20
49.348880
11
35.290120
21
49.348880
0
LINE
8
Layer 1
10
35.290120
20
49.348880
11
34.883109
21
49.201466
0
LINE
8
Layer 1
10
34.883109
20
49.201466
11
34.664190
21
48.827830
0
LINE
8
Layer 1
10
34.664190
20
48.827830
11
34.326750
21
46.972930
0
LINE
8
Layer 1
10
34.326750
20
46.972930
11
34.421799
21
46.610141
0
LINE
8
Layer 1
10
34.421799
20
46.610141
11
34.760710
21
46.450820
0
LINE
8
Layer 1
10
34.760710
20
46.450820
11
38.342250
21
46.450820
0
LINE
8
Layer 1
10
38.342250
20
46.450820
11
38.904780
21
46.218074
0
LINE
8
Layer 1
10
38.904780
20
46.218074
11
39.137610
21
45.655650
0
LINE
8
Layer 1
10
39.137610
20
45.655650
11
39.137610
21
11.598840
0
LINE
8
Layer 1
10
39.137610
20
11.598840
11
38.904780
21
11.034663
0
LINE
8
Layer 1
10
38.904780
20
11.034663
11
38.342250
21
10.802270
0
LINE
8
Layer 1
10
38.342250
20
10.802270
11
18.290440
21
10.802270
0
LINE
8
Layer 1
10
18.290440
20
10.802270
11
17.726860
21
11.034663
0
LINE
8
Layer 1
10
17.726860
20
11.034663
11
17.494030
21
11.598840
0
LINE
8
Layer 1
10
17.494030
20
11.598840
11
17.494030
21
45.655650
0
LINE
8
Layer 1
10
17.494030
20
45.655650
11
17.726860
21
46.218074
0
LINE
8
Layer 1
10
17.726860
20
46.218074
11
18.290440
21
46.450820
0
LINE
8
Layer 1
10
18.290440
20
46.450820
11
21.696930
21
46.450820
0
LINE
8
Layer 1
10
21.696930
20
46.450820
11
22.036001
21
46.610141
0
LINE
8
Layer 1
10
22.036001
20
46.610141
11
22.131240
21
46.972930
0
LINE
8
Layer 1
10
22.131240
20
46.972930
11
21.792030
21
48.827830
0
LINE
8
Layer 1
10
21.792030
20
48.827830
11
21.573977
21
49.201466
0
LINE
8
Layer 1
10
21.573977
20
49.201466
11
21.167870
21
49.348880
0
LINE
8
Layer 1
10
21.167870
20
49.348880
11
8.989970
21
49.348880
0
LINE
8
Layer 1
10
8.989970
20
49.348880
11
8.991700
21
49.349310
0
LINE
8
Layer 1
10
283.360650
20
8.482130
11
283.273636
21
8.053090
0
LINE
8
Layer 1
10
283.273636
20
8.053090
11
283.036504
21
7.703328
0
LINE
8
Layer 1
10
283.036504
20
7.703328
11
282.685114
21
7.468063
0
LINE
8
Layer 1
10
282.685114
20
7.468063
11
282.255330
21
7.382520
0
LINE
8
Layer 1
10
282.255330
20
7.382520
11
281.827190
21
7.469979
0
LINE
8
Layer 1
10
281.827190
20
7.469979
11
281.477807
21
7.707188
0
LINE
8
Layer 1
10
281.477807
20
7.707188
11
281.242616
21
8.058639
0
LINE
8
Layer 1
10
281.242616
20
8.058639
11
281.157050
21
8.488830
0
LINE
8
Layer 1
10
281.157050
20
8.488830
11
281.244092
21
8.916685
0
LINE
8
Layer 1
10
281.244092
20
8.916685
11
281.481155
21
9.266619
0
LINE
8
Layer 1
10
281.481155
20
9.266619
11
281.832143
21
9.502648
0
LINE
8
Layer 1
10
281.832143
20
9.502648
11
282.260960
21
9.588790
0
LINE
8
Layer 1
10
282.260960
20
9.588790
11
282.689915
21
9.501078
0
LINE
8
Layer 1
10
282.689915
20
9.501078
11
283.039716
21
9.263419
0
LINE
8
Layer 1
10
283.039716
20
9.263419
11
283.275062
21
8.911780
0
LINE
8
Layer 1
10
283.275062
20
8.911780
11
283.360650
21
8.482130
0
LINE
8
Layer 1
10
283.360650
20
8.482130
11
283.360650
21
8.482130
0
LINE
8
Layer 1
10
303.518490
20
42.136420
11
303.431482
21
41.707532
0
LINE
8
Layer 1
10
303.431482
20
41.707532
11
303.194388
21
41.357753
0
LINE
8
Layer 1
10
303.194388
20
41.357753
11
302.843102
21
41.122404
0
LINE
8
Layer 1
10
302.843102
20
41.122404
11
302.413520
21
41.036810
0
LINE
8
Layer 1
10
302.413520
20
41.036810
11
301.985453
21
41.124275
0
LINE
8
Layer 1
10
301.985453
20
41.124275
11
301.636571
21
41.361523
0
LINE
8
Layer 1
10
301.636571
20
41.361523
11
301.401947
21
41.713081
0
LINE
8
Layer 1
10
301.401947
20
41.713081
11
301.316650
21
42.143480
0
LINE
8
Layer 1
10
301.316650
20
42.143480
11
301.403416
21
42.571326
0
LINE
8
Layer 1
10
301.403416
20
42.571326
11
301.639871
21
42.921220
0
LINE
8
Layer 1
10
301.639871
20
42.921220
11
301.990254
21
43.157144
0
LINE
8
Layer 1
10
301.990254
20
43.157144
11
302.418800
21
43.243080
0
LINE
8
Layer 1
10
302.418800
20
43.243080
11
302.847903
21
43.155418
0
LINE
8
Layer 1
10
302.847903
20
43.155418
11
303.197688
21
42.917844
0
LINE
8
Layer 1
10
303.197688
20
42.917844
11
303.432951
21
42.566222
0
LINE
8
Layer 1
10
303.432951
20
42.566222
11
303.518490
21
42.136420
0
LINE
8
Layer 1
10
303.518490
20
42.136420
11
303.518490
21
42.136420
0
LINE
8
Layer 1
10
263.201400
20
42.136420
11
263.113094
21
41.707532
0
LINE
8
Layer 1
10
263.113094
20
41.707532
11
262.876174
21
41.357753
0
LINE
8
Layer 1
10
262.876174
20
41.357753
11
262.525890
21
41.122404
0
LINE
8
Layer 1
10
262.525890
20
41.122404
11
262.097490
21
41.036810
0
LINE
8
Layer 1
10
262.097490
20
41.036810
11
261.669131
21
41.124275
0
LINE
8
Layer 1
10
261.669131
20
41.124275
11
261.319267
21
41.361523
0
LINE
8
Layer 1
10
261.319267
20
41.361523
11
261.083595
21
41.713081
0
LINE
8
Layer 1
10
261.083595
20
41.713081
11
260.997810
21
42.143480
0
LINE
8
Layer 1
10
260.997810
20
42.143480
11
261.086286
21
42.571326
0
LINE
8
Layer 1
10
261.086286
20
42.571326
11
261.323606
21
42.921220
0
LINE
8
Layer 1
10
261.323606
20
42.921220
11
261.674358
21
43.157144
0
LINE
8
Layer 1
10
261.674358
20
43.157144
11
262.103130
21
43.243080
0
LINE
8
Layer 1
10
262.103130
20
43.243080
11
262.531268
21
43.155418
0
LINE
8
Layer 1
10
262.531268
20
43.155418
11
262.880648
21
42.917844
0
LINE
8
Layer 1
10
262.880648
20
42.917844
11
263.115835
21
42.566222
0
LINE
8
Layer 1
10
263.115835
20
42.566222
11
263.201400
21
42.136420
0
LINE
8
Layer 1
10
263.201400
20
42.136420
11
263.201400
21
42.136420
0
LINE
8
Layer 1
10
263.020700
20
49.349310
11
262.366599
21
49.235014
0
LINE
8
Layer 1
10
262.366599
20
49.235014
11
261.797030
21
48.906930
0
LINE
8
Layer 1
10
261.797030
20
48.906930
11
254.596950
21
42.820100
0
LINE
8
Layer 1
10
254.596950
20
42.820100
11
254.302130
21
42.350200
0
LINE
8
Layer 1
10
254.302130
20
42.350200
11
254.290830
21
42.332200
0
LINE
8
Layer 1
10
254.290830
20
42.332200
11
254.326730
21
41.900760
0
LINE
8
Layer 1
10
254.326730
20
41.900760
11
254.337630
21
41.764580
0
LINE
8
Layer 1
10
254.337630
20
41.764580
11
254.340630
21
41.757580
0
LINE
8
Layer 1
10
254.340630
20
41.757580
11
267.109590
21
9.088590
0
LINE
8
Layer 1
10
267.109590
20
9.088590
11
267.495065
21
8.639814
0
LINE
8
Layer 1
10
267.495065
20
8.639814
11
268.076830
21
8.471230
0
LINE
8
Layer 1
10
268.076830
20
8.471230
11
276.852470
21
8.471230
0
LINE
8
Layer 1
10
276.852470
20
8.471230
11
277.998440
21
7.565567
0
LINE
8
Layer 1
10
277.998440
20
7.565567
11
279.295324
21
6.897534
0
LINE
8
Layer 1
10
279.295324
20
6.897534
11
280.703296
21
6.483036
0
LINE
8
Layer 1
10
280.703296
20
6.483036
11
282.182530
21
6.337980
0
LINE
8
Layer 1
10
282.182530
20
6.337980
11
282.252930
21
6.345980
0
LINE
8
Layer 1
10
282.252930
20
6.345980
11
282.323030
21
6.337980
0
LINE
8
Layer 1
10
282.323030
20
6.337980
11
283.803011
21
6.483158
0
LINE
8
Layer 1
10
283.803011
20
6.483158
11
285.210936
21
6.897642
0
LINE
8
Layer 1
10
285.210936
20
6.897642
11
286.507511
21
7.565608
0
LINE
8
Layer 1
10
286.507511
20
7.565608
11
287.653440
21
8.471230
0
LINE
8
Layer 1
10
287.653440
20
8.471230
11
296.427320
21
8.471230
0
LINE
8
Layer 1
10
296.427320
20
8.471230
11
297.010446
21
8.639814
0
LINE
8
Layer 1
10
297.010446
20
8.639814
11
297.395970
21
9.088590
0
LINE
8
Layer 1
10
297.395970
20
9.088590
11
310.166330
21
41.757580
0
LINE
8
Layer 1
10
310.166330
20
41.757580
11
310.217430
21
41.923030
0
LINE
8
Layer 1
10
310.217430
20
41.923030
11
310.239230
21
42.082840
0
LINE
8
Layer 1
10
310.239230
20
42.082840
11
310.232230
21
42.199960
0
LINE
8
Layer 1
10
310.232230
20
42.199960
11
310.228230
21
42.249660
0
LINE
8
Layer 1
10
310.228230
20
42.249660
11
310.228230
21
42.251660
0
LINE
8
Layer 1
10
310.228230
20
42.251660
11
310.221230
21
42.278160
0
LINE
8
Layer 1
10
310.221230
20
42.278160
11
309.907040
21
42.819670
0
LINE
8
Layer 1
10
309.907040
20
42.819670
11
302.706600
21
48.906500
0
LINE
8
Layer 1
10
302.706600
20
48.906500
11
302.135933
21
49.234584
0
LINE
8
Layer 1
10
302.135933
20
49.234584
11
301.481520
21
49.348880
0
LINE
8
Layer 1
10
301.481520
20
49.348880
11
276.169040
21
49.348880
0
LINE
8
Layer 1
10
276.169040
20
49.348880
11
263.020700
21
49.349310
0
LINE
8
Layer 1
10
292.371250
20
46.450820
11
292.933780
21
46.218074
0
LINE
8
Layer 1
10
292.933780
20
46.218074
11
293.166610
21
45.655650
0
LINE
8
Layer 1
10
293.166610
20
45.655650
11
293.166610
21
11.598840
0
LINE
8
Layer 1
10
293.166610
20
11.598840
11
292.933780
21
11.034663
0
LINE
8
Layer 1
10
292.933780
20
11.034663
11
292.371250
21
10.802270
0
LINE
8
Layer 1
10
292.371250
20
10.802270
11
272.319440
21
10.802270
0
LINE
8
Layer 1
10
272.319440
20
10.802270
11
271.755860
21
11.034663
0
LINE
8
Layer 1
10
271.755860
20
11.034663
11
271.523030
21
11.598840
0
LINE
8
Layer 1
10
271.523030
20
11.598840
11
271.523030
21
45.655650
0
LINE
8
Layer 1
10
271.523030
20
45.655650
11
271.755860
21
46.218074
0
LINE
8
Layer 1
10
271.755860
20
46.218074
11
272.319440
21
46.450820
0
LINE
8
Layer 1
10
272.319440
20
46.450820
11
275.725930
21
46.450820
0
LINE
8
Layer 1
10
275.725930
20
46.450820
11
292.371250
21
46.450820
0
LINE
8
Layer 1
10
279.401860
20
112.179310
11
293.402870
21
114.654000
0
LINE
8
Layer 1
10
293.402870
20
114.654000
11
295.872330
21
100.633970
0
LINE
8
Layer 1
10
295.872330
20
100.633970
11
281.870110
21
98.161980
0
LINE
8
Layer 1
10
281.870110
20
98.161980
11
279.401860
21
112.179310
0
LINE
8
Layer 1
10
282.708010
20
93.380030
11
296.708760
21
95.852130
0
LINE
8
Layer 1
10
296.708760
20
95.852130
11
299.178300
21
81.833580
0
LINE
8
Layer 1
10
299.178300
20
81.833580
11
285.176150
21
79.361230
0
LINE
8
Layer 1
10
285.176150
20
79.361230
11
282.708010
21
93.380030
0
LINE
8
Layer 1
10
286.021340
20
74.598150
11
300.023720
21
77.069090
0
LINE
8
Layer 1
10
300.023720
20
77.069090
11
302.491860
21
63.050280
0
LINE
8
Layer 1
10
302.491860
20
63.050280
11
288.489470
21
60.579340
0
LINE
8
Layer 1
10
288.489470
20
60.579340
11
286.021340
21
74.598150
0
LINE
8
Layer 1
10
51.979555
20
113.407390
11
51.808979
21
112.567627
0
LINE
8
Layer 1
10
51.808979
20
112.567627
11
51.344604
21
111.879637
0
LINE
8
Layer 1
10
51.344604
20
111.879637
11
50.657460
21
111.414627
0
LINE
8
Layer 1
10
50.657460
20
111.414627
11
49.818579
21
111.243800
0
LINE
8
Layer 1
10
49.818579
20
111.243800
11
48.955857
21
111.414627
0
LINE
8
Layer 1
10
48.955857
20
111.414627
11
48.256099
21
111.879637
0
LINE
8
Layer 1
10
48.256099
20
111.879637
11
47.786770
21
112.567627
0
LINE
8
Layer 1
10
47.786770
20
112.567627
11
47.615335
21
113.407390
0
LINE
8
Layer 1
10
47.615335
20
113.407390
11
47.786770
21
114.271607
0
LINE
8
Layer 1
10
47.786770
20
114.271607
11
48.256099
21
114.971782
0
LINE
8
Layer 1
10
48.256099
20
114.971782
11
48.955857
21
115.440977
0
LINE
8
Layer 1
10
48.955857
20
115.440977
11
49.818579
21
115.612250
0
LINE
8
Layer 1
10
49.818579
20
115.612250
11
50.657460
21
115.440977
0
LINE
8
Layer 1
10
50.657460
20
115.440977
11
51.344604
21
114.971783
0
LINE
8
Layer 1
10
51.344604
20
114.971783
11
51.808979
21
114.271607
0
LINE
8
Layer 1
10
51.808979
20
114.271607
11
51.979555
21
113.407390
0
LINE
8
Layer 1
10
51.979555
20
113.407390
11
51.979555
21
113.407390
0
LINE
8
Layer 1
10
96.998583
20
49.601360
11
96.827588
21
48.763828
0
LINE
8
Layer 1
10
96.827588
20
48.763828
11
96.362399
21
48.076613
0
LINE
8
Layer 1
10
96.362399
20
48.076613
11
95.674705
21
47.611581
0
LINE
8
Layer 1
10
95.674705
20
47.611581
11
94.836199
21
47.440600
0
LINE
8
Layer 1
10
94.836199
20
47.440600
11
93.973328
21
47.611581
0
LINE
8
Layer 1
10
93.973328
20
47.611581
11
93.273587
21
48.076613
0
LINE
8
Layer 1
10
93.273587
20
48.076613
11
92.804341
21
48.763828
0
LINE
8
Layer 1
10
92.804341
20
48.763828
11
92.632956
21
49.601360
0
LINE
8
Layer 1
10
92.632956
20
49.601360
11
92.804341
21
50.466018
0
LINE
8
Layer 1
10
92.804341
20
50.466018
11
93.273587
21
51.167162
0
LINE
8
Layer 1
10
93.273587
20
51.167162
11
93.973328
21
51.637326
0
LINE
8
Layer 1
10
93.973328
20
51.637326
11
94.836199
21
51.809040
0
LINE
8
Layer 1
10
94.836199
20
51.809040
11
95.674705
21
51.637326
0
LINE
8
Layer 1
10
95.674705
20
51.637326
11
96.362399
21
51.167162
0
LINE
8
Layer 1
10
96.362399
20
51.167162
11
96.827588
21
50.466018
0
LINE
8
Layer 1
10
96.827588
20
50.466018
11
96.998583
21
49.601360
0
LINE
8
Layer 1
10
96.998583
20
49.601360
11
96.998583
21
49.601360
0
LINE
8
Layer 1
10
46.051828
20
61.290650
11
45.880833
21
60.451266
0
LINE
8
Layer 1
10
45.880833
20
60.451266
11
45.415644
21
59.762725
0
LINE
8
Layer 1
10
45.415644
20
59.762725
11
44.727950
21
59.296897
0
LINE
8
Layer 1
10
44.727950
20
59.296897
11
43.889444
21
59.125650
0
LINE
8
Layer 1
10
43.889444
20
59.125650
11
43.026501
21
59.296897
0
LINE
8
Layer 1
10
43.026501
20
59.296897
11
42.326259
21
59.762725
0
LINE
8
Layer 1
10
42.326259
20
59.762725
11
41.856445
21
60.451266
0
LINE
8
Layer 1
10
41.856445
20
60.451266
11
41.684790
21
61.290650
0
LINE
8
Layer 1
10
41.684790
20
61.290650
11
41.856445
21
62.154272
0
LINE
8
Layer 1
10
41.856445
20
62.154272
11
42.326259
21
62.854514
0
LINE
8
Layer 1
10
42.326259
20
62.854514
11
43.026501
21
63.324038
0
LINE
8
Layer 1
10
43.026501
20
63.324038
11
43.889444
21
63.495510
0
LINE
8
Layer 1
10
43.889444
20
63.495510
11
44.727950
21
63.324038
0
LINE
8
Layer 1
10
44.727950
20
63.324038
11
45.415644
21
62.854514
0
LINE
8
Layer 1
10
45.415644
20
62.854514
11
45.880833
21
62.154272
0
LINE
8
Layer 1
10
45.880833
20
62.154272
11
46.051828
21
61.290650
0
LINE
8
Layer 1
10
46.051828
20
61.290650
11
46.051828
21
61.290650
0
LINE
8
Layer 1
10
124.568341
20
13.446750
11
124.397550
21
12.607656
0
LINE
8
Layer 1
10
124.397550
20
12.607656
11
123.932728
21
11.920105
0
LINE
8
Layer 1
10
123.932728
20
11.920105
11
123.245203
21
11.455334
0
LINE
8
Layer 1
10
123.245203
20
11.455334
11
122.406301
21
11.284580
0
LINE
8
Layer 1
10
122.406301
20
11.284580
11
121.543970
21
11.455334
0
LINE
8
Layer 1
10
121.543970
20
11.455334
11
120.844044
21
11.920105
0
LINE
8
Layer 1
10
120.844044
20
11.920105
11
120.374349
21
12.607656
0
LINE
8
Layer 1
10
120.374349
20
12.607656
11
120.202711
21
13.446750
0
LINE
8
Layer 1
10
120.202711
20
13.446750
11
120.374349
21
14.310758
0
LINE
8
Layer 1
10
120.374349
20
14.310758
11
120.844044
21
15.011849
0
LINE
8
Layer 1
10
120.844044
20
15.011849
11
121.543970
21
15.482222
0
LINE
8
Layer 1
10
121.543970
20
15.482222
11
122.406301
21
15.654080
0
LINE
8
Layer 1
10
122.406301
20
15.654080
11
123.245203
21
15.482222
0
LINE
8
Layer 1
10
123.245203
20
15.482222
11
123.932728
21
15.011849
0
LINE
8
Layer 1
10
123.932728
20
15.011849
11
124.397550
21
14.310758
0
LINE
8
Layer 1
10
124.397550
20
14.310758
11
124.568341
21
13.446750
0
LINE
8
Layer 1
10
124.568341
20
13.446750
11
124.568341
21
13.446750
0
LINE
8
Layer 1
10
140.746556
20
99.476020
11
140.575765
21
98.638266
0
LINE
8
Layer 1
10
140.575765
20
98.638266
11
140.110943
21
97.950562
0
LINE
8
Layer 1
10
140.110943
20
97.950562
11
139.423420
21
97.485043
0
LINE
8
Layer 1
10
139.423420
20
97.485043
11
138.584524
21
97.313840
0
LINE
8
Layer 1
10
138.584524
20
97.313840
11
137.721597
21
97.485043
0
LINE
8
Layer 1
10
137.721597
20
97.485043
11
137.021734
21
97.950562
0
LINE
8
Layer 1
10
137.021734
20
97.950562
11
136.552366
21
98.638266
0
LINE
8
Layer 1
10
136.552366
20
98.638266
11
136.380926
21
99.476020
0
LINE
8
Layer 1
10
136.380926
20
99.476020
11
136.552366
21
100.340678
0
LINE
8
Layer 1
10
136.552366
20
100.340678
11
137.021734
21
101.041822
0
LINE
8
Layer 1
10
137.021734
20
101.041822
11
137.721597
21
101.511986
0
LINE
8
Layer 1
10
137.721597
20
101.511986
11
138.584524
21
101.683700
0
LINE
8
Layer 1
10
138.584524
20
101.683700
11
139.423420
21
101.511986
0
LINE
8
Layer 1
10
139.423420
20
101.511986
11
140.110943
21
101.041822
0
LINE
8
Layer 1
10
140.110943
20
101.041822
11
140.575765
21
100.340678
0
LINE
8
Layer 1
10
140.575765
20
100.340678
11
140.746556
21
99.476020
0
LINE
8
Layer 1
10
140.746556
20
99.476020
11
140.746556
21
99.476020
0
LINE
8
Layer 1
10
136.720283
20
107.459380
11
136.549266
21
106.620217
0
LINE
8
Layer 1
10
136.549266
20
106.620217
11
136.083921
21
105.932165
0
LINE
8
Layer 1
10
136.083921
20
105.932165
11
135.395807
21
105.466825
0
LINE
8
Layer 1
10
135.395807
20
105.466825
11
134.556483
21
105.295800
0
LINE
8
Layer 1
10
134.556483
20
105.295800
11
133.693764
21
105.466825
0
LINE
8
Layer 1
10
133.693764
20
105.466825
11
132.994008
21
105.932165
0
LINE
8
Layer 1
10
132.994008
20
105.932165
11
132.524680
21
106.620217
0
LINE
8
Layer 1
10
132.524680
20
106.620217
11
132.353245
21
107.459380
0
LINE
8
Layer 1
10
132.353245
20
107.459380
11
132.524680
21
108.323443
0
LINE
8
Layer 1
10
132.524680
20
108.323443
11
132.994008
21
109.024654
0
LINE
8
Layer 1
10
132.994008
20
109.024654
11
133.693764
21
109.495148
0
LINE
8
Layer 1
10
133.693764
20
109.495148
11
134.556483
21
109.667060
0
LINE
8
Layer 1
10
134.556483
20
109.667060
11
135.395807
21
109.495148
0
LINE
8
Layer 1
10
135.395807
20
109.495148
11
136.083921
21
109.024654
0
LINE
8
Layer 1
10
136.083921
20
109.024654
11
136.549266
21
108.323443
0
LINE
8
Layer 1
10
136.549266
20
108.323443
11
136.720283
21
107.459380
0
LINE
8
Layer 1
10
136.720283
20
107.459380
11
136.720283
21
107.459380
0
LINE
8
Layer 1
10
173.525250
20
99.476020
11
173.354679
21
98.638266
0
LINE
8
Layer 1
10
173.354679
20
98.638266
11
172.890341
21
97.950562
0
LINE
8
Layer 1
10
172.890341
20
97.950562
11
172.203300
21
97.485043
0
LINE
8
Layer 1
10
172.203300
20
97.485043
11
171.364620
21
97.313840
0
LINE
8
Layer 1
10
171.364620
20
97.313840
11
170.501694
21
97.485043
0
LINE
8
Layer 1
10
170.501694
20
97.485043
11
169.801834
21
97.950562
0
LINE
8
Layer 1
10
169.801834
20
97.950562
11
169.332469
21
98.638266
0
LINE
8
Layer 1
10
169.332469
20
98.638266
11
169.161030
21
99.476020
0
LINE
8
Layer 1
10
169.161030
20
99.476020
11
169.332469
21
100.340678
0
LINE
8
Layer 1
10
169.332469
20
100.340678
11
169.801834
21
101.041822
0
LINE
8
Layer 1
10
169.801834
20
101.041822
11
170.501694
21
101.511986
0
LINE
8
Layer 1
10
170.501694
20
101.511986
11
171.364620
21
101.683700
0
LINE
8
Layer 1
10
171.364620
20
101.683700
11
172.203300
21
101.511986
0
LINE
8
Layer 1
10
172.203300
20
101.511986
11
172.890341
21
101.041822
0
LINE
8
Layer 1
10
172.890341
20
101.041822
11
173.354679
21
100.340678
0
LINE
8
Layer 1
10
173.354679
20
100.340678
11
173.525250
21
99.476020
0
LINE
8
Layer 1
10
173.525250
20
99.476020
11
173.525250
21
99.476020
0
LINE
8
Layer 1
10
156.876530
20
73.805090
11
156.705960
21
72.966369
0
LINE
8
Layer 1
10
156.705960
20
72.966369
11
156.241620
21
72.278264
0
LINE
8
Layer 1
10
156.241620
20
72.278264
11
155.554568
21
71.812674
0
LINE
8
Layer 1
10
155.554568
20
71.812674
11
154.715860
21
71.641500
0
LINE
8
Layer 1
10
154.715860
20
71.641500
11
153.852893
21
71.812674
0
LINE
8
Layer 1
10
153.852893
20
71.812674
11
153.153013
21
72.278264
0
LINE
8
Layer 1
10
153.153013
20
72.278264
11
152.683640
21
72.966369
0
LINE
8
Layer 1
10
152.683640
20
72.966369
11
152.512200
21
73.805090
0
LINE
8
Layer 1
10
152.512200
20
73.805090
11
152.683640
21
74.669693
0
LINE
8
Layer 1
10
152.683640
20
74.669693
11
153.153013
21
75.370717
0
LINE
8
Layer 1
10
153.153013
20
75.370717
11
153.852893
21
75.840761
0
LINE
8
Layer 1
10
153.852893
20
75.840761
11
154.715860
21
76.012420
0
LINE
8
Layer 1
10
154.715860
20
76.012420
11
155.554568
21
75.840761
0
LINE
8
Layer 1
10
155.554568
20
75.840761
11
156.241620
21
75.370717
0
LINE
8
Layer 1
10
156.241620
20
75.370717
11
156.705960
21
74.669693
0
LINE
8
Layer 1
10
156.705960
20
74.669693
11
156.876530
21
73.805090
0
LINE
8
Layer 1
10
156.876530
20
73.805090
11
156.876530
21
73.805090
0
LINE
8
Layer 1
10
217.273750
20
49.560080
11
217.102974
21
48.721727
0
LINE
8
Layer 1
10
217.102974
20
48.721727
11
216.638265
21
48.034090
0
LINE
8
Layer 1
10
216.638265
20
48.034090
11
215.951054
21
47.568903
0
LINE
8
Layer 1
10
215.951054
20
47.568903
11
215.112770
21
47.397900
0
LINE
8
Layer 1
10
215.112770
20
47.397900
11
214.249231
21
47.568903
0
LINE
8
Layer 1
10
214.249231
20
47.568903
11
213.549056
21
48.034090
0
LINE
8
Layer 1
10
213.549056
20
48.034090
11
213.079576
21
48.721727
0
LINE
8
Layer 1
10
213.079576
20
48.721727
11
212.908120
21
49.560080
0
LINE
8
Layer 1
10
212.908120
20
49.560080
11
213.079576
21
50.424517
0
LINE
8
Layer 1
10
213.079576
20
50.424517
11
213.549056
21
51.125177
0
LINE
8
Layer 1
10
213.549056
20
51.125177
11
214.249231
21
51.594856
0
LINE
8
Layer 1
10
214.249231
20
51.594856
11
215.112770
21
51.766350
0
LINE
8
Layer 1
10
215.112770
20
51.766350
11
215.951054
21
51.594856
0
LINE
8
Layer 1
10
215.951054
20
51.594856
11
216.638265
21
51.125177
0
LINE
8
Layer 1
10
216.638265
20
51.125177
11
217.102974
21
50.424517
0
LINE
8
Layer 1
10
217.102974
20
50.424517
11
217.273750
21
49.560080
0
LINE
8
Layer 1
10
217.273750
20
49.560080
11
217.273750
21
49.560080
0
LINE
8
Layer 1
10
189.702760
20
13.489260
11
189.531992
21
12.650312
0
LINE
8
Layer 1
10
189.531992
20
12.650312
11
189.067326
21
11.962741
0
LINE
8
Layer 1
10
189.067326
20
11.962741
11
188.380220
21
11.497885
0
LINE
8
Layer 1
10
188.380220
20
11.497885
11
187.542130
21
11.327080
0
LINE
8
Layer 1
10
187.542130
20
11.327080
11
186.679211
21
11.497885
0
LINE
8
Layer 1
10
186.679211
20
11.497885
11
185.979346
21
11.962741
0
LINE
8
Layer 1
10
185.979346
20
11.962741
11
185.509974
21
12.650312
0
LINE
8
Layer 1
10
185.509974
20
12.650312
11
185.338530
21
13.489260
0
LINE
8
Layer 1
10
185.338530
20
13.489260
11
185.509974
21
14.353697
0
LINE
8
Layer 1
10
185.509974
20
14.353697
11
185.979346
21
15.054357
0
LINE
8
Layer 1
10
185.979346
20
15.054357
11
186.679211
21
15.524036
0
LINE
8
Layer 1
10
186.679211
20
15.524036
11
187.542130
21
15.695530
0
LINE
8
Layer 1
10
187.542130
20
15.695530
11
188.380220
21
15.524036
0
LINE
8
Layer 1
10
188.380220
20
15.524036
11
189.067326
21
15.054357
0
LINE
8
Layer 1
10
189.067326
20
15.054357
11
189.531992
21
14.353697
0
LINE
8
Layer 1
10
189.531992
20
14.353697
11
189.702760
21
13.489260
0
LINE
8
Layer 1
10
189.702760
20
13.489260
11
189.702760
21
13.489260
0
LINE
8
Layer 1
10
268.686360
20
61.415890
11
268.515594
21
60.576560
0
LINE
8
Layer 1
10
268.515594
20
60.576560
11
268.050932
21
59.888140
0
LINE
8
Layer 1
10
268.050932
20
59.888140
11
267.363833
21
59.422432
0
LINE
8
Layer 1
10
267.363833
20
59.422432
11
266.525750
21
59.251240
0
LINE
8
Layer 1
10
266.525750
20
59.251240
11
265.662821
21
59.422432
0
LINE
8
Layer 1
10
265.662821
20
59.422432
11
264.962954
21
59.888140
0
LINE
8
Layer 1
10
264.962954
20
59.888140
11
264.493582
21
60.576560
0
LINE
8
Layer 1
10
264.493582
20
60.576560
11
264.322140
21
61.415890
0
LINE
8
Layer 1
10
264.322140
20
61.415890
11
264.493582
21
62.280101
0
LINE
8
Layer 1
10
264.493582
20
62.280101
11
264.962954
21
62.981295
0
LINE
8
Layer 1
10
264.962954
20
62.981295
11
265.662821
21
63.451707
0
LINE
8
Layer 1
10
265.662821
20
63.451707
11
266.525750
21
63.623570
0
LINE
8
Layer 1
10
266.525750
20
63.623570
11
267.363833
21
63.451707
0
LINE
8
Layer 1
10
267.363833
20
63.451707
11
268.050932
21
62.981295
0
LINE
8
Layer 1
10
268.050932
20
62.981295
11
268.515594
21
62.280101
0
LINE
8
Layer 1
10
268.515594
20
62.280101
11
268.686360
21
61.415890
0
LINE
8
Layer 1
10
268.686360
20
61.415890
11
268.686360
21
61.415890
0
LINE
8
Layer 1
10
262.334250
20
113.534040
11
262.163259
21
112.694111
0
LINE
8
Layer 1
10
262.163259
20
112.694111
11
261.698104
21
112.005757
0
LINE
8
Layer 1
10
261.698104
20
112.005757
11
261.010512
21
111.540382
0
LINE
8
Layer 1
10
261.010512
20
111.540382
11
260.172210
21
111.369390
0
LINE
8
Layer 1
10
260.172210
20
111.369390
11
259.309887
21
111.540382
0
LINE
8
Layer 1
10
259.309887
20
111.540382
11
258.609960
21
112.005757
0
LINE
8
Layer 1
10
258.609960
20
112.005757
11
258.140260
21
112.694111
0
LINE
8
Layer 1
10
258.140260
20
112.694111
11
257.968620
21
113.534040
0
LINE
8
Layer 1
10
257.968620
20
113.534040
11
258.140260
21
114.398030
0
LINE
8
Layer 1
10
258.140260
20
114.398030
11
258.609960
21
115.098740
0
LINE
8
Layer 1
10
258.609960
20
115.098740
11
259.309887
21
115.568667
0
LINE
8
Layer 1
10
259.309887
20
115.568667
11
260.172210
21
115.740310
0
LINE
8
Layer 1
10
260.172210
20
115.740310
11
261.010512
21
115.568667
0
LINE
8
Layer 1
10
261.010512
20
115.568667
11
261.698104
21
115.098740
0
LINE
8
Layer 1
10
261.698104
20
115.098740
11
262.163259
21
114.398030
0
LINE
8
Layer 1
10
262.163259
20
114.398030
11
262.334250
21
113.534040
0
LINE
8
Layer 1
10
262.334250
20
113.534040
11
262.334250
21
113.534040
0
LINE
8
Layer 1
10
16.936745
20
114.586730
11
30.938960
21
112.114740
0
LINE
8
Layer 1
10
30.938960
20
112.114740
11
28.469805
21
98.094290
0
LINE
8
Layer 1
10
28.469805
20
98.094290
11
14.467547
21
100.568110
0
LINE
8
Layer 1
10
14.467547
20
100.568110
11
16.936745
21
114.586730
0
LINE
8
Layer 1
10
13.630874
20
95.810990
11
27.633129
21
93.337160
0
LINE
8
Layer 1
10
27.633129
20
93.337160
11
25.163580
21
79.318610
0
LINE
8
Layer 1
10
25.163580
20
79.318610
11
11.161367
21
81.790600
0
LINE
8
Layer 1
10
11.161367
20
81.790600
11
13.630874
21
95.810990
0
LINE
8
Layer 1
10
10.323529
20
77.059790
11
24.324562
21
74.587280
0
LINE
8
Layer 1
10
24.324562
20
74.587280
11
21.856423
21
60.568470
0
LINE
8
Layer 1
10
21.856423
20
60.568470
11
7.854268
21
63.040820
0
LINE
8
Layer 1
10
7.854268
20
63.040820
11
10.323529
21
77.059790
0
LINE
8
Layer 1
10
35.706212
20
111.252110
11
49.708364
21
108.779760
0
LINE
8
Layer 1
10
49.708364
20
108.779760
11
47.238815
21
94.761200
0
LINE
8
Layer 1
10
47.238815
20
94.761200
11
33.238073
21
97.233310
0
LINE
8
Layer 1
10
33.238073
20
97.233310
11
35.706212
21
111.252110
0
LINE
8
Layer 1
10
32.402656
20
92.526630
11
46.405057
21
90.055710
0
LINE
8
Layer 1
10
46.405057
20
90.055710
11
43.935508
21
76.037140
0
LINE
8
Layer 1
10
43.935508
20
76.037140
11
29.934517
21
78.507830
0
LINE
8
Layer 1
10
29.934517
20
78.507830
11
32.402656
21
92.526630
0
LINE
8
Layer 1
10
29.096767
20
73.730170
11
43.099168
21
71.259230
0
LINE
8
Layer 1
10
43.099168
20
71.259230
11
40.629618
21
57.240670
0
LINE
8
Layer 1
10
40.629618
20
57.240670
11
26.628877
21
59.712770
0
LINE
8
Layer 1
10
26.628877
20
59.712770
11
29.096767
21
73.730170
0
LINE
8
Layer 1
10
55.652975
20
114.840340
11
69.653716
21
112.368240
0
LINE
8
Layer 1
10
69.653716
20
112.368240
11
67.185826
21
98.350840
0
LINE
8
Layer 1
10
67.185826
20
98.350840
11
53.183362
21
100.821430
0
LINE
8
Layer 1
10
53.183362
20
100.821430
11
55.652975
21
114.840340
0
LINE
8
Layer 1
10
52.370287
20
96.064490
11
66.372441
21
93.592140
0
LINE
8
Layer 1
10
66.372441
20
93.592140
11
63.904654
21
79.573270
0
LINE
8
Layer 1
10
63.904654
20
79.573270
11
49.902396
21
82.047090
0
LINE
8
Layer 1
10
49.902396
20
82.047090
11
52.370287
21
96.064490
0
LINE
8
Layer 1
10
49.065826
20
77.288500
11
63.066570
21
74.816400
0
LINE
8
Layer 1
10
63.066570
20
74.816400
11
60.598783
21
60.797530
0
LINE
8
Layer 1
10
60.598783
20
60.797530
11
46.596216
21
63.269590
0
LINE
8
Layer 1
10
46.596216
20
63.269590
11
49.065826
21
77.288500
0
LINE
8
Layer 1
10
75.065491
20
115.007080
11
89.067706
21
112.535080
0
LINE
8
Layer 1
10
89.067706
20
112.535080
11
86.598093
21
98.516170
0
LINE
8
Layer 1
10
86.598093
20
98.516170
11
72.595941
21
100.988520
0
LINE
8
Layer 1
10
72.595941
20
100.988520
11
75.065491
21
115.007080
0
LINE
8
Layer 1
10
71.708822
20
96.259810
11
85.710935
21
93.789290
0
LINE
8
Layer 1
10
85.710935
20
93.789290
11
83.241676
21
79.770320
0
LINE
8
Layer 1
10
83.241676
20
79.770320
11
69.240747
21
82.241360
0
LINE
8
Layer 1
10
69.240747
20
82.241360
11
71.708822
21
96.259810
0
LINE
8
Layer 1
10
68.427502
20
77.460890
11
82.429757
21
74.987070
0
LINE
8
Layer 1
10
82.429757
20
74.987070
11
79.960314
21
60.967030
0
LINE
8
Layer 1
10
79.960314
20
60.967030
11
65.959466
21
63.440610
0
LINE
8
Layer 1
10
65.959466
20
63.440610
11
68.427502
21
77.460890
0
LINE
8
Layer 1
10
93.224085
20
108.236960
11
107.226137
21
105.766090
0
LINE
8
Layer 1
10
107.226137
20
105.766090
11
104.757998
21
91.747280
0
LINE
8
Layer 1
10
104.757998
20
91.747280
11
90.755946
21
94.218160
0
LINE
8
Layer 1
10
90.755946
20
94.218160
11
93.224085
21
108.236960
0
LINE
8
Layer 1
10
89.918050
20
89.487000
11
103.920097
21
87.016120
0
LINE
8
Layer 1
10
103.920097
20
87.016120
11
101.450902
21
72.997500
0
LINE
8
Layer 1
10
101.450902
20
72.997500
11
87.449909
21
75.468190
0
LINE
8
Layer 1
10
87.449909
20
75.468190
11
89.918050
21
89.487000
0
LINE
8
Layer 1
10
86.610690
20
70.739730
11
100.614210
21
68.268960
0
LINE
8
Layer 1
10
100.614210
20
68.268960
11
98.144952
21
54.249990
0
LINE
8
Layer 1
10
98.144952
20
54.249990
11
84.142800
21
56.722340
0
LINE
8
Layer 1
10
84.142800
20
56.722340
11
86.610690
21
70.739730
0
LINE
8
Layer 1
10
70.756563
20
51.281790
11
84.757554
21
48.811100
0
LINE
8
Layer 1
10
84.757554
20
48.811100
11
82.289415
21
34.792300
0
LINE
8
Layer 1
10
82.289415
20
34.792300
11
68.287014
21
37.263230
0
LINE
8
Layer 1
10
68.287014
20
37.263230
11
70.756563
21
51.281790
0
LINE
8
Layer 1
10
111.359317
20
101.496650
11
125.360056
21
99.024550
0
LINE
8
Layer 1
10
125.360056
20
99.024550
11
122.891917
21
85.005750
0
LINE
8
Layer 1
10
122.891917
20
85.005750
11
108.889707
21
87.477740
0
LINE
8
Layer 1
10
108.889707
20
87.477740
11
111.359317
21
101.496650
0
LINE
8
Layer 1
10
108.054452
20
82.720730
11
122.056853
21
80.249790
0
LINE
8
Layer 1
10
122.056853
20
80.249790
11
119.588713
21
66.230980
0
LINE
8
Layer 1
10
119.588713
20
66.230980
11
105.586561
21
68.703330
0
LINE
8
Layer 1
10
105.586561
20
68.703330
11
108.054452
21
82.720730
0
LINE
8
Layer 1
10
104.749883
20
63.970860
11
118.750881
21
61.500170
0
LINE
8
Layer 1
10
118.750881
20
61.500170
11
116.282742
21
47.481370
0
LINE
8
Layer 1
10
116.282742
20
47.481370
11
102.280627
21
49.951890
0
LINE
8
Layer 1
10
102.280627
20
49.951890
11
104.749883
21
63.970860
0
LINE
8
Layer 1
10
184.908870
20
99.024580
11
198.912560
21
101.496470
0
LINE
8
Layer 1
10
198.912560
20
101.496470
11
201.380640
21
87.478010
0
LINE
8
Layer 1
10
201.380640
20
87.478010
11
187.379960
21
85.005560
0
LINE
8
Layer 1
10
187.379960
20
85.005560
11
184.908870
21
99.024580
0
LINE
8
Layer 1
10
188.229470
20
80.242630
11
202.231500
21
82.713510
0
LINE
8
Layer 1
10
202.231500
20
82.713510
11
204.699740
21
68.696180
0
LINE
8
Layer 1
10
204.699740
20
68.696180
11
190.698660
21
66.224010
0
LINE
8
Layer 1
10
190.698660
20
66.224010
11
188.229470
21
80.242630
0
LINE
8
Layer 1
10
191.537240
20
61.484430
11
205.539640
21
63.955370
0
LINE
8
Layer 1
10
205.539640
20
63.955370
11
208.007780
21
49.936560
0
LINE
8
Layer 1
10
208.007780
20
49.936560
11
194.006790
21
47.465870
0
LINE
8
Layer 1
10
194.006790
20
47.465870
11
191.537240
21
61.484430
0
LINE
8
Layer 1
10
225.329390
20
48.637390
11
239.330370
21
51.108080
0
LINE
8
Layer 1
10
239.330370
20
51.108080
11
241.801390
21
37.089420
0
LINE
8
Layer 1
10
241.801390
20
37.089420
11
227.800410
21
34.618730
0
LINE
8
Layer 1
10
227.800410
20
34.618730
11
225.329390
21
48.637390
0
LINE
8
Layer 1
10
203.787540
20
40.250220
11
216.790830
21
46.007660
0
LINE
8
Layer 1
10
216.790830
20
46.007660
11
222.540070
21
32.989180
0
LINE
8
Layer 1
10
222.540070
20
32.989180
11
209.537990
21
27.231860
0
LINE
8
Layer 1
10
209.537990
20
27.231860
11
203.787540
21
40.250220
0
LINE
8
Layer 1
10
181.830220
20
29.780260
11
192.734440
21
38.913600
0
LINE
8
Layer 1
10
192.734440
20
38.913600
11
201.858780
21
27.998430
0
LINE
8
Layer 1
10
201.858780
20
27.998430
11
190.954100
21
18.863490
0
LINE
8
Layer 1
10
190.954100
20
18.863490
11
181.830220
21
29.780260
0
LINE
8
Layer 1
10
203.132480
20
105.747980
11
217.134630
21
108.220330
0
LINE
8
Layer 1
10
217.134630
20
108.220330
11
219.602770
21
94.201520
0
LINE
8
Layer 1
10
219.602770
20
94.201520
11
205.602050
21
91.729420
0
LINE
8
Layer 1
10
205.602050
20
91.729420
11
203.132480
21
105.747980
0
LINE
8
Layer 1
10
206.426120
20
86.998370
11
220.428240
21
89.468890
0
LINE
8
Layer 1
10
220.428240
20
89.468890
11
222.896380
21
75.450080
0
LINE
8
Layer 1
10
222.896380
20
75.450080
11
208.895400
21
72.979390
0
LINE
8
Layer 1
10
208.895400
20
72.979390
11
206.426120
21
86.998370
0
LINE
8
Layer 1
10
209.656870
20
68.174180
11
223.657800
21
70.645220
0
LINE
8
Layer 1
10
223.657800
20
70.645220
11
226.125570
21
56.626350
0
LINE
8
Layer 1
10
226.125570
20
56.626350
11
212.124830
21
54.154250
0
LINE
8
Layer 1
10
212.124830
20
54.154250
11
209.656870
21
68.174180
0
LINE
8
Layer 1
10
221.278690
20
112.554320
11
235.279330
21
115.024950
0
LINE
8
Layer 1
10
235.279330
20
115.024950
11
237.748870
21
101.006390
0
LINE
8
Layer 1
10
237.748870
20
101.006390
11
223.746830
21
98.535520
0
LINE
8
Layer 1
10
223.746830
20
98.535520
11
221.278690
21
112.554320
0
LINE
8
Layer 1
10
224.581620
20
93.746950
11
238.582550
21
96.218000
0
LINE
8
Layer 1
10
238.582550
20
96.218000
11
241.052170
21
82.199090
0
LINE
8
Layer 1
10
241.052170
20
82.199090
11
227.049940
21
79.727090
0
LINE
8
Layer 1
10
227.049940
20
79.727090
11
224.581620
21
93.746950
0
LINE
8
Layer 1
10
227.840180
20
74.962490
11
241.841030
21
77.436060
0
LINE
8
Layer 1
10
241.841030
20
77.436060
11
244.309010
21
63.416140
0
LINE
8
Layer 1
10
244.309010
20
63.416140
11
230.308160
21
60.942560
0
LINE
8
Layer 1
10
230.308160
20
60.942560
11
227.840180
21
74.962490
0
LINE
8
Layer 1
10
240.640160
20
112.392790
11
254.642310
21
114.865140
0
LINE
8
Layer 1
10
254.642310
20
114.865140
11
257.110450
21
100.846330
0
LINE
8
Layer 1
10
257.110450
20
100.846330
11
243.109520
21
98.375290
0
LINE
8
Layer 1
10
243.109520
20
98.375290
11
240.640160
21
112.392790
0
LINE
8
Layer 1
10
243.954570
20
93.602170
11
257.956980
21
96.073110
0
LINE
8
Layer 1
10
257.956980
20
96.073110
11
260.426340
21
82.055610
0
LINE
8
Layer 1
10
260.426340
20
82.055610
11
246.424030
21
79.582140
0
LINE
8
Layer 1
10
246.424030
20
79.582140
11
243.954570
21
93.602170
0
LINE
8
Layer 1
10
247.230190
20
74.791490
11
261.232710
21
77.263910
0
LINE
8
Layer 1
10
261.232710
20
77.263910
11
263.700610
21
63.246510
0
LINE
8
Layer 1
10
263.700610
20
63.246510
11
249.699760
21
60.772940
0
LINE
8
Layer 1
10
249.699760
20
60.772940
11
247.230190
21
74.791490
0
LINE
8
Layer 1
10
260.658170
20
108.835080
11
274.660660
21
111.305670
0
LINE
8
Layer 1
10
274.660660
20
111.305670
11
277.129830
21
97.287050
0
LINE
8
Layer 1
10
277.129830
20
97.287050
11
263.127680
21
94.814700
0
LINE
8
Layer 1
10
263.127680
20
94.814700
11
260.658170
21
108.835080
0
LINE
8
Layer 1
10
263.909920
20
90.070090
11
277.911040
21
92.542250
0
LINE
8
Layer 1
10
277.911040
20
92.542250
11
280.379180
21
78.523450
0
LINE
8
Layer 1
10
280.379180
20
78.523450
11
266.378250
21
76.052400
0
LINE
8
Layer 1
10
266.378250
20
76.052400
11
263.909920
21
90.070090
0
LINE
8
Layer 1
10
267.236580
20
71.269360
11
281.238890
21
73.742830
0
LINE
8
Layer 1
10
281.238890
20
73.742830
11
283.706870
21
59.722900
0
LINE
8
Layer 1
10
283.706870
20
59.722900
11
269.706170
21
57.250450
0
LINE
8
Layer 1
10
269.706170
20
57.250450
11
267.236580
21
71.269360
0
LINE
8
Layer 1
10
93.557447
20
46.035510
11
106.428492
21
39.988790
0
LINE
8
Layer 1
10
106.428492
20
39.988790
11
100.391444
21
27.101320
0
LINE
8
Layer 1
10
100.391444
20
27.101320
11
87.518872
21
33.146610
0
LINE
8
Layer 1
10
87.518872
20
33.146610
11
93.557447
21
46.035510
0
LINE
8
Layer 1
10
117.341126
20
38.712990
11
128.239945
21
29.570770
0
LINE
8
Layer 1
10
128.239945
20
29.570770
11
119.109037
21
18.660880
0
LINE
8
Layer 1
10
119.109037
20
18.660880
11
108.211517
21
27.803220
0
LINE
8
Layer 1
10
108.211517
20
27.803220
11
117.341126
21
38.712990
0
LINE
8
Layer 1
10
148.107180
20
40.381510
11
162.325730
21
40.381510
0
LINE
8
Layer 1
10
162.325730
20
40.381510
11
162.325730
21
26.143750
0
LINE
8
Layer 1
10
162.325730
20
26.143750
11
148.107180
21
26.143750
0
LINE
8
Layer 1
10
148.107180
20
26.143750
11
148.107180
21
40.381510
0
LINE
8
Layer 1
10
129.017175
20
21.335080
11
143.234317
21
21.335080
0
LINE
8
Layer 1
10
143.234317
20
21.335080
11
143.234317
21
7.099790
0
LINE
8
Layer 1
10
143.234317
20
7.099790
11
129.017175
21
7.099790
0
LINE
8
Layer 1
10
129.017175
20
7.099790
11
129.017175
21
21.335080
0
LINE
8
Layer 1
10
148.115350
20
21.334370
11
162.333910
21
21.334370
0
LINE
8
Layer 1
10
162.333910
20
21.334370
11
162.333910
21
7.100500
0
LINE
8
Layer 1
10
162.333910
20
7.100500
11
148.115350
21
7.100500
0
LINE
8
Layer 1
10
148.115350
20
7.100500
11
148.115350
21
21.334370
0
LINE
8
Layer 1
10
167.158950
20
21.335080
11
181.374690
21
21.335080
0
LINE
8
Layer 1
10
181.374690
20
21.335080
11
181.374690
21
7.099790
0
LINE
8
Layer 1
10
181.374690
20
7.099790
11
167.158950
21
7.099790
0
LINE
8
Layer 1
10
167.158950
20
7.099790
11
167.158950
21
21.335080
0
LINE
8
Layer 1
10
177.035950
20
107.459380
11
176.864962
21
106.620217
0
LINE
8
Layer 1
10
176.864962
20
106.620217
11
176.399813
21
105.932165
0
LINE
8
Layer 1
10
176.399813
20
105.932165
11
175.712224
21
105.466825
0
LINE
8
Layer 1
10
175.712224
20
105.466825
11
174.873920
21
105.295800
0
LINE
8
Layer 1
10
174.873920
20
105.295800
11
174.010772
21
105.466825
0
LINE
8
Layer 1
10
174.010772
20
105.466825
11
173.310424
21
105.932165
0
LINE
8
Layer 1
10
173.310424
20
105.932165
11
172.840571
21
106.620217
0
LINE
8
Layer 1
10
172.840571
20
106.620217
11
172.668910
21
107.459380
0
LINE
8
Layer 1
10
172.668910
20
107.459380
11
172.840571
21
108.323443
0
LINE
8
Layer 1
10
172.840571
20
108.323443
11
173.310424
21
109.024654
0
LINE
8
Layer 1
10
173.310424
20
109.024654
11
174.010772
21
109.495148
0
LINE
8
Layer 1
10
174.010772
20
109.495148
11
174.873920
21
109.667060
0
LINE
8
Layer 1
10
174.873920
20
109.667060
11
175.712224
21
109.495148
0
LINE
8
Layer 1
10
175.712224
20
109.495148
11
176.399813
21
109.024654
0
LINE
8
Layer 1
10
176.399813
20
109.024654
11
176.864962
21
108.323443
0
LINE
8
Layer 1
10
176.864962
20
108.323443
11
177.035950
21
107.459380
0
LINE
8
Layer 1
10
177.035950
20
107.459380
11
177.035950
21
107.459380
0
LINE
8
Layer 1
10
13.043151
20
120.609054
11
12.012654
21
120.420294
0
LINE
8
Layer 1
10
12.012654
20
120.420294
11
11.129259
21
119.896487
0
LINE
8
Layer 1
10
11.129259
20
119.896487
11
10.460462
21
119.101345
0
LINE
8
Layer 1
10
10.460462
20
119.101345
11
10.073763
21
118.098579
0
LINE
8
Layer 1
10
10.073763
20
118.098579
11
0.147385
21
62.421039
0
LINE
8
Layer 1
10
0.147385
20
62.421039
11
0.166101
21
61.211112
0
LINE
8
Layer 1
10
0.166101
20
61.211112
11
0.622897
21
60.145096
0
LINE
8
Layer 1
10
0.622897
20
60.145096
11
1.446130
21
59.334587
0
LINE
8
Layer 1
10
1.446130
20
59.334587
11
2.564157
21
58.891177
0
LINE
8
Layer 1
10
2.564157
20
58.891177
11
41.554603
21
51.615829
0
LINE
8
Layer 1
10
41.554603
20
51.615829
11
42.317388
21
51.658391
0
LINE
8
Layer 1
10
42.317388
20
51.658391
11
50.803457
21
53.403448
0
LINE
8
Layer 1
10
50.803457
20
53.403448
11
51.567645
21
53.446010
0
LINE
8
Layer 1
10
51.567645
20
53.446010
11
62.597500
21
50.383279
0
LINE
8
Layer 1
10
62.597500
20
50.383279
11
63.176650
21
50.037636
0
LINE
8
Layer 1
10
63.176650
20
50.037636
11
63.404495
21
49.404697
0
LINE
8
Layer 1
10
63.404495
20
49.404697
11
60.716152
21
33.596475
0
LINE
8
Layer 1
10
60.716152
20
33.596475
11
60.855227
21
32.873267
0
LINE
8
Layer 1
10
60.855227
20
32.873267
11
61.439289
21
32.406488
0
LINE
8
Layer 1
10
61.439289
20
32.406488
11
97.687709
21
19.142862
0
LINE
8
Layer 1
10
97.687709
20
19.142862
11
98.109100
21
18.910704
0
LINE
8
Layer 1
10
98.109100
20
18.910704
11
111.947997
21
6.799779
0
LINE
8
Layer 1
10
111.947997
20
6.799779
11
112.376405
21
6.515561
0
LINE
8
Layer 1
10
112.376405
20
6.515561
11
123.269773
21
1.553705
0
LINE
8
Layer 1
10
123.269773
20
1.553705
11
124.542148
21
0.957876
0
LINE
8
Layer 1
10
124.542148
20
0.957876
11
125.941625
21
0.744317
0
LINE
8
Layer 1
10
125.941625
20
0.744317
11
127.511404
21
0.744317
0
LINE
8
Layer 1
10
127.511404
20
0.744317
11
155.132005
21
0.659192
0
LINE
8
Layer 1
10
155.132005
20
0.659192
11
182.795061
21
0.744317
0
LINE
8
Layer 1
10
182.795061
20
0.744317
11
184.364840
21
0.744317
0
LINE
8
Layer 1
10
184.364840
20
0.744317
11
185.769492
21
0.941915
0
LINE
8
Layer 1
10
185.769492
20
0.941915
11
187.079147
21
1.553705
0
LINE
8
Layer 1
10
187.079147
20
1.553705
11
192.642012
21
4.025488
0
LINE
8
Layer 1
10
192.642012
20
4.025488
11
198.078828
21
6.537370
0
LINE
8
Layer 1
10
198.078828
20
6.537370
11
198.460220
21
6.791689
0
LINE
8
Layer 1
10
198.460220
20
6.791689
11
212.267538
21
18.819951
0
LINE
8
Layer 1
10
212.267538
20
18.819951
11
212.683667
21
19.138641
0
LINE
8
Layer 1
10
212.683667
20
19.138641
11
248.867177
21
32.406488
0
LINE
8
Layer 1
10
248.867177
20
32.406488
11
249.451063
21
32.836201
0
LINE
8
Layer 1
10
249.451063
20
32.836201
11
249.588910
21
33.555320
0
LINE
8
Layer 1
10
249.588910
20
33.555320
11
246.901971
21
49.404697
0
LINE
8
Layer 1
10
246.901971
20
49.404697
11
247.129640
21
50.037636
0
LINE
8
Layer 1
10
247.129640
20
50.037636
11
247.707561
21
50.383279
0
LINE
8
Layer 1
10
247.707561
20
50.383279
11
258.738469
21
53.403448
0
LINE
8
Layer 1
10
258.738469
20
53.403448
11
259.080214
21
53.444603
0
LINE
8
Layer 1
10
259.080214
20
53.444603
11
259.501605
21
53.403448
0
LINE
8
Layer 1
10
259.501605
20
53.403448
11
267.989078
21
51.615829
0
LINE
8
Layer 1
10
267.989078
20
51.615829
11
268.751862
21
51.615829
0
LINE
8
Layer 1
10
268.751862
20
51.615829
11
307.742309
21
58.891177
0
LINE
8
Layer 1
10
307.742309
20
58.891177
11
308.860215
21
59.333921
0
LINE
8
Layer 1
10
308.860215
20
59.333921
11
309.687866
21
60.139776
0
LINE
8
Layer 1
10
309.687866
20
60.139776
11
310.157633
21
61.193156
0
LINE
8
Layer 1
10
310.157633
20
61.193156
11
310.201886
21
62.378476
0
LINE
8
Layer 1
10
310.201886
20
62.378476
11
300.232702
21
118.098579
0
LINE
8
Layer 1
10
300.232702
20
118.098579
11
299.863716
21
119.100679
0
LINE
8
Layer 1
10
299.863716
20
119.100679
11
299.192601
21
119.891166
0
LINE
8
Layer 1
10
299.192601
20
119.891166
11
298.299189
21
120.402338
0
LINE
8
Layer 1
10
298.299189
20
120.402338
11
297.263315
21
120.566492
0
LINE
8
Layer 1
10
297.263315
20
120.566492
11
237.186113
21
120.438805
0
LINE
8
Layer 1
10
237.186113
20
120.438805
11
236.867876
21
120.383931
0
LINE
8
Layer 1
10
236.867876
20
120.383931
11
219.026640
21
117.162911
0
LINE
8
Layer 1
10
219.026640
20
117.162911
11
218.602398
21
116.976656
0
LINE
8
Layer 1
10
218.602398
20
116.976656
11
218.305258
21
116.566686
0
LINE
8
Layer 1
10
218.305258
20
116.566686
11
217.499316
21
114.652787
0
LINE
8
Layer 1
10
217.499316
20
114.652787
11
184.406243
21
107.805876
0
LINE
8
Layer 1
10
184.406243
20
107.805876
11
183.510348
21
107.810932
0
LINE
8
Layer 1
10
183.510348
20
107.810932
11
182.709450
21
108.230444
0
LINE
8
Layer 1
10
182.709450
20
108.230444
11
176.133500
21
113.887368
0
LINE
8
Layer 1
10
176.133500
20
113.887368
11
175.252868
21
114.483197
0
LINE
8
Layer 1
10
175.252868
20
114.483197
11
174.310395
21
114.696756
0
LINE
8
Layer 1
10
174.310395
20
114.696756
11
173.291127
21
114.696756
0
LINE
8
Layer 1
10
173.291127
20
114.696756
11
165.610648
21
114.693942
0
LINE
8
Layer 1
10
165.610648
20
114.693942
11
162.396356
21
114.695349
0
LINE
8
Layer 1
10
162.396356
20
114.695349
11
161.856284
21
114.499554
0
LINE
8
Layer 1
10
161.856284
20
114.499554
11
161.567257
21
114.002744
0
LINE
8
Layer 1
10
161.567257
20
114.002744
11
161.290423
21
112.488438
0
LINE
8
Layer 1
10
161.290423
20
112.488438
11
161.417437
21
112.007194
0
LINE
8
Layer 1
10
161.417437
20
112.007194
11
161.867599
21
111.795833
0
LINE
8
Layer 1
10
161.867599
20
111.795833
11
165.314516
21
111.795833
0
LINE
8
Layer 1
10
165.314516
20
111.795833
11
165.876605
21
111.564290
0
LINE
8
Layer 1
10
165.876605
20
111.564290
11
166.109230
21
111.001922
0
LINE
8
Layer 1
10
166.109230
20
111.001922
11
166.109230
21
77.043846
0
LINE
8
Layer 1
10
166.109230
20
77.043846
11
165.876605
21
76.482929
0
LINE
8
Layer 1
10
165.876605
20
76.482929
11
165.314516
21
76.250990
0
LINE
8
Layer 1
10
165.314516
20
76.250990
11
145.275450
21
76.250990
0
LINE
8
Layer 1
10
145.275450
20
76.250990
11
144.712308
21
76.482929
0
LINE
8
Layer 1
10
144.712308
20
76.482929
11
144.479683
21
77.043846
0
LINE
8
Layer 1
10
144.479683
20
77.043846
11
144.479683
21
111.001922
0
LINE
8
Layer 1
10
144.479683
20
111.001922
11
144.712308
21
111.564290
0
LINE
8
Layer 1
10
144.712308
20
111.564290
11
145.275450
21
111.795833
0
LINE
8
Layer 1
10
145.275450
20
111.795833
11
148.469041
21
111.795833
0
LINE
8
Layer 1
10
148.469041
20
111.795833
11
148.919203
21
112.007194
0
LINE
8
Layer 1
10
148.919203
20
112.007194
11
149.046217
21
112.488438
0
LINE
8
Layer 1
10
149.046217
20
112.488438
11
148.769383
21
114.006965
0
LINE
8
Layer 1
10
148.769383
20
114.006965
11
148.480356
21
114.504170
0
LINE
8
Layer 1
10
148.480356
20
114.504170
11
147.940284
21
114.700626
0
LINE
8
Layer 1
10
147.940284
20
114.700626
11
144.822480
21
114.702033
0
LINE
8
Layer 1
10
144.822480
20
114.702033
11
137.015339
21
114.695349
0
LINE
8
Layer 1
10
137.015339
20
114.695349
11
135.996070
21
114.695349
0
LINE
8
Layer 1
10
135.996070
20
114.695349
11
135.053597
21
114.482494
0
LINE
8
Layer 1
10
135.053597
20
114.482494
11
134.172965
21
113.887368
0
LINE
8
Layer 1
10
134.172965
20
113.887368
11
127.597016
21
108.230444
0
LINE
8
Layer 1
10
127.597016
20
108.230444
11
126.820196
21
107.831906
0
LINE
8
Layer 1
10
126.820196
20
107.831906
11
125.898819
21
107.805876
0
LINE
8
Layer 1
10
125.898819
20
107.805876
11
92.806798
21
114.652787
0
LINE
8
Layer 1
10
92.806798
20
114.652787
11
91.999804
21
116.609248
0
LINE
8
Layer 1
10
91.999804
20
116.609248
11
91.702839
21
116.981273
0
LINE
8
Layer 1
10
91.702839
20
116.981273
11
91.279825
21
117.161504
0
LINE
8
Layer 1
10
91.279825
20
117.161504
11
73.375082
21
120.437398
0
LINE
8
Layer 1
10
73.375082
20
120.437398
11
73.120353
21
120.437398
0
LINE
8
Layer 1
10
73.120353
20
120.437398
11
13.043151
21
120.609054
0
LINE
8
Layer 1
10
192.745358
20
103.692408
11
199.437156
21
104.963066
0
LINE
8
Layer 1
10
199.437156
20
104.963066
11
200.028929
21
104.839941
0
LINE
8
Layer 1
10
200.028929
20
104.839941
11
200.360253
21
104.333241
0
LINE
8
Layer 1
10
200.360253
20
104.333241
11
200.488722
21
103.652665
0
LINE
8
Layer 1
10
200.488722
20
103.652665
11
200.366103
21
103.059998
0
LINE
8
Layer 1
10
200.366103
20
103.059998
11
199.860282
21
102.727865
0
LINE
8
Layer 1
10
199.860282
20
102.727865
11
193.168568
21
101.458684
0
LINE
8
Layer 1
10
193.168568
20
101.458684
11
192.576530
21
101.580799
0
LINE
8
Layer 1
10
192.576530
20
101.580799
11
192.245119
21
102.088442
0
LINE
8
Layer 1
10
192.245119
20
102.088442
11
192.116851
21
102.767960
0
LINE
8
Layer 1
10
192.116851
20
102.767960
11
192.239403
21
103.360980
0
LINE
8
Layer 1
10
192.239403
20
103.360980
11
192.745358
21
103.692408
0
LINE
8
Layer 1
10
192.745358
20
103.692408
11
192.745358
21
103.692408
0
LINE
8
Layer 1
10
127.529478
20
66.859388
11
143.542172
21
66.859388
0
LINE
8
Layer 1
10
143.542172
20
66.859388
11
143.932280
21
66.780928
0
LINE
8
Layer 1
10
143.932280
20
66.780928
11
144.250301
21
66.566670
0
LINE
8
Layer 1
10
144.250301
20
66.566670
11
144.464433
21
66.248299
0
LINE
8
Layer 1
10
144.464433
20
66.248299
11
144.542878
21
65.857498
0
LINE
8
Layer 1
10
144.542878
20
65.857498
11
144.542878
21
49.819858
0
LINE
8
Layer 1
10
144.542878
20
49.819858
11
144.464433
21
49.429057
0
LINE
8
Layer 1
10
144.464433
20
49.429057
11
144.250301
21
49.110686
0
LINE
8
Layer 1
10
144.250301
20
49.110686
11
143.932280
21
48.896428
0
LINE
8
Layer 1
10
143.932280
20
48.896428
11
143.542172
21
48.817968
0
LINE
8
Layer 1
10
143.542172
20
48.817968
11
127.529478
21
48.817968
0
LINE
8
Layer 1
10
127.529478
20
48.817968
11
127.138611
21
48.896428
0
LINE
8
Layer 1
10
127.138611
20
48.896428
11
126.820293
21
49.110686
0
LINE
8
Layer 1
10
126.820293
20
49.110686
11
126.606127
21
49.429057
0
LINE
8
Layer 1
10
126.606127
20
49.429057
11
126.527716
21
49.819858
0
LINE
8
Layer 1
10
126.527716
20
49.819858
11
126.527716
21
65.857498
0
LINE
8
Layer 1
10
126.527716
20
65.857498
11
126.606127
21
66.248299
0
LINE
8
Layer 1
10
126.606127
20
66.248299
11
126.820293
21
66.566670
0
LINE
8
Layer 1
10
126.820293
20
66.566670
11
127.138611
21
66.780928
0
LINE
8
Layer 1
10
127.138611
20
66.780928
11
127.529478
21
66.859388
0
LINE
8
Layer 1
10
127.529478
20
66.859388
11
127.529478
21
66.859388
0
LINE
8
Layer 1
10
166.196044
20
66.880260
11
182.208738
21
66.880260
0
LINE
8
Layer 1
10
182.208738
20
66.880260
11
182.598791
21
66.801850
0
LINE
8
Layer 1
10
182.598791
20
66.801850
11
182.916690
21
66.587675
0
LINE
8
Layer 1
10
182.916690
20
66.587675
11
183.130702
21
66.269320
0
LINE
8
Layer 1
10
183.130702
20
66.269320
11
183.209091
21
65.878371
0
LINE
8
Layer 1
10
183.209091
20
65.878371
11
183.209091
21
49.841083
0
LINE
8
Layer 1
10
183.209091
20
49.841083
11
183.130702
21
49.449317
0
LINE
8
Layer 1
10
183.130702
20
49.449317
11
182.916690
21
49.130544
0
LINE
8
Layer 1
10
182.916690
20
49.130544
11
182.598791
21
48.916215
0
LINE
8
Layer 1
10
182.598791
20
48.916215
11
182.208738
21
48.837782
0
LINE
8
Layer 1
10
182.208738
20
48.837782
11
166.196044
21
48.837782
0
LINE
8
Layer 1
10
166.196044
20
48.837782
11
165.805176
21
48.916215
0
LINE
8
Layer 1
10
165.805176
20
48.916215
11
165.486859
21
49.130544
0
LINE
8
Layer 1
10
165.486859
20
49.130544
11
165.272693
21
49.449317
0
LINE
8
Layer 1
10
165.272693
20
49.449317
11
165.194282
21
49.841083
0
LINE
8
Layer 1
10
165.194282
20
49.841083
11
165.194282
21
65.878371
0
LINE
8
Layer 1
10
165.194282
20
65.878371
11
165.272693
21
66.269320
0
LINE
8
Layer 1
10
165.272693
20
66.269320
11
165.486859
21
66.587675
0
LINE
8
Layer 1
10
165.486859
20
66.587675
11
165.805176
21
66.801850
0
LINE
8
Layer 1
10
165.805176
20
66.801850
11
166.196044
21
66.880260
0
LINE
8
Layer 1
10
166.196044
20
66.880260
11
166.196044
21
66.880260
 0 
ENDSEC
 0 
EOF