  0
SECTION
  2
HEADER
  9
$ACADVER
  1
AC1024
  9
$ACADMAINTVER
 70
     6
  9
$DWGCODEPAGE
  3
ANSI_1254
  9
$INSBASE
 10
0.0
 20
0.0
 30
0.0
  9
$EXTMIN
 10
1.000000000000000E+20
 20
1.000000000000000E+20
 30
1.000000000000000E+20
  9
$EXTMAX
 10
-1.000000000000000E+20
 20
-1.000000000000000E+20
 30
-1.000000000000000E+20
  9
$LIMMIN
 10
0.0
 20
0.0
  9
$LIMMAX
 10
12.0
 20
9.0
  9
$ORTHOMODE
 70
     0
  9
$REGENMODE
 70
     1
  9
$FILLMODE
 70
     1
  9
$QTEXTMODE
 70
     0
  9
$MIRRTEXT
 70
     1
  9
$LTSCALE
 40
1.0
  9
$ATTMODE
 70
     1
  9
$TEXTSIZE
 40
0.2
  9
$TRACEWID
 40
0.05
  9
$TEXTSTYLE
  7
Standard
  9
$CLAYER
  8
0
  9
$CELTYPE
  6
ByLayer
  9
$CECOLOR
 62
   256
  9
$CELTSCALE
 40
1.0
  9
$DISPSILH
 70
     0
  9
$DIMSCALE
 40
1.0
  9
$DIMASZ
 40
0.18
  9
$DIMEXO
 40
0.0625
  9
$DIMDLI
 40
0.38
  9
$DIMRND
 40
0.0
  9
$DIMDLE
 40
0.0
  9
$DIMEXE
 40
0.18
  9
$DIMTP
 40
0.0
  9
$DIMTM
 40
0.0
  9
$DIMTXT
 40
0.18
  9
$DIMCEN
 40
0.09
  9
$DIMTSZ
 40
0.0
  9
$DIMTOL
 70
     0
  9
$DIMLIM
 70
     0
  9
$DIMTIH
 70
     1
  9
$DIMTOH
 70
     1
  9
$DIMSE1
 70
     0
  9
$DIMSE2
 70
     0
  9
$DIMTAD
 70
     0
  9
$DIMZIN
 70
     0
  9
$DIMBLK
  1

  9
$DIMASO
 70
     1
  9
$DIMSHO
 70
     1
  9
$DIMPOST
  1

  9
$DIMAPOST
  1

  9
$DIMALT
 70
     0
  9
$DIMALTD
 70
     2
  9
$DIMALTF
 40
25.4
  9
$DIMLFAC
 40
1.0
  9
$DIMTOFL
 70
     0
  9
$DIMTVP
 40
0.0
  9
$DIMTIX
 70
     0
  9
$DIMSOXD
 70
     0
  9
$DIMSAH
 70
     0
  9
$DIMBLK1
  1

  9
$DIMBLK2
  1

  9
$DIMSTYLE
  2
Standard
  9
$DIMCLRD
 70
     0
  9
$DIMCLRE
 70
     0
  9
$DIMCLRT
 70
     0
  9
$DIMTFAC
 40
1.0
  9
$DIMGAP
 40
0.09
  9
$DIMJUST
 70
     0
  9
$DIMSD1
 70
     0
  9
$DIMSD2
 70
     0
  9
$DIMTOLJ
 70
     1
  9
$DIMTZIN
 70
     0
  9
$DIMALTZ
 70
     0
  9
$DIMALTTZ
 70
     0
  9
$DIMUPT
 70
     0
  9
$DIMDEC
 70
     4
  9
$DIMTDEC
 70
     4
  9
$DIMALTU
 70
     2
  9
$DIMALTTD
 70
     2
  9
$DIMTXSTY
  7
Standard
  9
$DIMAUNIT
 70
     0
  9
$DIMADEC
 70
     0
  9
$DIMALTRND
 40
0.0
  9
$DIMAZIN
 70
     0
  9
$DIMDSEP
 70
    46
  9
$DIMATFIT
 70
     3
  9
$DIMFRAC
 70
     0
  9
$DIMLDRBLK
  1

  9
$DIMLUNIT
 70
     2
  9
$DIMLWD
 70
    -2
  9
$DIMLWE
 70
    -2
  9
$DIMTMOVE
 70
     0
  9
$DIMFXL
 40
1.0
  9
$DIMFXLON
 70
     0
  9
$DIMJOGANG
 40
0.7853981633974483
  9
$DIMTFILL
 70
     0
  9
$DIMTFILLCLR
 70
     0
  9
$DIMARCSYM
 70
     0
  9
$DIMLTYPE
  6

  9
$DIMLTEX1
  6

  9
$DIMLTEX2
  6

  9
$DIMTXTDIRECTION
 70
     0
  9
$LUNITS
 70
     2
  9
$LUPREC
 70
     4
  9
$SKETCHINC
 40
0.1
  9
$FILLETRAD
 40
0.5
  9
$AUNITS
 70
     0
  9
$AUPREC
 70
     0
  9
$MENU
  1
.
  9
$ELEVATION
 40
0.0
  9
$PELEVATION
 40
0.0
  9
$THICKNESS
 40
0.0
  9
$LIMCHECK
 70
     0
  9
$CHAMFERA
 40
0.5
  9
$CHAMFERB
 40
0.5
  9
$CHAMFERC
 40
1.0
  9
$CHAMFERD
 40
0.0
  9
$SKPOLY
 70
     0
  9
$TDCREATE
 40
2459687.791585521
  9
$TDUCREATE
 40
2459687.666585521
  9
$TDUPDATE
 40
2459687.791585926
  9
$TDUUPDATE
 40
2459687.666585926
  9
$TDINDWG
 40
0.0000000116
  9
$TDUSRTIMER
 40
0.0000000116
  9
$USRTIMER
 70
     1
  9
$ANGBASE
 50
0.0
  9
$ANGDIR
 70
     0
  9
$PDMODE
 70
     0
  9
$PDSIZE
 40
0.0
  9
$PLINEWID
 40
0.0
  9
$SPLFRAME
 70
     0
  9
$SPLINETYPE
 70
     6
  9
$SPLINESEGS
 70
     8
  9
$HANDSEED
  5
F2
  9
$SURFTAB1
 70
     6
  9
$SURFTAB2
 70
     6
  9
$SURFTYPE
 70
     6
  9
$SURFU
 70
     6
  9
$SURFV
 70
     6
  9
$UCSBASE
  2

  9
$UCSNAME
  2

  9
$UCSORG
 10
0.0
 20
0.0
 30
0.0
  9
$UCSXDIR
 10
1.0
 20
0.0
 30
0.0
  9
$UCSYDIR
 10
0.0
 20
1.0
 30
0.0
  9
$UCSORTHOREF
  2

  9
$UCSORTHOVIEW
 70
     0
  9
$UCSORGTOP
 10
0.0
 20
0.0
 30
0.0
  9
$UCSORGBOTTOM
 10
0.0
 20
0.0
 30
0.0
  9
$UCSORGLEFT
 10
0.0
 20
0.0
 30
0.0
  9
$UCSORGRIGHT
 10
0.0
 20
0.0
 30
0.0
  9
$UCSORGFRONT
 10
0.0
 20
0.0
 30
0.0
  9
$UCSORGBACK
 10
0.0
 20
0.0
 30
0.0
  9
$PUCSBASE
  2

  9
$PUCSNAME
  2

  9
$PUCSORG
 10
0.0
 20
0.0
 30
0.0
  9
$PUCSXDIR
 10
1.0
 20
0.0
 30
0.0
  9
$PUCSYDIR
 10
0.0
 20
1.0
 30
0.0
  9
$PUCSORTHOREF
  2

  9
$PUCSORTHOVIEW
 70
     0
  9
$PUCSORGTOP
 10
0.0
 20
0.0
 30
0.0
  9
$PUCSORGBOTTOM
 10
0.0
 20
0.0
 30
0.0
  9
$PUCSORGLEFT
 10
0.0
 20
0.0
 30
0.0
  9
$PUCSORGRIGHT
 10
0.0
 20
0.0
 30
0.0
  9
$PUCSORGFRONT
 10
0.0
 20
0.0
 30
0.0
  9
$PUCSORGBACK
 10
0.0
 20
0.0
 30
0.0
  9
$USERI1
 70
     0
  9
$USERI2
 70
     0
  9
$USERI3
 70
     0
  9
$USERI4
 70
     0
  9
$USERI5
 70
     0
  9
$USERR1
 40
0.0
  9
$USERR2
 40
0.0
  9
$USERR3
 40
0.0
  9
$USERR4
 40
0.0
  9
$USERR5
 40
0.0
  9
$WORLDVIEW
 70
     1
  9
$SHADEDGE
 70
     3
  9
$SHADEDIF
 70
    70
  9
$TILEMODE
 70
     1
  9
$MAXACTVP
 70
    64
  9
$PINSBASE
 10
0.0
 20
0.0
 30
0.0
  9
$PLIMCHECK
 70
     0
  9
$PEXTMIN
 10
1.000000000000000E+20
 20
1.000000000000000E+20
 30
1.000000000000000E+20
  9
$PEXTMAX
 10
-1.000000000000000E+20
 20
-1.000000000000000E+20
 30
-1.000000000000000E+20
  9
$PLIMMIN
 10
0.0
 20
0.0
  9
$PLIMMAX
 10
12.0
 20
9.0
  9
$UNITMODE
 70
     0
  9
$VISRETAIN
 70
     1
  9
$PLINEGEN
 70
     0
  9
$PSLTSCALE
 70
     1
  9
$TREEDEPTH
 70
  3020
  9
$CMLSTYLE
  2
Standard
  9
$CMLJUST
 70
     0
  9
$CMLSCALE
 40
1.0
  9
$PROXYGRAPHICS
 70
     1
  9
$MEASUREMENT
 70
     0
  9
$CELWEIGHT
370
    -1
  9
$ENDCAPS
280
     0
  9
$JOINSTYLE
280
     0
  9
$LWDISPLAY
290
     1
  9
$INSUNITS
 70
     1
  9
$HYPERLINKBASE
  1

  9
$STYLESHEET
  1

  9
$XEDIT
290
     1
  9
$CEPSNTYPE
380
     0
  9
$PSTYLEMODE
290
     1
  9
$FINGERPRINTGUID
  2
{77380C5F-ED46-43C8-A661-030ECD0C46F0}
  9
$VERSIONGUID
  2
{FAEB1C32-E019-11D5-929B-00C0DF256EC4}
  9
$EXTNAMES
290
     1
  9
$PSVPSCALE
 40
0.0
  9
$OLESTARTUP
290
     0
  9
$SORTENTS
280
   127
  9
$INDEXCTL
280
     0
  9
$HIDETEXT
280
     1
  9
$XCLIPFRAME
280
     2
  9
$HALOGAP
280
     0
  9
$OBSCOLOR
 70
   257
  9
$OBSLTYPE
280
     0
  9
$INTERSECTIONDISPLAY
280
     0
  9
$INTERSECTIONCOLOR
 70
   257
  9
$DIMASSOC
280
     2
  9
$PROJECTNAME
  1

  9
$CAMERADISPLAY
290
     0
  9
$LENSLENGTH
 40
50.0
  9
$CAMERAHEIGHT
 40
0.0
  9
$STEPSPERSEC
 40
2.0
  9
$STEPSIZE
 40
6.0
  9
$3DDWFPREC
 40
2.0
  9
$PSOLWIDTH
 40
0.25
  9
$PSOLHEIGHT
 40
4.0
  9
$LOFTANG1
 40
1.570796326794897
  9
$LOFTANG2
 40
1.570796326794897
  9
$LOFTMAG1
 40
0.0
  9
$LOFTMAG2
 40
0.0
  9
$LOFTPARAM
 70
     7
  9
$LOFTNORMALS
280
     1
  9
$LATITUDE
 40
37.795
  9
$LONGITUDE
 40
-122.394
  9
$NORTHDIRECTION
 40
0.0
  9
$TIMEZONE
 70
 -8000
  9
$LIGHTGLYPHDISPLAY
280
     1
  9
$TILEMODELIGHTSYNCH
280
     1
  9
$CMATERIAL
347
3C
  9
$SOLIDHIST
280
     1
  9
$SHOWHIST
280
     1
  9
$DWFFRAME
280
     2
  9
$DGNFRAME
280
     2
  9
$REALWORLDSCALE
290
     1
  9
$INTERFERECOLOR
 62
   256
  9
$CSHADOW
280
     0
  9
$SHADOWPLANELOCATION
 40
0.0
  0
ENDSEC
  0
SECTION
  2
CLASSES
  0
CLASS
  1
ACDBDICTIONARYWDFLT
  2
AcDbDictionaryWithDefault
  3
ObjectDBX Classes
 90
        0
 91
        4
280
     0
281
     0
  0
CLASS
  1
VISUALSTYLE
  2
AcDbVisualStyle
  3
ObjectDBX Classes
 90
     4095
 91
        4
280
     0
281
     0
  0
CLASS
  1
MATERIAL
  2
AcDbMaterial
  3
ObjectDBX Classes
 90
     1153
 91
        4
280
     0
281
     0
  0
CLASS
  1
SUN
  2
AcDbSun
  3
SCENEOE
 90
     1024
 91
        4
280
     0
281
     0
  0
ENDSEC
  0
SECTION
  2
TABLES
  0
TABLE
  2
VPORT
  5
8
330
0
100
AcDbSymbolTable
 70
     1
  0
VPORT
  5
29
330
8
100
AcDbSymbolTableRecord
100
AcDbViewportTableRecord
  2
*Active
 70
     0
 10
0.0
 20
0.0
 11
1.0
 21
1.0
 12
0.0
 22
0.0
 13
0.0
 23
0.0
 14
0.5
 24
0.5
 15
0.5
 25
0.5
 16
0.0
 26
0.0
 36
1.0
 17
159.9999999599951
 27
-59.99999998500706
 37
0.0
 40
149.9999999625002
 41
2.133333333333264
 42
50.0
 43
0.0
 44
0.0
 50
0.0
 51
0.0
 71
     0
 72
   100
 73
     1
 74
     3
 75
     0
 76
     0
 77
     0
 78
     0
281
     0
 65
     1
110
0.0
120
0.0
130
0.0
111
1.0
121
0.0
131
0.0
112
0.0
122
1.0
132
0.0
 79
     0
146
0.0
 60
     3
 61
     5
292
     1
282
     1
141
0.0
142
0.0
 63
   250
361
3F
  0
ENDTAB
  0
TABLE
  2
LTYPE
  5
5
330
0
100
AcDbSymbolTable
 70
     1
  0
LTYPE
  5
14
330
5
100
AcDbSymbolTableRecord
100
AcDbLinetypeTableRecord
  2
ByBlock
 70
     0
  3

 72
    65
 73
     0
 40
0.0
  0
LTYPE
  5
15
330
5
100
AcDbSymbolTableRecord
100
AcDbLinetypeTableRecord
  2
ByLayer
 70
     0
  3

 72
    65
 73
     0
 40
0.0
  0
LTYPE
  5
16
330
5
100
AcDbSymbolTableRecord
100
AcDbLinetypeTableRecord
  2
Continuous
 70
     0
  3
Solid line
 72
    65
 73
     0
 40
0.0
  0
ENDTAB
  0
TABLE
  2
LAYER
  5
2
330
0
100
AcDbSymbolTable
 70
     2
  0
LAYER
  5
10
330
2
100
AcDbSymbolTableRecord
100
AcDbLayerTableRecord
  2
0
 70
     0
 62
     7
  6
Continuous
370
    -3
390
F
347
3E
  0
LAYER
  5
40
330
2
100
AcDbSymbolTableRecord
100
AcDbLayerTableRecord
  2
katman 1
 70
     0
 62
     7
  6
Continuous
370
    -3
390
F
347
3E
  0
ENDTAB
  0
TABLE
  2
STYLE
  5
3
330
0
100
AcDbSymbolTable
 70
     1
  0
STYLE
  5
11
330
3
100
AcDbSymbolTableRecord
100
AcDbTextStyleTableRecord
  2
Standard
 70
     0
 40
0.0
 41
1.0
 50
0.0
 71
     0
 42
0.2
  3
txt
  4

  0
ENDTAB
  0
TABLE
  2
VIEW
  5
6
330
0
100
AcDbSymbolTable
 70
     0
  0
ENDTAB
  0
TABLE
  2
UCS
  5
7
330
0
100
AcDbSymbolTable
 70
     0
  0
ENDTAB
  0
TABLE
  2
APPID
  5
9
330
0
100
AcDbSymbolTable
 70
     1
  0
APPID
  5
12
330
9
100
AcDbSymbolTableRecord
100
AcDbRegAppTableRecord
  2
ACAD
 70
     0
  0
ENDTAB
  0
TABLE
  2
DIMSTYLE
  5
A
330
0
100
AcDbSymbolTable
 70
     1
100
AcDbDimStyleTable
  0
DIMSTYLE
105
27
330
A
100
AcDbSymbolTableRecord
100
AcDbDimStyleTableRecord
  2
Standard
 70
     0
178
     0
340
11
  0
ENDTAB
  0
TABLE
  2
BLOCK_RECORD
  5
1
330
0
100
AcDbSymbolTable
 70
     2
  0
BLOCK_RECORD
  5
1F
330
1
100
AcDbSymbolTableRecord
100
AcDbBlockTableRecord
  2
*Model_Space
340
22
 70
     0
280
     1
281
     0
  0
BLOCK_RECORD
  5
1B
330
1
100
AcDbSymbolTableRecord
100
AcDbBlockTableRecord
  2
*Paper_Space
340
1E
 70
     0
280
     1
281
     0
  0
BLOCK_RECORD
  5
23
330
1
100
AcDbSymbolTableRecord
100
AcDbBlockTableRecord
  2
*Paper_Space0
340
26
 70
     0
280
     1
281
     0
  0
BLOCK_RECORD
  5
41
330
1
100
AcDbSymbolTableRecord
100
AcDbBlockTableRecord
  2
block 2
340
0
102
{BLKREFS
331
42
102
}
 70
     0
280
     1
281
     0
  0
ENDTAB
  0
ENDSEC
  0
SECTION
  2
BLOCKS
  0
BLOCK
  5
20
330
1F
100
AcDbEntity
  8
0
100
AcDbBlockBegin
  2
*Model_Space
 70
     0
 10
0.0
 20
0.0
 30
0.0
  3
*Model_Space
  1

  0
ENDBLK
  5
21
330
1F
100
AcDbEntity
  8
0
100
AcDbBlockEnd
  0
BLOCK
  5
1C
330
1B
100
AcDbEntity
 67
     1
  8
0
100
AcDbBlockBegin
  2
*Paper_Space
 70
     0
 10
0.0
 20
0.0
 30
0.0
  3
*Paper_Space
  1

  0
ENDBLK
  5
1D
330
1B
100
AcDbEntity
 67
     1
  8
0
100
AcDbBlockEnd
  0
BLOCK
  5
24
330
23
100
AcDbEntity
  8
0
100
AcDbBlockBegin
  2
*Paper_Space0
 70
     0
 10
0.0
 20
0.0
 30
0.0
  3
*Paper_Space0
  1

  0
ENDBLK
  5
25
330
23
100
AcDbEntity
  8
0
100
AcDbBlockEnd
  0
BLOCK
  5
43
330
41
100
AcDbEntity
  8
0
100
AcDbBlockBegin
  2
block 2
 70
     0
 10
0.0
 20
0.0
 30
0.0
  3
block 2
  1

  0
SPLINE
  5
45
330
41
100
AcDbEntity
  8
katman 1
 62
     7
420
 16777215
370
     9
100
AcDbSpline
210
0.0
220
0.0
230
1.0
 70
    11
 71
     3
 72
   191
 73
   187
 74
     0
 42
0.0000000001
 43
0.0000000001
 12
1.0
 22
0.0
 32
0.0
 13
1.0
 23
0.0
 33
0.0
 40
0.0
 40
0.0
 40
0.0
 40
0.0
 40
1.0
 40
1.0
 40
1.0
 40
2.0
 40
2.0
 40
2.0
 40
3.0
 40
3.0
 40
3.0
 40
4.0
 40
4.0
 40
4.0
 40
5.0
 40
5.0
 40
5.0
 40
6.0
 40
6.0
 40
6.0
 40
7.0
 40
7.0
 40
7.0
 40
8.0
 40
8.0
 40
8.0
 40
9.0
 40
9.0
 40
9.0
 40
10.0
 40
10.0
 40
10.0
 40
11.0
 40
11.0
 40
11.0
 40
12.0
 40
12.0
 40
12.0
 40
13.0
 40
13.0
 40
13.0
 40
14.0
 40
14.0
 40
14.0
 40
15.0
 40
15.0
 40
15.0
 40
16.0
 40
16.0
 40
16.0
 40
17.0
 40
17.0
 40
17.0
 40
18.0
 40
18.0
 40
18.0
 40
19.0
 40
19.0
 40
19.0
 40
20.0
 40
20.0
 40
20.0
 40
21.0
 40
21.0
 40
21.0
 40
22.0
 40
22.0
 40
22.0
 40
23.0
 40
23.0
 40
23.0
 40
24.0
 40
24.0
 40
24.0
 40
25.0
 40
25.0
 40
25.0
 40
26.0
 40
26.0
 40
26.0
 40
27.0
 40
27.0
 40
27.0
 40
28.0
 40
28.0
 40
28.0
 40
29.0
 40
29.0
 40
29.0
 40
30.0
 40
30.0
 40
30.0
 40
31.0
 40
31.0
 40
31.0
 40
32.0
 40
32.0
 40
32.0
 40
33.0
 40
33.0
 40
33.0
 40
34.0
 40
34.0
 40
34.0
 40
35.0
 40
35.0
 40
35.0
 40
36.0
 40
36.0
 40
36.0
 40
37.0
 40
37.0
 40
37.0
 40
38.0
 40
38.0
 40
38.0
 40
39.0
 40
39.0
 40
39.0
 40
40.0
 40
40.0
 40
40.0
 40
41.0
 40
41.0
 40
41.0
 40
42.0
 40
42.0
 40
42.0
 40
43.0
 40
43.0
 40
43.0
 40
44.0
 40
44.0
 40
44.0
 40
45.0
 40
45.0
 40
45.0
 40
46.0
 40
46.0
 40
46.0
 40
47.0
 40
47.0
 40
47.0
 40
48.0
 40
48.0
 40
48.0
 40
49.0
 40
49.0
 40
49.0
 40
50.0
 40
50.0
 40
50.0
 40
51.0
 40
51.0
 40
51.0
 40
52.0
 40
52.0
 40
52.0
 40
53.0
 40
53.0
 40
53.0
 40
54.0
 40
54.0
 40
54.0
 40
55.0
 40
55.0
 40
55.0
 40
56.0
 40
56.0
 40
56.0
 40
57.0
 40
57.0
 40
57.0
 40
58.0
 40
58.0
 40
58.0
 40
59.0
 40
59.0
 40
59.0
 40
60.0
 40
60.0
 40
60.0
 40
61.0
 40
61.0
 40
61.0
 40
62.0
 40
62.0
 40
62.0
 40
62.0
 10
314.6857014187244
 20
-56.12777555969853
 30
0.0
 10
314.6857014187244
 20
-56.12777555969853
 30
0.0
 10
304.7410026636151
 20
-0.6836576672010474
 30
0.0
 10
304.7410026636151
 20
-0.6836576672010474
 30
0.0
 10
304.483847817488
 20
0.7486838444851381
 30
0.0
 10
303.2359696371902
 20
1.790200805216512
 30
0.0
 10
301.7807613042206
 20
1.786648050497349
 30
0.0
 10
301.7807613042206
 20
1.786648050497349
 30
0.0
 10
241.851904236412
 20
1.635666740856274
 30
0.0
 10
241.851904236412
 20
1.635666740856274
 30
0.0
 10
241.770320068952
 20
1.635472954235229
 30
0.0
 10
241.6889296881129
 20
1.628065998941942
 30
0.0
 10
241.6086589633066
 20
1.61357506605711
 30
0.0
 10
241.6086589633066
 20
1.61357506605711
 30
0.0
 10
223.7505328148848
 20
-1.612218559709793
 30
0.0
 10
223.7505328148848
 20
-1.612218559709793
 30
0.0
 10
223.4204711355511
 20
-1.671560329443221
 30
0.0
 10
223.1419782292623
 20
-1.893101500991568
 30
0.0
 10
223.0093851167737
 20
-2.201394483227863
 30
0.0
 10
223.0093851167737
 20
-2.201394483227863
 30
0.0
 10
222.1882035441708
 20
-4.114068432945007
 30
0.0
 10
222.1882035441708
 20
-4.114068432945007
 30
0.0
 10
222.1882035441708
 20
-4.114068432945007
 30
0.0
 10
189.1957729290465
 20
-10.95411173228751
 30
0.0
 10
189.1957729290465
 20
-10.95411173228751
 30
0.0
 10
188.5889408911666
 20
-11.07992231303948
 30
0.0
 10
187.9580577804302
 20
-10.91729227428891
 30
0.0
 10
187.4876515237661
 20
-10.5138069974258
 30
0.0
 10
187.4876515237661
 20
-10.5138069974258
 30
0.0
 10
180.92069663717
 20
-4.880989751655187
 30
0.0
 10
180.92069663717
 20
-4.880989751655187
 30
0.0
 10
180.3813669389542
 20
-4.365172830126155
 30
0.0
 10
179.7548117294211
 20
-4.091782971524798
 30
0.0
 10
179.1154666028991
 20
-4.093354796339943
 30
0.0
 10
179.1154666028991
 20
-4.093354796339943
 30
0.0
 10
178.0886774253672
 20
-4.095874022413532
 30
0.0
 10
178.0886774253672
 20
-4.095874022413532
 30
0.0
 10
178.0886774253672
 20
-4.095874022413532
 30
0.0
 10
160.0002251119097
 20
-4.140143499398993
 30
0.0
 10
160.0002251119097
 20
-4.140143499398993
 30
0.0
 10
160.0002251119097
 20
-4.140143499398993
 30
0.0
 10
160.0002251119097
 20
-4.129420639701152
 30
0.0
 10
160.0002251119097
 20
-4.129420639701152
 30
0.0
 10
160.0002251119097
 20
-4.129420639701152
 30
0.0
 10
141.9113206296697
 20
-4.085151162715691
 30
0.0
 10
141.9113206296697
 20
-4.085151162715691
 30
0.0
 10
141.9113206296697
 20
-4.085151162715691
 30
0.0
 10
140.8845314521378
 20
-4.082631936642103
 30
0.0
 10
140.8845314521378
 20
-4.082631936642103
 30
0.0
 10
140.2451863256158
 20
-4.08108164367374
 30
0.0
 10
139.6186311160828
 20
-4.354449970428314
 30
0.0
 10
139.0793014178669
 20
-4.870266891957347
 30
0.0
 10
139.0793014178669
 20
-4.870266891957347
 30
0.0
 10
132.5123465312708
 20
-10.50308413772796
 30
0.0
 10
132.5123465312708
 20
-10.50308413772796
 30
0.0
 10
132.0419402746067
 20
-10.90656941459107
 30
0.0
 10
131.4110571638703
 20
-11.06919945334164
 30
0.0
 10
130.8042251259903
 20
-10.94338887258967
 30
0.0
 10
130.8042251259903
 20
-10.94338887258967
 30
0.0
 10
97.81179451086606
 20
-4.103345573247167
 30
0.0
 10
97.81179451086606
 20
-4.103345573247167
 30
0.0
 10
97.81179451086606
 20
-4.103345573247167
 30
0.0
 10
96.99063447010998
 20
-2.190671623530023
 30
0.0
 10
96.99063447010998
 20
-2.190671623530023
 30
0.0
 10
96.85804135762143
 20
-1.882378641293728
 30
0.0
 10
96.57952691948576
 20
-1.660837469745381
 30
0.0
 10
96.24948677199883
 20
-1.601495700011953
 30
0.0
 10
96.24948677199883
 20
-1.601495700011953
 30
0.0
 10
78.39136062357707
 20
1.624276393908167
 30
0.0
 10
78.39136062357707
 20
1.624276393908167
 30
0.0
 10
78.31106836692398
 20
1.638788858639782
 30
0.0
 10
78.22967798608495
 20
1.646174282086286
 30
0.0
 10
78.14809381862487
 20
1.646389600554115
 30
0.0
 10
78.14809381862487
 20
1.646389600554115
 30
0.0
 10
18.21923675081629
 20
1.797370910195189
 30
0.0
 10
18.21923675081629
 20
1.797370910195189
 30
0.0
 10
16.76402841784675
 20
1.800923664914353
 30
0.0
 10
15.51615023754892
 20
0.7594067041829782
 30
0.0
 10
15.25901692326858
 20
-0.6729348075032073
 30
0.0
 10
15.25901692326858
 20
-0.6729348075032073
 30
0.0
 10
5.314318168159268
 20
-56.11707423184747
 30
0.0
 10
5.314318168159268
 20
-56.11707423184747
 30
0.0
 10
5.021398924525901
 20
-57.74901596321032
 30
0.0
 10
6.108025104267265
 20
-59.30884753969753
 30
0.0
 10
7.739966835630113
 20
-59.60036721329001
 30
0.0
 10
7.739966835630113
 20
-59.60036721329001
 30
0.0
 10
46.64812163140438
 20
-66.83911571950985
 30
0.0
 10
46.64812163140438
 20
-66.83911571950985
 30
0.0
 10
46.89954900628727
 20
-66.88420340667305
 30
0.0
 10
47.157435935205
 20
-66.88024154686501
 30
0.0
 10
47.40733454896631
 20
-66.82826366873131
 30
0.0
 10
47.40733454896631
 20
-66.82826366873131
 30
0.0
 10
55.87305381225787
 20
-65.06463316244478
 30
0.0
 10
55.87305381225787
 20
-65.06463316244478
 30
0.0
 10
56.12506254700389
 20
-65.01233230660934
 30
0.0
 10
56.38471508735782
 20
-65.0087364881966
 30
0.0
 10
56.63825258322542
 20
-65.05485770400539
 30
0.0
 10
56.63825258322542
 20
-65.05485770400539
 30
0.0
 10
71.1650790566445
 20
-68.07629257195663
 30
0.0
 10
71.1650790566445
 20
-68.07629257195663
 30
0.0
 10
71.6414711667142
 20
-68.16282906417675
 30
0.0
 10
71.98759560374789
 20
-68.57856596185927
 30
0.0
 10
71.98641135217484
 20
-69.0629248552386
 30
0.0
 10
71.98641135217484
 20
-69.0629248552386
 30
0.0
 10
68.59495169726098
 20
-86.21461264256311
 30
0.0
 10
68.59495169726098
 20
-86.21461264256311
 30
0.0
 10
68.4932137212122
 20
-86.72918071697873
 30
0.0
 10
68.80630830528106
 20
-87.23489920236662
 30
0.0
 10
69.31224210913679
 20
-87.37319825425263
 30
0.0
 10
69.31224210913679
 20
-87.37319825425263
 30
0.0
 10
99.94579431366373
 20
-98.32920478905703
 30
0.0
 10
99.94579431366373
 20
-98.32920478905703
 30
0.0
 10
100.2965911614493
 20
-98.42510763462766
 30
0.0
 10
100.5676555805981
 20
-98.7039235186183
 30
0.0
 10
100.6536753084954
 20
-99.05726112432423
 30
0.0
 10
100.6536753084954
 20
-99.05726112432423
 30
0.0
 10
104.1989154131321
 20
-107.2413868953902
 30
0.0
 10
104.1989154131321
 20
-107.2413868953902
 30
0.0
 10
104.259506029979
 20
-107.4901873849656
 30
0.0
 10
104.4132003523147
 20
-107.7062809992779
 30
0.0
 10
104.6283896290621
 20
-107.8450968154866
 30
0.0
 10
104.6283896290621
 20
-107.8450968154866
 30
0.0
 10
128.1649159428937
 20
-120.9166934240894
 30
0.0
 10
128.1649159428937
 20
-120.9166934240894
 30
0.0
 10
128.9694533979334
 20
-121.4357831863294
 30
0.0
 10
129.9060672011389
 20
-121.7130057136581
 30
0.0
 10
130.8635238320302
 20
-121.7153311531107
 30
0.0
 10
130.8635238320302
 20
-121.7153311531107
 30
0.0
 10
132.4012206700247
 20
-121.7190992262977
 30
0.0
 10
132.4012206700247
 20
-121.7190992262977
 30
0.0
 10
132.4012206700247
 20
-121.7190992262977
 30
0.0
 10
159.9997729431272
 20
-121.7866446296553
 30
0.0
 10
159.9997729431272
 20
-121.7866446296553
 30
0.0
 10
159.9997729431272
 20
-121.7866446296553
 30
0.0
 10
159.9997729431272
 20
-121.7973674893532
 30
0.0
 10
159.9997729431272
 20
-121.7973674893532
 30
0.0
 10
159.9997729431272
 20
-121.7973674893532
 30
0.0
 10
187.5987773850122
 20
-121.7298220859955
 30
0.0
 10
187.5987773850122
 20
-121.7298220859955
 30
0.0
 10
187.5987773850122
 20
-121.7298220859955
 30
0.0
 10
189.1364742230067
 20
-121.7260540128085
 30
0.0
 10
189.1364742230067
 20
-121.7260540128085
 30
0.0
 10
190.093930853898
 20
-121.7237070415092
 30
0.0
 10
191.0305446571035
 20
-121.4465060460273
 30
0.0
 10
191.8350821121432
 20
-120.9273947519405
 30
0.0
 10
191.8350821121432
 20
-120.9273947519405
 30
0.0
 10
215.3716084259748
 20
-107.8558196751845
 30
0.0
 10
215.3716084259748
 20
-107.8558196751845
 30
0.0
 10
215.5867977027222
 20
-107.7169823271289
 30
0.0
 10
215.7404920250579
 20
-107.5009102446634
 30
0.0
 10
215.8010826419048
 20
-107.252109755088
 30
0.0
 10
215.8010826419048
 20
-107.252109755088
 30
0.0
 10
219.3463227465415
 20
-99.0679624521753
 30
0.0
 10
219.3463227465415
 20
-99.0679624521753
 30
0.0
 10
219.4323424744388
 20
-98.71464637831613
 30
0.0
 10
219.7034068935876
 20
-98.43583049432551
 30
0.0
 10
220.05422527322
 20
-98.33992764875487
 30
0.0
 10
220.05422527322
 20
-98.33992764875487
 30
0.0
 10
250.6877559459001
 20
-87.38392111395046
 30
0.0
 10
250.6877559459001
 20
-87.38392111395046
 30
0.0
 10
251.1936897497558
 20
-87.24560053021769
 30
0.0
 10
251.5067843338247
 20
-86.73990357667657
 30
0.0
 10
251.4050463577759
 20
-86.22533550226095
 30
0.0
 10
251.4050463577759
 20
-86.22533550226095
 30
0.0
 10
248.0136082347088
 20
-69.07362618308967
 30
0.0
 10
248.0136082347088
 20
-69.07362618308967
 30
0.0
 10
248.0124239831358
 20
-68.58926728971032
 30
0.0
 10
248.3585268883227
 20
-68.17355192387458
 30
0.0
 10
248.8349405302392
 20
-68.08701543165446
 30
0.0
 10
248.8349405302392
 20
-68.08701543165446
 30
0.0
 10
263.3617454718115
 20
-65.06558056370322
 30
0.0
 10
263.3617454718115
 20
-65.06558056370322
 30
0.0
 10
263.6152829676791
 20
-65.01945934789444
 30
0.0
 10
263.874935508033
 20
-65.02305516630717
 30
0.0
 10
264.126944242779
 20
-65.07535602214263
 30
0.0
 10
264.126944242779
 20
-65.07535602214263
 30
0.0
 10
272.5926635060706
 20
-66.83898652842915
 30
0.0
 10
272.5926635060706
 20
-66.83898652842915
 30
0.0
 10
272.8425621198319
 20
-66.89096440656286
 30
0.0
 10
273.1004490487496
 20
-66.8949047345241
 30
0.0
 10
273.3518764236325
 20
-66.84983857920768
 30
0.0
 10
273.3518764236325
 20
-66.84983857920768
 30
0.0
 10
312.2600312194068
 20
-59.61106854114107
 30
0.0
 10
312.2600312194068
 20
-59.61106854114107
 30
0.0
 10
313.8919729507696
 20
-59.31957039939537
 30
0.0
 10
314.978599130511
 20
-57.75973882290816
 30
0.0
 10
314.6857014187244
 20
-56.12777555969853
 30
0.0
  0
SPLINE
  5
46
330
41
100
AcDbEntity
  8
katman 1
 62
     7
420
 16777215
370
     9
100
AcDbSpline
210
0.0
220
0.0
230
1.0
 70
    11
 71
     3
 72
    17
 73
    13
 74
     0
 42
0.0000000001
 43
0.0000000001
 12
1.0
 22
0.0
 32
0.0
 13
1.0
 23
0.0
 33
0.0
 40
0.0
 40
0.0
 40
0.0
 40
0.0
 40
1.0
 40
1.0
 40
1.0
 40
2.0
 40
2.0
 40
2.0
 40
3.0
 40
3.0
 40
3.0
 40
4.0
 40
4.0
 40
4.0
 40
4.0
 10
129.5929726170701
 20
-112.5363694651385
 30
0.0
 10
128.115112781285
 20
-112.5363694651385
 30
0.0
 10
126.9170592944426
 20
-111.3383159782961
 30
0.0
 10
126.9170592944426
 20
-109.860456142511
 30
0.0
 10
126.9170592944426
 20
-108.382596306726
 30
0.0
 10
128.115112781285
 20
-107.1845643517303
 30
0.0
 10
129.5929726170701
 20
-107.1845643517303
 30
0.0
 10
131.0708324528551
 20
-107.1845643517303
 30
0.0
 10
132.2688644078508
 20
-108.382596306726
 30
0.0
 10
132.2688644078508
 20
-109.860456142511
 30
0.0
 10
132.2688644078508
 20
-111.3383159782961
 30
0.0
 10
131.0708324528551
 20
-112.5363694651385
 30
0.0
 10
129.5929726170701
 20
-112.5363694651385
 30
0.0
  0
SPLINE
  5
47
330
41
100
AcDbEntity
  8
katman 1
 62
     7
420
 16777215
370
     9
100
AcDbSpline
210
0.0
220
0.0
230
1.0
 70
    11
 71
     3
 72
    17
 73
    13
 74
     0
 42
0.0000000001
 43
0.0000000001
 12
1.0
 22
0.0
 32
0.0
 13
1.0
 23
0.0
 33
0.0
 40
0.0
 40
0.0
 40
0.0
 40
0.0
 40
1.0
 40
1.0
 40
1.0
 40
2.0
 40
2.0
 40
2.0
 40
3.0
 40
3.0
 40
3.0
 40
4.0
 40
4.0
 40
4.0
 40
4.0
 10
190.4070254379668
 20
-112.5363694651385
 30
0.0
 10
188.9291656021818
 20
-112.5363694651385
 30
0.0
 10
187.7311121153394
 20
-111.3383159782961
 30
0.0
 10
187.7311121153394
 20
-109.860456142511
 30
0.0
 10
187.7311121153394
 20
-108.382596306726
 30
0.0
 10
188.9291656021818
 20
-107.1845643517303
 30
0.0
 10
190.4070254379668
 20
-107.1845643517303
 30
0.0
 10
191.8848852737519
 20
-107.1845643517303
 30
0.0
 10
193.0829387605943
 20
-108.382596306726
 30
0.0
 10
193.0829387605943
 20
-109.860456142511
 30
0.0
 10
193.0829387605943
 20
-111.3383159782961
 30
0.0
 10
191.8848852737519
 20
-112.5363694651385
 30
0.0
 10
190.4070254379668
 20
-112.5363694651385
 30
0.0
  0
POLYLINE
  5
48
330
41
100
AcDbEntity
  8
katman 1
 62
     7
420
 16777215
370
     9
100
AcDb2dPolyline
 66
     1
 10
0.0
 20
0.0
 30
0.0
  0
VERTEX
  5
49
330
48
100
AcDbEntity
  8
katman 1
 62
     7
420
 16777215
370
     9
100
AcDbVertex
100
AcDb2dVertex
 10
287.9869004271353
 20
-59.06648507231021
 30
0.0
  0
VERTEX
  5
4A
330
48
100
AcDbEntity
  8
katman 1
 62
     7
420
 16777215
370
     9
100
AcDbVertex
100
AcDb2dVertex
 10
285.6732388947818
 20
-59.47800172802329
 30
0.0
  0
VERTEX
  5
4B
330
48
100
AcDbEntity
  8
katman 1
 62
     7
420
 16777215
370
     9
100
AcDbVertex
100
AcDb2dVertex
 10
283.8594607173381
 20
-59.80390776092793
 30
0.0
  0
VERTEX
  5
4C
330
48
100
AcDbEntity
  8
katman 1
 62
     7
420
 16777215
370
     9
100
AcDbVertex
100
AcDb2dVertex
 10
283.858879357475
 20
-59.80072104760408
 30
0.0
  0
VERTEX
  5
4D
330
48
100
AcDbEntity
  8
katman 1
 62
     7
420
 16777215
370
     9
100
AcDbVertex
100
AcDb2dVertex
 10
274.2032456454249
 20
-61.51810114700112
 30
0.0
  0
VERTEX
  5
4E
330
48
100
AcDbEntity
  8
katman 1
 62
     7
420
 16777215
370
     9
100
AcDbVertex
100
AcDb2dVertex
 10
271.3344931030106
 20
-45.38928374109409
 30
0.0
  0
VERTEX
  5
4F
330
48
100
AcDbEntity
  8
katman 1
 62
     7
420
 16777215
370
     9
100
AcDbVertex
100
AcDb2dVertex
 10
267.0413658322197
 20
-46.23016695350322
 30
0.0
  0
VERTEX
  5
50
330
48
100
AcDbEntity
  8
katman 1
 62
     7
420
 16777215
370
     9
100
AcDbVertex
100
AcDb2dVertex
 10
268.6180568447379
 20
-55.09463448736567
 30
0.0
  0
VERTEX
  5
51
330
48
100
AcDbEntity
  8
katman 1
 62
     7
420
 16777215
370
     9
100
AcDbVertex
100
AcDb2dVertex
 10
254.8343805311807
 20
-57.54629362575015
 30
0.0
  0
VERTEX
  5
52
330
48
100
AcDbEntity
  8
katman 1
 62
     7
420
 16777215
370
     9
100
AcDbVertex
100
AcDb2dVertex
 10
253.3003441071393
 20
-48.92158320581431
 30
0.0
  0
VERTEX
  5
53
330
48
100
AcDbEntity
  8
katman 1
 62
     7
420
 16777215
370
     9
100
AcDbVertex
100
AcDb2dVertex
 10
248.3432392771069
 20
-49.89251877279163
 30
0.0
  0
VERTEX
  5
54
330
48
100
AcDbEntity
  8
katman 1
 62
     7
420
 16777215
370
     9
100
AcDbVertex
100
AcDb2dVertex
 10
249.252033934269
 20
-55.00200448250601
 30
0.0
  0
VERTEX
  5
55
330
48
100
AcDbEntity
  8
katman 1
 62
     7
420
 16777215
370
     9
100
AcDbVertex
100
AcDb2dVertex
 10
235.4683576207119
 20
-57.4536636208905
 30
0.0
  0
VERTEX
  5
56
330
48
100
AcDbEntity
  8
katman 1
 62
     7
420
 16777215
370
     9
100
AcDbVertex
100
AcDb2dVertex
 10
234.6022175520265
 20
-52.58393502510272
 30
0.0
  0
VERTEX
  5
57
330
48
100
AcDbEntity
  8
katman 1
 62
     7
420
 16777215
370
     9
100
AcDbVertex
100
AcDb2dVertex
 10
229.6562446867808
 20
-53.55269587555497
 30
0.0
  0
VERTEX
  5
58
330
48
100
AcDbEntity
  8
katman 1
 62
     7
420
 16777215
370
     9
100
AcDbVertex
100
AcDb2dVertex
 10
231.1132616948801
 20
-61.74444392038203
 30
0.0
  0
VERTEX
  5
59
330
48
100
AcDbEntity
  8
katman 1
 62
     7
420
 16777215
370
     9
100
AcDbVertex
100
AcDb2dVertex
 10
217.3296069131698
 20
-64.19605999507294
 30
0.0
  0
VERTEX
  5
5A
330
48
100
AcDbEntity
  8
katman 1
 62
     7
420
 16777215
370
     9
100
AcDbVertex
100
AcDb2dVertex
 10
215.9152444935472
 20
-56.24409059601928
 30
0.0
  0
VERTEX
  5
5B
330
48
100
AcDbEntity
  8
katman 1
 62
     7
420
 16777215
370
     9
100
AcDbVertex
100
AcDb2dVertex
 10
210.9537041030776
 20
-57.21590896871469
 30
0.0
  0
VERTEX
  5
5C
330
48
100
AcDbEntity
  8
katman 1
 62
     7
420
 16777215
370
     9
100
AcDbVertex
100
AcDb2dVertex
 10
212.9769656178712
 20
-68.59114056038042
 30
0.0
  0
VERTEX
  5
5D
330
48
100
AcDbEntity
  8
katman 1
 62
     7
420
 16777215
370
     9
100
AcDbVertex
100
AcDb2dVertex
 10
199.1933108361609
 20
-71.04275663507134
 30
0.0
  0
VERTEX
  5
5E
330
48
100
AcDbEntity
  8
katman 1
 62
     7
420
 16777215
370
     9
100
AcDbVertex
100
AcDb2dVertex
 10
195.9868743406517
 20
-53.01543323463026
 30
0.0
  0
VERTEX
  5
5F
330
48
100
AcDbEntity
  8
katman 1
 62
     7
420
 16777215
370
     9
100
AcDbVertex
100
AcDb2dVertex
 10
181.7134777038663
 20
-53.01543323463026
 30
0.0
  0
VERTEX
  5
60
330
48
100
AcDbEntity
  8
katman 1
 62
     7
420
 16777215
370
     9
100
AcDbVertex
100
AcDb2dVertex
 10
184.6850663465154
 20
-58.39628480934842
 30
0.0
  0
VERTEX
  5
61
330
48
100
AcDbEntity
  8
katman 1
 62
     7
420
 16777215
370
     9
100
AcDbVertex
100
AcDb2dVertex
 10
187.7623332931744
 20
-58.39628480934842
 30
0.0
  0
VERTEX
  5
62
330
48
100
AcDbEntity
  8
katman 1
 62
     7
420
 16777215
370
     9
100
AcDbVertex
100
AcDb2dVertex
 10
187.7623332931744
 20
-63.96846837457863
 30
0.0
  0
VERTEX
  5
63
330
48
100
AcDbEntity
  8
katman 1
 62
     7
420
 16777215
370
     9
100
AcDbVertex
100
AcDb2dVertex
 10
200.9324811645021
 20
-87.81649591581714
 30
0.0
  0
VERTEX
  5
64
330
48
100
AcDbEntity
  8
katman 1
 62
     7
420
 16777215
370
     9
100
AcDbVertex
100
AcDb2dVertex
 10
208.1187996238058
 20
-83.8477889805029
 30
0.0
  0
VERTEX
  5
65
330
48
100
AcDbEntity
  8
katman 1
 62
     7
420
 16777215
370
     9
100
AcDbVertex
100
AcDb2dVertex
 10
206.4648308131841
 20
-80.18319784914908
 30
0.0
  0
VERTEX
  5
66
330
48
100
AcDbEntity
  8
katman 1
 62
     7
420
 16777215
370
     9
100
AcDbVertex
100
AcDb2dVertex
 10
219.1341909920372
 20
-74.4650283627314
 30
0.0
  0
VERTEX
  5
67
330
48
100
AcDbEntity
  8
katman 1
 62
     7
420
 16777215
370
     9
100
AcDbVertex
100
AcDb2dVertex
 10
220.0464738083782
 20
-76.48626588392749
 30
0.0
  0
VERTEX
  5
68
330
48
100
AcDbEntity
  8
katman 1
 62
     7
420
 16777215
370
     9
100
AcDbVertex
100
AcDb2dVertex
 10
229.2375794579359
 20
-76.48626588392749
 30
0.0
  0
VERTEX
  5
69
330
48
100
AcDbEntity
  8
katman 1
 62
     7
420
 16777215
370
     9
100
AcDbVertex
100
AcDb2dVertex
 10
228.2154196274622
 20
-72.12460274482693
 30
0.0
  0
VERTEX
  5
6A
330
48
100
AcDbEntity
  8
katman 1
 62
     7
420
 16777215
370
     9
100
AcDbVertex
100
AcDb2dVertex
 10
241.7487451584756
 20
-68.95304784110593
 30
0.0
  0
VERTEX
  5
6B
330
48
100
AcDbEntity
  8
katman 1
 62
     7
420
 16777215
370
     9
100
AcDbVertex
100
AcDb2dVertex
 10
244.9203431258902
 20
-82.4863733721193
 30
0.0
  0
VERTEX
  5
6C
330
48
100
AcDbEntity
  8
katman 1
 62
     7
420
 16777215
370
     9
100
AcDbVertex
100
AcDb2dVertex
 10
231.3870391267236
 20
-85.65831584908238
 30
0.0
  0
VERTEX
  5
6D
330
48
100
AcDbEntity
  8
katman 1
 62
     7
420
 16777215
370
     9
100
AcDbVertex
100
AcDb2dVertex
 10
230.791769690566
 20
-83.11824694780768
 30
0.0
  0
VERTEX
  5
6E
330
48
100
AcDbEntity
  8
katman 1
 62
     7
420
 16777215
370
     9
100
AcDbVertex
100
AcDb2dVertex
 10
223.0397665525842
 20
-83.11824694780768
 30
0.0
  0
VERTEX
  5
6F
330
48
100
AcDbEntity
  8
katman 1
 62
     7
420
 16777215
370
     9
100
AcDbVertex
100
AcDb2dVertex
 10
224.8524035421485
 20
-87.13436700973767
 30
0.0
  0
VERTEX
  5
70
330
48
100
AcDbEntity
  8
katman 1
 62
     7
420
 16777215
370
     9
100
AcDbVertex
100
AcDb2dVertex
 10
212.1831294906825
 20
-92.85288100570388
 30
0.0
  0
VERTEX
  5
71
330
48
100
AcDbEntity
  8
katman 1
 62
     7
420
 16777215
370
     9
100
AcDbVertex
100
AcDb2dVertex
 10
210.8559495186836
 20
-89.91231975426889
 30
0.0
  0
VERTEX
  5
72
330
48
100
AcDbEntity
  8
katman 1
 62
     7
420
 16777215
370
     9
100
AcDbVertex
100
AcDb2dVertex
 10
204.1385946823095
 20
-93.62199857278591
 30
0.0
  0
VERTEX
  5
73
330
48
100
AcDbEntity
  8
katman 1
 62
     7
420
 16777215
370
     9
100
AcDbVertex
100
AcDb2dVertex
 10
207.6705927011748
 20
-100.0176030226844
 30
0.0
  0
VERTEX
  5
74
330
48
100
AcDbEntity
  8
katman 1
 62
     7
420
 16777215
370
     9
100
AcDbVertex
100
AcDb2dVertex
 10
195.4152468722617
 20
-106.785665358232
 30
0.0
  0
VERTEX
  5
75
330
48
100
AcDbEntity
  8
katman 1
 62
     7
420
 16777215
370
     9
100
AcDbVertex
100
AcDb2dVertex
 10
179.1040547241042
 20
-77.24995742562024
 30
0.0
  0
VERTEX
  5
76
330
48
100
AcDbEntity
  8
katman 1
 62
     7
420
 16777215
370
     9
100
AcDbVertex
100
AcDb2dVertex
 10
167.0031998958577
 20
-77.24995742562024
 30
0.0
  0
VERTEX
  5
77
330
48
100
AcDbEntity
  8
katman 1
 62
     7
420
 16777215
370
     9
100
AcDbVertex
100
AcDb2dVertex
 10
167.0031998958577
 20
-102.5462600451642
 30
0.0
  0
VERTEX
  5
78
330
48
100
AcDbEntity
  8
katman 1
 62
     7
420
 16777215
370
     9
100
AcDbVertex
100
AcDb2dVertex
 10
186.2462544293499
 20
-102.5462600451642
 30
0.0
  0
VERTEX
  5
79
330
48
100
AcDbEntity
  8
katman 1
 62
     7
420
 16777215
370
     9
100
AcDbVertex
100
AcDb2dVertex
 10
186.2462544293499
 20
-116.5462668233482
 30
0.0
  0
VERTEX
  5
7A
330
48
100
AcDbEntity
  8
katman 1
 62
     7
420
 16777215
370
     9
100
AcDbVertex
100
AcDb2dVertex
 10
167.0031998958577
 20
-116.5462668233482
 30
0.0
  0
VERTEX
  5
7B
330
48
100
AcDbEntity
  8
katman 1
 62
     7
420
 16777215
370
     9
100
AcDbVertex
100
AcDb2dVertex
 10
166.9581337405413
 20
-116.5462668233482
 30
0.0
  0
VERTEX
  5
7C
330
48
100
AcDbEntity
  8
katman 1
 62
     7
420
 16777215
370
     9
100
AcDbVertex
100
AcDb2dVertex
 10
153.0031931176737
 20
-116.5462668233482
 30
0.0
  0
VERTEX
  5
7D
330
48
100
AcDbEntity
  8
katman 1
 62
     7
420
 16777215
370
     9
100
AcDbVertex
100
AcDb2dVertex
 10
153.0031931176737
 20
-116.5175002760464
 30
0.0
  0
VERTEX
  5
7E
330
48
100
AcDbEntity
  8
katman 1
 62
     7
420
 16777215
370
     9
100
AcDbVertex
100
AcDb2dVertex
 10
133.7601170523347
 20
-116.5175002760464
 30
0.0
  0
VERTEX
  5
7F
330
48
100
AcDbEntity
  8
katman 1
 62
     7
420
 16777215
370
     9
100
AcDbVertex
100
AcDb2dVertex
 10
133.7601170523347
 20
-102.5174934978624
 30
0.0
  0
VERTEX
  5
80
330
48
100
AcDbEntity
  8
katman 1
 62
     7
420
 16777215
370
     9
100
AcDbVertex
100
AcDb2dVertex
 10
153.0031931176737
 20
-102.5174934978624
 30
0.0
  0
VERTEX
  5
81
330
48
100
AcDbEntity
  8
katman 1
 62
     7
420
 16777215
370
     9
100
AcDbVertex
100
AcDb2dVertex
 10
153.0031931176737
 20
-77.24995742562024
 30
0.0
  0
VERTEX
  5
82
330
48
100
AcDbEntity
  8
katman 1
 62
     7
420
 16777215
370
     9
100
AcDbVertex
100
AcDb2dVertex
 10
140.7401604194591
 20
-77.24995742562024
 30
0.0
  0
VERTEX
  5
83
330
48
100
AcDbEntity
  8
katman 1
 62
     7
420
 16777215
370
     9
100
AcDbVertex
100
AcDb2dVertex
 10
124.4289467394548
 20
-106.785665358232
 30
0.0
  0
VERTEX
  5
84
330
48
100
AcDbEntity
  8
katman 1
 62
     7
420
 16777215
370
     9
100
AcDbVertex
100
AcDb2dVertex
 10
112.1736224423885
 20
-100.0176030226844
 30
0.0
  0
VERTEX
  5
85
330
48
100
AcDbEntity
  8
katman 1
 62
     7
420
 16777215
370
     9
100
AcDbVertex
100
AcDb2dVertex
 10
115.7533996292648
 20
-93.53548361241258
 30
0.0
  0
VERTEX
  5
86
330
48
100
AcDbEntity
  8
katman 1
 62
     7
420
 16777215
370
     9
100
AcDbVertex
100
AcDb2dVertex
 10
109.1498621349847
 20
-89.8886347228078
 30
0.0
  0
VERTEX
  5
87
330
48
100
AcDbEntity
  8
katman 1
 62
     7
420
 16777215
370
     9
100
AcDbVertex
100
AcDb2dVertex
 10
107.8168470325076
 20
-92.84215814600604
 30
0.0
  0
VERTEX
  5
88
330
48
100
AcDbEntity
  8
katman 1
 62
     7
420
 16777215
370
     9
100
AcDbVertex
100
AcDb2dVertex
 10
95.14757298104168
 20
-87.12360108634627
 30
0.0
  0
VERTEX
  5
89
330
48
100
AcDbEntity
  8
katman 1
 62
     7
420
 16777215
370
     9
100
AcDbVertex
100
AcDb2dVertex
 10
96.95534377323295
 20
-83.11824694780768
 30
0.0
  0
VERTEX
  5
8A
330
48
100
AcDbEntity
  8
katman 1
 62
     7
420
 16777215
370
     9
100
AcDbVertex
100
AcDb2dVertex
 10
89.20568760655058
 20
-83.11824694780768
 30
0.0
  0
VERTEX
  5
8B
330
48
100
AcDbEntity
  8
katman 1
 62
     7
420
 16777215
370
     9
100
AcDbVertex
100
AcDb2dVertex
 10
88.61293739646656
 20
-85.64759298938455
 30
0.0
  0
VERTEX
  5
8C
330
48
100
AcDbEntity
  8
katman 1
 62
     7
420
 16777215
370
     9
100
AcDbVertex
100
AcDb2dVertex
 10
75.07961186545319
 20
-82.47565051242145
 30
0.0
  0
VERTEX
  5
8D
330
48
100
AcDbEntity
  8
katman 1
 62
     7
420
 16777215
370
     9
100
AcDbVertex
100
AcDb2dVertex
 10
78.25120983286776
 20
-68.94228191771452
 30
0.0
  0
VERTEX
  5
8E
330
48
100
AcDbEntity
  8
katman 1
 62
     7
420
 16777215
370
     9
100
AcDbVertex
100
AcDb2dVertex
 10
91.78455689572792
 20
-72.11392294882265
 30
0.0
  0
VERTEX
  5
8F
330
48
100
AcDbEntity
  8
katman 1
 62
     7
420
 16777215
370
     9
100
AcDbVertex
100
AcDb2dVertex
 10
90.75987783918069
 20
-76.48626588392749
 30
0.0
  0
VERTEX
  5
90
330
48
100
AcDbEntity
  8
katman 1
 62
     7
420
 16777215
370
     9
100
AcDbVertex
100
AcDb2dVertex
 10
99.94863651743906
 20
-76.48626588392749
 30
0.0
  0
VERTEX
  5
91
330
48
100
AcDbEntity
  8
katman 1
 62
     7
420
 16777215
370
     9
100
AcDbVertex
100
AcDb2dVertex
 10
100.8657639993061
 20
-74.45426243934
 30
0.0
  0
VERTEX
  5
92
330
48
100
AcDbEntity
  8
katman 1
 62
     7
420
 16777215
370
     9
100
AcDbVertex
100
AcDb2dVertex
 10
113.5351241781592
 20
-80.17247498945125
 30
0.0
  0
VERTEX
  5
93
330
48
100
AcDbEntity
  8
katman 1
 62
     7
420
 16777215
370
     9
100
AcDbVertex
100
AcDb2dVertex
 10
111.8870120298624
 20
-83.82414701273537
 30
0.0
  0
VERTEX
  5
94
330
48
100
AcDbEntity
  8
katman 1
 62
     7
420
 16777215
370
     9
100
AcDbVertex
100
AcDb2dVertex
 10
118.9595131470722
 20
-87.72993789175024
 30
0.0
  0
VERTEX
  5
95
330
48
100
AcDbEntity
  8
katman 1
 62
     7
420
 16777215
370
     9
100
AcDbVertex
100
AcDb2dVertex
 10
132.562192756573
 20
-63.09875401932731
 30
0.0
  0
VERTEX
  5
96
330
48
100
AcDbEntity
  8
katman 1
 62
     7
420
 16777215
370
     9
100
AcDbVertex
100
AcDb2dVertex
 10
132.562192756573
 20
-58.39628480934842
 30
0.0
  0
VERTEX
  5
97
330
48
100
AcDbEntity
  8
katman 1
 62
     7
420
 16777215
370
     9
100
AcDbVertex
100
AcDb2dVertex
 10
135.1591487970479
 20
-58.39628480934842
 30
0.0
  0
VERTEX
  5
98
330
48
100
AcDbEntity
  8
katman 1
 62
     7
420
 16777215
370
     9
100
AcDbVertex
100
AcDb2dVertex
 10
138.1307589715437
 20
-53.01543323463026
 30
0.0
  0
VERTEX
  5
99
330
48
100
AcDbEntity
  8
katman 1
 62
     7
420
 16777215
370
     9
100
AcDbVertex
100
AcDb2dVertex
 10
124.0130806506916
 20
-53.01543323463026
 30
0.0
  0
VERTEX
  5
9A
330
48
100
AcDbEntity
  8
katman 1
 62
     7
420
 16777215
370
     9
100
AcDbVertex
100
AcDb2dVertex
 10
120.8066656870292
 20
-71.04275663507134
 30
0.0
  0
VERTEX
  5
9B
330
48
100
AcDbEntity
  8
katman 1
 62
     7
420
 16777215
370
     9
100
AcDbVertex
100
AcDb2dVertex
 10
107.0229893734721
 20
-68.59114056038042
 30
0.0
  0
VERTEX
  5
9C
330
48
100
AcDbEntity
  8
katman 1
 62
     7
420
 16777215
370
     9
100
AcDbVertex
100
AcDb2dVertex
 10
109.151520087187
 20
-56.62402003250198
 30
0.0
  0
VERTEX
  5
9D
330
48
100
AcDbEntity
  8
katman 1
 62
     7
420
 16777215
370
     9
100
AcDbVertex
100
AcDb2dVertex
 10
104.1680172129988
 20
-55.75822447336513
 30
0.0
  0
VERTEX
  5
9E
330
48
100
AcDbEntity
  8
katman 1
 62
     7
420
 16777215
370
     9
100
AcDbVertex
100
AcDb2dVertex
 10
102.6691422947537
 20
-64.18529407168154
 30
0.0
  0
VERTEX
  5
9F
330
48
100
AcDbEntity
  8
katman 1
 62
     7
420
 16777215
370
     9
100
AcDbVertex
100
AcDb2dVertex
 10
88.8854659811966
 20
-61.73367799699063
 30
0.0
  0
VERTEX
  5
A0
330
48
100
AcDbEntity
  8
katman 1
 62
     7
420
 16777215
370
     9
100
AcDbVertex
100
AcDb2dVertex
 10
90.37452237730872
 20
-53.36185911751891
 30
0.0
  0
VERTEX
  5
A1
330
48
100
AcDbEntity
  8
katman 1
 62
     7
420
 16777215
370
     9
100
AcDbVertex
100
AcDb2dVertex
 10
85.40695306973984
 20
-52.49884116661705
 30
0.0
  0
VERTEX
  5
A2
330
48
100
AcDbEntity
  8
katman 1
 62
     7
420
 16777215
370
     9
100
AcDbVertex
100
AcDb2dVertex
 10
84.53159737063143
 20
-57.4203323220707
 30
0.0
  0
VERTEX
  5
A3
330
48
100
AcDbEntity
  8
katman 1
 62
     7
420
 16777215
370
     9
100
AcDbVertex
100
AcDb2dVertex
 10
70.74792105707431
 20
-54.96871624737979
 30
0.0
  0
VERTEX
  5
A4
330
48
100
AcDbEntity
  8
katman 1
 62
     7
420
 16777215
370
     9
100
AcDbVertex
100
AcDb2dVertex
 10
71.61345823404976
 20
-50.10247581077083
 30
0.0
  0
VERTEX
  5
A5
330
48
100
AcDbEntity
  8
katman 1
 62
     7
420
 16777215
370
     9
100
AcDbVertex
100
AcDb2dVertex
 10
66.62142874853562
 20
-49.23519455420596
 30
0.0
  0
VERTEX
  5
A6
330
48
100
AcDbEntity
  8
katman 1
 62
     7
420
 16777215
370
     9
100
AcDbVertex
100
AcDb2dVertex
 10
65.1655744601626
 20
-57.4203323220707
 30
0.0
  0
VERTEX
  5
A7
330
48
100
AcDbEntity
  8
katman 1
 62
     7
420
 16777215
370
     9
100
AcDbVertex
100
AcDb2dVertex
 10
51.38189814660548
 20
-54.96871624737979
 30
0.0
  0
VERTEX
  5
A8
330
48
100
AcDbEntity
  8
katman 1
 62
     7
420
 16777215
370
     9
100
AcDbVertex
100
AcDb2dVertex
 10
52.82791238099875
 20
-46.83882919835974
 30
0.0
  0
VERTEX
  5
A9
330
48
100
AcDbEntity
  8
katman 1
 62
     7
420
 16777215
370
     9
100
AcDbVertex
100
AcDb2dVertex
 10
48.53829480123348
 20
-46.09359044935985
 30
0.0
  0
VERTEX
  5
AA
330
48
100
AcDbEntity
  8
katman 1
 62
     7
420
 16777215
370
     9
100
AcDbVertex
100
AcDb2dVertex
 10
45.79673087776523
 20
-61.50737828730328
 30
0.0
  0
VERTEX
  5
AB
330
48
100
AcDbEntity
  8
katman 1
 62
     7
420
 16777215
370
     9
100
AcDbVertex
100
AcDb2dVertex
 10
35.36735025157483
 20
-59.65232355957694
 30
0.0
  0
VERTEX
  5
AC
330
48
100
AcDbEntity
  8
katman 1
 62
     7
420
 16777215
370
     9
100
AcDbVertex
100
AcDb2dVertex
 10
35.36661816878421
 20
-59.65645767415924
 30
0.0
  0
VERTEX
  5
AD
330
48
100
AcDbEntity
  8
katman 1
 62
     7
420
 16777215
370
     9
100
AcDbVertex
100
AcDb2dVertex
 10
33.0678351425577
 20
-59.24334766178422
 30
0.0
  0
VERTEX
  5
AE
330
48
100
AcDbEntity
  8
katman 1
 62
     7
420
 16777215
370
     9
100
AcDbVertex
100
AcDb2dVertex
 10
32.01305456420811
 20
-59.0557191489188
 30
0.0
  0
VERTEX
  5
AF
330
48
100
AcDbEntity
  8
katman 1
 62
     7
420
 16777215
370
     9
100
AcDbVertex
100
AcDb2dVertex
 10
32.01339907375664
 20
-59.05386741009548
 30
0.0
  0
VERTEX
  5
B0
330
48
100
AcDbEntity
  8
katman 1
 62
     7
420
 16777215
370
     9
100
AcDbVertex
100
AcDb2dVertex
 10
12.58153177582597
 20
-55.56178943516554
 30
0.0
  0
VERTEX
  5
B1
330
48
100
AcDbEntity
  8
katman 1
 62
     7
420
 16777215
370
     9
100
AcDbVertex
100
AcDb2dVertex
 10
15.02701127418379
 20
-41.95374839581581
 30
0.0
  0
VERTEX
  5
B2
330
48
100
AcDbEntity
  8
katman 1
 62
     7
420
 16777215
370
     9
100
AcDbVertex
100
AcDb2dVertex
 10
21.75885704344266
 20
-4.105606417159362
 30
0.0
  0
VERTEX
  5
B3
330
48
100
AcDbEntity
  8
katman 1
 62
     7
420
 16777215
370
     9
100
AcDbVertex
100
AcDb2dVertex
 10
35.54253335699978
 20
-6.557244023697061
 30
0.0
  0
VERTEX
  5
B4
330
48
100
AcDbEntity
  8
katman 1
 62
     7
420
 16777215
370
     9
100
AcDbVertex
100
AcDb2dVertex
 10
34.69687007460487
 20
-11.31175570735001
 30
0.0
  0
VERTEX
  5
B5
330
48
100
AcDbEntity
  8
katman 1
 62
     7
420
 16777215
370
     9
100
AcDbVertex
100
AcDb2dVertex
 10
40.33093616748888
 20
-12.29057193024984
 30
0.0
  0
VERTEX
  5
B6
330
48
100
AcDbEntity
  8
katman 1
 62
     7
420
 16777215
370
     9
100
AcDbVertex
100
AcDb2dVertex
 10
41.10866647328403
 20
-7.917970612983615
 30
0.0
  0
VERTEX
  5
B7
330
48
100
AcDbEntity
  8
katman 1
 62
     7
420
 16777215
370
     9
100
AcDbVertex
100
AcDb2dVertex
 10
54.89234278684116
 20
-10.36958668767453
 30
0.0
  0
VERTEX
  5
B8
330
48
100
AcDbEntity
  8
katman 1
 62
     7
420
 16777215
370
     9
100
AcDbVertex
100
AcDb2dVertex
 10
54.12443100317896
 20
-14.68693728609606
 30
0.0
  0
VERTEX
  5
B9
330
48
100
AcDbEntity
  8
katman 1
 62
     7
420
 16777215
370
     9
100
AcDbVertex
100
AcDb2dVertex
 10
58.41407011479102
 20
-15.43217603509595
 30
0.0
  0
VERTEX
  5
BA
330
48
100
AcDbEntity
  8
katman 1
 62
     7
420
 16777215
370
     9
100
AcDbVertex
100
AcDb2dVertex
 10
60.47751005568141
 20
-3.830946179597819
 30
0.0
  0
VERTEX
  5
BB
330
48
100
AcDbEntity
  8
katman 1
 62
     7
420
 16777215
370
     9
100
AcDbVertex
100
AcDb2dVertex
 10
74.26118636923853
 20
-6.282583786135517
 30
0.0
  0
VERTEX
  5
BC
330
48
100
AcDbEntity
  8
katman 1
 62
     7
420
 16777215
370
     9
100
AcDbVertex
100
AcDb2dVertex
 10
72.2075649504811
 20
-17.82854139094217
 30
0.0
  0
VERTEX
  5
BD
330
48
100
AcDbEntity
  8
katman 1
 62
     7
420
 16777215
370
     9
100
AcDbVertex
100
AcDb2dVertex
 10
77.19959443599524
 20
-18.69582264750704
 30
0.0
  0
VERTEX
  5
BE
330
48
100
AcDbEntity
  8
katman 1
 62
     7
420
 16777215
370
     9
100
AcDbVertex
100
AcDb2dVertex
 10
79.84353296615024
 20
-3.830946179597819
 30
0.0
  0
VERTEX
  5
BF
330
48
100
AcDbEntity
  8
katman 1
 62
     7
420
 16777215
370
     9
100
AcDbVertex
100
AcDb2dVertex
 10
93.62720927970736
 20
-6.282583786135517
 30
0.0
  0
VERTEX
  5
C0
330
48
100
AcDbEntity
  8
katman 1
 62
     7
420
 16777215
370
     9
100
AcDbVertex
100
AcDb2dVertex
 10
90.9931108035321
 20
-21.09218800335326
 30
0.0
  0
VERTEX
  5
C1
330
48
100
AcDbEntity
  8
katman 1
 62
     7
420
 16777215
370
     9
100
AcDbVertex
100
AcDb2dVertex
 10
95.9606585792542
 20
-21.95520595425512
 30
0.0
  0
VERTEX
  5
C2
330
48
100
AcDbEntity
  8
katman 1
 62
     7
420
 16777215
370
     9
100
AcDbVertex
100
AcDb2dVertex
 10
97.98107789027253
 20
-10.59590792920866
 30
0.0
  0
VERTEX
  5
C3
330
48
100
AcDbEntity
  8
katman 1
 62
     7
420
 16777215
370
     9
100
AcDbVertex
100
AcDb2dVertex
 10
111.7647326719829
 20
-13.04754553574636
 30
0.0
  0
VERTEX
  5
C4
330
48
100
AcDbEntity
  8
katman 1
 62
     7
420
 16777215
370
     9
100
AcDbVertex
100
AcDb2dVertex
 10
109.7561343448483
 20
-24.3403532179275
 30
0.0
  0
VERTEX
  5
C5
330
48
100
AcDbEntity
  8
katman 1
 62
     7
420
 16777215
370
     9
100
AcDbVertex
100
AcDb2dVertex
 10
112.0118106138156
 20
-24.74379543109704
 30
0.0
  0
VERTEX
  5
C6
330
48
100
AcDbEntity
  8
katman 1
 62
     7
420
 16777215
370
     9
100
AcDbVertex
100
AcDb2dVertex
 10
114.7376562891324
 20
-25.21736686923819
 30
0.0
  0
VERTEX
  5
C7
330
48
100
AcDbEntity
  8
katman 1
 62
     7
420
 16777215
370
     9
100
AcDbVertex
100
AcDb2dVertex
 10
116.118601282548
 20
-17.45334896075168
 30
0.0
  0
VERTEX
  5
C8
330
48
100
AcDbEntity
  8
katman 1
 62
     7
420
 16777215
370
     9
100
AcDbVertex
100
AcDb2dVertex
 10
129.9022775961052
 20
-19.90498656728938
 30
0.0
  0
VERTEX
  5
C9
330
48
100
AcDbEntity
  8
katman 1
 62
     7
420
 16777215
370
     9
100
AcDbVertex
100
AcDb2dVertex
 10
127.6724826069708
 20
-32.44143065595215
 30
0.0
  0
VERTEX
  5
CA
330
48
100
AcDbEntity
  8
katman 1
 62
     7
420
 16777215
370
     9
100
AcDbVertex
100
AcDb2dVertex
 10
139.4065424252721
 20
-32.44143065595215
 30
0.0
  0
VERTEX
  5
CB
330
48
100
AcDbEntity
  8
katman 1
 62
     7
420
 16777215
370
     9
100
AcDbVertex
100
AcDb2dVertex
 10
139.4065424252721
 20
-20.15027736583917
 30
0.0
  0
VERTEX
  5
CC
330
48
100
AcDbEntity
  8
katman 1
 62
     7
420
 16777215
370
     9
100
AcDbVertex
100
AcDb2dVertex
 10
155.1434156241916
 20
-20.15027736583917
 30
0.0
  0
VERTEX
  5
CD
330
48
100
AcDbEntity
  8
katman 1
 62
     7
420
 16777215
370
     9
100
AcDbVertex
100
AcDb2dVertex
 10
155.1434156241916
 20
-9.548986474934802
 30
0.0
  0
VERTEX
  5
CE
330
48
100
AcDbEntity
  8
katman 1
 62
     7
420
 16777215
370
     9
100
AcDbVertex
100
AcDb2dVertex
 10
165.1434081618391
 20
-9.548986474934802
 30
0.0
  0
VERTEX
  5
CF
330
48
100
AcDbEntity
  8
katman 1
 62
     7
420
 16777215
370
     9
100
AcDbVertex
100
AcDb2dVertex
 10
165.1434081618391
 20
-20.15027736583917
 30
0.0
  0
VERTEX
  5
D0
330
48
100
AcDbEntity
  8
katman 1
 62
     7
420
 16777215
370
     9
100
AcDbVertex
100
AcDb2dVertex
 10
180.5934125660713
 20
-20.15027736583917
 30
0.0
  0
VERTEX
  5
D1
330
48
100
AcDbEntity
  8
katman 1
 62
     7
420
 16777215
370
     9
100
AcDbVertex
100
AcDb2dVertex
 10
180.5934125660713
 20
-32.44143065595215
 30
0.0
  0
VERTEX
  5
D2
330
48
100
AcDbEntity
  8
katman 1
 62
     7
420
 16777215
370
     9
100
AcDbVertex
100
AcDb2dVertex
 10
192.3274939162193
 20
-32.44143065595215
 30
0.0
  0
VERTEX
  5
D3
330
48
100
AcDbEntity
  8
katman 1
 62
     7
420
 16777215
370
     9
100
AcDbVertex
100
AcDb2dVertex
 10
190.097698927085
 20
-19.90498656728938
 30
0.0
  0
VERTEX
  5
D4
330
48
100
AcDbEntity
  8
katman 1
 62
     7
420
 16777215
370
     9
100
AcDbVertex
100
AcDb2dVertex
 10
203.8813537087953
 20
-17.45334896075168
 30
0.0
  0
VERTEX
  5
D5
330
48
100
AcDbEntity
  8
katman 1
 62
     7
420
 16777215
370
     9
100
AcDbVertex
100
AcDb2dVertex
 10
205.3243965483325
 20
-25.56646270112792
 30
0.0
  0
VERTEX
  5
D6
330
48
100
AcDbEntity
  8
katman 1
 62
     7
420
 16777215
370
     9
100
AcDbVertex
100
AcDb2dVertex
 10
210.3004494035338
 20
-24.67646534620719
 30
0.0
  0
VERTEX
  5
D7
330
48
100
AcDbEntity
  8
katman 1
 62
     7
420
 16777215
370
     9
100
AcDbVertex
100
AcDb2dVertex
 10
208.2339950040939
 20
-13.0582683954442
 30
0.0
  0
VERTEX
  5
D8
330
48
100
AcDbEntity
  8
katman 1
 62
     7
420
 16777215
370
     9
100
AcDbVertex
100
AcDb2dVertex
 10
222.017671317651
 20
-10.6066307889065
 30
0.0
  0
VERTEX
  5
D9
330
48
100
AcDbEntity
  8
katman 1
 62
     7
420
 16777215
370
     9
100
AcDbVertex
100
AcDb2dVertex
 10
224.0693118065044
 20
-22.14152102446679
 30
0.0
  0
VERTEX
  5
DA
330
48
100
AcDbEntity
  8
katman 1
 62
     7
420
 16777215
370
     9
100
AcDbVertex
100
AcDb2dVertex
 10
229.0152846717501
 20
-21.17276017401454
 30
0.0
  0
VERTEX
  5
DB
330
48
100
AcDbEntity
  8
katman 1
 62
     7
420
 16777215
370
     9
100
AcDbVertex
100
AcDb2dVertex
 10
226.3727672434828
 20
-6.315850489414961
 30
0.0
  0
VERTEX
  5
DC
330
48
100
AcDbEntity
  8
katman 1
 62
     7
420
 16777215
370
     9
100
AcDbVertex
100
AcDb2dVertex
 10
240.1564220251931
 20
-3.864212882877263
 30
0.0
  0
VERTEX
  5
DD
330
48
100
AcDbEntity
  8
katman 1
 62
     7
420
 16777215
370
     9
100
AcDbVertex
100
AcDb2dVertex
 10
242.7563063968305
 20
-18.48134392170345
 30
0.0
  0
VERTEX
  5
DE
330
48
100
AcDbEntity
  8
katman 1
 62
     7
420
 16777215
370
     9
100
AcDbVertex
100
AcDb2dVertex
 10
247.7134327587097
 20
-17.51040835472613
 30
0.0
  0
VERTEX
  5
DF
330
48
100
AcDbEntity
  8
katman 1
 62
     7
420
 16777215
370
     9
100
AcDbVertex
100
AcDb2dVertex
 10
245.7387901539516
 20
-6.408502026121399
 30
0.0
  0
VERTEX
  5
E0
330
48
100
AcDbEntity
  8
katman 1
 62
     7
420
 16777215
370
     9
100
AcDbVertex
100
AcDb2dVertex
 10
259.522444935662
 20
-3.956885951430483
 30
0.0
  0
VERTEX
  5
E1
330
48
100
AcDbEntity
  8
katman 1
 62
     7
420
 16777215
370
     9
100
AcDbVertex
100
AcDb2dVertex
 10
261.4544329519433
 20
-14.81899210241505
 30
0.0
  0
VERTEX
  5
E2
330
48
100
AcDbEntity
  8
katman 1
 62
     7
420
 16777215
370
     9
100
AcDbVertex
100
AcDb2dVertex
 10
265.7475602227341
 20
-13.97810889000591
 30
0.0
  0
VERTEX
  5
E3
330
48
100
AcDbEntity
  8
katman 1
 62
     7
420
 16777215
370
     9
100
AcDbVertex
100
AcDb2dVertex
 10
265.107633736349
 20
-10.38030954737237
 30
0.0
  0
VERTEX
  5
E4
330
48
100
AcDbEntity
  8
katman 1
 62
     7
420
 16777215
370
     9
100
AcDbVertex
100
AcDb2dVertex
 10
278.8912885180593
 20
-7.928671940834673
 30
0.0
  0
VERTEX
  5
E5
330
48
100
AcDbEntity
  8
katman 1
 62
     7
420
 16777215
370
     9
100
AcDbVertex
100
AcDb2dVertex
 10
279.4885604159677
 20
-11.2867141695416
 30
0.0
  0
VERTEX
  5
E6
330
48
100
AcDbEntity
  8
katman 1
 62
     7
420
 16777215
370
     9
100
AcDbVertex
100
AcDb2dVertex
 10
285.1152195535585
 20
-10.18462812381018
 30
0.0
  0
VERTEX
  5
E7
330
48
100
AcDbEntity
  8
katman 1
 62
     7
420
 16777215
370
     9
100
AcDbVertex
100
AcDb2dVertex
 10
284.476111277351
 20
-6.591350469001034
 30
0.0
  0
VERTEX
  5
E8
330
48
100
AcDbEntity
  8
katman 1
 62
     7
420
 16777215
370
     9
100
AcDbVertex
100
AcDb2dVertex
 10
298.2597660590613
 20
-4.139712862463336
 30
0.0
  0
VERTEX
  5
E9
330
48
100
AcDbEntity
  8
katman 1
 62
     7
420
 16777215
370
     9
100
AcDbVertex
100
AcDb2dVertex
 10
305.3618519337507
 20
-44.06938153330774
 30
0.0
  0
VERTEX
  5
EA
330
48
100
AcDbEntity
  8
katman 1
 62
     7
420
 16777215
370
     9
100
AcDbVertex
100
AcDb2dVertex
 10
307.4283063331907
 20
-55.56842124397465
 30
0.0
  0
VERTEX
  5
EB
330
48
100
AcDbEntity
  8
katman 1
 62
     7
420
 16777215
370
     9
100
AcDbVertex
100
AcDb2dVertex
 10
287.9861683443446
 20
-59.06235095772791
 30
0.0
  0
VERTEX
  5
EC
330
48
100
AcDbEntity
  8
katman 1
 62
     7
420
 16777215
370
     9
100
AcDbVertex
100
AcDb2dVertex
 10
287.9869004271353
 20
-59.06648507231021
 30
0.0
  0
SEQEND
  5
ED
330
48
100
AcDbEntity
  8
katman 1
 62
     7
420
 16777215
370
     9
  0
SPLINE
  5
EE
330
41
100
AcDbEntity
  8
katman 1
 62
     7
420
 16777215
370
     9
100
AcDbSpline
210
0.0
220
0.0
230
1.0
 70
    11
 71
     3
 72
    17
 73
    13
 74
     0
 42
0.0000000001
 43
0.0000000001
 12
1.0
 22
0.0
 32
0.0
 13
1.0
 23
0.0
 33
0.0
 40
0.0
 40
0.0
 40
0.0
 40
0.0
 40
1.0
 40
1.0
 40
1.0
 40
2.0
 40
2.0
 40
2.0
 40
3.0
 40
3.0
 40
3.0
 40
4.0
 40
4.0
 40
4.0
 40
4.0
 10
228.0079172200163
 20
-68.07493606560931
 30
0.0
 10
228.0079172200163
 20
-69.55279590139436
 30
0.0
 10
226.8098852650206
 20
-70.75084938823677
 30
0.0
 10
225.3320254292356
 20
-70.75084938823677
 30
0.0
 10
223.8541655934505
 20
-70.75084938823677
 30
0.0
 10
222.6561121066081
 20
-69.55279590139436
 30
0.0
 10
222.6561121066081
 20
-68.07493606560931
 30
0.0
 10
222.6561121066081
 20
-66.59707622982425
 30
0.0
 10
223.8541655934505
 20
-65.39904427482863
 30
0.0
 10
225.3320254292356
 20
-65.39904427482863
 30
0.0
 10
226.8098852650206
 20
-65.39904427482863
 30
0.0
 10
228.0079172200163
 20
-66.59707622982425
 30
0.0
 10
228.0079172200163
 20
-68.07493606560931
 30
0.0
  0
SPLINE
  5
EF
330
41
100
AcDbEntity
  8
katman 1
 62
   250
420
  2299925
370
     9
100
AcDbSpline
210
0.0
220
0.0
230
1.0
 70
    11
 71
     3
 72
    17
 73
    13
 74
     0
 42
0.0000000001
 43
0.0000000001
 12
1.0
 22
0.0
 32
0.0
 13
1.0
 23
0.0
 33
0.0
 40
0.0
 40
0.0
 40
0.0
 40
0.0
 40
1.0
 40
1.0
 40
1.0
 40
2.0
 40
2.0
 40
2.0
 40
3.0
 40
3.0
 40
3.0
 40
4.0
 40
4.0
 40
4.0
 40
4.0
 10
97.34214444090902
 20
-68.06422286851101
 30
0.0
 10
97.34214444090902
 20
-69.54208470412159
 30
0.0
 10
96.14410071123525
 20
-70.7401284337992
 30
0.0
 10
94.66623887562275
 20
-70.7401284337992
 30
0.0
 10
93.18837704001055
 20
-70.7401284337992
 30
0.0
 10
91.9903333103368
 20
-69.54208470412159
 30
0.0
 10
91.9903333103368
 20
-68.06422286851101
 30
0.0
 10
91.9903333103368
 20
-66.58636103289786
 30
0.0
 10
93.18837704001055
 20
-65.38831730322408
 30
0.0
 10
94.66623887562275
 20
-65.38831730322408
 30
0.0
 10
96.14410071123525
 20
-65.38831730322408
 30
0.0
 10
97.34214444090902
 20
-66.58636103289786
 30
0.0
 10
97.34214444090902
 20
-68.06422286851101
 30
0.0
  0
ENDBLK
  5
44
330
41
100
AcDbEntity
  8
0
100
AcDbBlockEnd
  0
ENDSEC
  0
SECTION
  2
ENTITIES
  0
INSERT
  5
42
330
1F
100
AcDbEntity
  8
katman 1
100
AcDbBlockReference
  2
block 2
 10
0.0
 20
0.0
 30
0.0
  0
ENDSEC
  0
SECTION
  2
OBJECTS
  0
DICTIONARY
  5
C
330
0
100
AcDbDictionary
281
     1
  3
ACAD_GROUP
350
D
  3
ACAD_LAYOUT
350
1A
  3
ACAD_MATERIAL
350
3B
  3
ACAD_MLEADERSTYLE
350
F1
  3
ACAD_MLINESTYLE
350
17
  3
ACAD_PLOTSETTINGS
350
19
  3
ACAD_PLOTSTYLENAME
350
E
  3
ACAD_TABLESTYLE
350
F0
  3
ACAD_VISUALSTYLE
350
2A
  0
SUN
  5
3F
330
29
100
AcDbSun
 90
        1
290
     0
 63
     7
421
 16777215
 40
1.0
291
     1
 91
  2455826
 92
 54000000
292
     0
 70
     2
 71
   256
280
     1
  0
DICTIONARY
  5
D
102
{ACAD_REACTORS
330
C
102
}
330
C
100
AcDbDictionary
281
     1
  0
DICTIONARY
  5
1A
102
{ACAD_REACTORS
330
C
102
}
330
C
100
AcDbDictionary
281
     1
  3
Layout1
350
1E
  3
Layout2
350
26
  3
Model
350
22
  0
DICTIONARY
  5
3B
102
{ACAD_REACTORS
330
C
102
}
330
C
100
AcDbDictionary
281
     1
  3
ByBlock
350
3D
  3
ByLayer
350
3C
  3
Global
350
3E
  0
DICTIONARY
  5
F1
102
{ACAD_REACTORS
330
C
102
}
330
C
100
AcDbDictionary
281
     1
  0
DICTIONARY
  5
17
102
{ACAD_REACTORS
330
C
102
}
330
C
100
AcDbDictionary
281
     1
  3
Standard
350
18
  0
DICTIONARY
  5
19
102
{ACAD_REACTORS
330
C
102
}
330
C
100
AcDbDictionary
281
     1
  0
ACDBDICTIONARYWDFLT
  5
E
102
{ACAD_REACTORS
330
C
102
}
330
C
100
AcDbDictionary
281
     1
  3
Normal
350
F
100
AcDbDictionaryWithDefault
340
F
  0
DICTIONARY
  5
F0
102
{ACAD_REACTORS
330
C
102
}
330
C
100
AcDbDictionary
281
     1
  0
DICTIONARY
  5
2A
102
{ACAD_REACTORS
330
C
102
}
330
C
100
AcDbDictionary
281
     1
  3
2dWireframe
350
2F
  3
3D Hidden
350
31
  3
3dWireframe
350
30
  3
Basic
350
32
  3
Brighten
350
36
  3
ColorChange
350
3A
  3
Conceptual
350
34
  3
Dim
350
35
  3
Facepattern
350
39
  3
Flat
350
2B
  3
FlatWithEdges
350
2C
  3
Gouraud
350
2D
  3
GouraudWithEdges
350
2E
  3
Linepattern
350
38
  3
Realistic
350
33
  3
Thicken
350
37
  0
LAYOUT
  5
1E
102
{ACAD_REACTORS
330
1A
102
}
330
1A
100
AcDbPlotSettings
  1

  2
none_device
  4

  6

 40
0.0
 41
0.0
 42
0.0
 43
0.0
 44
0.0
 45
0.0
 46
0.0
 47
0.0
 48
0.0
 49
0.0
140
0.0
141
0.0
142
1.0
143
1.0
 70
   688
 72
     0
 73
     0
 74
     5
  7

 75
    16
 76
     0
 77
     2
 78
   300
147
1.0
148
0.0
149
0.0
100
AcDbLayout
  1
Layout1
 70
     1
 71
     1
 10
0.0
 20
0.0
 11
12.0
 21
9.0
 12
0.0
 22
0.0
 32
0.0
 14
1.000000000000000E+20
 24
1.000000000000000E+20
 34
1.000000000000000E+20
 15
-1.000000000000000E+20
 25
-1.000000000000000E+20
 35
-1.000000000000000E+20
146
0.0
 13
0.0
 23
0.0
 33
0.0
 16
1.0
 26
0.0
 36
0.0
 17
0.0
 27
1.0
 37
0.0
 76
     0
330
1B
  0
LAYOUT
  5
26
102
{ACAD_REACTORS
330
1A
102
}
330
1A
100
AcDbPlotSettings
  1

  2
none_device
  4

  6

 40
0.0
 41
0.0
 42
0.0
 43
0.0
 44
0.0
 45
0.0
 46
0.0
 47
0.0
 48
0.0
 49
0.0
140
0.0
141
0.0
142
1.0
143
1.0
 70
   688
 72
     0
 73
     0
 74
     5
  7

 75
    16
 76
     0
 77
     2
 78
   300
147
1.0
148
0.0
149
0.0
100
AcDbLayout
  1
Layout2
 70
     1
 71
     2
 10
0.0
 20
0.0
 11
0.0
 21
0.0
 12
0.0
 22
0.0
 32
0.0
 14
0.0
 24
0.0
 34
0.0
 15
0.0
 25
0.0
 35
0.0
146
0.0
 13
0.0
 23
0.0
 33
0.0
 16
1.0
 26
0.0
 36
0.0
 17
0.0
 27
1.0
 37
0.0
 76
     0
330
23
  0
LAYOUT
  5
22
102
{ACAD_REACTORS
330
1A
102
}
330
1A
100
AcDbPlotSettings
  1

  2
none_device
  4

  6

 40
0.0
 41
0.0
 42
0.0
 43
0.0
 44
0.0
 45
0.0
 46
0.0
 47
0.0
 48
0.0
 49
0.0
140
0.0
141
0.0
142
1.0
143
1.0
 70
  1712
 72
     0
 73
     0
 74
     0
  7

 75
     0
 76
     0
 77
     2
 78
   300
147
1.0
148
0.0
149
0.0
100
AcDbLayout
  1
Model
 70
     1
 71
     0
 10
0.0
 20
0.0
 11
12.0
 21
9.0
 12
0.0
 22
0.0
 32
0.0
 14
1.000000000000000E+20
 24
1.000000000000000E+20
 34
1.000000000000000E+20
 15
-1.000000000000000E+20
 25
-1.000000000000000E+20
 35
-1.000000000000000E+20
146
0.0
 13
0.0
 23
0.0
 33
0.0
 16
1.0
 26
0.0
 36
0.0
 17
0.0
 27
1.0
 37
0.0
 76
     0
330
1F
331
29
  0
MATERIAL
  5
3D
102
{ACAD_REACTORS
330
3B
102
}
330
3B
100
AcDbMaterial
  1
ByBlock
 72
     1
 94
      127
  0
MATERIAL
  5
3C
102
{ACAD_REACTORS
330
3B
102
}
330
3B
100
AcDbMaterial
  1
ByLayer
 72
     1
 94
      127
  0
MATERIAL
  5
3E
102
{ACAD_REACTORS
330
3B
102
}
330
3B
100
AcDbMaterial
  1
Global
 72
     1
 94
      127
  0
MLINESTYLE
  5
18
102
{ACAD_REACTORS
330
17
102
}
330
17
100
AcDbMlineStyle
  2
Standard
 70
     0
  3

 62
   256
 51
90.0
 52
90.0
 71
     2
 49
0.5
 62
   256
  6
BYLAYER
 49
-0.5
 62
   256
  6
BYLAYER
  0
ACDBPLACEHOLDER
  5
F
102
{ACAD_REACTORS
330
E
102
}
330
E
  0
VISUALSTYLE
  5
2F
102
{ACAD_REACTORS
330
2A
102
}
330
2A
100
AcDbVisualStyle
  2
2dWireframe
 70
     4
177
     2
291
     0
 71
     0
176
     1
 72
     2
176
     1
 73
     0
176
     1
 90
        0
176
     1
 40
-0.6
176
     1
 41
-30.0
176
     1
 62
     5
 63
     7
421
 16777215
176
     1
 74
     1
176
     1
 91
        4
176
     1
 64
     7
176
     1
 65
   257
176
     1
 75
     1
176
     1
175
     1
176
     1
 42
1.0
176
     1
 92
        0
176
     1
 66
   257
176
     1
 43
1.0
176
     1
 76
     1
176
     1
 77
     6
176
     1
 78
     2
176
     1
 67
     7
176
     1
 79
     5
176
     1
170
     0
176
     1
171
     0
176
     1
290
     0
176
     1
 93
        1
176
     1
 44
0.0
176
     1
173
     0
176
     1
  0
VISUALSTYLE
  5
31
102
{ACAD_REACTORS
330
2A
102
}
330
2A
100
AcDbVisualStyle
  2
3D Hidden
 70
     6
177
     2
291
     0
 71
     1
176
     1
 72
     2
176
     1
 73
     2
176
     1
 90
        0
176
     1
 40
-0.6
176
     1
 41
-30.0
176
     1
 62
     5
 63
     7
421
 16777215
176
     1
 74
     2
176
     1
 91
        2
176
     1
 64
     7
176
     1
 65
   257
176
     1
 75
     2
176
     1
175
     1
176
     1
 42
40.0
176
     1
 92
        0
176
     1
 66
   257
176
     1
 43
1.0
176
     1
 76
     1
176
     1
 77
     6
176
     1
 78
     2
176
     1
 67
     7
176
     1
 79
     3
176
     1
170
     0
176
     1
171
     0
176
     1
290
     0
176
     1
 93
        1
176
     1
 44
0.0
176
     1
173
     0
176
     1
  0
VISUALSTYLE
  5
30
102
{ACAD_REACTORS
330
2A
102
}
330
2A
100
AcDbVisualStyle
  2
3dWireframe
 70
     5
177
     2
291
     0
 71
     0
176
     1
 72
     2
176
     1
 73
     0
176
     1
 90
        0
176
     1
 40
-0.6
176
     1
 41
-30.0
176
     1
 62
     5
 63
     7
421
 16777215
176
     1
 74
     1
176
     1
 91
        4
176
     1
 64
     7
176
     1
 65
   257
176
     1
 75
     1
176
     1
175
     1
176
     1
 42
1.0
176
     1
 92
        0
176
     1
 66
   257
176
     1
 43
1.0
176
     1
 76
     1
176
     1
 77
     6
176
     1
 78
     2
176
     1
 67
     7
176
     1
 79
     5
176
     1
170
     0
176
     1
171
     0
176
     1
290
     0
176
     1
 93
        1
176
     1
 44
0.0
176
     1
173
     0
176
     1
  0
VISUALSTYLE
  5
32
102
{ACAD_REACTORS
330
2A
102
}
330
2A
100
AcDbVisualStyle
  2
Basic
 70
     7
177
     2
291
     1
 71
     1
176
     1
 72
     0
176
     1
 73
     1
176
     1
 90
        0
176
     1
 40
-0.6
176
     1
 41
-30.0
176
     1
 62
     5
 63
     7
421
 16777215
176
     1
 74
     0
176
     1
 91
        4
176
     1
 64
     7
176
     1
 65
   257
176
     1
 75
     1
176
     1
175
     1
176
     1
 42
1.0
176
     1
 92
        8
176
     1
 66
     7
176
     1
 43
1.0
176
     1
 76
     1
176
     1
 77
     6
176
     1
 78
     2
176
     1
 67
     7
176
     1
 79
     5
176
     1
170
     0
176
     1
171
     0
176
     1
290
     0
176
     1
 93
        1
176
     1
 44
0.0
176
     1
173
     0
176
     1
  0
VISUALSTYLE
  5
36
102
{ACAD_REACTORS
330
2A
102
}
330
2A
100
AcDbVisualStyle
  2
Brighten
 70
    12
177
     2
291
     1
 71
     2
176
     1
 72
     2
176
     1
 73
     0
176
     1
 90
        0
176
     1
 40
-0.6
176
     1
 41
-30.0
176
     1
 62
     5
 63
     7
421
 16777215
176
     1
 74
     1
176
     1
 91
        4
176
     1
 64
     7
176
     1
 65
   257
176
     1
 75
     1
176
     1
175
     1
176
     1
 42
1.0
176
     1
 92
        8
176
     1
 66
     7
176
     1
 43
1.0
176
     1
 76
     1
176
     1
 77
     6
176
     1
 78
     2
176
     1
 67
     7
176
     1
 79
     5
176
     1
170
     0
176
     1
171
     0
176
     1
290
     0
176
     1
 93
        1
176
     1
 44
50.0
176
     1
173
     0
176
     1
  0
VISUALSTYLE
  5
3A
102
{ACAD_REACTORS
330
2A
102
}
330
2A
100
AcDbVisualStyle
  2
ColorChange
 70
    16
177
     2
291
     1
 71
     2
176
     1
 72
     2
176
     1
 73
     3
176
     1
 90
        0
176
     1
 40
-0.6
176
     1
 41
-30.0
176
     1
 62
     5
 63
     8
421
  8421504
176
     1
 74
     1
176
     1
 91
        4
176
     1
 64
     7
176
     1
 65
   257
176
     1
 75
     1
176
     1
175
     1
176
     1
 42
1.0
176
     1
 92
        8
176
     1
 66
     8
424
  8421504
176
     1
 43
1.0
176
     1
 76
     1
176
     1
 77
     6
176
     1
 78
     2
176
     1
 67
     7
176
     1
 79
     5
176
     1
170
     0
176
     1
171
     0
176
     1
290
     0
176
     1
 93
        1
176
     1
 44
0.0
176
     1
173
     0
176
     1
  0
VISUALSTYLE
  5
34
102
{ACAD_REACTORS
330
2A
102
}
330
2A
100
AcDbVisualStyle
  2
Conceptual
 70
     9
177
     2
291
     0
 71
     3
176
     1
 72
     2
176
     1
 73
     0
176
     1
 90
        0
176
     1
 40
-0.6
176
     1
 41
-30.0
176
     1
 62
     5
 63
     7
421
 16777215
176
     1
 74
     2
176
     1
 91
        2
176
     1
 64
     7
176
     1
 65
   257
176
     1
 75
     1
176
     1
175
     1
176
     1
 42
40.0
176
     1
 92
        8
176
     1
 66
     7
176
     1
 43
1.0
176
     1
 76
     1
176
     1
 77
     6
176
     1
 78
     2
176
     1
 67
     7
176
     1
 79
     3
176
     1
170
     0
176
     1
171
     0
176
     1
290
     0
176
     1
 93
        1
176
     1
 44
0.0
176
     1
173
     0
176
     1
  0
VISUALSTYLE
  5
35
102
{ACAD_REACTORS
330
2A
102
}
330
2A
100
AcDbVisualStyle
  2
Dim
 70
    11
177
     2
291
     1
 71
     2
176
     1
 72
     2
176
     1
 73
     0
176
     1
 90
        0
176
     1
 40
-0.6
176
     1
 41
-30.0
176
     1
 62
     5
 63
     7
421
 16777215
176
     1
 74
     1
176
     1
 91
        4
176
     1
 64
     7
176
     1
 65
   257
176
     1
 75
     1
176
     1
175
     1
176
     1
 42
1.0
176
     1
 92
        8
176
     1
 66
     7
176
     1
 43
1.0
176
     1
 76
     1
176
     1
 77
     6
176
     1
 78
     2
176
     1
 67
     7
176
     1
 79
     5
176
     1
170
     0
176
     1
171
     0
176
     1
290
     0
176
     1
 93
        1
176
     1
 44
-50.0
176
     1
173
     0
176
     1
  0
VISUALSTYLE
  5
39
102
{ACAD_REACTORS
330
2A
102
}
330
2A
100
AcDbVisualStyle
  2
Facepattern
 70
    15
177
     2
291
     1
 71
     2
176
     1
 72
     2
176
     1
 73
     0
176
     1
 90
        0
176
     1
 40
-0.6
176
     1
 41
-30.0
176
     1
 62
     5
 63
     7
421
 16777215
176
     1
 74
     1
176
     1
 91
        4
176
     1
 64
     7
176
     1
 65
   257
176
     1
 75
     1
176
     1
175
     1
176
     1
 42
1.0
176
     1
 92
        8
176
     1
 66
     7
176
     1
 43
1.0
176
     1
 76
     1
176
     1
 77
     6
176
     1
 78
     2
176
     1
 67
     7
176
     1
 79
     5
176
     1
170
     0
176
     1
171
     0
176
     1
290
     0
176
     1
 93
        1
176
     1
 44
0.0
176
     1
173
     0
176
     1
  0
VISUALSTYLE
  5
2B
102
{ACAD_REACTORS
330
2A
102
}
330
2A
100
AcDbVisualStyle
  2
Flat
 70
     0
177
     2
291
     1
 71
     2
176
     1
 72
     1
176
     1
 73
     1
176
     1
 90
        2
176
     1
 40
-0.6
176
     1
 41
30.0
176
     1
 62
     5
 63
     7
421
 16777215
176
     1
 74
     0
176
     1
 91
        4
176
     1
 64
     7
176
     1
 65
   257
176
     1
 75
     1
176
     1
175
     1
176
     1
 42
1.0
176
     1
 92
        8
176
     1
 66
     7
176
     1
 43
1.0
176
     1
 76
     1
176
     1
 77
     6
176
     1
 78
     2
176
     1
 67
     7
176
     1
 79
     5
176
     1
170
     0
176
     1
171
     0
176
     1
290
     0
176
     1
 93
       13
176
     1
 44
0.0
176
     1
173
     0
176
     1
  0
VISUALSTYLE
  5
2C
102
{ACAD_REACTORS
330
2A
102
}
330
2A
100
AcDbVisualStyle
  2
FlatWithEdges
 70
     1
177
     2
291
     1
 71
     2
176
     1
 72
     1
176
     1
 73
     1
176
     1
 90
        2
176
     1
 40
-0.6
176
     1
 41
30.0
176
     1
 62
     5
 63
     7
421
 16777215
176
     1
 74
     1
176
     1
 91
        4
176
     1
 64
     7
176
     1
 65
   257
176
     1
 75
     1
176
     1
175
     1
176
     1
 42
1.0
176
     1
 92
        0
176
     1
 66
   257
176
     1
 43
1.0
176
     1
 76
     1
176
     1
 77
     6
176
     1
 78
     2
176
     1
 67
     7
176
     1
 79
     5
176
     1
170
     0
176
     1
171
     0
176
     1
290
     0
176
     1
 93
       13
176
     1
 44
0.0
176
     1
173
     0
176
     1
  0
VISUALSTYLE
  5
2D
102
{ACAD_REACTORS
330
2A
102
}
330
2A
100
AcDbVisualStyle
  2
Gouraud
 70
     2
177
     2
291
     1
 71
     2
176
     1
 72
     2
176
     1
 73
     1
176
     1
 90
        2
176
     1
 40
-0.6
176
     1
 41
30.0
176
     1
 62
     5
 63
     7
421
 16777215
176
     1
 74
     0
176
     1
 91
        4
176
     1
 64
     7
176
     1
 65
   257
176
     1
 75
     1
176
     1
175
     1
176
     1
 42
1.0
176
     1
 92
        0
176
     1
 66
     7
176
     1
 43
1.0
176
     1
 76
     1
176
     1
 77
     6
176
     1
 78
     2
176
     1
 67
     7
176
     1
 79
     5
176
     1
170
     0
176
     1
171
     0
176
     1
290
     0
176
     1
 93
       13
176
     1
 44
0.0
176
     1
173
     0
176
     1
  0
VISUALSTYLE
  5
2E
102
{ACAD_REACTORS
330
2A
102
}
330
2A
100
AcDbVisualStyle
  2
GouraudWithEdges
 70
     3
177
     2
291
     1
 71
     2
176
     1
 72
     2
176
     1
 73
     1
176
     1
 90
        2
176
     1
 40
-0.6
176
     1
 41
30.0
176
     1
 62
     5
 63
     7
421
 16777215
176
     1
 74
     1
176
     1
 91
        4
176
     1
 64
     7
176
     1
 65
   257
176
     1
 75
     1
176
     1
175
     1
176
     1
 42
1.0
176
     1
 92
        0
176
     1
 66
   257
176
     1
 43
1.0
176
     1
 76
     1
176
     1
 77
     6
176
     1
 78
     2
176
     1
 67
     7
176
     1
 79
     5
176
     1
170
     0
176
     1
171
     0
176
     1
290
     0
176
     1
 93
       13
176
     1
 44
0.0
176
     1
173
     0
176
     1
  0
VISUALSTYLE
  5
38
102
{ACAD_REACTORS
330
2A
102
}
330
2A
100
AcDbVisualStyle
  2
Linepattern
 70
    14
177
     2
291
     1
 71
     2
176
     1
 72
     2
176
     1
 73
     0
176
     1
 90
        0
176
     1
 40
-0.6
176
     1
 41
-30.0
176
     1
 62
     5
 63
     7
421
 16777215
176
     1
 74
     1
176
     1
 91
        4
176
     1
 64
     7
176
     1
 65
   257
176
     1
 75
     7
176
     1
175
     7
176
     1
 42
1.0
176
     1
 92
        8
176
     1
 66
     7
176
     1
 43
1.0
176
     1
 76
     1
176
     1
 77
     6
176
     1
 78
     2
176
     1
 67
     7
176
     1
 79
     5
176
     1
170
     0
176
     1
171
     0
176
     1
290
     0
176
     1
 93
        1
176
     1
 44
0.0
176
     1
173
     0
176
     1
  0
VISUALSTYLE
  5
33
102
{ACAD_REACTORS
330
2A
102
}
330
2A
100
AcDbVisualStyle
  2
Realistic
 70
     8
177
     2
291
     0
 71
     2
176
     1
 72
     2
176
     1
 73
     0
176
     1
 90
        0
176
     1
 40
-0.6
176
     1
 41
-30.0
176
     1
 62
     5
 63
     7
421
 16777215
176
     1
 74
     1
176
     1
 91
        0
176
     1
 64
     7
176
     1
 65
   257
176
     1
 75
     1
176
     1
175
     1
176
     1
 42
1.0
176
     1
 92
        8
176
     1
 66
     8
424
  7895160
176
     1
 43
1.0
176
     1
 76
     1
176
     1
 77
     6
176
     1
 78
     2
176
     1
 67
     7
176
     1
 79
     5
176
     1
170
     0
176
     1
171
     0
176
     1
290
     0
176
     1
 93
       13
176
     1
 44
0.0
176
     1
173
     0
176
     1
  0
VISUALSTYLE
  5
37
102
{ACAD_REACTORS
330
2A
102
}
330
2A
100
AcDbVisualStyle
  2
Thicken
 70
    13
177
     2
291
     1
 71
     2
176
     1
 72
     2
176
     1
 73
     0
176
     1
 90
        0
176
     1
 40
-0.6
176
     1
 41
-30.0
176
     1
 62
     5
 63
     7
421
 16777215
176
     1
 74
     1
176
     1
 91
        4
176
     1
 64
     7
176
     1
 65
   257
176
     1
 75
     1
176
     1
175
     1
176
     1
 42
1.0
176
     1
 92
       12
176
     1
 66
     7
176
     1
 43
1.0
176
     1
 76
     1
176
     1
 77
     6
176
     1
 78
     2
176
     1
 67
     7
176
     1
 79
     5
176
     1
170
     0
176
     1
171
     0
176
     1
290
     0
176
     1
 93
        1
176
     1
 44
0.0
176
     1
173
     0
176
     1
  0
ENDSEC
  0
EOF
