<?xml version="1.0" encoding="UTF-8" standalone="no"?>
<!-- Created with Inkscape (http://www.inkscape.org/) -->

<svg
   width="309.66629mm"
   height="123.7943mm"
   viewBox="0 0 309.66629 123.7943"
   version="1.1"
   id="svg25071"
   inkscape:version="1.3.2 (091e20e, 2023-11-25, custom)"
   sodipodi:docname="bottom.svg"
   xmlns:inkscape="http://www.inkscape.org/namespaces/inkscape"
   xmlns:sodipodi="http://sodipodi.sourceforge.net/DTD/sodipodi-0.dtd"
   xmlns="http://www.w3.org/2000/svg"
   xmlns:svg="http://www.w3.org/2000/svg">
  <sodipodi:namedview
     id="namedview25073"
     pagecolor="#505050"
     bordercolor="#eeeeee"
     borderopacity="1"
     inkscape:showpageshadow="0"
     inkscape:pageopacity="0"
     inkscape:pagecheckerboard="0"
     inkscape:deskcolor="#505050"
     inkscape:document-units="mm"
     showgrid="false"
     showguides="true"
     inkscape:zoom="0.5946522"
     inkscape:cx="359.87423"
     inkscape:cy="397.71147"
     inkscape:window-width="1920"
     inkscape:window-height="991"
     inkscape:window-x="-9"
     inkscape:window-y="-9"
     inkscape:window-maximized="1"
     inkscape:current-layer="g28932" />
  <defs
     id="defs25068" />
  <g
     inkscape:label="Katman 1"
     inkscape:groupmode="layer"
     id="layer1"
     transform="translate(-3.4200385,-4.4873928)">
    <g
       id="g28932">
      <path
         style="fill:none;stroke:#000000;stroke-width:0.2;stroke-linecap:round;stroke-dasharray:none"
         d="M 312.94012,62.513679 302.99443,7.0683907"
         id="path25" />
      <path
         d="M 302.99485,7.0683166 C 302.73831,5.6362647 301.48863,4.5946107 300.03321,4.5986747"
         style="fill:none;stroke:#000000;stroke-width:0.2;stroke-linecap:round;stroke-dasharray:none"
         id="path27" />
      <path
         style="fill:none;stroke:#000000;stroke-width:0.2;stroke-linecap:round;stroke-dasharray:none"
         d="M 300.03374,4.5987699 240.10533,4.7487887"
         id="path29" />
      <path
         d="m 240.10545,4.7487887 c -0.0815,0.00132 -0.16409,0.00839 -0.2441,0.022093"
         style="fill:none;stroke:#000000;stroke-width:0.2;stroke-linecap:round;stroke-dasharray:none"
         id="path31" />
      <path
         style="fill:none;stroke:#000000;stroke-width:0.2;stroke-linecap:round;stroke-dasharray:none"
         d="M 239.86138,4.7710137 222.00333,7.9968136"
         id="path33" />
      <path
         d="m 222.00337,7.9966866 c -0.3307,0.059436 -0.60883,0.281178 -0.74117,0.589788"
         style="fill:none;stroke:#000000;stroke-width:0.2;stroke-linecap:round;stroke-dasharray:none"
         id="path35" />
      <path
         style="fill:none;stroke:#000000;stroke-width:0.2;stroke-linecap:round;stroke-dasharray:none"
         d="M 221.26223,8.5865699 220.4407,10.499243"
         id="path37" />
      <path
         style="fill:none;stroke:#000000;stroke-width:0.2;stroke-linecap:round;stroke-dasharray:none"
         d="m 220.4407,10.499243 -32.99142,6.839214"
         id="path39" />
      <path
         d="m 187.44921,17.338552 c -0.60655,0.126746 -1.23774,-0.03581 -1.70891,-0.43942"
         style="fill:none;stroke:#000000;stroke-width:0.2;stroke-linecap:round;stroke-dasharray:none"
         id="path41" />
      <path
         style="fill:none;stroke:#000000;stroke-width:0.2;stroke-linecap:round;stroke-dasharray:none"
         d="M 185.74033,16.899249 179.1739,11.265741"
         id="path43" />
      <path
         d="m 179.17389,11.265667 c -0.54,-0.51562 -1.16586,-0.788162 -1.80517,-0.786892"
         style="fill:none;stroke:#000000;stroke-width:0.2;stroke-linecap:round;stroke-dasharray:none"
         id="path45" />
      <path
         style="fill:none;stroke:#000000;stroke-width:0.2;stroke-linecap:round;stroke-dasharray:none"
         d="m 177.36865,10.47887 -1.02632,0.0024"
         id="path47" />
      <path
         style="fill:none;stroke:#000000;stroke-width:0.2;stroke-linecap:round;stroke-dasharray:none"
         d="m 176.34233,10.481251 -18.0885,0.04418"
         id="path49" />
      <path
         style="fill:none;stroke:#000000;stroke-width:0.2;stroke-linecap:round;stroke-dasharray:none"
         d="m 158.25383,10.525436 v -0.01085"
         id="path51" />
      <path
         style="fill:none;stroke:#000000;stroke-width:0.2;stroke-linecap:round;stroke-dasharray:none"
         d="m 158.25383,10.514589 -18.0893,-0.04419"
         id="path53" />
      <path
         style="fill:none;stroke:#000000;stroke-width:0.2;stroke-linecap:round;stroke-dasharray:none"
         d="m 140.16453,10.470403 -1.02658,-0.0029"
         id="path55" />
      <path
         d="m 139.1379,10.467599 c -0.63957,-0.0016 -1.26644,0.271526 -1.80518,0.788416"
         style="fill:none;stroke:#000000;stroke-width:0.2;stroke-linecap:round;stroke-dasharray:none"
         id="path57" />
      <path
         style="fill:none;stroke:#000000;stroke-width:0.2;stroke-linecap:round;stroke-dasharray:none"
         d="m 137.33269,11.255951 -6.56801,5.632185"
         id="path59" />
      <path
         d="m 130.76479,16.88821 c -0.4699,0.403606 -1.10109,0.566166 -1.70739,0.440944"
         style="fill:none;stroke:#000000;stroke-width:0.2;stroke-linecap:round;stroke-dasharray:none"
         id="path61" />
      <path
         style="fill:none;stroke:#000000;stroke-width:0.2;stroke-linecap:round;stroke-dasharray:none"
         d="M 129.05732,17.329197 96.064572,10.488395"
         id="path63" />
      <path
         style="fill:none;stroke:#000000;stroke-width:0.2;stroke-linecap:round;stroke-dasharray:none"
         d="M 96.064572,10.488395 95.243041,8.5754574"
         id="path65" />
      <path
         d="m 95.243147,8.5755526 c -0.132334,-0.30861 -0.410464,-0.530606 -0.740156,-0.589788"
         style="fill:none;stroke:#000000;stroke-width:0.2;stroke-linecap:round;stroke-dasharray:none"
         id="path67" />
      <path
         style="fill:none;stroke:#000000;stroke-width:0.2;stroke-linecap:round;stroke-dasharray:none"
         d="M 94.503002,7.9857011 76.643627,4.7614887"
         id="path69" />
      <path
         d="m 76.643743,4.7614887 c -0.07976,-0.01524 -0.16129,-0.022357 -0.242316,-0.023627"
         style="fill:none;stroke:#000000;stroke-width:0.2;stroke-linecap:round;stroke-dasharray:none"
         id="path71" />
      <path
         style="fill:none;stroke:#000000;stroke-width:0.2;stroke-linecap:round;stroke-dasharray:none"
         d="M 76.401533,4.7379408 16.471742,4.5873928"
         id="path73" />
      <path
         d="m 16.471753,4.5874987 c -1.455217,-0.00381 -2.702306,1.037844 -2.960014,2.4709119"
         style="fill:none;stroke:#000000;stroke-width:0.2;stroke-linecap:round;stroke-dasharray:none"
         id="path75" />
      <path
         style="fill:none;stroke:#000000;stroke-width:0.2;stroke-linecap:round;stroke-dasharray:none"
         d="M 13.511742,7.0583366 3.5678173,62.502302"
         id="path77" />
      <path
         d="m 3.5678173,62.502291 c -0.293523,1.631696 0.79375,3.19151 2.425346,3.48234"
         style="fill:none;stroke:#000000;stroke-width:0.2;stroke-linecap:round;stroke-dasharray:none"
         id="path79" />
      <path
         style="fill:none;stroke:#000000;stroke-width:0.2;stroke-linecap:round;stroke-dasharray:none"
         d="m 5.9931653,65.984748 38.9076057,7.239"
         id="path81" />
      <path
         d="m 44.900856,73.223631 c 0.252222,0.04547 0.509778,0.04115 0.759206,-0.0097"
         style="fill:none;stroke:#000000;stroke-width:0.2;stroke-linecap:round;stroke-dasharray:none"
         id="path83" />
      <path
         style="fill:none;stroke:#000000;stroke-width:0.2;stroke-linecap:round;stroke-dasharray:none"
         d="m 45.660125,73.213958 8.466402,-1.763712"
         id="path85" />
      <path
         d="m 54.126644,71.450203 c 0.250698,-0.05258 0.511048,-0.0569 0.764794,-0.0099"
         style="fill:none;stroke:#000000;stroke-width:0.2;stroke-linecap:round;stroke-dasharray:none"
         id="path87" />
      <path
         style="fill:none;stroke:#000000;stroke-width:0.2;stroke-linecap:round;stroke-dasharray:none"
         d="m 54.891438,71.440191 9.939866,3.021013"
         id="path89" />
      <path
         d="m 64.831219,74.461119 c 0.476758,0.08687 0.822706,0.503174 0.822706,0.98679"
         style="fill:none;stroke:#000000;stroke-width:0.2;stroke-linecap:round;stroke-dasharray:none"
         id="path91" />
      <path
         style="fill:none;stroke:#000000;stroke-width:0.2;stroke-linecap:round;stroke-dasharray:none"
         d="M 65.653894,75.447835 62.261142,92.600243"
         id="path93" />
      <path
         d="m 62.261247,92.600275 c -0.101854,0.513842 0.21209,1.019556 0.718058,1.157478"
         style="fill:none;stroke:#000000;stroke-width:0.2;stroke-linecap:round;stroke-dasharray:none"
         id="path95" />
      <path
         style="fill:none;stroke:#000000;stroke-width:0.2;stroke-linecap:round;stroke-dasharray:none"
         d="m 62.979221,93.757795 35.22001,10.957985"
         id="path97" />
      <path
         d="m 98.199199,104.7145 c 0.350012,0.0951 0.621538,0.37483 0.706882,0.72761"
         style="fill:none;stroke:#000000;stroke-width:0.2;stroke-linecap:round;stroke-dasharray:none"
         id="path99" />
      <path
         style="fill:none;stroke:#000000;stroke-width:0.2;stroke-linecap:round;stroke-dasharray:none"
         d="m 98.906197,105.44338 3.545683,8.18356"
         id="path101" />
      <path
         d="m 102.45192,113.62627 c 0.0602,0.2494 0.21489,0.46576 0.42977,0.60356"
         style="fill:none;stroke:#000000;stroke-width:0.2;stroke-linecap:round;stroke-dasharray:none"
         id="path103" />
      <path
         style="fill:none;stroke:#000000;stroke-width:0.2;stroke-linecap:round;stroke-dasharray:none"
         d="m 102.88156,114.2302 23.53707,13.07041"
         id="path105" />
      <path
         d="m 126.4186,127.30191 c 0.80315,0.51952 1.74066,0.7965 2.69799,0.79788"
         style="fill:none;stroke:#000000;stroke-width:0.2;stroke-linecap:round;stroke-dasharray:none"
         id="path107" />
      <path
         style="fill:none;stroke:#000000;stroke-width:0.2;stroke-linecap:round;stroke-dasharray:none"
         d="m 129.11659,128.09965 1.53828,0.005"
         id="path109" />
      <path
         style="fill:none;stroke:#000000;stroke-width:0.2;stroke-linecap:round;stroke-dasharray:none"
         d="m 130.65487,128.10495 27.59764,0.0661"
         id="path111" />
      <path
         style="fill:none;stroke:#000000;stroke-width:0.2;stroke-linecap:round;stroke-dasharray:none"
         d="m 158.25251,128.17109 v 0.0106"
         id="path113" />
      <path
         style="fill:none;stroke:#000000;stroke-width:0.2;stroke-linecap:round;stroke-dasharray:none"
         d="m 158.25251,128.18168 27.59948,-0.0662"
         id="path115" />
      <path
         style="fill:none;stroke:#000000;stroke-width:0.2;stroke-linecap:round;stroke-dasharray:none"
         d="m 185.85199,128.11553 1.53776,-0.005"
         id="path117" />
      <path
         d="m 187.38978,128.11081 c 0.95656,-0.003 1.89331,-0.27973 2.69799,-0.79788"
         style="fill:none;stroke:#000000;stroke-width:0.2;stroke-linecap:round;stroke-dasharray:none"
         id="path119" />
      <path
         style="fill:none;stroke:#000000;stroke-width:0.2;stroke-linecap:round;stroke-dasharray:none"
         d="m 190.0877,127.31384 23.53734,-13.07306"
         id="path121" />
      <path
         d="m 213.62493,114.24087 c 0.21514,-0.13922 0.36779,-0.35552 0.4285,-0.6036"
         style="fill:none;stroke:#000000;stroke-width:0.2;stroke-linecap:round;stroke-dasharray:none"
         id="path123" />
      <path
         style="fill:none;stroke:#000000;stroke-width:0.2;stroke-linecap:round;stroke-dasharray:none"
         d="m 214.0534,113.63753 3.54594,-8.18356"
         id="path125" />
      <path
         d="m 217.59927,105.45311 c 0.0853,-0.35278 0.35687,-0.63254 0.7084,-0.72898"
         style="fill:none;stroke:#000000;stroke-width:0.2;stroke-linecap:round;stroke-dasharray:none"
         id="path127" />
      <path
         style="fill:none;stroke:#000000;stroke-width:0.2;stroke-linecap:round;stroke-dasharray:none"
         d="M 218.30763,104.72372 253.52764,93.768643"
         id="path129" />
      <path
         d="m 253.52757,93.768675 c 0.50546,-0.137668 0.81838,-0.643382 0.71653,-1.159002"
         style="fill:none;stroke:#000000;stroke-width:0.2;stroke-linecap:round;stroke-dasharray:none"
         id="path131" />
      <path
         style="fill:none;stroke:#000000;stroke-width:0.2;stroke-linecap:round;stroke-dasharray:none"
         d="M 254.24413,92.609768 250.8527,75.458948"
         id="path133" />
      <path
         d="m 250.85269,75.458831 c -0.001,-0.48514 0.34443,-0.899922 0.82144,-0.98679"
         style="fill:none;stroke:#000000;stroke-width:0.2;stroke-linecap:round;stroke-dasharray:none"
         id="path135" />
      <path
         style="fill:none;stroke:#000000;stroke-width:0.2;stroke-linecap:round;stroke-dasharray:none"
         d="m 251.67423,74.472052 9.94146,-3.021806"
         id="path137" />
      <path
         d="m 261.61569,71.450203 c 0.254,-0.04547 0.51308,-0.04166 0.76454,0.0094"
         style="fill:none;stroke:#000000;stroke-width:0.2;stroke-linecap:round;stroke-dasharray:none"
         id="path139" />
      <path
         style="fill:none;stroke:#000000;stroke-width:0.2;stroke-linecap:round;stroke-dasharray:none"
         d="m 262.38033,71.459506 8.46458,1.764242"
         id="path141" />
      <path
         d="m 270.84607,73.223631 c 0.24892,0.05207 0.508,0.05639 0.75946,0.01093"
         style="fill:none;stroke:#000000;stroke-width:0.2;stroke-linecap:round;stroke-dasharray:none"
         id="path143" />
      <path
         style="fill:none;stroke:#000000;stroke-width:0.2;stroke-linecap:round;stroke-dasharray:none"
         d="M 271.60426,73.234596 310.51389,65.99586"
         id="path145" />
      <path
         d="m 310.51325,65.995807 c 1.63068,-0.291084 2.7178,-1.850644 2.4257,-3.482086"
         style="fill:none;stroke:#000000;stroke-width:0.2;stroke-linecap:round;stroke-dasharray:none"
         id="path147" />
      <path
         style="fill:none;stroke:#000000;stroke-width:0.2;stroke-linecap:round;stroke-dasharray:none"
         d="m 312.94012,62.513679 v 0"
         id="path149" />
      <path
         d="m 126.78822,116.23989 c -10e-4,0.60749 -0.4953,1.09891 -1.10279,1.0975 -0.60748,-0.002 -1.09855,-0.49566 -1.09714,-1.10314 0.001,-0.60713 0.49495,-1.09855 1.10279,-1.09714 0.60713,10e-4 1.09855,0.49495 1.09714,1.10278 z"
         style="fill:none;stroke:#010101;stroke-width:0.2;stroke-linecap:butt;stroke-linejoin:miter;stroke-miterlimit:10;stroke-dasharray:none;stroke-opacity:1"
         id="path63698-5-60" />
      <path
         d="m 191.43122,116.28224 c -0.001,0.60748 -0.4953,1.0989 -1.10278,1.09749 -0.60748,-0.002 -1.09855,-0.49565 -1.09714,-1.10314 0.001,-0.60713 0.49495,-1.09855 1.10278,-1.09714 0.60713,10e-4 1.09855,0.49495 1.09714,1.10279 z"
         style="fill:none;stroke:#010101;stroke-width:0.2;stroke-linecap:butt;stroke-linejoin:miter;stroke-miterlimit:10;stroke-dasharray:none;stroke-opacity:1"
         id="path63698-5-8" />
      <path
         d="m 219.15952,75.472907 c -10e-4,0.607483 -0.4953,1.098902 -1.10278,1.097492 -0.60748,-0.0019 -1.09855,-0.495652 -1.09714,-1.103135 0.001,-0.607132 0.49495,-1.09855 1.10278,-1.09714 0.60713,0.0013 1.09855,0.494948 1.09714,1.102783 z"
         style="fill:none;stroke:#010101;stroke-width:0.2;stroke-linecap:butt;stroke-linejoin:miter;stroke-miterlimit:10;stroke-dasharray:none;stroke-opacity:1"
         id="path63698-5-1" />
      <path
         d="m 269.15523,64.84723 c 0,0.607483 -0.4953,1.098902 -1.10279,1.097492 -0.60748,-0.0019 -1.09855,-0.495652 -1.09714,-1.103136 0,-0.607131 0.49495,-1.09855 1.10278,-1.097139 0.60714,0.0013 1.09855,0.494948 1.09715,1.102783 z"
         style="fill:none;stroke:#010101;stroke-width:0.2;stroke-linecap:butt;stroke-linejoin:miter;stroke-miterlimit:10;stroke-dasharray:none;stroke-opacity:1"
         id="path63698-5-2" />
      <path
         d="m 263.05922,13.28523 c 0,0.607484 -0.4953,1.098902 -1.10278,1.097492 -0.60749,-0.0019 -1.09855,-0.495652 -1.09715,-1.103135 0,-0.607132 0.49495,-1.09855 1.10278,-1.09714 0.60714,0.0013 1.09855,0.494948 1.09715,1.102783 z"
         style="fill:none;stroke:#010101;stroke-width:0.2;stroke-linecap:butt;stroke-linejoin:miter;stroke-miterlimit:10;stroke-dasharray:none;stroke-opacity:1"
         id="path63698-5-2-7" />
      <path
         d="m 174.54021,29.6259 c -0.001,0.607483 -0.4953,1.098902 -1.10278,1.097491 -0.60748,-0.0019 -1.09855,-0.495652 -1.09714,-1.103135 10e-4,-0.607131 0.49495,-1.09855 1.10278,-1.09714 0.60714,0.0013 1.09855,0.494949 1.09714,1.102784 z"
         style="fill:none;stroke:#010101;stroke-width:0.2;stroke-linecap:butt;stroke-linejoin:miter;stroke-miterlimit:10;stroke-dasharray:none;stroke-opacity:1"
         id="path63698-56" />
      <path
         d="m 145.58421,29.6259 c -0.001,0.607483 -0.4953,1.098902 -1.10278,1.097491 -0.60749,-0.0019 -1.09855,-0.495652 -1.09714,-1.103135 0.001,-0.607131 0.49495,-1.09855 1.10278,-1.09714 0.60713,0.0013 1.09855,0.494949 1.09714,1.102784 z"
         style="fill:none;stroke:#010101;stroke-width:0.2;stroke-linecap:butt;stroke-linejoin:miter;stroke-miterlimit:10;stroke-dasharray:none;stroke-opacity:1"
         id="path63698-2" />
      <path
         d="m 49.148884,64.84723 c -0.0013,0.607483 -0.4953,1.098902 -1.102783,1.097492 -0.607484,-0.0019 -1.09855,-0.495652 -1.09714,-1.103136 0.0013,-0.607131 0.494948,-1.09855 1.102783,-1.097139 0.607132,0.0013 1.09855,0.494948 1.09714,1.102783 z"
         style="fill:none;stroke:#010101;stroke-width:0.2;stroke-linecap:butt;stroke-linejoin:miter;stroke-miterlimit:10;stroke-dasharray:none;stroke-opacity:1"
         id="path63698-5" />
      <path
         d="m 55.795215,13.28523 c -0.0013,0.607484 -0.4953,1.098902 -1.102784,1.097492 -0.607483,-0.0019 -1.09855,-0.495652 -1.097139,-1.103135 0.0013,-0.607132 0.494948,-1.09855 1.102783,-1.09714 0.607131,0.0013 1.09855,0.494948 1.09714,1.102783 z"
         style="fill:none;stroke:#010101;stroke-width:0.2;stroke-linecap:butt;stroke-linejoin:miter;stroke-miterlimit:10;stroke-dasharray:none;stroke-opacity:1"
         id="path63698-5-6" />
      <path
         d="m 99.229209,75.472907 c -0.0013,0.607483 -0.4953,1.098902 -1.102784,1.097492 -0.607483,-0.0019 -1.09855,-0.495652 -1.09714,-1.103135 0.0013,-0.607132 0.494949,-1.09855 1.102784,-1.09714 0.607131,0.0013 1.09855,0.494948 1.09714,1.102783 z"
         style="fill:none;stroke:#010101;stroke-width:0.2;stroke-linecap:butt;stroke-linejoin:miter;stroke-miterlimit:10;stroke-dasharray:none;stroke-opacity:1"
         id="path63698-0" />
      <path
         id="rect32711"
         style="fill:none;stroke:#000000;stroke-width:0.2;stop-color:#000000;stroke-dasharray:none"
         d="m 154.81206,48.697006 h 8.78397 c 1.07813,0 1.94608,0.867952 1.94608,1.946081 v 7.504725 c 0,1.078128 -0.86795,1.94608 -1.94608,1.94608 h -8.78397 c -1.07813,0 -1.94608,-0.867952 -1.94608,-1.94608 v -7.504725 c 0,-1.078129 0.86795,-1.946081 1.94608,-1.946081 z" />
    </g>
  </g>
</svg>
