999
"DXF R12 Output" (www.mydxf.blogspot.com)
 0 
SECTION
 2 
HEADER
 9 
$ACADVER
 1 
AC1009
 9 
$EXTMIN
 10 
 0 
 20 
 0 
 9 
$EXTMAX
 10 
 8.5 
 20 
 11 
 0 
ENDSEC
 0 
SECTION
 2 
ENTITIES
0
LINE
8
Layer 1
10
0.793749
20
124.656749
11
-0.793749
21
123.069251
0
LINE
8
Layer 1
10
0.000000
20
125.185915
11
0.000000
21
122.540085
0
LINE
8
Layer 1
10
2.116664
20
122.804668
11
1.058332
21
121.746336
0
LINE
8
Layer 1
10
1.587498
20
123.333834
11
0.529166
21
122.275502
0
LINE
8
Layer 1
10
1.058332
20
123.863000
11
0.000000
21
122.804668
0
LINE
8
0
10
98.064268
20
52.788725
11
97.804976
21
51.529310
0
LINE
8
0
10
97.804976
20
51.529310
11
97.101183
21
50.492144
0
LINE
8
0
10
97.101183
20
50.492144
11
96.064015
21
49.788354
0
LINE
8
0
10
96.064015
20
49.788354
11
94.804597
21
49.529062
0
LINE
8
0
10
94.804597
20
49.529062
11
93.520709
21
49.788354
0
LINE
8
0
10
93.520709
20
49.788354
11
92.470978
21
50.492144
0
LINE
8
0
10
92.470978
20
50.492144
11
91.762559
21
51.529310
0
LINE
8
0
10
91.762559
20
51.529310
11
91.502607
21
52.788725
0
LINE
8
0
10
91.502607
20
52.788725
11
91.762559
21
54.072614
0
LINE
8
0
10
91.762559
20
54.072614
11
92.470978
21
55.122347
0
LINE
8
0
10
92.470978
20
55.122347
11
93.520709
21
55.830768
0
LINE
8
0
10
93.520709
20
55.830768
11
94.804597
21
56.090721
0
LINE
8
0
10
94.804597
20
56.090721
11
96.064015
21
55.830768
0
LINE
8
0
10
96.064015
20
55.830768
11
97.101183
21
55.122347
0
LINE
8
0
10
97.101183
20
55.122347
11
97.804976
21
54.072614
0
LINE
8
0
10
97.804976
20
54.072614
11
98.064268
21
52.788725
0
LINE
8
0
10
98.064268
20
52.788725
11
98.064268
21
52.788725
0
LINE
8
0
10
173.375197
20
98.635694
11
173.115901
21
97.376263
0
LINE
8
0
10
173.115901
20
97.376263
11
172.412101
21
96.339090
0
LINE
8
0
10
172.412101
20
96.339090
11
171.374927
21
95.635296
0
LINE
8
0
10
171.374927
20
95.635296
11
170.115508
21
95.376005
0
LINE
8
0
10
170.115508
20
95.376005
11
168.831619
21
95.635296
0
LINE
8
0
10
168.831619
20
95.635296
11
167.781886
21
96.339090
0
LINE
8
0
10
167.781886
20
96.339090
11
167.073465
21
97.376263
0
LINE
8
0
10
167.073465
20
97.376263
11
166.813512
21
98.635694
0
LINE
8
0
10
166.813512
20
98.635694
11
167.073465
21
99.919571
0
LINE
8
0
10
167.073465
20
99.919571
11
167.781886
21
100.969306
0
LINE
8
0
10
167.781886
20
100.969306
11
168.831619
21
101.677733
0
LINE
8
0
10
168.831619
20
101.677733
11
170.115508
21
101.937689
0
LINE
8
0
10
170.115508
20
101.937689
11
171.374927
21
101.677733
0
LINE
8
0
10
171.374927
20
101.677733
11
172.412101
21
100.969306
0
LINE
8
0
10
172.412101
20
100.969306
11
173.115901
21
99.919571
0
LINE
8
0
10
173.115901
20
99.919571
11
173.375197
21
98.635694
0
LINE
8
0
10
173.375197
20
98.635694
11
173.375197
21
98.635694
0
LINE
8
0
10
144.419207
20
98.635694
11
144.159915
21
97.376263
0
LINE
8
0
10
144.159915
20
97.376263
11
143.456125
21
96.339090
0
LINE
8
0
10
143.456125
20
96.339090
11
142.418959
21
95.635296
0
LINE
8
0
10
142.418959
20
95.635296
11
141.159544
21
95.376005
0
LINE
8
0
10
141.159544
20
95.376005
11
139.875655
21
95.635296
0
LINE
8
0
10
139.875655
20
95.635296
11
138.825922
21
96.339090
0
LINE
8
0
10
138.825922
20
96.339090
11
138.117501
21
97.376263
0
LINE
8
0
10
138.117501
20
97.376263
11
137.857548
21
98.635694
0
LINE
8
0
10
137.857548
20
98.635694
11
138.117501
21
99.919571
0
LINE
8
0
10
138.117501
20
99.919571
11
138.825922
21
100.969306
0
LINE
8
0
10
138.825922
20
100.969306
11
139.875655
21
101.677733
0
LINE
8
0
10
139.875655
20
101.677733
11
141.159544
21
101.937689
0
LINE
8
0
10
141.159544
20
101.937689
11
142.418959
21
101.677733
0
LINE
8
0
10
142.418959
20
101.677733
11
143.456125
21
100.969306
0
LINE
8
0
10
143.456125
20
100.969306
11
144.159915
21
99.919571
0
LINE
8
0
10
144.159915
20
99.919571
11
144.419207
21
98.635694
0
LINE
8
0
10
144.419207
20
98.635694
11
144.419207
21
98.635694
0
LINE
8
0
10
190.266175
20
11.979469
11
190.006884
21
10.720039
0
LINE
8
0
10
190.006884
20
10.720039
11
189.303090
21
9.682866
0
LINE
8
0
10
189.303090
20
9.682866
11
188.265917
21
8.979072
0
LINE
8
0
10
188.265917
20
8.979072
11
187.006486
21
8.719780
0
LINE
8
0
10
187.006486
20
8.719780
11
185.722597
21
8.979072
0
LINE
8
0
10
185.722597
20
8.979072
11
184.672864
21
9.682866
0
LINE
8
0
10
184.672864
20
9.682866
11
183.964443
21
10.720039
0
LINE
8
0
10
183.964443
20
10.720039
11
183.704491
21
11.979469
0
LINE
8
0
10
183.704491
20
11.979469
11
183.964443
21
13.263343
0
LINE
8
0
10
183.964443
20
13.263343
11
184.672864
21
14.313068
0
LINE
8
0
10
184.672864
20
14.313068
11
185.722597
21
15.021486
0
LINE
8
0
10
185.722597
20
15.021486
11
187.006486
21
15.281439
0
LINE
8
0
10
187.006486
20
15.281439
11
188.265917
21
15.021486
0
LINE
8
0
10
188.265917
20
15.021486
11
189.303090
21
14.313068
0
LINE
8
0
10
189.303090
20
14.313068
11
190.006884
21
13.263343
0
LINE
8
0
10
190.006884
20
13.263343
11
190.266175
21
11.979469
0
LINE
8
0
10
190.266175
20
11.979469
11
190.266175
21
11.979469
0
LINE
8
0
10
47.984011
20
63.414378
11
47.724719
21
62.154963
0
LINE
8
0
10
47.724719
20
62.154963
11
47.020926
21
61.117798
0
LINE
8
0
10
47.020926
20
61.117798
11
45.983758
21
60.414007
0
LINE
8
0
10
45.983758
20
60.414007
11
44.724340
21
60.154716
0
LINE
8
0
10
44.724340
20
60.154716
11
43.440452
21
60.414007
0
LINE
8
0
10
43.440452
20
60.414007
11
42.390721
21
61.117798
0
LINE
8
0
10
42.390721
20
61.117798
11
41.682302
21
62.154963
0
LINE
8
0
10
41.682302
20
62.154963
11
41.422350
21
63.414378
0
LINE
8
0
10
41.422350
20
63.414378
11
41.682302
21
64.698267
0
LINE
8
0
10
41.682302
20
64.698267
11
42.390721
21
65.748000
0
LINE
8
0
10
42.390721
20
65.748000
11
43.440452
21
66.456421
0
LINE
8
0
10
43.440452
20
66.456421
11
44.724340
21
66.716374
0
LINE
8
0
10
44.724340
20
66.716374
11
45.983758
21
66.456421
0
LINE
8
0
10
45.983758
20
66.456421
11
47.020926
21
65.748000
0
LINE
8
0
10
47.020926
20
65.748000
11
47.724719
21
64.698267
0
LINE
8
0
10
47.724719
20
64.698267
11
47.984011
21
63.414378
0
LINE
8
0
10
47.984011
20
63.414378
11
47.984011
21
63.414378
0
LINE
8
0
10
217.994447
20
52.788725
11
217.735156
21
51.529310
0
LINE
8
0
10
217.735156
20
51.529310
11
217.031365
21
50.492144
0
LINE
8
0
10
217.031365
20
50.492144
11
215.994200
21
49.788354
0
LINE
8
0
10
215.994200
20
49.788354
11
214.734785
21
49.529062
0
LINE
8
0
10
214.734785
20
49.529062
11
213.450896
21
49.788354
0
LINE
8
0
10
213.450896
20
49.788354
11
212.401163
21
50.492144
0
LINE
8
0
10
212.401163
20
50.492144
11
211.692742
21
51.529310
0
LINE
8
0
10
211.692742
20
51.529310
11
211.432789
21
52.788725
0
LINE
8
0
10
211.432789
20
52.788725
11
211.692742
21
54.072614
0
LINE
8
0
10
211.692742
20
54.072614
11
212.401163
21
55.122347
0
LINE
8
0
10
212.401163
20
55.122347
11
213.450896
21
55.830768
0
LINE
8
0
10
213.450896
20
55.830768
11
214.734785
21
56.090721
0
LINE
8
0
10
214.734785
20
56.090721
11
215.994200
21
55.830768
0
LINE
8
0
10
215.994200
20
55.830768
11
217.031365
21
55.122347
0
LINE
8
0
10
217.031365
20
55.122347
11
217.735156
21
54.072614
0
LINE
8
0
10
217.735156
20
54.072614
11
217.994447
21
52.788725
0
LINE
8
0
10
217.994447
20
52.788725
11
217.994447
21
52.788725
0
LINE
8
0
10
261.894059
20
114.976340
11
261.634767
21
113.716909
0
LINE
8
0
10
261.634767
20
113.716909
11
260.930977
21
112.679736
0
LINE
8
0
10
260.930977
20
112.679736
11
259.893811
21
111.975942
0
LINE
8
0
10
259.893811
20
111.975942
11
258.634396
21
111.716651
0
LINE
8
0
10
258.634396
20
111.716651
11
257.350507
21
111.975942
0
LINE
8
0
10
257.350507
20
111.975942
11
256.300774
21
112.679736
0
LINE
8
0
10
256.300774
20
112.679736
11
255.592353
21
113.716909
0
LINE
8
0
10
255.592353
20
113.716909
11
255.332400
21
114.976340
0
LINE
8
0
10
255.332400
20
114.976340
11
255.592353
21
116.260229
0
LINE
8
0
10
255.592353
20
116.260229
11
256.300774
21
117.309962
0
LINE
8
0
10
256.300774
20
117.309962
11
257.350507
21
118.018383
0
LINE
8
0
10
257.350507
20
118.018383
11
258.634396
21
118.278336
0
LINE
8
0
10
258.634396
20
118.278336
11
259.893811
21
118.018383
0
LINE
8
0
10
259.893811
20
118.018383
11
260.930977
21
117.309962
0
LINE
8
0
10
260.930977
20
117.309962
11
261.634767
21
116.260229
0
LINE
8
0
10
261.634767
20
116.260229
11
261.894059
21
114.976340
0
LINE
8
0
10
261.894059
20
114.976340
11
261.894059
21
114.976340
0
LINE
8
0
10
309.561332
20
65.785068
11
309.561332
21
65.785068
0
LINE
8
0
10
297.649885
20
91.862263
11
297.504509
21
91.144188
0
LINE
8
0
10
297.504509
20
91.144188
11
297.108307
21
90.557164
0
LINE
8
0
10
297.108307
20
90.557164
11
296.521163
21
90.161052
0
LINE
8
0
10
296.521163
20
90.161052
11
295.802963
21
90.015712
0
LINE
8
0
10
295.802963
20
90.015712
11
295.061043
21
90.158630
0
LINE
8
0
10
295.061043
20
90.158630
11
294.461362
21
90.550705
0
LINE
8
0
10
294.461362
20
90.550705
11
294.060248
21
91.136922
0
LINE
8
0
10
294.060248
20
91.136922
11
293.914026
21
91.862263
0
LINE
8
0
10
293.914026
20
91.862263
11
294.060248
21
92.604266
0
LINE
8
0
10
294.060248
20
92.604266
11
294.461362
21
93.203947
0
LINE
8
0
10
294.461362
20
93.203947
11
295.061043
21
93.605027
0
LINE
8
0
10
295.061043
20
93.605027
11
295.802963
21
93.751227
0
LINE
8
0
10
295.802963
20
93.751227
11
296.528440
21
93.605027
0
LINE
8
0
10
296.528440
20
93.605027
11
297.114776
21
93.203947
0
LINE
8
0
10
297.114776
20
93.203947
11
297.506935
21
92.604266
0
LINE
8
0
10
297.506935
20
92.604266
11
297.649885
21
91.862263
0
LINE
8
0
10
297.649885
20
91.862263
11
297.649885
21
91.862263
0
LINE
8
0
10
292.416433
20
94.333786
11
291.583052
21
94.499107
0
LINE
8
0
10
291.583052
20
94.499107
11
290.901725
21
94.949682
0
LINE
8
0
10
290.901725
20
94.949682
11
290.441959
21
95.617427
0
LINE
8
0
10
290.441959
20
95.617427
11
290.273258
21
96.434257
0
LINE
8
0
10
290.273258
20
96.434257
11
290.441959
21
97.267614
0
LINE
8
0
10
290.441959
20
97.267614
11
290.901725
21
97.948886
0
LINE
8
0
10
290.901725
20
97.948886
11
291.583052
21
98.408597
0
LINE
8
0
10
291.583052
20
98.408597
11
292.416433
21
98.577274
0
LINE
8
0
10
292.416433
20
98.577274
11
293.233317
21
98.408597
0
LINE
8
0
10
293.233317
20
98.408597
11
293.901180
21
97.948886
0
LINE
8
0
10
293.901180
20
97.948886
11
294.351873
21
97.267614
0
LINE
8
0
10
294.351873
20
97.267614
11
294.517248
21
96.434257
0
LINE
8
0
10
294.517248
20
96.434257
11
294.349113
21
95.625709
0
LINE
8
0
10
294.349113
20
95.625709
11
293.893818
21
94.957044
0
LINE
8
0
10
293.893818
20
94.957044
11
293.225035
21
94.501868
0
LINE
8
0
10
293.225035
20
94.501868
11
292.416433
21
94.333786
0
LINE
8
0
10
292.416433
20
94.333786
11
292.416433
21
94.333786
0
LINE
8
0
10
294.347757
20
110.615959
11
294.202385
21
109.897884
0
LINE
8
0
10
294.202385
20
109.897884
11
293.806188
21
109.310860
0
LINE
8
0
10
293.806188
20
109.310860
11
293.219046
21
108.914748
0
LINE
8
0
10
293.219046
20
108.914748
11
292.500835
21
108.769408
0
LINE
8
0
10
292.500835
20
108.769408
11
291.758914
21
108.912326
0
LINE
8
0
10
291.758914
20
108.912326
11
291.159234
21
109.304401
0
LINE
8
0
10
291.159234
20
109.304401
11
290.758119
21
109.890618
0
LINE
8
0
10
290.758119
20
109.890618
11
290.611898
21
110.615959
0
LINE
8
0
10
290.611898
20
110.615959
11
290.758119
21
111.357962
0
LINE
8
0
10
290.758119
20
111.357962
11
291.159234
21
111.957643
0
LINE
8
0
10
291.159234
20
111.957643
11
291.758914
21
112.358723
0
LINE
8
0
10
291.758914
20
112.358723
11
292.500835
21
112.504923
0
LINE
8
0
10
292.500835
20
112.504923
11
293.226312
21
112.358723
0
LINE
8
0
10
293.226312
20
112.358723
11
293.812647
21
111.957643
0
LINE
8
0
10
293.812647
20
111.957643
11
294.204807
21
111.357962
0
LINE
8
0
10
294.204807
20
111.357962
11
294.347757
21
110.615959
0
LINE
8
0
10
294.347757
20
110.615959
11
294.347757
21
110.615959
0
LINE
8
0
10
289.114305
20
117.330970
11
289.931189
21
117.162293
0
LINE
8
0
10
289.931189
20
117.162293
11
290.599052
21
116.702582
0
LINE
8
0
10
290.599052
20
116.702582
11
291.049745
21
116.021310
0
LINE
8
0
10
291.049745
20
116.021310
11
291.215120
21
115.187953
0
LINE
8
0
10
291.215120
20
115.187953
11
291.046984
21
114.379309
0
LINE
8
0
10
291.046984
20
114.379309
11
290.591690
21
113.710588
0
LINE
8
0
10
290.591690
20
113.710588
11
289.922907
21
113.255385
0
LINE
8
0
10
289.922907
20
113.255385
11
289.114305
21
113.087296
0
LINE
8
0
10
289.114305
20
113.087296
11
288.280923
21
113.252621
0
LINE
8
0
10
288.280923
20
113.252621
11
287.599597
21
113.703216
0
LINE
8
0
10
287.599597
20
113.703216
11
287.139831
21
114.371016
0
LINE
8
0
10
287.139831
20
114.371016
11
286.971130
21
115.187953
0
LINE
8
0
10
286.971130
20
115.187953
11
287.139831
21
116.021310
0
LINE
8
0
10
287.139831
20
116.021310
11
287.599597
21
116.702582
0
LINE
8
0
10
287.599597
20
116.702582
11
288.280923
21
117.162293
0
LINE
8
0
10
288.280923
20
117.162293
11
289.114305
21
117.330970
0
LINE
8
0
10
289.114305
20
117.330970
11
289.114305
21
117.330970
0
LINE
8
0
10
250.294687
20
117.754197
11
251.111571
21
117.585549
0
LINE
8
0
10
251.111571
20
117.585549
11
251.779434
21
117.125901
0
LINE
8
0
10
251.779434
20
117.125901
11
252.230127
21
116.444693
0
LINE
8
0
10
252.230127
20
116.444693
11
252.395503
21
115.611365
0
LINE
8
0
10
252.395503
20
115.611365
11
252.227367
21
114.802710
0
LINE
8
0
10
252.227367
20
114.802710
11
251.772072
21
114.133990
0
LINE
8
0
10
251.772072
20
114.133990
11
251.103289
21
113.678794
0
LINE
8
0
10
251.103289
20
113.678794
11
250.294687
21
113.510709
0
LINE
8
0
10
250.294687
20
113.510709
11
249.461290
21
113.676033
0
LINE
8
0
10
249.461290
20
113.676033
11
248.779956
21
114.126628
0
LINE
8
0
10
248.779956
20
114.126628
11
248.320187
21
114.794428
0
LINE
8
0
10
248.320187
20
114.794428
11
248.151485
21
115.611365
0
LINE
8
0
10
248.151485
20
115.611365
11
248.320187
21
116.444693
0
LINE
8
0
10
248.320187
20
116.444693
11
248.779956
21
117.125901
0
LINE
8
0
10
248.779956
20
117.125901
11
249.461290
21
117.585549
0
LINE
8
0
10
249.461290
20
117.585549
11
250.294687
21
117.754197
0
LINE
8
0
10
250.294687
20
117.754197
11
250.294687
21
117.754197
0
LINE
8
0
10
236.605269
20
51.222261
11
236.437133
21
50.413713
0
LINE
8
0
10
236.437133
20
50.413713
11
235.981838
21
49.745048
0
LINE
8
0
10
235.981838
20
49.745048
11
235.313055
21
49.289872
0
LINE
8
0
10
235.313055
20
49.289872
11
234.504453
21
49.121790
0
LINE
8
0
10
234.504453
20
49.121790
11
233.671067
21
49.287111
0
LINE
8
0
10
233.671067
20
49.287111
11
232.989732
21
49.737686
0
LINE
8
0
10
232.989732
20
49.737686
11
232.529957
21
50.405431
0
LINE
8
0
10
232.529957
20
50.405431
11
232.361251
21
51.222261
0
LINE
8
0
10
232.361251
20
51.222261
11
232.529957
21
52.055643
0
LINE
8
0
10
232.529957
20
52.055643
11
232.989732
21
52.736969
0
LINE
8
0
10
232.989732
20
52.736969
11
233.671067
21
53.196735
0
LINE
8
0
10
233.671067
20
53.196735
11
234.504453
21
53.365436
0
LINE
8
0
10
234.504453
20
53.365436
11
235.321337
21
53.196735
0
LINE
8
0
10
235.321337
20
53.196735
11
235.989200
21
52.736969
0
LINE
8
0
10
235.989200
20
52.736969
11
236.439893
21
52.055643
0
LINE
8
0
10
236.439893
20
52.055643
11
236.605269
21
51.222261
0
LINE
8
0
10
236.605269
20
51.222261
11
236.605269
21
51.222261
0
LINE
8
0
10
236.139497
20
111.250905
11
235.994125
21
110.532827
0
LINE
8
0
10
235.994125
20
110.532827
11
235.597928
21
109.945793
0
LINE
8
0
10
235.597928
20
109.945793
11
235.010786
21
109.549672
0
LINE
8
0
10
235.010786
20
109.549672
11
234.292575
21
109.404328
0
LINE
8
0
10
234.292575
20
109.404328
11
233.550654
21
109.547250
0
LINE
8
0
10
233.550654
20
109.547250
11
232.950974
21
109.939334
0
LINE
8
0
10
232.950974
20
109.939334
11
232.549859
21
110.525560
0
LINE
8
0
10
232.549859
20
110.525560
11
232.403638
21
111.250905
0
LINE
8
0
10
232.403638
20
111.250905
11
232.549859
21
111.992893
0
LINE
8
0
10
232.549859
20
111.992893
11
232.950974
21
112.592566
0
LINE
8
0
10
232.950974
20
112.592566
11
233.550654
21
112.993643
0
LINE
8
0
10
233.550654
20
112.993643
11
234.292575
21
113.139843
0
LINE
8
0
10
234.292575
20
113.139843
11
235.018052
21
112.993643
0
LINE
8
0
10
235.018052
20
112.993643
11
235.604387
21
112.592566
0
LINE
8
0
10
235.604387
20
112.592566
11
235.996547
21
111.992893
0
LINE
8
0
10
235.996547
20
111.992893
11
236.139497
21
111.250905
0
LINE
8
0
10
236.139497
20
111.250905
11
236.139497
21
111.250905
0
LINE
8
0
10
230.948431
20
117.965889
11
231.765315
21
117.797242
0
LINE
8
0
10
231.765315
20
117.797242
11
232.433178
21
117.337594
0
LINE
8
0
10
232.433178
20
117.337594
11
232.883871
21
116.656386
0
LINE
8
0
10
232.883871
20
116.656386
11
233.049247
21
115.823058
0
LINE
8
0
10
233.049247
20
115.823058
11
232.881111
21
115.014403
0
LINE
8
0
10
232.881111
20
115.014403
11
232.425816
21
114.345683
0
LINE
8
0
10
232.425816
20
114.345683
11
231.757033
21
113.890487
0
LINE
8
0
10
231.757033
20
113.890487
11
230.948431
21
113.722401
0
LINE
8
0
10
230.948431
20
113.722401
11
230.115045
21
113.887726
0
LINE
8
0
10
230.115045
20
113.887726
11
229.433710
21
114.338321
0
LINE
8
0
10
229.433710
20
114.338321
11
228.973935
21
115.006121
0
LINE
8
0
10
228.973935
20
115.006121
11
228.805229
21
115.823058
0
LINE
8
0
10
228.805229
20
115.823058
11
228.973935
21
116.656386
0
LINE
8
0
10
228.973935
20
116.656386
11
229.433710
21
117.337594
0
LINE
8
0
10
229.433710
20
117.337594
11
230.115045
21
117.797242
0
LINE
8
0
10
230.115045
20
117.797242
11
230.948431
21
117.965889
0
LINE
8
0
10
230.948431
20
117.965889
11
230.948431
21
117.965889
0
LINE
8
0
10
223.290949
20
111.113772
11
223.049812
21
111.637183
0
LINE
8
0
10
223.049812
20
111.637183
11
222.963396
21
112.224650
0
LINE
8
0
10
222.963396
20
112.224650
11
223.132097
21
113.057993
0
LINE
8
0
10
223.132097
20
113.057993
11
223.591866
21
113.739209
0
LINE
8
0
10
223.591866
20
113.739209
11
224.273200
21
114.198860
0
LINE
8
0
10
224.273200
20
114.198860
11
225.106597
21
114.367508
0
LINE
8
0
10
225.106597
20
114.367508
11
225.843565
21
114.231155
0
LINE
8
0
10
225.843565
20
114.231155
11
226.466243
21
113.855447
0
LINE
8
0
10
226.466243
20
113.855447
11
226.926153
21
113.290410
0
LINE
8
0
10
226.926153
20
113.290410
11
227.174816
21
112.586070
0
LINE
8
0
10
227.174816
20
112.586070
11
228.126809
21
113.209170
0
LINE
8
0
10
228.126809
20
113.209170
11
229.297539
21
113.436308
0
LINE
8
0
10
229.297539
20
113.436308
11
230.460127
21
113.197662
0
LINE
8
0
10
230.460127
20
113.197662
11
231.410548
21
112.547249
0
LINE
8
0
10
231.410548
20
112.547249
11
232.051879
21
111.583355
0
LINE
8
0
10
232.051879
20
111.583355
11
232.287195
21
110.404266
0
LINE
8
0
10
232.287195
20
110.404266
11
232.051879
21
109.241707
0
LINE
8
0
10
232.051879
20
109.241707
11
231.410548
21
108.291349
0
LINE
8
0
10
231.410548
20
108.291349
11
230.460127
21
107.650082
0
LINE
8
0
10
230.460127
20
107.650082
11
229.297539
21
107.414796
0
LINE
8
0
10
229.297539
20
107.414796
11
228.118400
21
107.650082
0
LINE
8
0
10
228.118400
20
107.650082
11
227.154397
21
108.291349
0
LINE
8
0
10
227.154397
20
108.291349
11
226.503875
21
109.241707
0
LINE
8
0
10
226.503875
20
109.241707
11
226.265180
21
110.404266
0
LINE
8
0
10
226.265180
20
110.404266
11
226.269148
21
110.487001
0
LINE
8
0
10
226.269148
20
110.487001
11
225.972657
21
110.320314
0
LINE
8
0
10
225.972657
20
110.320314
11
226.148657
21
109.515267
0
LINE
8
0
10
226.148657
20
109.515267
11
226.003291
21
108.797189
0
LINE
8
0
10
226.003291
20
108.797189
11
225.607132
21
108.210155
0
LINE
8
0
10
225.607132
20
108.210155
11
225.020091
21
107.814034
0
LINE
8
0
10
225.020091
20
107.814034
11
224.302080
21
107.668690
0
LINE
8
0
10
224.302080
20
107.668690
11
223.559960
21
107.811611
0
LINE
8
0
10
223.559960
20
107.811611
11
222.960178
21
108.203696
0
LINE
8
0
10
222.960178
20
108.203696
11
222.559025
21
108.789922
0
LINE
8
0
10
222.559025
20
108.789922
11
222.412798
21
109.515267
0
LINE
8
0
10
222.412798
20
109.515267
11
222.653169
21
110.446659
0
LINE
8
0
10
222.653169
20
110.446659
11
223.290870
21
111.113772
0
LINE
8
0
10
223.290870
20
111.113772
11
223.290949
21
111.113772
0
LINE
8
0
10
221.550575
20
108.694981
11
222.245098
21
108.547218
0
LINE
8
0
10
222.245098
20
108.547218
11
222.819443
21
108.147069
0
LINE
8
0
10
222.819443
20
108.147069
11
223.210401
21
107.559237
0
LINE
8
0
10
223.210401
20
107.559237
11
223.354767
21
106.848429
0
LINE
8
0
10
223.354767
20
106.848429
11
223.210401
21
106.153866
0
LINE
8
0
10
223.210401
20
106.153866
11
222.819443
21
105.579459
0
LINE
8
0
10
222.819443
20
105.579459
11
222.245098
21
105.188443
0
LINE
8
0
10
222.245098
20
105.188443
11
221.550575
21
105.044053
0
LINE
8
0
10
221.550575
20
105.044053
11
220.839631
21
105.188443
0
LINE
8
0
10
220.839631
20
105.188443
11
220.251681
21
105.579459
0
LINE
8
0
10
220.251681
20
105.579459
11
219.851448
21
106.153866
0
LINE
8
0
10
219.851448
20
106.153866
11
219.703654
21
106.848429
0
LINE
8
0
10
219.703654
20
106.848429
11
219.849025
21
107.566504
0
LINE
8
0
10
219.849025
20
107.566504
11
220.245222
21
108.153528
0
LINE
8
0
10
220.245222
20
108.153528
11
220.832365
21
108.549641
0
LINE
8
0
10
220.832365
20
108.549641
11
221.550575
21
108.694981
0
LINE
8
0
10
221.550575
20
108.694981
11
221.550575
21
108.694981
0
LINE
8
0
10
200.230265
20
106.636710
11
200.375637
21
107.354789
0
LINE
8
0
10
200.375637
20
107.354789
11
200.771834
21
107.941822
0
LINE
8
0
10
200.771834
20
107.941822
11
201.358976
21
108.337944
0
LINE
8
0
10
201.358976
20
108.337944
11
202.077187
21
108.483288
0
LINE
8
0
10
202.077187
20
108.483288
11
202.771764
21
108.335521
0
LINE
8
0
10
202.771764
20
108.335521
11
203.346226
21
107.935363
0
LINE
8
0
10
203.346226
20
107.935363
11
203.737303
21
107.347522
0
LINE
8
0
10
203.737303
20
107.347522
11
203.881722
21
106.636710
0
LINE
8
0
10
203.881722
20
106.636710
11
203.737303
21
105.942162
0
LINE
8
0
10
203.737303
20
105.942162
11
203.346226
21
105.367763
0
LINE
8
0
10
203.346226
20
105.367763
11
202.771764
21
104.976750
0
LINE
8
0
10
202.771764
20
104.976750
11
202.077187
21
104.832360
0
LINE
8
0
10
202.077187
20
104.832360
11
201.366254
21
104.976750
0
LINE
8
0
10
201.366254
20
104.976750
11
200.778303
21
105.367763
0
LINE
8
0
10
200.778303
20
105.367763
11
200.378063
21
105.942162
0
LINE
8
0
10
200.378063
20
105.942162
11
200.230265
21
106.636710
0
LINE
8
0
10
200.230265
20
106.636710
11
200.230265
21
106.636710
0
LINE
8
0
10
212.745253
20
111.065565
11
213.562137
21
110.896917
0
LINE
8
0
10
213.562137
20
110.896917
11
214.230000
21
110.437266
0
LINE
8
0
10
214.230000
20
110.437266
11
214.680693
21
109.756050
0
LINE
8
0
10
214.680693
20
109.756050
11
214.846068
21
108.922707
0
LINE
8
0
10
214.846068
20
108.922707
11
214.677933
21
108.114067
0
LINE
8
0
10
214.677933
20
108.114067
11
214.222638
21
107.445355
0
LINE
8
0
10
214.222638
20
107.445355
11
213.553855
21
106.990161
0
LINE
8
0
10
213.553855
20
106.990161
11
212.745253
21
106.822077
0
LINE
8
0
10
212.745253
20
106.822077
11
211.911872
21
106.987401
0
LINE
8
0
10
211.911872
20
106.987401
11
211.230545
21
107.437993
0
LINE
8
0
10
211.230545
20
107.437993
11
210.770779
21
108.105785
0
LINE
8
0
10
210.770779
20
108.105785
11
210.602078
21
108.922707
0
LINE
8
0
10
210.602078
20
108.922707
11
210.770779
21
109.756050
0
LINE
8
0
10
210.770779
20
109.756050
11
211.230545
21
110.437266
0
LINE
8
0
10
211.230545
20
110.437266
11
211.911872
21
110.896917
0
LINE
8
0
10
211.911872
20
110.896917
11
212.745253
21
111.065565
0
LINE
8
0
10
212.745253
20
111.065565
11
212.745253
21
111.065565
0
LINE
8
0
10
194.584117
20
104.376907
11
195.401001
21
104.208259
0
LINE
8
0
10
195.401001
20
104.208259
11
196.068864
21
103.748611
0
LINE
8
0
10
196.068864
20
103.748611
11
196.519557
21
103.067403
0
LINE
8
0
10
196.519557
20
103.067403
11
196.684933
21
102.234075
0
LINE
8
0
10
196.684933
20
102.234075
11
196.516797
21
101.425420
0
LINE
8
0
10
196.516797
20
101.425420
11
196.061502
21
100.756700
0
LINE
8
0
10
196.061502
20
100.756700
11
195.392719
21
100.301504
0
LINE
8
0
10
195.392719
20
100.301504
11
194.584117
21
100.133419
0
LINE
8
0
10
194.584117
20
100.133419
11
193.750720
21
100.298743
0
LINE
8
0
10
193.750720
20
100.298743
11
193.069386
21
100.749338
0
LINE
8
0
10
193.069386
20
100.749338
11
192.609617
21
101.417138
0
LINE
8
0
10
192.609617
20
101.417138
11
192.440915
21
102.234075
0
LINE
8
0
10
192.440915
20
102.234075
11
192.609617
21
103.067403
0
LINE
8
0
10
192.609617
20
103.067403
11
193.069386
21
103.748611
0
LINE
8
0
10
193.069386
20
103.748611
11
193.750720
21
104.208259
0
LINE
8
0
10
193.750720
20
104.208259
11
194.584117
21
104.376907
0
LINE
8
0
10
194.584117
20
104.376907
11
194.584117
21
104.376907
0
LINE
8
0
10
183.408237
20
103.403321
11
184.102814
21
103.255558
0
LINE
8
0
10
184.102814
20
103.255558
11
184.677276
21
102.855409
0
LINE
8
0
10
184.677276
20
102.855409
11
185.068353
21
102.267577
0
LINE
8
0
10
185.068353
20
102.267577
11
185.212772
21
101.556769
0
LINE
8
0
10
185.212772
20
101.556769
11
185.068353
21
100.862206
0
LINE
8
0
10
185.068353
20
100.862206
11
184.677276
21
100.287799
0
LINE
8
0
10
184.677276
20
100.287799
11
184.102814
21
99.896783
0
LINE
8
0
10
184.102814
20
99.896783
11
183.408237
21
99.752393
0
LINE
8
0
10
183.408237
20
99.752393
11
182.697304
21
99.896783
0
LINE
8
0
10
182.697304
20
99.896783
11
182.109353
21
100.287799
0
LINE
8
0
10
182.109353
20
100.287799
11
181.709113
21
100.862206
0
LINE
8
0
10
181.709113
20
100.862206
11
181.561315
21
101.556769
0
LINE
8
0
10
181.561315
20
101.556769
11
181.706691
21
102.274844
0
LINE
8
0
10
181.706691
20
102.274844
11
182.102894
21
102.861868
0
LINE
8
0
10
182.102894
20
102.861868
11
182.690038
21
103.257981
0
LINE
8
0
10
182.690038
20
103.257981
11
183.408237
21
103.403321
0
LINE
8
0
10
183.408237
20
103.403321
11
183.408237
21
103.403321
0
LINE
8
0
10
176.338579
20
20.006971
11
177.155464
21
19.838269
0
LINE
8
0
10
177.155464
20
19.838269
11
177.823326
21
19.378500
0
LINE
8
0
10
177.823326
20
19.378500
11
178.274020
21
18.697166
0
LINE
8
0
10
178.274020
20
18.697166
11
178.439395
21
17.863769
0
LINE
8
0
10
178.439395
20
17.863769
11
178.271255
21
17.055178
0
LINE
8
0
10
178.271255
20
17.055178
11
177.815955
21
16.386394
0
LINE
8
0
10
177.815955
20
16.386394
11
177.147170
21
15.931093
0
LINE
8
0
10
177.147170
20
15.931093
11
176.338579
21
15.762953
0
LINE
8
0
10
176.338579
20
15.762953
11
175.505182
21
15.928329
0
LINE
8
0
10
175.505182
20
15.928329
11
174.823848
21
16.379022
0
LINE
8
0
10
174.823848
20
16.379022
11
174.364079
21
17.046885
0
LINE
8
0
10
174.364079
20
17.046885
11
174.195378
21
17.863769
0
LINE
8
0
10
174.195378
20
17.863769
11
174.364079
21
18.697166
0
LINE
8
0
10
174.364079
20
18.697166
11
174.823848
21
19.378500
0
LINE
8
0
10
174.823848
20
19.378500
11
175.505182
21
19.838269
0
LINE
8
0
10
175.505182
20
19.838269
11
176.338579
21
20.006971
0
LINE
8
0
10
176.338579
20
20.006971
11
176.338579
21
20.006971
0
LINE
8
0
10
159.389419
20
17.863769
11
159.221279
21
17.055178
0
LINE
8
0
10
159.221279
20
17.055178
11
158.765979
21
16.386394
0
LINE
8
0
10
158.765979
20
16.386394
11
158.097194
21
15.931093
0
LINE
8
0
10
158.097194
20
15.931093
11
157.288603
21
15.762953
0
LINE
8
0
10
157.288603
20
15.762953
11
156.455206
21
15.928329
0
LINE
8
0
10
156.455206
20
15.928329
11
155.773872
21
16.379022
0
LINE
8
0
10
155.773872
20
16.379022
11
155.314103
21
17.046885
0
LINE
8
0
10
155.314103
20
17.046885
11
155.145402
21
17.863769
0
LINE
8
0
10
155.145402
20
17.863769
11
155.314103
21
18.697166
0
LINE
8
0
10
155.314103
20
18.697166
11
155.773872
21
19.378500
0
LINE
8
0
10
155.773872
20
19.378500
11
156.455206
21
19.838269
0
LINE
8
0
10
156.455206
20
19.838269
11
157.288603
21
20.006971
0
LINE
8
0
10
157.288603
20
20.006971
11
158.105488
21
19.838269
0
LINE
8
0
10
158.105488
20
19.838269
11
158.773350
21
19.378500
0
LINE
8
0
10
158.773350
20
19.378500
11
159.224044
21
18.697166
0
LINE
8
0
10
159.224044
20
18.697166
11
159.389419
21
17.863769
0
LINE
8
0
10
159.389419
20
17.863769
11
159.389419
21
17.863769
0
LINE
8
0
10
140.296898
20
17.863769
11
140.128809
21
17.055178
0
LINE
8
0
10
140.128809
20
17.055178
11
139.673606
21
16.386394
0
LINE
8
0
10
139.673606
20
16.386394
11
139.004885
21
15.931093
0
LINE
8
0
10
139.004885
20
15.931093
11
138.196241
21
15.762953
0
LINE
8
0
10
138.196241
20
15.762953
11
137.362884
21
15.928329
0
LINE
8
0
10
137.362884
20
15.928329
11
136.681613
21
16.379022
0
LINE
8
0
10
136.681613
20
16.379022
11
136.221901
21
17.046885
0
LINE
8
0
10
136.221901
20
17.046885
11
136.053225
21
17.863769
0
LINE
8
0
10
136.053225
20
17.863769
11
136.221901
21
18.697166
0
LINE
8
0
10
136.221901
20
18.697166
11
136.681613
21
19.378500
0
LINE
8
0
10
136.681613
20
19.378500
11
137.362884
21
19.838269
0
LINE
8
0
10
137.362884
20
19.838269
11
138.196241
21
20.006971
0
LINE
8
0
10
138.196241
20
20.006971
11
139.013179
21
19.838269
0
LINE
8
0
10
139.013179
20
19.838269
11
139.680978
21
19.378500
0
LINE
8
0
10
139.680978
20
19.378500
11
140.131574
21
18.697166
0
LINE
8
0
10
140.131574
20
18.697166
11
140.296898
21
17.863769
0
LINE
8
0
10
140.296898
20
17.863769
11
140.296898
21
17.863769
0
LINE
8
0
10
120.331549
20
103.445522
11
121.148480
21
103.276874
0
LINE
8
0
10
121.148480
20
103.276874
11
121.816276
21
102.817226
0
LINE
8
0
10
121.816276
20
102.817226
11
122.266869
21
102.136018
0
LINE
8
0
10
122.266869
20
102.136018
11
122.432193
21
101.302690
0
LINE
8
0
10
122.432193
20
101.302690
11
122.264108
21
100.494035
0
LINE
8
0
10
122.264108
20
100.494035
11
121.808912
21
99.825315
0
LINE
8
0
10
121.808912
20
99.825315
11
121.140196
21
99.370119
0
LINE
8
0
10
121.140196
20
99.370119
11
120.331549
21
99.202034
0
LINE
8
0
10
120.331549
20
99.202034
11
119.498213
21
99.367358
0
LINE
8
0
10
119.498213
20
99.367358
11
118.817000
21
99.817953
0
LINE
8
0
10
118.817000
20
99.817953
11
118.357350
21
100.485753
0
LINE
8
0
10
118.357350
20
100.485753
11
118.188702
21
101.302690
0
LINE
8
0
10
118.188702
20
101.302690
11
118.357350
21
102.136018
0
LINE
8
0
10
118.357350
20
102.136018
11
118.817000
21
102.817226
0
LINE
8
0
10
118.817000
20
102.817226
11
119.498213
21
103.276874
0
LINE
8
0
10
119.498213
20
103.276874
11
120.331549
21
103.445522
0
LINE
8
0
10
120.331549
20
103.445522
11
120.331549
21
103.445522
0
LINE
8
0
10
92.121593
20
47.412319
11
91.977201
21
46.717742
0
LINE
8
0
10
91.977201
20
46.717742
11
91.586183
21
46.143280
0
LINE
8
0
10
91.586183
20
46.143280
11
91.011779
21
45.752203
0
LINE
8
0
10
91.011779
20
45.752203
11
90.317227
21
45.607784
0
LINE
8
0
10
90.317227
20
45.607784
11
89.606415
21
45.752203
0
LINE
8
0
10
89.606415
20
45.752203
11
89.018578
21
46.143280
0
LINE
8
0
10
89.018578
20
46.143280
11
88.618422
21
46.717742
0
LINE
8
0
10
88.618422
20
46.717742
11
88.470658
21
47.412319
0
LINE
8
0
10
88.470658
20
47.412319
11
88.616000
21
48.130530
0
LINE
8
0
10
88.616000
20
48.130530
11
89.012118
21
48.717672
0
LINE
8
0
10
89.012118
20
48.717672
11
89.599149
21
49.113869
0
LINE
8
0
10
89.599149
20
49.113869
11
90.317227
21
49.259241
0
LINE
8
0
10
90.317227
20
49.259241
11
91.011779
21
49.111447
0
LINE
8
0
10
91.011779
20
49.111447
11
91.586183
21
48.711213
0
LINE
8
0
10
91.586183
20
48.711213
11
91.977201
21
48.123263
0
LINE
8
0
10
91.977201
20
48.123263
11
92.121593
21
47.412319
0
LINE
8
0
10
92.121593
20
47.412319
11
92.121593
21
47.412319
0
LINE
8
0
10
70.743253
20
52.703979
11
70.598860
21
52.009402
0
LINE
8
0
10
70.598860
20
52.009402
11
70.207842
21
51.434940
0
LINE
8
0
10
70.207842
20
51.434940
11
69.633438
21
51.043863
0
LINE
8
0
10
69.633438
20
51.043863
11
68.938886
21
50.899444
0
LINE
8
0
10
68.938886
20
50.899444
11
68.228074
21
51.043863
0
LINE
8
0
10
68.228074
20
51.043863
11
67.640237
21
51.434940
0
LINE
8
0
10
67.640237
20
51.434940
11
67.240081
21
52.009402
0
LINE
8
0
10
67.240081
20
52.009402
11
67.092317
21
52.703979
0
LINE
8
0
10
67.092317
20
52.703979
11
67.237659
21
53.422190
0
LINE
8
0
10
67.237659
20
53.422190
11
67.633778
21
54.009332
0
LINE
8
0
10
67.633778
20
54.009332
11
68.220808
21
54.405529
0
LINE
8
0
10
68.220808
20
54.405529
11
68.938886
21
54.550901
0
LINE
8
0
10
68.938886
20
54.550901
11
69.633438
21
54.403107
0
LINE
8
0
10
69.633438
20
54.403107
11
70.207842
21
54.002873
0
LINE
8
0
10
70.207842
20
54.002873
11
70.598860
21
53.414923
0
LINE
8
0
10
70.598860
20
53.414923
11
70.743253
21
52.703979
0
LINE
8
0
10
70.743253
20
52.703979
11
70.743253
21
52.703979
0
LINE
8
0
10
79.733907
20
52.222359
11
80.550837
21
52.053711
0
LINE
8
0
10
80.550837
20
52.053711
11
81.218633
21
51.594063
0
LINE
8
0
10
81.218633
20
51.594063
11
81.669227
21
50.912855
0
LINE
8
0
10
81.669227
20
50.912855
11
81.834551
21
50.079527
0
LINE
8
0
10
81.834551
20
50.079527
11
81.666465
21
49.270925
0
LINE
8
0
10
81.666465
20
49.270925
11
81.211269
21
48.602142
0
LINE
8
0
10
81.211269
20
48.602142
11
80.542553
21
48.146848
0
LINE
8
0
10
80.542553
20
48.146848
11
79.733907
21
47.978712
0
LINE
8
0
10
79.733907
20
47.978712
11
78.900572
21
48.144087
0
LINE
8
0
10
78.900572
20
48.144087
11
78.219358
21
48.594780
0
LINE
8
0
10
78.219358
20
48.594780
11
77.759708
21
49.262643
0
LINE
8
0
10
77.759708
20
49.262643
11
77.591060
21
50.079527
0
LINE
8
0
10
77.591060
20
50.079527
11
77.759708
21
50.912855
0
LINE
8
0
10
77.759708
20
50.912855
11
78.219358
21
51.594063
0
LINE
8
0
10
78.219358
20
51.594063
11
78.900572
21
52.053711
0
LINE
8
0
10
78.900572
20
52.053711
11
79.733907
21
52.222359
0
LINE
8
0
10
79.733907
20
52.222359
11
79.733907
21
52.222359
0
LINE
8
0
10
102.128204
20
110.261312
11
102.945134
21
110.092635
0
LINE
8
0
10
102.945134
20
110.092635
11
103.612930
21
109.632921
0
LINE
8
0
10
103.612930
20
109.632921
11
104.063524
21
108.951641
0
LINE
8
0
10
104.063524
20
108.951641
11
104.228848
21
108.118269
0
LINE
8
0
10
104.228848
20
108.118269
11
104.060763
21
107.309629
0
LINE
8
0
10
104.060763
20
107.309629
11
103.605567
21
106.640917
0
LINE
8
0
10
103.605567
20
106.640917
11
102.936851
21
106.185723
0
LINE
8
0
10
102.936851
20
106.185723
11
102.128204
21
106.017639
0
LINE
8
0
10
102.128204
20
106.017639
11
101.294869
21
106.182963
0
LINE
8
0
10
101.294869
20
106.182963
11
100.613656
21
106.633555
0
LINE
8
0
10
100.613656
20
106.633555
11
100.154005
21
107.301347
0
LINE
8
0
10
100.154005
20
107.301347
11
99.985357
21
108.118269
0
LINE
8
0
10
99.985357
20
108.118269
11
100.154005
21
108.951641
0
LINE
8
0
10
100.154005
20
108.951641
11
100.613656
21
109.632921
0
LINE
8
0
10
100.613656
20
109.632921
11
101.294869
21
110.092635
0
LINE
8
0
10
101.294869
20
110.092635
11
102.128204
21
110.261312
0
LINE
8
0
10
102.128204
20
110.261312
11
102.128204
21
110.261312
0
LINE
8
0
10
91.290983
20
111.700670
11
91.985507
21
111.552901
0
LINE
8
0
10
91.985507
20
111.552901
11
92.559851
21
111.152722
0
LINE
8
0
10
92.559851
20
111.152722
11
92.950809
21
110.564826
0
LINE
8
0
10
92.950809
20
110.564826
11
93.095174
21
109.853907
0
LINE
8
0
10
93.095174
20
109.853907
11
92.950809
21
109.159384
0
LINE
8
0
10
92.950809
20
109.159384
11
92.559851
21
108.585040
0
LINE
8
0
10
92.559851
20
108.585040
11
91.985507
21
108.194081
0
LINE
8
0
10
91.985507
20
108.194081
11
91.290983
21
108.049716
0
LINE
8
0
10
91.290983
20
108.049716
11
90.580171
21
108.194081
0
LINE
8
0
10
90.580171
20
108.194081
11
89.992333
21
108.585040
0
LINE
8
0
10
89.992333
20
108.585040
11
89.592178
21
109.159384
0
LINE
8
0
10
89.592178
20
109.159384
11
89.444413
21
109.853907
0
LINE
8
0
10
89.444413
20
109.853907
11
89.589755
21
110.572093
0
LINE
8
0
10
89.589755
20
110.572093
11
89.985874
21
111.159181
0
LINE
8
0
10
89.985874
20
111.159181
11
90.572904
21
111.555323
0
LINE
8
0
10
90.572904
20
111.555323
11
91.290983
21
111.700670
0
LINE
8
0
10
91.290983
20
111.700670
11
91.290983
21
111.700670
0
LINE
8
0
10
87.380287
20
109.345934
11
87.234942
21
108.627855
0
LINE
8
0
10
87.234942
20
108.627855
11
86.838805
21
108.040822
0
LINE
8
0
10
86.838805
20
108.040822
11
86.251723
21
107.644701
0
LINE
8
0
10
86.251723
20
107.644701
11
85.533545
21
107.499356
0
LINE
8
0
10
85.533545
20
107.499356
11
84.791577
21
107.642278
0
LINE
8
0
10
84.791577
20
107.642278
11
84.191962
21
108.034363
0
LINE
8
0
10
84.191962
20
108.034363
11
83.790946
21
108.620589
0
LINE
8
0
10
83.790946
20
108.620589
11
83.644775
21
109.345934
0
LINE
8
0
10
83.644775
20
109.345934
11
83.790946
21
110.087933
0
LINE
8
0
10
83.790946
20
110.087933
11
84.191962
21
110.687605
0
LINE
8
0
10
84.191962
20
110.687605
11
84.791577
21
111.088676
0
LINE
8
0
10
84.791577
20
111.088676
11
85.533545
21
111.234872
0
LINE
8
0
10
85.533545
20
111.234872
11
86.258990
21
111.088676
0
LINE
8
0
10
86.258990
20
111.088676
11
86.845264
21
110.687605
0
LINE
8
0
10
86.845264
20
110.687605
11
87.237364
21
110.087933
0
LINE
8
0
10
87.237364
20
110.087933
11
87.380287
21
109.345934
0
LINE
8
0
10
87.380287
20
109.345934
11
87.380287
21
109.345934
0
LINE
8
0
10
83.925032
20
116.949944
11
84.741862
21
116.781267
0
LINE
8
0
10
84.741862
20
116.781267
11
85.409607
21
116.321556
0
LINE
8
0
10
85.409607
20
116.321556
11
85.860182
21
115.640284
0
LINE
8
0
10
85.860182
20
115.640284
11
86.025503
21
114.806927
0
LINE
8
0
10
86.025503
20
114.806927
11
85.857421
21
113.998283
0
LINE
8
0
10
85.857421
20
113.998283
11
85.402244
21
113.329562
0
LINE
8
0
10
85.402244
20
113.329562
11
84.733579
21
112.874359
0
LINE
8
0
10
84.733579
20
112.874359
11
83.925032
21
112.706270
0
LINE
8
0
10
83.925032
20
112.706270
11
83.091669
21
112.871595
0
LINE
8
0
10
83.091669
20
112.871595
11
82.410397
21
113.322190
0
LINE
8
0
10
82.410397
20
113.322190
11
81.950687
21
113.989990
0
LINE
8
0
10
81.950687
20
113.989990
11
81.782013
21
114.806927
0
LINE
8
0
10
81.782013
20
114.806927
11
81.950687
21
115.640284
0
LINE
8
0
10
81.950687
20
115.640284
11
82.410397
21
116.321556
0
LINE
8
0
10
82.410397
20
116.321556
11
83.091669
21
116.781267
0
LINE
8
0
10
83.091669
20
116.781267
11
83.925032
21
116.949944
0
LINE
8
0
10
83.925032
20
116.949944
11
83.925032
21
116.949944
0
LINE
8
0
10
75.141426
20
112.970218
11
75.093368
21
113.409929
0
LINE
8
0
10
75.093368
20
113.409929
11
75.262043
21
114.243301
0
LINE
8
0
10
75.262043
20
114.243301
11
75.721753
21
114.924581
0
LINE
8
0
10
75.721753
20
114.924581
11
76.403025
21
115.384295
0
LINE
8
0
10
76.403025
20
115.384295
11
77.236387
21
115.552972
0
LINE
8
0
10
77.236387
20
115.552972
11
78.053218
21
115.384295
0
LINE
8
0
10
78.053218
20
115.384295
11
78.720963
21
114.924581
0
LINE
8
0
10
78.720963
20
114.924581
11
79.171537
21
114.243301
0
LINE
8
0
10
79.171537
20
114.243301
11
79.336858
21
113.409929
0
LINE
8
0
10
79.336858
20
113.409929
11
79.295671
21
113.007763
0
LINE
8
0
10
79.295671
20
113.007763
11
80.538335
21
113.266975
0
LINE
8
0
10
80.538335
20
113.266975
11
81.700919
21
113.028333
0
LINE
8
0
10
81.700919
20
113.028333
11
82.651339
21
112.377926
0
LINE
8
0
10
82.651339
20
112.377926
11
83.292669
21
111.414033
0
LINE
8
0
10
83.292669
20
111.414033
11
83.527985
21
110.234933
0
LINE
8
0
10
83.527985
20
110.234933
11
83.292669
21
109.072385
0
LINE
8
0
10
83.292669
20
109.072385
11
82.651339
21
108.122026
0
LINE
8
0
10
82.651339
20
108.122026
11
81.700919
21
107.480753
0
LINE
8
0
10
81.700919
20
107.480753
11
80.538335
21
107.245463
0
LINE
8
0
10
80.538335
20
107.245463
11
79.359247
21
107.480753
0
LINE
8
0
10
79.359247
20
107.480753
11
78.395358
21
108.122026
0
LINE
8
0
10
78.395358
20
108.122026
11
77.744952
21
109.072385
0
LINE
8
0
10
77.744952
20
109.072385
11
77.506309
21
110.234933
0
LINE
8
0
10
77.506309
20
110.234933
11
77.721134
21
111.370708
0
LINE
8
0
10
77.721134
20
111.370708
11
77.371091
21
111.316363
0
LINE
8
0
10
77.371091
20
111.316363
11
77.389533
21
111.123958
0
LINE
8
0
10
77.389533
20
111.123958
11
77.244190
21
110.405880
0
LINE
8
0
10
77.244190
20
110.405880
11
76.848072
21
109.818846
0
LINE
8
0
10
76.848072
20
109.818846
11
76.261041
21
109.422725
0
LINE
8
0
10
76.261041
20
109.422725
11
75.542963
21
109.277381
0
LINE
8
0
10
75.542963
20
109.277381
11
74.800968
21
109.420303
0
LINE
8
0
10
74.800968
20
109.420303
11
74.201294
21
109.812387
0
LINE
8
0
10
74.201294
20
109.812387
11
73.800218
21
110.398613
0
LINE
8
0
10
73.800218
20
110.398613
11
73.654020
21
111.123958
0
LINE
8
0
10
73.654020
20
111.123958
11
73.765531
21
111.775614
0
LINE
8
0
10
73.765531
20
111.775614
11
74.075333
21
112.325000
0
LINE
8
0
10
74.075333
20
112.325000
11
74.546333
21
112.735430
0
LINE
8
0
10
74.546333
20
112.735430
11
75.141437
21
112.970218
0
LINE
8
0
10
75.141437
20
112.970218
11
75.141426
21
112.970218
0
LINE
8
0
10
71.902354
20
111.954564
11
72.596878
21
111.806797
0
LINE
8
0
10
72.596878
20
111.806797
11
73.171223
21
111.406639
0
LINE
8
0
10
73.171223
20
111.406639
11
73.562182
21
110.818798
0
LINE
8
0
10
73.562182
20
110.818798
11
73.706548
21
110.107986
0
LINE
8
0
10
73.706548
20
110.107986
11
73.562182
21
109.413463
0
LINE
8
0
10
73.562182
20
109.413463
11
73.171223
21
108.839119
0
LINE
8
0
10
73.171223
20
108.839119
11
72.596878
21
108.448160
0
LINE
8
0
10
72.596878
20
108.448160
11
71.902354
21
108.303795
0
LINE
8
0
10
71.902354
20
108.303795
11
71.191542
21
108.448160
0
LINE
8
0
10
71.191542
20
108.448160
11
70.603704
21
108.839119
0
LINE
8
0
10
70.603704
20
108.839119
11
70.203549
21
109.413463
0
LINE
8
0
10
70.203549
20
109.413463
11
70.055784
21
110.107986
0
LINE
8
0
10
70.055784
20
110.107986
11
70.201126
21
110.826065
0
LINE
8
0
10
70.201126
20
110.826065
11
70.597245
21
111.413098
0
LINE
8
0
10
70.597245
20
111.413098
11
71.184275
21
111.809220
0
LINE
8
0
10
71.184275
20
111.809220
11
71.902354
21
111.954564
0
LINE
8
0
10
71.902354
20
111.954564
11
71.902354
21
111.954564
0
LINE
8
0
10
64.536403
20
116.865198
11
65.353234
21
116.696550
0
LINE
8
0
10
65.353234
20
116.696550
11
66.020979
21
116.236899
0
LINE
8
0
10
66.020979
20
116.236899
11
66.471553
21
115.555683
0
LINE
8
0
10
66.471553
20
115.555683
11
66.636874
21
114.722340
0
LINE
8
0
10
66.636874
20
114.722340
11
66.468792
21
113.913700
0
LINE
8
0
10
66.468792
20
113.913700
11
66.013615
21
113.244988
0
LINE
8
0
10
66.013615
20
113.244988
11
65.344950
21
112.789794
0
LINE
8
0
10
65.344950
20
112.789794
11
64.536403
21
112.621710
0
LINE
8
0
10
64.536403
20
112.621710
11
63.703041
21
112.787034
0
LINE
8
0
10
63.703041
20
112.787034
11
63.021769
21
113.237626
0
LINE
8
0
10
63.021769
20
113.237626
11
62.562059
21
113.905418
0
LINE
8
0
10
62.562059
20
113.905418
11
62.393384
21
114.722340
0
LINE
8
0
10
62.393384
20
114.722340
11
62.562059
21
115.555683
0
LINE
8
0
10
62.562059
20
115.555683
11
63.021769
21
116.236899
0
LINE
8
0
10
63.021769
20
116.236899
11
63.703041
21
116.696550
0
LINE
8
0
10
63.703041
20
116.696550
11
64.536403
21
116.865198
0
LINE
8
0
10
64.536403
20
116.865198
11
64.536403
21
116.865198
0
LINE
8
0
10
16.361111
20
104.080627
11
17.055636
21
103.932864
0
LINE
8
0
10
17.055636
20
103.932864
11
17.629980
21
103.532715
0
LINE
8
0
10
17.629980
20
103.532715
11
18.020938
21
102.944883
0
LINE
8
0
10
18.020938
20
102.944883
11
18.165303
21
102.234075
0
LINE
8
0
10
18.165303
20
102.234075
11
18.020938
21
101.539512
0
LINE
8
0
10
18.020938
20
101.539512
11
17.629980
21
100.965106
0
LINE
8
0
10
17.629980
20
100.965106
11
17.055636
21
100.574089
0
LINE
8
0
10
17.055636
20
100.574089
11
16.361111
21
100.429699
0
LINE
8
0
10
16.361111
20
100.429699
11
15.650200
21
100.574089
0
LINE
8
0
10
15.650200
20
100.574089
11
15.062311
21
100.965106
0
LINE
8
0
10
15.062311
20
100.965106
11
14.662137
21
101.539512
0
LINE
8
0
10
14.662137
20
101.539512
11
14.514370
21
102.234075
0
LINE
8
0
10
14.514370
20
102.234075
11
14.659715
21
102.952150
0
LINE
8
0
10
14.659715
20
102.952150
11
15.055852
21
103.539174
0
LINE
8
0
10
15.055852
20
103.539174
11
15.642934
21
103.935287
0
LINE
8
0
10
15.642934
20
103.935287
11
16.361111
21
104.080627
0
LINE
8
0
10
16.361111
20
104.080627
11
16.361111
21
104.080627
0
LINE
8
0
10
13.313065
20
85.199984
11
14.007590
21
85.052217
0
LINE
8
0
10
14.007590
20
85.052217
11
14.581935
21
84.652059
0
LINE
8
0
10
14.581935
20
84.652059
11
14.972894
21
84.064218
0
LINE
8
0
10
14.972894
20
84.064218
11
15.117259
21
83.353406
0
LINE
8
0
10
15.117259
20
83.353406
11
14.972894
21
82.658858
0
LINE
8
0
10
14.972894
20
82.658858
11
14.581935
21
82.084459
0
LINE
8
0
10
14.581935
20
82.084459
11
14.007590
21
81.693446
0
LINE
8
0
10
14.007590
20
81.693446
11
13.313065
21
81.549056
0
LINE
8
0
10
13.313065
20
81.549056
11
12.602255
21
81.693446
0
LINE
8
0
10
12.602255
20
81.693446
11
12.014418
21
82.084459
0
LINE
8
0
10
12.014418
20
82.084459
11
11.614263
21
82.658858
0
LINE
8
0
10
11.614263
20
82.658858
11
11.466498
21
83.353406
0
LINE
8
0
10
11.466498
20
83.353406
11
11.611840
21
84.071485
0
LINE
8
0
10
11.611840
20
84.071485
11
12.007957
21
84.658518
0
LINE
8
0
10
12.007957
20
84.658518
11
12.594987
21
85.054640
0
LINE
8
0
10
12.594987
20
85.054640
11
13.313065
21
85.199984
0
LINE
8
0
10
13.313065
20
85.199984
11
13.313065
21
85.199984
0
LINE
8
0
10
24.761622
20
63.680390
11
21.229542
21
64.348568
0
LINE
8
0
10
21.229542
20
64.348568
11
21.803494
21
67.889773
0
LINE
8
0
10
21.803494
20
67.889773
11
25.335574
21
67.221595
0
LINE
8
0
10
25.335574
20
67.221595
11
24.761622
21
63.680390
0
LINE
8
0
10
76.135682
20
42.729412
11
74.956594
21
42.964727
0
LINE
8
0
10
74.956594
20
42.964727
11
73.992705
21
43.606058
0
LINE
8
0
10
73.992705
20
43.606058
11
73.342298
21
44.556479
0
LINE
8
0
10
73.342298
20
44.556479
11
73.103656
21
45.719067
0
LINE
8
0
10
73.103656
20
45.719067
11
73.384905
21
47.008142
0
LINE
8
0
10
73.384905
20
47.008142
11
73.019317
21
46.965835
0
LINE
8
0
10
73.019317
20
46.965835
11
73.029239
21
46.862145
0
LINE
8
0
10
73.029239
20
46.862145
11
72.883897
21
46.143946
0
LINE
8
0
10
72.883897
20
46.143946
11
72.487779
21
45.556802
0
LINE
8
0
10
72.487779
20
45.556802
11
71.900749
21
45.160599
0
LINE
8
0
10
71.900749
20
45.160599
11
71.182672
21
45.015223
0
LINE
8
0
10
71.182672
20
45.015223
11
70.556167
21
45.116408
0
LINE
8
0
10
70.556167
20
45.116408
11
70.023728
21
45.398201
0
LINE
8
0
10
70.023728
20
45.398201
11
69.616698
21
45.827958
0
LINE
8
0
10
69.616698
20
45.827958
11
69.366418
21
46.373037
0
LINE
8
0
10
69.366418
20
46.373037
11
68.579731
21
43.138695
0
LINE
8
0
10
68.579731
20
43.138695
11
65.057816
21
43.900059
0
LINE
8
0
10
65.057816
20
43.900059
11
65.911681
21
47.410599
0
LINE
8
0
10
65.911681
20
47.410599
11
69.312417
21
46.675455
0
LINE
8
0
10
69.312417
20
46.675455
11
69.293737
21
46.862145
0
LINE
8
0
10
69.293737
20
46.862145
11
69.411050
21
47.528978
0
LINE
8
0
10
69.411050
20
47.528978
11
69.736190
21
48.086734
0
LINE
8
0
10
69.736190
20
48.086734
11
70.228963
21
48.496268
0
LINE
8
0
10
70.228963
20
48.496268
11
70.849176
21
48.718433
0
LINE
8
0
10
70.849176
20
48.718433
11
70.817675
21
49.063555
0
LINE
8
0
10
70.817675
20
49.063555
11
70.986349
21
49.896898
0
LINE
8
0
10
70.986349
20
49.896898
11
71.446059
21
50.578114
0
LINE
8
0
10
71.446059
20
50.578114
11
72.127331
21
51.037765
0
LINE
8
0
10
72.127331
20
51.037765
11
72.960694
21
51.206413
0
LINE
8
0
10
72.960694
20
51.206413
11
73.777624
21
51.037765
0
LINE
8
0
10
73.777624
20
51.037765
11
74.445419
21
50.578114
0
LINE
8
0
10
74.445419
20
50.578114
11
74.896013
21
49.896898
0
LINE
8
0
10
74.896013
20
49.896898
11
75.061337
21
49.063555
0
LINE
8
0
10
75.061337
20
49.063555
11
74.987505
21
48.531823
0
LINE
8
0
10
74.987505
20
48.531823
11
76.135690
21
48.751083
0
LINE
8
0
10
76.135690
20
48.751083
11
77.298247
21
48.512441
0
LINE
8
0
10
77.298247
20
48.512441
11
78.248607
21
47.862037
0
LINE
8
0
10
78.248607
20
47.862037
11
78.889879
21
46.898152
0
LINE
8
0
10
78.889879
20
46.898152
11
79.125168
21
45.719067
0
LINE
8
0
10
79.125168
20
45.719067
11
78.889879
21
44.556479
0
LINE
8
0
10
78.889879
20
44.556479
11
78.248607
21
43.606058
0
LINE
8
0
10
78.248607
20
43.606058
11
77.298247
21
42.964727
0
LINE
8
0
10
77.298247
20
42.964727
11
76.135690
21
42.729412
0
LINE
8
0
10
76.135690
20
42.729412
11
76.135682
21
42.729412
0
LINE
8
0
10
81.046313
20
42.729412
11
80.304319
21
42.872356
0
LINE
8
0
10
80.304319
20
42.872356
11
79.704645
21
43.264478
0
LINE
8
0
10
79.704645
20
43.264478
11
79.303569
21
43.850711
0
LINE
8
0
10
79.303569
20
43.850711
11
79.157370
21
44.575989
0
LINE
8
0
10
79.157370
20
44.575989
11
79.303569
21
45.318109
0
LINE
8
0
10
79.303569
20
45.318109
11
79.704645
21
45.917891
0
LINE
8
0
10
79.704645
20
45.917891
11
80.304319
21
46.319043
0
LINE
8
0
10
80.304319
20
46.319043
11
81.046313
21
46.465271
0
LINE
8
0
10
81.046313
20
46.465271
11
81.771658
21
46.319043
0
LINE
8
0
10
81.771658
20
46.319043
11
82.357881
21
45.917891
0
LINE
8
0
10
82.357881
20
45.917891
11
82.749962
21
45.318109
0
LINE
8
0
10
82.749962
20
45.318109
11
82.892883
21
44.575989
0
LINE
8
0
10
82.892883
20
44.575989
11
82.747540
21
43.857978
0
LINE
8
0
10
82.747540
20
43.857978
11
82.351422
21
43.270937
0
LINE
8
0
10
82.351422
20
43.270937
11
81.764392
21
42.874778
0
LINE
8
0
10
81.764392
20
42.874778
11
81.046313
21
42.729412
0
LINE
8
0
10
81.046313
20
42.729412
11
81.046313
21
42.729412
0
LINE
8
0
10
95.947538
20
36.082796
11
94.768551
21
36.318165
0
LINE
8
0
10
94.768551
20
36.318165
11
93.804714
21
36.959614
0
LINE
8
0
10
93.804714
20
36.959614
11
93.154326
21
37.910153
0
LINE
8
0
10
93.154326
20
37.910153
11
92.915686
21
39.072795
0
LINE
8
0
10
92.915686
20
39.072795
11
93.059535
21
40.011804
0
LINE
8
0
10
93.059535
20
40.011804
11
93.461280
21
40.825816
0
LINE
8
0
10
93.461280
20
40.825816
11
93.108525
21
40.859895
0
LINE
8
0
10
93.108525
20
40.859895
11
92.895190
21
40.244290
0
LINE
8
0
10
92.895190
20
40.244290
11
92.492524
21
39.749460
0
LINE
8
0
10
92.492524
20
39.749460
11
91.943473
21
39.419917
0
LINE
8
0
10
91.943473
20
39.419917
11
91.290983
21
39.300178
0
LINE
8
0
10
91.290983
20
39.300178
11
90.601328
21
39.423714
0
LINE
8
0
10
90.601328
20
39.423714
11
90.031715
21
39.764852
0
LINE
8
0
10
90.031715
20
39.764852
11
89.625109
21
40.279384
0
LINE
8
0
10
89.625109
20
40.279384
11
89.424474
21
40.923103
0
LINE
8
0
10
89.424474
20
40.923103
11
88.097381
21
38.102649
0
LINE
8
0
10
88.097381
20
38.102649
11
84.859856
21
39.530656
0
LINE
8
0
10
84.859856
20
39.530656
11
86.287848
21
42.863423
0
LINE
8
0
10
86.287848
20
42.863423
11
89.429490
21
41.427399
0
LINE
8
0
10
89.429490
20
41.427399
11
89.640921
21
42.067011
0
LINE
8
0
10
89.640921
20
42.067011
11
90.048918
21
42.576840
0
LINE
8
0
10
90.048918
20
42.576840
11
90.612575
21
42.914108
0
LINE
8
0
10
90.612575
20
42.914108
11
91.290983
21
43.036037
0
LINE
8
0
10
91.290983
20
43.036037
11
91.354673
21
43.029687
0
LINE
8
0
10
91.354673
20
43.029687
11
91.550673
21
43.826196
0
LINE
8
0
10
91.550673
20
43.826196
11
92.014194
21
44.473870
0
LINE
8
0
10
92.014194
20
44.473870
11
92.682342
21
44.909112
0
LINE
8
0
10
92.682342
20
44.909112
11
93.492223
21
45.068325
0
LINE
8
0
10
93.492223
20
45.068325
11
94.309153
21
44.899620
0
LINE
8
0
10
94.309153
20
44.899620
11
94.976949
21
44.439845
0
LINE
8
0
10
94.976949
20
44.439845
11
95.427543
21
43.758509
0
LINE
8
0
10
95.427543
20
43.758509
11
95.592867
21
42.925124
0
LINE
8
0
10
95.592867
20
42.925124
11
95.394128
21
42.053958
0
LINE
8
0
10
95.394128
20
42.053958
11
95.947538
21
42.104837
0
LINE
8
0
10
95.947538
20
42.104837
11
97.110122
21
41.866195
0
LINE
8
0
10
97.110122
20
41.866195
11
98.060541
21
41.215792
0
LINE
8
0
10
98.060541
20
41.215792
11
98.701872
21
40.251907
0
LINE
8
0
10
98.701872
20
40.251907
11
98.937188
21
39.072822
0
LINE
8
0
10
98.937188
20
39.072822
11
98.701872
21
37.910180
0
LINE
8
0
10
98.701872
20
37.910180
11
98.060541
21
36.959640
0
LINE
8
0
10
98.060541
20
36.959640
11
97.110122
21
36.318191
0
LINE
8
0
10
97.110122
20
36.318191
11
95.947538
21
36.082822
0
LINE
8
0
10
95.947538
20
36.082822
11
95.947538
21
36.082796
0
LINE
8
0
10
100.561894
20
35.151596
11
99.819899
21
35.294545
0
LINE
8
0
10
99.819899
20
35.294545
11
99.220224
21
35.686705
0
LINE
8
0
10
99.220224
20
35.686705
11
98.819147
21
36.273040
0
LINE
8
0
10
98.819147
20
36.273040
11
98.672949
21
36.998517
0
LINE
8
0
10
98.672949
20
36.998517
11
98.819147
21
37.740438
0
LINE
8
0
10
98.819147
20
37.740438
11
99.220224
21
38.340119
0
LINE
8
0
10
99.220224
20
38.340119
11
99.819899
21
38.741233
0
LINE
8
0
10
99.819899
20
38.741233
11
100.561894
21
38.887455
0
LINE
8
0
10
100.561894
20
38.887455
11
101.287239
21
38.741233
0
LINE
8
0
10
101.287239
20
38.741233
11
101.873462
21
38.340119
0
LINE
8
0
10
101.873462
20
38.340119
11
102.265544
21
37.740438
0
LINE
8
0
10
102.265544
20
37.740438
11
102.408464
21
36.998517
0
LINE
8
0
10
102.408464
20
36.998517
11
102.263122
21
36.280307
0
LINE
8
0
10
102.263122
20
36.280307
11
101.867003
21
35.693164
0
LINE
8
0
10
101.867003
20
35.693164
11
101.279973
21
35.296968
0
LINE
8
0
10
101.279973
20
35.296968
11
100.561894
21
35.151596
0
LINE
8
0
10
100.561894
20
35.151596
11
100.561894
21
35.151596
0
LINE
8
0
10
100.307990
20
40.570388
11
99.474628
21
40.735763
0
LINE
8
0
10
99.474628
20
40.735763
11
98.793356
21
41.186456
0
LINE
8
0
10
98.793356
20
41.186456
11
98.333646
21
41.854319
0
LINE
8
0
10
98.333646
20
41.854319
11
98.164971
21
42.671203
0
LINE
8
0
10
98.164971
20
42.671203
11
98.333646
21
43.504531
0
LINE
8
0
10
98.333646
20
43.504531
11
98.793356
21
44.185739
0
LINE
8
0
10
98.793356
20
44.185739
11
99.474628
21
44.645387
0
LINE
8
0
10
99.474628
20
44.645387
11
100.307990
21
44.814035
0
LINE
8
0
10
100.307990
20
44.814035
11
101.124822
21
44.645387
0
LINE
8
0
10
101.124822
20
44.645387
11
101.792567
21
44.185739
0
LINE
8
0
10
101.792567
20
44.185739
11
102.243143
21
43.504531
0
LINE
8
0
10
102.243143
20
43.504531
11
102.408464
21
42.671203
0
LINE
8
0
10
102.408464
20
42.671203
11
102.240381
21
41.862601
0
LINE
8
0
10
102.240381
20
41.862601
11
101.785203
21
41.193818
0
LINE
8
0
10
101.785203
20
41.193818
11
101.116537
21
40.738524
0
LINE
8
0
10
101.116537
20
40.738524
11
100.307990
21
40.570388
0
LINE
8
0
10
100.307990
20
40.570388
11
100.307990
21
40.570388
0
LINE
8
0
10
118.130309
20
20.588842
11
117.388314
21
20.731791
0
LINE
8
0
10
117.388314
20
20.731791
11
116.788639
21
21.123951
0
LINE
8
0
10
116.788639
20
21.123951
11
116.387564
21
21.710286
0
LINE
8
0
10
116.387564
20
21.710286
11
116.241366
21
22.435763
0
LINE
8
0
10
116.241366
20
22.435763
11
116.387564
21
23.177883
0
LINE
8
0
10
116.387564
20
23.177883
11
116.788639
21
23.777665
0
LINE
8
0
10
116.788639
20
23.777665
11
117.388314
21
24.178817
0
LINE
8
0
10
117.388314
20
24.178817
11
118.130309
21
24.325045
0
LINE
8
0
10
118.130309
20
24.325045
11
118.855654
21
24.178817
0
LINE
8
0
10
118.855654
20
24.178817
11
119.441877
21
23.777665
0
LINE
8
0
10
119.441877
20
23.777665
11
119.833958
21
23.177883
0
LINE
8
0
10
119.833958
20
23.177883
11
119.976878
21
22.435763
0
LINE
8
0
10
119.976878
20
22.435763
11
119.831536
21
21.717553
0
LINE
8
0
10
119.831536
20
21.717553
11
119.435418
21
21.130410
0
LINE
8
0
10
119.435418
20
21.130410
11
118.848387
21
20.734213
0
LINE
8
0
10
118.848387
20
20.734213
11
118.130309
21
20.588842
0
LINE
8
0
10
118.130309
20
20.588842
11
118.130309
21
20.588842
0
LINE
8
0
10
127.358847
20
20.557144
11
128.053399
21
20.409356
0
LINE
8
0
10
128.053399
20
20.409356
11
128.627803
21
20.009163
0
LINE
8
0
10
128.627803
20
20.009163
11
129.018821
21
19.421323
0
LINE
8
0
10
129.018821
20
19.421323
11
129.163213
21
18.710593
0
LINE
8
0
10
129.163213
20
18.710593
11
129.018821
21
18.016017
0
LINE
8
0
10
129.018821
20
18.016017
11
128.627803
21
17.441554
0
LINE
8
0
10
128.627803
20
17.441554
11
128.053399
21
17.050477
0
LINE
8
0
10
128.053399
20
17.050477
11
127.358847
21
16.906058
0
LINE
8
0
10
127.358847
20
16.906058
11
126.648035
21
17.050477
0
LINE
8
0
10
126.648035
20
17.050477
11
126.060198
21
17.441554
0
LINE
8
0
10
126.060198
20
17.441554
11
125.660042
21
18.016017
0
LINE
8
0
10
125.660042
20
18.016017
11
125.512278
21
18.710593
0
LINE
8
0
10
125.512278
20
18.710593
11
125.657620
21
19.428590
0
LINE
8
0
10
125.657620
20
19.428590
11
126.053738
21
20.015622
0
LINE
8
0
10
126.053738
20
20.015622
11
126.640769
21
20.411778
0
LINE
8
0
10
126.640769
20
20.411778
11
127.358847
21
20.557144
0
LINE
8
0
10
127.358847
20
20.557144
11
127.358847
21
20.557144
0
LINE
8
0
10
135.656165
20
15.816029
11
134.742674
21
15.681058
0
LINE
8
0
10
134.742674
20
15.681058
11
133.945752
21
15.301970
0
LINE
8
0
10
133.945752
20
15.301970
11
133.946811
21
15.323666
0
LINE
8
0
10
133.946811
20
15.323666
11
133.781486
21
16.157048
0
LINE
8
0
10
133.781486
20
16.157048
11
133.330892
21
16.838374
0
LINE
8
0
10
133.330892
20
16.838374
11
132.663096
21
17.298141
0
LINE
8
0
10
132.663096
20
17.298141
11
131.846164
21
17.466842
0
LINE
8
0
10
131.846164
20
17.466842
11
131.012803
21
17.298141
0
LINE
8
0
10
131.012803
20
17.298141
11
130.331531
21
16.838374
0
LINE
8
0
10
130.331531
20
16.838374
11
129.871820
21
16.157048
0
LINE
8
0
10
129.871820
20
16.157048
11
129.703145
21
15.323666
0
LINE
8
0
10
129.703145
20
15.323666
11
129.861297
21
14.534944
0
LINE
8
0
10
129.861297
20
14.534944
11
129.047752
21
13.898702
0
LINE
8
0
10
129.047752
20
13.898702
11
128.804892
21
13.432062
0
LINE
8
0
10
128.804892
20
13.432062
11
128.698084
21
12.894874
0
LINE
8
0
10
128.698084
20
12.894874
11
125.554569
21
12.894874
0
LINE
8
0
10
125.554569
20
12.894874
11
125.554569
21
12.691939
0
LINE
8
0
10
125.554569
20
12.691939
11
125.143626
21
13.736034
0
LINE
8
0
10
125.143626
20
13.736034
11
124.425393
21
14.570389
0
LINE
8
0
10
124.425393
20
14.570389
11
123.473983
21
15.123463
0
LINE
8
0
10
123.473983
20
15.123463
11
122.363510
21
15.323719
0
LINE
8
0
10
122.363510
20
15.323719
11
121.079616
21
15.063767
0
LINE
8
0
10
121.079616
20
15.063767
11
120.029885
21
14.355349
0
LINE
8
0
10
120.029885
20
14.355349
11
119.321469
21
13.305624
0
LINE
8
0
10
119.321469
20
13.305624
11
119.061519
21
12.021750
0
LINE
8
0
10
119.061519
20
12.021750
11
119.321469
21
10.762335
0
LINE
8
0
10
119.321469
20
10.762335
11
120.029885
21
9.725169
0
LINE
8
0
10
120.029885
20
9.725169
11
121.079616
21
9.021379
0
LINE
8
0
10
121.079616
20
9.021379
11
122.363510
21
8.762087
0
LINE
8
0
10
122.363510
20
8.762087
11
123.473983
21
8.961894
0
LINE
8
0
10
123.473983
20
8.961894
11
124.425393
21
9.511866
0
LINE
8
0
10
124.425393
20
9.511866
11
125.143626
21
10.337829
0
LINE
8
0
10
125.143626
20
10.337829
11
125.554569
21
11.365610
0
LINE
8
0
10
125.554569
20
11.365610
11
125.554569
21
9.286147
0
LINE
8
0
10
125.554569
20
9.286147
11
129.163129
21
9.286147
0
LINE
8
0
10
129.163129
20
9.286147
11
129.163129
21
11.556957
0
LINE
8
0
10
129.163129
20
11.556957
11
129.784404
21
11.104728
0
LINE
8
0
10
129.784404
20
11.104728
11
130.576132
21
10.937039
0
LINE
8
0
10
130.576132
20
10.937039
11
131.294210
21
11.082405
0
LINE
8
0
10
131.294210
20
11.082405
11
131.881240
21
11.478561
0
LINE
8
0
10
131.881240
20
11.478561
11
132.277359
21
12.065594
0
LINE
8
0
10
132.277359
20
12.065594
11
132.422701
21
12.783590
0
LINE
8
0
10
132.422701
20
12.783590
11
132.350031
21
13.289314
0
LINE
8
0
10
132.350031
20
13.289314
11
132.685797
21
13.406180
0
LINE
8
0
10
132.685797
20
13.406180
11
132.624239
21
12.783590
0
LINE
8
0
10
132.624239
20
12.783590
11
132.862879
21
11.621013
0
LINE
8
0
10
132.862879
20
11.621013
11
133.513265
21
10.670591
0
LINE
8
0
10
133.513265
20
10.670591
11
134.477100
21
10.029254
0
LINE
8
0
10
134.477100
20
10.029254
11
135.656086
21
9.793935
0
LINE
8
0
10
135.656086
20
9.793935
11
136.818674
21
10.029254
0
LINE
8
0
10
136.818674
20
10.029254
11
137.769095
21
10.670591
0
LINE
8
0
10
137.769095
20
10.670591
11
138.410426
21
11.621013
0
LINE
8
0
10
138.410426
20
11.621013
11
138.645741
21
12.783590
0
LINE
8
0
10
138.645741
20
12.783590
11
138.410426
21
13.962733
0
LINE
8
0
10
138.410426
20
13.962733
11
137.769095
21
14.926745
0
LINE
8
0
10
137.769095
20
14.926745
11
136.818674
21
15.577277
0
LINE
8
0
10
136.818674
20
15.577277
11
135.656086
21
15.815976
0
LINE
8
0
10
135.656086
20
15.815976
11
135.656165
21
15.816029
0
LINE
8
0
10
140.736317
20
10.937092
11
139.994223
21
11.080036
0
LINE
8
0
10
139.994223
20
11.080036
11
139.394494
21
11.472155
0
LINE
8
0
10
139.394494
20
11.472155
11
138.993397
21
12.058380
0
LINE
8
0
10
138.993397
20
12.058380
11
138.847195
21
12.783643
0
LINE
8
0
10
138.847195
20
12.783643
11
138.993397
21
13.525767
0
LINE
8
0
10
138.993397
20
13.525767
11
139.394494
21
14.125558
0
LINE
8
0
10
139.394494
20
14.125558
11
139.994223
21
14.526720
0
LINE
8
0
10
139.994223
20
14.526720
11
140.736317
21
14.672951
0
LINE
8
0
10
140.736317
20
14.672951
11
141.461658
21
14.526720
0
LINE
8
0
10
141.461658
20
14.526720
11
142.047875
21
14.125558
0
LINE
8
0
10
142.047875
20
14.125558
11
142.439951
21
13.525767
0
LINE
8
0
10
142.439951
20
13.525767
11
142.582868
21
12.783643
0
LINE
8
0
10
142.582868
20
12.783643
11
142.437528
21
12.065647
0
LINE
8
0
10
142.437528
20
12.065647
11
142.041416
21
11.478614
0
LINE
8
0
10
142.041416
20
11.478614
11
141.454392
21
11.082458
0
LINE
8
0
10
141.454392
20
11.082458
11
140.736317
21
10.937092
0
LINE
8
0
10
140.736317
20
10.937092
11
140.736317
21
10.937092
0
LINE
8
0
10
146.070178
20
20.599531
11
146.764726
21
20.451742
0
LINE
8
0
10
146.764726
20
20.451742
11
147.339125
21
20.051546
0
LINE
8
0
10
147.339125
20
20.051546
11
147.730138
21
19.463698
0
LINE
8
0
10
147.730138
20
19.463698
11
147.874528
21
18.752953
0
LINE
8
0
10
147.874528
20
18.752953
11
147.730138
21
18.058376
0
LINE
8
0
10
147.730138
20
18.058376
11
147.339125
21
17.483914
0
LINE
8
0
10
147.339125
20
17.483914
11
146.764726
21
17.092837
0
LINE
8
0
10
146.764726
20
17.092837
11
146.070178
21
16.948418
0
LINE
8
0
10
146.070178
20
16.948418
11
145.359366
21
17.092837
0
LINE
8
0
10
145.359366
20
17.092837
11
144.771525
21
17.483914
0
LINE
8
0
10
144.771525
20
17.483914
11
144.371367
21
18.058376
0
LINE
8
0
10
144.371367
20
18.058376
11
144.223601
21
18.752953
0
LINE
8
0
10
144.223601
20
18.752953
11
144.368945
21
19.470965
0
LINE
8
0
10
144.368945
20
19.470965
11
144.765066
21
20.058005
0
LINE
8
0
10
144.765066
20
20.058005
11
145.352100
21
20.454164
0
LINE
8
0
10
145.352100
20
20.454164
11
146.070178
21
20.599531
0
LINE
8
0
10
146.070178
20
20.599531
11
146.070178
21
20.599531
0
LINE
8
0
10
154.748527
20
9.793987
11
153.569534
21
10.029307
0
LINE
8
0
10
153.569534
20
10.029307
11
152.605696
21
10.670644
0
LINE
8
0
10
152.605696
20
10.670644
11
151.955309
21
11.621066
0
LINE
8
0
10
151.955309
20
11.621066
11
151.716670
21
12.783643
0
LINE
8
0
10
151.716670
20
12.783643
11
151.778265
21
13.406286
0
LINE
8
0
10
151.778265
20
13.406286
11
151.442457
21
13.289393
0
LINE
8
0
10
151.442457
20
13.289393
11
151.515138
21
12.783643
0
LINE
8
0
10
151.515138
20
12.783643
11
151.369793
21
12.065647
0
LINE
8
0
10
151.369793
20
12.065647
11
150.973672
21
11.478614
0
LINE
8
0
10
150.973672
20
11.478614
11
150.386639
21
11.082458
0
LINE
8
0
10
150.386639
20
11.082458
11
149.668560
21
10.937092
0
LINE
8
0
10
149.668560
20
10.937092
11
149.060259
21
11.032424
0
LINE
8
0
10
149.060259
20
11.032424
11
148.539660
21
11.298489
0
LINE
8
0
10
148.539660
20
11.298489
11
148.135003
21
11.705390
0
LINE
8
0
10
148.135003
20
11.705390
11
147.874528
21
12.223230
0
LINE
8
0
10
147.874528
20
12.223230
11
147.874528
21
9.370602
0
LINE
8
0
10
147.874528
20
9.370602
11
144.265987
21
9.370602
0
LINE
8
0
10
144.265987
20
9.370602
11
144.265987
21
12.937313
0
LINE
8
0
10
144.265987
20
12.937313
11
147.794677
21
12.937313
0
LINE
8
0
10
147.794677
20
12.937313
11
148.152552
21
13.914590
0
LINE
8
0
10
148.152552
20
13.914590
11
148.953736
21
14.534997
0
LINE
8
0
10
148.953736
20
14.534997
11
148.795568
21
15.323719
0
LINE
8
0
10
148.795568
20
15.323719
11
148.964245
21
16.157101
0
LINE
8
0
10
148.964245
20
16.157101
11
149.423960
21
16.838427
0
LINE
8
0
10
149.423960
20
16.838427
11
150.105239
21
17.298193
0
LINE
8
0
10
150.105239
20
17.298193
11
150.938611
21
17.466894
0
LINE
8
0
10
150.938611
20
17.466894
11
151.755442
21
17.298193
0
LINE
8
0
10
151.755442
20
17.298193
11
152.423186
21
16.838427
0
LINE
8
0
10
152.423186
20
16.838427
11
152.873761
21
16.157101
0
LINE
8
0
10
152.873761
20
16.157101
11
153.039083
21
15.323719
0
LINE
8
0
10
153.039083
20
15.323719
11
153.039083
21
15.301759
0
LINE
8
0
10
153.039083
20
15.301759
11
153.836076
21
15.680953
0
LINE
8
0
10
153.836076
20
15.680953
11
154.749691
21
15.815949
0
LINE
8
0
10
154.749691
20
15.815949
11
155.912279
21
15.577250
0
LINE
8
0
10
155.912279
20
15.577250
11
156.862701
21
14.926719
0
LINE
8
0
10
156.862701
20
14.926719
11
157.504031
21
13.962707
0
LINE
8
0
10
157.504031
20
13.962707
11
157.739347
21
12.783564
0
LINE
8
0
10
157.739347
20
12.783564
11
157.504031
21
11.620987
0
LINE
8
0
10
157.504031
20
11.620987
11
156.862701
21
10.670564
0
LINE
8
0
10
156.862701
20
10.670564
11
155.912279
21
10.029227
0
LINE
8
0
10
155.912279
20
10.029227
11
154.749691
21
9.793908
0
LINE
8
0
10
154.749691
20
9.793908
11
154.748527
21
9.793987
0
LINE
8
0
10
159.828653
20
10.937092
11
159.086534
21
11.080036
0
LINE
8
0
10
159.086534
20
11.080036
11
158.486751
21
11.472155
0
LINE
8
0
10
158.486751
20
11.472155
11
158.085599
21
12.058380
0
LINE
8
0
10
158.085599
20
12.058380
11
157.939372
21
12.783643
0
LINE
8
0
10
157.939372
20
12.783643
11
158.085599
21
13.525767
0
LINE
8
0
10
158.085599
20
13.525767
11
158.486751
21
14.125558
0
LINE
8
0
10
158.486751
20
14.125558
11
159.086534
21
14.526720
0
LINE
8
0
10
159.086534
20
14.526720
11
159.828653
21
14.672951
0
LINE
8
0
10
159.828653
20
14.672951
11
160.553931
21
14.526720
0
LINE
8
0
10
160.553931
20
14.526720
11
161.140164
21
14.125558
0
LINE
8
0
10
161.140164
20
14.125558
11
161.532286
21
13.525767
0
LINE
8
0
10
161.532286
20
13.525767
11
161.675231
21
12.783643
0
LINE
8
0
10
161.675231
20
12.783643
11
161.529864
21
12.065647
0
LINE
8
0
10
161.529864
20
12.065647
11
161.133705
21
11.478614
0
LINE
8
0
10
161.133705
20
11.478614
11
160.546665
21
11.082458
0
LINE
8
0
10
160.546665
20
11.082458
11
159.828653
21
10.937092
0
LINE
8
0
10
159.828653
20
10.937092
11
159.828653
21
10.937092
0
LINE
8
0
10
165.289461
20
20.599531
11
165.984053
21
20.451742
0
LINE
8
0
10
165.984053
20
20.451742
11
166.558523
21
20.051546
0
LINE
8
0
10
166.558523
20
20.051546
11
166.949603
21
19.463698
0
LINE
8
0
10
166.949603
20
19.463698
11
167.094023
21
18.752953
0
LINE
8
0
10
167.094023
20
18.752953
11
166.949603
21
18.058376
0
LINE
8
0
10
166.949603
20
18.058376
11
166.558523
21
17.483914
0
LINE
8
0
10
166.558523
20
17.483914
11
165.984053
21
17.092837
0
LINE
8
0
10
165.984053
20
17.092837
11
165.289461
21
16.948418
0
LINE
8
0
10
165.289461
20
16.948418
11
164.578532
21
17.092837
0
LINE
8
0
10
164.578532
20
17.092837
11
163.990590
21
17.483914
0
LINE
8
0
10
163.990590
20
17.483914
11
163.590359
21
18.058376
0
LINE
8
0
10
163.590359
20
18.058376
11
163.442566
21
18.752953
0
LINE
8
0
10
163.442566
20
18.752953
11
163.587937
21
19.470965
0
LINE
8
0
10
163.587937
20
19.470965
11
163.984131
21
20.058005
0
LINE
8
0
10
163.984131
20
20.058005
11
164.571266
21
20.454164
0
LINE
8
0
10
164.571266
20
20.454164
11
165.289461
21
20.599531
0
LINE
8
0
10
165.289461
20
20.599531
11
165.289461
21
20.599531
0
LINE
8
0
10
173.798503
20
9.793987
11
172.619418
21
10.029307
0
LINE
8
0
10
172.619418
20
10.029307
11
171.655533
21
10.670644
0
LINE
8
0
10
171.655533
20
10.670644
11
171.005129
21
11.621066
0
LINE
8
0
10
171.005129
20
11.621066
11
170.766488
21
12.783643
0
LINE
8
0
10
170.766488
20
12.783643
11
170.828003
21
13.406154
0
LINE
8
0
10
170.828003
20
13.406154
11
170.492591
21
13.289420
0
LINE
8
0
10
170.492591
20
13.289420
11
170.565272
21
12.783643
0
LINE
8
0
10
170.565272
20
12.783643
11
170.419901
21
12.065647
0
LINE
8
0
10
170.419901
20
12.065647
11
170.023707
21
11.478614
0
LINE
8
0
10
170.023707
20
11.478614
11
169.436572
21
11.082458
0
LINE
8
0
10
169.436572
20
11.082458
11
168.718377
21
10.937092
0
LINE
8
0
10
168.718377
20
10.937092
11
167.764426
21
11.186012
0
LINE
8
0
10
167.764426
20
11.186012
11
167.094023
21
11.842601
0
LINE
8
0
10
167.094023
20
11.842601
11
167.094023
21
9.328216
0
LINE
8
0
10
167.094023
20
9.328216
11
163.484925
21
9.328216
0
LINE
8
0
10
163.484925
20
9.328216
11
163.484925
21
12.937313
0
LINE
8
0
10
163.484925
20
12.937313
11
166.844468
21
12.937313
0
LINE
8
0
10
166.844468
20
12.937313
11
167.202396
21
13.914577
0
LINE
8
0
10
167.202396
20
13.914577
11
168.003553
21
14.534971
0
LINE
8
0
10
168.003553
20
14.534971
11
167.845386
21
15.323719
0
LINE
8
0
10
167.845386
20
15.323719
11
168.014087
21
16.157101
0
LINE
8
0
10
168.014087
20
16.157101
11
168.473856
21
16.838427
0
LINE
8
0
10
168.473856
20
16.838427
11
169.155190
21
17.298193
0
LINE
8
0
10
169.155190
20
17.298193
11
169.988587
21
17.466894
0
LINE
8
0
10
169.988587
20
17.466894
11
170.805472
21
17.298193
0
LINE
8
0
10
170.805472
20
17.298193
11
171.473334
21
16.838427
0
LINE
8
0
10
171.473334
20
16.838427
11
171.924028
21
16.157101
0
LINE
8
0
10
171.924028
20
16.157101
11
172.089403
21
15.323719
0
LINE
8
0
10
172.089403
20
15.323719
11
172.089403
21
15.302023
0
LINE
8
0
10
172.089403
20
15.302023
11
172.886251
21
15.681002
0
LINE
8
0
10
172.886251
20
15.681002
11
173.799641
21
15.815923
0
LINE
8
0
10
173.799641
20
15.815923
11
174.962229
21
15.577224
0
LINE
8
0
10
174.962229
20
15.577224
11
175.912650
21
14.926693
0
LINE
8
0
10
175.912650
20
14.926693
11
176.553981
21
13.962680
0
LINE
8
0
10
176.553981
20
13.962680
11
176.789296
21
12.783537
0
LINE
8
0
10
176.789296
20
12.783537
11
176.553981
21
11.620960
0
LINE
8
0
10
176.553981
20
11.620960
11
175.912650
21
10.670538
0
LINE
8
0
10
175.912650
20
10.670538
11
174.962229
21
10.029201
0
LINE
8
0
10
174.962229
20
10.029201
11
173.799641
21
9.793882
0
LINE
8
0
10
173.799641
20
9.793882
11
173.798503
21
9.793987
0
LINE
8
0
10
178.878629
20
10.937092
11
178.136510
21
11.080036
0
LINE
8
0
10
178.136510
20
11.080036
11
177.536727
21
11.472155
0
LINE
8
0
10
177.536727
20
11.472155
11
177.135575
21
12.058380
0
LINE
8
0
10
177.135575
20
12.058380
11
176.989348
21
12.783643
0
LINE
8
0
10
176.989348
20
12.783643
11
177.135575
21
13.525767
0
LINE
8
0
10
177.135575
20
13.525767
11
177.536727
21
14.125558
0
LINE
8
0
10
177.536727
20
14.125558
11
178.136510
21
14.526720
0
LINE
8
0
10
178.136510
20
14.526720
11
178.878629
21
14.672951
0
LINE
8
0
10
178.878629
20
14.672951
11
179.603907
21
14.526720
0
LINE
8
0
10
179.603907
20
14.526720
11
180.190140
21
14.125558
0
LINE
8
0
10
180.190140
20
14.125558
11
180.582262
21
13.525767
0
LINE
8
0
10
180.582262
20
13.525767
11
180.725207
21
12.783643
0
LINE
8
0
10
180.725207
20
12.783643
11
180.579840
21
12.065647
0
LINE
8
0
10
180.579840
20
12.065647
11
180.183681
21
11.478614
0
LINE
8
0
10
180.183681
20
11.478614
11
179.596641
21
11.082458
0
LINE
8
0
10
179.596641
20
11.082458
11
178.878629
21
10.937092
0
LINE
8
0
10
178.878629
20
10.937092
11
178.878629
21
10.937092
0
LINE
8
0
10
182.704420
20
26.880625
11
182.849791
21
27.598821
0
LINE
8
0
10
182.849791
20
27.598821
11
183.245985
21
28.185955
0
LINE
8
0
10
183.245985
20
28.185955
11
183.833120
21
28.582149
0
LINE
8
0
10
183.833120
20
28.582149
11
184.551315
21
28.727520
0
LINE
8
0
10
184.551315
20
28.727520
11
185.245838
21
28.579727
0
LINE
8
0
10
185.245838
20
28.579727
11
185.820182
21
28.179496
0
LINE
8
0
10
185.820182
20
28.179496
11
186.211141
21
27.591554
0
LINE
8
0
10
186.211141
20
27.591554
11
186.355506
21
26.880625
0
LINE
8
0
10
186.355506
20
26.880625
11
186.211141
21
26.186102
0
LINE
8
0
10
186.211141
20
26.186102
11
185.820182
21
25.611758
0
LINE
8
0
10
185.820182
20
25.611758
11
185.245838
21
25.220799
0
LINE
8
0
10
185.245838
20
25.220799
11
184.551315
21
25.076434
0
LINE
8
0
10
184.551315
20
25.076434
11
183.840386
21
25.220799
0
LINE
8
0
10
183.840386
20
25.220799
11
183.252444
21
25.611758
0
LINE
8
0
10
183.252444
20
25.611758
11
182.852213
21
26.186102
0
LINE
8
0
10
182.852213
20
26.186102
11
182.704420
21
26.880625
0
LINE
8
0
10
182.704420
20
26.880625
11
182.704420
21
26.880625
0
LINE
8
0
10
195.430915
20
22.112945
11
194.455187
21
22.271848
0
LINE
8
0
10
194.455187
20
22.271848
11
193.610968
21
22.713331
0
LINE
8
0
10
193.610968
20
22.713331
11
192.951613
21
23.384554
0
LINE
8
0
10
192.951613
20
23.384554
11
192.530477
21
24.232679
0
LINE
8
0
10
192.530477
20
24.232679
11
192.305925
21
23.978732
0
LINE
8
0
10
192.305925
20
23.978732
11
192.691803
21
23.382587
0
LINE
8
0
10
192.691803
20
23.382587
11
192.832631
21
22.647297
0
LINE
8
0
10
192.832631
20
22.647297
11
192.687259
21
21.929286
0
LINE
8
0
10
192.687259
20
21.929286
11
192.291062
21
21.342245
0
LINE
8
0
10
192.291062
20
21.342245
11
191.703919
21
20.946086
0
LINE
8
0
10
191.703919
20
20.946086
11
190.985709
21
20.800720
0
LINE
8
0
10
190.985709
20
20.800720
11
190.101003
21
21.010828
0
LINE
8
0
10
190.101003
20
21.010828
11
189.445174
21
21.572429
0
LINE
8
0
10
189.445174
20
21.572429
11
190.544067
21
19.375146
0
LINE
8
0
10
190.544067
20
19.375146
11
187.400424
21
17.754919
0
LINE
8
0
10
187.400424
20
17.754919
11
185.685794
21
20.898906
0
LINE
8
0
10
185.685794
20
20.898906
11
188.924872
21
22.612849
0
LINE
8
0
10
188.924872
20
22.612849
11
189.197948
21
22.066776
0
LINE
8
0
10
189.197948
20
22.066776
11
189.096772
21
22.647297
0
LINE
8
0
10
189.096772
20
22.647297
11
189.211415
21
23.296187
0
LINE
8
0
10
189.211415
20
23.296187
11
189.524100
21
23.843160
0
LINE
8
0
10
189.524100
20
23.843160
11
188.935475
21
24.558986
0
LINE
8
0
10
188.935475
20
24.558986
11
188.715746
21
25.483627
0
LINE
8
0
10
188.715746
20
25.483627
11
188.884447
21
26.317024
0
LINE
8
0
10
188.884447
20
26.317024
11
189.344216
21
26.998358
0
LINE
8
0
10
189.344216
20
26.998358
11
190.025550
21
27.458127
0
LINE
8
0
10
190.025550
20
27.458127
11
190.858947
21
27.626829
0
LINE
8
0
10
190.858947
20
27.626829
11
191.440846
21
27.543034
0
LINE
8
0
10
191.440846
20
27.543034
11
191.960148
21
27.307431
0
LINE
8
0
10
191.960148
20
27.307431
11
192.393973
21
26.943686
0
LINE
8
0
10
192.393973
20
26.943686
11
192.719442
21
26.475469
0
LINE
8
0
10
192.719442
20
26.475469
11
193.182006
21
27.153102
0
LINE
8
0
10
193.182006
20
27.153102
11
193.809074
21
27.677080
0
LINE
8
0
10
193.809074
20
27.677080
11
194.569195
21
28.015132
0
LINE
8
0
10
194.569195
20
28.015132
11
195.430915
21
28.134987
0
LINE
8
0
10
195.430915
20
28.134987
11
196.593503
21
27.896341
0
LINE
8
0
10
196.593503
20
27.896341
11
197.543924
21
27.245928
0
LINE
8
0
10
197.543924
20
27.245928
11
198.185255
21
26.282034
0
LINE
8
0
10
198.185255
20
26.282034
11
198.420571
21
25.102945
0
LINE
8
0
10
198.420571
20
25.102945
11
198.185255
21
23.940314
0
LINE
8
0
10
198.185255
20
23.940314
11
197.543924
21
22.989774
0
LINE
8
0
10
197.543924
20
22.989774
11
196.593503
21
22.348318
0
LINE
8
0
10
196.593503
20
22.348318
11
195.430915
21
22.112945
0
LINE
8
0
10
195.430915
20
22.112945
11
195.430915
21
22.112945
0
LINE
8
0
10
199.875777
20
25.711354
11
199.133857
21
25.854298
0
LINE
8
0
10
199.133857
20
25.854298
11
198.534176
21
26.246420
0
LINE
8
0
10
198.534176
20
26.246420
11
198.133061
21
26.832653
0
LINE
8
0
10
198.133061
20
26.832653
11
197.986840
21
27.557931
0
LINE
8
0
10
197.986840
20
27.557931
11
198.133061
21
28.300051
0
LINE
8
0
10
198.133061
20
28.300051
11
198.534176
21
28.899833
0
LINE
8
0
10
198.534176
20
28.899833
11
199.133857
21
29.300986
0
LINE
8
0
10
199.133857
20
29.300986
11
199.875777
21
29.447213
0
LINE
8
0
10
199.875777
20
29.447213
11
200.601254
21
29.300986
0
LINE
8
0
10
200.601254
20
29.300986
11
201.187590
21
28.899833
0
LINE
8
0
10
201.187590
20
28.899833
11
201.579749
21
28.300051
0
LINE
8
0
10
201.579749
20
28.300051
11
201.722699
21
27.557931
0
LINE
8
0
10
201.722699
20
27.557931
11
201.577327
21
26.839920
0
LINE
8
0
10
201.577327
20
26.839920
11
201.181130
21
26.252879
0
LINE
8
0
10
201.181130
20
26.252879
11
200.593988
21
25.856720
0
LINE
8
0
10
200.593988
20
25.856720
11
199.875777
21
25.711354
0
LINE
8
0
10
199.875777
20
25.711354
11
199.875777
21
25.711354
0
LINE
8
0
10
211.448532
20
44.703121
11
211.617233
21
45.536503
0
LINE
8
0
10
211.617233
20
45.536503
11
212.076999
21
46.217829
0
LINE
8
0
10
212.076999
20
46.217829
11
212.758325
21
46.677596
0
LINE
8
0
10
212.758325
20
46.677596
11
213.591707
21
46.846297
0
LINE
8
0
10
213.591707
20
46.846297
11
214.408591
21
46.677596
0
LINE
8
0
10
214.408591
20
46.677596
11
215.076454
21
46.217829
0
LINE
8
0
10
215.076454
20
46.217829
11
215.527147
21
45.536503
0
LINE
8
0
10
215.527147
20
45.536503
11
215.692522
21
44.703121
0
LINE
8
0
10
215.692522
20
44.703121
11
215.524386
21
43.894515
0
LINE
8
0
10
215.524386
20
43.894515
11
215.069092
21
43.225723
0
LINE
8
0
10
215.069092
20
43.225723
11
214.400309
21
42.770419
0
LINE
8
0
10
214.400309
20
42.770419
11
213.591707
21
42.602279
0
LINE
8
0
10
213.591707
20
42.602279
11
212.758325
21
42.767655
0
LINE
8
0
10
212.758325
20
42.767655
11
212.076999
21
43.218351
0
LINE
8
0
10
212.076999
20
43.218351
11
211.617233
21
43.886222
0
LINE
8
0
10
211.617233
20
43.886222
11
211.448532
21
44.703121
0
LINE
8
0
10
211.448532
20
44.703121
11
211.448532
21
44.703121
0
LINE
8
0
10
217.994553
20
39.215776
11
217.252430
21
39.358720
0
LINE
8
0
10
217.252430
20
39.358720
11
216.652638
21
39.750839
0
LINE
8
0
10
216.652638
20
39.750839
11
216.251477
21
40.337064
0
LINE
8
0
10
216.251477
20
40.337064
11
216.105245
21
41.062327
0
LINE
8
0
10
216.105245
20
41.062327
11
216.251477
21
41.804450
0
LINE
8
0
10
216.251477
20
41.804450
11
216.652638
21
42.404242
0
LINE
8
0
10
216.652638
20
42.404242
11
217.252430
21
42.805404
0
LINE
8
0
10
217.252430
20
42.805404
11
217.994553
21
42.951635
0
LINE
8
0
10
217.994553
20
42.951635
11
218.719816
21
42.805404
0
LINE
8
0
10
218.719816
20
42.805404
11
219.306042
21
42.404242
0
LINE
8
0
10
219.306042
20
42.404242
11
219.698161
21
41.804450
0
LINE
8
0
10
219.698161
20
41.804450
11
219.841104
21
41.062327
0
LINE
8
0
10
219.841104
20
41.062327
11
219.695738
21
40.344331
0
LINE
8
0
10
219.695738
20
40.344331
11
219.299582
21
39.757298
0
LINE
8
0
10
219.299582
20
39.757298
11
218.712550
21
39.361142
0
LINE
8
0
10
218.712550
20
39.361142
11
217.994553
21
39.215776
0
LINE
8
0
10
217.994553
20
39.215776
11
217.994553
21
39.215776
0
LINE
8
0
10
221.735572
20
48.978809
11
221.880943
21
49.696821
0
LINE
8
0
10
221.880943
20
49.696821
11
222.277140
21
50.283861
0
LINE
8
0
10
222.277140
20
50.283861
11
222.864283
21
50.680020
0
LINE
8
0
10
222.864283
20
50.680020
11
223.582493
21
50.825387
0
LINE
8
0
10
223.582493
20
50.825387
11
224.277070
21
50.677598
0
LINE
8
0
10
224.277070
20
50.677598
11
224.851533
21
50.277402
0
LINE
8
0
10
224.851533
20
50.277402
11
225.242609
21
49.689554
0
LINE
8
0
10
225.242609
20
49.689554
11
225.387029
21
48.978809
0
LINE
8
0
10
225.387029
20
48.978809
11
225.242609
21
48.284232
0
LINE
8
0
10
225.242609
20
48.284232
11
224.851533
21
47.709770
0
LINE
8
0
10
224.851533
20
47.709770
11
224.277070
21
47.318693
0
LINE
8
0
10
224.277070
20
47.318693
11
223.582493
21
47.174274
0
LINE
8
0
10
223.582493
20
47.174274
11
222.871549
21
47.318693
0
LINE
8
0
10
222.871549
20
47.318693
11
222.283599
21
47.709770
0
LINE
8
0
10
222.283599
20
47.709770
11
221.883366
21
48.284232
0
LINE
8
0
10
221.883366
20
48.284232
11
221.735572
21
48.978809
0
LINE
8
0
10
221.735572
20
48.978809
11
221.735572
21
48.978809
0
LINE
8
0
10
233.149841
20
42.687052
11
231.985835
21
42.916370
0
LINE
8
0
10
231.985835
20
42.916370
11
231.030389
21
43.542207
0
LINE
8
0
10
231.030389
20
43.542207
11
230.377426
21
44.471391
0
LINE
8
0
10
230.377426
20
44.471391
11
230.120868
21
45.610747
0
LINE
8
0
10
230.120868
20
45.610747
11
229.823768
21
45.421993
0
LINE
8
0
10
229.823768
20
45.421993
11
230.043398
21
44.533603
0
LINE
8
0
10
230.043398
20
44.533603
11
229.898032
21
43.815607
0
LINE
8
0
10
229.898032
20
43.815607
11
229.501876
21
43.228574
0
LINE
8
0
10
229.501876
20
43.228574
11
228.914844
21
42.832418
0
LINE
8
0
10
228.914844
20
42.832418
11
228.196847
21
42.687052
0
LINE
8
0
10
228.196847
20
42.687052
11
227.365035
21
42.873517
0
LINE
8
0
10
227.365035
20
42.873517
11
226.727909
21
43.373195
0
LINE
8
0
10
226.727909
20
43.373195
11
227.505756
21
40.174889
0
LINE
8
0
10
227.505756
20
40.174889
11
223.984183
21
39.413525
0
LINE
8
0
10
223.984183
20
39.413525
11
223.130480
21
42.923721
0
LINE
8
0
10
223.130480
20
42.923721
11
226.535240
21
43.659818
0
LINE
8
0
10
226.535240
20
43.659818
11
226.307539
21
44.533603
0
LINE
8
0
10
226.307539
20
44.533603
11
226.527319
21
45.429587
0
LINE
8
0
10
226.527319
20
45.429587
11
227.114862
21
46.089113
0
LINE
8
0
10
227.114862
20
46.089113
11
226.832409
21
46.648114
0
LINE
8
0
10
226.832409
20
46.648114
11
226.730952
21
47.285557
0
LINE
8
0
10
226.730952
20
47.285557
11
226.899653
21
48.118885
0
LINE
8
0
10
226.899653
20
48.118885
11
227.359422
21
48.800093
0
LINE
8
0
10
227.359422
20
48.800093
11
228.040757
21
49.259741
0
LINE
8
0
10
228.040757
20
49.259741
11
228.874153
21
49.428389
0
LINE
8
0
10
228.874153
20
49.428389
11
229.587534
21
49.301022
0
LINE
8
0
10
229.587534
20
49.301022
11
230.196132
21
48.948924
0
LINE
8
0
10
230.196132
20
48.948924
11
230.656126
21
48.417103
0
LINE
8
0
10
230.656126
20
48.417103
11
230.923693
21
47.750562
0
LINE
8
0
10
230.923693
20
47.750562
11
231.909330
21
48.451366
0
LINE
8
0
10
231.909330
20
48.451366
11
233.149841
21
48.708723
0
LINE
8
0
10
233.149841
20
48.708723
11
234.312429
21
48.470081
0
LINE
8
0
10
234.312429
20
48.470081
11
235.262850
21
47.819674
0
LINE
8
0
10
235.262850
20
47.819674
11
235.904181
21
46.855781
0
LINE
8
0
10
235.904181
20
46.855781
11
236.139497
21
45.676681
0
LINE
8
0
10
236.139497
20
45.676681
11
235.904181
21
44.514108
0
LINE
8
0
10
235.904181
20
44.514108
11
235.262850
21
43.563695
0
LINE
8
0
10
235.262850
20
43.563695
11
234.312429
21
42.922367
0
LINE
8
0
10
234.312429
20
42.922367
11
233.149841
21
42.687052
0
LINE
8
0
10
233.149841
20
42.687052
11
233.149841
21
42.687052
0
LINE
8
0
10
238.102861
20
44.972864
11
237.360738
21
45.115813
0
LINE
8
0
10
237.360738
20
45.115813
11
236.760946
21
45.507973
0
LINE
8
0
10
236.760946
20
45.507973
11
236.359785
21
46.094308
0
LINE
8
0
10
236.359785
20
46.094308
11
236.213553
21
46.819785
0
LINE
8
0
10
236.213553
20
46.819785
11
236.359785
21
47.561706
0
LINE
8
0
10
236.359785
20
47.561706
11
236.760946
21
48.161387
0
LINE
8
0
10
236.760946
20
48.161387
11
237.360738
21
48.562501
0
LINE
8
0
10
237.360738
20
48.562501
11
238.102861
21
48.708723
0
LINE
8
0
10
238.102861
20
48.708723
11
238.828124
21
48.562501
0
LINE
8
0
10
238.828124
20
48.562501
11
239.414350
21
48.161387
0
LINE
8
0
10
239.414350
20
48.161387
11
239.806469
21
47.561706
0
LINE
8
0
10
239.806469
20
47.561706
11
239.949412
21
46.819785
0
LINE
8
0
10
239.949412
20
46.819785
11
239.804046
21
46.101575
0
LINE
8
0
10
239.804046
20
46.101575
11
239.407890
21
45.514432
0
LINE
8
0
10
239.407890
20
45.514432
11
238.820858
21
45.118236
0
LINE
8
0
10
238.820858
20
45.118236
11
238.102861
21
44.972864
0
LINE
8
0
10
238.102861
20
44.972864
11
238.102861
21
44.972864
0
LINE
8
0
10
295.760577
20
75.537704
11
294.927249
21
75.703028
0
LINE
8
0
10
294.927249
20
75.703028
11
294.246041
21
76.153623
0
LINE
8
0
10
294.246041
20
76.153623
11
293.786393
21
76.821423
0
LINE
8
0
10
293.786393
20
76.821423
11
293.617746
21
77.638360
0
LINE
8
0
10
293.617746
20
77.638360
11
293.786393
21
78.471717
0
LINE
8
0
10
293.786393
20
78.471717
11
294.246041
21
79.152989
0
LINE
8
0
10
294.246041
20
79.152989
11
294.927249
21
79.612701
0
LINE
8
0
10
294.927249
20
79.612701
11
295.760577
21
79.781377
0
LINE
8
0
10
295.760577
20
79.781377
11
296.577461
21
79.612701
0
LINE
8
0
10
296.577461
20
79.612701
11
297.245324
21
79.152989
0
LINE
8
0
10
297.245324
20
79.152989
11
297.696017
21
78.471717
0
LINE
8
0
10
297.696017
20
78.471717
11
297.861392
21
77.638360
0
LINE
8
0
10
297.861392
20
77.638360
11
297.693257
21
76.829705
0
LINE
8
0
10
297.693257
20
76.829705
11
297.237962
21
76.160985
0
LINE
8
0
10
297.237962
20
76.160985
11
296.569179
21
75.705789
0
LINE
8
0
10
296.569179
20
75.705789
11
295.760577
21
75.537704
0
LINE
8
0
10
295.760577
20
75.537704
11
295.760577
21
75.537704
0
LINE
8
0
10
299.147451
20
71.219815
11
298.405332
21
71.362733
0
LINE
8
0
10
298.405332
20
71.362733
11
297.805549
21
71.754808
0
LINE
8
0
10
297.805549
20
71.754808
11
297.404397
21
72.341025
0
LINE
8
0
10
297.404397
20
72.341025
11
297.258170
21
73.066366
0
LINE
8
0
10
297.258170
20
73.066366
11
297.404397
21
73.808365
0
LINE
8
0
10
297.404397
20
73.808365
11
297.805549
21
74.408037
0
LINE
8
0
10
297.805549
20
74.408037
11
298.405332
21
74.809108
0
LINE
8
0
10
298.405332
20
74.809108
11
299.147451
21
74.955303
0
LINE
8
0
10
299.147451
20
74.955303
11
299.872729
21
74.809108
0
LINE
8
0
10
299.872729
20
74.809108
11
300.458962
21
74.408037
0
LINE
8
0
10
300.458962
20
74.408037
11
300.851084
21
73.808365
0
LINE
8
0
10
300.851084
20
73.808365
11
300.994029
21
73.066366
0
LINE
8
0
10
300.994029
20
73.066366
11
300.848662
21
72.348292
0
LINE
8
0
10
300.848662
20
72.348292
11
300.452503
21
71.761267
0
LINE
8
0
10
300.452503
20
71.761267
11
299.865463
21
71.365155
0
LINE
8
0
10
299.865463
20
71.365155
11
299.147451
21
71.219815
0
LINE
8
0
10
299.147451
20
71.219815
11
299.147451
21
71.219815
0
LINE
8
0
10
309.546198
20
65.785068
11
299.597930
21
121.241639
0
LINE
8
0
10
299.597930
20
121.241639
11
299.230133
21
122.238455
0
LINE
8
0
10
299.230133
20
122.238455
11
298.560728
21
123.024928
0
LINE
8
0
10
298.560728
20
123.024928
11
297.669079
21
123.533589
0
LINE
8
0
10
297.669079
20
123.533589
11
296.634547
21
123.696969
0
LINE
8
0
10
296.634547
20
123.696969
11
236.690676
21
123.569969
0
LINE
8
0
10
236.690676
20
123.569969
11
236.436623
21
123.527636
0
LINE
8
0
10
236.436623
20
123.527636
11
218.572032
21
120.310307
0
LINE
8
0
10
218.572032
20
120.310307
11
218.148663
21
120.125098
0
LINE
8
0
10
218.148663
20
120.125098
11
217.852313
21
119.717641
0
LINE
8
0
10
217.852313
20
119.717641
11
217.048034
21
117.812669
0
LINE
8
0
10
217.048034
20
117.812669
11
207.406629
21
115.822582
0
LINE
8
0
10
207.406629
20
115.822582
11
207.442242
21
115.681506
0
LINE
8
0
10
207.442242
20
115.681506
11
207.936483
21
113.203739
0
LINE
8
0
10
207.936483
20
113.203739
11
207.934600
21
112.399985
0
LINE
8
0
10
207.934600
20
112.399985
11
207.635051
21
111.684190
0
LINE
8
0
10
207.635051
20
111.684190
11
207.088953
21
111.132944
0
LINE
8
0
10
207.088953
20
111.132944
11
206.347424
21
110.822836
0
LINE
8
0
10
206.347424
20
110.822836
11
198.680206
21
109.293520
0
LINE
8
0
10
198.680206
20
109.293520
11
197.876447
21
109.295404
0
LINE
8
0
10
197.876447
20
109.295404
11
197.160646
21
109.594953
0
LINE
8
0
10
197.160646
20
109.594953
11
196.609399
21
110.141051
0
LINE
8
0
10
196.609399
20
110.141051
11
196.299303
21
110.882579
0
LINE
8
0
10
196.299303
20
110.882579
11
195.805088
21
113.360346
0
LINE
8
0
10
195.805088
20
113.360346
11
195.795299
21
113.425883
0
LINE
8
0
10
195.795299
20
113.425883
11
184.027943
21
110.996985
0
LINE
8
0
10
184.027943
20
110.996985
11
183.133653
21
111.002280
0
LINE
8
0
10
183.133653
20
111.002280
11
182.334612
21
111.420344
0
LINE
8
0
10
182.334612
20
111.420344
11
175.772954
21
117.050644
0
LINE
8
0
10
175.772954
20
117.050644
11
174.894535
21
117.643310
0
LINE
8
0
10
174.894535
20
117.643310
11
173.952596
21
117.854976
0
LINE
8
0
10
173.952596
20
117.854976
11
172.936624
21
117.854976
0
LINE
8
0
10
172.936624
20
117.854976
11
165.755524
21
117.821348
0
LINE
8
0
10
165.755524
20
117.821348
11
165.755524
21
117.836429
0
LINE
8
0
10
165.755524
20
117.836429
11
144.723001
21
117.836429
0
LINE
8
0
10
144.723001
20
117.836429
11
136.741696
21
117.854950
0
LINE
8
0
10
136.741696
20
117.854950
11
135.725671
21
117.854950
0
LINE
8
0
10
135.725671
20
117.854950
11
134.783753
21
117.643283
0
LINE
8
0
10
134.783753
20
117.643283
11
133.905340
21
117.050618
0
LINE
8
0
10
133.905340
20
117.050618
11
127.343689
21
111.420318
0
LINE
8
0
10
127.343689
20
111.420318
11
126.537711
21
111.063554
0
LINE
8
0
10
126.537711
20
111.063554
11
125.650342
21
110.996958
0
LINE
8
0
10
125.650342
20
110.996958
11
92.630392
21
117.812643
0
LINE
8
0
10
92.630392
20
117.812643
11
91.826070
21
119.759947
0
LINE
8
0
10
91.826070
20
119.759947
11
91.529728
21
120.130364
0
LINE
8
0
10
91.529728
20
120.130364
11
91.106391
21
120.310280
0
LINE
8
0
10
91.106391
20
120.310280
11
73.241763
21
123.569943
0
LINE
8
0
10
73.241763
20
123.569943
11
72.987753
21
123.569943
0
LINE
8
0
10
72.987753
20
123.569943
11
13.043833
21
123.739276
0
LINE
8
0
10
13.043833
20
123.739276
11
12.015265
21
123.551422
0
LINE
8
0
10
12.015265
20
123.551422
11
11.133542
21
123.030193
0
LINE
8
0
10
11.133542
20
123.030193
11
10.466130
21
122.239090
0
LINE
8
0
10
10.466130
20
122.239090
11
10.080496
21
121.241612
0
LINE
8
0
10
10.080496
20
121.241612
11
0.174524
21
65.827375
0
LINE
8
0
10
0.174524
20
65.827375
11
0.194362
21
64.623522
0
LINE
8
0
10
0.194362
20
64.623522
11
0.650764
21
63.562541
0
LINE
8
0
10
0.650764
20
63.562541
11
1.472292
21
62.755555
0
LINE
8
0
10
1.472292
20
62.755555
11
2.587508
21
62.313686
0
LINE
8
0
10
2.587508
20
62.313686
11
41.491803
21
55.074696
0
LINE
8
0
10
41.491803
20
55.074696
11
42.253791
21
55.117055
0
LINE
8
0
10
42.253791
20
55.117055
11
50.720447
21
56.852720
0
LINE
8
0
10
50.720447
20
56.852720
11
51.482460
21
56.895053
0
LINE
8
0
10
51.482460
20
56.895053
11
61.430786
21
53.847030
0
LINE
8
0
10
61.430786
20
53.847030
11
62.007564
21
53.503082
0
LINE
8
0
10
62.007564
20
53.503082
11
62.235107
21
52.873365
0
LINE
8
0
10
62.235107
20
52.873365
11
58.848453
21
35.728413
0
LINE
8
0
10
58.848453
20
35.728413
11
58.986025
21
35.008747
0
LINE
8
0
10
58.986025
20
35.008747
11
59.568111
21
34.543081
0
LINE
8
0
10
59.568111
20
34.543081
11
94.789386
21
23.621069
0
LINE
8
0
10
94.789386
20
23.621069
11
95.244481
21
23.335319
0
LINE
8
0
10
95.244481
20
23.335319
11
95.509065
21
22.859070
0
LINE
8
0
10
95.509065
20
22.859070
11
99.022714
21
14.688746
0
LINE
8
0
10
99.022714
20
14.688746
11
99.192052
21
14.344789
0
LINE
8
0
10
99.192052
20
14.344789
11
99.488383
21
14.096081
0
LINE
8
0
10
99.488383
20
14.096081
11
123.025697
21
1.015097
0
LINE
8
0
10
123.025697
20
1.015097
11
124.295691
21
0.422431
0
LINE
8
0
10
124.295691
20
0.422431
11
125.692694
21
0.210765
0
LINE
8
0
10
125.692694
20
0.210765
11
127.259004
21
0.210765
0
LINE
8
0
10
127.259004
20
0.210765
11
154.817980
21
0.126098
0
LINE
8
0
10
154.817980
20
0.126098
11
182.419252
21
0.210765
0
LINE
8
0
10
182.419252
20
0.210765
11
183.985610
21
0.210765
0
LINE
8
0
10
183.985610
20
0.210765
11
185.387900
21
0.406556
0
LINE
8
0
10
185.387900
20
0.406556
11
186.694940
21
1.015097
0
LINE
8
0
10
186.694940
20
1.015097
11
210.232244
21
14.096081
0
LINE
8
0
10
210.232244
20
14.096081
11
210.655576
21
14.688746
0
LINE
8
0
10
210.655576
20
14.688746
11
214.169212
21
22.859070
0
LINE
8
0
10
214.169212
20
22.859070
11
214.433818
21
23.314156
0
LINE
8
0
10
214.433818
20
23.314156
11
214.888904
21
23.578762
0
LINE
8
0
10
214.888904
20
23.578762
11
250.110193
21
34.543081
0
LINE
8
0
10
250.110193
20
34.543081
11
250.692286
21
34.971706
0
LINE
8
0
10
250.692286
20
34.971706
11
250.829859
21
35.686080
0
LINE
8
0
10
250.829859
20
35.686080
11
247.443197
21
52.873365
0
LINE
8
0
10
247.443197
20
52.873365
11
247.670738
21
53.503082
0
LINE
8
0
10
247.670738
20
53.503082
11
248.247529
21
53.847030
0
LINE
8
0
10
248.247529
20
53.847030
11
258.195823
21
56.852720
0
LINE
8
0
10
258.195823
20
56.852720
11
258.957849
21
56.852720
0
LINE
8
0
10
258.957849
20
56.852720
11
267.424505
21
55.074696
0
LINE
8
0
10
267.424505
20
55.074696
11
268.186477
21
55.074696
0
LINE
8
0
10
268.186477
20
55.074696
11
307.090788
21
62.313686
0
LINE
8
0
10
307.090788
20
62.313686
11
308.206652
21
62.754894
0
LINE
8
0
10
308.206652
20
62.754894
11
309.032804
21
63.557250
0
LINE
8
0
10
309.032804
20
63.557250
11
309.501775
21
64.605663
0
LINE
8
0
10
309.501775
20
64.605663
11
309.546092
21
65.785042
0
LINE
8
0
10
309.546092
20
65.785042
11
309.546198
21
65.785068
0
LINE
8
0
10
294.152071
20
75.251584
11
293.569195
21
75.196577
0
LINE
8
0
10
293.569195
20
75.196577
11
291.235837
21
88.060470
0
LINE
8
0
10
291.235837
20
88.060470
11
292.246074
21
88.398987
0
LINE
8
0
10
292.246074
20
88.398987
11
293.058900
21
89.052841
0
LINE
8
0
10
293.058900
20
89.052841
11
293.600631
21
89.949305
0
LINE
8
0
10
293.600631
20
89.949305
11
293.797583
21
91.015650
0
LINE
8
0
10
293.797583
20
91.015650
11
293.562210
21
92.194736
0
LINE
8
0
10
293.562210
20
92.194736
11
292.920755
21
93.158620
0
LINE
8
0
10
292.920755
20
93.158620
11
291.970214
21
93.809024
0
LINE
8
0
10
291.970214
20
93.809024
11
290.807583
21
94.047666
0
LINE
8
0
10
290.807583
20
94.047666
11
290.324904
21
94.007317
0
LINE
8
0
10
290.324904
20
94.007317
11
289.021807
21
101.627439
0
LINE
8
0
10
289.021807
20
101.627439
11
288.782386
21
101.586482
0
LINE
8
0
10
288.782386
20
101.586482
11
287.843195
21
106.764186
0
LINE
8
0
10
287.843195
20
106.764186
11
288.870908
21
107.092564
0
LINE
8
0
10
288.870908
20
107.092564
11
289.699172
21
107.746087
0
LINE
8
0
10
289.699172
20
107.746087
11
290.251916
21
108.649352
0
LINE
8
0
10
290.251916
20
108.649352
11
290.453068
21
109.726960
0
LINE
8
0
10
290.453068
20
109.726960
11
290.217753
21
110.906049
0
LINE
8
0
10
290.217753
20
110.906049
11
289.576426
21
111.869943
0
LINE
8
0
10
289.576426
20
111.869943
11
288.626012
21
112.520356
0
LINE
8
0
10
288.626012
20
112.520356
11
287.463439
21
112.759002
0
LINE
8
0
10
287.463439
20
112.759002
11
286.770285
21
112.679177
0
LINE
8
0
10
286.770285
20
112.679177
11
286.213496
21
115.748843
0
LINE
8
0
10
286.213496
20
115.748843
11
272.006156
21
113.171804
0
LINE
8
0
10
272.006156
20
113.171804
11
271.288892
21
113.765029
0
LINE
8
0
10
271.288892
20
113.765029
11
270.360609
21
113.986641
0
LINE
8
0
10
270.360609
20
113.986641
11
269.680144
21
113.875791
0
LINE
8
0
10
269.680144
20
113.875791
11
269.089665
21
113.567465
0
LINE
8
0
10
269.089665
20
113.567465
11
268.625223
21
113.097993
0
LINE
8
0
10
268.625223
20
113.097993
11
268.322870
21
112.503706
0
LINE
8
0
10
268.322870
20
112.503706
11
255.257920
21
110.133862
0
LINE
8
0
10
255.257920
20
110.133862
11
255.528112
21
111.081757
0
LINE
8
0
10
255.528112
20
111.081757
11
255.385169
21
111.823716
0
LINE
8
0
10
255.385169
20
111.823716
11
254.993050
21
112.423325
0
LINE
8
0
10
254.993050
20
112.423325
11
254.406824
21
112.824339
0
LINE
8
0
10
254.406824
20
112.824339
11
253.681561
21
112.970510
0
LINE
8
0
10
253.681561
20
112.970510
11
252.939438
21
112.824339
0
LINE
8
0
10
252.939438
20
112.824339
11
252.339646
21
112.423325
0
LINE
8
0
10
252.339646
20
112.423325
11
251.938485
21
111.823716
0
LINE
8
0
10
251.938485
20
111.823716
11
251.792253
21
111.081757
0
LINE
8
0
10
251.792253
20
111.081757
11
251.986788
21
110.260736
0
LINE
8
0
10
251.986788
20
110.260736
11
252.507712
21
109.635017
0
LINE
8
0
10
252.507712
20
109.635017
11
251.583127
21
109.467325
0
LINE
8
0
10
251.583127
20
109.467325
11
251.675810
21
110.192573
0
LINE
8
0
10
251.675810
20
110.192573
11
251.440495
21
111.371658
0
LINE
8
0
10
251.440495
20
111.371658
11
250.799168
21
112.335543
0
LINE
8
0
10
250.799168
20
112.335543
11
249.848754
21
112.985947
0
LINE
8
0
10
249.848754
20
112.985947
11
248.686181
21
113.224589
0
LINE
8
0
10
248.686181
20
113.224589
11
247.515656
21
112.997487
0
LINE
8
0
10
247.515656
20
112.997487
11
246.563749
21
112.374404
0
LINE
8
0
10
246.563749
20
112.374404
11
246.315025
21
113.078787
0
LINE
8
0
10
246.315025
20
113.078787
11
245.855008
21
113.643867
0
LINE
8
0
10
245.855008
20
113.643867
11
245.232227
21
114.019608
0
LINE
8
0
10
245.232227
20
114.019608
11
244.495213
21
114.155974
0
LINE
8
0
10
244.495213
20
114.155974
11
243.661832
21
113.987297
0
LINE
8
0
10
243.661832
20
113.987297
11
242.980505
21
113.527586
0
LINE
8
0
10
242.980505
20
113.527586
11
242.520739
21
112.846314
0
LINE
8
0
10
242.520739
20
112.846314
11
242.352038
21
112.012957
0
LINE
8
0
10
242.352038
20
112.012957
11
242.438451
21
111.425490
0
LINE
8
0
10
242.438451
20
111.425490
11
242.679565
21
110.902079
0
LINE
8
0
10
242.679565
20
110.902079
11
242.041854
21
110.235075
0
LINE
8
0
10
242.041854
20
110.235075
11
241.801493
21
109.303733
0
LINE
8
0
10
241.801493
20
109.303733
11
242.005672
21
108.462210
0
LINE
8
0
10
242.005672
20
108.462210
11
242.551719
21
107.829106
0
LINE
8
0
10
242.551719
20
107.829106
11
242.209454
21
107.767035
0
LINE
8
0
10
242.209454
20
107.767035
11
241.583517
21
108.316822
0
LINE
8
0
10
241.583517
20
108.316822
11
240.769699
21
108.525674
0
LINE
8
0
10
240.769699
20
108.525674
11
240.169864
21
108.424692
0
LINE
8
0
10
240.169864
20
108.424692
11
239.653853
21
108.144694
0
LINE
8
0
10
239.653853
20
108.144694
11
239.253998
21
107.720105
0
LINE
8
0
10
239.253998
20
107.720105
11
239.002629
21
107.185349
0
LINE
8
0
10
239.002629
20
107.185349
11
217.617522
21
103.306351
0
LINE
8
0
10
217.617522
20
103.306351
11
217.882251
21
103.811585
0
LINE
8
0
10
217.882251
20
103.811585
11
217.978705
21
104.393099
0
LINE
8
0
10
217.978705
20
104.393099
11
217.835755
21
105.135073
0
LINE
8
0
10
217.835755
20
105.135073
11
217.443596
21
105.734690
0
LINE
8
0
10
217.443596
20
105.734690
11
216.857260
21
106.135707
0
LINE
8
0
10
216.857260
20
106.135707
11
216.131783
21
106.281878
0
LINE
8
0
10
216.131783
20
106.281878
11
215.389664
21
106.135707
0
LINE
8
0
10
215.389664
20
106.135707
11
214.789881
21
105.734690
0
LINE
8
0
10
214.789881
20
105.734690
11
214.388729
21
105.135073
0
LINE
8
0
10
214.388729
20
105.135073
11
214.242502
21
104.393099
0
LINE
8
0
10
214.242502
20
104.393099
11
214.473112
21
103.497271
0
LINE
8
0
10
214.473112
20
103.497271
11
215.087818
21
102.847485
0
LINE
8
0
10
215.087818
20
102.847485
11
214.000593
21
102.650264
0
LINE
8
0
10
214.000593
20
102.650264
11
214.126403
21
103.503915
0
LINE
8
0
10
214.126403
20
103.503915
11
213.891033
21
104.683004
0
LINE
8
0
10
213.891033
20
104.683004
11
213.249585
21
105.646898
0
LINE
8
0
10
213.249585
20
105.646898
11
212.299045
21
106.297311
0
LINE
8
0
10
212.299045
20
106.297311
11
211.136403
21
106.535957
0
LINE
8
0
10
211.136403
20
106.535957
11
209.965881
21
106.308845
0
LINE
8
0
10
209.965881
20
106.308845
11
209.013998
21
105.685772
0
LINE
8
0
10
209.013998
20
105.685772
11
208.765273
21
106.390144
0
LINE
8
0
10
208.765273
20
106.390144
11
208.305253
21
106.955225
0
LINE
8
0
10
208.305253
20
106.955225
11
207.682464
21
107.330972
0
LINE
8
0
10
207.682464
20
107.330972
11
206.945435
21
107.467342
0
LINE
8
0
10
206.945435
20
107.467342
11
206.112053
21
107.298665
0
LINE
8
0
10
206.112053
20
107.298665
11
205.430727
21
106.838951
0
LINE
8
0
10
205.430727
20
106.838951
11
204.970961
21
106.157671
0
LINE
8
0
10
204.970961
20
106.157671
11
204.802260
21
105.324299
0
LINE
8
0
10
204.802260
20
105.324299
11
204.888692
21
104.736786
0
LINE
8
0
10
204.888692
20
104.736786
11
205.129866
21
104.213368
0
LINE
8
0
10
205.129866
20
104.213368
11
204.492380
21
103.546344
0
LINE
8
0
10
204.492380
20
103.546344
11
204.252086
21
102.615101
0
LINE
8
0
10
204.252086
20
102.615101
11
204.420939
21
101.846352
0
LINE
8
0
10
204.420939
20
101.846352
11
204.876872
21
101.241175
0
LINE
8
0
10
204.876872
20
101.241175
11
201.288941
21
100.580246
0
LINE
8
0
10
201.288941
20
100.580246
11
201.332042
21
100.352335
0
LINE
8
0
10
201.332042
20
100.352335
11
194.802186
21
99.167902
0
LINE
8
0
10
194.802186
20
99.167902
11
193.957251
21
99.635546
0
LINE
8
0
10
193.957251
20
99.635546
11
192.975611
21
99.804939
0
LINE
8
0
10
192.975611
20
99.804939
11
191.808522
21
99.579200
0
LINE
8
0
10
191.808522
20
99.579200
11
190.858445
21
98.959861
0
LINE
8
0
10
190.858445
20
98.959861
11
190.617048
21
99.677722
0
LINE
8
0
10
190.617048
20
99.677722
11
190.157366
21
100.254756
0
LINE
8
0
10
190.157366
20
100.254756
11
189.529686
21
100.639049
0
LINE
8
0
10
189.529686
20
100.639049
11
188.784299
21
100.778684
0
LINE
8
0
10
188.784299
20
100.778684
11
187.950971
21
100.610007
0
LINE
8
0
10
187.950971
20
100.610007
11
187.269763
21
100.150296
0
LINE
8
0
10
187.269763
20
100.150296
11
186.810115
21
99.469024
0
LINE
8
0
10
186.810115
20
99.469024
11
186.641468
21
98.635667
0
LINE
8
0
10
186.641468
20
98.635667
11
186.857367
21
97.726798
0
LINE
8
0
10
186.857367
20
97.726798
11
166.263444
21
93.991283
0
LINE
8
0
10
166.263444
20
93.991283
11
166.263444
21
112.775062
0
LINE
8
0
10
166.263444
20
112.775062
11
166.025561
21
113.953330
0
LINE
8
0
10
166.025561
20
113.953330
11
165.376833
21
114.915519
0
LINE
8
0
10
165.376833
20
114.915519
11
164.414644
21
115.564246
0
LINE
8
0
10
164.414644
20
115.564246
11
163.236376
21
115.802130
0
LINE
8
0
10
163.236376
20
115.802130
11
162.058109
21
115.564246
0
LINE
8
0
10
162.058109
20
115.564246
11
161.095920
21
114.915519
0
LINE
8
0
10
161.095920
20
114.915519
11
160.447192
21
113.953330
0
LINE
8
0
10
160.447192
20
113.953330
11
160.209309
21
112.775062
0
LINE
8
0
10
160.209309
20
112.775062
11
160.209309
21
108.943821
0
LINE
8
0
10
160.209309
20
108.943821
11
151.023489
21
108.943821
0
LINE
8
0
10
151.023489
20
108.943821
11
151.023489
21
112.775062
0
LINE
8
0
10
151.023489
20
112.775062
11
150.785602
21
113.953330
0
LINE
8
0
10
150.785602
20
113.953330
11
150.136865
21
114.915519
0
LINE
8
0
10
150.136865
20
114.915519
11
149.174667
21
115.564246
0
LINE
8
0
10
149.174667
20
115.564246
11
147.996395
21
115.802130
0
LINE
8
0
10
147.996395
20
115.802130
11
146.818128
21
115.564246
0
LINE
8
0
10
146.818128
20
115.564246
11
145.855939
21
114.915519
0
LINE
8
0
10
145.855939
20
114.915519
11
145.207211
21
113.953330
0
LINE
8
0
10
145.207211
20
113.953330
11
144.969328
21
112.775062
0
LINE
8
0
10
144.969328
20
112.775062
11
144.969328
21
94.390803
0
LINE
8
0
10
144.969328
20
94.390803
11
118.741511
21
99.148244
0
LINE
8
0
10
118.741511
20
99.148244
11
117.908374
21
99.599315
0
LINE
8
0
10
117.908374
20
99.599315
11
116.944852
21
99.762553
0
LINE
8
0
10
116.944852
20
99.762553
11
116.070554
21
99.632722
0
LINE
8
0
10
116.070554
20
99.632722
11
115.690128
21
99.701699
0
LINE
8
0
10
115.690128
20
99.701699
11
115.701162
21
99.905692
0
LINE
8
0
10
115.701162
20
99.905692
11
115.535837
21
100.739035
0
LINE
8
0
10
115.535837
20
100.739035
11
115.085244
21
101.420251
0
LINE
8
0
10
115.085244
20
101.420251
11
114.417448
21
101.879902
0
LINE
8
0
10
114.417448
20
101.879902
11
113.600518
21
102.048550
0
LINE
8
0
10
113.600518
20
102.048550
11
112.893443
21
101.928434
0
LINE
8
0
10
112.893443
20
101.928434
11
112.285968
21
101.595527
0
LINE
8
0
10
112.285968
20
101.595527
11
111.818616
21
101.090987
0
LINE
8
0
10
111.818616
20
101.090987
11
111.531913
21
100.455972
0
LINE
8
0
10
111.531913
20
100.455972
11
110.047142
21
100.725291
0
LINE
8
0
10
110.047142
20
100.725291
11
110.513574
21
100.992969
0
LINE
8
0
10
110.513574
20
100.992969
11
110.883088
21
101.380643
0
LINE
8
0
10
110.883088
20
101.380643
11
111.126326
21
101.860163
0
LINE
8
0
10
111.126326
20
101.860163
11
111.213929
21
102.403382
0
LINE
8
0
10
111.213929
20
102.403382
11
111.069537
21
103.114194
0
LINE
8
0
10
111.069537
20
103.114194
11
110.678520
21
103.702035
0
LINE
8
0
10
110.678520
20
103.702035
11
110.104115
21
104.102193
0
LINE
8
0
10
110.104115
20
104.102193
11
109.409563
21
104.249960
0
LINE
8
0
10
109.409563
20
104.249960
11
108.691485
21
104.104616
0
LINE
8
0
10
108.691485
20
104.104616
11
108.104455
21
103.708494
0
LINE
8
0
10
108.104455
20
103.708494
11
107.708338
21
103.121461
0
LINE
8
0
10
107.708338
20
103.121461
11
107.562996
21
102.403382
0
LINE
8
0
10
107.562996
20
102.403382
11
107.737952
21
101.657890
0
LINE
8
0
10
107.737952
20
101.657890
11
108.203070
21
101.059777
0
LINE
8
0
10
108.203070
20
101.059777
11
105.243717
21
101.596563
0
LINE
8
0
10
105.243717
20
101.596563
11
105.493220
21
102.091462
0
LINE
8
0
10
105.493220
20
102.091462
11
105.583447
21
102.657302
0
LINE
8
0
10
105.583447
20
102.657302
11
105.440526
21
103.399290
0
LINE
8
0
10
105.440526
20
103.399290
11
105.048445
21
103.998963
0
LINE
8
0
10
105.048445
20
103.998963
11
104.462222
21
104.400040
0
LINE
8
0
10
104.462222
20
104.400040
11
103.736877
21
104.546240
0
LINE
8
0
10
103.736877
20
104.546240
11
102.994882
21
104.400040
0
LINE
8
0
10
102.994882
20
104.400040
11
102.395206
21
103.998963
0
LINE
8
0
10
102.395206
20
103.998963
11
101.994130
21
103.399290
0
LINE
8
0
10
101.994130
20
103.399290
11
101.847932
21
102.657302
0
LINE
8
0
10
101.847932
20
102.657302
11
101.910376
21
102.201214
0
LINE
8
0
10
101.910376
20
102.201214
11
101.448237
21
102.285034
0
LINE
8
0
10
101.448237
20
102.285034
11
101.731145
21
103.546301
0
LINE
8
0
10
101.731145
20
103.546301
11
101.495856
21
104.725386
0
LINE
8
0
10
101.495856
20
104.725386
11
100.854584
21
105.689271
0
LINE
8
0
10
100.854584
20
105.689271
11
99.904223
21
106.339675
0
LINE
8
0
10
99.904223
20
106.339675
11
98.741666
21
106.578317
0
LINE
8
0
10
98.741666
20
106.578317
11
97.506215
21
106.322544
0
LINE
8
0
10
97.506215
20
106.322544
11
97.540190
21
106.678911
0
LINE
8
0
10
97.540190
20
106.678911
11
97.374866
21
107.512279
0
LINE
8
0
10
97.374866
20
107.512279
11
96.924273
21
108.193549
0
LINE
8
0
10
96.924273
20
108.193549
11
96.256477
21
108.653255
0
LINE
8
0
10
96.256477
20
108.653255
11
95.439546
21
108.821927
0
LINE
8
0
10
95.439546
20
108.821927
11
94.606212
21
108.653255
0
LINE
8
0
10
94.606212
20
108.653255
11
93.924998
21
108.193549
0
LINE
8
0
10
93.924998
20
108.193549
11
93.465347
21
107.512279
0
LINE
8
0
10
93.465347
20
107.512279
11
93.296699
21
106.678911
0
LINE
8
0
10
93.296699
20
106.678911
11
93.336707
21
106.279153
0
LINE
8
0
10
93.336707
20
106.279153
11
92.744686
21
106.043029
0
LINE
8
0
10
92.744686
20
106.043029
11
92.276251
21
105.632875
0
LINE
8
0
10
92.276251
20
105.632875
11
91.968202
21
105.084898
0
LINE
8
0
10
91.968202
20
105.084898
11
91.857341
21
104.435300
0
LINE
8
0
10
91.857341
20
104.435300
11
91.917264
21
104.013846
0
LINE
8
0
10
91.917264
20
104.013846
11
67.803952
21
108.387720
0
LINE
8
0
10
67.803952
20
108.387720
11
68.033846
21
109.261373
0
LINE
8
0
10
68.033846
20
109.261373
11
67.890926
21
110.003361
0
LINE
8
0
10
67.890926
20
110.003361
11
67.498846
21
110.603034
0
LINE
8
0
10
67.498846
20
110.603034
11
66.912624
21
111.004111
0
LINE
8
0
10
66.912624
20
111.004111
11
66.187279
21
111.150311
0
LINE
8
0
10
66.187279
20
111.150311
11
65.445283
21
111.004111
0
LINE
8
0
10
65.445283
20
111.004111
11
64.845608
21
110.603034
0
LINE
8
0
10
64.845608
20
110.603034
11
64.444532
21
110.003361
0
LINE
8
0
10
64.444532
20
110.003361
11
64.298334
21
109.261373
0
LINE
8
0
10
64.298334
20
109.261373
11
64.322596
21
109.019201
0
LINE
8
0
10
64.322596
20
109.019201
11
63.980498
21
109.081219
0
LINE
8
0
10
63.980498
20
109.081219
11
64.181541
21
110.150372
0
LINE
8
0
10
64.181541
20
110.150372
11
63.946225
21
111.329355
0
LINE
8
0
10
63.946225
20
111.329355
11
63.304895
21
112.293194
0
LINE
8
0
10
63.304895
20
112.293194
11
62.354475
21
112.943586
0
LINE
8
0
10
62.354475
20
112.943586
11
61.191891
21
113.182229
0
LINE
8
0
10
61.191891
20
113.182229
11
59.902758
21
112.900977
0
LINE
8
0
10
59.902758
20
112.900977
11
59.948213
21
113.325368
0
LINE
8
0
10
59.948213
20
113.325368
11
59.782889
21
114.158696
0
LINE
8
0
10
59.782889
20
114.158696
11
59.332295
21
114.839904
0
LINE
8
0
10
59.332295
20
114.839904
11
58.664499
21
115.299552
0
LINE
8
0
10
58.664499
20
115.299552
11
57.847567
21
115.468200
0
LINE
8
0
10
57.847567
20
115.468200
11
57.014233
21
115.299552
0
LINE
8
0
10
57.014233
20
115.299552
11
56.333021
21
114.839904
0
LINE
8
0
10
56.333021
20
114.839904
11
55.873370
21
114.158696
0
LINE
8
0
10
55.873370
20
114.158696
11
55.704723
21
113.325368
0
LINE
8
0
10
55.704723
20
113.325368
11
55.752758
21
112.885631
0
LINE
8
0
10
55.752758
20
112.885631
11
55.157676
21
112.650854
0
LINE
8
0
10
55.157676
20
112.650854
11
54.686681
21
112.240423
0
LINE
8
0
10
54.686681
20
112.240423
11
54.376875
21
111.691030
0
LINE
8
0
10
54.376875
20
111.691030
11
54.265362
21
111.039371
0
LINE
8
0
10
54.265362
20
111.039371
11
54.284491
21
110.848554
0
LINE
8
0
10
54.284491
20
110.848554
11
53.626343
21
111.642997
0
LINE
8
0
10
53.626343
20
111.642997
11
53.161971
21
111.872289
0
LINE
8
0
10
53.161971
20
111.872289
11
52.640666
21
111.954564
0
LINE
8
0
10
52.640666
20
111.954564
11
52.547022
21
111.945039
0
LINE
8
0
10
52.547022
20
111.945039
11
53.382765
21
112.429190
0
LINE
8
0
10
53.382765
20
112.429190
11
54.042212
21
113.128905
0
LINE
8
0
10
54.042212
20
113.128905
11
54.474893
21
113.994500
0
LINE
8
0
10
54.474893
20
113.994500
11
54.630336
21
114.976287
0
LINE
8
0
10
54.630336
20
114.976287
11
54.371043
21
116.260176
0
LINE
8
0
10
54.371043
20
116.260176
11
53.667249
21
117.309909
0
LINE
8
0
10
53.667249
20
117.309909
11
52.630078
21
118.018330
0
LINE
8
0
10
52.630078
20
118.018330
11
51.370655
21
118.278283
0
LINE
8
0
10
51.370655
20
118.278283
11
50.086770
21
118.018330
0
LINE
8
0
10
50.086770
20
118.018330
11
49.037038
21
117.309909
0
LINE
8
0
10
49.037038
20
117.309909
11
48.328617
21
116.260176
0
LINE
8
0
10
48.328617
20
116.260176
11
48.068664
21
114.976287
0
LINE
8
0
10
48.068664
20
114.976287
11
48.328617
21
113.716856
0
LINE
8
0
10
48.328617
20
113.716856
11
49.037038
21
112.679683
0
LINE
8
0
10
49.037038
20
112.679683
11
50.086770
21
111.975890
0
LINE
8
0
10
50.086770
20
111.975890
11
51.370655
21
111.716598
0
LINE
8
0
10
51.370655
20
111.716598
11
51.817247
21
111.751946
0
LINE
8
0
10
51.817247
20
111.751946
11
51.315598
21
111.378434
0
LINE
8
0
10
51.315598
20
111.378434
11
46.131424
21
112.318815
0
LINE
8
0
10
46.131424
20
112.318815
11
45.421472
21
112.886458
0
LINE
8
0
10
45.421472
20
112.886458
11
44.512661
21
113.097589
0
LINE
8
0
10
44.512661
20
113.097589
11
43.948213
21
113.021147
0
LINE
8
0
10
43.948213
20
113.021147
11
43.440076
21
112.806971
0
LINE
8
0
10
43.440076
20
112.806971
11
27.271789
21
115.739715
0
LINE
8
0
10
27.271789
20
115.739715
11
26.594780
21
116.221815
0
LINE
8
0
10
26.594780
20
116.221815
11
25.758965
21
116.399532
0
LINE
8
0
10
25.758965
20
116.399532
11
24.925629
21
116.230884
0
LINE
8
0
10
24.925629
20
116.230884
11
24.244416
21
115.771236
0
LINE
8
0
10
24.244416
20
115.771236
11
23.784765
21
115.090028
0
LINE
8
0
10
23.784765
20
115.090028
11
23.616118
21
114.256700
0
LINE
8
0
10
23.616118
20
114.256700
11
23.776124
21
113.460736
0
LINE
8
0
10
23.776124
20
113.460736
11
24.213440
21
112.804652
0
LINE
8
0
10
24.213440
20
112.804652
11
24.864014
21
112.350613
0
LINE
8
0
10
24.864014
20
112.350613
11
25.663794
21
112.160780
0
LINE
8
0
10
25.663794
20
112.160780
11
25.312092
21
110.221889
0
LINE
8
0
10
25.312092
20
110.221889
11
24.953207
21
111.209055
0
LINE
8
0
10
24.953207
20
111.209055
11
24.298407
21
112.000224
0
LINE
8
0
10
24.298407
20
112.000224
11
23.415536
21
112.525894
0
LINE
8
0
10
23.415536
20
112.525894
11
22.372440
21
112.716563
0
LINE
8
0
10
22.372440
20
112.716563
11
21.129752
21
112.457377
0
LINE
8
0
10
21.129752
20
112.457377
11
21.170963
21
112.859702
0
LINE
8
0
10
21.170963
20
112.859702
11
21.005639
21
113.693045
0
LINE
8
0
10
21.005639
20
113.693045
11
20.555045
21
114.374261
0
LINE
8
0
10
20.555045
20
114.374261
11
19.887250
21
114.833912
0
LINE
8
0
10
19.887250
20
114.833912
11
19.070320
21
115.002560
0
LINE
8
0
10
19.070320
20
115.002560
11
18.236984
21
114.833912
0
LINE
8
0
10
18.236984
20
114.833912
11
17.555771
21
114.374261
0
LINE
8
0
10
17.555771
20
114.374261
11
17.096120
21
113.693045
0
LINE
8
0
10
17.096120
20
113.693045
11
16.927473
21
112.859702
0
LINE
8
0
10
16.927473
20
112.859702
11
16.975553
21
112.419833
0
LINE
8
0
10
16.975553
20
112.419833
11
16.380454
21
112.185055
0
LINE
8
0
10
16.380454
20
112.185055
11
15.909445
21
111.774621
0
LINE
8
0
10
15.909445
20
111.774621
11
15.599631
21
111.225221
0
LINE
8
0
10
15.599631
20
111.225221
11
15.488115
21
110.573546
0
LINE
8
0
10
15.488115
20
110.573546
11
15.634313
21
109.848201
0
LINE
8
0
10
15.634313
20
109.848201
11
16.035388
21
109.261975
0
LINE
8
0
10
16.035388
20
109.261975
11
16.635062
21
108.869891
0
LINE
8
0
10
16.635062
20
108.869891
11
17.377057
21
108.726969
0
LINE
8
0
10
17.377057
20
108.726969
11
18.095135
21
108.872313
0
LINE
8
0
10
18.095135
20
108.872313
11
18.682165
21
109.268434
0
LINE
8
0
10
18.682165
20
109.268434
11
19.078282
21
109.855468
0
LINE
8
0
10
19.078282
20
109.855468
11
19.223624
21
110.573546
0
LINE
8
0
10
19.223624
20
110.573546
11
19.205183
21
110.766136
0
LINE
8
0
10
19.205183
20
110.766136
11
19.555247
21
110.820508
0
LINE
8
0
10
19.555247
20
110.820508
11
19.340403
21
109.684706
0
LINE
8
0
10
19.340403
20
109.684706
11
19.579046
21
108.522118
0
LINE
8
0
10
19.579046
20
108.522118
11
20.229453
21
107.571697
0
LINE
8
0
10
20.229453
20
107.571697
11
21.193341
21
106.930366
0
LINE
8
0
10
21.193341
20
106.930366
11
22.372429
21
106.695051
0
LINE
8
0
10
22.372429
20
106.695051
11
23.159635
21
106.800627
0
LINE
8
0
10
23.159635
20
106.800627
11
23.867889
21
107.098440
0
LINE
8
0
10
23.867889
20
107.098440
11
24.469706
21
107.560113
0
LINE
8
0
10
24.469706
20
107.560113
11
24.937601
21
108.157269
0
LINE
8
0
10
24.937601
20
108.157269
11
23.953466
21
102.731756
0
LINE
8
0
10
23.953466
20
102.731756
11
22.417731
21
103.022242
0
LINE
8
0
10
22.417731
20
103.022242
11
21.754035
21
99.420738
0
LINE
8
0
10
21.754035
20
99.420738
11
23.307190
21
99.168828
0
LINE
8
0
10
23.307190
20
99.168828
11
23.008672
21
97.523016
0
LINE
8
0
10
23.008672
20
97.523016
11
22.457006
21
97.603635
0
LINE
8
0
10
22.457006
20
97.603635
11
21.623670
21
97.434959
0
LINE
8
0
10
21.623670
20
97.434959
11
20.942457
21
96.975247
0
LINE
8
0
10
20.942457
20
96.975247
11
20.482807
21
96.293975
0
LINE
8
0
10
20.482807
20
96.293975
11
20.314159
21
95.460618
0
LINE
8
0
10
20.314159
20
95.460618
11
20.464698
21
94.688148
0
LINE
8
0
10
20.464698
20
94.688148
11
20.877423
21
94.045509
0
LINE
8
0
10
20.877423
20
94.045509
11
21.494000
21
93.588787
0
LINE
8
0
10
21.494000
20
93.588787
11
22.256092
21
93.374064
0
LINE
8
0
10
22.256092
20
93.374064
11
21.949372
21
91.683087
0
LINE
8
0
10
21.949372
20
91.683087
11
21.547425
21
92.575515
0
LINE
8
0
10
21.547425
20
92.575515
11
20.896606
21
93.284304
0
LINE
8
0
10
20.896606
20
93.284304
11
20.052403
21
93.751833
0
LINE
8
0
10
20.052403
20
93.751833
11
19.070309
21
93.920481
0
LINE
8
0
10
19.070309
20
93.920481
11
17.827814
21
93.661374
0
LINE
8
0
10
17.827814
20
93.661374
11
17.869004
21
94.063620
0
LINE
8
0
10
17.869004
20
94.063620
11
17.703681
21
94.896992
0
LINE
8
0
10
17.703681
20
94.896992
11
17.253088
21
95.578272
0
LINE
8
0
10
17.253088
20
95.578272
11
16.585292
21
96.037986
0
LINE
8
0
10
16.585292
20
96.037986
11
15.768361
21
96.206663
0
LINE
8
0
10
15.768361
20
96.206663
11
14.934999
21
96.037986
0
LINE
8
0
10
14.934999
20
96.037986
11
14.253727
21
95.578272
0
LINE
8
0
10
14.253727
20
95.578272
11
13.794017
21
94.896992
0
LINE
8
0
10
13.794017
20
94.896992
11
13.625342
21
94.063620
0
LINE
8
0
10
13.625342
20
94.063620
11
13.673401
21
93.623857
0
LINE
8
0
10
13.673401
20
93.623857
11
13.078360
21
93.389047
0
LINE
8
0
10
13.078360
20
93.389047
11
12.607415
21
92.978625
0
LINE
8
0
10
12.607415
20
92.978625
11
12.297652
21
92.429267
0
LINE
8
0
10
12.297652
20
92.429267
11
12.186156
21
91.777649
0
LINE
8
0
10
12.186156
20
91.777649
11
12.332354
21
91.052304
0
LINE
8
0
10
12.332354
20
91.052304
11
12.733430
21
90.466078
0
LINE
8
0
10
12.733430
20
90.466078
11
13.333105
21
90.073994
0
LINE
8
0
10
13.333105
20
90.073994
11
14.075098
21
89.931072
0
LINE
8
0
10
14.075098
20
89.931072
11
14.793177
21
90.076416
0
LINE
8
0
10
14.793177
20
90.076416
11
15.380207
21
90.472537
0
LINE
8
0
10
15.380207
20
90.472537
11
15.776326
21
91.059571
0
LINE
8
0
10
15.776326
20
91.059571
11
15.921668
21
91.777649
0
LINE
8
0
10
15.921668
20
91.777649
11
15.903227
21
91.970081
0
LINE
8
0
10
15.903227
20
91.970081
11
16.253267
21
92.024452
0
LINE
8
0
10
16.253267
20
92.024452
11
16.038445
21
90.888624
0
LINE
8
0
10
16.038445
20
90.888624
11
16.277085
21
89.726051
0
LINE
8
0
10
16.277085
20
89.726051
11
16.927473
21
88.775638
0
LINE
8
0
10
16.927473
20
88.775638
11
17.891310
21
88.134310
0
LINE
8
0
10
17.891310
20
88.134310
11
19.070299
21
87.898995
0
LINE
8
0
10
19.070299
20
87.898995
11
19.793316
21
87.988455
0
LINE
8
0
10
19.793316
20
87.988455
11
20.451104
21
88.241868
0
LINE
8
0
10
20.451104
20
88.241868
11
21.023419
21
88.636787
0
LINE
8
0
10
21.023419
20
88.636787
11
21.490021
21
89.150763
0
LINE
8
0
10
21.490021
20
89.150763
11
20.541224
21
83.919984
0
LINE
8
0
10
20.541224
20
83.919984
11
19.344010
21
84.146414
0
LINE
8
0
10
19.344010
20
84.146414
11
18.773849
21
80.535967
0
LINE
8
0
10
18.773849
20
80.535967
11
19.894451
21
80.354225
0
LINE
8
0
10
19.894451
20
80.354225
11
19.617443
21
78.827158
0
LINE
8
0
10
19.617443
20
78.827158
11
19.112671
21
78.892325
0
LINE
8
0
10
19.112671
20
78.892325
11
18.279337
21
78.723648
0
LINE
8
0
10
18.279337
20
78.723648
11
17.598125
21
78.263934
0
LINE
8
0
10
17.598125
20
78.263934
11
17.138475
21
77.582654
0
LINE
8
0
10
17.138475
20
77.582654
11
16.969827
21
76.749282
0
LINE
8
0
10
16.969827
20
76.749282
11
17.115915
21
75.987033
0
LINE
8
0
10
17.115915
20
75.987033
11
17.517104
21
75.349314
0
LINE
8
0
10
17.517104
20
75.349314
11
18.117784
21
74.890317
0
LINE
8
0
10
18.117784
20
74.890317
11
18.862344
21
74.664236
0
LINE
8
0
10
18.862344
20
74.664236
11
18.590893
21
73.167728
0
LINE
8
0
10
18.590893
20
73.167728
11
18.162266
21
73.987203
0
LINE
8
0
10
18.162266
20
73.987203
11
17.517181
21
74.633395
0
LINE
8
0
10
17.517181
20
74.633395
11
16.703316
21
75.057154
0
LINE
8
0
10
16.703316
20
75.057154
11
15.768350
21
75.209330
0
LINE
8
0
10
15.768350
20
75.209330
11
14.479262
21
74.928078
0
LINE
8
0
10
14.479262
20
74.928078
11
14.524673
21
75.352310
0
LINE
8
0
10
14.524673
20
75.352310
11
14.359349
21
76.185667
0
LINE
8
0
10
14.359349
20
76.185667
11
13.908755
21
76.866939
0
LINE
8
0
10
13.908755
20
76.866939
11
13.240959
21
77.326651
0
LINE
8
0
10
13.240959
20
77.326651
11
12.424029
21
77.495327
0
LINE
8
0
10
12.424029
20
77.495327
11
11.590666
21
77.326651
0
LINE
8
0
10
11.590666
20
77.326651
11
10.909394
21
76.866939
0
LINE
8
0
10
10.909394
20
76.866939
11
10.449685
21
76.185667
0
LINE
8
0
10
10.449685
20
76.185667
11
10.281010
21
75.352310
0
LINE
8
0
10
10.281010
20
75.352310
11
10.329069
21
74.912547
0
LINE
8
0
10
10.329069
20
74.912547
11
9.734027
21
74.677733
0
LINE
8
0
10
9.734027
20
74.677733
11
9.263081
21
74.267302
0
LINE
8
0
10
9.263081
20
74.267302
11
8.953317
21
73.717935
0
LINE
8
0
10
8.953317
20
73.717935
11
8.841821
21
73.066313
0
LINE
8
0
10
8.841821
20
73.066313
11
8.988020
21
72.340972
0
LINE
8
0
10
8.988020
20
72.340972
11
9.389096
21
71.754755
0
LINE
8
0
10
9.389096
20
71.754755
11
9.988771
21
71.362680
0
LINE
8
0
10
9.988771
20
71.362680
11
10.730767
21
71.219762
0
LINE
8
0
10
10.730767
20
71.219762
11
11.448844
21
71.365102
0
LINE
8
0
10
11.448844
20
71.365102
11
12.035873
21
71.761214
0
LINE
8
0
10
12.035873
20
71.761214
11
12.431991
21
72.348239
0
LINE
8
0
10
12.431991
20
72.348239
11
12.577334
21
73.066313
0
LINE
8
0
10
12.577334
20
73.066313
11
12.558892
21
73.258744
0
LINE
8
0
10
12.558892
20
73.258744
11
12.955574
21
73.325446
0
LINE
8
0
10
12.955574
20
73.325446
11
12.736314
21
72.177314
0
LINE
8
0
10
12.736314
20
72.177314
11
12.974957
21
71.014726
0
LINE
8
0
10
12.974957
20
71.014726
11
13.625363
21
70.064305
0
LINE
8
0
10
13.625363
20
70.064305
11
14.589252
21
69.422974
0
LINE
8
0
10
14.589252
20
69.422974
11
15.768340
21
69.187659
0
LINE
8
0
10
15.768340
20
69.187659
11
16.930924
21
69.422974
0
LINE
8
0
10
16.930924
20
69.422974
11
17.881344
21
70.064305
0
LINE
8
0
10
17.881344
20
70.064305
11
18.522674
21
71.014726
0
LINE
8
0
10
18.522674
20
71.014726
11
18.757990
21
72.177314
0
LINE
8
0
10
18.757990
20
72.177314
11
18.740686
21
72.499127
0
LINE
8
0
10
18.740686
20
72.499127
11
19.240095
21
72.408533
0
LINE
8
0
10
19.240095
20
72.408533
11
18.972030
21
71.890523
0
LINE
8
0
10
18.972030
20
71.890523
11
18.874788
21
71.288315
0
LINE
8
0
10
18.874788
20
71.288315
11
19.020986
21
70.562970
0
LINE
8
0
10
19.020986
20
70.562970
11
19.422061
21
69.976744
0
LINE
8
0
10
19.422061
20
69.976744
11
20.021735
21
69.584660
0
LINE
8
0
10
20.021735
20
69.584660
11
20.763730
21
69.441738
0
LINE
8
0
10
20.763730
20
69.441738
11
21.481809
21
69.587082
0
LINE
8
0
10
21.481809
20
69.587082
11
22.068839
21
69.983204
0
LINE
8
0
10
22.068839
20
69.983204
11
22.464957
21
70.570237
0
LINE
8
0
10
22.464957
20
70.570237
11
22.610300
21
71.288315
0
LINE
8
0
10
22.610300
20
71.288315
11
22.532462
21
71.811370
0
LINE
8
0
10
22.532462
20
71.811370
11
27.963883
21
70.826142
0
LINE
8
0
10
27.963883
20
70.826142
11
27.724604
21
70.331759
0
LINE
8
0
10
27.724604
20
70.331759
11
27.637721
21
69.764370
0
LINE
8
0
10
27.637721
20
69.764370
11
27.783919
21
69.038922
0
LINE
8
0
10
27.783919
20
69.038922
11
28.184994
21
68.452650
0
LINE
8
0
10
28.184994
20
68.452650
11
28.784669
21
68.060554
0
LINE
8
0
10
28.784669
20
68.060554
11
29.526664
21
67.917634
0
LINE
8
0
10
29.526664
20
67.917634
11
30.244742
21
68.062977
0
LINE
8
0
10
30.244742
20
68.062977
11
30.831773
21
68.459110
0
LINE
8
0
10
30.831773
20
68.459110
11
31.227891
21
69.046189
0
LINE
8
0
10
31.227891
20
69.046189
11
31.373233
21
69.764370
0
LINE
8
0
10
31.373233
20
69.764370
11
31.354792
21
69.956801
0
LINE
8
0
10
31.354792
20
69.956801
11
31.704854
21
70.011173
0
LINE
8
0
10
31.704854
20
70.011173
11
31.490010
21
68.875371
0
LINE
8
0
10
31.490010
20
68.875371
11
31.728653
21
67.712783
0
LINE
8
0
10
31.728653
20
67.712783
11
32.379059
21
66.762362
0
LINE
8
0
10
32.379059
20
66.762362
11
33.342948
21
66.121031
0
LINE
8
0
10
33.342948
20
66.121031
11
34.522036
21
65.885716
0
LINE
8
0
10
34.522036
20
65.885716
11
35.684593
21
66.121031
0
LINE
8
0
10
35.684593
20
66.121031
11
36.634954
21
66.762362
0
LINE
8
0
10
36.634954
20
66.762362
11
37.276225
21
67.712783
0
LINE
8
0
10
37.276225
20
67.712783
11
37.511514
21
68.875371
0
LINE
8
0
10
37.511514
20
68.875371
11
37.500481
21
69.096325
0
LINE
8
0
10
37.500481
20
69.096325
11
37.930039
21
69.018405
0
LINE
8
0
10
37.930039
20
69.018405
11
37.707976
21
68.535806
0
LINE
8
0
10
37.707976
20
68.535806
11
37.628314
21
67.986372
0
LINE
8
0
10
37.628314
20
67.986372
11
37.774513
21
67.261016
0
LINE
8
0
10
37.774513
20
67.261016
11
38.175589
21
66.674792
0
LINE
8
0
10
38.175589
20
66.674792
11
38.775264
21
66.282713
0
LINE
8
0
10
38.775264
20
66.282713
11
39.517260
21
66.139795
0
LINE
8
0
10
39.517260
20
66.139795
11
40.235436
21
66.285135
0
LINE
8
0
10
40.235436
20
66.285135
11
40.822517
21
66.681251
0
LINE
8
0
10
40.822517
20
66.681251
11
41.218653
21
67.268283
0
LINE
8
0
10
41.218653
20
67.268283
11
41.363999
21
67.986372
0
LINE
8
0
10
41.363999
20
67.986372
11
41.317511
21
68.403964
0
LINE
8
0
10
41.317511
20
68.403964
11
43.449421
21
68.017249
0
LINE
8
0
10
43.449421
20
68.017249
11
43.327186
21
67.243265
0
LINE
8
0
10
43.327186
20
67.243265
11
46.863571
21
66.669993
0
LINE
8
0
10
46.863571
20
66.669993
11
46.978294
21
67.377170
0
LINE
8
0
10
46.978294
20
67.377170
11
69.814812
21
63.234885
0
LINE
8
0
10
69.814812
20
63.234885
11
68.725408
21
57.838106
0
LINE
8
0
10
68.725408
20
57.838106
11
86.207846
21
54.309098
0
LINE
8
0
10
86.207846
20
54.309098
11
87.366947
21
60.051131
0
LINE
8
0
10
87.366947
20
60.051131
11
105.204466
21
56.815599
0
LINE
8
0
10
105.204466
20
56.815599
11
105.204466
21
30.862599
0
LINE
8
0
10
105.204466
20
30.862599
11
105.169499
21
30.882708
0
LINE
8
0
10
105.169499
20
30.882708
11
103.449365
21
27.729408
0
LINE
8
0
10
103.449365
20
27.729408
11
106.579919
21
25.926592
0
LINE
8
0
10
106.579919
20
25.926592
11
107.351750
21
27.341502
0
LINE
8
0
10
107.351750
20
27.341502
11
107.499241
21
26.617782
0
LINE
8
0
10
107.499241
20
26.617782
11
107.900427
21
26.032991
0
LINE
8
0
10
107.900427
20
26.032991
11
108.499392
21
25.641928
0
LINE
8
0
10
108.499392
20
25.641928
11
109.240219
21
25.499396
0
LINE
8
0
10
109.240219
20
25.499396
11
109.861264
21
25.607375
0
LINE
8
0
10
109.861264
20
25.607375
11
110.391668
21
25.906004
0
LINE
8
0
10
110.391668
20
25.906004
11
110.794613
21
26.357326
0
LINE
8
0
10
110.794613
20
26.357326
11
111.033280
21
26.923382
0
LINE
8
0
10
111.033280
20
26.923382
11
111.368186
21
26.864327
0
LINE
8
0
10
111.368186
20
26.864327
11
110.843103
21
25.965327
0
LINE
8
0
10
110.843103
20
25.965327
11
110.653222
21
24.890988
0
LINE
8
0
10
110.653222
20
24.890988
11
110.891865
21
23.728415
0
LINE
8
0
10
110.891865
20
23.728415
11
111.542272
21
22.778001
0
LINE
8
0
10
111.542272
20
22.778001
11
112.506160
21
22.136674
0
LINE
8
0
10
112.506160
20
22.136674
11
113.685248
21
21.901358
0
LINE
8
0
10
113.685248
20
21.901358
11
114.847832
21
22.136674
0
LINE
8
0
10
114.847832
20
22.136674
11
115.798252
21
22.778001
0
LINE
8
0
10
115.798252
20
22.778001
11
116.439583
21
23.728415
0
LINE
8
0
10
116.439583
20
23.728415
11
116.674898
21
24.890988
0
LINE
8
0
10
116.674898
20
24.890988
11
116.439583
21
26.070088
0
LINE
8
0
10
116.439583
20
26.070088
11
115.798252
21
27.033981
0
LINE
8
0
10
115.798252
20
27.033981
11
114.847832
21
27.684388
0
LINE
8
0
10
114.847832
20
27.684388
11
113.685248
21
27.923029
0
LINE
8
0
10
113.685248
20
27.923029
11
113.377300
21
27.907948
0
LINE
8
0
10
113.377300
20
27.907948
11
113.592195
21
28.406108
0
LINE
8
0
10
113.592195
20
28.406108
11
113.669228
21
28.955168
0
LINE
8
0
10
113.669228
20
28.955168
11
113.463448
21
29.872239
0
LINE
8
0
10
113.463448
20
29.872239
11
117.169780
21
29.872239
0
LINE
8
0
10
117.169780
20
29.872239
11
116.495486
21
29.119269
0
LINE
8
0
10
116.495486
20
29.119269
11
116.241334
21
28.108370
0
LINE
8
0
10
116.241334
20
28.108370
11
116.409982
21
27.291485
0
LINE
8
0
10
116.409982
20
27.291485
11
116.869632
21
26.623623
0
LINE
8
0
10
116.869632
20
26.623623
11
117.550844
21
26.172929
0
LINE
8
0
10
117.550844
20
26.172929
11
118.384179
21
26.007554
0
LINE
8
0
10
118.384179
20
26.007554
11
119.192826
21
26.175690
0
LINE
8
0
10
119.192826
20
26.175690
11
119.861543
21
26.630985
0
LINE
8
0
10
119.861543
20
26.630985
11
120.316739
21
27.299768
0
LINE
8
0
10
120.316739
20
27.299768
11
120.484825
21
28.108370
0
LINE
8
0
10
120.484825
20
28.108370
11
120.235668
21
29.119269
0
LINE
8
0
10
120.235668
20
29.119269
11
119.574651
21
29.872239
0
LINE
8
0
10
119.574651
20
29.872239
11
144.731547
21
29.872239
0
LINE
8
0
10
144.731547
20
29.872239
11
144.731547
21
28.336096
0
LINE
8
0
10
144.731547
20
28.336096
11
148.340115
21
28.336096
0
LINE
8
0
10
148.340115
20
28.336096
11
148.340115
21
29.872239
0
LINE
8
0
10
148.340115
20
29.872239
11
152.469488
21
29.872239
0
LINE
8
0
10
152.469488
20
29.872239
11
153.476061
21
29.122427
0
LINE
8
0
10
153.476061
20
29.122427
11
154.748501
21
28.843884
0
LINE
8
0
10
154.748501
20
28.843884
11
156.003233
21
29.122427
0
LINE
8
0
10
156.003233
20
29.122427
11
156.995789
21
29.872239
0
LINE
8
0
10
156.995789
20
29.872239
11
193.250698
21
29.872239
0
LINE
8
0
10
193.250698
20
29.872239
11
193.577669
21
29.387324
0
LINE
8
0
10
193.577669
20
29.387324
11
194.024137
21
29.008772
0
LINE
8
0
10
194.024137
20
29.008772
11
194.565373
21
28.762578
0
LINE
8
0
10
194.565373
20
28.762578
11
195.176651
21
28.674736
0
LINE
8
0
10
195.176651
20
28.674736
11
195.766549
21
28.763419
0
LINE
8
0
10
195.766549
20
28.763419
11
196.294041
21
29.011015
0
LINE
8
0
10
196.294041
20
29.011015
11
196.733075
21
29.389847
0
LINE
8
0
10
196.733075
20
29.389847
11
197.057598
21
29.872239
0
LINE
8
0
10
197.057598
20
29.872239
11
206.127000
21
29.872239
0
LINE
8
0
10
206.127000
20
29.872239
11
206.127000
21
31.707360
0
LINE
8
0
10
206.127000
20
31.707360
11
208.873292
21
32.884305
0
LINE
8
0
10
208.873292
20
32.884305
11
207.730902
21
35.383344
0
LINE
8
0
10
207.730902
20
35.383344
11
208.723433
21
35.109130
0
LINE
8
0
10
208.723433
20
35.109130
11
209.441643
21
35.254502
0
LINE
8
0
10
209.441643
20
35.254502
11
210.028786
21
35.650698
0
LINE
8
0
10
210.028786
20
35.650698
11
210.424982
21
36.237841
0
LINE
8
0
10
210.424982
20
36.237841
11
210.570354
21
36.956052
0
LINE
8
0
10
210.570354
20
36.956052
11
210.457219
21
37.607710
0
LINE
8
0
10
210.457219
20
37.607710
11
210.148741
21
38.156359
0
LINE
8
0
10
210.148741
20
38.156359
11
210.381733
21
38.374058
0
LINE
8
0
10
210.381733
20
38.374058
11
210.769147
21
37.446923
0
LINE
8
0
10
210.769147
20
37.446923
11
211.432812
21
36.707337
0
LINE
8
0
10
211.432812
20
36.707337
11
212.309952
21
36.217772
0
LINE
8
0
10
212.309952
20
36.217772
11
213.337787
21
36.040700
0
LINE
8
0
10
213.337787
20
36.040700
11
214.500375
21
36.276016
0
LINE
8
0
10
214.500375
20
36.276016
11
215.450796
21
36.917343
0
LINE
8
0
10
215.450796
20
36.917343
11
216.092127
21
37.867757
0
LINE
8
0
10
216.092127
20
37.867757
11
216.327442
21
39.030330
0
LINE
8
0
10
216.327442
20
39.030330
11
216.092127
21
40.209430
0
LINE
8
0
10
216.092127
20
40.209430
11
215.450796
21
41.173323
0
LINE
8
0
10
215.450796
20
41.173323
11
214.500375
21
41.823729
0
LINE
8
0
10
214.500375
20
41.823729
11
213.337787
21
42.062371
0
LINE
8
0
10
213.337787
20
42.062371
11
212.549190
21
41.962424
0
LINE
8
0
10
212.549190
20
41.962424
11
211.842585
21
41.678918
0
LINE
8
0
10
211.842585
20
41.678918
11
211.241683
21
41.236354
0
LINE
8
0
10
211.241683
20
41.236354
11
210.770194
21
40.659235
0
LINE
8
0
10
210.770194
20
40.659235
11
210.452571
21
41.175389
0
LINE
8
0
10
210.452571
20
41.175389
11
210.008598
21
41.578942
0
LINE
8
0
10
210.008598
20
41.578942
11
209.465516
21
41.841729
0
LINE
8
0
10
209.465516
20
41.841729
11
208.850565
21
41.935583
0
LINE
8
0
10
208.850565
20
41.935583
11
208.017168
21
41.766882
0
LINE
8
0
10
208.017168
20
41.766882
11
207.335834
21
41.307116
0
LINE
8
0
10
207.335834
20
41.307116
11
206.876065
21
40.625789
0
LINE
8
0
10
206.876065
20
40.625789
11
206.707363
21
39.792408
0
LINE
8
0
10
206.707363
20
39.792408
11
206.885021
21
38.956868
0
LINE
8
0
10
206.885021
20
38.956868
11
207.366942
21
38.279919
0
LINE
8
0
10
207.366942
20
38.279919
11
206.976682
21
37.686427
0
LINE
8
0
10
206.976682
20
37.686427
11
206.834151
21
36.956052
0
LINE
8
0
10
206.834151
20
36.956052
11
207.070001
21
36.067159
0
LINE
8
0
10
207.070001
20
36.067159
11
206.127000
21
35.651128
0
LINE
8
0
10
206.127000
20
35.651128
11
206.127000
21
56.433964
0
LINE
8
0
10
206.127000
20
56.433964
11
221.307635
21
59.187559
0
LINE
8
0
10
221.307635
20
59.187559
11
222.200074
21
54.125081
0
LINE
8
0
10
222.200074
20
54.125081
11
239.764310
21
57.221363
0
LINE
8
0
10
239.764310
20
57.221363
11
238.856552
21
62.370757
0
LINE
8
0
10
238.856552
20
62.370757
11
262.834202
21
66.720025
0
LINE
8
0
10
262.834202
20
66.720025
11
263.037666
21
66.243961
0
LINE
8
0
10
263.037666
20
66.243961
11
262.380381
21
65.726981
0
LINE
8
0
10
262.380381
20
65.726981
11
261.872277
21
65.062909
0
LINE
8
0
10
261.872277
20
65.062909
11
261.544542
21
64.281948
0
LINE
8
0
10
261.544542
20
64.281948
11
261.428366
21
63.414299
0
LINE
8
0
10
261.428366
20
63.414299
11
261.688319
21
62.154899
0
LINE
8
0
10
261.688319
20
62.154899
11
262.396740
21
61.117742
0
LINE
8
0
10
262.396740
20
61.117742
11
263.446473
21
60.413954
0
LINE
8
0
10
263.446473
20
60.413954
11
264.730362
21
60.154663
0
LINE
8
0
10
264.730362
20
60.154663
11
265.989792
21
60.413954
0
LINE
8
0
10
265.989792
20
60.413954
11
267.026966
21
61.117742
0
LINE
8
0
10
267.026966
20
61.117742
11
267.730759
21
62.154899
0
LINE
8
0
10
267.730759
20
62.154899
11
267.990051
21
63.414299
0
LINE
8
0
10
267.990051
20
63.414299
11
267.880849
21
64.257110
0
LINE
8
0
10
267.880849
20
64.257110
11
267.572863
21
65.019345
0
LINE
8
0
10
267.572863
20
65.019345
11
267.095521
21
65.673343
0
LINE
8
0
10
267.095521
20
65.673343
11
266.478250
21
66.191441
0
LINE
8
0
10
266.478250
20
66.191441
11
269.013537
21
66.602709
0
LINE
8
0
10
269.013537
20
66.602709
11
269.600267
21
66.232739
0
LINE
8
0
10
269.600267
20
66.232739
11
270.318223
21
66.097382
0
LINE
8
0
10
270.318223
20
66.097382
11
271.036418
21
66.242726
0
LINE
8
0
10
271.036418
20
66.242726
11
271.623553
21
66.638848
0
LINE
8
0
10
271.623553
20
66.638848
11
272.019746
21
67.225881
0
LINE
8
0
10
272.019746
20
67.225881
11
272.165118
21
67.943960
0
LINE
8
0
10
272.165118
20
67.943960
11
272.108100
21
68.402191
0
LINE
8
0
10
272.108100
20
68.402191
11
272.352231
21
68.446482
0
LINE
8
0
10
272.352231
20
68.446482
11
272.686704
21
67.421210
0
LINE
8
0
10
272.686704
20
67.421210
11
273.349530
21
66.595093
0
LINE
8
0
10
273.349530
20
66.595093
11
274.264640
21
66.043875
0
LINE
8
0
10
274.264640
20
66.043875
11
275.355962
21
65.843303
0
LINE
8
0
10
275.355962
20
65.843303
11
276.518604
21
66.078622
0
LINE
8
0
10
276.518604
20
66.078622
11
277.469144
21
66.719959
0
LINE
8
0
10
277.469144
20
66.719959
11
278.110593
21
67.670382
0
LINE
8
0
10
278.110593
20
67.670382
11
278.345962
21
68.832959
0
LINE
8
0
10
278.345962
20
68.832959
11
278.265793
21
69.519128
0
LINE
8
0
10
278.265793
20
69.519128
11
278.478518
21
69.557731
0
LINE
8
0
10
278.478518
20
69.557731
11
278.665669
21
68.892296
0
LINE
8
0
10
278.665669
20
68.892296
11
279.070774
21
68.358727
0
LINE
8
0
10
279.070774
20
68.358727
11
279.647963
21
68.004079
0
LINE
8
0
10
279.647963
20
68.004079
11
280.351369
21
67.875406
0
LINE
8
0
10
280.351369
20
67.875406
11
281.069564
21
68.020746
0
LINE
8
0
10
281.069564
20
68.020746
11
281.656699
21
68.416859
0
LINE
8
0
10
281.656699
20
68.416859
11
282.052893
21
69.003883
0
LINE
8
0
10
282.052893
20
69.003883
11
282.198264
21
69.721958
0
LINE
8
0
10
282.198264
20
69.721958
11
282.127938
21
70.219691
0
LINE
8
0
10
282.127938
20
70.219691
11
284.029258
21
70.564549
0
LINE
8
0
10
284.029258
20
70.564549
11
284.196210
21
69.773789
0
LINE
8
0
10
284.196210
20
69.773789
11
284.218964
21
69.778552
0
LINE
8
0
10
284.218964
20
69.778552
11
284.687937
21
66.885548
0
LINE
8
0
10
284.687937
20
66.885548
11
288.293912
21
67.454666
0
LINE
8
0
10
288.293912
20
67.454666
11
287.822717
21
70.012496
0
LINE
8
0
10
287.822717
20
70.012496
11
288.419698
21
69.625286
0
LINE
8
0
10
288.419698
20
69.625286
11
289.156559
21
69.484018
0
LINE
8
0
10
289.156559
20
69.484018
11
289.874769
21
69.629358
0
LINE
8
0
10
289.874769
20
69.629358
11
290.461912
21
70.025471
0
LINE
8
0
10
290.461912
20
70.025471
11
290.858109
21
70.612495
0
LINE
8
0
10
290.858109
20
70.612495
11
291.003480
21
71.330569
0
LINE
8
0
10
291.003480
20
71.330569
11
290.937970
21
71.817667
0
LINE
8
0
10
290.937970
20
71.817667
11
291.144794
21
71.855184
0
LINE
8
0
10
291.144794
20
71.855184
11
291.474450
21
70.821922
0
LINE
8
0
10
291.474450
20
70.821922
11
292.137093
21
69.988723
0
LINE
8
0
10
292.137093
20
69.988723
11
293.055373
21
69.432444
0
LINE
8
0
10
293.055373
20
69.432444
11
294.151939
21
69.229939
0
LINE
8
0
10
294.151939
20
69.229939
11
295.314527
21
69.465255
0
LINE
8
0
10
295.314527
20
69.465255
11
296.264948
21
70.106585
0
LINE
8
0
10
296.264948
20
70.106585
11
296.906279
21
71.057007
0
LINE
8
0
10
296.906279
20
71.057007
11
297.141594
21
72.219595
0
LINE
8
0
10
297.141594
20
72.219595
11
296.906279
21
73.398573
0
LINE
8
0
10
296.906279
20
73.398573
11
296.264948
21
74.362403
0
LINE
8
0
10
296.264948
20
74.362403
11
295.314527
21
75.012786
0
LINE
8
0
10
295.314527
20
75.012786
11
294.151939
21
75.251425
0
LINE
8
0
10
294.151939
20
75.251425
11
294.152071
21
75.251584
0
LINE
8
0
10
205.148281
20
101.044563
11
204.928863
21
101.004743
0
LINE
8
0
10
204.928863
20
101.004743
11
204.892535
21
101.228554
0
LINE
8
0
10
204.892535
20
101.228554
11
205.148281
21
101.044563
0
LINE
8
0
10
205.148281
20
101.044563
11
205.148281
21
101.044563
 0 
ENDSEC
 0 
EOF