999
"DXF R12 Output" (www.mydxf.blogspot.com)
 0 
SECTION
 2 
HEADER
 9 
$ACADVER
 1 
AC1009
 9 
$EXTMIN
 10 
 0 
 20 
 0 
 9 
$EXTMAX
 10 
 8.5 
 20 
 11 
 0 
ENDSEC
 0 
SECTION
 2 
ENTITIES
0
LINE
8
Layer 1
10
0.793749
20
124.587749
11
-0.793749
21
123.000251
0
LINE
8
Layer 1
10
0.000000
20
125.116915
11
0.000000
21
122.471085
0
LINE
8
Layer 1
10
2.116664
20
122.735668
11
1.058332
21
121.677336
0
LINE
8
Layer 1
10
1.587498
20
123.264834
11
0.529166
21
122.206502
0
LINE
8
Layer 1
10
1.058332
20
123.794000
11
0.000000
21
122.735668
0
LINE
8
0
10
146.874600
20
40.253975
11
146.706134
21
40.252388
0
LINE
8
0
10
146.706134
20
40.252388
11
146.141829
21
40.219262
0
LINE
8
0
10
146.141829
20
40.219262
11
145.502219
21
40.052512
0
LINE
8
0
10
145.502219
20
40.052512
11
144.982440
21
39.669799
0
LINE
8
0
10
144.982440
20
39.669799
11
144.634241
21
39.126314
0
LINE
8
0
10
144.634241
20
39.126314
11
144.509370
21
38.477250
0
LINE
8
0
10
144.509370
20
38.477250
11
144.564150
21
29.187913
0
LINE
8
0
10
144.564150
20
29.187913
11
144.696640
21
28.554071
0
LINE
8
0
10
144.696640
20
28.554071
11
145.051085
21
28.052146
0
LINE
8
0
10
145.051085
20
28.052146
11
145.575084
21
27.731179
0
LINE
8
0
10
145.575084
20
27.731179
11
146.216240
21
27.640206
0
LINE
8
0
10
146.216240
20
27.640206
11
146.780548
21
27.673794
0
LINE
8
0
10
146.780548
20
27.673794
11
147.134015
21
27.733225
0
LINE
8
0
10
147.134015
20
27.733225
11
147.112822
21
24.596985
0
LINE
8
0
10
147.112822
20
24.596985
11
147.311257
21
24.395447
0
LINE
8
0
10
147.311257
20
24.395447
11
161.910859
21
24.296747
0
LINE
8
0
10
161.910859
20
24.296747
11
162.112398
21
24.495700
0
LINE
8
0
10
162.112398
20
24.495700
11
162.211100
21
39.095303
0
LINE
8
0
10
162.211100
20
39.095303
11
162.012663
21
39.296320
0
LINE
8
0
10
162.012663
20
39.296320
11
148.200092
21
39.389855
0
LINE
8
0
10
148.200092
20
39.389855
11
147.667678
21
39.999937
0
LINE
8
0
10
147.667678
20
39.999937
11
146.874594
21
40.253885
0
LINE
8
0
10
146.874594
20
40.253885
11
146.874600
21
40.253975
0
LINE
8
0
10
309.519667
20
65.768158
11
299.573992
21
121.213377
0
LINE
8
0
10
299.574416
20
121.213451
11
299.208100
21
122.204050
0
LINE
8
0
10
299.208100
20
122.204050
11
298.543177
21
122.986813
0
LINE
8
0
10
298.543177
20
122.986813
11
297.653464
21
123.500305
0
LINE
8
0
10
297.653464
20
123.500305
11
296.612779
21
123.683090
0
LINE
8
0
10
296.613308
20
123.682995
11
236.684973
21
123.532976
0
LINE
8
0
10
236.685090
20
123.532976
11
236.440996
21
123.510883
0
LINE
8
0
10
236.441028
20
123.510751
11
218.582998
21
120.284955
0
LINE
8
0
10
218.583040
20
120.285082
11
218.138065
21
120.083629
0
LINE
8
0
10
218.138065
20
120.083629
11
217.841869
21
119.695295
0
LINE
8
0
10
217.841901
20
119.695200
11
217.020371
21
117.782529
0
LINE
8
0
10
217.020371
20
117.782529
11
184.028987
21
110.943323
0
LINE
8
0
10
184.028924
20
110.943228
11
183.123701
21
110.964056
0
LINE
8
0
10
183.123701
20
110.964056
11
182.320014
21
111.382648
0
LINE
8
0
10
182.320046
20
111.382531
11
175.753625
21
117.016032
0
LINE
8
0
10
175.753614
20
117.016106
11
174.888269
21
117.603385
0
LINE
8
0
10
174.888269
20
117.603385
11
173.948439
21
117.802997
0
LINE
8
0
10
173.948375
20
117.802902
11
172.922058
21
117.800521
0
LINE
8
0
10
172.922058
20
117.800521
11
154.833576
21
117.756336
0
LINE
8
0
10
154.833576
20
117.756336
11
154.833576
21
117.767184
0
LINE
8
0
10
154.833576
20
117.767184
11
136.744301
21
117.811369
0
LINE
8
0
10
136.744301
20
117.811369
11
135.717719
21
117.814279
0
LINE
8
0
10
135.717677
20
117.814173
11
134.777275
21
117.614395
0
LINE
8
0
10
134.777275
20
117.614395
11
133.912501
21
117.025758
0
LINE
8
0
10
133.912469
20
117.025822
11
127.344461
21
111.393644
0
LINE
8
0
10
127.344577
20
111.393570
11
126.542034
21
110.974788
0
LINE
8
0
10
126.542034
20
110.974788
11
125.637192
21
110.952626
0
LINE
8
0
10
125.637107
20
110.952584
11
92.644401
21
117.793377
0
LINE
8
0
10
92.644401
20
117.793377
11
91.822870
21
119.706312
0
LINE
8
0
10
91.822976
20
119.706217
11
91.526908
21
120.094646
0
LINE
8
0
10
91.526908
20
120.094646
11
91.082821
21
120.296004
0
LINE
8
0
10
91.082832
20
120.296068
11
73.223479
21
123.520276
0
LINE
8
0
10
73.223596
20
123.520276
11
72.981280
21
123.543903
0
LINE
8
0
10
72.981386
20
123.543824
11
13.051670
21
123.694372
0
LINE
8
0
10
13.051682
20
123.694266
11
12.011501
21
123.511319
0
LINE
8
0
10
12.011501
20
123.511319
11
11.122611
21
122.997640
0
LINE
8
0
10
11.122611
20
122.997640
11
10.458254
21
122.214547
0
LINE
8
0
10
10.458254
20
122.214547
11
10.091671
21
121.223357
0
LINE
8
0
10
10.091674
20
121.223431
11
0.147762
21
65.779536
0
LINE
8
0
10
0.147762
20
65.779546
11
0.173449
21
64.587958
0
LINE
8
0
10
0.173449
20
64.587958
11
0.638514
21
63.535554
0
LINE
8
0
10
0.638514
20
63.535554
11
1.464539
21
62.734562
0
LINE
8
0
10
1.464539
20
62.734562
11
2.573104
21
62.297210
0
LINE
8
0
10
2.573107
20
62.297094
11
41.480663
21
55.058103
0
LINE
8
0
10
41.480748
20
55.058220
11
42.239953
21
55.067877
0
LINE
8
0
10
42.240016
20
55.067893
11
50.706408
21
56.831603
0
LINE
8
0
10
50.706524
20
56.831645
11
51.471317
21
56.841541
0
LINE
8
0
10
51.471317
20
56.841657
11
61.411171
21
53.820648
0
LINE
8
0
10
61.411086
20
53.820733
11
62.001223
21
53.476119
0
LINE
8
0
10
62.001223
20
53.476119
11
62.233791
21
52.833944
0
LINE
8
0
10
62.233760
20
52.834018
11
58.841012
21
35.681632
0
LINE
8
0
10
58.841118
20
35.681600
11
58.972213
21
34.961892
0
LINE
8
0
10
58.972213
20
34.961892
11
59.559175
21
34.524123
0
LINE
8
0
10
59.559090
20
34.524081
11
94.779056
21
23.566112
0
LINE
8
0
10
94.779024
20
23.567390
11
95.231715
21
23.300226
0
LINE
8
0
10
95.231715
20
23.300226
11
95.485906
21
22.839781
0
LINE
8
0
10
95.486022
20
22.838508
11
99.031699
21
14.654956
0
LINE
8
0
10
99.031741
20
14.655633
11
99.461509
21
14.052077
0
LINE
8
0
10
99.461382
20
14.051707
11
122.998421
21
0.981307
0
LINE
8
0
10
122.998389
20
0.980010
11
124.289565
21
0.386768
0
LINE
8
0
10
124.289565
20
0.386768
11
125.696373
21
0.182128
0
LINE
8
0
10
125.696373
20
0.182266
11
127.234659
21
0.176974
0
LINE
8
0
10
127.234659
20
0.176974
11
154.832253
21
0.110829
0
LINE
8
0
10
154.832253
20
0.110829
11
154.832253
21
0.100245
0
LINE
8
0
10
154.832253
20
0.100245
11
182.431700
21
0.166391
0
LINE
8
0
10
182.431700
20
0.166391
11
183.969456
21
0.171683
0
LINE
8
0
10
183.969488
20
0.171106
11
185.375440
21
0.376775
0
LINE
8
0
10
185.375440
20
0.376775
11
186.667473
21
0.968988
0
LINE
8
0
10
186.667409
20
0.968078
11
210.204713
21
14.041124
0
LINE
8
0
10
210.204607
20
14.041028
11
210.633104
21
14.644635
0
LINE
8
0
10
210.633073
20
14.644373
11
214.179014
21
22.827925
0
LINE
8
0
10
214.178940
20
22.828782
11
214.433321
21
23.289399
0
LINE
8
0
10
214.433321
20
23.289399
11
214.887345
21
23.557761
0
LINE
8
0
10
214.887303
20
23.558174
11
250.107269
21
34.513233
0
LINE
8
0
10
250.107195
20
34.513201
11
250.693204
21
34.950970
0
LINE
8
0
10
250.693204
20
34.950970
11
250.823728
21
35.672202
0
LINE
8
0
10
250.823760
20
35.672107
11
247.432335
21
52.822906
0
LINE
8
0
10
247.432324
20
52.823022
11
247.663666
21
53.465769
0
LINE
8
0
10
247.663666
20
53.465769
11
248.253759
21
53.809811
0
LINE
8
0
10
248.253865
20
53.809801
11
258.195307
21
56.831603
0
LINE
8
0
10
258.195307
20
56.831645
11
258.959846
21
56.822253
0
LINE
8
0
10
258.959951
20
56.822343
11
267.424512
21
55.058103
0
LINE
8
0
10
267.425676
20
55.058220
11
268.185135
21
55.047292
0
LINE
8
0
10
268.183865
20
55.047255
11
307.093441
21
62.285982
0
LINE
8
0
10
307.092806
20
62.286034
11
308.200840
21
62.723489
0
LINE
8
0
10
308.200840
20
62.723489
11
309.026696
21
63.524442
0
LINE
8
0
10
309.026696
20
63.524442
11
309.492032
21
64.576711
0
LINE
8
0
10
309.492032
20
64.576711
11
309.518503
21
65.768116
0
LINE
8
0
10
309.519667
20
65.768158
11
309.519667
21
65.768158
0
LINE
8
Layer 1
10
97.990100
20
52.790200
11
97.730809
21
51.530785
0
LINE
8
Layer 1
10
97.730809
20
51.530785
11
97.027018
21
50.493620
0
LINE
8
Layer 1
10
97.027018
20
50.493620
11
95.989853
21
49.789829
0
LINE
8
Layer 1
10
95.989853
20
49.789829
11
94.730437
21
49.530537
0
LINE
8
Layer 1
10
94.730437
20
49.530537
11
93.446548
21
49.789829
0
LINE
8
Layer 1
10
93.446548
20
49.789829
11
92.396815
21
50.493620
0
LINE
8
Layer 1
10
92.396815
20
50.493620
11
91.688395
21
51.530785
0
LINE
8
Layer 1
10
91.688395
20
51.530785
11
91.428442
21
52.790200
0
LINE
8
Layer 1
10
91.428442
20
52.790200
11
91.688395
21
54.074089
0
LINE
8
Layer 1
10
91.688395
20
54.074089
11
92.396815
21
55.123822
0
LINE
8
Layer 1
10
92.396815
20
55.123822
11
93.446548
21
55.832243
0
LINE
8
Layer 1
10
93.446548
20
55.832243
11
94.730437
21
56.092196
0
LINE
8
Layer 1
10
94.730437
20
56.092196
11
95.989853
21
55.832243
0
LINE
8
Layer 1
10
95.989853
20
55.832243
11
97.027018
21
55.123822
0
LINE
8
Layer 1
10
97.027018
20
55.123822
11
97.730809
21
54.074089
0
LINE
8
Layer 1
10
97.730809
20
54.074089
11
97.990100
21
52.790200
0
LINE
8
Layer 1
10
97.990100
20
52.790200
11
97.990100
21
52.790200
0
LINE
8
Layer 1
10
235.307854
20
119.095967
11
220.531520
21
116.513183
0
LINE
8
Layer 1
10
220.531520
20
116.513183
11
217.146721
21
112.195624
0
LINE
8
Layer 1
10
217.146721
20
112.195624
11
202.370385
21
109.612840
0
LINE
8
Layer 1
10
202.370385
20
109.612840
11
180.468400
21
105.030182
0
LINE
8
Layer 1
10
180.468400
20
105.030182
11
180.903514
21
102.265497
0
LINE
8
Layer 1
10
180.903514
20
102.265497
11
182.841894
21
91.652726
0
LINE
8
Layer 1
10
182.841894
20
91.652726
11
163.450863
21
91.652726
0
LINE
8
Layer 1
10
163.450863
20
91.652726
11
163.450863
21
114.297301
0
LINE
8
Layer 1
10
163.450863
20
114.297301
11
147.102015
21
114.297301
0
LINE
8
Layer 1
10
147.102015
20
114.297301
11
147.102015
21
91.652726
0
LINE
8
Layer 1
10
147.102015
20
91.652726
11
123.551556
21
91.652726
0
LINE
8
Layer 1
10
123.551556
20
91.652726
11
125.521974
21
102.861842
0
LINE
8
Layer 1
10
125.521974
20
102.861842
11
110.738921
21
105.406386
0
LINE
8
Layer 1
10
110.738921
20
105.406386
11
107.318463
21
109.677952
0
LINE
8
Layer 1
10
107.318463
20
109.677952
11
92.535928
21
112.221979
0
LINE
8
Layer 1
10
92.535928
20
112.221979
11
89.114954
21
116.366422
0
LINE
8
Layer 1
10
89.114954
20
116.366422
11
74.332419
21
118.910448
0
LINE
8
Layer 1
10
74.332419
20
118.910448
11
69.550807
21
116.315779
0
LINE
8
Layer 1
10
69.550807
20
116.315779
11
54.912965
21
118.525460
0
LINE
8
Layer 1
10
54.912965
20
118.525460
11
53.643794
21
117.257322
0
LINE
8
Layer 1
10
53.643794
20
117.257322
11
52.589485
21
118.004649
0
LINE
8
Layer 1
10
52.589485
20
118.004649
11
51.296137
21
118.279997
0
LINE
8
Layer 1
10
51.296137
20
118.279997
11
50.012232
21
118.020024
0
LINE
8
Layer 1
10
50.012232
20
118.020024
11
48.962456
21
117.311559
0
LINE
8
Layer 1
10
48.962456
20
117.311559
11
48.253992
21
116.261784
0
LINE
8
Layer 1
10
48.253992
20
116.261784
11
47.994019
21
114.977879
0
LINE
8
Layer 1
10
47.994019
20
114.977879
11
48.268457
21
113.686287
0
LINE
8
Layer 1
10
48.268457
20
113.686287
11
49.013593
21
112.632806
0
LINE
8
Layer 1
10
49.013593
20
112.632806
11
16.132451
21
118.163209
0
LINE
8
Layer 1
10
16.132451
20
118.163209
11
15.884920
21
118.253642
0
LINE
8
Layer 1
10
15.884920
20
118.253642
11
6.750092
21
66.656360
0
LINE
8
Layer 1
10
6.750092
20
66.656360
11
40.485446
21
60.282085
0
LINE
8
Layer 1
10
40.485446
20
60.282085
11
42.810881
21
60.715649
0
LINE
8
Layer 1
10
42.810881
20
60.715649
11
43.672629
21
60.304103
0
LINE
8
Layer 1
10
43.672629
20
60.304103
11
44.650042
21
60.156511
0
LINE
8
Layer 1
10
44.650042
20
60.156511
11
45.442608
21
60.256794
0
LINE
8
Layer 1
10
45.442608
20
60.256794
11
46.167621
21
60.540506
0
LINE
8
Layer 1
10
46.167621
20
60.540506
11
46.799565
21
60.981940
0
LINE
8
Layer 1
10
46.799565
20
60.981940
11
47.312925
21
61.555388
0
LINE
8
Layer 1
10
47.312925
20
61.555388
11
65.268905
21
66.684266
0
LINE
8
Layer 1
10
65.268905
20
66.684266
11
80.051440
21
64.139723
0
LINE
8
Layer 1
10
80.051440
20
64.139723
11
83.451227
21
59.974610
0
LINE
8
Layer 1
10
83.451227
20
59.974610
11
98.233762
21
57.430065
0
LINE
8
Layer 1
10
98.233762
20
57.430065
11
101.548799
21
53.116643
0
LINE
8
Layer 1
10
101.548799
20
53.116643
11
116.331335
21
50.572098
0
LINE
8
Layer 1
10
116.331335
20
50.572098
11
116.409884
21
51.019097
0
LINE
8
Layer 1
10
116.409884
20
51.019097
11
116.409884
21
42.116297
0
LINE
8
Layer 1
10
116.409884
20
42.116297
11
192.973558
21
42.116297
0
LINE
8
Layer 1
10
192.973558
20
42.116297
11
192.973558
21
50.425336
0
LINE
8
Layer 1
10
192.973558
20
50.425336
11
208.193277
21
53.096487
0
LINE
8
Layer 1
10
208.193277
20
53.096487
11
211.557405
21
57.329815
0
LINE
8
Layer 1
10
211.557405
20
57.329815
11
226.333222
21
59.912081
0
LINE
8
Layer 1
10
226.333222
20
59.912081
11
229.739213
21
64.166594
0
LINE
8
Layer 1
10
229.739213
20
64.166594
11
244.515030
21
66.748861
0
LINE
8
Layer 1
10
244.515030
20
66.748861
11
249.346250
21
63.968157
0
LINE
8
Layer 1
10
249.346250
20
63.968157
11
261.966647
21
61.545053
0
LINE
8
Layer 1
10
261.966647
20
61.545053
11
262.483351
21
60.976254
0
LINE
8
Layer 1
10
262.483351
20
60.976254
11
263.119422
21
60.537849
0
LINE
8
Layer 1
10
263.119422
20
60.537849
11
263.851414
21
60.255780
0
LINE
8
Layer 1
10
263.851414
20
60.255780
11
264.655885
21
60.155992
0
LINE
8
Layer 1
10
264.655885
20
60.155992
11
265.590957
21
60.296752
0
LINE
8
Layer 1
10
265.590957
20
60.296752
11
266.423733
21
60.689810
0
LINE
8
Layer 1
10
266.423733
20
60.689810
11
269.151726
21
60.165811
0
LINE
8
Layer 1
10
269.151726
20
60.165811
11
302.744454
21
66.114277
0
LINE
8
Layer 1
10
302.744454
20
66.114277
11
293.494905
21
118.418490
0
LINE
8
Layer 1
10
293.494905
20
118.418490
11
260.844754
21
112.670013
0
LINE
8
Layer 1
10
260.844754
20
112.670013
11
261.557119
21
113.710995
0
LINE
8
Layer 1
10
261.557119
20
113.710995
11
261.819888
21
114.977879
0
LINE
8
Layer 1
10
261.819888
20
114.977879
11
261.560582
21
116.261782
0
LINE
8
Layer 1
10
261.560582
20
116.261782
11
260.856761
21
117.311558
0
LINE
8
Layer 1
10
260.856761
20
117.311558
11
259.819567
21
118.020024
0
LINE
8
Layer 1
10
259.819567
20
118.020024
11
258.560144
21
118.279997
0
LINE
8
Layer 1
10
258.560144
20
118.279997
11
257.322386
21
118.038808
0
LINE
8
Layer 1
10
257.322386
20
118.038808
11
256.297237
21
117.379278
0
LINE
8
Layer 1
10
256.297237
20
117.379278
11
254.834278
21
118.893912
0
LINE
8
Layer 1
10
254.834278
20
118.893912
11
240.117372
21
116.335933
0
LINE
8
Layer 1
10
240.117372
20
116.335933
11
235.307854
21
119.095967
0
LINE
8
Layer 1
10
125.549000
20
12.023200
11
125.289709
21
10.763785
0
LINE
8
Layer 1
10
125.289709
20
10.763785
11
124.585918
21
9.726620
0
LINE
8
Layer 1
10
124.585918
20
9.726620
11
123.548753
21
9.022829
0
LINE
8
Layer 1
10
123.548753
20
9.022829
11
122.289337
21
8.763537
0
LINE
8
Layer 1
10
122.289337
20
8.763537
11
121.005448
21
9.022829
0
LINE
8
Layer 1
10
121.005448
20
9.022829
11
119.955715
21
9.726620
0
LINE
8
Layer 1
10
119.955715
20
9.726620
11
119.247295
21
10.763785
0
LINE
8
Layer 1
10
119.247295
20
10.763785
11
118.987342
21
12.023200
0
LINE
8
Layer 1
10
118.987342
20
12.023200
11
119.247295
21
13.307089
0
LINE
8
Layer 1
10
119.247295
20
13.307089
11
119.955715
21
14.356822
0
LINE
8
Layer 1
10
119.955715
20
14.356822
11
121.005448
21
15.065243
0
LINE
8
Layer 1
10
121.005448
20
15.065243
11
122.289337
21
15.325196
0
LINE
8
Layer 1
10
122.289337
20
15.325196
11
123.548753
21
15.065243
0
LINE
8
Layer 1
10
123.548753
20
15.065243
11
124.585918
21
14.356822
0
LINE
8
Layer 1
10
124.585918
20
14.356822
11
125.289709
21
13.307089
0
LINE
8
Layer 1
10
125.289709
20
13.307089
11
125.549000
21
12.023200
0
LINE
8
Layer 1
10
125.549000
20
12.023200
11
125.549000
21
12.023200
0
LINE
8
Layer 1
10
190.192000
20
11.980800
11
189.932709
21
10.721385
0
LINE
8
Layer 1
10
189.932709
20
10.721385
11
189.228918
21
9.684220
0
LINE
8
Layer 1
10
189.228918
20
9.684220
11
188.191753
21
8.980429
0
LINE
8
Layer 1
10
188.191753
20
8.980429
11
186.932337
21
8.721137
0
LINE
8
Layer 1
10
186.932337
20
8.721137
11
185.648448
21
8.980429
0
LINE
8
Layer 1
10
185.648448
20
8.980429
11
184.598715
21
9.684220
0
LINE
8
Layer 1
10
184.598715
20
9.684220
11
183.890295
21
10.721385
0
LINE
8
Layer 1
10
183.890295
20
10.721385
11
183.630342
21
11.980800
0
LINE
8
Layer 1
10
183.630342
20
11.980800
11
183.890295
21
13.264689
0
LINE
8
Layer 1
10
183.890295
20
13.264689
11
184.598715
21
14.314422
0
LINE
8
Layer 1
10
184.598715
20
14.314422
11
185.648448
21
15.022843
0
LINE
8
Layer 1
10
185.648448
20
15.022843
11
186.932337
21
15.282796
0
LINE
8
Layer 1
10
186.932337
20
15.282796
11
188.191753
21
15.022843
0
LINE
8
Layer 1
10
188.191753
20
15.022843
11
189.228918
21
14.314422
0
LINE
8
Layer 1
10
189.228918
20
14.314422
11
189.932709
21
13.264689
0
LINE
8
Layer 1
10
189.932709
20
13.264689
11
190.192000
21
11.980800
0
LINE
8
Layer 1
10
190.192000
20
11.980800
11
190.192000
21
11.980800
0
LINE
8
Layer 1
10
173.301000
20
98.637300
11
173.041709
21
97.377885
0
LINE
8
Layer 1
10
173.041709
20
97.377885
11
172.337918
21
96.340720
0
LINE
8
Layer 1
10
172.337918
20
96.340720
11
171.300753
21
95.636929
0
LINE
8
Layer 1
10
171.300753
20
95.636929
11
170.041337
21
95.377637
0
LINE
8
Layer 1
10
170.041337
20
95.377637
11
168.757448
21
95.636929
0
LINE
8
Layer 1
10
168.757448
20
95.636929
11
167.707715
21
96.340720
0
LINE
8
Layer 1
10
167.707715
20
96.340720
11
166.999295
21
97.377885
0
LINE
8
Layer 1
10
166.999295
20
97.377885
11
166.739342
21
98.637300
0
LINE
8
Layer 1
10
166.739342
20
98.637300
11
166.999295
21
99.921189
0
LINE
8
Layer 1
10
166.999295
20
99.921189
11
167.707715
21
100.970922
0
LINE
8
Layer 1
10
167.707715
20
100.970922
11
168.757448
21
101.679343
0
LINE
8
Layer 1
10
168.757448
20
101.679343
11
170.041337
21
101.939296
0
LINE
8
Layer 1
10
170.041337
20
101.939296
11
171.300753
21
101.679343
0
LINE
8
Layer 1
10
171.300753
20
101.679343
11
172.337918
21
100.970922
0
LINE
8
Layer 1
10
172.337918
20
100.970922
11
173.041709
21
99.921189
0
LINE
8
Layer 1
10
173.041709
20
99.921189
11
173.301000
21
98.637300
0
LINE
8
Layer 1
10
173.301000
20
98.637300
11
173.301000
21
98.637300
0
LINE
8
Layer 1
10
144.345000
20
98.637300
11
144.085709
21
97.377885
0
LINE
8
Layer 1
10
144.085709
20
97.377885
11
143.381918
21
96.340720
0
LINE
8
Layer 1
10
143.381918
20
96.340720
11
142.344753
21
95.636929
0
LINE
8
Layer 1
10
142.344753
20
95.636929
11
141.085337
21
95.377637
0
LINE
8
Layer 1
10
141.085337
20
95.377637
11
139.801448
21
95.636929
0
LINE
8
Layer 1
10
139.801448
20
95.636929
11
138.751715
21
96.340720
0
LINE
8
Layer 1
10
138.751715
20
96.340720
11
138.043295
21
97.377885
0
LINE
8
Layer 1
10
138.043295
20
97.377885
11
137.783342
21
98.637300
0
LINE
8
Layer 1
10
137.783342
20
98.637300
11
138.043295
21
99.921189
0
LINE
8
Layer 1
10
138.043295
20
99.921189
11
138.751715
21
100.970922
0
LINE
8
Layer 1
10
138.751715
20
100.970922
11
139.801448
21
101.679343
0
LINE
8
Layer 1
10
139.801448
20
101.679343
11
141.085337
21
101.939296
0
LINE
8
Layer 1
10
141.085337
20
101.939296
11
142.344753
21
101.679343
0
LINE
8
Layer 1
10
142.344753
20
101.679343
11
143.381918
21
100.970922
0
LINE
8
Layer 1
10
143.381918
20
100.970922
11
144.085709
21
99.921189
0
LINE
8
Layer 1
10
144.085709
20
99.921189
11
144.345000
21
98.637300
0
LINE
8
Layer 1
10
144.345000
20
98.637300
11
144.345000
21
98.637300
0
LINE
8
Layer 1
10
137.620000
20
110.012000
11
137.360709
21
108.752585
0
LINE
8
Layer 1
10
137.360709
20
108.752585
11
136.656918
21
107.715420
0
LINE
8
Layer 1
10
136.656918
20
107.715420
11
135.619753
21
107.011629
0
LINE
8
Layer 1
10
135.619753
20
107.011629
11
134.360337
21
106.752337
0
LINE
8
Layer 1
10
134.360337
20
106.752337
11
133.076448
21
107.011629
0
LINE
8
Layer 1
10
133.076448
20
107.011629
11
132.026715
21
107.715420
0
LINE
8
Layer 1
10
132.026715
20
107.715420
11
131.318295
21
108.752585
0
LINE
8
Layer 1
10
131.318295
20
108.752585
11
131.058342
21
110.012000
0
LINE
8
Layer 1
10
131.058342
20
110.012000
11
131.318295
21
111.295889
0
LINE
8
Layer 1
10
131.318295
20
111.295889
11
132.026715
21
112.345622
0
LINE
8
Layer 1
10
132.026715
20
112.345622
11
133.076448
21
113.054043
0
LINE
8
Layer 1
10
133.076448
20
113.054043
11
134.360337
21
113.313996
0
LINE
8
Layer 1
10
134.360337
20
113.313996
11
135.619753
21
113.054043
0
LINE
8
Layer 1
10
135.619753
20
113.054043
11
136.656918
21
112.345622
0
LINE
8
Layer 1
10
136.656918
20
112.345622
11
137.360709
21
111.295889
0
LINE
8
Layer 1
10
137.360709
20
111.295889
11
137.620000
21
110.012000
0
LINE
8
Layer 1
10
137.620000
20
110.012000
11
137.620000
21
110.012000
0
LINE
8
Layer 1
10
217.920000
20
52.790200
11
217.660709
21
51.530785
0
LINE
8
Layer 1
10
217.660709
20
51.530785
11
216.956918
21
50.493620
0
LINE
8
Layer 1
10
216.956918
20
50.493620
11
215.919753
21
49.789829
0
LINE
8
Layer 1
10
215.919753
20
49.789829
11
214.660337
21
49.530537
0
LINE
8
Layer 1
10
214.660337
20
49.530537
11
213.376448
21
49.789829
0
LINE
8
Layer 1
10
213.376448
20
49.789829
11
212.326715
21
50.493620
0
LINE
8
Layer 1
10
212.326715
20
50.493620
11
211.618295
21
51.530785
0
LINE
8
Layer 1
10
211.618295
20
51.530785
11
211.358342
21
52.790200
0
LINE
8
Layer 1
10
211.358342
20
52.790200
11
211.618295
21
54.074089
0
LINE
8
Layer 1
10
211.618295
20
54.074089
11
212.326715
21
55.123822
0
LINE
8
Layer 1
10
212.326715
20
55.123822
11
213.376448
21
55.832243
0
LINE
8
Layer 1
10
213.376448
20
55.832243
11
214.660337
21
56.092196
0
LINE
8
Layer 1
10
214.660337
20
56.092196
11
215.919753
21
55.832243
0
LINE
8
Layer 1
10
215.919753
20
55.832243
11
216.956918
21
55.123822
0
LINE
8
Layer 1
10
216.956918
20
55.123822
11
217.660709
21
54.074089
0
LINE
8
Layer 1
10
217.660709
20
54.074089
11
217.920000
21
52.790200
0
LINE
8
Layer 1
10
217.920000
20
52.790200
11
217.920000
21
52.790200
0
LINE
8
0
10
90.142752
20
49.792915
11
89.229703
21
49.494006
0
LINE
8
0
10
89.229703
20
49.494006
11
88.604866
21
48.743367
0
LINE
8
0
10
88.604866
20
48.743367
11
84.957031
21
40.200749
0
LINE
8
0
10
84.957031
20
40.200749
11
84.826186
21
39.566584
0
LINE
8
0
10
84.826186
20
39.566584
11
84.951446
21
38.965085
0
LINE
8
0
10
84.951446
20
38.965085
11
85.304291
21
38.462070
0
LINE
8
0
10
85.304291
20
38.462070
11
85.856201
21
38.123360
0
LINE
8
0
10
85.856201
20
38.123360
11
86.386917
21
37.929055
0
LINE
8
0
10
86.386917
20
37.929055
11
87.103151
21
37.832940
0
LINE
8
0
10
87.103151
20
37.832940
11
86.046888
21
35.449108
0
LINE
8
0
10
86.046888
20
35.449108
11
86.148689
21
35.185560
0
LINE
8
0
10
86.148689
20
35.185560
11
99.496690
21
29.270685
0
LINE
8
0
10
99.496690
20
29.270685
11
99.760755
21
29.372486
0
LINE
8
0
10
99.760755
20
29.372486
11
105.675031
21
42.721040
0
LINE
8
0
10
105.675031
20
42.721040
11
105.573228
21
42.984591
0
LINE
8
0
10
105.573228
20
42.984591
11
92.225227
21
48.899466
0
LINE
8
0
10
92.225227
20
48.899466
11
92.092420
21
48.906689
0
LINE
8
0
10
92.092420
20
48.906689
11
91.766192
21
49.254727
0
LINE
8
0
10
91.766192
20
49.254727
11
91.327095
21
49.497349
0
LINE
8
0
10
91.327095
20
49.497349
11
90.795862
21
49.691654
0
LINE
8
0
10
90.795862
20
49.691654
11
90.142670
21
49.792939
0
LINE
8
0
10
90.142670
20
49.792939
11
90.142752
21
49.792915
0
LINE
8
0
10
109.499163
20
37.381286
11
108.653510
21
37.130672
0
LINE
8
0
10
108.653510
20
37.130672
11
108.028971
21
36.484186
0
LINE
8
0
10
108.028971
20
36.484186
11
103.567244
21
28.336887
0
LINE
8
0
10
103.567244
20
28.336887
11
103.375296
21
27.718467
0
LINE
8
0
10
103.375296
20
27.718467
11
103.441326
21
27.107678
0
LINE
8
0
10
103.441326
20
27.107678
11
103.743431
21
26.572768
0
LINE
8
0
10
103.743431
20
26.572768
11
104.259705
21
26.181983
0
LINE
8
0
10
104.259705
20
26.181983
11
104.769237
21
25.937040
0
LINE
8
0
10
104.769237
20
25.937040
11
105.527328
21
25.771157
0
LINE
8
0
10
105.527328
20
25.771157
11
103.508766
21
22.101666
0
LINE
8
0
10
103.508766
20
22.101666
11
103.587315
21
21.829849
0
LINE
8
0
10
103.587315
20
21.829849
11
116.379276
21
14.792047
0
LINE
8
0
10
116.379276
20
14.792047
11
116.650577
21
14.871113
0
LINE
8
0
10
116.650577
20
14.871113
11
123.688379
21
27.663076
0
LINE
8
0
10
123.688379
20
27.663076
11
123.609832
21
27.934374
0
LINE
8
0
10
123.609832
20
27.934374
11
111.411630
21
34.645583
0
LINE
8
0
10
111.411630
20
34.645583
11
111.504028
21
34.814620
0
LINE
8
0
10
111.504028
20
34.814620
11
111.695976
21
35.433122
0
LINE
8
0
10
111.695976
20
35.433122
11
111.629946
21
36.044090
0
LINE
8
0
10
111.629946
20
36.044090
11
111.327841
21
36.579177
0
LINE
8
0
10
111.327841
20
36.579177
11
110.811566
21
36.970040
0
LINE
8
0
10
110.811566
20
36.970040
11
110.301519
21
37.214988
0
LINE
8
0
10
110.301519
20
37.214988
11
109.498989
21
37.381384
0
LINE
8
0
10
109.498989
20
37.381384
11
109.499163
21
37.381286
0
LINE
8
0
10
198.236753
20
35.197445
11
198.160791
21
35.173659
0
LINE
8
0
10
198.160791
20
35.173659
11
185.537293
21
28.287270
0
LINE
8
0
10
185.537293
20
28.287270
11
184.850523
21
29.566264
0
LINE
8
0
10
184.850523
20
29.566264
11
184.436868
21
30.064438
0
LINE
8
0
10
184.436868
20
30.064438
11
183.888899
21
30.342207
0
LINE
8
0
10
183.888899
20
30.342207
11
183.275782
21
30.380702
0
LINE
8
0
10
183.275782
20
30.380702
11
182.666681
21
30.161057
0
LINE
8
0
10
182.666681
20
30.161057
11
182.183505
21
29.867021
0
LINE
8
0
10
182.183505
20
29.867021
11
181.696314
21
29.420345
0
LINE
8
0
10
181.696314
20
29.420345
11
181.416087
21
28.838954
0
LINE
8
0
10
181.416087
20
28.838954
11
181.362732
21
28.195792
0
LINE
8
0
10
181.362732
20
28.195792
11
181.556158
21
27.563805
0
LINE
8
0
10
181.556158
20
27.563805
11
185.952262
21
19.380856
0
LINE
8
0
10
185.952262
20
19.380856
11
186.365929
21
18.882686
0
LINE
8
0
10
186.365929
20
18.882686
11
186.913897
21
18.604917
0
LINE
8
0
10
186.913897
20
18.604917
11
187.527009
21
18.566419
0
LINE
8
0
10
187.527009
20
18.566419
11
188.136107
21
18.786063
0
LINE
8
0
10
188.136107
20
18.786063
11
188.619280
21
19.080099
0
LINE
8
0
10
188.619280
20
19.080099
11
189.158184
21
19.601288
0
LINE
8
0
10
189.158184
20
19.601288
11
189.424914
21
20.284158
0
LINE
8
0
10
189.424914
20
20.284158
11
192.256262
21
15.093786
0
LINE
8
0
10
192.256262
20
15.093786
11
192.527563
21
15.013688
0
LINE
8
0
10
192.527563
20
15.013688
11
205.344328
21
22.006014
0
LINE
8
0
10
205.344328
20
22.006014
11
205.424428
21
22.277315
0
LINE
8
0
10
205.424428
20
22.277315
11
198.432100
21
35.094083
0
LINE
8
0
10
198.432100
20
35.094083
11
198.236767
21
35.197434
0
LINE
8
0
10
198.236767
20
35.197434
11
198.236753
21
35.197445
0
LINE
8
0
10
217.005599
20
48.837416
11
216.928090
21
48.820350
0
LINE
8
0
10
216.928090
20
48.820350
11
203.983681
21
43.149386
0
LINE
8
0
10
203.983681
20
43.149386
11
203.381597
21
43.239548
0
LINE
8
0
10
203.381597
20
43.239548
11
202.761017
21
43.077039
0
LINE
8
0
10
202.761017
20
43.077039
11
202.253560
21
42.828987
0
LINE
8
0
10
202.253560
20
42.828987
11
201.727610
21
42.428530
0
LINE
8
0
10
201.727610
20
42.428530
11
201.395439
21
41.874892
0
LINE
8
0
10
201.395439
20
41.874892
11
201.283555
21
41.239035
0
LINE
8
0
10
201.283555
20
41.239035
11
201.418467
21
40.591919
0
LINE
8
0
10
201.418467
20
40.591919
11
205.049250
21
32.042065
0
LINE
8
0
10
205.049250
20
32.042065
11
205.415771
21
31.508212
0
LINE
8
0
10
205.415771
20
31.508212
11
205.936222
21
31.181573
0
LINE
8
0
10
205.936222
20
31.181573
11
206.543386
21
31.087261
0
LINE
8
0
10
206.543386
20
31.087261
11
207.170046
21
31.250385
0
LINE
8
0
10
207.170046
20
31.250385
11
207.678022
21
31.498950
0
LINE
8
0
10
207.678022
20
31.498950
11
208.189622
21
31.884974
0
LINE
8
0
10
208.189622
20
31.884974
11
209.310994
21
29.325446
0
LINE
8
0
10
209.310994
20
29.325446
11
209.574029
21
29.222608
0
LINE
8
0
10
209.574029
20
29.222608
11
222.947350
21
35.081155
0
LINE
8
0
10
222.947350
20
35.081155
11
223.050186
21
35.344706
0
LINE
8
0
10
223.050186
20
35.344706
11
217.191638
21
48.717509
0
LINE
8
0
10
217.191638
20
48.717509
11
217.005605
21
48.837397
0
LINE
8
0
10
217.005605
20
48.837397
11
217.005599
21
48.837416
0
LINE
8
0
10
238.593395
20
54.625682
11
238.513813
21
54.623565
0
LINE
8
0
10
238.513813
20
54.623565
11
224.279047
21
51.379370
0
LINE
8
0
10
224.279047
20
51.379370
11
224.221169
21
51.353520
0
LINE
8
0
10
224.221169
20
51.353520
11
223.739494
21
51.444759
0
LINE
8
0
10
223.739494
20
51.444759
11
223.228467
21
51.375216
0
LINE
8
0
10
223.228467
20
51.375216
11
222.686897
21
51.211402
0
LINE
8
0
10
222.686897
20
51.211402
11
222.103874
21
50.900097
0
LINE
8
0
10
222.103874
20
50.900097
11
221.687829
21
50.406677
0
LINE
8
0
10
221.687829
20
50.406677
11
221.476117
21
49.796918
0
LINE
8
0
10
221.476117
20
49.796918
11
221.506093
21
49.136595
0
LINE
8
0
10
221.506093
20
49.136595
11
223.725076
21
40.116490
0
LINE
8
0
10
223.725076
20
40.116490
11
224.001591
21
39.531011
0
LINE
8
0
10
224.001591
20
39.531011
11
224.463080
21
39.125576
0
LINE
8
0
10
224.463080
20
39.125576
11
225.047268
21
38.935641
0
LINE
8
0
10
225.047268
20
38.935641
11
225.691878
21
38.996664
0
LINE
8
0
10
225.691878
20
38.996664
11
226.232929
21
39.160478
0
LINE
8
0
10
226.232929
20
39.160478
11
226.792067
21
39.453998
0
LINE
8
0
10
226.792067
20
39.453998
11
227.372908
21
36.904804
0
LINE
8
0
10
227.372908
20
36.904804
11
227.612171
21
36.754426
0
LINE
8
0
10
227.612171
20
36.754426
11
241.847453
21
39.998669
0
LINE
8
0
10
241.847453
20
39.998669
11
241.997832
21
40.237928
0
LINE
8
0
10
241.997832
20
40.237928
11
238.753592
21
54.473213
0
LINE
8
0
10
238.753592
20
54.473213
11
238.593395
21
54.625655
0
LINE
8
0
10
238.593395
20
54.625655
11
238.593395
21
54.625682
0
LINE
8
0
10
68.703272
20
55.120227
11
68.144189
21
55.006729
0
LINE
8
0
10
68.144189
20
55.006729
11
67.655719
21
54.723726
0
LINE
8
0
10
67.655719
20
54.723726
11
67.279940
21
54.299589
0
LINE
8
0
10
67.279940
20
54.299589
11
67.058933
21
53.762689
0
LINE
8
0
10
67.058933
20
53.762689
11
65.046137
21
44.694522
0
LINE
8
0
10
65.046137
20
44.694522
11
65.034250
21
44.047024
0
LINE
8
0
10
65.034250
20
44.047024
11
65.268043
21
43.478680
0
LINE
8
0
10
65.268043
20
43.478680
11
65.707402
21
43.049037
0
LINE
8
0
10
65.707402
20
43.049037
11
66.312209
21
42.817639
0
LINE
8
0
10
66.312209
20
42.817639
11
66.869796
21
42.724620
0
LINE
8
0
10
66.869796
20
42.724620
11
67.650110
21
42.778364
0
LINE
8
0
10
67.650110
20
42.778364
11
67.079603
21
40.303066
0
LINE
8
0
10
67.079603
20
40.303066
11
67.229462
21
40.063290
0
LINE
8
0
10
67.229462
20
40.063290
11
81.455961
21
36.782874
0
LINE
8
0
10
81.455961
20
36.782874
11
81.695739
21
36.932736
0
LINE
8
0
10
81.695739
20
36.932736
11
84.976153
21
51.159750
0
LINE
8
0
10
84.976153
20
51.159750
11
84.826293
21
51.399529
0
LINE
8
0
10
84.826293
20
51.399529
11
70.599795
21
54.679943
0
LINE
8
0
10
70.599795
20
54.679943
11
70.404974
21
54.613797
0
LINE
8
0
10
70.404974
20
54.613797
11
69.595723
21
55.004988
0
LINE
8
0
10
69.595723
20
55.004988
11
69.038136
21
55.098005
0
LINE
8
0
10
69.038136
20
55.098005
11
68.703272
21
55.120230
0
LINE
8
0
10
68.703272
20
55.120230
11
68.703272
21
55.120227
0
LINE
8
0
10
125.668550
20
21.577929
11
181.449372
21
21.577929
0
LINE
8
0
10
181.449372
20
21.577929
11
181.449372
21
4.968729
0
LINE
8
0
10
181.449372
20
4.968729
11
125.668550
21
4.968729
0
LINE
8
0
10
125.668550
20
4.968729
11
125.668550
21
21.577929
0
LINE
8
Layer 1
10
178.107000
20
110.048000
11
177.847709
21
108.788585
0
LINE
8
Layer 1
10
177.847709
20
108.788585
11
177.143918
21
107.751420
0
LINE
8
Layer 1
10
177.143918
20
107.751420
11
176.106753
21
107.047629
0
LINE
8
Layer 1
10
176.106753
20
107.047629
11
174.847337
21
106.788337
0
LINE
8
Layer 1
10
174.847337
20
106.788337
11
173.563448
21
107.047629
0
LINE
8
Layer 1
10
173.563448
20
107.047629
11
172.513715
21
107.751420
0
LINE
8
Layer 1
10
172.513715
20
107.751420
11
171.805295
21
108.788585
0
LINE
8
Layer 1
10
171.805295
20
108.788585
11
171.545342
21
110.048000
0
LINE
8
Layer 1
10
171.545342
20
110.048000
11
171.805295
21
111.331889
0
LINE
8
Layer 1
10
171.805295
20
111.331889
11
172.513715
21
112.381622
0
LINE
8
Layer 1
10
172.513715
20
112.381622
11
173.563448
21
113.090043
0
LINE
8
Layer 1
10
173.563448
20
113.090043
11
174.847337
21
113.349996
0
LINE
8
Layer 1
10
174.847337
20
113.349996
11
176.106753
21
113.090043
0
LINE
8
Layer 1
10
176.106753
20
113.090043
11
177.143918
21
112.381622
0
LINE
8
Layer 1
10
177.143918
20
112.381622
11
177.847709
21
111.331889
0
LINE
8
Layer 1
10
177.847709
20
111.331889
11
178.107000
21
110.048000
0
LINE
8
Layer 1
10
178.107000
20
110.048000
11
178.107000
21
110.048000
 0 
ENDSEC
 0 
EOF