999
"DXF R12 Output" (www.mydxf.blogspot.com)
 0 
SECTION
 2 
HEADER
 9 
$ACADVER
 1 
AC1009
 9 
$EXTMIN
 10 
 0 
 20 
 0 
 9 
$EXTMAX
 10 
 8.5 
 20 
 11 
 0 
ENDSEC
 0 
SECTION
 2 
ENTITIES
0
LINE
8
Layer 1
10
0.793749
20
124.587749
11
-0.793749
21
123.000251
0
LINE
8
Layer 1
10
0.000000
20
125.116915
11
0.000000
21
122.471085
0
LINE
8
Layer 1
10
2.116664
20
122.735668
11
1.058332
21
121.677336
0
LINE
8
Layer 1
10
1.587498
20
123.264834
11
0.529166
21
122.206502
0
LINE
8
Layer 1
10
1.058332
20
123.794000
11
0.000000
21
122.735668
0
LINE
8
0
10
309.519679
20
65.768129
11
299.574004
21
121.213348
0
LINE
8
0
10
299.574428
20
121.213422
11
299.208112
21
122.204021
0
LINE
8
0
10
299.208112
20
122.204021
11
298.543189
21
122.986784
0
LINE
8
0
10
298.543189
20
122.986784
11
297.653476
21
123.500276
0
LINE
8
0
10
297.653476
20
123.500276
11
296.612791
21
123.683061
0
LINE
8
0
10
296.613321
20
123.682966
11
236.684983
21
123.532947
0
LINE
8
0
10
236.685099
20
123.532947
11
236.441005
21
123.510854
0
LINE
8
0
10
236.441037
20
123.510722
11
218.583008
21
120.284926
0
LINE
8
0
10
218.583050
20
120.285053
11
218.138074
21
120.083600
0
LINE
8
0
10
218.138074
20
120.083600
11
217.841879
21
119.695266
0
LINE
8
0
10
217.841911
20
119.695171
11
217.020380
21
117.782500
0
LINE
8
0
10
217.020380
20
117.782500
11
184.028997
21
110.943294
0
LINE
8
0
10
184.028933
20
110.943199
11
183.123710
21
110.964027
0
LINE
8
0
10
183.123710
20
110.964027
11
182.320024
21
111.382618
0
LINE
8
0
10
182.320055
20
111.382502
11
175.753634
21
117.016003
0
LINE
8
0
10
175.753624
20
117.016077
11
174.888279
21
117.603356
0
LINE
8
0
10
174.888279
20
117.603356
11
173.948448
21
117.802968
0
LINE
8
0
10
173.948385
20
117.802873
11
172.922067
21
117.800492
0
LINE
8
0
10
172.933180
20
117.833051
11
165.429630
21
117.757408
0
LINE
8
0
10
145.530316
20
117.778454
11
136.693164
21
117.800040
0
LINE
8
0
10
136.744311
20
117.811340
11
135.717729
21
117.814250
0
LINE
8
0
10
135.717686
20
117.814144
11
134.777284
21
117.614366
0
LINE
8
0
10
134.777284
20
117.614366
11
133.912511
21
117.025729
0
LINE
8
0
10
133.912479
20
117.025793
11
127.344470
21
111.393615
0
LINE
8
0
10
127.344587
20
111.393540
11
126.542043
21
110.974758
0
LINE
8
0
10
126.542043
20
110.974758
11
125.637201
21
110.952597
0
LINE
8
0
10
125.637116
20
110.952555
11
92.644410
21
117.793348
0
LINE
8
0
10
92.644410
20
117.793348
11
91.822880
21
119.706283
0
LINE
8
0
10
91.822986
20
119.706188
11
91.526917
21
120.094617
0
LINE
8
0
10
91.526917
20
120.094617
11
91.082830
21
120.295975
0
LINE
8
0
10
91.082841
20
120.296039
11
73.223489
21
123.520247
0
LINE
8
0
10
73.223605
20
123.520247
11
72.981289
21
123.543874
0
LINE
8
0
10
72.981395
20
123.543795
11
13.051678
21
123.694343
0
LINE
8
0
10
13.051690
20
123.694237
11
12.011510
21
123.511290
0
LINE
8
0
10
12.011510
20
123.511290
11
11.122619
21
122.997611
0
LINE
8
0
10
11.122619
20
122.997611
11
10.458262
21
122.214518
0
LINE
8
0
10
10.458262
20
122.214518
11
10.091679
21
121.223328
0
LINE
8
0
10
10.091682
20
121.223402
11
0.147770
21
65.779506
0
LINE
8
0
10
0.147770
20
65.779516
11
0.173457
21
64.587929
0
LINE
8
0
10
0.173457
20
64.587929
11
0.638523
21
63.535524
0
LINE
8
0
10
0.638523
20
63.535524
11
1.464548
21
62.734533
0
LINE
8
0
10
1.464548
20
62.734533
11
2.573112
21
62.297181
0
LINE
8
0
10
2.573115
20
62.297064
11
41.480672
21
55.058074
0
LINE
8
0
10
41.480757
20
55.058190
11
42.239962
21
55.067847
0
LINE
8
0
10
42.240026
20
55.067863
11
50.706417
21
56.831573
0
LINE
8
0
10
50.706533
20
56.831616
11
51.471326
21
56.841511
0
LINE
8
0
10
51.471326
20
56.841628
11
61.411181
21
53.820619
0
LINE
8
0
10
61.411096
20
53.820703
11
62.001232
21
53.476089
0
LINE
8
0
10
62.001232
20
53.476089
11
62.233801
21
52.833915
0
LINE
8
0
10
62.233769
20
52.833989
11
58.841021
21
35.681602
0
LINE
8
0
10
58.841127
20
35.681570
11
58.972223
21
34.961862
0
LINE
8
0
10
58.972223
20
34.961862
11
59.559184
21
34.524094
0
LINE
8
0
10
59.559100
20
34.524051
11
94.779066
21
23.566082
0
LINE
8
0
10
94.779034
20
23.567360
11
95.231725
21
23.300197
0
LINE
8
0
10
95.231725
20
23.300197
11
95.485915
21
22.839751
0
LINE
8
0
10
95.486031
20
22.838479
11
99.031708
21
14.654926
0
LINE
8
0
10
99.031750
20
14.655604
11
99.461518
21
14.052048
0
LINE
8
0
10
99.461391
20
14.051677
11
122.998430
21
0.981277
0
LINE
8
0
10
122.998398
20
0.979981
11
124.289574
21
0.386738
0
LINE
8
0
10
124.289574
20
0.386738
11
125.696383
21
0.182099
0
LINE
8
0
10
125.696383
20
0.182236
11
127.234668
21
0.176945
0
LINE
8
0
10
127.234668
20
0.176945
11
154.832263
21
0.110799
0
LINE
8
0
10
154.832263
20
0.110799
11
154.832263
21
0.100216
0
LINE
8
0
10
154.832263
20
0.100216
11
182.431709
21
0.166361
0
LINE
8
0
10
182.431709
20
0.166361
11
183.969466
21
0.171653
0
LINE
8
0
10
183.969497
20
0.171076
11
185.375449
21
0.376745
0
LINE
8
0
10
185.375449
20
0.376745
11
186.667482
21
0.968958
0
LINE
8
0
10
186.667419
20
0.968048
11
210.204722
21
14.041094
0
LINE
8
0
10
210.204616
20
14.040999
11
210.633114
21
14.644605
0
LINE
8
0
10
210.633082
20
14.644343
11
214.179023
21
22.827895
0
LINE
8
0
10
214.178949
20
22.828753
11
214.433330
21
23.289369
0
LINE
8
0
10
214.433330
20
23.289369
11
214.887354
21
23.557732
0
LINE
8
0
10
214.887312
20
23.558144
11
250.107278
21
34.513204
0
LINE
8
0
10
250.107204
20
34.513172
11
250.693213
21
34.950940
0
LINE
8
0
10
250.693213
20
34.950940
11
250.823737
21
35.672172
0
LINE
8
0
10
250.823769
20
35.672077
11
247.432344
21
52.822876
0
LINE
8
0
10
247.432333
20
52.822993
11
247.663676
21
53.465739
0
LINE
8
0
10
247.663676
20
53.465739
11
248.253768
21
53.809781
0
LINE
8
0
10
248.253874
20
53.809771
11
258.195316
21
56.831573
0
LINE
8
0
10
258.195316
20
56.831616
11
258.959855
21
56.822223
0
LINE
8
0
10
258.959961
20
56.822313
11
267.424524
21
55.058074
0
LINE
8
0
10
267.425688
20
55.058190
11
268.185147
21
55.047263
0
LINE
8
0
10
268.183877
20
55.047226
11
307.093453
21
62.285952
0
LINE
8
0
10
307.092818
20
62.286005
11
308.200852
21
62.723460
0
LINE
8
0
10
308.200852
20
62.723460
11
309.026708
21
63.524412
0
LINE
8
0
10
309.026708
20
63.524412
11
309.492044
21
64.576681
0
LINE
8
0
10
309.492044
20
64.576681
11
309.518515
21
65.768086
0
LINE
8
0
10
309.519679
20
65.768129
11
309.519679
21
65.768129
0
LINE
8
0
10
123.368015
20
12.041982
11
123.280575
21
11.614019
0
LINE
8
0
10
123.280575
20
11.614019
11
123.043934
21
11.264902
0
LINE
8
0
10
123.043934
20
11.264902
11
122.693639
21
11.029952
0
LINE
8
0
10
122.693639
20
11.029952
11
122.265233
21
10.944491
0
LINE
8
0
10
122.265233
20
10.944491
11
121.837326
21
11.032210
0
LINE
8
0
10
121.837326
20
11.032210
11
121.488329
21
11.268947
0
LINE
8
0
10
121.488329
20
11.268947
11
121.253501
21
11.619239
0
LINE
8
0
10
121.253501
20
11.619239
11
121.168095
21
12.047625
0
LINE
8
0
10
121.168095
20
12.047625
11
121.255486
21
12.475385
0
LINE
8
0
10
121.255486
20
12.475385
11
121.492044
21
12.824397
0
LINE
8
0
10
121.492044
20
12.824397
11
121.842323
21
13.059308
0
LINE
8
0
10
121.842323
20
13.059308
11
122.270877
21
13.144763
0
LINE
8
0
10
122.270877
20
13.144763
11
122.698636
21
13.057372
0
LINE
8
0
10
122.698636
20
13.057372
11
123.047649
21
12.820814
0
LINE
8
0
10
123.047649
20
12.820814
11
123.282560
21
12.470535
0
LINE
8
0
10
123.282560
20
12.470535
11
123.368015
21
12.041982
0
LINE
8
0
10
123.368015
20
12.041982
11
123.368015
21
12.041982
0
LINE
8
0
10
188.010937
20
11.999638
11
187.923496
21
11.571675
0
LINE
8
0
10
187.923496
20
11.571675
11
187.686856
21
11.222558
0
LINE
8
0
10
187.686856
20
11.222558
11
187.336560
21
10.987608
0
LINE
8
0
10
187.336560
20
10.987608
11
186.908155
21
10.902147
0
LINE
8
0
10
186.908155
20
10.902147
11
186.480247
21
10.989866
0
LINE
8
0
10
186.480247
20
10.989866
11
186.131251
21
11.226603
0
LINE
8
0
10
186.131251
20
11.226603
11
185.896422
21
11.576895
0
LINE
8
0
10
185.896422
20
11.576895
11
185.811016
21
12.005281
0
LINE
8
0
10
185.811016
20
12.005281
11
185.898407
21
12.433041
0
LINE
8
0
10
185.898407
20
12.433041
11
186.134965
21
12.782053
0
LINE
8
0
10
186.134965
20
12.782053
11
186.485244
21
13.016964
0
LINE
8
0
10
186.485244
20
13.016964
11
186.913798
21
13.102420
0
LINE
8
0
10
186.913798
20
13.102420
11
187.341558
21
13.015029
0
LINE
8
0
10
187.341558
20
13.015029
11
187.690570
21
12.778470
0
LINE
8
0
10
187.690570
20
12.778470
11
187.925481
21
12.428191
0
LINE
8
0
10
187.925481
20
12.428191
11
188.010937
21
11.999638
0
LINE
8
0
10
188.010937
20
11.999638
11
188.010937
21
11.999638
0
LINE
8
0
10
215.739203
20
52.808917
11
215.651763
21
52.380954
0
LINE
8
0
10
215.651763
20
52.380954
11
215.415122
21
52.031837
0
LINE
8
0
10
215.415122
20
52.031837
11
215.064827
21
51.796887
0
LINE
8
0
10
215.064827
20
51.796887
11
214.636421
21
51.711427
0
LINE
8
0
10
214.636421
20
51.711427
11
214.208513
21
51.799145
0
LINE
8
0
10
214.208513
20
51.799145
11
213.859517
21
52.035882
0
LINE
8
0
10
213.859517
20
52.035882
11
213.624689
21
52.386175
0
LINE
8
0
10
213.624689
20
52.386175
11
213.539283
21
52.814560
0
LINE
8
0
10
213.539283
20
52.814560
11
213.626674
21
53.242320
0
LINE
8
0
10
213.626674
20
53.242320
11
213.863232
21
53.591333
0
LINE
8
0
10
213.863232
20
53.591333
11
214.213511
21
53.826244
0
LINE
8
0
10
214.213511
20
53.826244
11
214.642065
21
53.911699
0
LINE
8
0
10
214.642065
20
53.911699
11
215.069824
21
53.824308
0
LINE
8
0
10
215.069824
20
53.824308
11
215.418837
21
53.587750
0
LINE
8
0
10
215.418837
20
53.587750
11
215.653748
21
53.237471
0
LINE
8
0
10
215.653748
20
53.237471
11
215.739203
21
52.808917
0
LINE
8
0
10
215.739203
20
52.808917
11
215.739203
21
52.808917
0
LINE
8
0
10
265.734844
20
63.434581
11
265.647962
21
63.006618
0
LINE
8
0
10
265.647962
20
63.006618
11
265.411259
21
62.657501
0
LINE
8
0
10
265.411259
20
62.657501
11
265.060653
21
62.422551
0
LINE
8
0
10
265.060653
20
62.422551
11
264.632062
21
62.337091
0
LINE
8
0
10
264.632062
20
62.337091
11
264.204154
21
62.424809
0
LINE
8
0
10
264.204154
20
62.424809
11
263.855157
21
62.661546
0
LINE
8
0
10
263.855157
20
62.661546
11
263.620326
21
63.011838
0
LINE
8
0
10
263.620326
20
63.011838
11
263.534916
21
63.440224
0
LINE
8
0
10
263.534916
20
63.440224
11
263.621750
21
63.867984
0
LINE
8
0
10
263.621750
20
63.867984
11
263.858372
21
64.216996
0
LINE
8
0
10
263.858372
20
64.216996
11
264.208961
21
64.451908
0
LINE
8
0
10
264.208961
20
64.451908
11
264.637698
21
64.537363
0
LINE
8
0
10
264.637698
20
64.537363
11
265.065461
21
64.449972
0
LINE
8
0
10
265.065461
20
64.449972
11
265.414474
21
64.213414
0
LINE
8
0
10
265.414474
20
64.213414
11
265.649385
21
63.863135
0
LINE
8
0
10
265.649385
20
63.863135
11
265.734844
21
63.434581
0
LINE
8
0
10
265.734844
20
63.434581
11
265.734844
21
63.434581
0
LINE
8
0
10
259.638844
20
114.996516
11
259.551961
21
114.568553
0
LINE
8
0
10
259.551961
20
114.568553
11
259.315259
21
114.219436
0
LINE
8
0
10
259.315259
20
114.219436
11
258.964653
21
113.984486
0
LINE
8
0
10
258.964653
20
113.984486
11
258.536062
21
113.899026
0
LINE
8
0
10
258.536062
20
113.899026
11
258.108154
21
113.986745
0
LINE
8
0
10
258.108154
20
113.986745
11
257.759157
21
114.223481
0
LINE
8
0
10
257.759157
20
114.223481
11
257.524326
21
114.573774
0
LINE
8
0
10
257.524326
20
114.573774
11
257.438915
21
115.002160
0
LINE
8
0
10
257.438915
20
115.002160
11
257.525750
21
115.429919
0
LINE
8
0
10
257.525750
20
115.429919
11
257.762371
21
115.778932
0
LINE
8
0
10
257.762371
20
115.778932
11
258.112961
21
116.013843
0
LINE
8
0
10
258.112961
20
116.013843
11
258.541697
21
116.099298
0
LINE
8
0
10
258.541697
20
116.099298
11
258.969460
21
116.011907
0
LINE
8
0
10
258.969460
20
116.011907
11
259.318473
21
115.775349
0
LINE
8
0
10
259.318473
20
115.775349
11
259.553385
21
115.425070
0
LINE
8
0
10
259.553385
20
115.425070
11
259.638844
21
114.996516
0
LINE
8
0
10
259.638844
20
114.996516
11
259.638844
21
114.996516
0
LINE
8
0
10
171.119950
20
98.655867
11
171.032509
21
98.227904
0
LINE
8
0
10
171.032509
20
98.227904
11
170.795869
21
97.878787
0
LINE
8
0
10
170.795869
20
97.878787
11
170.445573
21
97.643838
0
LINE
8
0
10
170.445573
20
97.643838
11
170.017168
21
97.558377
0
LINE
8
0
10
170.017168
20
97.558377
11
169.589260
21
97.646096
0
LINE
8
0
10
169.589260
20
97.646096
11
169.240264
21
97.882832
0
LINE
8
0
10
169.240264
20
97.882832
11
169.005435
21
98.233125
0
LINE
8
0
10
169.005435
20
98.233125
11
168.920030
21
98.661511
0
LINE
8
0
10
168.920030
20
98.661511
11
169.007421
21
99.089270
0
LINE
8
0
10
169.007421
20
99.089270
11
169.243979
21
99.438283
0
LINE
8
0
10
169.243979
20
99.438283
11
169.594258
21
99.673194
0
LINE
8
0
10
169.594258
20
99.673194
11
170.022812
21
99.758649
0
LINE
8
0
10
170.022812
20
99.758649
11
170.450571
21
99.671258
0
LINE
8
0
10
170.450571
20
99.671258
11
170.799584
21
99.434700
0
LINE
8
0
10
170.799584
20
99.434700
11
171.034495
21
99.084421
0
LINE
8
0
10
171.034495
20
99.084421
11
171.119950
21
98.655867
0
LINE
8
0
10
171.119950
20
98.655867
11
171.119950
21
98.655867
0
LINE
8
0
10
142.163986
20
98.655867
11
142.076546
21
98.227904
0
LINE
8
0
10
142.076546
20
98.227904
11
141.839905
21
97.878787
0
LINE
8
0
10
141.839905
20
97.878787
11
141.489610
21
97.643838
0
LINE
8
0
10
141.489610
20
97.643838
11
141.061205
21
97.558377
0
LINE
8
0
10
141.061205
20
97.558377
11
140.633297
21
97.646096
0
LINE
8
0
10
140.633297
20
97.646096
11
140.284301
21
97.882832
0
LINE
8
0
10
140.284301
20
97.882832
11
140.049472
21
98.233125
0
LINE
8
0
10
140.049472
20
98.233125
11
139.964066
21
98.661511
0
LINE
8
0
10
139.964066
20
98.661511
11
140.051457
21
99.089270
0
LINE
8
0
10
140.051457
20
99.089270
11
140.288015
21
99.438283
0
LINE
8
0
10
140.288015
20
99.438283
11
140.638294
21
99.673194
0
LINE
8
0
10
140.638294
20
99.673194
11
141.066848
21
99.758649
0
LINE
8
0
10
141.066848
20
99.758649
11
141.494608
21
99.671258
0
LINE
8
0
10
141.494608
20
99.671258
11
141.843620
21
99.434700
0
LINE
8
0
10
141.843620
20
99.434700
11
142.078531
21
99.084421
0
LINE
8
0
10
142.078531
20
99.084421
11
142.163986
21
98.655867
0
LINE
8
0
10
142.163986
20
98.655867
11
142.163986
21
98.655867
0
LINE
8
0
10
156.008162
20
79.948272
11
155.920722
21
79.520309
0
LINE
8
0
10
155.920722
20
79.520309
11
155.684081
21
79.171192
0
LINE
8
0
10
155.684081
20
79.171192
11
155.333786
21
78.936242
0
LINE
8
0
10
155.333786
20
78.936242
11
154.905380
21
78.850782
0
LINE
8
0
10
154.905380
20
78.850782
11
154.477472
21
78.938501
0
LINE
8
0
10
154.477472
20
78.938501
11
154.128476
21
79.175237
0
LINE
8
0
10
154.128476
20
79.175237
11
153.893648
21
79.525530
0
LINE
8
0
10
153.893648
20
79.525530
11
153.808242
21
79.953916
0
LINE
8
0
10
153.808242
20
79.953916
11
153.895633
21
80.381675
0
LINE
8
0
10
153.895633
20
80.381675
11
154.132191
21
80.730688
0
LINE
8
0
10
154.132191
20
80.730688
11
154.482470
21
80.965599
0
LINE
8
0
10
154.482470
20
80.965599
11
154.911024
21
81.051054
0
LINE
8
0
10
154.911024
20
81.051054
11
155.338783
21
80.963663
0
LINE
8
0
10
155.338783
20
80.963663
11
155.687796
21
80.727105
0
LINE
8
0
10
155.687796
20
80.727105
11
155.922707
21
80.376826
0
LINE
8
0
10
155.922707
20
80.376826
11
156.008162
21
79.948272
0
LINE
8
0
10
156.008162
20
79.948272
11
156.008162
21
79.948272
0
LINE
8
0
10
175.798444
20
110.344618
11
175.711004
21
109.916655
0
LINE
8
0
10
175.711004
20
109.916655
11
175.474363
21
109.567538
0
LINE
8
0
10
175.474363
20
109.567538
11
175.124068
21
109.332588
0
LINE
8
0
10
175.124068
20
109.332588
11
174.695662
21
109.247128
0
LINE
8
0
10
174.695662
20
109.247128
11
174.267754
21
109.334847
0
LINE
8
0
10
174.267754
20
109.334847
11
173.918758
21
109.571583
0
LINE
8
0
10
173.918758
20
109.571583
11
173.683930
21
109.921876
0
LINE
8
0
10
173.683930
20
109.921876
11
173.598524
21
110.350262
0
LINE
8
0
10
173.598524
20
110.350262
11
173.685915
21
110.778021
0
LINE
8
0
10
173.685915
20
110.778021
11
173.922473
21
111.127034
0
LINE
8
0
10
173.922473
20
111.127034
11
174.272752
21
111.361945
0
LINE
8
0
10
174.272752
20
111.361945
11
174.701306
21
111.447400
0
LINE
8
0
10
174.701306
20
111.447400
11
175.129065
21
111.360009
0
LINE
8
0
10
175.129065
20
111.360009
11
175.478078
21
111.123451
0
LINE
8
0
10
175.478078
20
111.123451
11
175.712989
21
110.773172
0
LINE
8
0
10
175.712989
20
110.773172
11
175.798444
21
110.344618
0
LINE
8
0
10
175.798444
20
110.344618
11
175.798444
21
110.344618
0
LINE
8
Layer 1
10
198.519175
20
104.870797
11
200.974513
21
91.112481
0
LINE
8
Layer 1
10
184.803200
20
102.457803
11
198.519175
21
104.870797
0
LINE
8
Layer 1
10
187.216197
20
88.699487
11
184.803200
21
102.457803
0
LINE
8
Layer 1
10
200.974513
20
91.112481
11
187.216197
21
88.699487
0
LINE
8
Layer 1
10
123.081270
20
27.612569
11
116.307953
21
15.378238
0
LINE
8
Layer 1
10
116.307953
20
15.378238
11
104.115963
21
22.151573
0
LINE
8
Layer 1
10
110.889299
20
34.385888
11
123.081270
21
27.612569
0
LINE
8
Layer 1
10
115.884610
20
51.149862
11
102.126294
21
53.562859
0
LINE
8
Layer 1
10
104.115963
20
22.151573
11
110.889299
21
34.385888
0
LINE
8
Layer 1
10
118.297623
20
64.908178
11
115.884610
21
51.149862
0
LINE
8
Layer 1
10
104.539307
20
67.321175
11
118.297623
21
64.908178
0
LINE
8
Layer 1
10
128.584594
20
19.780904
11
142.554589
21
19.780904
0
LINE
8
Layer 1
10
128.584594
20
5.810924
11
128.584594
21
19.780904
0
LINE
8
Layer 1
10
142.554589
20
5.810924
11
128.584594
21
5.810924
0
LINE
8
Layer 1
10
121.641939
20
83.619496
11
119.186616
21
69.861182
0
LINE
8
Layer 1
10
119.186616
20
69.861182
11
105.428300
21
72.274177
0
LINE
8
Layer 1
10
107.883623
20
86.032493
11
121.641939
21
83.619496
0
LINE
8
Layer 1
10
105.428300
20
72.274177
11
107.883623
21
86.032493
0
LINE
8
Layer 1
10
103.480975
20
90.477484
11
101.067962
21
76.719168
0
LINE
8
Layer 1
10
89.722659
20
92.890479
11
103.480975
21
90.477484
0
LINE
8
Layer 1
10
104.327627
20
95.472812
11
90.569311
21
97.885808
0
LINE
8
Layer 1
10
100.221309
20
71.766183
11
97.765971
21
58.007867
0
LINE
8
Layer 1
10
84.007655
20
60.463189
11
86.462993
21
74.179177
0
LINE
8
Layer 1
10
86.462993
20
74.179177
11
100.221309
21
71.766183
0
LINE
8
Layer 1
10
97.765971
20
58.007867
11
84.007655
21
60.463189
0
LINE
8
Layer 1
10
102.126294
20
53.562859
11
104.539307
21
67.321175
0
LINE
8
Layer 1
10
101.067962
20
76.719168
11
87.309646
21
79.132163
0
LINE
8
Layer 1
10
99.374641
20
29.856228
11
86.632313
21
35.528887
0
LINE
8
Layer 1
10
105.089626
20
42.598540
11
99.374641
21
29.856228
0
LINE
8
Layer 1
10
92.304976
20
48.313540
11
105.089626
21
42.598540
0
LINE
8
Layer 1
10
84.388655
20
50.938201
11
81.256003
21
37.349221
0
LINE
8
Layer 1
10
81.256003
20
37.349221
11
67.667014
21
40.481876
0
LINE
8
Layer 1
10
70.799677
20
54.113197
11
84.388655
21
50.938201
0
LINE
8
Layer 1
10
86.632313
20
35.528887
11
92.304976
21
48.313540
0
LINE
8
Layer 1
10
67.667014
20
40.481876
11
70.799677
21
54.113197
0
LINE
8
Layer 1
10
111.185629
20
104.828464
11
124.943945
21
102.415467
0
LINE
8
Layer 1
10
124.943945
20
102.415467
11
122.530951
21
88.657151
0
LINE
8
Layer 1
10
108.772635
20
91.070148
11
111.185629
21
104.828464
0
LINE
8
Layer 1
10
122.530951
20
88.657151
11
108.772635
21
91.070148
0
LINE
8
Layer 1
10
92.982305
20
111.644124
11
106.740621
21
109.231128
0
LINE
8
Layer 1
10
106.740621
20
109.231128
11
104.327627
21
95.472812
0
LINE
8
Layer 1
10
90.569311
20
97.885808
11
92.982305
21
111.644124
0
LINE
8
Layer 1
10
254.272110
20
118.290447
11
256.685107
21
104.532131
0
LINE
8
Layer 1
10
237.296465
20
104.743802
11
223.538149
21
102.330800
0
LINE
8
Layer 1
10
223.538149
20
102.330800
11
221.125152
21
116.046788
0
LINE
8
Layer 1
10
234.883468
20
118.502118
11
237.296465
21
104.743802
0
LINE
8
Layer 1
10
221.125152
20
116.046788
11
234.883468
21
118.502118
0
LINE
8
Layer 1
10
224.427148
20
97.250809
11
238.185464
21
99.663806
0
LINE
8
Layer 1
10
242.926791
20
102.119136
11
240.513794
21
115.877452
0
LINE
8
Layer 1
10
240.513794
20
115.877452
11
254.272110
21
118.290447
0
LINE
8
Layer 1
10
256.685107
20
104.532131
11
242.926791
21
102.119136
0
LINE
8
Layer 1
10
263.331432
20
66.940176
11
249.573116
21
64.527179
0
LINE
8
Layer 1
10
283.355100
20
63.172516
11
269.596784
21
60.759519
0
LINE
8
Layer 1
10
267.141427
20
74.517835
11
280.899743
21
76.930832
0
LINE
8
Layer 1
10
269.596784
20
60.759519
11
267.141427
21
74.517835
0
LINE
8
Layer 1
10
249.573116
20
64.527179
11
247.160119
21
78.285502
0
LINE
8
Layer 1
10
280.899743
20
76.930832
11
283.355100
21
63.172516
0
LINE
8
Layer 1
10
209.568166
20
71.681513
11
223.326482
21
74.094510
0
LINE
8
Layer 1
10
222.437457
20
79.089830
11
208.679168
21
76.676833
0
LINE
8
Layer 1
10
240.598461
20
85.905490
11
226.840145
21
83.492493
0
LINE
8
Layer 1
10
220.024460
20
92.848146
11
222.437457
21
79.089830
0
LINE
8
Layer 1
10
206.266173
20
90.435149
11
220.024460
21
92.848146
0
LINE
8
Layer 1
10
205.377177
20
95.430478
11
202.964183
21
109.188794
0
LINE
8
Layer 1
10
216.722491
20
111.601789
11
219.135488
21
97.843473
0
LINE
8
Layer 1
10
202.964183
20
109.188794
11
216.722491
21
111.601789
0
LINE
8
Layer 1
10
219.135488
20
97.843473
11
205.377177
21
95.430478
0
LINE
8
Layer 1
10
190.560529
20
69.861182
11
188.105191
21
83.619496
0
LINE
8
Layer 1
10
188.105191
20
83.619496
11
201.863507
21
86.074826
0
LINE
8
Layer 1
10
201.863507
20
86.074826
11
204.318845
21
72.316502
0
LINE
8
Layer 1
10
204.318845
20
72.316502
11
190.560529
21
69.861182
0
LINE
8
Layer 1
10
211.981163
20
57.923197
11
209.568166
21
71.681513
0
LINE
8
Layer 1
10
208.679168
20
76.676833
11
206.266173
21
90.435149
0
LINE
8
Layer 1
10
223.326482
20
74.094510
11
225.739479
21
60.336194
0
LINE
8
Layer 1
10
225.739479
20
60.336194
11
211.981163
21
57.923197
0
LINE
8
Layer 1
10
257.616439
20
99.536804
11
260.029436
21
85.778488
0
LINE
8
Layer 1
10
243.858123
20
97.081474
11
257.616439
21
99.536804
0
LINE
8
Layer 1
10
247.160119
20
78.285502
11
260.918435
21
80.698499
0
LINE
8
Layer 1
10
260.029436
20
85.778488
11
246.271120
21
83.323158
0
LINE
8
Layer 1
10
238.185464
20
99.663806
11
240.598461
21
85.905490
0
LINE
8
Layer 1
10
226.840145
20
83.492493
11
224.427148
21
97.250809
0
LINE
8
Layer 1
10
246.271120
20
83.323158
11
243.858123
21
97.081474
0
LINE
8
Layer 1
10
227.729117
20
78.497166
11
241.487433
21
80.952496
0
LINE
8
Layer 1
10
243.942790
20
67.194180
11
230.184474
21
64.738858
0
LINE
8
Layer 1
10
230.184474
20
64.738858
11
227.729117
21
78.497166
0
LINE
8
Layer 1
10
241.487433
20
80.952496
11
243.942790
21
67.194180
0
LINE
8
Layer 1
10
260.537409
20
112.067457
11
274.295725
21
114.522788
0
LINE
8
Layer 1
10
262.950459
20
98.309141
11
260.537409
21
112.067457
0
LINE
8
Layer 1
10
276.708775
20
100.764472
11
262.950459
21
98.309141
0
LINE
8
Layer 1
10
279.291052
20
115.411784
11
293.049368
21
117.824786
0
LINE
8
Layer 1
10
281.746409
20
101.653468
11
279.291052
21
115.411784
0
LINE
8
Layer 1
10
293.049368
20
117.824786
11
295.504725
21
104.066470
0
LINE
8
Layer 1
10
295.504725
20
104.066470
11
281.746409
21
101.653468
0
LINE
8
Layer 1
10
277.640081
20
95.726809
11
280.053078
21
81.968493
0
LINE
8
Layer 1
10
280.053078
20
81.968493
11
266.294762
21
79.555498
0
LINE
8
Layer 1
10
263.881765
20
93.313814
11
277.640081
21
95.726809
0
LINE
8
Layer 1
10
285.048405
20
82.899830
11
282.635408
21
96.658146
0
LINE
8
Layer 1
10
274.295725
20
114.522788
11
276.708775
21
100.764472
0
LINE
8
Layer 1
10
282.635408
20
96.658146
11
296.393724
21
99.113476
0
LINE
8
Layer 1
10
296.393724
20
99.113476
11
298.806721
21
85.355160
0
LINE
8
Layer 1
10
298.806721
20
85.355160
11
285.048405
21
82.899830
0
LINE
8
Layer 1
10
260.918435
20
80.698499
11
263.331432
21
66.940176
0
LINE
8
Layer 1
10
266.294762
20
79.555498
11
263.881765
21
93.313814
0
LINE
8
Layer 1
10
299.738053
20
80.317497
11
302.151050
21
66.559173
0
LINE
8
Layer 1
10
302.151050
20
66.559173
11
288.392734
21
64.103851
0
LINE
8
Layer 1
10
285.979737
20
77.862167
11
299.738053
21
80.317497
0
LINE
8
Layer 1
10
288.392734
20
64.103851
11
285.979737
21
77.862167
0
LINE
8
Layer 1
10
49.717704
20
85.778488
11
52.130701
21
99.536804
0
LINE
8
Layer 1
10
63.476020
20
83.365491
11
49.717704
21
85.778488
0
LINE
8
Layer 1
10
65.889017
20
97.123807
11
63.476020
21
83.365491
0
LINE
8
Layer 1
10
48.871036
20
80.740833
11
62.629352
21
78.285502
0
LINE
8
Layer 1
10
52.130701
20
99.536804
11
65.889017
21
97.123807
0
LINE
8
Layer 1
10
66.735677
20
102.076801
11
52.977361
21
104.489798
0
LINE
8
Layer 1
10
85.277651
20
97.166143
11
82.864654
21
83.407827
0
LINE
8
Layer 1
10
82.864654
20
83.407827
11
69.106346
21
85.820821
0
LINE
8
Layer 1
10
71.519343
20
99.579137
11
85.277651
21
97.166143
0
LINE
8
Layer 1
10
69.106346
20
85.820821
11
71.519343
21
99.579137
0
LINE
8
Layer 1
10
68.259678
20
80.910161
11
82.017986
21
78.454833
0
LINE
8
Layer 1
10
82.017986
20
78.454833
11
79.604999
21
64.696517
0
LINE
8
Layer 1
10
79.604999
20
64.696517
11
65.846683
21
67.151852
0
LINE
8
Layer 1
10
87.309646
20
79.132163
11
89.722659
21
92.890479
0
LINE
8
Layer 1
10
35.366717
20
114.480454
11
49.125033
21
112.067457
0
LINE
8
Layer 1
10
32.953722
20
100.722138
11
35.366717
21
114.480454
0
LINE
8
Layer 1
10
30.371390
20
115.369456
11
27.958393
21
101.611140
0
LINE
8
Layer 1
10
49.125033
20
112.067457
11
46.712038
21
98.309141
0
LINE
8
Layer 1
10
32.064726
20
95.726809
11
45.823042
21
93.313814
0
LINE
8
Layer 1
10
52.977361
20
104.489798
11
55.432691
21
118.248114
0
LINE
8
Layer 1
10
46.415705
20
66.982517
11
48.871036
21
80.740833
0
LINE
8
Layer 1
10
46.712038
20
98.309141
11
32.953722
21
100.722138
0
LINE
8
Layer 1
10
45.823042
20
93.313814
11
43.410040
21
79.555498
0
LINE
8
Layer 1
10
43.410040
20
79.555498
11
29.651724
21
81.968493
0
LINE
8
Layer 1
10
29.651724
20
81.968493
11
32.064726
21
95.726809
0
LINE
8
Layer 1
10
60.174021
20
64.527179
11
46.415705
21
66.982517
0
LINE
8
Layer 1
10
62.629352
20
78.285502
11
60.174021
21
64.527179
0
LINE
8
Layer 1
10
65.846683
20
67.151852
11
68.259678
21
80.910161
0
LINE
8
Layer 1
10
55.432691
20
118.248114
11
69.191007
21
115.835117
0
LINE
8
Layer 1
10
69.191007
20
115.835117
11
66.735677
21
102.076801
0
LINE
8
Layer 1
10
88.537314
20
115.919786
11
86.124319
21
102.161470
0
LINE
8
Layer 1
10
74.779000
20
118.332783
11
88.537314
21
115.919786
0
LINE
8
Layer 1
10
86.124319
20
102.161470
11
72.366003
21
104.574467
0
LINE
8
Layer 1
10
72.366003
20
104.574467
11
74.779000
21
118.332783
0
LINE
8
Layer 1
10
28.762728
20
76.973166
11
42.521044
21
74.560176
0
LINE
8
Layer 1
10
40.108049
20
60.801860
11
26.349733
21
63.214857
0
LINE
8
Layer 1
10
42.521044
20
74.560176
11
40.108049
21
60.801860
0
LINE
8
Layer 1
10
26.349733
20
63.214857
11
28.762728
21
76.973166
0
LINE
8
Layer 1
10
23.767400
20
77.862167
11
21.312070
21
64.103851
0
LINE
8
Layer 1
10
21.312070
20
64.103851
11
7.553754
21
66.516848
0
LINE
8
Layer 1
10
7.553754
20
66.516848
11
10.009084
21
80.275164
0
LINE
8
Layer 1
10
10.009084
20
80.275164
11
23.767400
21
77.862167
0
LINE
8
Layer 1
10
24.656402
20
82.815163
11
10.898083
21
85.270491
0
LINE
8
Layer 1
10
16.613074
20
117.782453
11
30.371390
21
115.369456
0
LINE
8
Layer 1
10
27.958393
20
101.611140
11
14.200077
21
104.024137
0
LINE
8
Layer 1
10
10.898083
20
85.270491
11
13.311083
21
99.028807
0
LINE
8
Layer 1
10
13.311083
20
99.028807
11
27.069399
21
96.573479
0
LINE
8
Layer 1
10
27.069399
20
96.573479
11
24.656402
21
82.815163
0
LINE
8
Layer 1
10
161.646891
20
5.810924
11
147.676911
21
5.810924
0
LINE
8
Layer 1
10
161.646891
20
19.780904
11
161.646891
21
5.810924
0
LINE
8
Layer 1
10
147.676911
20
5.810924
11
147.676911
21
19.780904
0
LINE
8
Layer 1
10
142.554589
20
19.780904
11
142.554589
21
5.810924
0
LINE
8
Layer 1
10
147.676911
20
19.780904
11
161.646891
21
19.780904
0
LINE
8
Layer 1
10
147.676911
20
24.860900
11
147.676911
21
38.830880
0
LINE
8
Layer 1
10
147.676911
20
38.830880
11
161.646891
21
38.830880
0
LINE
8
Layer 1
10
161.646891
20
38.830880
11
161.646891
21
24.860900
0
LINE
8
Layer 1
10
161.646891
20
24.860900
11
147.676911
21
24.860900
0
LINE
8
Layer 1
10
185.861532
20
27.824233
11
198.053522
21
34.597552
0
LINE
8
Layer 1
10
204.826839
20
22.363237
11
192.634852
21
15.589917
0
LINE
8
Layer 1
10
198.053522
20
34.597552
11
204.826839
21
22.363237
0
LINE
8
Layer 1
10
204.022515
20
42.556212
11
216.807157
21
48.228871
0
LINE
8
Layer 1
10
216.807157
20
48.228871
11
222.479817
21
35.486546
0
LINE
8
Layer 1
10
222.479817
20
35.486546
11
209.737500
21
29.813902
0
LINE
8
Layer 1
10
209.737500
20
29.813902
11
204.022515
21
42.556212
0
LINE
8
Layer 1
10
241.445126
20
40.439548
11
227.856143
21
37.306880
0
LINE
8
Layer 1
10
238.312437
20
54.070869
11
241.445126
21
40.439548
0
LINE
8
Layer 1
10
224.681147
20
50.938201
11
238.312437
21
54.070869
0
LINE
8
Layer 1
10
227.856143
20
37.306880
11
224.681147
21
50.938201
0
LINE
8
Layer 1
10
207.620836
20
53.520531
11
193.862520
21
51.107537
0
LINE
8
Layer 1
10
193.862520
20
51.107537
11
191.407181
21
64.865853
0
LINE
8
Layer 1
10
205.165497
20
67.278847
11
207.620836
21
53.520531
0
LINE
8
Layer 1
10
191.407181
20
64.865853
11
205.165497
21
67.278847
0
LINE
8
Layer 1
10
192.634852
20
15.589917
11
185.861532
21
27.824233
0
LINE
8
Layer 1
10
180.696867
20
19.780904
11
180.696867
21
5.810924
0
LINE
8
Layer 1
10
180.696867
20
5.810924
11
166.726887
21
5.810924
0
LINE
8
Layer 1
10
166.726887
20
5.810924
11
166.726887
21
19.780904
0
LINE
8
Layer 1
10
166.726887
20
19.780904
11
180.696867
21
19.780904
0
LINE
8
Layer 1
10
14.200104
20
104.024277
11
16.613101
21
117.782593
0
LINE
8
0
10
135.531224
20
110.344618
11
135.443783
21
109.916655
0
LINE
8
0
10
135.443783
20
109.916655
11
135.207143
21
109.567538
0
LINE
8
0
10
135.207143
20
109.567538
11
134.856847
21
109.332588
0
LINE
8
0
10
134.856847
20
109.332588
11
134.428442
21
109.247128
0
LINE
8
0
10
134.428442
20
109.247128
11
134.000534
21
109.334847
0
LINE
8
0
10
134.000534
20
109.334847
11
133.651538
21
109.571583
0
LINE
8
0
10
133.651538
20
109.571583
11
133.416709
21
109.921876
0
LINE
8
0
10
133.416709
20
109.921876
11
133.331304
21
110.350262
0
LINE
8
0
10
133.331304
20
110.350262
11
133.418695
21
110.778021
0
LINE
8
0
10
133.418695
20
110.778021
11
133.655253
21
111.127034
0
LINE
8
0
10
133.655253
20
111.127034
11
134.005532
21
111.361945
0
LINE
8
0
10
134.005532
20
111.361945
11
134.434086
21
111.447400
0
LINE
8
0
10
134.434086
20
111.447400
11
134.861845
21
111.360009
0
LINE
8
0
10
134.861845
20
111.360009
11
135.210858
21
111.123451
0
LINE
8
0
10
135.210858
20
111.123451
11
135.445769
21
110.773172
0
LINE
8
0
10
135.445769
20
110.773172
11
135.531224
21
110.344618
0
LINE
8
0
10
135.531224
20
110.344618
11
135.531224
21
110.344618
0
LINE
8
0
10
45.728780
20
63.434581
11
45.641339
21
63.006618
0
LINE
8
0
10
45.641339
20
63.006618
11
45.404699
21
62.657501
0
LINE
8
0
10
45.404699
20
62.657501
11
45.054403
21
62.422551
0
LINE
8
0
10
45.054403
20
62.422551
11
44.625998
21
62.337091
0
LINE
8
0
10
44.625998
20
62.337091
11
44.198090
21
62.424809
0
LINE
8
0
10
44.198090
20
62.424809
11
43.849094
21
62.661546
0
LINE
8
0
10
43.849094
20
62.661546
11
43.614265
21
63.011838
0
LINE
8
0
10
43.614265
20
63.011838
11
43.528860
21
63.440224
0
LINE
8
0
10
43.528860
20
63.440224
11
43.616251
21
63.867984
0
LINE
8
0
10
43.616251
20
63.867984
11
43.852809
21
64.216996
0
LINE
8
0
10
43.852809
20
64.216996
11
44.203088
21
64.451908
0
LINE
8
0
10
44.203088
20
64.451908
11
44.631642
21
64.537363
0
LINE
8
0
10
44.631642
20
64.537363
11
45.059401
21
64.449972
0
LINE
8
0
10
45.059401
20
64.449972
11
45.408414
21
64.213414
0
LINE
8
0
10
45.408414
20
64.213414
11
45.643325
21
63.863135
0
LINE
8
0
10
45.643325
20
63.863135
11
45.728780
21
63.434581
0
LINE
8
0
10
45.728780
20
63.434581
11
45.728780
21
63.434581
0
LINE
8
0
10
52.375102
20
114.996516
11
52.287662
21
114.568553
0
LINE
8
0
10
52.287662
20
114.568553
11
52.051021
21
114.219436
0
LINE
8
0
10
52.051021
20
114.219436
11
51.700726
21
113.984486
0
LINE
8
0
10
51.700726
20
113.984486
11
51.272320
21
113.899026
0
LINE
8
0
10
51.272320
20
113.899026
11
50.844412
21
113.986745
0
LINE
8
0
10
50.844412
20
113.986745
11
50.495416
21
114.223481
0
LINE
8
0
10
50.495416
20
114.223481
11
50.260588
21
114.573774
0
LINE
8
0
10
50.260588
20
114.573774
11
50.175182
21
115.002160
0
LINE
8
0
10
50.175182
20
115.002160
11
50.262573
21
115.429919
0
LINE
8
0
10
50.262573
20
115.429919
11
50.499131
21
115.778932
0
LINE
8
0
10
50.499131
20
115.778932
11
50.849410
21
116.013843
0
LINE
8
0
10
50.849410
20
116.013843
11
51.277964
21
116.099298
0
LINE
8
0
10
51.277964
20
116.099298
11
51.705723
21
116.011907
0
LINE
8
0
10
51.705723
20
116.011907
11
52.054736
21
115.775349
0
LINE
8
0
10
52.054736
20
115.775349
11
52.289647
21
115.425070
0
LINE
8
0
10
52.289647
20
115.425070
11
52.375102
21
114.996516
0
LINE
8
0
10
52.375102
20
114.996516
11
52.375102
21
114.996516
0
LINE
8
0
10
95.809042
20
52.808917
11
95.721602
21
52.380954
0
LINE
8
0
10
95.721602
20
52.380954
11
95.484961
21
52.031837
0
LINE
8
0
10
95.484961
20
52.031837
11
95.134666
21
51.796887
0
LINE
8
0
10
95.134666
20
51.796887
11
94.706260
21
51.711427
0
LINE
8
0
10
94.706260
20
51.711427
11
94.278352
21
51.799145
0
LINE
8
0
10
94.278352
20
51.799145
11
93.929356
21
52.035882
0
LINE
8
0
10
93.929356
20
52.035882
11
93.694528
21
52.386175
0
LINE
8
0
10
93.694528
20
52.386175
11
93.609122
21
52.814560
0
LINE
8
0
10
93.609122
20
52.814560
11
93.696513
21
53.242320
0
LINE
8
0
10
93.696513
20
53.242320
11
93.933071
21
53.591333
0
LINE
8
0
10
93.933071
20
53.591333
11
94.283350
21
53.826244
0
LINE
8
0
10
94.283350
20
53.826244
11
94.711904
21
53.911699
0
LINE
8
0
10
94.711904
20
53.911699
11
95.139663
21
53.824308
0
LINE
8
0
10
95.139663
20
53.824308
11
95.488676
21
53.587750
0
LINE
8
0
10
95.488676
20
53.587750
11
95.723587
21
53.237471
0
LINE
8
0
10
95.723587
20
53.237471
11
95.809042
21
52.808917
0
LINE
8
0
10
95.809042
20
52.808917
11
95.809042
21
52.808917
0
LINE
8
0
10
127.885088
20
62.585357
11
140.650177
21
62.585357
0
LINE
8
0
10
140.650177
20
62.585357
11
140.650177
21
50.285351
0
LINE
8
0
10
140.650177
20
50.285351
11
127.885088
21
50.285351
0
LINE
8
0
10
127.885088
20
50.285351
11
127.885088
21
62.585357
0
LINE
8
0
10
169.064288
20
62.577866
11
181.829378
21
62.577866
0
LINE
8
0
10
181.829378
20
62.577866
11
181.829378
21
50.277863
0
LINE
8
0
10
181.829378
20
50.277863
11
169.064288
21
50.277863
0
LINE
8
0
10
169.064288
20
50.277863
11
169.064288
21
62.577866
0
LINE
8
Layer 1
10
20.209567
20
31.543712
11
19.994778
21
30.463892
0
LINE
8
Layer 1
10
19.994778
20
30.463892
11
19.383109
21
29.548464
0
LINE
8
Layer 1
10
19.383109
20
29.548464
11
18.467682
21
28.936795
0
LINE
8
Layer 1
10
18.467682
20
28.936795
11
17.387861
21
28.722006
0
LINE
8
Layer 1
10
17.387861
20
28.722006
11
16.308041
21
28.936795
0
LINE
8
Layer 1
10
16.308041
20
28.936795
11
15.392613
21
29.548464
0
LINE
8
Layer 1
10
15.392613
20
29.548464
11
14.780944
21
30.463892
0
LINE
8
Layer 1
10
14.780944
20
30.463892
11
14.566155
21
31.543712
0
LINE
8
Layer 1
10
14.566155
20
31.543712
11
14.787899
21
32.642047
0
LINE
8
Layer 1
10
14.787899
20
32.642047
11
15.392614
21
33.538959
0
LINE
8
Layer 1
10
15.392614
20
33.538959
11
16.289526
21
34.143673
0
LINE
8
Layer 1
10
16.289526
20
34.143673
11
17.387861
21
34.365416
0
LINE
8
Layer 1
10
17.387861
20
34.365416
11
18.486196
21
34.143673
0
LINE
8
Layer 1
10
18.486196
20
34.143673
11
19.383108
21
33.538959
0
LINE
8
Layer 1
10
19.383108
20
33.538959
11
19.987823
21
32.642047
0
LINE
8
Layer 1
10
19.987823
20
32.642047
11
20.209567
21
31.543712
0
LINE
8
Layer 1
10
20.209567
20
31.543712
11
20.209567
21
31.543712
0
LINE
8
Layer 1
10
27.546173
20
31.543712
11
27.349181
21
29.552669
0
LINE
8
Layer 1
10
27.349181
20
29.552669
11
26.772919
21
27.656294
0
LINE
8
Layer 1
10
26.772919
20
27.656294
11
25.839458
21
25.907874
0
LINE
8
Layer 1
10
25.839458
20
25.907874
11
24.570873
21
24.360699
0
LINE
8
Layer 1
10
24.570873
20
24.360699
11
23.023699
21
23.092114
0
LINE
8
Layer 1
10
23.023699
20
23.092114
11
21.275279
21
22.158653
0
LINE
8
Layer 1
10
21.275279
20
22.158653
11
19.378904
21
21.582390
0
LINE
8
Layer 1
10
19.378904
20
21.582390
11
17.387861
21
21.385397
0
LINE
8
Layer 1
10
17.387861
20
21.385397
11
15.396818
21
21.582390
0
LINE
8
Layer 1
10
15.396818
20
21.582390
11
13.500443
21
22.158653
0
LINE
8
Layer 1
10
13.500443
20
22.158653
11
11.752024
21
23.092114
0
LINE
8
Layer 1
10
11.752024
20
23.092114
11
10.204849
21
24.360699
0
LINE
8
Layer 1
10
10.204849
20
24.360699
11
8.936264
21
25.907874
0
LINE
8
Layer 1
10
8.936264
20
25.907874
11
8.002804
21
27.656294
0
LINE
8
Layer 1
10
8.002804
20
27.656294
11
7.426541
21
29.552669
0
LINE
8
Layer 1
10
7.426541
20
29.552669
11
7.229549
21
31.543712
0
LINE
8
Layer 1
10
7.229549
20
31.543712
11
7.435930
21
33.590967
0
LINE
8
Layer 1
10
7.435930
20
33.590967
11
8.027839
21
35.497786
0
LINE
8
Layer 1
10
8.027839
20
35.497786
11
8.964429
21
37.223321
0
LINE
8
Layer 1
10
8.964429
20
37.223321
11
10.204850
21
38.726724
0
LINE
8
Layer 1
10
10.204850
20
38.726724
11
11.708252
21
39.967144
0
LINE
8
Layer 1
10
11.708252
20
39.967144
11
13.433788
21
40.903734
0
LINE
8
Layer 1
10
13.433788
20
40.903734
11
15.340607
21
41.495644
0
LINE
8
Layer 1
10
15.340607
20
41.495644
11
17.387861
21
41.702025
0
LINE
8
Layer 1
10
17.387861
20
41.702025
11
19.435115
21
41.495644
0
LINE
8
Layer 1
10
19.435115
20
41.495644
11
21.341935
21
40.903734
0
LINE
8
Layer 1
10
21.341935
20
40.903734
11
23.067470
21
39.967144
0
LINE
8
Layer 1
10
23.067470
20
39.967144
11
24.570872
21
38.726724
0
LINE
8
Layer 1
10
24.570872
20
38.726724
11
25.811293
21
37.223321
0
LINE
8
Layer 1
10
25.811293
20
37.223321
11
26.747883
21
35.497786
0
LINE
8
Layer 1
10
26.747883
20
35.497786
11
27.339793
21
33.590967
0
LINE
8
Layer 1
10
27.339793
20
33.590967
11
27.546173
21
31.543712
0
LINE
8
Layer 1
10
27.546173
20
31.543712
11
27.546173
21
31.543712
0
LINE
8
Layer 1
10
44.413967
20
31.543712
11
44.199178
21
30.463892
0
LINE
8
Layer 1
10
44.199178
20
30.463892
11
43.587509
21
29.548464
0
LINE
8
Layer 1
10
43.587509
20
29.548464
11
42.672082
21
28.936795
0
LINE
8
Layer 1
10
42.672082
20
28.936795
11
41.592261
21
28.722006
0
LINE
8
Layer 1
10
41.592261
20
28.722006
11
40.512441
21
28.936795
0
LINE
8
Layer 1
10
40.512441
20
28.936795
11
39.597013
21
29.548464
0
LINE
8
Layer 1
10
39.597013
20
29.548464
11
38.985344
21
30.463892
0
LINE
8
Layer 1
10
38.985344
20
30.463892
11
38.770555
21
31.543712
0
LINE
8
Layer 1
10
38.770555
20
31.543712
11
38.992299
21
32.642047
0
LINE
8
Layer 1
10
38.992299
20
32.642047
11
39.597014
21
33.538959
0
LINE
8
Layer 1
10
39.597014
20
33.538959
11
40.493926
21
34.143673
0
LINE
8
Layer 1
10
40.493926
20
34.143673
11
41.592261
21
34.365416
0
LINE
8
Layer 1
10
41.592261
20
34.365416
11
42.690596
21
34.143673
0
LINE
8
Layer 1
10
42.690596
20
34.143673
11
43.587508
21
33.538959
0
LINE
8
Layer 1
10
43.587508
20
33.538959
11
44.192223
21
32.642047
0
LINE
8
Layer 1
10
44.192223
20
32.642047
11
44.413967
21
31.543712
0
LINE
8
Layer 1
10
44.413967
20
31.543712
11
44.413967
21
31.543712
0
LINE
8
Layer 1
10
51.750573
20
31.543712
11
51.553581
21
29.552669
0
LINE
8
Layer 1
10
51.553581
20
29.552669
11
50.977319
21
27.656294
0
LINE
8
Layer 1
10
50.977319
20
27.656294
11
50.043858
21
25.907874
0
LINE
8
Layer 1
10
50.043858
20
25.907874
11
48.775273
21
24.360699
0
LINE
8
Layer 1
10
48.775273
20
24.360699
11
47.228099
21
23.092114
0
LINE
8
Layer 1
10
47.228099
20
23.092114
11
45.479679
21
22.158653
0
LINE
8
Layer 1
10
45.479679
20
22.158653
11
43.583304
21
21.582390
0
LINE
8
Layer 1
10
43.583304
20
21.582390
11
41.592261
21
21.385397
0
LINE
8
Layer 1
10
41.592261
20
21.385397
11
39.601218
21
21.582390
0
LINE
8
Layer 1
10
39.601218
20
21.582390
11
37.704843
21
22.158653
0
LINE
8
Layer 1
10
37.704843
20
22.158653
11
35.956424
21
23.092114
0
LINE
8
Layer 1
10
35.956424
20
23.092114
11
34.409249
21
24.360699
0
LINE
8
Layer 1
10
34.409249
20
24.360699
11
33.140664
21
25.907874
0
LINE
8
Layer 1
10
33.140664
20
25.907874
11
32.207204
21
27.656294
0
LINE
8
Layer 1
10
32.207204
20
27.656294
11
31.630941
21
29.552669
0
LINE
8
Layer 1
10
31.630941
20
29.552669
11
31.433949
21
31.543712
0
LINE
8
Layer 1
10
31.433949
20
31.543712
11
31.640330
21
33.590967
0
LINE
8
Layer 1
10
31.640330
20
33.590967
11
32.232239
21
35.497786
0
LINE
8
Layer 1
10
32.232239
20
35.497786
11
33.168829
21
37.223321
0
LINE
8
Layer 1
10
33.168829
20
37.223321
11
34.409250
21
38.726724
0
LINE
8
Layer 1
10
34.409250
20
38.726724
11
35.912652
21
39.967144
0
LINE
8
Layer 1
10
35.912652
20
39.967144
11
37.638188
21
40.903734
0
LINE
8
Layer 1
10
37.638188
20
40.903734
11
39.545007
21
41.495644
0
LINE
8
Layer 1
10
39.545007
20
41.495644
11
41.592261
21
41.702025
0
LINE
8
Layer 1
10
41.592261
20
41.702025
11
43.639515
21
41.495644
0
LINE
8
Layer 1
10
43.639515
20
41.495644
11
45.546335
21
40.903734
0
LINE
8
Layer 1
10
45.546335
20
40.903734
11
47.271870
21
39.967144
0
LINE
8
Layer 1
10
47.271870
20
39.967144
11
48.775272
21
38.726724
0
LINE
8
Layer 1
10
48.775272
20
38.726724
11
50.015693
21
37.223321
0
LINE
8
Layer 1
10
50.015693
20
37.223321
11
50.952283
21
35.497786
0
LINE
8
Layer 1
10
50.952283
20
35.497786
11
51.544193
21
33.590967
0
LINE
8
Layer 1
10
51.544193
20
33.590967
11
51.750573
21
31.543712
0
LINE
8
Layer 1
10
51.750573
20
31.543712
11
51.750573
21
31.543712
0
LINE
8
0
10
145.531247
20
117.769920
11
145.531247
21
84.199534
0
LINE
8
0
10
145.531247
20
84.199534
11
145.683630
21
83.445095
0
LINE
8
0
10
145.683630
20
83.445095
11
146.099656
21
82.830331
0
LINE
8
0
10
146.099656
20
82.830331
11
146.717636
21
82.416530
0
LINE
8
0
10
146.717636
20
82.416530
11
147.475884
21
82.264977
0
LINE
8
0
10
147.475884
20
82.264977
11
163.480515
21
82.264977
0
LINE
8
0
10
163.480515
20
82.264977
11
164.238683
21
82.416530
0
LINE
8
0
10
164.238683
20
82.416530
11
164.856485
21
82.830331
0
LINE
8
0
10
164.856485
20
82.830331
11
165.272332
21
83.445095
0
LINE
8
0
10
165.272332
20
83.445095
11
165.424634
21
84.199534
0
LINE
8
0
10
165.424634
20
84.199534
11
165.424634
21
117.769920
0
LINE
8
Layer 1
10
280.999367
20
10.805112
11
280.912484
21
10.377149
0
LINE
8
Layer 1
10
280.912484
20
10.377149
11
280.675782
21
10.028032
0
LINE
8
Layer 1
10
280.675782
20
10.028032
11
280.325176
21
9.793083
0
LINE
8
Layer 1
10
280.325176
20
9.793083
11
279.896585
21
9.707622
0
LINE
8
Layer 1
10
279.896585
20
9.707622
11
279.468677
21
9.795341
0
LINE
8
Layer 1
10
279.468677
20
9.795341
11
279.119680
21
10.032077
0
LINE
8
Layer 1
10
279.119680
20
10.032077
11
278.884849
21
10.382370
0
LINE
8
Layer 1
10
278.884849
20
10.382370
11
278.799438
21
10.810756
0
LINE
8
Layer 1
10
278.799438
20
10.810756
11
278.886272
21
11.238515
0
LINE
8
Layer 1
10
278.886272
20
11.238515
11
279.122894
21
11.587528
0
LINE
8
Layer 1
10
279.122894
20
11.587528
11
279.473484
21
11.822439
0
LINE
8
Layer 1
10
279.473484
20
11.822439
11
279.902220
21
11.907894
0
LINE
8
Layer 1
10
279.902220
20
11.907894
11
280.329983
21
11.820503
0
LINE
8
Layer 1
10
280.329983
20
11.820503
11
280.678996
21
11.583945
0
LINE
8
Layer 1
10
280.678996
20
11.583945
11
280.913908
21
11.233666
0
LINE
8
Layer 1
10
280.913908
20
11.233666
11
280.999367
21
10.805112
0
LINE
8
Layer 1
10
280.999367
20
10.805112
11
280.999367
21
10.805112
0
LINE
8
Layer 1
10
300.789646
20
41.201458
11
300.702763
21
40.773495
0
LINE
8
Layer 1
10
300.702763
20
40.773495
11
300.466061
21
40.424378
0
LINE
8
Layer 1
10
300.466061
20
40.424378
11
300.115455
21
40.189428
0
LINE
8
Layer 1
10
300.115455
20
40.189428
11
299.686864
21
40.103967
0
LINE
8
Layer 1
10
299.686864
20
40.103967
11
299.258956
21
40.191686
0
LINE
8
Layer 1
10
299.258956
20
40.191686
11
298.909959
21
40.428423
0
LINE
8
Layer 1
10
298.909959
20
40.428423
11
298.675128
21
40.778715
0
LINE
8
Layer 1
10
298.675128
20
40.778715
11
298.589718
21
41.207101
0
LINE
8
Layer 1
10
298.589718
20
41.207101
11
298.676552
21
41.634861
0
LINE
8
Layer 1
10
298.676552
20
41.634861
11
298.913174
21
41.983873
0
LINE
8
Layer 1
10
298.913174
20
41.983873
11
299.263763
21
42.218784
0
LINE
8
Layer 1
10
299.263763
20
42.218784
11
299.692500
21
42.304240
0
LINE
8
Layer 1
10
299.692500
20
42.304240
11
300.120262
21
42.216849
0
LINE
8
Layer 1
10
300.120262
20
42.216849
11
300.469276
21
41.980290
0
LINE
8
Layer 1
10
300.469276
20
41.980290
11
300.704187
21
41.630011
0
LINE
8
Layer 1
10
300.704187
20
41.630011
11
300.789646
21
41.201458
0
LINE
8
Layer 1
10
300.789646
20
41.201458
11
300.789646
21
41.201458
0
LINE
8
Layer 1
10
260.522418
20
41.201458
11
260.434977
21
40.773495
0
LINE
8
Layer 1
10
260.434977
20
40.773495
11
260.198337
21
40.424378
0
LINE
8
Layer 1
10
260.198337
20
40.424378
11
259.848041
21
40.189428
0
LINE
8
Layer 1
10
259.848041
20
40.189428
11
259.419636
21
40.103967
0
LINE
8
Layer 1
10
259.419636
20
40.103967
11
258.991728
21
40.191686
0
LINE
8
Layer 1
10
258.991728
20
40.191686
11
258.642732
21
40.428423
0
LINE
8
Layer 1
10
258.642732
20
40.428423
11
258.407903
21
40.778715
0
LINE
8
Layer 1
10
258.407903
20
40.778715
11
258.322497
21
41.207101
0
LINE
8
Layer 1
10
258.322497
20
41.207101
11
258.409889
21
41.634861
0
LINE
8
Layer 1
10
258.409889
20
41.634861
11
258.646447
21
41.983873
0
LINE
8
Layer 1
10
258.646447
20
41.983873
11
258.996726
21
42.218784
0
LINE
8
Layer 1
10
258.996726
20
42.218784
11
259.425279
21
42.304240
0
LINE
8
Layer 1
10
259.425279
20
42.304240
11
259.853039
21
42.216849
0
LINE
8
Layer 1
10
259.853039
20
42.216849
11
260.202051
21
41.980290
0
LINE
8
Layer 1
10
260.202051
20
41.980290
11
260.436963
21
41.630011
0
LINE
8
Layer 1
10
260.436963
20
41.630011
11
260.522418
21
41.201458
0
LINE
8
Layer 1
10
260.522418
20
41.201458
11
260.522418
21
41.201458
0
LINE
8
Layer 1
10
260.907831
20
48.716255
11
260.250967
21
48.598975
0
LINE
8
Layer 1
10
260.250967
20
48.598975
11
259.675347
21
48.261503
0
LINE
8
Layer 1
10
259.675347
20
48.261503
11
252.213800
21
41.886193
0
LINE
8
Layer 1
10
252.213800
20
41.886193
11
251.902869
21
41.378480
0
LINE
8
Layer 1
10
251.902869
20
41.378480
11
251.949735
21
40.784970
0
LINE
8
Layer 1
10
251.949735
20
40.784970
11
264.739630
21
9.940394
0
LINE
8
Layer 1
10
264.739630
20
9.940394
11
265.125706
21
9.470006
0
LINE
8
Layer 1
10
265.125706
20
9.470006
11
265.708057
21
9.293404
0
LINE
8
Layer 1
10
265.708057
20
9.293404
11
274.575715
21
9.293404
0
LINE
8
Layer 1
10
274.575715
20
9.293404
11
275.720102
21
8.346087
0
LINE
8
Layer 1
10
275.720102
20
8.346087
11
277.015266
21
7.647344
0
LINE
8
Layer 1
10
277.015266
20
7.647344
11
278.421580
21
7.213785
0
LINE
8
Layer 1
10
278.421580
20
7.213785
11
279.899416
21
7.062019
0
LINE
8
Layer 1
10
279.899416
20
7.062019
11
281.377251
21
7.213785
0
LINE
8
Layer 1
10
281.377251
20
7.213785
11
282.783565
21
7.647344
0
LINE
8
Layer 1
10
282.783565
20
7.647344
11
284.078730
21
8.346087
0
LINE
8
Layer 1
10
284.078730
20
8.346087
11
285.223117
21
9.293404
0
LINE
8
Layer 1
10
285.223117
20
9.293404
11
293.986370
21
9.293404
0
LINE
8
Layer 1
10
293.986370
20
9.293404
11
294.568240
21
9.470110
0
LINE
8
Layer 1
10
294.568240
20
9.470110
11
294.953765
21
9.940394
0
LINE
8
Layer 1
10
294.953765
20
9.940394
11
307.706957
21
40.779286
0
LINE
8
Layer 1
10
307.706957
20
40.779286
11
307.756142
21
41.375622
0
LINE
8
Layer 1
10
307.756142
20
41.375622
11
307.450126
21
41.889810
0
LINE
8
Layer 1
10
307.450126
20
41.889810
11
300.258866
21
48.252719
0
LINE
8
Layer 1
10
300.258866
20
48.252719
11
299.689181
21
48.596541
0
LINE
8
Layer 1
10
299.689181
20
48.596541
11
299.034640
21
48.716255
0
LINE
8
Layer 1
10
299.034640
20
48.716255
11
260.907831
21
48.716255
 0 
ENDSEC
 0 
EOF