999
"DXF R12 Output" (www.mydxf.blogspot.com)
 0 
SECTION
 2 
HEADER
 9 
$ACADVER
 1 
AC1009
 9 
$EXTMIN
 10 
 0 
 20 
 0 
 9 
$EXTMAX
 10 
 8.5 
 20 
 11 
 0 
ENDSEC
 0 
SECTION
 2 
ENTITIES
0
LINE
8
Layer 1
10
0.793749
20
124.656749
11
-0.793749
21
123.069251
0
LINE
8
Layer 1
10
0.000000
20
125.185915
11
0.000000
21
122.540085
0
LINE
8
Layer 1
10
2.116664
20
122.804668
11
1.058332
21
121.746336
0
LINE
8
Layer 1
10
1.587498
20
123.333834
11
0.529166
21
122.275502
0
LINE
8
Layer 1
10
1.058332
20
123.863000
11
0.000000
21
122.804668
0
LINE
8
Layer 1
10
98.064061
20
52.789081
11
97.804769
21
51.529661
0
LINE
8
Layer 1
10
97.804769
20
51.529661
11
97.100976
21
50.492487
0
LINE
8
Layer 1
10
97.100976
20
50.492487
11
96.063808
21
49.788687
0
LINE
8
Layer 1
10
96.063808
20
49.788687
11
94.804390
21
49.529392
0
LINE
8
Layer 1
10
94.804390
20
49.529392
11
93.520501
21
49.788687
0
LINE
8
Layer 1
10
93.520501
20
49.788687
11
92.470770
21
50.492487
0
LINE
8
Layer 1
10
92.470770
20
50.492487
11
91.762351
21
51.529661
0
LINE
8
Layer 1
10
91.762351
20
51.529661
11
91.502400
21
52.789081
0
LINE
8
Layer 1
10
91.502400
20
52.789081
11
91.762351
21
54.072954
0
LINE
8
Layer 1
10
91.762351
20
54.072954
11
92.470770
21
55.122680
0
LINE
8
Layer 1
10
92.470770
20
55.122680
11
93.520501
21
55.831098
0
LINE
8
Layer 1
10
93.520501
20
55.831098
11
94.804390
21
56.091050
0
LINE
8
Layer 1
10
94.804390
20
56.091050
11
96.063808
21
55.831098
0
LINE
8
Layer 1
10
96.063808
20
55.831098
11
97.100976
21
55.122680
0
LINE
8
Layer 1
10
97.100976
20
55.122680
11
97.804769
21
54.072954
0
LINE
8
Layer 1
10
97.804769
20
54.072954
11
98.064061
21
52.789081
0
LINE
8
Layer 1
10
98.064061
20
52.789081
11
98.064061
21
52.789081
0
LINE
8
Layer 1
10
159.023961
20
70.534742
11
158.418013
21
70.654063
0
LINE
8
Layer 1
10
158.418013
20
70.654063
11
157.922653
21
70.979264
0
LINE
8
Layer 1
10
157.922653
20
70.979264
11
157.588392
21
71.461207
0
LINE
8
Layer 1
10
157.588392
20
71.461207
11
157.465747
21
72.050750
0
LINE
8
Layer 1
10
157.465747
20
72.050750
11
157.586358
21
72.662899
0
LINE
8
Layer 1
10
157.586358
20
72.662899
11
157.917226
21
73.157636
0
LINE
8
Layer 1
10
157.917226
20
73.157636
11
158.411909
21
73.488528
0
LINE
8
Layer 1
10
158.411909
20
73.488528
11
159.023961
21
73.609143
0
LINE
8
Layer 1
10
159.023961
20
73.609143
11
159.613406
21
73.486470
0
LINE
8
Layer 1
10
159.613406
20
73.486470
11
160.095299
21
73.152149
0
LINE
8
Layer 1
10
160.095299
20
73.152149
11
160.420484
21
72.656726
0
LINE
8
Layer 1
10
160.420484
20
72.656726
11
160.539802
21
72.050750
0
LINE
8
Layer 1
10
160.539802
20
72.050750
11
160.418497
21
71.467234
0
LINE
8
Layer 1
10
160.418497
20
71.467234
11
160.090002
21
70.984622
0
LINE
8
Layer 1
10
160.090002
20
70.984622
11
159.607447
21
70.656072
0
LINE
8
Layer 1
10
159.607447
20
70.656072
11
159.023961
21
70.534742
0
LINE
8
Layer 1
10
159.023961
20
70.534742
11
159.023961
21
70.534742
0
LINE
8
Layer 1
10
152.504644
20
70.534742
11
151.898668
21
70.654063
0
LINE
8
Layer 1
10
151.898668
20
70.654063
11
151.403247
21
70.979264
0
LINE
8
Layer 1
10
151.403247
20
70.979264
11
151.068928
21
71.461207
0
LINE
8
Layer 1
10
151.068928
20
71.461207
11
150.946255
21
72.050750
0
LINE
8
Layer 1
10
150.946255
20
72.050750
11
151.066869
21
72.662899
0
LINE
8
Layer 1
10
151.066869
20
72.662899
11
151.397756
21
73.157636
0
LINE
8
Layer 1
10
151.397756
20
73.157636
11
151.892491
21
73.488528
0
LINE
8
Layer 1
10
151.892491
20
73.488528
11
152.504644
21
73.609143
0
LINE
8
Layer 1
10
152.504644
20
73.609143
11
153.094187
21
73.486470
0
LINE
8
Layer 1
10
153.094187
20
73.486470
11
153.576132
21
73.152149
0
LINE
8
Layer 1
10
153.576132
20
73.152149
11
153.901335
21
72.656726
0
LINE
8
Layer 1
10
153.901335
20
72.656726
11
154.020657
21
72.050750
0
LINE
8
Layer 1
10
154.020657
20
72.050750
11
153.899325
21
71.467234
0
LINE
8
Layer 1
10
153.899325
20
71.467234
11
153.570771
21
70.984622
0
LINE
8
Layer 1
10
153.570771
20
70.984622
11
153.088156
21
70.656072
0
LINE
8
Layer 1
10
153.088156
20
70.656072
11
152.504644
21
70.534742
0
LINE
8
Layer 1
10
152.504644
20
70.534742
11
152.504644
21
70.534742
0
LINE
8
Layer 1
10
125.622985
20
12.022132
11
125.363692
21
10.762713
0
LINE
8
Layer 1
10
125.363692
20
10.762713
11
124.659900
21
9.725538
0
LINE
8
Layer 1
10
124.659900
20
9.725538
11
123.622732
21
9.021739
0
LINE
8
Layer 1
10
123.622732
20
9.021739
11
122.363314
21
8.762443
0
LINE
8
Layer 1
10
122.363314
20
8.762443
11
121.079426
21
9.021739
0
LINE
8
Layer 1
10
121.079426
20
9.021739
11
120.029695
21
9.725538
0
LINE
8
Layer 1
10
120.029695
20
9.725538
11
119.321276
21
10.762713
0
LINE
8
Layer 1
10
119.321276
20
10.762713
11
119.061324
21
12.022132
0
LINE
8
Layer 1
10
119.061324
20
12.022132
11
119.321276
21
13.306010
0
LINE
8
Layer 1
10
119.321276
20
13.306010
11
120.029695
21
14.355744
0
LINE
8
Layer 1
10
120.029695
20
14.355744
11
121.079426
21
15.064171
0
LINE
8
Layer 1
10
121.079426
20
15.064171
11
122.363314
21
15.324128
0
LINE
8
Layer 1
10
122.363314
20
15.324128
11
123.622732
21
15.064171
0
LINE
8
Layer 1
10
123.622732
20
15.064171
11
124.659900
21
14.355744
0
LINE
8
Layer 1
10
124.659900
20
14.355744
11
125.363692
21
13.306010
0
LINE
8
Layer 1
10
125.363692
20
13.306010
11
125.622985
21
12.022132
0
LINE
8
Layer 1
10
125.622985
20
12.022132
11
125.622985
21
12.022132
0
LINE
8
Layer 1
10
190.265901
20
11.979799
11
190.006608
21
10.720384
0
LINE
8
Layer 1
10
190.006608
20
10.720384
11
189.302814
21
9.683218
0
LINE
8
Layer 1
10
189.302814
20
9.683218
11
188.265643
21
8.979428
0
LINE
8
Layer 1
10
188.265643
20
8.979428
11
187.006219
21
8.720136
0
LINE
8
Layer 1
10
187.006219
20
8.720136
11
185.722335
21
8.979428
0
LINE
8
Layer 1
10
185.722335
20
8.979428
11
184.672603
21
9.683218
0
LINE
8
Layer 1
10
184.672603
20
9.683218
11
183.964182
21
10.720384
0
LINE
8
Layer 1
10
183.964182
20
10.720384
11
183.704229
21
11.979799
0
LINE
8
Layer 1
10
183.704229
20
11.979799
11
183.964182
21
13.263677
0
LINE
8
Layer 1
10
183.964182
20
13.263677
11
184.672603
21
14.313411
0
LINE
8
Layer 1
10
184.672603
20
14.313411
11
185.722335
21
15.021838
0
LINE
8
Layer 1
10
185.722335
20
15.021838
11
187.006219
21
15.281795
0
LINE
8
Layer 1
10
187.006219
20
15.281795
11
188.265643
21
15.021838
0
LINE
8
Layer 1
10
188.265643
20
15.021838
11
189.302814
21
14.313411
0
LINE
8
Layer 1
10
189.302814
20
14.313411
11
190.006608
21
13.263677
0
LINE
8
Layer 1
10
190.006608
20
13.263677
11
190.265901
21
11.979799
0
LINE
8
Layer 1
10
190.265901
20
11.979799
11
190.265901
21
11.979799
0
LINE
8
Layer 1
10
217.994188
20
52.789081
11
217.734896
21
51.529661
0
LINE
8
Layer 1
10
217.734896
20
51.529661
11
217.031103
21
50.492487
0
LINE
8
Layer 1
10
217.031103
20
50.492487
11
215.993933
21
49.788687
0
LINE
8
Layer 1
10
215.993933
20
49.788687
11
214.734510
21
49.529392
0
LINE
8
Layer 1
10
214.734510
20
49.529392
11
213.450625
21
49.788687
0
LINE
8
Layer 1
10
213.450625
20
49.788687
11
212.400894
21
50.492487
0
LINE
8
Layer 1
10
212.400894
20
50.492487
11
211.692472
21
51.529661
0
LINE
8
Layer 1
10
211.692472
20
51.529661
11
211.432519
21
52.789081
0
LINE
8
Layer 1
10
211.432519
20
52.789081
11
211.692472
21
54.072954
0
LINE
8
Layer 1
10
211.692472
20
54.072954
11
212.400894
21
55.122680
0
LINE
8
Layer 1
10
212.400894
20
55.122680
11
213.450625
21
55.831098
0
LINE
8
Layer 1
10
213.450625
20
55.831098
11
214.734510
21
56.091050
0
LINE
8
Layer 1
10
214.734510
20
56.091050
11
215.993933
21
55.831098
0
LINE
8
Layer 1
10
215.993933
20
55.831098
11
217.031103
21
55.122680
0
LINE
8
Layer 1
10
217.031103
20
55.122680
11
217.734896
21
54.072954
0
LINE
8
Layer 1
10
217.734896
20
54.072954
11
217.994188
21
52.789081
0
LINE
8
Layer 1
10
217.994188
20
52.789081
11
217.994188
21
52.789081
0
LINE
8
Layer 1
10
173.374919
20
98.636023
11
173.115627
21
97.376593
0
LINE
8
Layer 1
10
173.115627
20
97.376593
11
172.411833
21
96.339419
0
LINE
8
Layer 1
10
172.411833
20
96.339419
11
171.374662
21
95.635626
0
LINE
8
Layer 1
10
171.374662
20
95.635626
11
170.115238
21
95.376334
0
LINE
8
Layer 1
10
170.115238
20
95.376334
11
168.831354
21
95.635626
0
LINE
8
Layer 1
10
168.831354
20
95.635626
11
167.781623
21
96.339419
0
LINE
8
Layer 1
10
167.781623
20
96.339419
11
167.073201
21
97.376593
0
LINE
8
Layer 1
10
167.073201
20
97.376593
11
166.813248
21
98.636023
0
LINE
8
Layer 1
10
166.813248
20
98.636023
11
167.073201
21
99.919912
0
LINE
8
Layer 1
10
167.073201
20
99.919912
11
167.781623
21
100.969645
0
LINE
8
Layer 1
10
167.781623
20
100.969645
11
168.831354
21
101.678066
0
LINE
8
Layer 1
10
168.831354
20
101.678066
11
170.115238
21
101.938019
0
LINE
8
Layer 1
10
170.115238
20
101.938019
11
171.374662
21
101.678066
0
LINE
8
Layer 1
10
171.374662
20
101.678066
11
172.411833
21
100.969645
0
LINE
8
Layer 1
10
172.411833
20
100.969645
11
173.115627
21
99.919912
0
LINE
8
Layer 1
10
173.115627
20
99.919912
11
173.374919
21
98.636023
0
LINE
8
Layer 1
10
173.374919
20
98.636023
11
173.374919
21
98.636023
0
LINE
8
Layer 1
10
144.418950
20
98.636023
11
144.159658
21
97.376593
0
LINE
8
Layer 1
10
144.159658
20
97.376593
11
143.455864
21
96.339419
0
LINE
8
Layer 1
10
143.455864
20
96.339419
11
142.418693
21
95.635626
0
LINE
8
Layer 1
10
142.418693
20
95.635626
11
141.159269
21
95.376334
0
LINE
8
Layer 1
10
141.159269
20
95.376334
11
139.875386
21
95.635626
0
LINE
8
Layer 1
10
139.875386
20
95.635626
11
138.825654
21
96.339419
0
LINE
8
Layer 1
10
138.825654
20
96.339419
11
138.117232
21
97.376593
0
LINE
8
Layer 1
10
138.117232
20
97.376593
11
137.857279
21
98.636023
0
LINE
8
Layer 1
10
137.857279
20
98.636023
11
138.117232
21
99.919912
0
LINE
8
Layer 1
10
138.117232
20
99.919912
11
138.825654
21
100.969645
0
LINE
8
Layer 1
10
138.825654
20
100.969645
11
139.875386
21
101.678066
0
LINE
8
Layer 1
10
139.875386
20
101.678066
11
141.159269
21
101.938019
0
LINE
8
Layer 1
10
141.159269
20
101.938019
11
142.418693
21
101.678066
0
LINE
8
Layer 1
10
142.418693
20
101.678066
11
143.455864
21
100.969645
0
LINE
8
Layer 1
10
143.455864
20
100.969645
11
144.159658
21
99.919912
0
LINE
8
Layer 1
10
144.159658
20
99.919912
11
144.418950
21
98.636023
0
LINE
8
Layer 1
10
144.418950
20
98.636023
11
144.418950
21
98.636023
0
LINE
8
Layer 1
10
65.848383
20
45.338423
11
65.848383
21
45.338423
0
LINE
8
Layer 1
10
265.576811
20
69.553060
11
265.576811
21
69.553060
0
LINE
8
Layer 1
10
296.171311
20
103.648786
11
293.540297
21
118.391536
0
LINE
8
Layer 1
10
293.540297
20
118.391536
11
278.797388
21
115.805819
0
LINE
8
Layer 1
10
278.797388
20
115.805819
11
279.962109
21
109.279218
0
LINE
8
Layer 1
10
279.962109
20
109.279218
11
277.695242
21
108.859245
0
LINE
8
Layer 1
10
277.695242
20
108.859245
11
279.616379
21
98.489497
0
LINE
8
Layer 1
10
279.616379
20
98.489497
11
282.387700
21
99.002920
0
LINE
8
Layer 1
10
282.387700
20
99.002920
11
281.987863
21
101.161177
0
LINE
8
Layer 1
10
281.987863
20
101.161177
11
296.171311
21
103.648786
0
LINE
8
Layer 1
10
299.471719
20
84.938667
11
296.885817
21
99.681920
0
LINE
8
Layer 1
10
296.885817
20
99.681920
11
282.142908
21
97.050906
0
LINE
8
Layer 1
10
282.142908
20
97.050906
11
283.455743
21
89.565880
0
LINE
8
Layer 1
10
283.455743
20
89.565880
11
281.095212
21
89.128550
0
LINE
8
Layer 1
10
281.095212
20
89.128550
11
283.016376
21
78.758775
0
LINE
8
Layer 1
10
283.016376
20
78.758775
11
285.787671
21
79.272199
0
LINE
8
Layer 1
10
285.787671
20
79.272199
11
285.209425
21
82.393431
0
LINE
8
Layer 1
10
285.209425
20
82.393431
11
299.471719
21
84.938667
0
LINE
8
Layer 1
10
302.816207
20
66.142770
11
300.230331
21
80.886023
0
LINE
8
Layer 1
10
300.230331
20
80.886023
11
285.487396
21
78.255009
0
LINE
8
Layer 1
10
285.487396
20
78.255009
11
285.540101
21
77.954575
0
LINE
8
Layer 1
10
285.540101
20
77.954575
11
283.244182
21
77.529232
0
LINE
8
Layer 1
10
283.244182
20
77.529232
11
285.165319
21
67.159457
0
LINE
8
Layer 1
10
285.165319
20
67.159457
11
287.362099
21
67.566438
0
LINE
8
Layer 1
10
287.362099
20
67.566438
11
288.073298
21
63.511757
0
LINE
8
Layer 1
10
288.073298
20
63.511757
11
302.816207
21
66.142770
0
LINE
8
Layer 1
10
277.373879
20
100.348034
11
274.787977
21
115.091313
0
LINE
8
Layer 1
10
274.787977
20
115.091313
11
260.846358
21
112.603280
0
LINE
8
Layer 1
10
260.846358
20
112.603280
11
261.610202
21
113.665783
0
LINE
8
Layer 1
10
261.610202
20
113.665783
11
261.893789
21
114.976669
0
LINE
8
Layer 1
10
261.893789
20
114.976669
11
261.634498
21
116.260558
0
LINE
8
Layer 1
10
261.634498
20
116.260558
11
260.930707
21
117.310291
0
LINE
8
Layer 1
10
260.930707
20
117.310291
11
259.893542
21
118.018712
0
LINE
8
Layer 1
10
259.893542
20
118.018712
11
258.634127
21
118.278665
0
LINE
8
Layer 1
10
258.634127
20
118.278665
11
257.451161
21
118.059115
0
LINE
8
Layer 1
10
257.451161
20
118.059115
11
256.457786
21
117.455514
0
LINE
8
Layer 1
10
256.457786
20
117.455514
11
255.735668
21
116.550438
0
LINE
8
Layer 1
10
255.735668
20
116.550438
11
255.366474
21
115.426460
0
LINE
8
Layer 1
10
255.366474
20
115.426460
11
254.764767
21
118.857493
0
LINE
8
Layer 1
10
254.764767
20
118.857493
11
240.021498
21
116.271591
0
LINE
8
Layer 1
10
240.021498
20
116.271591
11
241.464648
21
108.042610
0
LINE
8
Layer 1
10
241.464648
20
108.042610
11
239.227577
21
107.628167
0
LINE
8
Layer 1
10
239.227577
20
107.628167
11
241.148733
21
97.258419
0
LINE
8
Layer 1
10
241.148733
20
97.258419
11
243.920049
21
97.771842
0
LINE
8
Layer 1
10
243.920049
20
97.771842
11
243.204657
21
101.633325
0
LINE
8
Layer 1
10
243.204657
20
101.633325
11
257.350309
21
104.114373
0
LINE
8
Layer 1
10
257.350309
20
104.114373
11
255.707624
21
113.481219
0
LINE
8
Layer 1
10
255.707624
20
113.481219
11
256.218965
21
112.766373
0
LINE
8
Layer 1
10
256.218965
20
112.766373
11
256.901228
21
112.208714
0
LINE
8
Layer 1
10
256.901228
20
112.208714
11
257.718315
21
111.846248
0
LINE
8
Layer 1
10
257.718315
20
111.846248
11
258.634127
21
111.716980
0
LINE
8
Layer 1
10
258.634127
20
111.716980
11
259.404185
21
111.812852
0
LINE
8
Layer 1
10
259.404185
20
111.812852
11
260.111320
21
112.082396
0
LINE
8
Layer 1
10
260.111320
20
112.082396
11
260.819635
21
108.044198
0
LINE
8
Layer 1
10
260.819635
20
108.044198
11
258.573908
21
107.628167
0
LINE
8
Layer 1
10
258.573908
20
107.628167
11
260.495071
21
97.258419
0
LINE
8
Layer 1
10
260.495071
20
97.258419
11
263.266393
21
97.771842
0
LINE
8
Layer 1
10
263.266393
20
97.771842
11
263.255810
21
97.828569
0
LINE
8
Layer 1
10
263.255810
20
97.828569
11
277.373879
21
100.348034
0
LINE
8
Layer 1
10
264.730119
20
66.716703
11
263.978227
21
66.626983
0
LINE
8
Layer 1
10
263.978227
20
66.626983
11
261.411031
21
81.265673
0
LINE
8
Layer 1
10
261.411031
20
81.265673
11
247.279682
21
78.787112
0
LINE
8
Layer 1
10
247.279682
20
78.787112
11
246.529880
21
82.834253
0
LINE
8
Layer 1
10
246.529880
20
82.834253
11
260.694461
21
85.362053
0
LINE
8
Layer 1
10
260.694461
20
85.362053
11
258.108585
21
100.105332
0
LINE
8
Layer 1
10
258.108585
20
100.105332
11
243.365650
21
97.474318
0
LINE
8
Layer 1
10
243.365650
20
97.474318
11
245.027541
21
87.999098
0
LINE
8
Layer 1
10
245.027541
20
87.999098
11
242.783602
21
87.583386
0
LINE
8
Layer 1
10
242.783602
20
87.583386
11
246.745111
21
66.200423
0
LINE
8
Layer 1
10
246.745111
20
66.200423
11
248.789858
21
66.579226
0
LINE
8
Layer 1
10
248.789858
20
66.579226
11
249.253310
21
63.936518
0
LINE
8
Layer 1
10
249.253310
20
63.936518
11
263.345741
21
66.408253
0
LINE
8
Layer 1
10
263.345741
20
66.408253
11
262.569358
21
65.905436
0
LINE
8
Layer 1
10
262.569358
20
65.905436
11
261.963150
21
65.211709
0
LINE
8
Layer 1
10
261.963150
20
65.211709
11
261.568832
21
64.367874
0
LINE
8
Layer 1
10
261.568832
20
64.367874
11
261.428123
21
63.414734
0
LINE
8
Layer 1
10
261.428123
20
63.414734
11
261.688080
21
62.155319
0
LINE
8
Layer 1
10
261.688080
20
62.155319
11
262.396507
21
61.118154
0
LINE
8
Layer 1
10
262.396507
20
61.118154
11
263.446241
21
60.414363
0
LINE
8
Layer 1
10
263.446241
20
60.414363
11
264.730119
21
60.155071
0
LINE
8
Layer 1
10
264.730119
20
60.155071
11
265.989549
21
60.414363
0
LINE
8
Layer 1
10
265.989549
20
60.414363
11
267.026723
21
61.118154
0
LINE
8
Layer 1
10
267.026723
20
61.118154
11
267.730516
21
62.155319
0
LINE
8
Layer 1
10
267.730516
20
62.155319
11
267.989808
21
63.414734
0
LINE
8
Layer 1
10
267.989808
20
63.414734
11
267.730516
21
64.698608
0
LINE
8
Layer 1
10
267.730516
20
64.698608
11
267.026723
21
65.748333
0
LINE
8
Layer 1
10
267.026723
20
65.748333
11
265.989549
21
66.456751
0
LINE
8
Layer 1
10
265.989549
20
66.456751
11
264.730119
21
66.716703
0
LINE
8
Layer 1
10
264.730119
20
66.716703
11
264.730119
21
66.716703
0
LINE
8
Layer 1
10
244.608984
20
66.778034
11
241.978312
21
81.520625
0
LINE
8
Layer 1
10
241.978312
20
81.520625
11
227.786323
21
78.987878
0
LINE
8
Layer 1
10
227.786323
20
78.987878
11
227.044208
21
82.993638
0
LINE
8
Layer 1
10
227.044208
20
82.993638
11
241.263456
21
85.487650
0
LINE
8
Layer 1
10
241.263456
20
85.487650
11
238.677914
21
100.230903
0
LINE
8
Layer 1
10
238.677914
20
100.230903
11
223.934646
21
97.645027
0
LINE
8
Layer 1
10
223.934646
20
97.645027
11
225.648387
21
87.872945
0
LINE
8
Layer 1
10
225.648387
20
87.872945
11
223.352597
21
87.447628
0
LINE
8
Layer 1
10
223.352597
20
87.447628
11
227.149369
21
66.953902
0
LINE
8
Layer 1
10
227.149369
20
66.953902
11
229.294626
21
67.351332
0
LINE
8
Layer 1
10
229.294626
20
67.351332
11
229.866403
21
64.147020
0
LINE
8
Layer 1
10
229.866403
20
64.147020
11
244.608984
21
66.778034
0
LINE
8
Layer 1
10
223.783902
20
101.839329
11
237.961680
21
104.326092
0
LINE
8
Layer 1
10
237.961680
20
104.326092
11
235.375794
21
119.070721
0
LINE
8
Layer 1
10
235.375794
20
119.070721
11
220.632872
21
116.439548
0
LINE
8
Layer 1
10
220.632872
20
116.439548
11
222.038297
21
108.450491
0
LINE
8
Layer 1
10
222.038297
20
108.450491
11
219.770501
21
108.030333
0
LINE
8
Layer 1
10
219.770501
20
108.030333
11
221.691656
21
97.660585
0
LINE
8
Layer 1
10
221.691656
20
97.660585
11
224.462952
21
98.174008
0
LINE
8
Layer 1
10
224.462952
20
98.174008
11
223.783902
21
101.839329
0
LINE
8
Layer 1
10
219.800536
20
97.425741
11
217.214997
21
112.168835
0
LINE
8
Layer 1
10
217.214997
20
112.168835
11
202.471728
21
109.582959
0
LINE
8
Layer 1
10
202.471728
20
109.582959
11
202.702463
21
108.267267
0
LINE
8
Layer 1
10
202.702463
20
108.267267
11
200.280973
21
107.818667
0
LINE
8
Layer 1
10
200.280973
20
107.818667
11
202.202129
21
97.448918
0
LINE
8
Layer 1
10
202.202129
20
97.448918
11
204.524270
21
97.879104
0
LINE
8
Layer 1
10
204.524270
20
97.879104
11
205.057270
21
94.839865
0
LINE
8
Layer 1
10
205.057270
20
94.839865
11
219.800536
21
97.425741
0
LINE
8
Layer 1
10
226.405121
20
59.918349
11
223.818891
21
74.661602
0
LINE
8
Layer 1
10
223.818891
20
74.661602
11
209.701877
21
72.185555
0
LINE
8
Layer 1
10
209.701877
20
72.185555
11
208.959740
21
76.191447
0
LINE
8
Layer 1
10
208.959740
20
76.191447
11
223.102656
21
78.672045
0
LINE
8
Layer 1
10
223.102656
20
78.672045
11
220.517117
21
93.415298
0
LINE
8
Layer 1
10
220.517117
20
93.415298
11
205.773848
21
90.829422
0
LINE
8
Layer 1
10
205.773848
20
90.829422
11
206.291150
21
87.879666
0
LINE
8
Layer 1
10
206.291150
20
87.879666
11
204.006302
21
87.456386
0
LINE
8
Layer 1
10
204.006302
20
87.456386
11
207.873439
21
66.582904
0
LINE
8
Layer 1
10
207.873439
20
66.582904
11
209.970788
21
66.971470
0
LINE
8
Layer 1
10
209.970788
20
66.971470
11
211.661164
21
57.332791
0
LINE
8
Layer 1
10
211.661164
20
57.332791
11
226.405121
21
59.918349
0
LINE
8
Layer 1
10
201.641117
20
90.694882
11
199.010445
21
105.438002
0
LINE
8
Layer 1
10
199.010445
20
105.438002
11
184.764736
21
102.931607
0
LINE
8
Layer 1
10
184.764736
20
102.931607
11
184.720789
21
103.168806
0
LINE
8
Layer 1
10
184.720789
20
103.168806
11
181.657198
21
102.601249
0
LINE
8
Layer 1
10
181.657198
20
102.601249
11
183.578354
21
92.231500
0
LINE
8
Layer 1
10
183.578354
20
92.231500
11
186.091784
21
92.697140
0
LINE
8
Layer 1
10
186.091784
20
92.697140
11
186.896470
21
88.108662
0
LINE
8
Layer 1
10
186.896470
20
88.108662
11
201.641117
21
90.694882
0
LINE
8
Layer 1
10
205.656371
20
67.845679
11
191.555462
21
65.372569
0
LINE
8
Layer 1
10
191.555462
20
65.372569
11
190.814595
21
69.371476
0
LINE
8
Layer 1
10
190.814595
20
69.371476
11
204.984923
21
71.900361
0
LINE
8
Layer 1
10
204.984923
20
71.900361
11
202.354251
21
86.642952
0
LINE
8
Layer 1
10
202.354251
20
86.642952
11
188.102511
21
84.099515
0
LINE
8
Layer 1
10
188.102511
20
84.099515
11
187.440387
21
87.673450
0
LINE
8
Layer 1
10
187.440387
20
87.673450
11
184.669071
21
87.160026
0
LINE
8
Layer 1
10
184.669071
20
87.160026
11
186.590224
21
76.790278
0
LINE
8
Layer 1
10
186.590224
20
76.790278
11
188.826389
21
77.204535
0
LINE
8
Layer 1
10
188.826389
20
77.204535
11
189.450189
21
73.708653
0
LINE
8
Layer 1
10
189.450189
20
73.708653
11
187.221151
21
73.295692
0
LINE
8
Layer 1
10
187.221151
20
73.295692
11
189.142304
21
62.925943
0
LINE
8
Layer 1
10
189.142304
20
62.925943
11
191.259960
21
63.318267
0
LINE
8
Layer 1
10
191.259960
20
63.318267
11
193.544465
21
50.517027
0
LINE
8
Layer 1
10
193.544465
20
50.517027
11
208.287387
21
53.102929
0
LINE
8
Layer 1
10
208.287387
20
53.102929
11
205.656371
21
67.845679
0
LINE
8
Layer 1
10
242.130929
20
40.052558
11
238.774376
21
54.658042
0
LINE
8
Layer 1
10
238.774376
20
54.658042
11
224.167190
21
51.301489
0
LINE
8
Layer 1
10
224.167190
20
51.301489
11
224.283633
21
50.801533
0
LINE
8
Layer 1
10
224.283633
20
50.801533
11
222.033580
21
50.258979
0
LINE
8
Layer 1
10
222.033580
20
50.258979
11
224.504121
21
40.013373
0
LINE
8
Layer 1
10
224.504121
20
40.013373
11
226.674355
21
40.536665
0
LINE
8
Layer 1
10
226.674355
20
40.536665
11
227.568873
21
36.696031
0
LINE
8
Layer 1
10
227.568873
20
36.696031
11
242.130929
21
40.052558
0
LINE
8
Layer 1
10
223.226336
20
35.221510
11
217.147473
21
48.876480
0
LINE
8
Layer 1
10
217.147473
20
48.876480
11
203.447378
21
42.797606
0
LINE
8
Layer 1
10
203.447378
20
42.797606
11
203.652361
21
42.340619
0
LINE
8
Layer 1
10
203.652361
20
42.340619
11
201.535266
21
41.395369
0
LINE
8
Layer 1
10
201.535266
20
41.395369
11
205.834806
21
31.765395
0
LINE
8
Layer 1
10
205.834806
20
31.765395
11
207.968199
21
32.717894
0
LINE
8
Layer 1
10
207.968199
20
32.717894
11
209.571718
21
29.142663
0
LINE
8
Layer 1
10
209.571718
20
29.142663
11
223.226336
21
35.221510
0
LINE
8
Layer 1
10
205.592292
20
22.156693
11
198.334518
21
35.265960
0
LINE
8
Layer 1
10
198.334518
20
35.265960
11
185.701026
21
28.247182
0
LINE
8
Layer 1
10
185.701026
20
28.247182
11
185.515702
21
28.581033
0
LINE
8
Layer 1
10
185.515702
20
28.581033
11
182.783721
21
27.064549
0
LINE
8
Layer 1
10
182.783721
20
27.064549
11
187.902095
21
17.843672
0
LINE
8
Layer 1
10
187.902095
20
17.843672
11
190.191873
21
19.114676
0
LINE
8
Layer 1
10
190.191873
20
19.114676
11
192.526096
21
14.898229
0
LINE
8
Layer 1
10
192.526096
20
14.898229
11
205.592292
21
22.156693
0
LINE
8
Layer 1
10
186.307728
20
44.835716
11
186.307726
21
44.835716
0
LINE
8
Layer 1
10
186.307726
20
44.835716
11
185.725056
21
44.953350
0
LINE
8
Layer 1
10
185.725056
20
44.953350
11
185.249242
21
45.274150
0
LINE
8
Layer 1
10
185.249242
20
45.274150
11
184.928438
21
45.749958
0
LINE
8
Layer 1
10
184.928438
20
45.749958
11
184.810802
21
46.332621
0
LINE
8
Layer 1
10
184.810802
20
46.332621
11
184.810802
21
53.826855
0
LINE
8
Layer 1
10
184.810802
20
53.826855
11
184.928438
21
54.409517
0
LINE
8
Layer 1
10
184.928438
20
54.409517
11
185.249242
21
54.885326
0
LINE
8
Layer 1
10
185.249242
20
54.885326
11
185.725056
21
55.206125
0
LINE
8
Layer 1
10
185.725056
20
55.206125
11
186.307726
21
55.323759
0
LINE
8
Layer 1
10
186.307726
20
55.323759
11
186.307728
21
55.323759
0
LINE
8
Layer 1
10
186.307728
20
55.323759
11
186.890398
21
55.206125
0
LINE
8
Layer 1
10
186.890398
20
55.206125
11
187.366212
21
54.885326
0
LINE
8
Layer 1
10
187.366212
20
54.885326
11
187.687016
21
54.409517
0
LINE
8
Layer 1
10
187.687016
20
54.409517
11
187.804652
21
53.826855
0
LINE
8
Layer 1
10
187.804652
20
53.826855
11
187.804652
21
46.332621
0
LINE
8
Layer 1
10
187.804652
20
46.332621
11
187.687016
21
45.749958
0
LINE
8
Layer 1
10
187.687016
20
45.749958
11
187.366212
21
45.274150
0
LINE
8
Layer 1
10
187.366212
20
45.274150
11
186.890398
21
44.953350
0
LINE
8
Layer 1
10
186.890398
20
44.953350
11
186.307728
21
44.835716
0
LINE
8
Layer 1
10
186.307728
20
44.835716
11
186.307728
21
44.835716
0
LINE
8
Layer 1
10
145.159775
20
44.835716
11
145.159772
21
44.835716
0
LINE
8
Layer 1
10
145.159772
20
44.835716
11
144.577103
21
44.953350
0
LINE
8
Layer 1
10
144.577103
20
44.953350
11
144.101289
21
45.274150
0
LINE
8
Layer 1
10
144.101289
20
45.274150
11
143.780487
21
45.749958
0
LINE
8
Layer 1
10
143.780487
20
45.749958
11
143.662852
21
46.332621
0
LINE
8
Layer 1
10
143.662852
20
46.332621
11
143.662852
21
53.826855
0
LINE
8
Layer 1
10
143.662852
20
53.826855
11
143.780487
21
54.409517
0
LINE
8
Layer 1
10
143.780487
20
54.409517
11
144.101289
21
54.885326
0
LINE
8
Layer 1
10
144.101289
20
54.885326
11
144.577103
21
55.206125
0
LINE
8
Layer 1
10
144.577103
20
55.206125
11
145.159772
21
55.323759
0
LINE
8
Layer 1
10
145.159772
20
55.323759
11
145.159775
21
55.323759
0
LINE
8
Layer 1
10
145.159775
20
55.323759
11
145.742444
21
55.206125
0
LINE
8
Layer 1
10
145.742444
20
55.206125
11
146.218259
21
54.885326
0
LINE
8
Layer 1
10
146.218259
20
54.885326
11
146.539062
21
54.409517
0
LINE
8
Layer 1
10
146.539062
20
54.409517
11
146.656698
21
53.826855
0
LINE
8
Layer 1
10
146.656698
20
53.826855
11
146.656698
21
46.332621
0
LINE
8
Layer 1
10
146.656698
20
46.332621
11
146.539062
21
45.749958
0
LINE
8
Layer 1
10
146.539062
20
45.749958
11
146.218259
21
45.274150
0
LINE
8
Layer 1
10
146.218259
20
45.274150
11
145.742444
21
44.953350
0
LINE
8
Layer 1
10
145.742444
20
44.953350
11
145.159775
21
44.835716
0
LINE
8
Layer 1
10
145.159775
20
44.835716
11
145.159775
21
44.835716
0
LINE
8
Layer 1
10
70.511129
20
54.702122
11
70.397377
21
54.207193
0
LINE
8
Layer 1
10
70.397377
20
54.207193
11
67.788991
21
54.813538
0
LINE
8
Layer 1
10
67.788991
20
54.813538
11
65.386384
21
44.478211
0
LINE
8
Layer 1
10
65.386384
20
44.478211
11
68.020823
21
43.865781
0
LINE
8
Layer 1
10
68.020823
20
43.865781
11
67.154232
21
40.094944
0
LINE
8
Layer 1
10
67.154232
20
40.094944
11
81.717322
21
36.737703
0
LINE
8
Layer 1
10
81.717322
20
36.737703
11
85.074047
21
51.299769
0
LINE
8
Layer 1
10
85.074047
20
51.299769
11
70.511129
21
54.702122
0
LINE
8
Layer 1
10
92.202802
20
48.983636
11
92.012654
21
48.552975
0
LINE
8
Layer 1
10
92.012654
20
48.552975
11
89.524222
21
49.651735
0
LINE
8
Layer 1
10
89.524222
20
49.651735
11
85.286674
21
40.054701
0
LINE
8
Layer 1
10
85.286674
20
40.054701
11
87.775170
21
38.955941
0
LINE
8
Layer 1
10
87.775170
20
38.955941
11
86.143920
21
35.261489
0
LINE
8
Layer 1
10
86.143920
20
35.261489
11
99.865890
21
29.202591
0
LINE
8
Layer 1
10
99.865890
20
29.202591
11
105.924767
21
42.924739
0
LINE
8
Layer 1
10
105.924767
20
42.924739
11
92.202802
21
48.983636
0
LINE
8
Layer 1
10
111.315434
20
34.756982
11
111.575389
21
35.227807
0
LINE
8
Layer 1
10
111.575389
20
35.227807
11
108.860355
21
36.726776
0
LINE
8
Layer 1
10
108.860355
20
36.726776
11
103.689789
21
27.361702
0
LINE
8
Layer 1
10
103.689789
20
27.361702
11
105.858820
21
26.164146
0
LINE
8
Layer 1
10
105.858820
20
26.164146
11
103.523025
21
21.945159
0
LINE
8
Layer 1
10
103.523025
20
21.945159
11
116.589396
21
14.686377
0
LINE
8
Layer 1
10
116.589396
20
14.686377
11
123.846998
21
27.795274
0
LINE
8
Layer 1
10
123.846998
20
27.795274
11
111.315434
21
34.756982
0
LINE
8
Layer 1
10
31.036586
20
115.763777
11
16.293491
21
118.349335
0
LINE
8
Layer 1
10
16.293491
20
118.349335
11
13.707606
21
103.606056
0
LINE
8
Layer 1
10
13.707606
20
103.606056
11
15.013295
21
103.377059
0
LINE
8
Layer 1
10
15.013295
20
103.377059
11
14.569697
21
100.881407
0
LINE
8
Layer 1
10
14.569697
20
100.881407
11
24.895885
21
99.045915
0
LINE
8
Layer 1
10
24.895885
20
99.045915
11
25.343723
21
101.565407
0
LINE
8
Layer 1
10
25.343723
20
101.565407
11
28.450700
21
101.020524
0
LINE
8
Layer 1
10
28.450700
20
101.020524
11
31.036586
21
115.763777
0
LINE
8
Layer 1
10
27.734638
20
96.989073
11
12.991544
21
99.574605
0
LINE
8
Layer 1
10
12.991544
20
99.574605
11
10.405658
21
84.831352
0
LINE
8
Layer 1
10
10.405658
20
84.831352
11
12.145149
21
84.526288
0
LINE
8
Layer 1
10
12.145149
20
84.526288
11
11.729219
21
82.186422
0
LINE
8
Layer 1
10
11.729219
20
82.186422
11
22.055406
21
80.350930
0
LINE
8
Layer 1
10
22.055406
20
80.350930
11
22.475556
21
82.714609
0
LINE
8
Layer 1
10
22.475556
20
82.714609
11
25.148755
21
82.245820
0
LINE
8
Layer 1
10
25.148755
20
82.245820
11
27.734638
21
96.989073
0
LINE
8
Layer 1
10
26.221533
20
73.829541
11
23.713228
21
74.275363
0
LINE
8
Layer 1
10
23.713228
20
74.275363
11
24.411505
21
78.256570
0
LINE
8
Layer 1
10
24.411505
20
78.256570
11
9.668409
21
80.842102
0
LINE
8
Layer 1
10
9.668409
20
80.842102
11
7.082523
21
66.098849
0
LINE
8
Layer 1
10
7.082523
20
66.098849
11
21.825619
21
63.513291
0
LINE
8
Layer 1
10
21.825619
20
63.513291
11
21.901345
21
63.944985
0
LINE
8
Layer 1
10
21.901345
20
63.944985
11
24.386054
21
63.503316
0
LINE
8
Layer 1
10
24.386054
20
63.503316
11
26.221533
21
73.829541
0
LINE
8
Layer 1
10
46.488165
20
93.708138
11
31.745071
21
96.293696
0
LINE
8
Layer 1
10
31.745071
20
96.293696
11
30.568483
21
89.585512
0
LINE
8
Layer 1
10
30.568483
20
89.585512
11
28.020472
21
90.038398
0
LINE
8
Layer 1
10
28.020472
20
90.038398
11
26.184994
21
79.712227
0
LINE
8
Layer 1
10
26.184994
20
79.712227
11
29.254376
21
79.166656
0
LINE
8
Layer 1
10
29.254376
20
79.166656
11
29.662403
21
81.462152
0
LINE
8
Layer 1
10
29.662403
20
81.462152
11
43.902279
21
78.964885
0
LINE
8
Layer 1
10
43.902279
20
78.964885
11
46.488165
21
93.708138
0
LINE
8
Layer 1
10
40.448425
20
75.438497
11
40.939565
21
78.201563
0
LINE
8
Layer 1
10
40.939565
20
78.201563
11
30.613357
21
80.037082
0
LINE
8
Layer 1
10
30.613357
20
80.037082
11
30.117996
21
77.250149
0
LINE
8
Layer 1
10
30.117996
20
77.250149
11
28.464308
21
77.540159
0
LINE
8
Layer 1
10
28.464308
20
77.540159
11
25.878252
21
62.796880
0
LINE
8
Layer 1
10
25.878252
20
62.796880
11
40.621518
21
60.211189
0
LINE
8
Layer 1
10
40.621518
20
60.211189
11
43.207576
21
74.954627
0
LINE
8
Layer 1
10
43.207576
20
74.954627
11
40.448425
21
75.438497
0
LINE
8
Layer 1
10
55.091935
20
118.815107
11
54.546469
21
115.705198
0
LINE
8
Layer 1
10
54.546469
20
115.705198
11
54.125597
21
116.727748
0
LINE
8
Layer 1
10
54.125597
20
116.727748
11
53.408761
21
117.543438
0
LINE
8
Layer 1
10
53.408761
20
117.543438
11
52.466760
21
118.083376
0
LINE
8
Layer 1
10
52.466760
20
118.083376
11
51.370396
21
118.278665
0
LINE
8
Layer 1
10
51.370396
20
118.278665
11
50.086512
21
118.018712
0
LINE
8
Layer 1
10
50.086512
20
118.018712
11
49.036780
21
117.310291
0
LINE
8
Layer 1
10
49.036780
20
117.310291
11
48.328359
21
116.260558
0
LINE
8
Layer 1
10
48.328359
20
116.260558
11
48.068405
21
114.976669
0
LINE
8
Layer 1
10
48.068405
20
114.976669
11
48.144627
21
114.286705
0
LINE
8
Layer 1
10
48.144627
20
114.286705
11
48.362240
21
113.645354
0
LINE
8
Layer 1
10
48.362240
20
113.645354
11
49.155333
21
112.573197
0
LINE
8
Layer 1
10
49.155333
20
112.573197
11
35.047188
21
115.047392
0
LINE
8
Layer 1
10
35.047188
20
115.047392
11
34.355846
21
111.105740
0
LINE
8
Layer 1
10
34.355846
20
111.105740
11
31.745801
21
111.569687
0
LINE
8
Layer 1
10
31.745801
20
111.569687
11
29.915704
21
101.273810
0
LINE
8
Layer 1
10
29.915704
20
101.273810
11
32.549284
21
100.805709
0
LINE
8
Layer 1
10
32.549284
20
100.805709
11
32.461305
21
100.304113
0
LINE
8
Layer 1
10
32.461305
20
100.304113
11
47.204399
21
97.718581
0
LINE
8
Layer 1
10
47.204399
20
97.718581
11
49.736003
21
112.152351
0
LINE
8
Layer 1
10
49.736003
20
112.152351
11
50.390807
21
111.870541
0
LINE
8
Layer 1
10
50.390807
20
111.870541
11
51.109562
21
111.734442
0
LINE
8
Layer 1
10
51.109562
20
111.734442
11
49.277806
21
101.429199
0
LINE
8
Layer 1
10
49.277806
20
101.429199
11
52.347188
21
100.883629
0
LINE
8
Layer 1
10
52.347188
20
100.883629
11
52.901567
21
104.002481
0
LINE
8
Layer 1
10
52.901567
20
104.002481
11
67.249146
21
101.486296
0
LINE
8
Layer 1
10
67.249146
20
101.486296
11
69.835029
21
116.229575
0
LINE
8
Layer 1
10
69.835029
20
116.229575
11
55.091935
21
118.815107
0
LINE
8
Layer 1
10
44.724084
20
66.716703
11
43.440190
21
66.456751
0
LINE
8
Layer 1
10
43.440190
20
66.456751
11
42.390460
21
65.748333
0
LINE
8
Layer 1
10
42.390460
20
65.748333
11
41.682043
21
64.698608
0
LINE
8
Layer 1
10
41.682043
20
64.698608
11
41.422093
21
63.414734
0
LINE
8
Layer 1
10
41.422093
20
63.414734
11
41.682043
21
62.155319
0
LINE
8
Layer 1
10
41.682043
20
62.155319
11
42.390460
21
61.118154
0
LINE
8
Layer 1
10
42.390460
20
61.118154
11
43.440190
21
60.414363
0
LINE
8
Layer 1
10
43.440190
20
60.414363
11
44.724084
21
60.155071
0
LINE
8
Layer 1
10
44.724084
20
60.155071
11
45.983495
21
60.414363
0
LINE
8
Layer 1
10
45.983495
20
60.414363
11
47.020660
21
61.118154
0
LINE
8
Layer 1
10
47.020660
20
61.118154
11
47.724452
21
62.155319
0
LINE
8
Layer 1
10
47.724452
20
62.155319
11
47.983744
21
63.414734
0
LINE
8
Layer 1
10
47.983744
20
63.414734
11
47.724452
21
64.698608
0
LINE
8
Layer 1
10
47.724452
20
64.698608
11
47.020660
21
65.748333
0
LINE
8
Layer 1
10
47.020660
20
65.748333
11
45.983495
21
66.456751
0
LINE
8
Layer 1
10
45.983495
20
66.456751
11
44.724084
21
66.716703
0
LINE
8
Layer 1
10
44.724084
20
66.716703
11
44.724084
21
66.716703
0
LINE
8
Layer 1
10
63.968386
20
82.774986
11
66.554269
21
97.518239
0
LINE
8
Layer 1
10
66.554269
20
97.518239
11
51.811175
21
100.103771
0
LINE
8
Layer 1
10
51.811175
20
100.103771
11
50.113994
21
90.427335
0
LINE
8
Layer 1
10
50.113994
20
90.427335
11
47.538874
21
90.885090
0
LINE
8
Layer 1
10
47.538874
20
90.885090
11
43.392536
21
67.558342
0
LINE
8
Layer 1
10
43.392536
20
67.558342
11
46.039829
21
67.087781
0
LINE
8
Layer 1
10
46.039829
20
67.087781
11
45.944357
21
66.543428
0
LINE
8
Layer 1
10
45.944357
20
66.543428
11
60.687453
21
63.957896
0
LINE
8
Layer 1
10
60.687453
20
63.957896
11
63.273337
21
78.701149
0
LINE
8
Layer 1
10
63.273337
20
78.701149
11
48.984929
21
81.206962
0
LINE
8
Layer 1
10
48.984929
20
81.206962
11
49.708185
21
85.275825
0
LINE
8
Layer 1
10
49.708185
20
85.275825
11
63.968386
21
82.774986
0
LINE
8
Layer 1
10
89.202471
20
116.314136
11
74.459377
21
118.899694
0
LINE
8
Layer 1
10
74.459377
20
118.899694
11
73.091266
21
111.099470
0
LINE
8
Layer 1
10
73.091266
20
111.099470
11
70.353752
21
111.586064
0
LINE
8
Layer 1
10
70.353752
20
111.586064
11
68.518274
21
101.259866
0
LINE
8
Layer 1
10
68.518274
20
101.259866
11
71.771946
21
100.681514
0
LINE
8
Layer 1
10
71.771946
20
100.681514
11
72.374021
21
104.068626
0
LINE
8
Layer 1
10
72.374021
20
104.068626
11
86.616587
21
101.570883
0
LINE
8
Layer 1
10
86.616587
20
101.570883
11
89.202471
21
116.314136
0
LINE
8
Layer 1
10
83.357012
20
82.817346
11
85.942898
21
97.560625
0
LINE
8
Layer 1
10
85.942898
20
97.560625
11
71.199804
21
100.146157
0
LINE
8
Layer 1
10
71.199804
20
100.146157
11
69.494032
21
90.420853
0
LINE
8
Layer 1
10
69.494032
20
90.420853
11
66.882437
21
90.885090
0
LINE
8
Layer 1
10
66.882437
20
90.885090
11
62.777826
21
67.793106
0
LINE
8
Layer 1
10
62.777826
20
67.793106
11
65.460044
21
67.316354
0
LINE
8
Layer 1
10
65.460044
20
67.316354
11
65.354173
21
66.712761
0
LINE
8
Layer 1
10
65.354173
20
66.712761
11
80.097267
21
64.127203
0
LINE
8
Layer 1
10
80.097267
20
64.127203
11
82.683153
21
78.870482
0
LINE
8
Layer 1
10
82.683153
20
78.870482
11
68.359691
21
81.382433
0
LINE
8
Layer 1
10
68.359691
20
81.382433
11
69.060423
21
85.324588
0
LINE
8
Layer 1
10
69.060423
20
85.324588
11
83.357012
21
82.817346
0
LINE
8
Layer 1
10
92.662721
20
112.211036
11
92.436056
21
110.918680
0
LINE
8
Layer 1
10
92.436056
20
110.918680
11
89.872305
21
111.374371
0
LINE
8
Layer 1
10
89.872305
20
111.374371
11
88.036824
21
101.048200
0
LINE
8
Layer 1
10
88.036824
20
101.048200
11
90.624154
21
100.588302
0
LINE
8
Layer 1
10
90.624154
20
100.588302
11
90.076835
21
97.467783
0
LINE
8
Layer 1
10
90.076835
20
97.467783
11
104.819932
21
94.882225
0
LINE
8
Layer 1
10
104.819932
20
94.882225
11
107.405815
21
109.625504
0
LINE
8
Layer 1
10
107.405815
20
109.625504
11
92.662721
21
112.211036
0
LINE
8
Layer 1
10
89.403149
20
93.457525
11
88.930826
21
90.764626
0
LINE
8
Layer 1
10
88.930826
20
90.764626
11
86.437290
21
91.207855
0
LINE
8
Layer 1
10
86.437290
20
91.207855
11
84.601811
21
80.881631
0
LINE
8
Layer 1
10
84.601811
20
80.881631
11
87.118946
21
80.434221
0
LINE
8
Layer 1
10
87.118946
20
80.434221
11
86.817263
21
78.714246
0
LINE
8
Layer 1
10
86.817263
20
78.714246
11
101.560357
21
76.128714
0
LINE
8
Layer 1
10
101.560357
20
76.128714
11
104.146243
21
90.871967
0
LINE
8
Layer 1
10
104.146243
20
90.871967
11
89.403149
21
93.457525
0
LINE
8
Layer 1
10
86.660791
20
74.651733
11
87.096789
21
77.104602
0
LINE
8
Layer 1
10
87.096789
20
77.104602
11
83.703224
21
77.707799
0
LINE
8
Layer 1
10
83.703224
20
77.707799
11
81.867743
21
67.381600
0
LINE
8
Layer 1
10
81.867743
20
67.381600
11
84.740863
21
66.870876
0
LINE
8
Layer 1
10
84.740863
20
66.870876
11
83.536158
21
60.002751
0
LINE
8
Layer 1
10
83.536158
20
60.002751
11
98.279424
21
57.417219
0
LINE
8
Layer 1
10
98.279424
20
57.417219
11
100.865482
21
72.160657
0
LINE
8
Layer 1
10
100.865482
20
72.160657
11
86.660791
21
74.651733
0
LINE
8
Layer 1
10
110.866066
20
105.395431
11
110.520243
21
103.423785
0
LINE
8
Layer 1
10
110.520243
20
103.423785
11
107.945726
21
103.881381
0
LINE
8
Layer 1
10
107.945726
20
103.881381
11
106.110227
21
93.555209
0
LINE
8
Layer 1
10
106.110227
20
93.555209
11
108.708363
21
93.093380
0
LINE
8
Layer 1
10
108.708363
20
93.093380
11
108.280180
21
90.652178
0
LINE
8
Layer 1
10
108.280180
20
90.652178
11
123.023277
21
88.066646
0
LINE
8
Layer 1
10
123.023277
20
88.066646
11
125.609163
21
102.809899
0
LINE
8
Layer 1
10
125.609163
20
102.809899
11
110.866066
21
105.395431
0
LINE
8
Layer 1
10
119.700141
20
69.270564
11
122.286027
21
84.013817
0
LINE
8
Layer 1
10
122.286027
20
84.013817
11
108.025157
21
86.514788
0
LINE
8
Layer 1
10
108.025157
20
86.514788
11
108.729098
21
90.475040
0
LINE
8
Layer 1
10
108.729098
20
90.475040
11
105.659716
21
91.020610
0
LINE
8
Layer 1
10
105.659716
20
91.020610
11
103.824214
21
80.694412
0
LINE
8
Layer 1
10
103.824214
20
80.694412
11
106.426120
21
80.231921
0
LINE
8
Layer 1
10
106.426120
20
80.231921
11
105.856042
21
76.981677
0
LINE
8
Layer 1
10
105.856042
20
76.981677
11
103.246708
21
77.445465
0
LINE
8
Layer 1
10
103.246708
20
77.445465
11
101.411230
21
67.119266
0
LINE
8
Layer 1
10
101.411230
20
67.119266
11
104.004111
21
66.658389
0
LINE
8
Layer 1
10
104.004111
20
66.658389
11
101.633911
21
53.144945
0
LINE
8
Layer 1
10
101.633911
20
53.144945
11
116.377005
21
50.559413
0
LINE
8
Layer 1
10
116.377005
20
50.559413
11
118.962891
21
65.302507
0
LINE
8
Layer 1
10
118.962891
20
65.302507
11
104.699287
21
67.803954
0
LINE
8
Layer 1
10
104.699287
20
67.803954
11
105.405576
21
71.777435
0
LINE
8
Layer 1
10
105.405576
20
71.777435
11
119.700141
21
69.270564
0
LINE
8
Layer 1
10
284.021527
20
62.754864
11
281.390487
21
77.497614
0
LINE
8
Layer 1
10
281.390487
20
77.497614
11
267.227412
21
75.013603
0
LINE
8
Layer 1
10
267.227412
20
75.013603
11
266.479621
21
79.049869
0
LINE
8
Layer 1
10
266.479621
20
79.049869
11
280.739031
21
81.551105
0
LINE
8
Layer 1
10
280.739031
20
81.551105
11
278.108017
21
96.293696
0
LINE
8
Layer 1
10
278.108017
20
96.293696
11
263.365082
21
93.707979
0
LINE
8
Layer 1
10
263.365082
20
93.707979
11
264.403147
21
87.891228
0
LINE
8
Layer 1
10
264.403147
20
87.891228
11
262.055793
21
87.456359
0
LINE
8
Layer 1
10
262.055793
20
87.456359
11
265.895898
21
66.728689
0
LINE
8
Layer 1
10
265.895898
20
66.728689
11
268.037142
21
67.125378
0
LINE
8
Layer 1
10
268.037142
20
67.125378
11
269.278592
21
60.168803
0
LINE
8
Layer 1
10
269.278592
20
60.168803
11
284.021527
21
62.754864
0
LINE
8
Layer 1
10
128.656000
20
19.784071
11
128.656000
21
19.768990
0
LINE
8
Layer 1
10
128.656000
20
19.768990
11
125.734734
21
19.768990
0
LINE
8
Layer 1
10
125.734734
20
19.768990
11
125.734734
21
9.280920
0
LINE
8
Layer 1
10
125.734734
20
9.280920
11
128.656000
21
9.280920
0
LINE
8
Layer 1
10
128.656000
20
9.280920
11
128.656000
21
5.783794
0
LINE
8
Layer 1
10
128.656000
20
5.783794
11
142.655817
21
5.783794
0
LINE
8
Layer 1
10
142.655817
20
5.783794
11
142.655817
21
19.783965
0
LINE
8
Layer 1
10
142.655817
20
19.783965
11
128.656000
21
19.783965
0
LINE
8
Layer 1
10
147.748352
20
38.834047
11
147.748352
21
38.818966
0
LINE
8
Layer 1
10
147.748352
20
38.818966
11
144.769422
21
38.818966
0
LINE
8
Layer 1
10
144.769422
20
38.818966
11
144.769422
21
28.330896
0
LINE
8
Layer 1
10
144.769422
20
28.330896
11
147.748352
21
28.330896
0
LINE
8
Layer 1
10
147.748352
20
28.330896
11
147.748352
21
24.833744
0
LINE
8
Layer 1
10
147.748352
20
24.833744
11
161.748340
21
24.833744
0
LINE
8
Layer 1
10
161.748340
20
24.833744
11
161.748340
21
38.833915
0
LINE
8
Layer 1
10
161.748340
20
38.833915
11
147.748352
21
38.833915
0
LINE
8
Layer 1
10
147.748352
20
19.784071
11
147.748352
21
19.768990
0
LINE
8
Layer 1
10
147.748352
20
19.768990
11
144.748258
21
19.768990
0
LINE
8
Layer 1
10
144.748258
20
19.768990
11
144.748258
21
9.280920
0
LINE
8
Layer 1
10
144.748258
20
9.280920
11
147.748352
21
9.280920
0
LINE
8
Layer 1
10
147.748352
20
9.280920
11
147.748352
21
5.783794
0
LINE
8
Layer 1
10
147.748352
20
5.783794
11
161.748340
21
5.783794
0
LINE
8
Layer 1
10
161.748340
20
5.783794
11
161.748340
21
19.783965
0
LINE
8
Layer 1
10
161.748340
20
19.783965
11
147.748352
21
19.783965
0
LINE
8
Layer 1
10
166.798153
20
19.784071
11
166.798153
21
19.768990
0
LINE
8
Layer 1
10
166.798153
20
19.768990
11
163.819398
21
19.768990
0
LINE
8
Layer 1
10
163.819398
20
19.768990
11
163.819398
21
9.280920
0
LINE
8
Layer 1
10
163.819398
20
9.280920
11
166.798153
21
9.280920
0
LINE
8
Layer 1
10
166.798153
20
9.280920
11
166.798153
21
5.783794
0
LINE
8
Layer 1
10
166.798153
20
5.783794
11
180.798316
21
5.783794
0
LINE
8
Layer 1
10
180.798316
20
5.783794
11
180.798316
21
19.783965
0
LINE
8
Layer 1
10
180.798316
20
19.783965
11
166.798153
21
19.783965
0
LINE
8
Layer 1
10
205.640652
20
111.880836
11
199.545472
21
110.566705
0
LINE
8
Layer 1
10
199.545472
20
110.566705
11
199.102463
21
110.560878
0
LINE
8
Layer 1
10
199.102463
20
110.560878
11
198.705393
21
110.719869
0
LINE
8
Layer 1
10
198.705393
20
110.719869
11
198.396914
21
111.016155
0
LINE
8
Layer 1
10
198.396914
20
111.016155
11
198.219676
21
111.422208
0
LINE
8
Layer 1
10
198.219676
20
111.422208
11
198.205494
21
111.488036
0
LINE
8
Layer 1
10
198.205494
20
111.488036
11
198.199673
21
111.931047
0
LINE
8
Layer 1
10
198.199673
20
111.931047
11
198.358664
21
112.328120
0
LINE
8
Layer 1
10
198.358664
20
112.328120
11
198.654945
21
112.636601
0
LINE
8
Layer 1
10
198.654945
20
112.636601
11
199.060997
21
112.813835
0
LINE
8
Layer 1
10
199.060997
20
112.813835
11
205.156177
21
114.127966
0
LINE
8
Layer 1
10
205.156177
20
114.127966
11
205.599186
21
114.133794
0
LINE
8
Layer 1
10
205.599186
20
114.133794
11
205.996256
21
113.974802
0
LINE
8
Layer 1
10
205.996256
20
113.974802
11
206.304735
21
113.678517
0
LINE
8
Layer 1
10
206.304735
20
113.678517
11
206.481973
21
113.272463
0
LINE
8
Layer 1
10
206.481973
20
113.272463
11
206.496181
21
113.206609
0
LINE
8
Layer 1
10
206.496181
20
113.206609
11
206.502002
21
112.763602
0
LINE
8
Layer 1
10
206.502002
20
112.763602
11
206.343011
21
112.366538
0
LINE
8
Layer 1
10
206.343011
20
112.366538
11
206.046730
21
112.058066
0
LINE
8
Layer 1
10
206.046730
20
112.058066
11
205.640678
21
111.880836
0
LINE
8
Layer 1
10
205.640678
20
111.880836
11
205.640652
21
111.880836
0
LINE
8
Layer 1
10
141.370970
20
55.190648
11
140.843614
21
55.075501
0
LINE
8
Layer 1
10
140.843614
20
55.075501
11
140.843614
21
57.826820
0
LINE
8
Layer 1
10
140.843614
20
57.826820
11
141.238065
21
57.718255
0
LINE
8
Layer 1
10
141.238065
20
57.718255
11
141.676460
21
57.748795
0
LINE
8
Layer 1
10
141.676460
20
57.748795
11
142.276867
21
58.112537
0
LINE
8
Layer 1
10
142.276867
20
58.112537
11
142.574762
21
58.747622
0
LINE
8
Layer 1
10
142.574762
20
58.747622
11
142.532941
21
59.298663
0
LINE
8
Layer 1
10
142.532941
20
59.298663
11
142.284769
21
59.756861
0
LINE
8
Layer 1
10
142.284769
20
59.756861
11
141.880645
21
60.070040
0
LINE
8
Layer 1
10
141.880645
20
60.070040
11
141.370970
21
60.186028
0
LINE
8
Layer 1
10
141.370970
20
60.186028
11
140.843614
21
60.070881
0
LINE
8
Layer 1
10
140.843614
20
60.070881
11
140.843614
21
62.204690
0
LINE
8
Layer 1
10
140.843614
20
62.204690
11
140.631253
21
62.717366
0
LINE
8
Layer 1
10
140.631253
20
62.717366
11
140.118572
21
62.929727
0
LINE
8
Layer 1
10
140.118572
20
62.929727
11
128.568667
21
62.929727
0
LINE
8
Layer 1
10
128.568667
20
62.929727
11
128.055986
21
62.717366
0
LINE
8
Layer 1
10
128.055986
20
62.717366
11
127.843627
21
62.204690
0
LINE
8
Layer 1
10
127.843627
20
62.204690
11
127.843627
21
60.143641
0
LINE
8
Layer 1
10
127.843627
20
60.143641
11
126.634655
21
60.143641
0
LINE
8
Layer 1
10
126.634655
20
60.143641
11
126.245410
21
60.065059
0
LINE
8
Layer 1
10
126.245410
20
60.065059
11
125.927548
21
59.850755
0
LINE
8
Layer 1
10
125.927548
20
59.850755
11
125.713240
21
59.532896
0
LINE
8
Layer 1
10
125.713240
20
59.532896
11
125.634655
21
59.143650
0
LINE
8
Layer 1
10
125.634655
20
59.143650
11
125.634655
21
53.716047
0
LINE
8
Layer 1
10
125.634655
20
53.716047
11
125.713240
21
53.326797
0
LINE
8
Layer 1
10
125.713240
20
53.326797
11
125.927548
21
53.008929
0
LINE
8
Layer 1
10
125.927548
20
53.008929
11
126.245410
21
52.794616
0
LINE
8
Layer 1
10
126.245410
20
52.794616
11
126.634655
21
52.716029
0
LINE
8
Layer 1
10
126.634655
20
52.716029
11
127.843627
21
52.716029
0
LINE
8
Layer 1
10
127.843627
20
52.716029
11
127.843627
21
50.654769
0
LINE
8
Layer 1
10
127.843627
20
50.654769
11
128.055986
21
50.142093
0
LINE
8
Layer 1
10
128.055986
20
50.142093
11
128.568667
21
49.929732
0
LINE
8
Layer 1
10
128.568667
20
49.929732
11
140.118572
21
49.929732
0
LINE
8
Layer 1
10
140.118572
20
49.929732
11
140.631253
21
50.142093
0
LINE
8
Layer 1
10
140.631253
20
50.142093
11
140.843614
21
50.654769
0
LINE
8
Layer 1
10
140.843614
20
50.654769
11
140.843614
21
52.831758
0
LINE
8
Layer 1
10
140.843614
20
52.831758
11
141.238631
21
52.723150
0
LINE
8
Layer 1
10
141.238631
20
52.723150
11
141.677696
21
52.754103
0
LINE
8
Layer 1
10
141.677696
20
52.754103
11
142.277634
21
53.118308
0
LINE
8
Layer 1
10
142.277634
20
53.118308
11
142.574923
21
53.753459
0
LINE
8
Layer 1
10
142.574923
20
53.753459
11
142.532704
21
54.304087
0
LINE
8
Layer 1
10
142.532704
20
54.304087
11
142.284424
21
54.761891
0
LINE
8
Layer 1
10
142.284424
20
54.761891
11
141.880405
21
55.074776
0
LINE
8
Layer 1
10
141.880405
20
55.074776
11
141.370970
21
55.190648
0
LINE
8
Layer 1
10
141.370970
20
55.190648
11
141.370970
21
55.190648
0
LINE
8
Layer 1
10
182.561170
20
55.190648
11
182.076229
21
55.096086
0
LINE
8
Layer 1
10
182.076229
20
55.096086
11
182.076229
21
57.805495
0
LINE
8
Layer 1
10
182.076229
20
57.805495
11
182.662029
21
57.714955
0
LINE
8
Layer 1
10
182.662029
20
57.714955
11
183.086097
21
57.831437
0
LINE
8
Layer 1
10
183.086097
20
57.831437
11
183.435691
21
58.087918
0
LINE
8
Layer 1
10
183.435691
20
58.087918
11
183.677030
21
58.448528
0
LINE
8
Layer 1
10
183.677030
20
58.448528
11
183.776333
21
58.877400
0
LINE
8
Layer 1
10
183.776333
20
58.877400
11
183.694414
21
59.384176
0
LINE
8
Layer 1
10
183.694414
20
59.384176
11
183.436329
21
59.800428
0
LINE
8
Layer 1
10
183.436329
20
59.800428
11
183.044456
21
60.082322
0
LINE
8
Layer 1
10
183.044456
20
60.082322
11
182.561170
21
60.186028
0
LINE
8
Layer 1
10
182.561170
20
60.186028
11
182.076229
21
60.091466
0
LINE
8
Layer 1
10
182.076229
20
60.091466
11
182.076229
21
62.183523
0
LINE
8
Layer 1
10
182.076229
20
62.183523
11
181.863876
21
62.696199
0
LINE
8
Layer 1
10
181.863876
20
62.696199
11
181.351210
21
62.908560
0
LINE
8
Layer 1
10
181.351210
20
62.908560
11
169.801284
21
62.908560
0
LINE
8
Layer 1
10
169.801284
20
62.908560
11
169.288601
21
62.696199
0
LINE
8
Layer 1
10
169.288601
20
62.696199
11
169.076242
21
62.183523
0
LINE
8
Layer 1
10
169.076242
20
62.183523
11
169.076242
21
60.101282
0
LINE
8
Layer 1
10
169.076242
20
60.101282
11
167.867055
21
60.101282
0
LINE
8
Layer 1
10
167.867055
20
60.101282
11
167.477809
21
60.022695
0
LINE
8
Layer 1
10
167.477809
20
60.022695
11
167.159946
21
59.808385
0
LINE
8
Layer 1
10
167.159946
20
59.808385
11
166.945636
21
59.490525
0
LINE
8
Layer 1
10
166.945636
20
59.490525
11
166.867051
21
59.101290
0
LINE
8
Layer 1
10
166.867051
20
59.101290
11
166.867051
21
53.737928
0
LINE
8
Layer 1
10
166.867051
20
53.737928
11
166.945636
21
53.348682
0
LINE
8
Layer 1
10
166.945636
20
53.348682
11
167.159946
21
53.030824
0
LINE
8
Layer 1
10
167.159946
20
53.030824
11
167.477809
21
52.816520
0
LINE
8
Layer 1
10
167.477809
20
52.816520
11
167.867055
21
52.737937
0
LINE
8
Layer 1
10
167.867055
20
52.737937
11
169.076242
21
52.737937
0
LINE
8
Layer 1
10
169.076242
20
52.737937
11
169.076242
21
50.633602
0
LINE
8
Layer 1
10
169.076242
20
50.633602
11
169.288601
21
50.120927
0
LINE
8
Layer 1
10
169.288601
20
50.120927
11
169.801284
21
49.908566
0
LINE
8
Layer 1
10
169.801284
20
49.908566
11
181.351189
21
49.908566
0
LINE
8
Layer 1
10
181.351189
20
49.908566
11
181.863869
21
50.120927
0
LINE
8
Layer 1
10
181.863869
20
50.120927
11
182.076229
21
50.633602
0
LINE
8
Layer 1
10
182.076229
20
50.633602
11
182.076229
21
52.810459
0
LINE
8
Layer 1
10
182.076229
20
52.810459
11
182.662251
21
52.719919
0
LINE
8
Layer 1
10
182.662251
20
52.719919
11
183.086386
21
52.836521
0
LINE
8
Layer 1
10
183.086386
20
52.836521
11
183.435998
21
53.093143
0
LINE
8
Layer 1
10
183.435998
20
53.093143
11
183.677265
21
53.453890
0
LINE
8
Layer 1
10
183.677265
20
53.453890
11
183.776365
21
53.882867
0
LINE
8
Layer 1
10
183.776365
20
53.882867
11
183.694203
21
54.389354
0
LINE
8
Layer 1
10
183.694203
20
54.389354
11
183.436066
21
54.805332
0
LINE
8
Layer 1
10
183.436066
20
54.805332
11
183.044279
21
55.087023
0
LINE
8
Layer 1
10
183.044279
20
55.087023
11
182.561170
21
55.190648
0
LINE
8
Layer 1
10
182.561170
20
55.190648
11
182.561170
21
55.190648
0
LINE
8
Layer 1
10
138.272592
20
110.468175
11
138.013300
21
109.208755
0
LINE
8
Layer 1
10
138.013300
20
109.208755
11
137.309507
21
108.171581
0
LINE
8
Layer 1
10
137.309507
20
108.171581
11
136.272337
21
107.467781
0
LINE
8
Layer 1
10
136.272337
20
107.467781
11
135.012914
21
107.208486
0
LINE
8
Layer 1
10
135.012914
20
107.208486
11
133.729028
21
107.467781
0
LINE
8
Layer 1
10
133.729028
20
107.467781
11
132.679296
21
108.171581
0
LINE
8
Layer 1
10
132.679296
20
108.171581
11
131.970874
21
109.208755
0
LINE
8
Layer 1
10
131.970874
20
109.208755
11
131.710920
21
110.468175
0
LINE
8
Layer 1
10
131.710920
20
110.468175
11
131.970874
21
111.752064
0
LINE
8
Layer 1
10
131.970874
20
111.752064
11
132.679296
21
112.801797
0
LINE
8
Layer 1
10
132.679296
20
112.801797
11
133.729028
21
113.510218
0
LINE
8
Layer 1
10
133.729028
20
113.510218
11
135.012914
21
113.770171
0
LINE
8
Layer 1
10
135.012914
20
113.770171
11
136.272337
21
113.510218
0
LINE
8
Layer 1
10
136.272337
20
113.510218
11
137.309507
21
112.801797
0
LINE
8
Layer 1
10
137.309507
20
112.801797
11
138.013300
21
111.752064
0
LINE
8
Layer 1
10
138.013300
20
111.752064
11
138.272592
21
110.468175
0
LINE
8
Layer 1
10
138.272592
20
110.468175
11
138.272592
21
110.468175
0
LINE
8
Layer 1
10
177.727209
20
110.468175
11
177.467917
21
109.208755
0
LINE
8
Layer 1
10
177.467917
20
109.208755
11
176.764124
21
108.171581
0
LINE
8
Layer 1
10
176.764124
20
108.171581
11
175.726954
21
107.467781
0
LINE
8
Layer 1
10
175.726954
20
107.467781
11
174.467531
21
107.208486
0
LINE
8
Layer 1
10
174.467531
20
107.208486
11
173.183645
21
107.467781
0
LINE
8
Layer 1
10
173.183645
20
107.467781
11
172.133913
21
108.171581
0
LINE
8
Layer 1
10
172.133913
20
108.171581
11
171.425491
21
109.208755
0
LINE
8
Layer 1
10
171.425491
20
109.208755
11
171.165537
21
110.468175
0
LINE
8
Layer 1
10
171.165537
20
110.468175
11
171.425491
21
111.752064
0
LINE
8
Layer 1
10
171.425491
20
111.752064
11
172.133913
21
112.801797
0
LINE
8
Layer 1
10
172.133913
20
112.801797
11
173.183645
21
113.510218
0
LINE
8
Layer 1
10
173.183645
20
113.510218
11
174.467531
21
113.770171
0
LINE
8
Layer 1
10
174.467531
20
113.770171
11
175.726954
21
113.510218
0
LINE
8
Layer 1
10
175.726954
20
113.510218
11
176.764124
21
112.801797
0
LINE
8
Layer 1
10
176.764124
20
112.801797
11
177.467917
21
111.752064
0
LINE
8
Layer 1
10
177.467917
20
111.752064
11
177.727209
21
110.468175
0
LINE
8
Layer 1
10
177.727209
20
110.468175
11
177.727209
21
110.468175
0
LINE
8
Layer 1
10
309.545928
20
65.785398
11
299.597687
21
121.241968
0
LINE
8
Layer 1
10
299.597687
20
121.241968
11
299.229893
21
122.238800
0
LINE
8
Layer 1
10
299.229893
20
122.238800
11
298.560495
21
123.025281
0
LINE
8
Layer 1
10
298.560495
20
123.025281
11
297.668847
21
123.533944
0
LINE
8
Layer 1
10
297.668847
20
123.533944
11
296.634304
21
123.697325
0
LINE
8
Layer 1
10
296.634304
20
123.697325
11
236.690420
21
123.570298
0
LINE
8
Layer 1
10
236.690420
20
123.570298
11
236.436388
21
123.527965
0
LINE
8
Layer 1
10
236.436388
20
123.527965
11
218.571781
21
120.310636
0
LINE
8
Layer 1
10
218.571781
20
120.310636
11
218.148417
21
120.125438
0
LINE
8
Layer 1
10
218.148417
20
120.125438
11
217.852081
21
119.717970
0
LINE
8
Layer 1
10
217.852081
20
119.717970
11
217.047780
21
117.812999
0
LINE
8
Layer 1
10
217.047780
20
117.812999
11
184.027809
21
110.997341
0
LINE
8
Layer 1
10
184.027809
20
110.997341
11
183.133512
21
111.002622
0
LINE
8
Layer 1
10
183.133512
20
111.002622
11
182.334459
21
111.420674
0
LINE
8
Layer 1
10
182.334459
20
111.420674
11
175.772811
21
117.050973
0
LINE
8
Layer 1
10
175.772811
20
117.050973
11
174.894396
21
117.643639
0
LINE
8
Layer 1
10
174.894396
20
117.643639
11
173.952467
21
117.855306
0
LINE
8
Layer 1
10
173.952467
20
117.855306
11
172.936489
21
117.855306
0
LINE
8
Layer 1
10
172.936489
20
117.855306
11
165.432950
21
117.820195
0
LINE
8
Layer 1
10
165.432950
20
117.820195
11
165.432950
21
117.820275
0
LINE
8
Layer 1
10
165.432950
20
117.820275
11
162.094635
21
117.820275
0
LINE
8
Layer 1
10
162.094635
20
117.820275
11
161.447827
21
117.689689
0
LINE
8
Layer 1
10
161.447827
20
117.689689
11
160.919638
21
117.333571
0
LINE
8
Layer 1
10
160.919638
20
117.333571
11
160.563524
21
116.805384
0
LINE
8
Layer 1
10
160.563524
20
116.805384
11
160.432940
21
116.158588
0
LINE
8
Layer 1
10
160.432940
20
116.158588
11
160.432940
21
116.158561
0
LINE
8
Layer 1
10
160.432940
20
116.158561
11
160.563524
21
115.511765
0
LINE
8
Layer 1
10
160.563524
20
115.511765
11
160.919638
21
114.983578
0
LINE
8
Layer 1
10
160.919638
20
114.983578
11
161.447827
21
114.627460
0
LINE
8
Layer 1
10
161.447827
20
114.627460
11
162.094635
21
114.496874
0
LINE
8
Layer 1
10
162.094635
20
114.496874
11
165.274176
21
114.496874
0
LINE
8
Layer 1
10
165.274176
20
114.496874
11
165.274176
21
84.055462
0
LINE
8
Layer 1
10
165.274176
20
84.055462
11
165.101481
21
83.200079
0
LINE
8
Layer 1
10
165.101481
20
83.200079
11
164.630526
21
82.501563
0
LINE
8
Layer 1
10
164.630526
20
82.501563
11
163.932006
21
82.030610
0
LINE
8
Layer 1
10
163.932006
20
82.030610
11
163.076616
21
81.857915
0
LINE
8
Layer 1
10
163.076616
20
81.857915
11
161.748340
21
81.857915
0
LINE
8
Layer 1
10
161.748340
20
81.857915
11
161.748340
21
77.893166
0
LINE
8
Layer 1
10
161.748340
20
77.893166
11
161.481053
21
76.569246
0
LINE
8
Layer 1
10
161.481053
20
76.569246
11
160.752136
21
75.488123
0
LINE
8
Layer 1
10
160.752136
20
75.488123
11
159.671008
21
74.759210
0
LINE
8
Layer 1
10
159.671008
20
74.759210
11
158.347086
21
74.491925
0
LINE
8
Layer 1
10
158.347086
20
74.491925
11
153.013096
21
74.491925
0
LINE
8
Layer 1
10
153.013096
20
74.491925
11
151.689175
21
74.759210
0
LINE
8
Layer 1
10
151.689175
20
74.759210
11
150.608047
21
75.488123
0
LINE
8
Layer 1
10
150.608047
20
75.488123
11
149.879131
21
76.569246
0
LINE
8
Layer 1
10
149.879131
20
76.569246
11
149.611844
21
77.893166
0
LINE
8
Layer 1
10
149.611844
20
77.893166
11
149.611844
21
81.857915
0
LINE
8
Layer 1
10
149.611844
20
81.857915
11
147.786764
21
81.857915
0
LINE
8
Layer 1
10
147.786764
20
81.857915
11
146.931374
21
82.030610
0
LINE
8
Layer 1
10
146.931374
20
82.030610
11
146.232854
21
82.501563
0
LINE
8
Layer 1
10
146.232854
20
82.501563
11
145.761899
21
83.200079
0
LINE
8
Layer 1
10
145.761899
20
83.200079
11
145.589204
21
84.055462
0
LINE
8
Layer 1
10
145.589204
20
84.055462
11
145.589204
21
114.496874
0
LINE
8
Layer 1
10
145.589204
20
114.496874
11
148.825416
21
114.496874
0
LINE
8
Layer 1
10
148.825416
20
114.496874
11
149.474234
21
114.627865
0
LINE
8
Layer 1
10
149.474234
20
114.627865
11
150.004066
21
114.985089
0
LINE
8
Layer 1
10
150.004066
20
114.985089
11
150.361288
21
115.514924
0
LINE
8
Layer 1
10
150.361288
20
115.514924
11
150.492279
21
116.163747
0
LINE
8
Layer 1
10
150.492279
20
116.163747
11
150.492279
21
116.163747
0
LINE
8
Layer 1
10
150.492279
20
116.163747
11
150.361288
21
116.812566
0
LINE
8
Layer 1
10
150.361288
20
116.812566
11
150.004066
21
117.342392
0
LINE
8
Layer 1
10
150.004066
20
117.342392
11
149.474234
21
117.699607
0
LINE
8
Layer 1
10
149.474234
20
117.699607
11
148.825416
21
117.830594
0
LINE
8
Layer 1
10
148.825416
20
117.830594
11
145.589204
21
117.830594
0
LINE
8
Layer 1
10
145.589204
20
117.830594
11
145.589204
21
117.834562
0
LINE
8
Layer 1
10
145.589204
20
117.834562
11
136.741543
21
117.855200
0
LINE
8
Layer 1
10
136.741543
20
117.855200
11
135.725520
21
117.855200
0
LINE
8
Layer 1
10
135.725520
20
117.855200
11
134.783611
21
117.643533
0
LINE
8
Layer 1
10
134.783611
20
117.643533
11
133.905200
21
117.050867
0
LINE
8
Layer 1
10
133.905200
20
117.050867
11
127.343549
21
111.420568
0
LINE
8
Layer 1
10
127.343549
20
111.420568
11
126.455535
21
111.036023
0
LINE
8
Layer 1
10
126.455535
20
111.036023
11
125.650200
21
110.997235
0
LINE
8
Layer 1
10
125.650200
20
110.997235
11
92.630252
21
117.812893
0
LINE
8
Layer 1
10
92.630252
20
117.812893
11
91.825930
21
119.760197
0
LINE
8
Layer 1
10
91.825930
20
119.760197
11
91.529588
21
120.130623
0
LINE
8
Layer 1
10
91.529588
20
120.130623
11
91.106251
21
120.310530
0
LINE
8
Layer 1
10
91.106251
20
120.310530
11
73.241623
21
123.570193
0
LINE
8
Layer 1
10
73.241623
20
123.570193
11
72.987613
21
123.570193
0
LINE
8
Layer 1
10
72.987613
20
123.570193
11
13.043693
21
123.739552
0
LINE
8
Layer 1
10
13.043693
20
123.739552
11
12.015125
21
123.551698
0
LINE
8
Layer 1
10
12.015125
20
123.551698
11
11.133401
21
123.030466
0
LINE
8
Layer 1
10
11.133401
20
123.030466
11
10.465990
21
122.239355
0
LINE
8
Layer 1
10
10.465990
20
122.239355
11
10.080355
21
121.241862
0
LINE
8
Layer 1
10
10.080355
20
121.241862
11
0.174383
21
65.827625
0
LINE
8
Layer 1
10
0.174383
20
65.827625
11
0.194222
21
64.623772
0
LINE
8
Layer 1
10
0.194222
20
64.623772
11
0.650624
21
63.562795
0
LINE
8
Layer 1
10
0.650624
20
63.562795
11
1.472153
21
62.755816
0
LINE
8
Layer 1
10
1.472153
20
62.755816
11
2.587368
21
62.313963
0
LINE
8
Layer 1
10
2.587368
20
62.313963
11
41.491663
21
55.074946
0
LINE
8
Layer 1
10
41.491663
20
55.074946
11
42.253651
21
55.117305
0
LINE
8
Layer 1
10
42.253651
20
55.117305
11
50.720307
21
56.852970
0
LINE
8
Layer 1
10
50.720307
20
56.852970
11
51.482320
21
56.895303
0
LINE
8
Layer 1
10
51.482320
20
56.895303
11
61.430646
21
53.847307
0
LINE
8
Layer 1
10
61.430646
20
53.847307
11
62.007422
21
53.503349
0
LINE
8
Layer 1
10
62.007422
20
53.503349
11
62.234965
21
52.873641
0
LINE
8
Layer 1
10
62.234965
20
52.873641
11
58.848313
21
35.728663
0
LINE
8
Layer 1
10
58.848313
20
35.728663
11
58.985884
21
35.008997
0
LINE
8
Layer 1
10
58.985884
20
35.008997
11
59.567971
21
34.543331
0
LINE
8
Layer 1
10
59.567971
20
34.543331
11
94.789246
21
23.621318
0
LINE
8
Layer 1
10
94.789246
20
23.621318
11
95.244341
21
23.335579
0
LINE
8
Layer 1
10
95.244341
20
23.335579
11
95.508925
21
22.859319
0
LINE
8
Layer 1
10
95.508925
20
22.859319
11
99.022574
21
14.688996
0
LINE
8
Layer 1
10
99.022574
20
14.688996
11
99.191912
21
14.345048
0
LINE
8
Layer 1
10
99.191912
20
14.345048
11
99.488243
21
14.096330
0
LINE
8
Layer 1
10
99.488243
20
14.096330
11
123.025557
21
1.015373
0
LINE
8
Layer 1
10
123.025557
20
1.015373
11
124.295551
21
0.422694
0
LINE
8
Layer 1
10
124.295551
20
0.422694
11
125.692554
21
0.211015
0
LINE
8
Layer 1
10
125.692554
20
0.211015
11
127.258864
21
0.211015
0
LINE
8
Layer 1
10
127.258864
20
0.211015
11
154.817827
21
0.126348
0
LINE
8
Layer 1
10
154.817827
20
0.126348
11
182.419123
21
0.211015
0
LINE
8
Layer 1
10
182.419123
20
0.211015
11
183.985478
21
0.211015
0
LINE
8
Layer 1
10
183.985478
20
0.211015
11
185.387757
21
0.406819
0
LINE
8
Layer 1
10
185.387757
20
0.406819
11
186.694805
21
1.015373
0
LINE
8
Layer 1
10
186.694805
20
1.015373
11
210.232098
21
14.096330
0
LINE
8
Layer 1
10
210.232098
20
14.096330
11
210.655434
21
14.688996
0
LINE
8
Layer 1
10
210.655434
20
14.688996
11
214.169083
21
22.859319
0
LINE
8
Layer 1
10
214.169083
20
22.859319
11
214.433677
21
23.314415
0
LINE
8
Layer 1
10
214.433677
20
23.314415
11
214.888762
21
23.579012
0
LINE
8
Layer 1
10
214.888762
20
23.579012
11
250.110061
21
34.543331
0
LINE
8
Layer 1
10
250.110061
20
34.543331
11
250.692147
21
34.971956
0
LINE
8
Layer 1
10
250.692147
20
34.971956
11
250.829719
21
35.686330
0
LINE
8
Layer 1
10
250.829719
20
35.686330
11
247.443065
21
52.873641
0
LINE
8
Layer 1
10
247.443065
20
52.873641
11
247.670600
21
53.503349
0
LINE
8
Layer 1
10
247.670600
20
53.503349
11
248.247386
21
53.847307
0
LINE
8
Layer 1
10
248.247386
20
53.847307
11
258.195686
21
56.852970
0
LINE
8
Layer 1
10
258.195686
20
56.852970
11
258.957712
21
56.852970
0
LINE
8
Layer 1
10
258.957712
20
56.852970
11
267.424368
21
55.074946
0
LINE
8
Layer 1
10
267.424368
20
55.074946
11
268.186340
21
55.074946
0
LINE
8
Layer 1
10
268.186340
20
55.074946
11
307.090625
21
62.313963
0
LINE
8
Layer 1
10
307.090625
20
62.313963
11
308.206488
21
62.755155
0
LINE
8
Layer 1
10
308.206488
20
62.755155
11
309.032641
21
63.557503
0
LINE
8
Layer 1
10
309.032641
20
63.557503
11
309.501611
21
64.605913
0
LINE
8
Layer 1
10
309.501611
20
64.605913
11
309.545928
21
65.785292
0
LINE
8
Layer 1
10
309.545928
20
65.785292
11
309.545928
21
65.785398
0
LINE
8
Layer 1
10
218.509834
20
7.527978
11
218.279981
21
7.623317
0
LINE
8
Layer 1
10
218.279981
20
7.623317
11
218.184617
21
7.853018
0
LINE
8
Layer 1
10
218.184617
20
7.853018
11
218.184617
21
19.403045
0
LINE
8
Layer 1
10
218.184617
20
19.403045
11
218.279981
21
19.632746
0
LINE
8
Layer 1
10
218.279981
20
19.632746
11
218.509834
21
19.728085
0
LINE
8
Layer 1
10
218.509834
20
19.728085
11
230.059673
21
19.728085
0
LINE
8
Layer 1
10
230.059673
20
19.728085
11
230.289376
21
19.632746
0
LINE
8
Layer 1
10
230.289376
20
19.632746
11
230.384719
21
19.403045
0
LINE
8
Layer 1
10
230.384719
20
19.403045
11
230.384719
21
7.853018
0
LINE
8
Layer 1
10
230.384719
20
7.853018
11
230.289376
21
7.623317
0
LINE
8
Layer 1
10
230.289376
20
7.623317
11
230.059673
21
7.527978
0
LINE
8
Layer 1
10
230.059673
20
7.527978
11
218.509834
21
7.527978
0
LINE
8
Layer 1
10
234.641274
20
13.628045
11
234.430865
21
11.540823
0
LINE
8
Layer 1
10
234.430865
20
11.540823
11
233.827401
21
9.596778
0
LINE
8
Layer 1
10
233.827401
20
9.596778
11
232.872529
21
7.837556
0
LINE
8
Layer 1
10
232.872529
20
7.837556
11
231.607895
21
6.304804
0
LINE
8
Layer 1
10
231.607895
20
6.304804
11
230.075146
21
5.040168
0
LINE
8
Layer 1
10
230.075146
20
5.040168
11
228.315927
21
4.085294
0
LINE
8
Layer 1
10
228.315927
20
4.085294
11
226.371886
21
3.481829
0
LINE
8
Layer 1
10
226.371886
20
3.481829
11
224.284668
21
3.271420
0
LINE
8
Layer 1
10
224.284668
20
3.271420
11
222.197451
21
3.481829
0
LINE
8
Layer 1
10
222.197451
20
3.481829
11
220.253409
21
4.085294
0
LINE
8
Layer 1
10
220.253409
20
4.085294
11
218.494191
21
5.040168
0
LINE
8
Layer 1
10
218.494191
20
5.040168
11
216.961441
21
6.304804
0
LINE
8
Layer 1
10
216.961441
20
6.304804
11
215.696807
21
7.837556
0
LINE
8
Layer 1
10
215.696807
20
7.837556
11
214.741935
21
9.596778
0
LINE
8
Layer 1
10
214.741935
20
9.596778
11
214.138470
21
11.540823
0
LINE
8
Layer 1
10
214.138470
20
11.540823
11
213.928061
21
13.628045
0
LINE
8
Layer 1
10
213.928061
20
13.628045
11
214.138470
21
15.715258
0
LINE
8
Layer 1
10
214.138470
20
15.715258
11
214.741935
21
17.659297
0
LINE
8
Layer 1
10
214.741935
20
17.659297
11
215.696807
21
19.418514
0
LINE
8
Layer 1
10
215.696807
20
19.418514
11
216.961441
21
20.951263
0
LINE
8
Layer 1
10
216.961441
20
20.951263
11
218.494191
21
22.215897
0
LINE
8
Layer 1
10
218.494191
20
22.215897
11
220.253409
21
23.170770
0
LINE
8
Layer 1
10
220.253409
20
23.170770
11
222.197451
21
23.774234
0
LINE
8
Layer 1
10
222.197451
20
23.774234
11
224.284668
21
23.984644
0
LINE
8
Layer 1
10
224.284668
20
23.984644
11
226.371886
21
23.774234
0
LINE
8
Layer 1
10
226.371886
20
23.774234
11
228.315927
21
23.170770
0
LINE
8
Layer 1
10
228.315927
20
23.170770
11
230.075146
21
22.215897
0
LINE
8
Layer 1
10
230.075146
20
22.215897
11
231.607895
21
20.951263
0
LINE
8
Layer 1
10
231.607895
20
20.951263
11
232.872529
21
19.418514
0
LINE
8
Layer 1
10
232.872529
20
19.418514
11
233.827401
21
17.659297
0
LINE
8
Layer 1
10
233.827401
20
17.659297
11
234.430865
21
15.715258
0
LINE
8
Layer 1
10
234.430865
20
15.715258
11
234.641274
21
13.628045
0
LINE
8
Layer 1
10
234.641274
20
13.628045
11
234.641274
21
13.628045
0
LINE
8
Layer 1
10
241.827566
20
7.527978
11
241.597715
21
7.623317
0
LINE
8
Layer 1
10
241.597715
20
7.623317
11
241.502351
21
7.853018
0
LINE
8
Layer 1
10
241.502351
20
7.853018
11
241.502351
21
19.403045
0
LINE
8
Layer 1
10
241.502351
20
19.403045
11
241.597715
21
19.632746
0
LINE
8
Layer 1
10
241.597715
20
19.632746
11
241.827566
21
19.728085
0
LINE
8
Layer 1
10
241.827566
20
19.728085
11
253.377407
21
19.728085
0
LINE
8
Layer 1
10
253.377407
20
19.728085
11
253.607108
21
19.632746
0
LINE
8
Layer 1
10
253.607108
20
19.632746
11
253.702450
21
19.403045
0
LINE
8
Layer 1
10
253.702450
20
19.403045
11
253.702450
21
7.853018
0
LINE
8
Layer 1
10
253.702450
20
7.853018
11
253.607108
21
7.623317
0
LINE
8
Layer 1
10
253.607108
20
7.623317
11
253.377407
21
7.527978
0
LINE
8
Layer 1
10
253.377407
20
7.527978
11
241.827566
21
7.527978
0
LINE
8
Layer 1
10
257.959017
20
13.628045
11
257.748607
21
11.540823
0
LINE
8
Layer 1
10
257.748607
20
11.540823
11
257.145142
21
9.596778
0
LINE
8
Layer 1
10
257.145142
20
9.596778
11
256.190268
21
7.837556
0
LINE
8
Layer 1
10
256.190268
20
7.837556
11
254.925632
21
6.304804
0
LINE
8
Layer 1
10
254.925632
20
6.304804
11
253.392881
21
5.040168
0
LINE
8
Layer 1
10
253.392881
20
5.040168
11
251.633660
21
4.085294
0
LINE
8
Layer 1
10
251.633660
20
4.085294
11
249.689618
21
3.481829
0
LINE
8
Layer 1
10
249.689618
20
3.481829
11
247.602399
21
3.271420
0
LINE
8
Layer 1
10
247.602399
20
3.271420
11
245.515182
21
3.481829
0
LINE
8
Layer 1
10
245.515182
20
3.481829
11
243.571141
21
4.085294
0
LINE
8
Layer 1
10
243.571141
20
4.085294
11
241.811922
21
5.040168
0
LINE
8
Layer 1
10
241.811922
20
5.040168
11
240.279173
21
6.304804
0
LINE
8
Layer 1
10
240.279173
20
6.304804
11
239.014539
21
7.837556
0
LINE
8
Layer 1
10
239.014539
20
7.837556
11
238.059666
21
9.596778
0
LINE
8
Layer 1
10
238.059666
20
9.596778
11
237.456202
21
11.540823
0
LINE
8
Layer 1
10
237.456202
20
11.540823
11
237.245793
21
13.628045
0
LINE
8
Layer 1
10
237.245793
20
13.628045
11
237.456202
21
15.715258
0
LINE
8
Layer 1
10
237.456202
20
15.715258
11
238.059666
21
17.659297
0
LINE
8
Layer 1
10
238.059666
20
17.659297
11
239.014539
21
19.418514
0
LINE
8
Layer 1
10
239.014539
20
19.418514
11
240.279173
21
20.951263
0
LINE
8
Layer 1
10
240.279173
20
20.951263
11
241.811922
21
22.215897
0
LINE
8
Layer 1
10
241.811922
20
22.215897
11
243.571141
21
23.170770
0
LINE
8
Layer 1
10
243.571141
20
23.170770
11
245.515182
21
23.774234
0
LINE
8
Layer 1
10
245.515182
20
23.774234
11
247.602399
21
23.984644
0
LINE
8
Layer 1
10
247.602399
20
23.984644
11
249.689618
21
23.774234
0
LINE
8
Layer 1
10
249.689618
20
23.774234
11
251.633660
21
23.170770
0
LINE
8
Layer 1
10
251.633660
20
23.170770
11
253.392881
21
22.215897
0
LINE
8
Layer 1
10
253.392881
20
22.215897
11
254.925632
21
20.951263
0
LINE
8
Layer 1
10
254.925632
20
20.951263
11
256.190268
21
19.418514
0
LINE
8
Layer 1
10
256.190268
20
19.418514
11
257.145142
21
17.659297
0
LINE
8
Layer 1
10
257.145142
20
17.659297
11
257.748607
21
15.715258
0
LINE
8
Layer 1
10
257.748607
20
15.715258
11
257.959017
21
13.628045
0
LINE
8
Layer 1
10
257.959017
20
13.628045
11
257.959017
21
13.628045
0
LINE
8
Layer 1
10
308.368349
20
44.378410
11
300.790295
21
50.848338
0
LINE
8
Layer 1
10
300.790295
20
50.848338
11
300.204954
21
51.187927
0
LINE
8
Layer 1
10
300.204954
20
51.187927
11
299.539188
21
51.313025
0
LINE
8
Layer 1
10
299.539188
20
51.313025
11
290.797974
21
51.313025
0
LINE
8
Layer 1
10
290.797974
20
51.313025
11
290.797974
21
17.761361
0
LINE
8
Layer 1
10
290.797974
20
17.761361
11
290.608904
21
16.824847
0
LINE
8
Layer 1
10
290.608904
20
16.824847
11
290.093293
21
16.060085
0
LINE
8
Layer 1
10
290.093293
20
16.060085
11
289.328540
21
15.544472
0
LINE
8
Layer 1
10
289.328540
20
15.544472
11
288.392041
21
15.355402
0
LINE
8
Layer 1
10
288.392041
20
15.355402
11
273.575393
21
15.355402
0
LINE
8
Layer 1
10
273.575393
20
15.355402
11
272.638895
21
15.544472
0
LINE
8
Layer 1
10
272.638895
20
15.544472
11
271.874141
21
16.060085
0
LINE
8
Layer 1
10
271.874141
20
16.060085
11
271.358530
21
16.824847
0
LINE
8
Layer 1
10
271.358530
20
16.824847
11
271.169461
21
17.761361
0
LINE
8
Layer 1
10
271.169461
20
17.761361
11
271.169461
21
51.313025
0
LINE
8
Layer 1
10
271.169461
20
51.313025
11
261.255827
21
51.313025
0
LINE
8
Layer 1
10
261.255827
20
51.313025
11
260.590083
21
51.187917
0
LINE
8
Layer 1
10
260.590083
20
51.187917
11
260.004746
21
50.848338
0
LINE
8
Layer 1
10
260.004746
20
50.848338
11
252.426710
21
44.378410
0
LINE
8
Layer 1
10
252.426710
20
44.378410
11
252.096063
21
43.877975
0
LINE
8
Layer 1
10
252.096063
20
43.877975
11
252.140746
21
43.270284
0
LINE
8
Layer 1
10
252.140746
20
43.270284
11
265.116331
21
12.028773
0
LINE
8
Layer 1
10
265.116331
20
12.028773
11
265.491678
21
11.559628
0
LINE
8
Layer 1
10
265.491678
20
11.559628
11
266.081477
21
11.385360
0
LINE
8
Layer 1
10
266.081477
20
11.385360
11
275.053565
21
11.385360
0
LINE
8
Layer 1
10
275.053565
20
11.385360
11
275.125056
21
11.313870
0
LINE
8
Layer 1
10
275.125056
20
11.313870
11
276.315905
21
10.353707
0
LINE
8
Layer 1
10
276.315905
20
10.353707
11
277.634513
21
9.671268
0
LINE
8
Layer 1
10
277.634513
20
9.671268
11
279.037735
21
9.266133
0
LINE
8
Layer 1
10
279.037735
20
9.266133
11
280.482425
21
9.137883
0
LINE
8
Layer 1
10
280.482425
20
9.137883
11
281.925438
21
9.286100
0
LINE
8
Layer 1
10
281.925438
20
9.286100
11
283.323630
21
9.710364
0
LINE
8
Layer 1
10
283.323630
20
9.710364
11
284.633854
21
10.410257
0
LINE
8
Layer 1
10
284.633854
20
10.410257
11
285.812965
21
11.385360
0
LINE
8
Layer 1
10
285.812965
20
11.385360
11
294.677819
21
11.385360
0
LINE
8
Layer 1
10
294.677819
20
11.385360
11
295.285507
21
11.559618
0
LINE
8
Layer 1
10
295.285507
20
11.559618
11
295.678683
21
12.028773
0
LINE
8
Layer 1
10
295.678683
20
12.028773
11
308.654284
21
43.270284
0
LINE
8
Layer 1
10
308.654284
20
43.270284
11
308.685574
21
43.864570
0
LINE
8
Layer 1
10
308.685574
20
43.864570
11
308.368349
21
44.378410
0
LINE
8
Layer 1
10
308.368349
20
44.378410
11
308.368349
21
44.378410
0
LINE
8
Layer 1
10
298.912258
20
32.093769
11
298.652967
21
30.834338
0
LINE
8
Layer 1
10
298.652967
20
30.834338
11
297.949176
21
29.797165
0
LINE
8
Layer 1
10
297.949176
20
29.797165
11
296.912011
21
29.093372
0
LINE
8
Layer 1
10
296.912011
20
29.093372
11
295.652596
21
28.834080
0
LINE
8
Layer 1
10
295.652596
20
28.834080
11
294.368707
21
29.093372
0
LINE
8
Layer 1
10
294.368707
20
29.093372
11
293.318974
21
29.797165
0
LINE
8
Layer 1
10
293.318974
20
29.797165
11
292.610553
21
30.834338
0
LINE
8
Layer 1
10
292.610553
20
30.834338
11
292.350600
21
32.093769
0
LINE
8
Layer 1
10
292.350600
20
32.093769
11
292.610553
21
33.377643
0
LINE
8
Layer 1
10
292.610553
20
33.377643
11
293.318974
21
34.427368
0
LINE
8
Layer 1
10
293.318974
20
34.427368
11
294.368707
21
35.135786
0
LINE
8
Layer 1
10
294.368707
20
35.135786
11
295.652596
21
35.395738
0
LINE
8
Layer 1
10
295.652596
20
35.395738
11
296.912011
21
35.135786
0
LINE
8
Layer 1
10
296.912011
20
35.135786
11
297.949176
21
34.427368
0
LINE
8
Layer 1
10
297.949176
20
34.427368
11
298.652967
21
33.377643
0
LINE
8
Layer 1
10
298.652967
20
33.377643
11
298.912258
21
32.093769
0
LINE
8
Layer 1
10
298.912258
20
32.093769
11
298.912258
21
32.093769
0
LINE
8
Layer 1
10
269.956295
20
32.093769
11
269.697003
21
30.834338
0
LINE
8
Layer 1
10
269.697003
20
30.834338
11
268.993209
21
29.797165
0
LINE
8
Layer 1
10
268.993209
20
29.797165
11
267.956036
21
29.093372
0
LINE
8
Layer 1
10
267.956036
20
29.093372
11
266.696606
21
28.834080
0
LINE
8
Layer 1
10
266.696606
20
28.834080
11
265.412732
21
29.093372
0
LINE
8
Layer 1
10
265.412732
20
29.093372
11
264.363007
21
29.797165
0
LINE
8
Layer 1
10
264.363007
20
29.797165
11
263.654589
21
30.834338
0
LINE
8
Layer 1
10
263.654589
20
30.834338
11
263.394636
21
32.093769
0
LINE
8
Layer 1
10
263.394636
20
32.093769
11
263.654589
21
33.377643
0
LINE
8
Layer 1
10
263.654589
20
33.377643
11
264.363007
21
34.427368
0
LINE
8
Layer 1
10
264.363007
20
34.427368
11
265.412732
21
35.135786
0
LINE
8
Layer 1
10
265.412732
20
35.135786
11
266.696606
21
35.395738
0
LINE
8
Layer 1
10
266.696606
20
35.395738
11
267.956036
21
35.135786
0
LINE
8
Layer 1
10
267.956036
20
35.135786
11
268.993209
21
34.427368
0
LINE
8
Layer 1
10
268.993209
20
34.427368
11
269.697003
21
33.377643
0
LINE
8
Layer 1
10
269.697003
20
33.377643
11
269.956295
21
32.093769
0
LINE
8
Layer 1
10
269.956295
20
32.093769
11
269.956295
21
32.093769
0
LINE
8
Layer 1
10
263.060230
20
43.930921
11
262.862455
21
42.970315
0
LINE
8
Layer 1
10
262.862455
20
42.970315
11
262.325638
21
42.179223
0
LINE
8
Layer 1
10
262.325638
20
42.179223
11
261.534539
21
41.642409
0
LINE
8
Layer 1
10
261.534539
20
41.642409
11
260.573917
21
41.444635
0
LINE
8
Layer 1
10
260.573917
20
41.444635
11
259.594638
21
41.642409
0
LINE
8
Layer 1
10
259.594638
20
41.642409
11
258.793964
21
42.179223
0
LINE
8
Layer 1
10
258.793964
20
42.179223
11
258.253626
21
42.970315
0
LINE
8
Layer 1
10
258.253626
20
42.970315
11
258.055351
21
43.930921
0
LINE
8
Layer 1
10
258.055351
20
43.930921
11
258.253626
21
44.910205
0
LINE
8
Layer 1
10
258.253626
20
44.910205
11
258.793964
21
45.710887
0
LINE
8
Layer 1
10
258.793964
20
45.710887
11
259.594638
21
46.251234
0
LINE
8
Layer 1
10
259.594638
20
46.251234
11
260.573917
21
46.449513
0
LINE
8
Layer 1
10
260.573917
20
46.449513
11
261.534539
21
46.251234
0
LINE
8
Layer 1
10
261.534539
20
46.251234
11
262.325638
21
45.710887
0
LINE
8
Layer 1
10
262.325638
20
45.710887
11
262.862455
21
44.910205
0
LINE
8
Layer 1
10
262.862455
20
44.910205
11
263.060230
21
43.930921
0
LINE
8
Layer 1
10
263.060230
20
43.930921
11
263.060230
21
43.930921
0
LINE
8
Layer 1
10
302.514847
20
43.930921
11
302.317072
21
42.970315
0
LINE
8
Layer 1
10
302.317072
20
42.970315
11
301.780255
21
42.179223
0
LINE
8
Layer 1
10
301.780255
20
42.179223
11
300.989156
21
41.642409
0
LINE
8
Layer 1
10
300.989156
20
41.642409
11
300.028534
21
41.444635
0
LINE
8
Layer 1
10
300.028534
20
41.444635
11
299.049255
21
41.642409
0
LINE
8
Layer 1
10
299.049255
20
41.642409
11
298.248581
21
42.179223
0
LINE
8
Layer 1
10
298.248581
20
42.179223
11
297.708243
21
42.970315
0
LINE
8
Layer 1
10
297.708243
20
42.970315
11
297.509968
21
43.930921
0
LINE
8
Layer 1
10
297.509968
20
43.930921
11
297.708243
21
44.910205
0
LINE
8
Layer 1
10
297.708243
20
44.910205
11
298.248581
21
45.710887
0
LINE
8
Layer 1
10
298.248581
20
45.710887
11
299.049255
21
46.251234
0
LINE
8
Layer 1
10
299.049255
20
46.251234
11
300.028534
21
46.449513
0
LINE
8
Layer 1
10
300.028534
20
46.449513
11
300.989156
21
46.251234
0
LINE
8
Layer 1
10
300.989156
20
46.251234
11
301.780255
21
45.710887
0
LINE
8
Layer 1
10
301.780255
20
45.710887
11
302.317072
21
44.910205
0
LINE
8
Layer 1
10
302.317072
20
44.910205
11
302.514847
21
43.930921
0
LINE
8
Layer 1
10
302.514847
20
43.930921
11
302.514847
21
43.930921
0
LINE
8
Layer 1
10
282.761450
20
12.627101
11
282.583581
21
11.763150
0
LINE
8
Layer 1
10
282.583581
20
11.763150
11
282.100793
21
11.051665
0
LINE
8
Layer 1
10
282.100793
20
11.051665
11
281.389316
21
10.568874
0
LINE
8
Layer 1
10
281.389316
20
10.568874
11
280.525380
21
10.391004
0
LINE
8
Layer 1
10
280.525380
20
10.391004
11
279.644649
21
10.568874
0
LINE
8
Layer 1
10
279.644649
20
10.568874
11
278.924547
21
11.051665
0
LINE
8
Layer 1
10
278.924547
20
11.051665
11
278.438582
21
11.763150
0
LINE
8
Layer 1
10
278.438582
20
11.763150
11
278.260259
21
12.627101
0
LINE
8
Layer 1
10
278.260259
20
12.627101
11
278.438582
21
13.507817
0
LINE
8
Layer 1
10
278.438582
20
13.507817
11
278.924547
21
14.227911
0
LINE
8
Layer 1
10
278.924547
20
14.227911
11
279.644649
21
14.713873
0
LINE
8
Layer 1
10
279.644649
20
14.713873
11
280.525380
21
14.892196
0
LINE
8
Layer 1
10
280.525380
20
14.892196
11
281.389316
21
14.713873
0
LINE
8
Layer 1
10
281.389316
20
14.713873
11
282.100793
21
14.227911
0
LINE
8
Layer 1
10
282.100793
20
14.227911
11
282.583581
21
13.507817
0
LINE
8
Layer 1
10
282.583581
20
13.507817
11
282.761450
21
12.627101
0
LINE
8
Layer 1
10
282.761450
20
12.627101
11
282.761450
21
12.627101
0
LINE
8
Layer 1
10
51.422082
20
39.009572
11
51.218918
21
36.994222
0
LINE
8
Layer 1
10
51.218918
20
36.994222
11
50.636233
21
35.117119
0
LINE
8
Layer 1
10
50.636233
20
35.117119
11
49.714240
21
33.418476
0
LINE
8
Layer 1
10
49.714240
20
33.418476
11
48.493152
21
31.938505
0
LINE
8
Layer 1
10
48.493152
20
31.938505
11
47.013181
21
30.717417
0
LINE
8
Layer 1
10
47.013181
20
30.717417
11
45.314539
21
29.795426
0
LINE
8
Layer 1
10
45.314539
20
29.795426
11
43.437439
21
29.212742
0
LINE
8
Layer 1
10
43.437439
20
29.212742
11
41.422093
21
29.009578
0
LINE
8
Layer 1
10
41.422093
20
29.009578
11
39.406747
21
29.212742
0
LINE
8
Layer 1
10
39.406747
20
29.212742
11
37.529647
21
29.795426
0
LINE
8
Layer 1
10
37.529647
20
29.795426
11
35.831005
21
30.717417
0
LINE
8
Layer 1
10
35.831005
20
30.717417
11
34.351034
21
31.938505
0
LINE
8
Layer 1
10
34.351034
20
31.938505
11
33.129946
21
33.418476
0
LINE
8
Layer 1
10
33.129946
20
33.418476
11
32.207954
21
35.117119
0
LINE
8
Layer 1
10
32.207954
20
35.117119
11
31.625269
21
36.994222
0
LINE
8
Layer 1
10
31.625269
20
36.994222
11
31.422105
21
39.009572
0
LINE
8
Layer 1
10
31.422105
20
39.009572
11
31.625269
21
41.024914
0
LINE
8
Layer 1
10
31.625269
20
41.024914
11
32.207954
21
42.902013
0
LINE
8
Layer 1
10
32.207954
20
42.902013
11
33.129946
21
44.600655
0
LINE
8
Layer 1
10
33.129946
20
44.600655
11
34.351034
21
46.080628
0
LINE
8
Layer 1
10
34.351034
20
46.080628
11
35.831005
21
47.301719
0
LINE
8
Layer 1
10
35.831005
20
47.301719
11
37.529647
21
48.223714
0
LINE
8
Layer 1
10
37.529647
20
48.223714
11
39.406747
21
48.806400
0
LINE
8
Layer 1
10
39.406747
20
48.806400
11
41.422093
21
49.009565
0
LINE
8
Layer 1
10
41.422093
20
49.009565
11
43.437439
21
48.806400
0
LINE
8
Layer 1
10
43.437439
20
48.806400
11
45.314539
21
48.223714
0
LINE
8
Layer 1
10
45.314539
20
48.223714
11
47.013181
21
47.301719
0
LINE
8
Layer 1
10
47.013181
20
47.301719
11
48.493152
21
46.080628
0
LINE
8
Layer 1
10
48.493152
20
46.080628
11
49.714240
21
44.600655
0
LINE
8
Layer 1
10
49.714240
20
44.600655
11
50.636233
21
42.902013
0
LINE
8
Layer 1
10
50.636233
20
42.902013
11
51.218918
21
41.024914
0
LINE
8
Layer 1
10
51.218918
20
41.024914
11
51.422082
21
39.009572
0
LINE
8
Layer 1
10
51.422082
20
39.009572
11
51.422082
21
39.009572
0
LINE
8
Layer 1
10
47.197054
20
32.820578
11
35.647133
21
32.820578
0
LINE
8
Layer 1
10
35.647133
20
32.820578
11
35.134458
21
33.022766
0
LINE
8
Layer 1
10
35.134458
20
33.022766
11
34.922101
21
33.510902
0
LINE
8
Layer 1
10
34.922101
20
33.510902
11
34.922101
21
44.508241
0
LINE
8
Layer 1
10
34.922101
20
44.508241
11
35.134458
21
44.996377
0
LINE
8
Layer 1
10
35.134458
20
44.996377
11
35.647133
21
45.198565
0
LINE
8
Layer 1
10
35.647133
20
45.198565
11
47.197054
21
45.198565
0
LINE
8
Layer 1
10
47.197054
20
45.198565
11
47.709729
21
44.996377
0
LINE
8
Layer 1
10
47.709729
20
44.996377
11
47.922085
21
44.508241
0
LINE
8
Layer 1
10
47.922085
20
44.508241
11
47.922085
21
33.510902
0
LINE
8
Layer 1
10
47.922085
20
33.510902
11
47.709729
21
33.022766
0
LINE
8
Layer 1
10
47.709729
20
33.022766
11
47.197054
21
32.820578
0
LINE
8
Layer 1
10
47.197054
20
32.820578
11
47.197054
21
32.820578
0
LINE
8
Layer 1
10
26.652015
20
39.427163
11
26.448850
21
37.411821
0
LINE
8
Layer 1
10
26.448850
20
37.411821
11
25.866166
21
35.534722
0
LINE
8
Layer 1
10
25.866166
20
35.534722
11
24.944174
21
33.836079
0
LINE
8
Layer 1
10
24.944174
20
33.836079
11
23.723086
21
32.356106
0
LINE
8
Layer 1
10
23.723086
20
32.356106
11
22.243116
21
31.135016
0
LINE
8
Layer 1
10
22.243116
20
31.135016
11
20.544474
21
30.213021
0
LINE
8
Layer 1
10
20.544474
20
30.213021
11
18.667374
21
29.630334
0
LINE
8
Layer 1
10
18.667374
20
29.630334
11
16.652028
21
29.427169
0
LINE
8
Layer 1
10
16.652028
20
29.427169
11
14.636682
21
29.630334
0
LINE
8
Layer 1
10
14.636682
20
29.630334
11
12.759582
21
30.213021
0
LINE
8
Layer 1
10
12.759582
20
30.213021
11
11.060940
21
31.135016
0
LINE
8
Layer 1
10
11.060940
20
31.135016
11
9.580969
21
32.356106
0
LINE
8
Layer 1
10
9.580969
20
32.356106
11
8.359882
21
33.836079
0
LINE
8
Layer 1
10
8.359882
20
33.836079
11
7.437889
21
35.534722
0
LINE
8
Layer 1
10
7.437889
20
35.534722
11
6.855205
21
37.411821
0
LINE
8
Layer 1
10
6.855205
20
37.411821
11
6.652041
21
39.427163
0
LINE
8
Layer 1
10
6.652041
20
39.427163
11
6.855205
21
41.442513
0
LINE
8
Layer 1
10
6.855205
20
41.442513
11
7.437889
21
43.319615
0
LINE
8
Layer 1
10
7.437889
20
43.319615
11
8.359882
21
45.018258
0
LINE
8
Layer 1
10
8.359882
20
45.018258
11
9.580969
21
46.498230
0
LINE
8
Layer 1
10
9.580969
20
46.498230
11
11.060940
21
47.719317
0
LINE
8
Layer 1
10
11.060940
20
47.719317
11
12.759582
21
48.641309
0
LINE
8
Layer 1
10
12.759582
20
48.641309
11
14.636682
21
49.223993
0
LINE
8
Layer 1
10
14.636682
20
49.223993
11
16.652028
21
49.427157
0
LINE
8
Layer 1
10
16.652028
20
49.427157
11
18.667374
21
49.223993
0
LINE
8
Layer 1
10
18.667374
20
49.223993
11
20.544474
21
48.641309
0
LINE
8
Layer 1
10
20.544474
20
48.641309
11
22.243116
21
47.719317
0
LINE
8
Layer 1
10
22.243116
20
47.719317
11
23.723086
21
46.498230
0
LINE
8
Layer 1
10
23.723086
20
46.498230
11
24.944174
21
45.018258
0
LINE
8
Layer 1
10
24.944174
20
45.018258
11
25.866166
21
43.319615
0
LINE
8
Layer 1
10
25.866166
20
43.319615
11
26.448850
21
41.442513
0
LINE
8
Layer 1
10
26.448850
20
41.442513
11
26.652015
21
39.427163
0
LINE
8
Layer 1
10
26.652015
20
39.427163
11
26.652015
21
39.427163
0
LINE
8
Layer 1
10
22.426989
20
33.238170
11
10.877066
21
33.238170
0
LINE
8
Layer 1
10
10.877066
20
33.238170
11
10.364393
21
33.440371
0
LINE
8
Layer 1
10
10.364393
20
33.440371
11
10.152036
21
33.928520
0
LINE
8
Layer 1
10
10.152036
20
33.928520
11
10.152036
21
44.925833
0
LINE
8
Layer 1
10
10.152036
20
44.925833
11
10.364393
21
45.413968
0
LINE
8
Layer 1
10
10.364393
20
45.413968
11
10.877066
21
45.616156
0
LINE
8
Layer 1
10
10.877066
20
45.616156
11
22.426989
21
45.616156
0
LINE
8
Layer 1
10
22.426989
20
45.616156
11
22.939663
21
45.413968
0
LINE
8
Layer 1
10
22.939663
20
45.413968
11
23.152021
21
44.925833
0
LINE
8
Layer 1
10
23.152021
20
44.925833
11
23.152021
21
33.928520
0
LINE
8
Layer 1
10
23.152021
20
33.928520
11
22.939663
21
33.440371
0
LINE
8
Layer 1
10
22.939663
20
33.440371
11
22.426989
21
33.238170
0
LINE
8
Layer 1
10
22.426989
20
33.238170
11
22.426989
21
33.238170
 0 
ENDSEC
 0 
EOF