999
"DXF R12 Output" (www.mydxf.blogspot.com)
 0 
SECTION
 2 
HEADER
 9 
$ACADVER
 1 
AC1009
 9 
$EXTMIN
 10 
 0 
 20 
 0 
 9 
$EXTMAX
 10 
 8.5 
 20 
 11 
 0 
ENDSEC
 0 
SECTION
 2 
ENTITIES
0
LINE
8
Layer 1
10
0.793749
20
129.793749
11
-0.793749
21
128.206251
0
LINE
8
Layer 1
10
0.000000
20
130.322915
11
0.000000
21
127.677085
0
LINE
8
Layer 1
10
2.116664
20
127.941668
11
1.058332
21
126.883336
0
LINE
8
Layer 1
10
1.587498
20
128.470834
11
0.529166
21
127.412502
0
LINE
8
Layer 1
10
1.058332
20
129.000000
11
0.000000
21
127.941668
0
LINE
8
0
10
149.161686
20
42.667763
11
148.993223
21
42.666211
0
LINE
8
0
10
148.993223
20
42.666211
11
148.428916
21
42.633138
0
LINE
8
0
10
148.428916
20
42.633138
11
147.789307
21
42.466388
0
LINE
8
0
10
147.789307
20
42.466388
11
147.269529
21
42.083674
0
LINE
8
0
10
147.269529
20
42.083674
11
146.921330
21
41.540188
0
LINE
8
0
10
146.921330
20
41.540188
11
146.796459
21
40.891123
0
LINE
8
0
10
146.796459
20
40.891123
11
146.851237
21
31.601762
0
LINE
8
0
10
146.851237
20
31.601762
11
146.983726
21
30.967918
0
LINE
8
0
10
146.983726
20
30.967918
11
147.338170
21
30.465993
0
LINE
8
0
10
147.338170
20
30.465993
11
147.862171
21
30.145025
0
LINE
8
0
10
147.862171
20
30.145025
11
148.503329
21
30.054052
0
LINE
8
0
10
148.503329
20
30.054052
11
149.067636
21
30.087641
0
LINE
8
0
10
149.067636
20
30.087641
11
149.421103
21
30.147071
0
LINE
8
0
10
149.421103
20
30.147071
11
149.399915
21
27.010824
0
LINE
8
0
10
149.399915
20
27.010824
11
149.598351
21
26.809285
0
LINE
8
0
10
149.598351
20
26.809285
11
164.197950
21
26.710587
0
LINE
8
0
10
164.197950
20
26.710587
11
164.399488
21
26.909542
0
LINE
8
0
10
164.399488
20
26.909542
11
164.498191
21
41.509178
0
LINE
8
0
10
164.498191
20
41.509178
11
164.299753
21
41.710198
0
LINE
8
0
10
164.299753
20
41.710198
11
150.487184
21
41.803730
0
LINE
8
0
10
150.487184
20
41.803730
11
149.954770
21
42.413813
0
LINE
8
0
10
149.954770
20
42.413813
11
149.161686
21
42.667763
0
LINE
8
0
10
149.161686
20
42.667763
11
149.161686
21
42.667763
0
LINE
8
0
10
311.806779
20
68.182129
11
301.861104
21
123.627348
0
LINE
8
0
10
301.861528
20
123.627422
11
301.495212
21
124.618021
0
LINE
8
0
10
301.495212
20
124.618021
11
300.830289
21
125.400784
0
LINE
8
0
10
300.830289
20
125.400784
11
299.940576
21
125.914276
0
LINE
8
0
10
299.940576
20
125.914276
11
298.899891
21
126.097061
0
LINE
8
0
10
298.900421
20
126.096966
11
238.972083
21
125.946947
0
LINE
8
0
10
238.972199
20
125.946947
11
238.728105
21
125.924854
0
LINE
8
0
10
238.728137
20
125.924722
11
220.870108
21
122.698926
0
LINE
8
0
10
220.870150
20
122.699053
11
220.425174
21
122.497600
0
LINE
8
0
10
220.425174
20
122.497600
11
220.128979
21
122.109266
0
LINE
8
0
10
220.129011
20
122.109171
11
219.307480
21
120.196500
0
LINE
8
0
10
219.307480
20
120.196500
11
186.316097
21
113.357294
0
LINE
8
0
10
186.316033
20
113.357199
11
185.410810
21
113.378027
0
LINE
8
0
10
185.410810
20
113.378027
11
184.607124
21
113.796618
0
LINE
8
0
10
184.607124
20
113.796618
11
178.054403
21
119.404528
0
LINE
8
0
10
178.054403
20
119.404528
11
177.189058
21
119.991807
0
LINE
8
0
10
177.189058
20
119.991807
11
176.249227
21
120.191419
0
LINE
8
0
10
176.249227
20
120.191419
11
175.222910
21
120.189038
0
LINE
8
0
10
139.031411
20
120.225340
11
138.004829
21
120.228250
0
LINE
8
0
10
138.004786
20
120.228144
11
137.064384
21
120.028366
0
LINE
8
0
10
137.064384
20
120.028366
11
136.199611
21
119.439729
0
LINE
8
0
10
136.199579
20
119.439793
11
129.631570
21
113.807615
0
LINE
8
0
10
129.631687
20
113.807540
11
128.829143
21
113.388758
0
LINE
8
0
10
128.829143
20
113.388758
11
127.924301
21
113.366597
0
LINE
8
0
10
127.924216
20
113.366555
11
94.931510
21
120.207348
0
LINE
8
0
10
94.931510
20
120.207348
11
94.109980
21
122.120283
0
LINE
8
0
10
94.110086
20
122.120188
11
93.814017
21
122.508617
0
LINE
8
0
10
93.814017
20
122.508617
11
93.369930
21
122.709975
0
LINE
8
0
10
93.369941
20
122.710039
11
75.510589
21
125.934247
0
LINE
8
0
10
75.510705
20
125.934247
11
75.268389
21
125.957874
0
LINE
8
0
10
75.268495
20
125.957795
11
15.338778
21
126.108343
0
LINE
8
0
10
15.338790
20
126.108237
11
14.298610
21
125.925290
0
LINE
8
0
10
14.298610
20
125.925290
11
13.409719
21
125.411611
0
LINE
8
0
10
13.409719
20
125.411611
11
12.745362
21
124.628518
0
LINE
8
0
10
12.745362
20
124.628518
11
12.378779
21
123.637328
0
LINE
8
0
10
12.378782
20
123.637402
11
2.434870
21
68.193506
0
LINE
8
0
10
2.434870
20
68.193516
11
2.460557
21
67.001929
0
LINE
8
0
10
2.460557
20
67.001929
11
2.925623
21
65.949524
0
LINE
8
0
10
2.925623
20
65.949524
11
3.751648
21
65.148533
0
LINE
8
0
10
3.751648
20
65.148533
11
4.860212
21
64.711181
0
LINE
8
0
10
4.860215
20
64.711064
11
43.767772
21
57.472074
0
LINE
8
0
10
43.767857
20
57.472190
11
44.527062
21
57.481847
0
LINE
8
0
10
44.527126
20
57.481863
11
52.993517
21
59.245573
0
LINE
8
0
10
52.993633
20
59.245616
11
53.758426
21
59.255511
0
LINE
8
0
10
53.758426
20
59.255628
11
63.698281
21
56.234619
0
LINE
8
0
10
63.698196
20
56.234703
11
64.288332
21
55.890089
0
LINE
8
0
10
64.288332
20
55.890089
11
64.520901
21
55.247915
0
LINE
8
0
10
64.520869
20
55.247989
11
61.128121
21
38.095602
0
LINE
8
0
10
61.128227
20
38.095570
11
61.259323
21
37.375862
0
LINE
8
0
10
61.259323
20
37.375862
11
61.846284
21
36.938094
0
LINE
8
0
10
61.846200
20
36.938051
11
97.066166
21
25.980082
0
LINE
8
0
10
97.066134
20
25.981360
11
97.518825
21
25.714197
0
LINE
8
0
10
97.518825
20
25.714197
11
97.773015
21
25.253751
0
LINE
8
0
10
97.773131
20
25.252479
11
101.318808
21
17.068926
0
LINE
8
0
10
101.318850
20
17.069604
11
101.748618
21
16.466048
0
LINE
8
0
10
101.748491
20
16.465677
11
125.285530
21
3.395277
0
LINE
8
0
10
125.285498
20
3.393981
11
126.576674
21
2.800738
0
LINE
8
0
10
126.576674
20
2.800738
11
127.983483
21
2.596099
0
LINE
8
0
10
127.983483
20
2.596236
11
129.521768
21
2.590945
0
LINE
8
0
10
129.521768
20
2.590945
11
157.119363
21
2.524799
0
LINE
8
0
10
157.119363
20
2.524799
11
157.119363
21
2.514216
0
LINE
8
0
10
157.119363
20
2.514216
11
184.718809
21
2.580361
0
LINE
8
0
10
184.718809
20
2.580361
11
186.256566
21
2.585653
0
LINE
8
0
10
186.256597
20
2.585076
11
187.662549
21
2.790745
0
LINE
8
0
10
187.662549
20
2.790745
11
188.954582
21
3.382958
0
LINE
8
0
10
188.954519
20
3.382048
11
212.491822
21
16.455094
0
LINE
8
0
10
212.491716
20
16.454999
11
212.920214
21
17.058605
0
LINE
8
0
10
212.920182
20
17.058343
11
216.466123
21
25.241895
0
LINE
8
0
10
216.466049
20
25.242753
11
216.720430
21
25.703369
0
LINE
8
0
10
216.720430
20
25.703369
11
217.174454
21
25.971732
0
LINE
8
0
10
217.174412
20
25.972144
11
252.394378
21
36.927204
0
LINE
8
0
10
252.394304
20
36.927172
11
252.980313
21
37.364940
0
LINE
8
0
10
252.980313
20
37.364940
11
253.110837
21
38.086172
0
LINE
8
0
10
253.110869
20
38.086077
11
249.719444
21
55.236876
0
LINE
8
0
10
249.719433
20
55.236993
11
249.950776
21
55.879739
0
LINE
8
0
10
249.950776
20
55.879739
11
250.540868
21
56.223781
0
LINE
8
0
10
250.540974
20
56.223771
11
260.482416
21
59.245573
0
LINE
8
0
10
260.482416
20
59.245616
11
261.246955
21
59.236223
0
LINE
8
0
10
261.247061
20
59.236313
11
269.711624
21
57.472074
0
LINE
8
0
10
269.712788
20
57.472190
11
270.472247
21
57.461263
0
LINE
8
0
10
270.470977
20
57.461226
11
309.380553
21
64.699952
0
LINE
8
0
10
309.379918
20
64.700005
11
310.487952
21
65.137460
0
LINE
8
0
10
310.487952
20
65.137460
11
311.313808
21
65.938412
0
LINE
8
0
10
311.313808
20
65.938412
11
311.779144
21
66.990681
0
LINE
8
0
10
311.779144
20
66.990681
11
311.805615
21
68.182086
0
LINE
8
0
10
311.806779
20
68.182129
11
311.806779
21
68.182129
0
LINE
8
Layer 1
10
100.277000
20
55.204200
11
100.017709
21
53.944785
0
LINE
8
Layer 1
10
100.017709
20
53.944785
11
99.313918
21
52.907620
0
LINE
8
Layer 1
10
99.313918
20
52.907620
11
98.276753
21
52.203829
0
LINE
8
Layer 1
10
98.276753
20
52.203829
11
97.017337
21
51.944537
0
LINE
8
Layer 1
10
97.017337
20
51.944537
11
95.733448
21
52.203829
0
LINE
8
Layer 1
10
95.733448
20
52.203829
11
94.683715
21
52.907620
0
LINE
8
Layer 1
10
94.683715
20
52.907620
11
93.975295
21
53.944785
0
LINE
8
Layer 1
10
93.975295
20
53.944785
11
93.715342
21
55.204200
0
LINE
8
Layer 1
10
93.715342
20
55.204200
11
93.975295
21
56.488089
0
LINE
8
Layer 1
10
93.975295
20
56.488089
11
94.683715
21
57.537822
0
LINE
8
Layer 1
10
94.683715
20
57.537822
11
95.733448
21
58.246243
0
LINE
8
Layer 1
10
95.733448
20
58.246243
11
97.017337
21
58.506196
0
LINE
8
Layer 1
10
97.017337
20
58.506196
11
98.276753
21
58.246243
0
LINE
8
Layer 1
10
98.276753
20
58.246243
11
99.313918
21
57.537822
0
LINE
8
Layer 1
10
99.313918
20
57.537822
11
100.017709
21
56.488089
0
LINE
8
Layer 1
10
100.017709
20
56.488089
11
100.277000
21
55.204200
0
LINE
8
Layer 1
10
100.277000
20
55.204200
11
100.277000
21
55.204200
0
LINE
8
Layer 1
10
76.619419
20
121.324448
11
71.837807
21
118.729779
0
LINE
8
Layer 1
10
71.837807
20
118.729779
11
57.199965
21
120.939460
0
LINE
8
Layer 1
10
57.199965
20
120.939460
11
55.930794
21
119.671322
0
LINE
8
Layer 1
10
55.930794
20
119.671322
11
54.876485
21
120.418649
0
LINE
8
Layer 1
10
54.876485
20
120.418649
11
53.583137
21
120.693997
0
LINE
8
Layer 1
10
53.583137
20
120.693997
11
52.299230
21
120.434025
0
LINE
8
Layer 1
10
52.299230
20
120.434025
11
51.249455
21
119.725561
0
LINE
8
Layer 1
10
51.249455
20
119.725561
11
50.540991
21
118.675785
0
LINE
8
Layer 1
10
50.540991
20
118.675785
11
50.281019
21
117.391879
0
LINE
8
Layer 1
10
50.281019
20
117.391879
11
50.555456
21
116.100286
0
LINE
8
Layer 1
10
50.555456
20
116.100286
11
51.300593
21
115.046806
0
LINE
8
Layer 1
10
51.300593
20
115.046806
11
18.419451
21
120.577209
0
LINE
8
Layer 1
10
18.419451
20
120.577209
11
17.951785
21
120.657700
0
LINE
8
Layer 1
10
17.951785
20
120.657700
11
8.520329
21
68.450246
0
LINE
8
Layer 1
10
8.520329
20
68.450246
11
42.772446
21
62.696085
0
LINE
8
Layer 1
10
42.772446
20
62.696085
11
45.097881
21
63.129649
0
LINE
8
Layer 1
10
45.097881
20
63.129649
11
45.959629
21
62.718103
0
LINE
8
Layer 1
10
45.959629
20
62.718103
11
46.937042
21
62.570511
0
LINE
8
Layer 1
10
46.937042
20
62.570511
11
47.729609
21
62.670794
0
LINE
8
Layer 1
10
47.729609
20
62.670794
11
48.454622
21
62.954504
0
LINE
8
Layer 1
10
48.454622
20
62.954504
11
49.086565
21
63.395938
0
LINE
8
Layer 1
10
49.086565
20
63.395938
11
49.599925
21
63.969388
0
LINE
8
Layer 1
10
49.599925
20
63.969388
11
67.555905
21
69.098266
0
LINE
8
Layer 1
10
67.555905
20
69.098266
11
82.338440
21
66.553723
0
LINE
8
Layer 1
10
82.338440
20
66.553723
11
85.738227
21
62.388610
0
LINE
8
Layer 1
10
85.738227
20
62.388610
11
100.520762
21
59.844065
0
LINE
8
Layer 1
10
100.520762
20
59.844065
11
103.835799
21
55.530643
0
LINE
8
Layer 1
10
103.835799
20
55.530643
11
118.618335
21
52.986098
0
LINE
8
Layer 1
10
118.618335
20
52.986098
11
127.808974
21
105.275842
0
LINE
8
Layer 1
10
127.808974
20
105.275842
11
113.025921
21
107.820386
0
LINE
8
Layer 1
10
113.025921
20
107.820386
11
109.605463
21
112.091952
0
LINE
8
Layer 1
10
109.605463
20
112.091952
11
94.822928
21
114.635979
0
LINE
8
Layer 1
10
94.822928
20
114.635979
11
91.401954
21
118.780422
0
LINE
8
Layer 1
10
91.401954
20
118.780422
11
76.619419
21
121.324448
0
LINE
8
Layer 1
10
127.836000
20
14.437200
11
127.576709
21
13.177785
0
LINE
8
Layer 1
10
127.576709
20
13.177785
11
126.872918
21
12.140620
0
LINE
8
Layer 1
10
126.872918
20
12.140620
11
125.835753
21
11.436829
0
LINE
8
Layer 1
10
125.835753
20
11.436829
11
124.576337
21
11.177537
0
LINE
8
Layer 1
10
124.576337
20
11.177537
11
123.292448
21
11.436829
0
LINE
8
Layer 1
10
123.292448
20
11.436829
11
122.242715
21
12.140620
0
LINE
8
Layer 1
10
122.242715
20
12.140620
11
121.534295
21
13.177785
0
LINE
8
Layer 1
10
121.534295
20
13.177785
11
121.274342
21
14.437200
0
LINE
8
Layer 1
10
121.274342
20
14.437200
11
121.534295
21
15.721089
0
LINE
8
Layer 1
10
121.534295
20
15.721089
11
122.242715
21
16.770822
0
LINE
8
Layer 1
10
122.242715
20
16.770822
11
123.292448
21
17.479243
0
LINE
8
Layer 1
10
123.292448
20
17.479243
11
124.576337
21
17.739196
0
LINE
8
Layer 1
10
124.576337
20
17.739196
11
125.835753
21
17.479243
0
LINE
8
Layer 1
10
125.835753
20
17.479243
11
126.872918
21
16.770822
0
LINE
8
Layer 1
10
126.872918
20
16.770822
11
127.576709
21
15.721089
0
LINE
8
Layer 1
10
127.576709
20
15.721089
11
127.836000
21
14.437200
0
LINE
8
Layer 1
10
127.836000
20
14.437200
11
127.836000
21
14.437200
0
LINE
8
Layer 1
10
192.479000
20
14.394900
11
192.219709
21
13.135485
0
LINE
8
Layer 1
10
192.219709
20
13.135485
11
191.515918
21
12.098320
0
LINE
8
Layer 1
10
191.515918
20
12.098320
11
190.478753
21
11.394529
0
LINE
8
Layer 1
10
190.478753
20
11.394529
11
189.219337
21
11.135237
0
LINE
8
Layer 1
10
189.219337
20
11.135237
11
187.935448
21
11.394529
0
LINE
8
Layer 1
10
187.935448
20
11.394529
11
186.885715
21
12.098320
0
LINE
8
Layer 1
10
186.885715
20
12.098320
11
186.177295
21
13.135485
0
LINE
8
Layer 1
10
186.177295
20
13.135485
11
185.917342
21
14.394900
0
LINE
8
Layer 1
10
185.917342
20
14.394900
11
186.177295
21
15.678789
0
LINE
8
Layer 1
10
186.177295
20
15.678789
11
186.885715
21
16.728522
0
LINE
8
Layer 1
10
186.885715
20
16.728522
11
187.935448
21
17.436943
0
LINE
8
Layer 1
10
187.935448
20
17.436943
11
189.219337
21
17.696896
0
LINE
8
Layer 1
10
189.219337
20
17.696896
11
190.478753
21
17.436943
0
LINE
8
Layer 1
10
190.478753
20
17.436943
11
191.515918
21
16.728522
0
LINE
8
Layer 1
10
191.515918
20
16.728522
11
192.219709
21
15.678789
0
LINE
8
Layer 1
10
192.219709
20
15.678789
11
192.479000
21
14.394900
0
LINE
8
Layer 1
10
192.479000
20
14.394900
11
192.479000
21
14.394900
0
LINE
8
Layer 1
10
175.588000
20
101.051000
11
175.328709
21
99.791585
0
LINE
8
Layer 1
10
175.328709
20
99.791585
11
174.624918
21
98.754420
0
LINE
8
Layer 1
10
174.624918
20
98.754420
11
173.587753
21
98.050629
0
LINE
8
Layer 1
10
173.587753
20
98.050629
11
172.328337
21
97.791337
0
LINE
8
Layer 1
10
172.328337
20
97.791337
11
171.044448
21
98.050629
0
LINE
8
Layer 1
10
171.044448
20
98.050629
11
169.994715
21
98.754420
0
LINE
8
Layer 1
10
169.994715
20
98.754420
11
169.286295
21
99.791585
0
LINE
8
Layer 1
10
169.286295
20
99.791585
11
169.026342
21
101.051000
0
LINE
8
Layer 1
10
169.026342
20
101.051000
11
169.286295
21
102.334889
0
LINE
8
Layer 1
10
169.286295
20
102.334889
11
169.994715
21
103.384622
0
LINE
8
Layer 1
10
169.994715
20
103.384622
11
171.044448
21
104.093043
0
LINE
8
Layer 1
10
171.044448
20
104.093043
11
172.328337
21
104.352996
0
LINE
8
Layer 1
10
172.328337
20
104.352996
11
173.587753
21
104.093043
0
LINE
8
Layer 1
10
173.587753
20
104.093043
11
174.624918
21
103.384622
0
LINE
8
Layer 1
10
174.624918
20
103.384622
11
175.328709
21
102.334889
0
LINE
8
Layer 1
10
175.328709
20
102.334889
11
175.588000
21
101.051000
0
LINE
8
Layer 1
10
175.588000
20
101.051000
11
175.588000
21
101.051000
0
LINE
8
Layer 1
10
146.632000
20
101.051000
11
146.372709
21
99.791585
0
LINE
8
Layer 1
10
146.372709
20
99.791585
11
145.668918
21
98.754420
0
LINE
8
Layer 1
10
145.668918
20
98.754420
11
144.631753
21
98.050629
0
LINE
8
Layer 1
10
144.631753
20
98.050629
11
143.372337
21
97.791337
0
LINE
8
Layer 1
10
143.372337
20
97.791337
11
142.088448
21
98.050629
0
LINE
8
Layer 1
10
142.088448
20
98.050629
11
141.038715
21
98.754420
0
LINE
8
Layer 1
10
141.038715
20
98.754420
11
140.330295
21
99.791585
0
LINE
8
Layer 1
10
140.330295
20
99.791585
11
140.070342
21
101.051000
0
LINE
8
Layer 1
10
140.070342
20
101.051000
11
140.330295
21
102.334889
0
LINE
8
Layer 1
10
140.330295
20
102.334889
11
141.038715
21
103.384622
0
LINE
8
Layer 1
10
141.038715
20
103.384622
11
142.088448
21
104.093043
0
LINE
8
Layer 1
10
142.088448
20
104.093043
11
143.372337
21
104.352996
0
LINE
8
Layer 1
10
143.372337
20
104.352996
11
144.631753
21
104.093043
0
LINE
8
Layer 1
10
144.631753
20
104.093043
11
145.668918
21
103.384622
0
LINE
8
Layer 1
10
145.668918
20
103.384622
11
146.372709
21
102.334889
0
LINE
8
Layer 1
10
146.372709
20
102.334889
11
146.632000
21
101.051000
0
LINE
8
Layer 1
10
146.632000
20
101.051000
11
146.632000
21
101.051000
0
LINE
8
Layer 1
10
140.120000
20
112.597000
11
139.860709
21
111.337585
0
LINE
8
Layer 1
10
139.860709
20
111.337585
11
139.156918
21
110.300420
0
LINE
8
Layer 1
10
139.156918
20
110.300420
11
138.119753
21
109.596629
0
LINE
8
Layer 1
10
138.119753
20
109.596629
11
136.860337
21
109.337337
0
LINE
8
Layer 1
10
136.860337
20
109.337337
11
135.576448
21
109.596629
0
LINE
8
Layer 1
10
135.576448
20
109.596629
11
134.526715
21
110.300420
0
LINE
8
Layer 1
10
134.526715
20
110.300420
11
133.818295
21
111.337585
0
LINE
8
Layer 1
10
133.818295
20
111.337585
11
133.558342
21
112.597000
0
LINE
8
Layer 1
10
133.558342
20
112.597000
11
133.818295
21
113.880889
0
LINE
8
Layer 1
10
133.818295
20
113.880889
11
134.526715
21
114.930622
0
LINE
8
Layer 1
10
134.526715
20
114.930622
11
135.576448
21
115.639043
0
LINE
8
Layer 1
10
135.576448
20
115.639043
11
136.860337
21
115.898996
0
LINE
8
Layer 1
10
136.860337
20
115.898996
11
138.119753
21
115.639043
0
LINE
8
Layer 1
10
138.119753
20
115.639043
11
139.156918
21
114.930622
0
LINE
8
Layer 1
10
139.156918
20
114.930622
11
139.860709
21
113.880889
0
LINE
8
Layer 1
10
139.860709
20
113.880889
11
140.120000
21
112.597000
0
LINE
8
Layer 1
10
140.120000
20
112.597000
11
140.120000
21
112.597000
0
LINE
8
Layer 1
10
220.208000
20
55.204200
11
219.948709
21
53.944785
0
LINE
8
Layer 1
10
219.948709
20
53.944785
11
219.244918
21
52.907620
0
LINE
8
Layer 1
10
219.244918
20
52.907620
11
218.207753
21
52.203829
0
LINE
8
Layer 1
10
218.207753
20
52.203829
11
216.948337
21
51.944537
0
LINE
8
Layer 1
10
216.948337
20
51.944537
11
215.664448
21
52.203829
0
LINE
8
Layer 1
10
215.664448
20
52.203829
11
214.614715
21
52.907620
0
LINE
8
Layer 1
10
214.614715
20
52.907620
11
213.906295
21
53.944785
0
LINE
8
Layer 1
10
213.906295
20
53.944785
11
213.646342
21
55.204200
0
LINE
8
Layer 1
10
213.646342
20
55.204200
11
213.906295
21
56.488089
0
LINE
8
Layer 1
10
213.906295
20
56.488089
11
214.614715
21
57.537822
0
LINE
8
Layer 1
10
214.614715
20
57.537822
11
215.664448
21
58.246243
0
LINE
8
Layer 1
10
215.664448
20
58.246243
11
216.948337
21
58.506196
0
LINE
8
Layer 1
10
216.948337
20
58.506196
11
218.207753
21
58.246243
0
LINE
8
Layer 1
10
218.207753
20
58.246243
11
219.244918
21
57.537822
0
LINE
8
Layer 1
10
219.244918
20
57.537822
11
219.948709
21
56.488089
0
LINE
8
Layer 1
10
219.948709
20
56.488089
11
220.208000
21
55.204200
0
LINE
8
Layer 1
10
220.208000
20
55.204200
11
220.208000
21
55.204200
0
LINE
8
Layer 1
10
237.594966
20
121.510088
11
222.818632
21
118.927304
0
LINE
8
Layer 1
10
222.818632
20
118.927304
11
219.433833
21
114.609745
0
LINE
8
Layer 1
10
219.433833
20
114.609745
11
204.657496
21
112.026962
0
LINE
8
Layer 1
10
204.657496
20
112.026962
11
182.755512
21
107.444303
0
LINE
8
Layer 1
10
182.755512
20
107.444303
11
183.190626
21
104.679619
0
LINE
8
Layer 1
10
183.190626
20
104.679619
11
192.739382
21
52.397109
0
LINE
8
Layer 1
10
192.739382
20
52.397109
11
210.480389
21
55.510608
0
LINE
8
Layer 1
10
210.480389
20
55.510608
11
213.844517
21
59.743936
0
LINE
8
Layer 1
10
213.844517
20
59.743936
11
228.620334
21
62.326203
0
LINE
8
Layer 1
10
228.620334
20
62.326203
11
232.026324
21
66.580716
0
LINE
8
Layer 1
10
232.026324
20
66.580716
11
246.802141
21
69.162983
0
LINE
8
Layer 1
10
246.802141
20
69.162983
11
251.633363
21
66.382279
0
LINE
8
Layer 1
10
251.633363
20
66.382279
11
264.253760
21
63.959175
0
LINE
8
Layer 1
10
264.253760
20
63.959175
11
264.770464
21
63.390376
0
LINE
8
Layer 1
10
264.770464
20
63.390376
11
265.406532
21
62.951971
0
LINE
8
Layer 1
10
265.406532
20
62.951971
11
266.138524
21
62.669902
0
LINE
8
Layer 1
10
266.138524
20
62.669902
11
266.942997
21
62.570114
0
LINE
8
Layer 1
10
266.942997
20
62.570114
11
267.878069
21
62.710874
0
LINE
8
Layer 1
10
267.878069
20
62.710874
11
268.710845
21
63.103931
0
LINE
8
Layer 1
10
268.710845
20
63.103931
11
271.438839
21
62.579933
0
LINE
8
Layer 1
10
271.438839
20
62.579933
11
305.031566
21
68.528396
0
LINE
8
Layer 1
10
305.031566
20
68.528396
11
295.782017
21
120.832611
0
LINE
8
Layer 1
10
295.782017
20
120.832611
11
263.131866
21
115.084134
0
LINE
8
Layer 1
10
263.131866
20
115.084134
11
263.844230
21
116.125116
0
LINE
8
Layer 1
10
263.844230
20
116.125116
11
264.106999
21
117.392000
0
LINE
8
Layer 1
10
264.106999
20
117.392000
11
263.847694
21
118.675906
0
LINE
8
Layer 1
10
263.847694
20
118.675906
11
263.143874
21
119.725681
0
LINE
8
Layer 1
10
263.143874
20
119.725681
11
262.106681
21
120.434146
0
LINE
8
Layer 1
10
262.106681
20
120.434146
11
260.847255
21
120.694119
0
LINE
8
Layer 1
10
260.847255
20
120.694119
11
259.609498
21
120.452930
0
LINE
8
Layer 1
10
259.609498
20
120.452930
11
258.584348
21
119.793400
0
LINE
8
Layer 1
10
258.584348
20
119.793400
11
257.121391
21
121.308033
0
LINE
8
Layer 1
10
257.121391
20
121.308033
11
242.404484
21
118.750054
0
LINE
8
Layer 1
10
242.404484
20
118.750054
11
237.594966
21
121.510088
0
LINE
8
Layer 1
10
237.594966
20
121.510088
11
237.594966
21
121.510088
0
LINE
8
0
10
92.429862
20
52.206885
11
91.516813
21
51.907976
0
LINE
8
0
10
91.516813
20
51.907976
11
90.891976
21
51.157337
0
LINE
8
0
10
90.891976
20
51.157337
11
87.244141
21
42.614719
0
LINE
8
0
10
87.244141
20
42.614719
11
87.113296
21
41.980554
0
LINE
8
0
10
87.113296
20
41.980554
11
87.238555
21
41.379055
0
LINE
8
0
10
87.238555
20
41.379055
11
87.591400
21
40.876040
0
LINE
8
0
10
87.591400
20
40.876040
11
88.143310
21
40.537330
0
LINE
8
0
10
88.143310
20
40.537330
11
88.674027
21
40.343026
0
LINE
8
0
10
88.674027
20
40.343026
11
89.390261
21
40.246911
0
LINE
8
0
10
89.390261
20
40.246911
11
88.333998
21
37.863079
0
LINE
8
0
10
88.333998
20
37.863079
11
88.435799
21
37.599530
0
LINE
8
0
10
88.435799
20
37.599530
11
101.783800
21
31.684655
0
LINE
8
0
10
101.783800
20
31.684655
11
102.047864
21
31.786456
0
LINE
8
0
10
102.047864
20
31.786456
11
107.962141
21
45.135010
0
LINE
8
0
10
107.962141
20
45.135010
11
107.860337
21
45.398561
0
LINE
8
0
10
107.860337
20
45.398561
11
94.512336
21
51.313436
0
LINE
8
0
10
94.512336
20
51.313436
11
94.379529
21
51.320659
0
LINE
8
0
10
94.379529
20
51.320659
11
94.053301
21
51.668697
0
LINE
8
0
10
94.053301
20
51.668697
11
93.614204
21
51.911319
0
LINE
8
0
10
93.614204
20
51.911319
11
93.082972
21
52.105624
0
LINE
8
0
10
93.082972
20
52.105624
11
92.429780
21
52.206909
0
LINE
8
0
10
92.429780
20
52.206909
11
92.429862
21
52.206885
0
LINE
8
0
10
111.786273
20
39.795257
11
110.940619
21
39.544643
0
LINE
8
0
10
110.940619
20
39.544643
11
110.316080
21
38.898156
0
LINE
8
0
10
110.316080
20
38.898156
11
105.854353
21
30.750857
0
LINE
8
0
10
105.854353
20
30.750857
11
105.662405
21
30.132437
0
LINE
8
0
10
105.662405
20
30.132437
11
105.728435
21
29.521648
0
LINE
8
0
10
105.728435
20
29.521648
11
106.030540
21
28.986738
0
LINE
8
0
10
106.030540
20
28.986738
11
106.546815
21
28.595953
0
LINE
8
0
10
106.546815
20
28.595953
11
107.056346
21
28.351010
0
LINE
8
0
10
107.056346
20
28.351010
11
107.814437
21
28.185127
0
LINE
8
0
10
107.814437
20
28.185127
11
105.795875
21
24.515636
0
LINE
8
0
10
105.795875
20
24.515636
11
105.874425
21
24.243819
0
LINE
8
0
10
105.874425
20
24.243819
11
118.666386
21
17.206018
0
LINE
8
0
10
118.666386
20
17.206018
11
118.937686
21
17.285083
0
LINE
8
0
10
118.937686
20
17.285083
11
125.975488
21
30.077047
0
LINE
8
0
10
125.975488
20
30.077047
11
125.896942
21
30.348345
0
LINE
8
0
10
125.896942
20
30.348345
11
113.698739
21
37.059553
0
LINE
8
0
10
113.698739
20
37.059553
11
113.791137
21
37.228590
0
LINE
8
0
10
113.791137
20
37.228590
11
113.983085
21
37.847093
0
LINE
8
0
10
113.983085
20
37.847093
11
113.917055
21
38.458060
0
LINE
8
0
10
113.917055
20
38.458060
11
113.614950
21
38.993147
0
LINE
8
0
10
113.614950
20
38.993147
11
113.098676
21
39.384010
0
LINE
8
0
10
113.098676
20
39.384010
11
112.588628
21
39.628958
0
LINE
8
0
10
112.588628
20
39.628958
11
111.786098
21
39.795355
0
LINE
8
0
10
111.786098
20
39.795355
11
111.786273
21
39.795257
0
LINE
8
0
10
200.523863
20
37.611415
11
200.447901
21
37.587629
0
LINE
8
0
10
200.447901
20
37.587629
11
187.824403
21
30.701240
0
LINE
8
0
10
187.824403
20
30.701240
11
187.137632
21
31.980234
0
LINE
8
0
10
187.137632
20
31.980234
11
186.723977
21
32.478409
0
LINE
8
0
10
186.723977
20
32.478409
11
186.176008
21
32.756177
0
LINE
8
0
10
186.176008
20
32.756177
11
185.562891
21
32.794673
0
LINE
8
0
10
185.562891
20
32.794673
11
184.953791
21
32.575028
0
LINE
8
0
10
184.953791
20
32.575028
11
184.470615
21
32.280991
0
LINE
8
0
10
184.470615
20
32.280991
11
183.983424
21
31.834316
0
LINE
8
0
10
183.983424
20
31.834316
11
183.703196
21
31.252924
0
LINE
8
0
10
183.703196
20
31.252924
11
183.649841
21
30.609762
0
LINE
8
0
10
183.649841
20
30.609762
11
183.843267
21
29.977775
0
LINE
8
0
10
183.843267
20
29.977775
11
188.239372
21
21.794826
0
LINE
8
0
10
188.239372
20
21.794826
11
188.653038
21
21.296656
0
LINE
8
0
10
188.653038
20
21.296656
11
189.201006
21
21.018887
0
LINE
8
0
10
189.201006
20
21.018887
11
189.814118
21
20.980389
0
LINE
8
0
10
189.814118
20
20.980389
11
190.423216
21
21.200033
0
LINE
8
0
10
190.423216
20
21.200033
11
190.906390
21
21.494069
0
LINE
8
0
10
190.906390
20
21.494069
11
191.445293
21
22.015258
0
LINE
8
0
10
191.445293
20
22.015258
11
191.712024
21
22.698128
0
LINE
8
0
10
191.712024
20
22.698128
11
194.543371
21
17.507756
0
LINE
8
0
10
194.543371
20
17.507756
11
194.814672
21
17.427659
0
LINE
8
0
10
194.814672
20
17.427659
11
207.631438
21
24.419984
0
LINE
8
0
10
207.631438
20
24.419984
11
207.711538
21
24.691285
0
LINE
8
0
10
207.711538
20
24.691285
11
200.719210
21
37.508053
0
LINE
8
0
10
200.719210
20
37.508053
11
200.523876
21
37.611405
0
LINE
8
0
10
200.523876
20
37.611405
11
200.523863
21
37.611415
0
LINE
8
0
10
219.292709
20
51.251386
11
219.215199
21
51.234320
0
LINE
8
0
10
219.215199
20
51.234320
11
206.270791
21
45.563357
0
LINE
8
0
10
206.270791
20
45.563357
11
205.668707
21
45.653518
0
LINE
8
0
10
205.668707
20
45.653518
11
205.048126
21
45.491009
0
LINE
8
0
10
205.048126
20
45.491009
11
204.540669
21
45.242957
0
LINE
8
0
10
204.540669
20
45.242957
11
204.014720
21
44.842500
0
LINE
8
0
10
204.014720
20
44.842500
11
203.682548
21
44.288862
0
LINE
8
0
10
203.682548
20
44.288862
11
203.570664
21
43.653005
0
LINE
8
0
10
203.570664
20
43.653005
11
203.705576
21
43.005890
0
LINE
8
0
10
203.705576
20
43.005890
11
207.336359
21
34.456035
0
LINE
8
0
10
207.336359
20
34.456035
11
207.702880
21
33.922182
0
LINE
8
0
10
207.702880
20
33.922182
11
208.223331
21
33.595544
0
LINE
8
0
10
208.223331
20
33.595544
11
208.830495
21
33.501231
0
LINE
8
0
10
208.830495
20
33.501231
11
209.457156
21
33.664355
0
LINE
8
0
10
209.457156
20
33.664355
11
209.965131
21
33.912921
0
LINE
8
0
10
209.965131
20
33.912921
11
210.476732
21
34.298945
0
LINE
8
0
10
210.476732
20
34.298945
11
211.598103
21
31.739416
0
LINE
8
0
10
211.598103
20
31.739416
11
211.861138
21
31.636578
0
LINE
8
0
10
211.861138
20
31.636578
11
225.234460
21
37.495126
0
LINE
8
0
10
225.234460
20
37.495126
11
225.337295
21
37.758677
0
LINE
8
0
10
225.337295
20
37.758677
11
219.478748
21
51.131479
0
LINE
8
0
10
219.478748
20
51.131479
11
219.292714
21
51.251367
0
LINE
8
0
10
219.292714
20
51.251367
11
219.292709
21
51.251386
0
LINE
8
0
10
240.880504
20
57.039652
11
240.800923
21
57.037536
0
LINE
8
0
10
240.800923
20
57.037536
11
226.566156
21
53.793341
0
LINE
8
0
10
226.566156
20
53.793341
11
226.508279
21
53.767491
0
LINE
8
0
10
226.508279
20
53.767491
11
226.026603
21
53.858730
0
LINE
8
0
10
226.026603
20
53.858730
11
225.515576
21
53.789187
0
LINE
8
0
10
225.515576
20
53.789187
11
224.974007
21
53.625373
0
LINE
8
0
10
224.974007
20
53.625373
11
224.390984
21
53.314068
0
LINE
8
0
10
224.390984
20
53.314068
11
223.974939
21
52.820648
0
LINE
8
0
10
223.974939
20
52.820648
11
223.763227
21
52.210889
0
LINE
8
0
10
223.763227
20
52.210889
11
223.793202
21
51.550566
0
LINE
8
0
10
223.793202
20
51.550566
11
226.012186
21
42.530460
0
LINE
8
0
10
226.012186
20
42.530460
11
226.288700
21
41.944982
0
LINE
8
0
10
226.288700
20
41.944982
11
226.750190
21
41.539546
0
LINE
8
0
10
226.750190
20
41.539546
11
227.334378
21
41.349611
0
LINE
8
0
10
227.334378
20
41.349611
11
227.978987
21
41.410634
0
LINE
8
0
10
227.978987
20
41.410634
11
228.520038
21
41.574448
0
LINE
8
0
10
228.520038
20
41.574448
11
229.079176
21
41.867968
0
LINE
8
0
10
229.079176
20
41.867968
11
229.660018
21
39.318775
0
LINE
8
0
10
229.660018
20
39.318775
11
229.899280
21
39.168396
0
LINE
8
0
10
229.899280
20
39.168396
11
244.134563
21
42.412639
0
LINE
8
0
10
244.134563
20
42.412639
11
244.284941
21
42.651899
0
LINE
8
0
10
244.284941
20
42.651899
11
241.040701
21
56.887184
0
LINE
8
0
10
241.040701
20
56.887184
11
240.880504
21
57.039626
0
LINE
8
0
10
240.880504
20
57.039626
11
240.880504
21
57.039652
0
LINE
8
0
10
70.990476
20
57.534001
11
70.431392
21
57.420499
0
LINE
8
0
10
70.431392
20
57.420499
11
69.942920
21
57.137496
0
LINE
8
0
10
69.942920
20
57.137496
11
69.567139
21
56.713360
0
LINE
8
0
10
69.567139
20
56.713360
11
69.346132
21
56.176460
0
LINE
8
0
10
69.346132
20
56.176460
11
67.333327
21
47.108277
0
LINE
8
0
10
67.333327
20
47.108277
11
67.321435
21
46.460778
0
LINE
8
0
10
67.321435
20
46.460778
11
67.555229
21
45.892433
0
LINE
8
0
10
67.555229
20
45.892433
11
67.994590
21
45.462788
0
LINE
8
0
10
67.994590
20
45.462788
11
68.599398
21
45.231388
0
LINE
8
0
10
68.599398
20
45.231388
11
69.156987
21
45.138369
0
LINE
8
0
10
69.156987
20
45.138369
11
69.937302
21
45.192114
0
LINE
8
0
10
69.937302
20
45.192114
11
69.366791
21
42.716812
0
LINE
8
0
10
69.366791
20
42.716812
11
69.516654
21
42.477033
0
LINE
8
0
10
69.516654
20
42.477033
11
83.743178
21
39.196602
0
LINE
8
0
10
83.743178
20
39.196602
11
83.982956
21
39.346464
0
LINE
8
0
10
83.982956
20
39.346464
11
87.263387
21
53.573504
0
LINE
8
0
10
87.263387
20
53.573504
11
87.113528
21
53.813285
0
LINE
8
0
10
87.113528
20
53.813285
11
72.887001
21
57.093714
0
LINE
8
0
10
72.887001
20
57.093714
11
72.692182
21
57.027569
0
LINE
8
0
10
72.692182
20
57.027569
11
71.882929
21
57.418760
0
LINE
8
0
10
71.882929
20
57.418760
11
71.325340
21
57.511780
0
LINE
8
0
10
71.325340
20
57.511780
11
70.990476
21
57.534001
0
LINE
8
0
10
70.990476
20
57.534001
11
70.990476
21
57.534001
0
LINE
8
0
10
167.934150
20
68.841895
11
167.734161
21
68.641909
0
LINE
8
0
10
167.734161
20
68.641909
11
167.734163
21
49.041541
0
LINE
8
0
10
167.734163
20
49.041541
11
167.934151
21
48.841552
0
LINE
8
0
10
167.934151
20
48.841552
11
186.637883
21
48.841554
0
LINE
8
0
10
186.637883
20
48.841554
11
186.644602
21
47.731027
0
LINE
8
0
10
186.644602
20
47.731027
11
186.777009
21
47.097183
0
LINE
8
0
10
186.777009
20
47.097183
11
187.131275
21
46.595258
0
LINE
8
0
10
187.131275
20
46.595258
11
187.655098
21
46.274290
0
LINE
8
0
10
187.655098
20
46.274290
11
188.296178
21
46.183318
0
LINE
8
0
10
188.296178
20
46.183318
11
188.861000
21
46.216908
0
LINE
8
0
10
188.861000
20
46.216908
11
189.500528
21
46.383658
0
LINE
8
0
10
189.500528
20
46.383658
11
190.020128
21
46.766372
0
LINE
8
0
10
190.020128
20
46.766372
11
190.368149
21
47.309857
0
LINE
8
0
10
190.368149
20
47.309857
11
190.492939
21
47.958922
0
LINE
8
0
10
190.492939
20
47.958922
11
190.438161
21
57.247767
0
LINE
8
0
10
190.438161
20
57.247767
11
190.305754
21
57.881610
0
LINE
8
0
10
190.305754
20
57.881610
11
189.951489
21
58.383535
0
LINE
8
0
10
189.951489
20
58.383535
11
189.427666
21
58.704503
0
LINE
8
0
10
189.427666
20
58.704503
11
188.786587
21
58.795476
0
LINE
8
0
10
188.786587
20
58.795476
11
188.221765
21
58.761888
0
LINE
8
0
10
188.221765
20
58.761888
11
187.733940
21
58.659566
0
LINE
8
0
10
187.733940
20
58.659566
11
187.733939
21
68.641910
0
LINE
8
0
10
187.733939
20
68.641910
11
187.533951
21
68.841899
0
LINE
8
0
10
187.533951
20
68.841899
11
167.934150
21
68.841895
0
LINE
8
0
10
167.934150
20
68.841895
11
167.934150
21
68.841895
0
LINE
8
0
10
126.754824
20
68.849124
11
126.554838
21
68.649136
0
LINE
8
0
10
126.554838
20
68.649136
11
126.554837
21
49.049286
0
LINE
8
0
10
126.554837
20
49.049286
11
126.754825
21
48.849298
0
LINE
8
0
10
126.754825
20
48.849298
11
145.490083
21
48.849299
0
LINE
8
0
10
145.490083
20
48.849299
11
145.496800
21
47.731022
0
LINE
8
0
10
145.496800
20
47.731022
11
145.629207
21
47.097178
0
LINE
8
0
10
145.629207
20
47.097178
11
145.983473
21
46.595252
0
LINE
8
0
10
145.983473
20
46.595252
11
146.507297
21
46.274284
0
LINE
8
0
10
146.507297
20
46.274284
11
147.148376
21
46.183310
0
LINE
8
0
10
147.148376
20
46.183310
11
147.712683
21
46.216902
0
LINE
8
0
10
147.712683
20
46.216902
11
148.352290
21
46.383652
0
LINE
8
0
10
148.352290
20
46.383652
11
148.872068
21
46.766365
0
LINE
8
0
10
148.872068
20
46.766365
11
149.220266
21
47.309850
0
LINE
8
0
10
149.220266
20
47.309850
11
149.345137
21
47.958915
0
LINE
8
0
10
149.345137
20
47.958915
11
149.290362
21
57.247760
0
LINE
8
0
10
149.290362
20
57.247760
11
149.157874
21
57.881603
0
LINE
8
0
10
149.157874
20
57.881603
11
148.803430
21
58.383529
0
LINE
8
0
10
148.803430
20
58.383529
11
148.279428
21
58.704497
0
LINE
8
0
10
148.279428
20
58.704497
11
147.638267
21
58.795470
0
LINE
8
0
10
147.638267
20
58.795470
11
147.073963
21
58.761881
0
LINE
8
0
10
147.073963
20
58.761881
11
146.554615
21
58.646125
0
LINE
8
0
10
146.554615
20
58.646125
11
146.554614
21
68.649140
0
LINE
8
0
10
146.554614
20
68.649140
11
146.354628
21
68.849128
0
LINE
8
0
10
146.354628
20
68.849128
11
126.754824
21
68.849124
0
LINE
8
0
10
126.754824
20
68.849124
11
126.754824
21
68.849124
0
LINE
8
0
10
128.319413
20
23.628140
11
183.591961
21
23.628140
0
LINE
8
0
10
183.591961
20
23.628140
11
183.591961
21
7.673378
0
LINE
8
0
10
183.591961
20
7.673378
11
128.319413
21
7.673378
0
LINE
8
0
10
128.319413
20
7.673378
11
128.319413
21
23.628140
0
LINE
8
0
10
139.031411
20
120.225340
11
147.302630
21
120.216556
0
LINE
8
0
10
147.302630
20
120.216556
11
147.796667
21
120.212611
0
LINE
8
0
10
147.796667
20
120.212611
11
151.032888
21
120.212611
0
LINE
8
0
10
151.032888
20
120.212611
11
151.681710
21
120.081624
0
LINE
8
0
10
151.681710
20
120.081624
11
152.211545
21
119.724409
0
LINE
8
0
10
152.211545
20
119.724409
11
152.568770
21
119.194583
0
LINE
8
0
10
152.568770
20
119.194583
11
152.699760
21
118.545764
0
LINE
8
0
10
152.699760
20
118.545764
11
152.699760
21
118.545764
0
LINE
8
0
10
152.699760
20
118.545764
11
152.568770
21
117.896941
0
LINE
8
0
10
152.568770
20
117.896941
11
152.211545
21
117.367106
0
LINE
8
0
10
152.211545
20
117.367106
11
151.681710
21
117.009882
0
LINE
8
0
10
151.681710
20
117.009882
11
151.032888
21
116.878891
0
LINE
8
0
10
151.032888
20
116.878891
11
147.796667
21
116.878891
0
LINE
8
0
10
147.796667
20
116.878891
11
147.796667
21
86.437475
0
LINE
8
0
10
147.796667
20
86.437475
11
147.969362
21
85.582092
0
LINE
8
0
10
147.969362
20
85.582092
11
148.440318
21
84.883575
0
LINE
8
0
10
148.440318
20
84.883575
11
149.138842
21
84.412622
0
LINE
8
0
10
149.138842
20
84.412622
11
149.994241
21
84.239928
0
LINE
8
0
10
149.994241
20
84.239928
11
151.819308
21
84.239928
0
LINE
8
0
10
151.819308
20
84.239928
11
151.819308
21
80.275178
0
LINE
8
0
10
151.819308
20
80.275178
11
152.086597
21
78.951259
0
LINE
8
0
10
152.086597
20
78.951259
11
152.815519
21
77.870135
0
LINE
8
0
10
152.815519
20
77.870135
11
153.896652
21
77.141222
0
LINE
8
0
10
153.896652
20
77.141222
11
155.220575
21
76.873937
0
LINE
8
0
10
155.220575
20
76.873937
11
160.554568
21
76.873937
0
LINE
8
0
10
160.554568
20
76.873937
11
161.878487
21
77.141222
0
LINE
8
0
10
161.878487
20
77.141222
11
162.959611
21
77.870135
0
LINE
8
0
10
162.959611
20
77.870135
11
163.688524
21
78.951259
0
LINE
8
0
10
163.688524
20
78.951259
11
163.955809
21
80.275178
0
LINE
8
0
10
163.955809
20
80.275178
11
163.955809
21
84.239928
0
LINE
8
0
10
163.955809
20
84.239928
11
165.284095
21
84.239928
0
LINE
8
0
10
165.284095
20
84.239928
11
166.139478
21
84.412622
0
LINE
8
0
10
166.139478
20
84.412622
11
166.837994
21
84.883575
0
LINE
8
0
10
166.837994
20
84.883575
11
167.308948
21
85.582092
0
LINE
8
0
10
167.308948
20
85.582092
11
167.481642
21
86.437475
0
LINE
8
0
10
167.481642
20
86.437475
11
167.481642
21
116.878891
0
LINE
8
0
10
167.481642
20
116.878891
11
164.302095
21
116.878891
0
LINE
8
0
10
164.302095
20
116.878891
11
163.655288
21
117.009478
0
LINE
8
0
10
163.655288
20
117.009478
11
163.127102
21
117.365595
0
LINE
8
0
10
163.127102
20
117.365595
11
162.770991
21
117.893783
0
LINE
8
0
10
162.770991
20
117.893783
11
162.640408
21
118.540578
0
LINE
8
0
10
162.640408
20
118.540578
11
162.640408
21
118.540605
0
LINE
8
0
10
162.640408
20
118.540605
11
162.770991
21
119.187401
0
LINE
8
0
10
162.770991
20
119.187401
11
163.127102
21
119.715588
0
LINE
8
0
10
163.127102
20
119.715588
11
163.655288
21
120.071706
0
LINE
8
0
10
163.655288
20
120.071706
11
164.302095
21
120.202292
0
LINE
8
0
10
164.302095
20
120.202292
11
167.640419
21
120.202213
0
LINE
8
0
10
167.640419
20
120.202213
11
168.060661
21
120.196918
0
LINE
8
0
10
168.060661
20
120.196918
11
175.222910
21
120.189039
0
LINE
8
Layer 1
10
180.221000
20
112.546000
11
179.961709
21
111.286585
0
LINE
8
Layer 1
10
179.961709
20
111.286585
11
179.257918
21
110.249420
0
LINE
8
Layer 1
10
179.257918
20
110.249420
11
178.220753
21
109.545629
0
LINE
8
Layer 1
10
178.220753
20
109.545629
11
176.961337
21
109.286337
0
LINE
8
Layer 1
10
176.961337
20
109.286337
11
175.677448
21
109.545629
0
LINE
8
Layer 1
10
175.677448
20
109.545629
11
174.627715
21
110.249420
0
LINE
8
Layer 1
10
174.627715
20
110.249420
11
173.919295
21
111.286585
0
LINE
8
Layer 1
10
173.919295
20
111.286585
11
173.659342
21
112.546000
0
LINE
8
Layer 1
10
173.659342
20
112.546000
11
173.919295
21
113.829889
0
LINE
8
Layer 1
10
173.919295
20
113.829889
11
174.627715
21
114.879622
0
LINE
8
Layer 1
10
174.627715
20
114.879622
11
175.677448
21
115.588043
0
LINE
8
Layer 1
10
175.677448
20
115.588043
11
176.961337
21
115.847996
0
LINE
8
Layer 1
10
176.961337
20
115.847996
11
178.220753
21
115.588043
0
LINE
8
Layer 1
10
178.220753
20
115.588043
11
179.257918
21
114.879622
0
LINE
8
Layer 1
10
179.257918
20
114.879622
11
179.961709
21
113.829889
0
LINE
8
Layer 1
10
179.961709
20
113.829889
11
180.221000
21
112.546000
0
LINE
8
Layer 1
10
180.221000
20
112.546000
11
180.221000
21
112.546000
0
LINE
8
Layer 1
10
11.704518
20
24.012328
11
24.469608
21
24.012328
0
LINE
8
Layer 1
10
24.469608
20
24.012328
11
24.469608
21
11.712325
0
LINE
8
Layer 1
10
24.469608
20
11.712325
11
11.704518
21
11.712325
0
LINE
8
Layer 1
10
11.704518
20
11.712325
11
11.704518
21
24.012328
0
LINE
8
Layer 1
10
29.829395
20
17.862324
11
29.590833
21
15.495835
0
LINE
8
Layer 1
10
29.590833
20
15.495835
11
28.906625
21
13.291679
0
LINE
8
Layer 1
10
28.906625
20
13.291679
11
27.823989
21
11.297075
0
LINE
8
Layer 1
10
27.823989
20
11.297075
11
26.390146
21
9.559242
0
LINE
8
Layer 1
10
26.390146
20
9.559242
11
24.652313
21
8.125399
0
LINE
8
Layer 1
10
24.652313
20
8.125399
11
22.657709
21
7.042763
0
LINE
8
Layer 1
10
22.657709
20
7.042763
11
20.453553
21
6.358555
0
LINE
8
Layer 1
10
20.453553
20
6.358555
11
18.087064
21
6.119993
0
LINE
8
Layer 1
10
18.087064
20
6.119993
11
15.785551
21
6.347703
0
LINE
8
Layer 1
10
15.785551
20
6.347703
11
13.593468
21
7.013825
0
LINE
8
Layer 1
10
13.593468
20
7.013825
11
11.572413
21
8.092842
0
LINE
8
Layer 1
10
11.572413
20
8.092842
11
9.783982
21
9.559242
0
LINE
8
Layer 1
10
9.783982
20
9.559242
11
8.317582
21
11.347673
0
LINE
8
Layer 1
10
8.317582
20
11.347673
11
7.238565
21
13.368728
0
LINE
8
Layer 1
10
7.238565
20
13.368728
11
6.572443
21
15.560811
0
LINE
8
Layer 1
10
6.572443
20
15.560811
11
6.344733
21
17.862324
0
LINE
8
Layer 1
10
6.344733
20
17.862324
11
6.572443
21
20.163837
0
LINE
8
Layer 1
10
6.572443
20
20.163837
11
7.238565
21
22.355920
0
LINE
8
Layer 1
10
7.238565
20
22.355920
11
8.317582
21
24.376975
0
LINE
8
Layer 1
10
8.317582
20
24.376975
11
9.783982
21
26.165406
0
LINE
8
Layer 1
10
9.783982
20
26.165406
11
11.572413
21
27.631806
0
LINE
8
Layer 1
10
11.572413
20
27.631806
11
13.593468
21
28.710823
0
LINE
8
Layer 1
10
13.593468
20
28.710823
11
15.785551
21
29.376945
0
LINE
8
Layer 1
10
15.785551
20
29.376945
11
18.087064
21
29.604655
0
LINE
8
Layer 1
10
18.087064
20
29.604655
11
20.453553
21
29.366093
0
LINE
8
Layer 1
10
20.453553
20
29.366093
11
22.657709
21
28.681884
0
LINE
8
Layer 1
10
22.657709
20
28.681884
11
24.652313
21
27.599249
0
LINE
8
Layer 1
10
24.652313
20
27.599249
11
26.390146
21
26.165406
0
LINE
8
Layer 1
10
26.390146
20
26.165406
11
27.823989
21
24.427573
0
LINE
8
Layer 1
10
27.823989
20
24.427573
11
28.906625
21
22.432969
0
LINE
8
Layer 1
10
28.906625
20
22.432969
11
29.590833
21
20.228813
0
LINE
8
Layer 1
10
29.590833
20
20.228813
11
29.829395
21
17.862324
0
LINE
8
Layer 1
10
29.829395
20
17.862324
11
29.829395
21
17.862324
0
LINE
8
Layer 1
10
11.704518
20
51.192328
11
24.469608
21
51.192328
0
LINE
8
Layer 1
10
24.469608
20
51.192328
11
24.469608
21
38.892325
0
LINE
8
Layer 1
10
24.469608
20
38.892325
11
11.704518
21
38.892325
0
LINE
8
Layer 1
10
11.704518
20
38.892325
11
11.704518
21
51.192328
0
LINE
8
Layer 1
10
29.829395
20
45.042324
11
29.590833
21
42.675835
0
LINE
8
Layer 1
10
29.590833
20
42.675835
11
28.906625
21
40.471679
0
LINE
8
Layer 1
10
28.906625
20
40.471679
11
27.823989
21
38.477075
0
LINE
8
Layer 1
10
27.823989
20
38.477075
11
26.390146
21
36.739242
0
LINE
8
Layer 1
10
26.390146
20
36.739242
11
24.652313
21
35.305399
0
LINE
8
Layer 1
10
24.652313
20
35.305399
11
22.657709
21
34.222763
0
LINE
8
Layer 1
10
22.657709
20
34.222763
11
20.453553
21
33.538555
0
LINE
8
Layer 1
10
20.453553
20
33.538555
11
18.087064
21
33.299993
0
LINE
8
Layer 1
10
18.087064
20
33.299993
11
15.785551
21
33.527703
0
LINE
8
Layer 1
10
15.785551
20
33.527703
11
13.593468
21
34.193825
0
LINE
8
Layer 1
10
13.593468
20
34.193825
11
11.572413
21
35.272842
0
LINE
8
Layer 1
10
11.572413
20
35.272842
11
9.783982
21
36.739242
0
LINE
8
Layer 1
10
9.783982
20
36.739242
11
8.317582
21
38.527673
0
LINE
8
Layer 1
10
8.317582
20
38.527673
11
7.238565
21
40.548728
0
LINE
8
Layer 1
10
7.238565
20
40.548728
11
6.572443
21
42.740811
0
LINE
8
Layer 1
10
6.572443
20
42.740811
11
6.344733
21
45.042324
0
LINE
8
Layer 1
10
6.344733
20
45.042324
11
6.572443
21
47.343837
0
LINE
8
Layer 1
10
6.572443
20
47.343837
11
7.238565
21
49.535920
0
LINE
8
Layer 1
10
7.238565
20
49.535920
11
8.317582
21
51.556975
0
LINE
8
Layer 1
10
8.317582
20
51.556975
11
9.783982
21
53.345406
0
LINE
8
Layer 1
10
9.783982
20
53.345406
11
11.572413
21
54.811806
0
LINE
8
Layer 1
10
11.572413
20
54.811806
11
13.593468
21
55.890823
0
LINE
8
Layer 1
10
13.593468
20
55.890823
11
15.785551
21
56.556945
0
LINE
8
Layer 1
10
15.785551
20
56.556945
11
18.087064
21
56.784655
0
LINE
8
Layer 1
10
18.087064
20
56.784655
11
20.453553
21
56.546093
0
LINE
8
Layer 1
10
20.453553
20
56.546093
11
22.657709
21
55.861884
0
LINE
8
Layer 1
10
22.657709
20
55.861884
11
24.652313
21
54.779249
0
LINE
8
Layer 1
10
24.652313
20
54.779249
11
26.390146
21
53.345406
0
LINE
8
Layer 1
10
26.390146
20
53.345406
11
27.823989
21
51.607573
0
LINE
8
Layer 1
10
27.823989
20
51.607573
11
28.906625
21
49.612969
0
LINE
8
Layer 1
10
28.906625
20
49.612969
11
29.590833
21
47.408813
0
LINE
8
Layer 1
10
29.590833
20
47.408813
11
29.829395
21
45.042324
0
LINE
8
Layer 1
10
29.829395
20
45.042324
11
29.829395
21
45.042324
0
LINE
8
Layer 1
10
312.078943
20
45.559410
11
304.500916
21
52.029338
0
LINE
8
Layer 1
10
304.500916
20
52.029338
11
303.915565
21
52.368927
0
LINE
8
Layer 1
10
303.915565
20
52.368927
11
303.249808
21
52.494025
0
LINE
8
Layer 1
10
303.249808
20
52.494025
11
294.508595
21
52.494025
0
LINE
8
Layer 1
10
294.508595
20
52.494025
11
294.508595
21
18.942361
0
LINE
8
Layer 1
10
294.508595
20
18.942361
11
294.319525
21
18.005847
0
LINE
8
Layer 1
10
294.319525
20
18.005847
11
293.803914
21
17.241085
0
LINE
8
Layer 1
10
293.803914
20
17.241085
11
293.039161
21
16.725472
0
LINE
8
Layer 1
10
293.039161
20
16.725472
11
292.102662
21
16.536402
0
LINE
8
Layer 1
10
292.102662
20
16.536402
11
277.286014
21
16.536402
0
LINE
8
Layer 1
10
277.286014
20
16.536402
11
276.349500
21
16.725472
0
LINE
8
Layer 1
10
276.349500
20
16.725472
11
275.584739
21
17.241085
0
LINE
8
Layer 1
10
275.584739
20
17.241085
11
275.069125
21
18.005847
0
LINE
8
Layer 1
10
275.069125
20
18.005847
11
274.880055
21
18.942361
0
LINE
8
Layer 1
10
274.880055
20
18.942361
11
274.880055
21
52.494025
0
LINE
8
Layer 1
10
274.880055
20
52.494025
11
264.966448
21
52.494025
0
LINE
8
Layer 1
10
264.966448
20
52.494025
11
264.300694
21
52.368917
0
LINE
8
Layer 1
10
264.300694
20
52.368917
11
263.715367
21
52.029338
0
LINE
8
Layer 1
10
263.715367
20
52.029338
11
256.137313
21
45.559410
0
LINE
8
Layer 1
10
256.137313
20
45.559410
11
255.806670
21
45.058975
0
LINE
8
Layer 1
10
255.806670
20
45.058975
11
255.851351
21
44.451284
0
LINE
8
Layer 1
10
255.851351
20
44.451284
11
268.826952
21
13.209773
0
LINE
8
Layer 1
10
268.826952
20
13.209773
11
269.202279
21
12.740628
0
LINE
8
Layer 1
10
269.202279
20
12.740628
11
269.792097
21
12.566360
0
LINE
8
Layer 1
10
269.792097
20
12.566360
11
278.764186
21
12.566360
0
LINE
8
Layer 1
10
278.764186
20
12.566360
11
278.835677
21
12.494870
0
LINE
8
Layer 1
10
278.835677
20
12.494870
11
280.026518
21
11.534707
0
LINE
8
Layer 1
10
280.026518
20
11.534707
11
281.345122
21
10.852268
0
LINE
8
Layer 1
10
281.345122
20
10.852268
11
282.748343
21
10.447133
0
LINE
8
Layer 1
10
282.748343
20
10.447133
11
284.193033
21
10.318883
0
LINE
8
Layer 1
10
284.193033
20
10.318883
11
285.636046
21
10.467100
0
LINE
8
Layer 1
10
285.636046
20
10.467100
11
287.034236
21
10.891364
0
LINE
8
Layer 1
10
287.034236
20
10.891364
11
288.344456
21
11.591257
0
LINE
8
Layer 1
10
288.344456
20
11.591257
11
289.523560
21
12.566360
0
LINE
8
Layer 1
10
289.523560
20
12.566360
11
298.388440
21
12.566360
0
LINE
8
Layer 1
10
298.388440
20
12.566360
11
298.996108
21
12.740618
0
LINE
8
Layer 1
10
298.996108
20
12.740618
11
299.389304
21
13.209773
0
LINE
8
Layer 1
10
299.389304
20
13.209773
11
312.364878
21
44.451284
0
LINE
8
Layer 1
10
312.364878
20
44.451284
11
312.396178
21
45.045570
0
LINE
8
Layer 1
10
312.396178
20
45.045570
11
312.078943
21
45.559410
0
LINE
8
Layer 1
10
312.078943
20
45.559410
11
312.078943
21
45.559410
0
LINE
8
Layer 1
10
302.622879
20
33.274769
11
302.363587
21
32.015338
0
LINE
8
Layer 1
10
302.363587
20
32.015338
11
301.659794
21
30.978165
0
LINE
8
Layer 1
10
301.659794
20
30.978165
11
300.622620
21
30.274372
0
LINE
8
Layer 1
10
300.622620
20
30.274372
11
299.363190
21
30.015080
0
LINE
8
Layer 1
10
299.363190
20
30.015080
11
298.079301
21
30.274372
0
LINE
8
Layer 1
10
298.079301
20
30.274372
11
297.029568
21
30.978165
0
LINE
8
Layer 1
10
297.029568
20
30.978165
11
296.321147
21
32.015338
0
LINE
8
Layer 1
10
296.321147
20
32.015338
11
296.061194
21
33.274769
0
LINE
8
Layer 1
10
296.061194
20
33.274769
11
296.321147
21
34.558643
0
LINE
8
Layer 1
10
296.321147
20
34.558643
11
297.029568
21
35.608368
0
LINE
8
Layer 1
10
297.029568
20
35.608368
11
298.079301
21
36.316786
0
LINE
8
Layer 1
10
298.079301
20
36.316786
11
299.363190
21
36.576738
0
LINE
8
Layer 1
10
299.363190
20
36.576738
11
300.622620
21
36.316786
0
LINE
8
Layer 1
10
300.622620
20
36.316786
11
301.659794
21
35.608368
0
LINE
8
Layer 1
10
301.659794
20
35.608368
11
302.363587
21
34.558643
0
LINE
8
Layer 1
10
302.363587
20
34.558643
11
302.622879
21
33.274769
0
LINE
8
Layer 1
10
302.622879
20
33.274769
11
302.622879
21
33.274769
0
LINE
8
Layer 1
10
273.666916
20
33.274769
11
273.407620
21
32.015338
0
LINE
8
Layer 1
10
273.407620
20
32.015338
11
272.703820
21
30.978165
0
LINE
8
Layer 1
10
272.703820
20
30.978165
11
271.666646
21
30.274372
0
LINE
8
Layer 1
10
271.666646
20
30.274372
11
270.407226
21
30.015080
0
LINE
8
Layer 1
10
270.407226
20
30.015080
11
269.123337
21
30.274372
0
LINE
8
Layer 1
10
269.123337
20
30.274372
11
268.073604
21
30.978165
0
LINE
8
Layer 1
10
268.073604
20
30.978165
11
267.365183
21
32.015338
0
LINE
8
Layer 1
10
267.365183
20
32.015338
11
267.105231
21
33.274769
0
LINE
8
Layer 1
10
267.105231
20
33.274769
11
267.365183
21
34.558643
0
LINE
8
Layer 1
10
267.365183
20
34.558643
11
268.073604
21
35.608368
0
LINE
8
Layer 1
10
268.073604
20
35.608368
11
269.123337
21
36.316786
0
LINE
8
Layer 1
10
269.123337
20
36.316786
11
270.407226
21
36.576738
0
LINE
8
Layer 1
10
270.407226
20
36.576738
11
271.666646
21
36.316786
0
LINE
8
Layer 1
10
271.666646
20
36.316786
11
272.703820
21
35.608368
0
LINE
8
Layer 1
10
272.703820
20
35.608368
11
273.407620
21
34.558643
0
LINE
8
Layer 1
10
273.407620
20
34.558643
11
273.666916
21
33.274769
0
LINE
8
Layer 1
10
273.666916
20
33.274769
11
273.666916
21
33.274769
0
LINE
8
Layer 1
10
266.770824
20
45.111921
11
266.573054
21
44.151315
0
LINE
8
Layer 1
10
266.573054
20
44.151315
11
266.036246
21
43.360223
0
LINE
8
Layer 1
10
266.036246
20
43.360223
11
265.245156
21
42.823409
0
LINE
8
Layer 1
10
265.245156
20
42.823409
11
264.284538
21
42.625635
0
LINE
8
Layer 1
10
264.284538
20
42.625635
11
263.305254
21
42.823409
0
LINE
8
Layer 1
10
263.305254
20
42.823409
11
262.504572
21
43.360223
0
LINE
8
Layer 1
10
262.504572
20
43.360223
11
261.964225
21
44.151315
0
LINE
8
Layer 1
10
261.964225
20
44.151315
11
261.765946
21
45.111921
0
LINE
8
Layer 1
10
261.765946
20
45.111921
11
261.964225
21
46.091205
0
LINE
8
Layer 1
10
261.964225
20
46.091205
11
262.504572
21
46.891887
0
LINE
8
Layer 1
10
262.504572
20
46.891887
11
263.305254
21
47.432234
0
LINE
8
Layer 1
10
263.305254
20
47.432234
11
264.284538
21
47.630513
0
LINE
8
Layer 1
10
264.284538
20
47.630513
11
265.245156
21
47.432234
0
LINE
8
Layer 1
10
265.245156
20
47.432234
11
266.036246
21
46.891887
0
LINE
8
Layer 1
10
266.036246
20
46.891887
11
266.573054
21
46.091205
0
LINE
8
Layer 1
10
266.573054
20
46.091205
11
266.770824
21
45.111921
0
LINE
8
Layer 1
10
266.770824
20
45.111921
11
266.770824
21
45.111921
0
LINE
8
Layer 1
10
306.225441
20
45.111921
11
306.027671
21
44.151315
0
LINE
8
Layer 1
10
306.027671
20
44.151315
11
305.490863
21
43.360223
0
LINE
8
Layer 1
10
305.490863
20
43.360223
11
304.699772
21
42.823409
0
LINE
8
Layer 1
10
304.699772
20
42.823409
11
303.739155
21
42.625635
0
LINE
8
Layer 1
10
303.739155
20
42.625635
11
302.759871
21
42.823409
0
LINE
8
Layer 1
10
302.759871
20
42.823409
11
301.959189
21
43.360223
0
LINE
8
Layer 1
10
301.959189
20
43.360223
11
301.418842
21
44.151315
0
LINE
8
Layer 1
10
301.418842
20
44.151315
11
301.220563
21
45.111921
0
LINE
8
Layer 1
10
301.220563
20
45.111921
11
301.418842
21
46.091205
0
LINE
8
Layer 1
10
301.418842
20
46.091205
11
301.959189
21
46.891887
0
LINE
8
Layer 1
10
301.959189
20
46.891887
11
302.759871
21
47.432234
0
LINE
8
Layer 1
10
302.759871
20
47.432234
11
303.739155
21
47.630513
0
LINE
8
Layer 1
10
303.739155
20
47.630513
11
304.699772
21
47.432234
0
LINE
8
Layer 1
10
304.699772
20
47.432234
11
305.490863
21
46.891887
0
LINE
8
Layer 1
10
305.490863
20
46.891887
11
306.027671
21
46.091205
0
LINE
8
Layer 1
10
306.027671
20
46.091205
11
306.225441
21
45.111921
0
LINE
8
Layer 1
10
306.225441
20
45.111921
11
306.225441
21
45.111921
0
LINE
8
Layer 1
10
286.472045
20
13.808101
11
286.294176
21
12.944150
0
LINE
8
Layer 1
10
286.294176
20
12.944150
11
285.811388
21
12.232665
0
LINE
8
Layer 1
10
285.811388
20
12.232665
11
285.099911
21
11.749874
0
LINE
8
Layer 1
10
285.099911
20
11.749874
11
284.235974
21
11.572004
0
LINE
8
Layer 1
10
284.235974
20
11.572004
11
283.355258
21
11.749874
0
LINE
8
Layer 1
10
283.355258
20
11.749874
11
282.635165
21
12.232665
0
LINE
8
Layer 1
10
282.635165
20
12.232665
11
282.149202
21
12.944150
0
LINE
8
Layer 1
10
282.149202
20
12.944150
11
281.970879
21
13.808101
0
LINE
8
Layer 1
10
281.970879
20
13.808101
11
282.149202
21
14.688817
0
LINE
8
Layer 1
10
282.149202
20
14.688817
11
282.635165
21
15.408911
0
LINE
8
Layer 1
10
282.635165
20
15.408911
11
283.355258
21
15.894873
0
LINE
8
Layer 1
10
283.355258
20
15.894873
11
284.235974
21
16.073196
0
LINE
8
Layer 1
10
284.235974
20
16.073196
11
285.099911
21
15.894873
0
LINE
8
Layer 1
10
285.099911
20
15.894873
11
285.811388
21
15.408911
0
LINE
8
Layer 1
10
285.811388
20
15.408911
11
286.294176
21
14.688817
0
LINE
8
Layer 1
10
286.294176
20
14.688817
11
286.472045
21
13.808101
0
LINE
8
Layer 1
10
286.472045
20
13.808101
11
286.472045
21
13.808101
 0 
ENDSEC
 0 
EOF