<svg id="katman_1" data-name="katman 1" xmlns="http://www.w3.org/2000/svg" viewBox="0 0 877.48 350.6"><defs><style>.cls-1,.cls-2{fill:none;stroke-miterlimit:10;stroke-width:0.25px;}.cls-1{stroke:#010101;}.cls-2{stroke:#000;}</style></defs><title>BottomPalette</title><path class="cls-1" d="M323.73,121.28a3.12,3.12,0,1,1-3.11-3.13A3.12,3.12,0,0,1,323.73,121.28Z" transform="translate(-18.72 -37.3)"/><circle class="cls-1" cx="187.85" cy="108.09" r="3.12"/><path class="cls-1" d="M109.42,92.67a3.12,3.12,0,1,1-3.11-3.13A3.12,3.12,0,0,1,109.42,92.67Z" transform="translate(-18.72 -37.3)"/><path class="cls-1" d="M86.6,202.51a3.12,3.12,0,1,1,3.12-3.11A3.12,3.12,0,0,1,86.6,202.51Z" transform="translate(-18.72 -37.3)"/><path class="cls-1" d="M374.38,353.91a3.12,3.12,0,1,1-3.11-3.12A3.11,3.11,0,0,1,374.38,353.91Z" transform="translate(-18.72 -37.3)"/><path class="cls-1" d="M275.38,235.46a3.12,3.12,0,1,1-3.11-3.12A3.12,3.12,0,0,1,275.38,235.46Z" transform="translate(-18.72 -37.3)"/><path class="cls-1" d="M591.18,121.31a3.12,3.12,0,1,0,3.11-3.13A3.12,3.12,0,0,0,591.18,121.31Z" transform="translate(-18.72 -37.3)"/><circle class="cls-1" cx="689.63" cy="108.12" r="3.12"/><path class="cls-1" d="M805.49,92.7a3.12,3.12,0,1,0,3.11-3.13A3.12,3.12,0,0,0,805.49,92.7Z" transform="translate(-18.72 -37.3)"/><path class="cls-1" d="M828.31,202.54a3.12,3.12,0,1,0-3.12-3.11A3.12,3.12,0,0,0,828.31,202.54Z" transform="translate(-18.72 -37.3)"/><path class="cls-2" d="M895.94,201.62,867.75,44.46a8.51,8.51,0,0,0-8.4-7l-169.87.42a3.23,3.23,0,0,0-.69.07l-50.62,9.14a2.83,2.83,0,0,0-2.1,1.67l-2.33,5.42L540.22,73.57a5.66,5.66,0,0,1-4.85-1.25l-18.61-16a7.4,7.4,0,0,0-5.12-2.24h-2.91l-51.27.13v0l-51.28-.13h-2.91a7.4,7.4,0,0,0-5.12,2.24l-18.61,16a5.64,5.64,0,0,1-4.84,1.25L281.17,54.15l-2.32-5.42a2.86,2.86,0,0,0-2.1-1.67l-50.63-9.14a3.11,3.11,0,0,0-.69-.07L55.56,37.42a8.51,8.51,0,0,0-8.39,7L19,201.59a8.51,8.51,0,0,0,6.87,9.88L136.14,232a5.61,5.61,0,0,0,2.16,0l24-5a5.86,5.86,0,0,1,2.17,0l41.18,8.56a2.85,2.85,0,0,1,2.33,2.8l-9.61,48.62a2.82,2.82,0,0,0,2,3.28l86.83,31.06a2.82,2.82,0,0,1,2,2.06l10,23.2a2.81,2.81,0,0,0,1.22,1.71l66.71,37.06a14.25,14.25,0,0,0,7.65,2.26h4.36l78.24.19v0l78.23-.19h4.36a14.22,14.22,0,0,0,7.65-2.26l66.71-37.06a2.81,2.81,0,0,0,1.22-1.71l10-23.2a2.83,2.83,0,0,1,2-2.06l86.83-31.06a2.83,2.83,0,0,0,2-3.28l-9.62-48.62a2.85,2.85,0,0,1,2.33-2.8L750.45,227a5.66,5.66,0,0,1,2.17,0l24,5a5.76,5.76,0,0,0,2.15,0L889.06,211.5A8.51,8.51,0,0,0,895.94,201.62Z" transform="translate(-18.72 -37.3)"/><path class="cls-1" d="M540.53,353.94a3.12,3.12,0,1,0,3.11-3.12A3.12,3.12,0,0,0,540.53,353.94Z" transform="translate(-18.72 -37.3)"/><path class="cls-1" d="M639.53,235.5a3.12,3.12,0,1,0,3.11-3.13A3.12,3.12,0,0,0,639.53,235.5Z" transform="translate(-18.72 -37.3)"/></svg>