<svg id="katman_1" data-name="katman 1" xmlns="http://www.w3.org/2000/svg" viewBox="0 0 877.48 350.6"><defs><style>.cls-1,.cls-2{fill:none;stroke-miterlimit:10;stroke-width:0.25px;}.cls-1{stroke:#010101;}.cls-2{stroke:#000;}</style></defs><title>palette</title><rect class="cls-1" x="325.61" y="95.09" width="39.4" height="39.4" transform="translate(156.71 397.19) rotate(-79.86)"/><rect class="cls-1" x="316.1" y="148.25" width="39.4" height="39.4" transform="translate(96.55 431.63) rotate(-79.86)"/><path class="cls-1" d="M319.82,121.28a3.12,3.12,0,1,1-3.11-3.13A3.13,3.13,0,0,1,319.82,121.28Z" transform="translate(-14.8 -37.3)"/><rect class="cls-1" x="274.2" y="75.82" width="39.4" height="39.4" transform="translate(133.33 330.71) rotate(-79.86)"/><rect class="cls-1" x="264.69" y="128.97" width="39.4" height="39.4" transform="translate(73.17 365.15) rotate(-79.86)"/><rect class="cls-1" x="255.18" y="182.13" width="39.4" height="39.4" transform="translate(13.01 399.59) rotate(-79.86)"/><rect class="cls-1" x="222.78" y="56.54" width="39.4" height="39.4" transform="translate(109.93 264.21) rotate(-79.86)"/><rect class="cls-1" x="213.27" y="109.7" width="39.4" height="39.4" transform="translate(49.78 298.65) rotate(-79.86)"/><rect class="cls-1" x="167.88" y="56.8" width="39.4" height="39.4" transform="translate(64.45 210.39) rotate(-79.86)"/><circle class="cls-1" cx="187.85" cy="108.09" r="3.12"/><rect class="cls-1" x="158.38" y="109.96" width="39.4" height="39.4" transform="translate(4.29 244.83) rotate(-79.86)"/><rect class="cls-1" x="112.98" y="68.06" width="39.4" height="39.4" transform="translate(8.13 165.62) rotate(-79.86)"/><path class="cls-1" d="M105.51,92.67a3.12,3.12,0,1,1-3.11-3.13A3.12,3.12,0,0,1,105.51,92.67Z" transform="translate(-14.8 -37.3)"/><rect class="cls-1" x="58.08" y="57.32" width="39.4" height="39.4" transform="translate(-26.54 102.72) rotate(-79.86)"/><rect class="cls-1" x="48.57" y="110.48" width="39.4" height="39.4" transform="translate(-86.7 137.16) rotate(-79.86)"/><rect class="cls-1" x="39.06" y="163.63" width="39.4" height="39.4" transform="translate(-146.86 171.6) rotate(-79.86)"/><path class="cls-1" d="M82.68,202.51a3.12,3.12,0,1,1,3.13-3.11A3.12,3.12,0,0,1,82.68,202.51Z" transform="translate(-14.8 -37.3)"/><rect class="cls-1" x="93.97" y="174.37" width="39.4" height="39.4" transform="translate(-112.19 234.5) rotate(-79.86)"/><rect class="cls-1" x="103.47" y="121.22" width="39.4" height="39.4" transform="translate(-52.03 200.06) rotate(-79.86)"/><rect class="cls-1" x="148.87" y="163.11" width="39.4" height="39.4" transform="translate(-55.87 279.27) rotate(-79.86)"/><rect class="cls-1" x="203.77" y="162.85" width="39.4" height="39.4" transform="translate(-10.39 333.08) rotate(-79.86)"/><rect class="cls-1" x="306.59" y="201.4" width="39.4" height="39.4" transform="translate(36.39 466.07) rotate(-79.86)"/><rect class="cls-1" x="216.8" y="241.92" width="39.4" height="39.4" transform="translate(-86.99 394.89) rotate(-76.81)"/><rect class="cls-1" x="276.07" y="259.93" width="39.4" height="39.4" transform="translate(-95.58 396.88) rotate(-65.71)"/><rect class="cls-1" x="325.29" y="298.33" width="39.4" height="39.4" transform="translate(-114.55 430.31) rotate(-61.26)"/><circle class="cls-1" cx="380.36" cy="190.56" r="8.5"/><path class="cls-1" d="M370.47,353.91a3.12,3.12,0,1,1-3.11-3.12A3.12,3.12,0,0,1,370.47,353.91Z" transform="translate(-14.8 -37.3)"/><path class="cls-1" d="M271.47,235.46a3.12,3.12,0,1,1-3.11-3.12A3.13,3.13,0,0,1,271.47,235.46Z" transform="translate(-14.8 -37.3)"/><rect class="cls-1" x="542.08" y="95.12" width="39.4" height="39.4" transform="translate(-26.24 63.4) rotate(-10.14)"/><rect class="cls-1" x="551.59" y="148.28" width="39.4" height="39.4" transform="translate(-35.45 65.9) rotate(-10.14)"/><path class="cls-1" d="M587.27,121.31a3.12,3.12,0,1,0,3.11-3.13A3.12,3.12,0,0,0,587.27,121.31Z" transform="translate(-14.8 -37.3)"/><rect class="cls-1" x="593.49" y="75.85" width="39.4" height="39.4" transform="translate(-22.05 72.15) rotate(-10.14)"/><rect class="cls-1" x="603" y="129" width="39.4" height="39.4" transform="translate(-31.26 74.65) rotate(-10.14)"/><rect class="cls-1" x="612.5" y="182.16" width="39.4" height="39.4" transform="translate(-40.47 77.15) rotate(-10.14)"/><rect class="cls-1" x="644.91" y="56.57" width="39.4" height="39.4" transform="translate(-17.85 80.9) rotate(-10.14)"/><rect class="cls-1" x="654.41" y="109.73" width="39.4" height="39.4" transform="translate(-27.06 83.39) rotate(-10.14)"/><rect class="cls-1" x="699.8" y="56.83" width="39.4" height="39.4" transform="translate(-17.04 90.57) rotate(-10.14)"/><circle class="cls-1" cx="689.63" cy="108.12" r="3.12"/><rect class="cls-1" x="709.31" y="109.99" width="39.4" height="39.4" transform="translate(-26.25 93.07) rotate(-10.14)"/><rect class="cls-1" x="754.71" y="68.09" width="39.4" height="39.4" transform="translate(-18.16 100.41) rotate(-10.14)"/><path class="cls-1" d="M801.58,92.7a3.12,3.12,0,1,0,3.11-3.13A3.12,3.12,0,0,0,801.58,92.7Z" transform="translate(-14.8 -37.3)"/><rect class="cls-1" x="809.61" y="57.35" width="39.4" height="39.4" transform="translate(-15.42 109.91) rotate(-10.14)"/><rect class="cls-1" x="819.12" y="110.51" width="39.4" height="39.4" transform="translate(-24.63 112.41) rotate(-10.14)"/><rect class="cls-1" x="828.62" y="163.66" width="39.4" height="39.4" transform="translate(-33.84 114.92) rotate(-10.14)"/><path class="cls-1" d="M824.4,202.54a3.12,3.12,0,1,0-3.12-3.11A3.11,3.11,0,0,0,824.4,202.54Z" transform="translate(-14.8 -37.3)"/><rect class="cls-1" x="773.72" y="174.4" width="39.4" height="39.4" transform="translate(-36.58 105.42) rotate(-10.14)"/><rect class="cls-1" x="764.21" y="121.25" width="39.4" height="39.4" transform="translate(-27.37 102.92) rotate(-10.14)"/><rect class="cls-1" x="718.82" y="163.14" width="39.4" height="39.4" transform="translate(-35.46 95.58) rotate(-10.14)"/><rect class="cls-1" x="663.92" y="162.88" width="39.4" height="39.4" transform="translate(-36.27 85.93) rotate(-10.14)"/><rect class="cls-1" x="561.09" y="201.43" width="39.4" height="39.4" transform="translate(-44.66 68.41) rotate(-10.14)"/><path class="cls-2" d="M892,201.62,863.83,44.46a8.5,8.5,0,0,0-8.39-7l-169.88.42a3.23,3.23,0,0,0-.69.07l-50.62,9.14a2.86,2.86,0,0,0-2.1,1.67l-2.33,5.42L536.3,73.57a5.63,5.63,0,0,1-4.84-1.25l-18.61-16a7.4,7.4,0,0,0-5.12-2.24h-2.91l-51.28.13v0l-51.27-.13h-2.91a7.4,7.4,0,0,0-5.12,2.24l-18.61,16a5.66,5.66,0,0,1-4.85,1.25L277.26,54.15l-2.33-5.42a2.83,2.83,0,0,0-2.1-1.67l-50.62-9.14a3.23,3.23,0,0,0-.69-.07L51.65,37.42a8.52,8.52,0,0,0-8.4,7L15.06,201.59a8.51,8.51,0,0,0,6.88,9.88L132.23,232a5.56,5.56,0,0,0,2.15,0l24-5a5.86,5.86,0,0,1,2.17,0l41.18,8.56a2.85,2.85,0,0,1,2.33,2.8l-9.62,48.62a2.83,2.83,0,0,0,2,3.28l86.83,31.06a2.83,2.83,0,0,1,2,2.06l10.05,23.2a2.79,2.79,0,0,0,1.21,1.71l66.72,37.06a14.22,14.22,0,0,0,7.65,2.26h4.36l78.23.19v0l78.24-.19h4.35a14.2,14.2,0,0,0,7.65-2.26l66.72-37.06a2.81,2.81,0,0,0,1.22-1.71l10-23.2a2.82,2.82,0,0,1,2-2.06l86.83-31.06a2.82,2.82,0,0,0,2-3.28L703,238.32a2.85,2.85,0,0,1,2.33-2.8L746.54,227a5.66,5.66,0,0,1,2.17,0l24,5a5.81,5.81,0,0,0,2.16,0L885.15,211.5A8.51,8.51,0,0,0,892,201.62Z" transform="translate(-14.8 -37.3)"/><rect class="cls-1" x="650.89" y="241.95" width="39.4" height="39.4" transform="translate(-56.82 122.61) rotate(-13.19)"/><rect class="cls-1" x="591.62" y="259.96" width="39.4" height="39.4" transform="translate(-75.73 238.94) rotate(-24.29)"/><rect class="cls-2" x="542.39" y="298.36" width="39.4" height="39.4" transform="translate(-98.49 272.15) rotate(-28.74)"/><circle class="cls-1" cx="497.11" cy="190.6" r="8.5"/><path class="cls-1" d="M536.62,353.94a3.12,3.12,0,1,0,3.11-3.12A3.11,3.11,0,0,0,536.62,353.94Z" transform="translate(-14.8 -37.3)"/><path class="cls-1" d="M635.62,235.5a3.12,3.12,0,1,0,3.11-3.13A3.12,3.12,0,0,0,635.62,235.5Z" transform="translate(-14.8 -37.3)"/><rect class="cls-2" x="418.78" y="241.04" width="39.69" height="39.69"/><rect class="cls-2" x="418.91" y="295.9" width="39.69" height="39.69"/><rect class="cls-2" x="473.45" y="295.9" width="39.69" height="39.69"/><rect class="cls-2" x="364.36" y="295.82" width="39.69" height="39.69"/></svg>