<svg id="katman_1" data-name="katman 1" xmlns="http://www.w3.org/2000/svg" viewBox="0 0 877.48 350.6"><defs><style>.cls-1,.cls-2,.cls-3{fill:none;stroke-miterlimit:10;stroke-width:0.25px;}.cls-1{stroke:#010101;}.cls-2{stroke:#000;}.cls-3{stroke:#241916;}</style></defs><title>UpperMiddlePlate</title><rect class="cls-1" x="313.26" y="145.41" width="45.07" height="45.07" transform="translate(96.56 431.64) rotate(-79.86)"/><rect class="cls-1" x="261.85" y="126.14" width="45.07" height="45.07" transform="translate(73.17 365.15) rotate(-79.86)"/><rect class="cls-1" x="252.35" y="179.29" width="45.07" height="45.07" transform="translate(13.01 399.59) rotate(-79.86)"/><rect class="cls-1" x="219.94" y="53.71" width="45.07" height="45.07" transform="translate(109.93 264.21) rotate(-79.86)"/><rect class="cls-1" x="165.05" y="53.97" width="45.07" height="45.07" transform="translate(64.45 210.39) rotate(-79.86)"/><rect class="cls-1" x="45.73" y="107.64" width="45.07" height="45.07" transform="translate(-86.7 137.16) rotate(-79.86)"/><rect class="cls-1" x="100.64" y="118.38" width="45.07" height="45.07" transform="translate(-52.03 200.06) rotate(-79.86)"/><rect class="cls-1" x="146.03" y="160.28" width="45.07" height="45.07" transform="translate(-55.87 279.27) rotate(-79.86)"/><rect class="cls-1" x="200.93" y="160.02" width="45.07" height="45.07" transform="translate(-10.39 333.08) rotate(-79.86)"/><rect class="cls-1" x="303.76" y="198.57" width="45.07" height="45.07" transform="translate(36.39 466.07) rotate(-79.86)"/><rect class="cls-1" x="213.96" y="239.09" width="45.07" height="45.07" transform="translate(-86.99 394.89) rotate(-76.81)"/><rect class="cls-1" x="273.24" y="257.1" width="45.07" height="45.07" transform="translate(-95.58 396.88) rotate(-65.71)"/><rect class="cls-1" x="322.46" y="295.49" width="45.07" height="45.07" transform="translate(-114.55 430.3) rotate(-61.26)"/><rect class="cls-1" x="548.75" y="145.44" width="45.07" height="45.07" transform="matrix(0.98, -0.18, 0.18, 0.98, -35.45, 65.89)"/><rect class="cls-1" x="600.16" y="126.17" width="45.07" height="45.07" transform="translate(-31.26 74.66) rotate(-10.14)"/><rect class="cls-1" x="609.67" y="179.32" width="45.07" height="45.07" transform="translate(-40.47 77.16) rotate(-10.14)"/><rect class="cls-1" x="642.07" y="53.74" width="45.07" height="45.07" transform="translate(-17.85 80.9) rotate(-10.14)"/><rect class="cls-1" x="696.97" y="54" width="45.07" height="45.07" transform="translate(-17.04 90.56) rotate(-10.14)"/><rect class="cls-1" x="816.28" y="107.67" width="45.07" height="45.07" transform="translate(-24.63 112.42) rotate(-10.14)"/><rect class="cls-1" x="761.38" y="118.41" width="45.07" height="45.07" transform="translate(-27.37 102.93) rotate(-10.14)"/><rect class="cls-1" x="715.98" y="160.31" width="45.07" height="45.07" transform="translate(-35.46 95.58) rotate(-10.14)"/><rect class="cls-1" x="661.09" y="160.05" width="45.07" height="45.07" transform="translate(-36.27 85.91) rotate(-10.14)"/><rect class="cls-1" x="558.26" y="198.6" width="45.07" height="45.07" transform="translate(-44.66 68.41) rotate(-10.14)"/><rect class="cls-1" x="648.05" y="239.12" width="45.07" height="45.07" transform="translate(-56.82 122.6) rotate(-13.19)"/><rect class="cls-1" x="588.78" y="257.13" width="45.07" height="45.07" transform="translate(-75.73 238.93) rotate(-24.29)"/><rect class="cls-2" x="539.56" y="295.52" width="45.07" height="45.07" transform="translate(-98.49 272.16) rotate(-28.74)"/><rect class="cls-2" x="430.75" y="275.51" width="45.36" height="45.35" transform="translate(736.81 -192.54) rotate(90)"/><rect class="cls-2" x="430.87" y="330.37" width="45.36" height="45.35" transform="translate(791.79 -137.81) rotate(90)"/><rect class="cls-2" x="485.42" y="330.37" width="45.36" height="45.35" transform="translate(846.34 -192.35) rotate(90)"/><rect class="cls-2" x="376.33" y="330.29" width="45.35" height="45.35" transform="translate(737.16 -83.34) rotate(90)"/><path class="cls-3" d="M114.46,61.61l-5,28.2a7.6,7.6,0,0,0-7-4.73,7.48,7.48,0,0,0-3.3.76l4.84-27L59.56,50.87,51.63,95.24,96,103.17l.94-5.25A7.56,7.56,0,0,0,108,97.76L106.53,106l44.37,7.93,7.93-44.36Z" transform="translate(-14.8 -37.3)"/><path class="cls-3" d="M95.45,167.92,90.11,197.8a7.6,7.6,0,0,0-7.42-6,7.4,7.4,0,0,0-2.63.48l4.85-27.17-44.36-7.94-7.94,44.37L77,209.49l.78-4.35a7.55,7.55,0,0,0,11.34-1.7l-1.59,8.85,44.37,7.94,7.94-44.37Z" transform="translate(-14.8 -37.3)"/><path class="cls-3" d="M259.12,111.18l-44.36-7.93-6.61,36.93a7.54,7.54,0,0,0-8.77-1.62l4.85-27.12-44.37-7.93-7.93,44.37,44.36,7.93.92-5.14a7.57,7.57,0,0,0,12.51-2.54l41.47,7.42Z" transform="translate(-14.8 -37.3)"/><path class="cls-3" d="M327.09,88.64l-4.9,27.4a7.55,7.55,0,0,0-5.49-2.35,7.48,7.48,0,0,0-3.3.76l6.65-37.15-44.37-7.93-7.93,44.36,41.37,7.4v.14a7.58,7.58,0,0,0,7.58,7.59,7.5,7.5,0,0,0,3.34-.79l-.88,4.94,44.36,7.93,7.94-44.37Z" transform="translate(-14.8 -37.3)"/><circle class="cls-3" cx="253.83" cy="198.16" r="7.59"/><circle class="cls-3" cx="352.55" cy="316.61" r="7.59"/><circle class="cls-3" cx="524.93" cy="316.64" r="7.59"/><circle class="cls-3" cx="623.65" cy="198.16" r="7.59"/><path class="cls-3" d="M639.34,113.76,631.41,69.4,587,77.33l6.64,37.15a7.54,7.54,0,0,0-8.78,1.6L580,88.67,535.63,96.6,543.56,141,587.93,133l-.88-4.94a7.5,7.5,0,0,0,3.34.79A7.58,7.58,0,0,0,598,121.3a.66.66,0,0,0,0-.14Z" transform="translate(-14.8 -37.3)"/><path class="cls-3" d="M755.16,147.91l-7.94-44.37-44.36,7.93,4.85,27.12a7.49,7.49,0,0,0-3.28-.75,7.57,7.57,0,0,0-5.5,2.37l-6.6-36.93L648,111.21l7.94,44.37,41.47-7.42a7.56,7.56,0,0,0,12.5,2.54l.92,5.14Z" transform="translate(-14.8 -37.3)"/><path class="cls-3" d="M874.47,201.58l-7.93-44.37-44.37,7.94L827,192.32a7.45,7.45,0,0,0-2.64-.48,7.58,7.58,0,0,0-7.41,6L811.64,168l-44.37,7.94,7.94,44.37,44.36-7.94L818,203.47a7.55,7.55,0,0,0,11.34,1.7l.78,4.35Z" transform="translate(-14.8 -37.3)"/><path class="cls-3" d="M855.46,95.27,847.52,50.9l-44.36,7.93,4.83,27a7.56,7.56,0,0,0-10.32,4l-5-28.21-44.36,7.94,7.93,44.36L800.56,106l-1.47-8.22a7.55,7.55,0,0,0,11.06.16l.94,5.25Z" transform="translate(-14.8 -37.3)"/><path class="cls-2" d="M892,201.62,863.83,44.46a8.5,8.5,0,0,0-8.39-7l-169.88.42a3.23,3.23,0,0,0-.69.07l-50.62,9.14a2.86,2.86,0,0,0-2.1,1.67l-2.33,5.42L536.3,73.57a5.63,5.63,0,0,1-4.84-1.25l-18.61-16a7.4,7.4,0,0,0-5.12-2.24h-2.91l-39.52.1V99.32h46.8V207.73h19.44v53.51H375.31V207.73h19.4V99.32h47V54.2l-39.45-.1h-2.91a7.4,7.4,0,0,0-5.12,2.24l-18.61,16a5.66,5.66,0,0,1-4.85,1.25L277.26,54.15l-2.33-5.42a2.83,2.83,0,0,0-2.1-1.67l-50.62-9.14a3.23,3.23,0,0,0-.69-.07L51.65,37.42a8.52,8.52,0,0,0-8.4,7L15.06,201.59a8.51,8.51,0,0,0,6.88,9.88L132.23,232a5.56,5.56,0,0,0,2.15,0l24-5a5.86,5.86,0,0,1,2.17,0l41.18,8.56a2.85,2.85,0,0,1,2.33,2.8l-9.62,48.62a2.83,2.83,0,0,0,2,3.28l86.83,31.06a2.83,2.83,0,0,1,2,2.06l10.05,23.2a2.79,2.79,0,0,0,1.21,1.71l66.72,37.06a14.22,14.22,0,0,0,7.65,2.26h4.36l78.23.19v0l78.24-.19h4.35a14.2,14.2,0,0,0,7.65-2.26l66.72-37.06a2.81,2.81,0,0,0,1.22-1.71l10-23.2a2.82,2.82,0,0,1,2-2.06l86.83-31.06a2.82,2.82,0,0,0,2-3.28L703,238.32a2.85,2.85,0,0,1,2.33-2.8L746.54,227a5.66,5.66,0,0,1,2.17,0l24,5a5.81,5.81,0,0,0,2.16,0L885.15,211.5A8.51,8.51,0,0,0,892,201.62Z" transform="translate(-14.8 -37.3)"/></svg>